<svg width="69" height="69" viewBox="0 0 69 69" version="1.1" xmlns="http://www.w3.org/2000/svg" xmlns:xlink="http://www.w3.org/1999/xlink">
<g id="Canvas" fill="none">
<g id="discord copy">
<g id="Group 3" filter="url(#filter0_d)">
<mask id="mask0" mask-type="alpha" maskUnits="userSpaceOnUse" x="12" y="9" width="46" height="45">
<path id="Clip 2" fill-rule="evenodd" clip-rule="evenodd" d="M 0 0L 44.9947 0L 44.9947 45L 0 45L 0 0Z" transform="translate(12.0054 9)" fill="white"/>
</mask>
<g mask="url(#mask0)">
<path id="Fill 1" fill-rule="evenodd" clip-rule="evenodd" d="M 45 22.5C 45 34.9264 34.9264 45 22.5 45C 10.0736 45 0 34.9264 0 22.5C 0 10.0736 10.0736 0 22.5 0C 34.9264 0 45 10.0736 45 22.5Z" transform="translate(12 9)" fill="url(#paint0_linear)"/>
</g>
</g>
<path id="Fill 4" fill-rule="evenodd" clip-rule="evenodd" d="M 24.2958 16.169C 21.798 16.3876 19.7143 14.3424 19.9367 11.8907C 20.1072 10.0114 21.649 8.49808 23.5638 8.33047C 26.0615 8.11178 28.1453 10.157 27.9229 12.6087C 27.7524 14.488 26.2106 16.0014 24.2958 16.169ZM 10.4365 16.169C 7.93874 16.3876 5.8549 14.3424 6.07735 11.8907C 6.24794 10.0114 7.78967 8.49808 9.70443 8.33047C 12.2022 8.11178 14.286 10.157 14.0635 12.6087C 13.8929 14.488 12.3512 16.0014 10.4365 16.169ZM 31.4225 1.81146L 31.31 1.53167C 31.3067 1.52364 31.3004 1.517 31.2922 1.51342L 31.0132 1.38902C 28.7158 0.364824 25.4749 0.112092 22.6075 0L 19.378 0C 19.3415 0 19.3303 0.0484512 19.3632 0.0638159L 25.997 3.18538C 26.0344 3.20293 26.0137 3.25758 25.9736 3.24728C 22.9902 2.48253 19.9762 2.09545 17 2.09545C 14.0335 2.09545 11.0295 2.48018 8.05524 3.23994C 8.01469 3.25024 7.99423 3.19498 8.03212 3.17779L 14.8986 0.0640778C 14.9319 0.048975 14.9209 0 14.8842 0L 11.3926 0C 8.52531 0.112092 5.28441 0.364824 2.98684 1.38902L 2.70783 1.51342C 2.69965 1.517 2.69333 1.52355 2.69004 1.53167L 2.57762 1.81146C 0.226415 7.65956 -0.441723 17.5872 0.270797 23.8065L 0.308064 24.1326L 0.572402 24.3339C 4.24565 27.1297 9.15707 28.5669 12.2468 28.9485L 12.6464 28.9978C 12.7763 29.0139 12.9003 28.9402 12.9463 28.8199L 14.9573 23.5464C 15.0199 23.3819 14.9133 23.2024 14.7366 23.1753L 14.1195 23.0801C 11.9677 22.7483 8.91906 21.8687 6.34265 19.5752C 6.28768 19.5263 6.34069 19.4383 6.41025 19.4637C 6.61962 19.5401 6.85051 19.6286 7.08826 19.7197C 7.67092 19.943 8.27342 20.174 8.66655 20.2658C 11.4295 20.9106 14.2312 21.2375 16.9999 21.2375L 16.9999 21.1892L 17.0056 21.1892L 17.006 21.2375C 19.7692 21.2375 22.5709 20.9106 25.3334 20.2658C 25.7267 20.174 26.3293 19.943 26.912 19.7196C 27.1496 19.6285 27.3804 19.5399 27.5896 19.4637C 27.6592 19.4383 27.7121 19.5264 27.6572 19.5752C 25.0895 21.8586 22.037 22.7358 19.8804 23.0674L 19.2634 23.1622C 19.0867 23.1893 18.9799 23.3687 19.0424 23.5331L 21.0537 28.8196C 21.0996 28.9401 21.2237 29.0139 21.3536 28.9978L 21.7534 28.9485C 24.8431 28.567 29.7542 27.1297 33.4275 24.3339L 33.6918 24.1326L 33.7291 23.8065C 34.4418 17.5872 33.7737 7.65948 31.4225 1.81146Z" transform="translate(18 17)" fill="#FFFFFE"/>
</g>
</g>
<defs>
<filter id="filter0_d" x="0.00537109" y="0" width="68.9946" height="69" filterUnits="userSpaceOnUse" color-interpolation-filters="sRGB">
<feFlood flood-opacity="0" result="BackgroundImageFix"/>
<feColorMatrix in="SourceAlpha" type="matrix" values="0 0 0 0 0 0 0 0 0 0 0 0 0 0 0 0 0 0 255 0"/>
<feOffset dy="3"/>
<feGaussianBlur stdDeviation="6"/>
<feColorMatrix type="matrix" values="0 0 0 0 0.218932 0 0 0 0 0.371656 0 0 0 0 0.619127 0 0 0 0.5 0"/>
<feBlend mode="normal" in2="BackgroundImageFix" result="effect1_dropShadow"/>
<feBlend mode="normal" in="SourceGraphic" in2="effect1_dropShadow" result="shape"/>
</filter>
<linearGradient id="paint0_linear" x2="1" gradientUnits="userSpaceOnUse" gradientTransform="matrix(-0.689741 47.9816 -47.9816 -0.689741 11.6059 -8.35601)">
<stop stop-color="#24F281"/>
<stop offset="1" stop-color="#0083FF"/>
</linearGradient>
</defs>
</svg>
