<svg id="Layer_1" data-name="Layer 1" xmlns="http://www.w3.org/2000/svg" viewBox="0 0 50 50"><defs><style>.cls-1{fill:#fff;}</style></defs><title>Untitled-1</title><g id="Page-1"><g id="iPhone-8"><g id="Discord-_1_" data-name="Discord-(1)"><path id="path-2" class="cls-1" d="M31.87,23.68a2.44,2.44,0,0,1-2.18,2.64,2.45,2.45,0,0,1-2.17-2.64,2.43,2.43,0,0,1,2.17-2.63A2.43,2.43,0,0,1,31.87,23.68ZM21,21.05a2.43,2.43,0,0,0-2.17,2.63A2.45,2.45,0,0,0,21,26.32a2.44,2.44,0,0,0,2.18-2.64A2.42,2.42,0,0,0,21,21.05ZM47.55,5.15V50C41.28,44.43,43.28,46.28,36,39.48l1.32,4.62H9.1A5.13,5.13,0,0,1,4,39V5.15A5.13,5.13,0,0,1,9.1,0H42.45A5.13,5.13,0,0,1,47.55,5.15Zm-7,24.37a33.27,33.27,0,0,0-3.65-14.61,12.68,12.68,0,0,0-7.12-2.63l-.36.4a17,17,0,0,1,6.31,3.18,21.77,21.77,0,0,0-18.94-.72c-.93.42-1.49.72-1.49.72A17.09,17.09,0,0,1,22,12.58l-.26-.3a12.68,12.68,0,0,0-7.12,2.63A33.27,33.27,0,0,0,11,29.52s2.13,3.64,7.73,3.81c0,0,.94-1.12,1.7-2.08A7.89,7.89,0,0,1,16,28.3c.38.25,1,.59,1,.62a18.66,18.66,0,0,0,15.82.88,14.6,14.6,0,0,0,2.92-1.48,8,8,0,0,1-4.59,3c.76,1,1.67,2,1.67,2C38.43,33.16,40.58,29.52,40.58,29.52Z"/></g></g></g></svg>