<svg id="Layer_1" data-name="Layer 1" xmlns="http://www.w3.org/2000/svg" xmlns:xlink="http://www.w3.org/1999/xlink" viewBox="0 0 75 75"><defs><style>.cls-1{fill:url(#linear-gradient);}</style><linearGradient id="linear-gradient" x1="-635.44" y1="426.14" x2="-634.44" y2="426.14" gradientTransform="matrix(51.56, 76.57, 43.32, -91.14, 14326.35, 87497.88)" gradientUnits="userSpaceOnUse"><stop offset="0" stop-color="#24f281"/><stop offset="1" stop-color="#0083ff"/></linearGradient></defs><title>facebook</title><g id="Canvas"><path id="_004-facebook-logo" data-name="004-facebook-logo" class="cls-1" d="M49.49,14.59H43.27c-7,0-11.5,4.43-11.5,11.28v5.2H25.51a1,1,0,0,0-1,.94v7.53a1,1,0,0,0,1,.94h6.26v19a1,1,0,0,0,1,.93H40.9a1,1,0,0,0,1-.93v-19H49.2a1,1,0,0,0,1-.94V32a.92.92,0,0,0-.29-.66,1,1,0,0,0-.69-.28H41.88V26.65c0-2.12.53-3.19,3.42-3.19h4.19a1,1,0,0,0,1-.94v-7A1,1,0,0,0,49.49,14.59Z"/></g></svg>