<svg id="Layer_1" data-name="Layer 1" xmlns="http://www.w3.org/2000/svg" xmlns:xlink="http://www.w3.org/1999/xlink" viewBox="0 0 50 50"><defs><style>.cls-1{fill:url(#linear-gradient);}</style><linearGradient id="linear-gradient" x1="10.87" y1="41.46" x2="45.36" y2="6.97" gradientUnits="userSpaceOnUse"><stop offset="0" stop-color="#273469"/><stop offset="0.18" stop-color="#283877"/><stop offset="0.51" stop-color="#2a449b"/><stop offset="0.95" stop-color="#2e56d5"/><stop offset="1" stop-color="#2e58db"/></linearGradient></defs><title>Untitled-1</title><g id="Page-1"><g id="iPhone-8"><g id="facebook"><path id="_004-facebook-logo" data-name="004-facebook-logo" class="cls-1" d="M38,0H31.24C23.68,0,18.8,4.83,18.8,12.31V18H12a1,1,0,0,0-1,1v8.22a1,1,0,0,0,1,1H18.8V49a1,1,0,0,0,1.06,1h8.82a1,1,0,0,0,1.06-1V28.24h7.9a1,1,0,0,0,1-1V19a1,1,0,0,0-.31-.72,1.09,1.09,0,0,0-.75-.3h-7.9V13.17c0-2.31.57-3.49,3.69-3.49H38a1,1,0,0,0,1-1V1A1,1,0,0,0,38,0Z"/></g></g></g></svg>