<svg width="50" height="70" viewBox="0 0 50 70" version="1.1" xmlns="http://www.w3.org/2000/svg" xmlns:xlink="http://www.w3.org/1999/xlink">
<g id="Canvas" fill="none">
<g id="004-facebook-logo" filter="url(#filter0_d)">
<path fill-rule="evenodd" clip-rule="evenodd" d="M 24.9588 0.00917762L 18.7378 0C 11.7493 0 7.23292 4.42786 7.23292 11.2819L 7.23292 16.4836L 0.978162 16.4836C 0.437784 16.4836 0 16.9024 0 17.4188L 0 24.9556C 0 25.4719 0.438252 25.8903 0.978162 25.8903L 7.23292 25.8903L 7.23292 44.9079C 7.23292 45.4242 7.67023 45.8426 8.21108 45.8426L 16.3712 45.8426C 16.9121 45.8426 17.3498 45.4237 17.3498 44.9079L 17.3498 25.8903L 24.6628 25.8903C 25.2031 25.8903 25.6409 25.4719 25.6409 24.9556L 25.6441 17.4188C 25.6441 17.1709 25.5407 16.9335 25.3573 16.7577C 25.1742 16.5824 24.925 16.4836 24.6651 16.4836L 17.3498 16.4836L 17.3498 12.074C 17.3498 9.95447 17.8783 8.87856 20.7673 8.87856L 24.9579 8.87722C 25.4977 8.87722 25.9355 8.4584 25.9355 7.94255L 25.9355 0.943839C 25.9355 0.428438 25.4982 0.0105207 24.9588 0.00917762Z" transform="translate(12 9.15736)" fill="url(#paint0_linear)"/>
</g>
</g>
<defs>
<filter id="filter0_d" x="0" y="0.157364" width="49.9355" height="69.8426" filterUnits="userSpaceOnUse" color-interpolation-filters="sRGB">
<feFlood flood-opacity="0" result="BackgroundImageFix"/>
<feColorMatrix in="SourceAlpha" type="matrix" values="0 0 0 0 0 0 0 0 0 0 0 0 0 0 0 0 0 0 255 0"/>
<feOffset dy="3"/>
<feGaussianBlur stdDeviation="6"/>
<feColorMatrix type="matrix" values="0 0 0 0 0.218932 0 0 0 0 0.371656 0 0 0 0 0.619127 0 0 0 0.5 0"/>
<feBlend mode="normal" in2="BackgroundImageFix" result="effect1_dropShadow"/>
<feBlend mode="normal" in="SourceGraphic" in2="effect1_dropShadow" result="shape"/>
</filter>
<linearGradient id="paint0_linear" x2="1" gradientUnits="userSpaceOnUse" gradientTransform="matrix(-0.397528 48.88 -27.6539 -0.702656 6.68901 -8.51247)">
<stop stop-color="#24F281"/>
<stop offset="1" stop-color="#0083FF"/>
</linearGradient>
</defs>
</svg>
