<svg id="Layer_1" data-name="Layer 1" xmlns="http://www.w3.org/2000/svg" xmlns:xlink="http://www.w3.org/1999/xlink" viewBox="0 0 50 50"><defs><style>.cls-1{fill:url(#linear-gradient);}</style><linearGradient id="linear-gradient" x1="-1671.63" y1="55.66" x2="-1670.49" y2="55.66" gradientTransform="matrix(87.48, 70.15, 73.49, -83.5, 142131.21, 121907.24)" gradientUnits="userSpaceOnUse"><stop offset="0" stop-color="#273469"/><stop offset="0.18" stop-color="#283877"/><stop offset="0.51" stop-color="#2a449b"/><stop offset="0.95" stop-color="#2e56d5"/><stop offset="1" stop-color="#2e58db"/></linearGradient></defs><title>Untitled-1</title><g id="Canvas"><path id="github-logo" class="cls-1" d="M46.68,13.22a24.56,24.56,0,0,0-9.1-8.89,25.55,25.55,0,0,0-25.12,0,24.61,24.61,0,0,0-9.12,8.89A24.14,24.14,0,0,0,4.75,39.9a24.45,24.45,0,0,0,12.33,8.89,1.53,1.53,0,0,0,1.3-.21,1.25,1.25,0,0,0,.43-1V43.05l-.75.14a10.93,10.93,0,0,1-1.81.11A16.54,16.54,0,0,1,14,43.07a5.12,5.12,0,0,1-2.22-1,3.94,3.94,0,0,1-1.44-2L10,39.33a8.32,8.32,0,0,0-1-1.66,4,4,0,0,0-1.39-1.11l-.23-.15A2.62,2.62,0,0,1,6.94,36a1.34,1.34,0,0,1-.29-.45c-.07-.14,0-.26.15-.36a2.21,2.21,0,0,1,1-.15l.65.1a5.14,5.14,0,0,1,1.62.77,5.05,5.05,0,0,1,1.57,1.65,5.61,5.61,0,0,0,1.82,2,4,4,0,0,0,2.13.69,9,9,0,0,0,1.86-.16,6.72,6.72,0,0,0,1.5-.54,5,5,0,0,1,1.6-3.33,22.22,22.22,0,0,1-3.34-.58,14,14,0,0,1-3.05-1.24,8.63,8.63,0,0,1-2.63-2.14,10.13,10.13,0,0,1-1.71-3.33,15.78,15.78,0,0,1-.67-4.78,9.25,9.25,0,0,1,2.53-6.49,8.38,8.38,0,0,1,.23-6.5,4.67,4.67,0,0,1,2.8.43,20.14,20.14,0,0,1,2.72,1.22c.57.35,1,.64,1.38.87a24,24,0,0,1,12.52,0l1.23-.77a17,17,0,0,1,3.06-1.42,4.42,4.42,0,0,1,2.63-.36,8.32,8.32,0,0,1,.21,6.53A9.21,9.21,0,0,1,41,24.24a16,16,0,0,1-.67,4.8,9.78,9.78,0,0,1-1.72,3.33,9.39,9.39,0,0,1-2.65,2.12,13.47,13.47,0,0,1-3,1.24,23.56,23.56,0,0,1-3.34.58,5.57,5.57,0,0,1,1.69,4.52V47.5a1.23,1.23,0,0,0,.41,1,1.44,1.44,0,0,0,1.28.23,24.45,24.45,0,0,0,12.34-8.9A24.13,24.13,0,0,0,46.68,13.22Z"/></g></svg>