<svg id="Layer_1" data-name="Layer 1" xmlns="http://www.w3.org/2000/svg" xmlns:xlink="http://www.w3.org/1999/xlink" viewBox="0 0 75 75"><defs><style>.cls-1{fill:url(#linear-gradient);}</style><linearGradient id="linear-gradient" x1="-1277.08" y1="-2.4" x2="-1276.06" y2="-2.4" gradientTransform="matrix(87.48, 70.15, -73.49, 83.5, 111546.64, 89798.19)" gradientUnits="userSpaceOnUse"><stop offset="0" stop-color="#24f281"/><stop offset="0.78" stop-color="#0083ff"/></linearGradient></defs><title>github</title><g id="Canvas"><path id="github-logo" class="cls-1" d="M57,27a22.13,22.13,0,0,0-8.19-8,23,23,0,0,0-22.6,0A22.19,22.19,0,0,0,18,27a21.72,21.72,0,0,0,1.27,24,22,22,0,0,0,11.1,8,1.35,1.35,0,0,0,1.17-.19,1.12,1.12,0,0,0,.38-.87v-4.1l-.67.12a8.93,8.93,0,0,1-1.63.1,14.89,14.89,0,0,1-2-.2,4.71,4.71,0,0,1-2-.86,3.58,3.58,0,0,1-1.29-1.77L24,50.49A7.69,7.69,0,0,0,23.08,49,3.62,3.62,0,0,0,21.83,48l-.21-.14a2.11,2.11,0,0,1-.38-.35,1.31,1.31,0,0,1-.26-.4c-.06-.13,0-.24.14-.33a2,2,0,0,1,.85-.13l.59.09a4.4,4.4,0,0,1,1.45.69,4.6,4.6,0,0,1,1.42,1.49,5.09,5.09,0,0,0,1.63,1.79,3.56,3.56,0,0,0,1.92.62,7.81,7.81,0,0,0,1.67-.15A5.89,5.89,0,0,0,32,50.7a4.57,4.57,0,0,1,1.44-3,20.24,20.24,0,0,1-3-.52,12,12,0,0,1-2.75-1.12,7.7,7.7,0,0,1-2.36-1.92,9,9,0,0,1-1.54-3,13.93,13.93,0,0,1-.6-4.3A8.31,8.31,0,0,1,25.46,31a7.56,7.56,0,0,1,.21-5.85,4.22,4.22,0,0,1,2.52.39,18.52,18.52,0,0,1,2.45,1.1c.51.31.93.57,1.24.78a21.51,21.51,0,0,1,11.26,0l1.11-.69A15.06,15.06,0,0,1,47,25.45a4,4,0,0,1,2.37-.32A7.48,7.48,0,0,1,49.56,31a8.31,8.31,0,0,1,2.31,5.91,14.36,14.36,0,0,1-.6,4.32,8.93,8.93,0,0,1-1.55,3,8.46,8.46,0,0,1-2.38,1.91,12.38,12.38,0,0,1-2.75,1.11,20.46,20.46,0,0,1-3,.52,5.07,5.07,0,0,1,1.52,4.07v6a1.09,1.09,0,0,0,.37.86,1.28,1.28,0,0,0,1.15.2,22,22,0,0,0,11.1-8A21.71,21.71,0,0,0,57,27Z"/></g></svg>