<svg width="44" height="42" viewBox="0 0 44 42" version="1.1" xmlns="http://www.w3.org/2000/svg" xmlns:xlink="http://www.w3.org/1999/xlink">
<g id="Canvas" fill="none">
<path id="github-logo" fill-rule="evenodd" clip-rule="evenodd" d="M 41.0489 10.7207C 39.0817 7.42322 36.4123 4.81249 33.0423 2.88767C 29.6706 0.962413 25.9916 0 22.0002 0C 18.0088 0 14.3281 0.962413 10.9564 2.88767C 7.5864 4.81249 4.91829 7.42322 2.95115 10.7207C 0.983569 14.0195 0 17.621 0 21.5266C 0 26.2169 1.39932 30.4347 4.19577 34.1807C 6.99398 37.9267 10.6079 40.5202 15.0388 41.9583C 15.5538 42.0524 15.9366 41.9871 16.1836 41.7635C 16.4328 41.5386 16.5563 41.2577 16.5563 40.9219C 16.5563 40.8664 16.551 40.3624 16.5427 39.4082C 16.5321 38.4561 16.5269 37.6244 16.5269 36.914L 15.8694 37.0262C 15.4488 37.1019 14.9183 37.1337 14.2798 37.1238C 13.6394 37.1152 12.9749 37.0499 12.2885 36.9273C 11.6002 36.8065 10.9612 36.5274 10.3692 36.0875C 9.7768 35.6488 9.35797 35.0743 9.10922 34.3639L 8.82224 33.7188C 8.63194 33.2888 8.33133 32.8136 7.92085 32.2894C 7.50905 31.7669 7.09374 31.4109 6.67491 31.2242L 6.47363 31.0849C 6.34002 30.9907 6.21653 30.8785 6.10138 30.7473C 5.98624 30.6179 5.90054 30.4867 5.84384 30.356C 5.78715 30.2248 5.8333 30.1173 5.98624 30.0335C 6.13918 29.9475 6.41737 29.9075 6.8173 29.9075L 7.39039 29.9913C 7.77187 30.0653 8.24563 30.2902 8.80861 30.6635C 9.3716 31.038 9.83525 31.5235 10.1974 32.1213C 10.6369 32.8872 11.1656 33.4703 11.787 33.8732C 12.4084 34.2749 13.0334 34.4748 13.6636 34.4748C 14.2934 34.4748 14.8379 34.4275 15.2963 34.3355C 15.7547 34.2413 16.1836 34.102 16.5853 33.9154C 16.7572 32.6623 17.2256 31.6998 17.9882 31.0277C 16.8995 30.915 15.9213 30.7473 15.0524 30.522C 14.1835 30.2988 13.2857 29.9341 12.3605 29.4284C 11.4337 28.9248 10.6646 28.2983 10.0532 27.5522C 9.44367 26.8048 8.9409 25.8222 8.55107 24.609C 8.15949 23.3929 7.96392 21.9919 7.96392 20.4046C 7.96392 18.1435 8.71764 16.2187 10.2268 14.6293C 9.51926 12.9294 9.58606 11.0247 10.4277 8.91285C 10.9801 8.74342 11.8024 8.87114 12.891 9.29085C 13.9796 9.71099 14.776 10.0722 15.2822 10.3694C 15.789 10.6682 16.1942 10.922 16.4996 11.1271C 18.2765 10.6416 20.11 10.3982 22.0002 10.3982C 23.89 10.3982 25.7235 10.6416 27.5004 11.1271L 28.589 10.4532C 29.3322 10.0047 30.2111 9.59489 31.2241 9.22033C 32.2354 8.84749 33.0093 8.74514 33.5451 8.91285C 34.4034 11.0247 34.4807 12.9294 33.7736 14.631C 35.2824 16.2187 36.0361 18.1435 36.0361 20.4046C 36.0361 21.9919 35.8405 23.3981 35.4489 24.6228C 35.0578 25.8471 34.5528 26.8284 33.9314 27.5655C 33.3099 28.3047 32.5373 28.9248 31.6105 29.4301C 30.6849 29.9341 29.787 30.2988 28.9186 30.522C 28.0497 30.7473 27.0714 30.915 25.9828 31.0277C 26.9752 31.8693 27.4714 33.1946 27.4714 35.0072L 27.4714 40.9219C 27.4714 41.2577 27.5914 41.5386 27.83 41.7617C 28.0686 41.9854 28.4448 42.0524 28.9612 41.9583C 33.3921 40.5185 37.006 37.9267 39.8025 34.179C 42.6011 30.433 44 26.2152 44 21.5253C 43.9982 17.621 43.0147 14.0195 41.0489 10.7207Z" fill="url(#paint0_linear)"/>
</g>
<defs>
<linearGradient id="paint0_linear" x2="1" gradientUnits="userSpaceOnUse" gradientTransform="matrix(87.4775 70.1478 -73.4882 83.5012 -11.7098 -2.39232)">
<stop stop-color="#001358"/>
<stop offset="1" stop-color="#125AC4"/>
</linearGradient>
</defs>
</svg>
