<svg id="Layer_1" data-name="Layer 1" xmlns="http://www.w3.org/2000/svg" xmlns:xlink="http://www.w3.org/1999/xlink" viewBox="0 0 75 75"><defs><style>.cls-1{fill:url(#linear-gradient);}</style><linearGradient id="linear-gradient" x1="20.94" y1="54.06" x2="54.06" y2="20.94" gradientUnits="userSpaceOnUse"><stop offset="0" stop-color="#24f281"/><stop offset="1" stop-color="#0083ff"/></linearGradient></defs><title>linkedin</title><path id="_Compound_Path_" data-name="&lt;Compound Path&gt;" class="cls-1" d="M52.32,20.21H22.67a2.49,2.49,0,0,0-2.46,2.5V52.29a2.49,2.49,0,0,0,2.46,2.5H52.32a2.49,2.49,0,0,0,2.47-2.5V22.71A2.49,2.49,0,0,0,52.32,20.21ZM30.66,49.85H25.54V33.35h5.13v16.5ZM28.1,31.09a3,3,0,1,1,3-3A3,3,0,0,1,28.1,31.09ZM49.87,49.85H44.75v-8c0-1.91,0-4.37-2.67-4.37S39,39.53,39,41.68v8.17H33.88V33.35H38.8V35.6h.07a5.38,5.38,0,0,1,4.85-2.66c5.19,0,6.15,3.42,6.15,7.86Z"/></svg>