<svg id="Layer_1" data-name="Layer 1" xmlns="http://www.w3.org/2000/svg" xmlns:xlink="http://www.w3.org/1999/xlink" viewBox="0 0 50 50"><defs><style>.cls-1{fill:url(#linear-gradient);}</style><linearGradient id="linear-gradient" x1="1.05" y1="48.95" x2="48.95" y2="1.05" gradientUnits="userSpaceOnUse"><stop offset="0" stop-color="#273469"/><stop offset="0.18" stop-color="#283877"/><stop offset="0.51" stop-color="#2a449b"/><stop offset="0.95" stop-color="#2e56d5"/><stop offset="1" stop-color="#2e58db"/></linearGradient></defs><title>Untitled-1</title><g id="Page-1"><g id="iPhone-8"><g id="linkedin"><path id="_Compound_Path_" data-name=" Compound Path " class="cls-1" d="M46.43,0H3.56A3.6,3.6,0,0,0,0,3.61V46.39A3.6,3.6,0,0,0,3.56,50H46.43A3.6,3.6,0,0,0,50,46.39V3.61A3.6,3.6,0,0,0,46.43,0ZM15.11,42.86H7.71V19h7.41V42.86Zm-3.7-27.13a4.34,4.34,0,1,1,4.34-4.34A4.34,4.34,0,0,1,11.41,15.73ZM42.89,42.86H35.48V31.29c0-2.76,0-6.32-3.86-6.32s-4.45,3-4.45,6.07V42.86h-7.4V19h7.11v3.25H27a7.79,7.79,0,0,1,7-3.84c7.51,0,8.9,4.94,8.9,11.36Z"/></g></g></g></svg>