<svg id="Layer_1" data-name="Layer 1" xmlns="http://www.w3.org/2000/svg" xmlns:xlink="http://www.w3.org/1999/xlink" viewBox="0 0 75 75"><defs><style>.cls-1{fill:#fff;}.cls-2{mask:url(#mask);}.cls-3{fill:url(#linear-gradient);}.cls-4{fill:url(#linear-gradient-2);}.cls-5{fill:url(#linear-gradient-3);}.cls-6{fill:url(#linear-gradient-4);}</style><mask id="mask" x="14" y="17" width="47" height="40" maskUnits="userSpaceOnUse"><g id="mask0"><path id="Clip_2" data-name="Clip 2" class="cls-1" d="M14,17H61V57H14Z"/></g></mask><linearGradient id="linear-gradient" x1="-659.11" y1="414.82" x2="-658.11" y2="414.82" gradientTransform="matrix(-32.74, -65.11, -27.5, 77.51, -10096.16, -74990.14)" gradientUnits="userSpaceOnUse"><stop offset="0" stop-color="#24f281"/><stop offset="1" stop-color="#0083ff"/></linearGradient><linearGradient id="linear-gradient-2" x1="-635.79" y1="424.22" x2="-634.79" y2="424.22" gradientTransform="matrix(59.64, 55.16, 50.11, -65.66, 16688.64, 62936.13)" xlink:href="#linear-gradient"/><linearGradient id="linear-gradient-3" x1="-654.21" y1="419.79" x2="-653.21" y2="419.79" gradientTransform="matrix(-59.64, -55.12, -50.11, 65.61, -17917.96, -63529.27)" xlink:href="#linear-gradient"/><linearGradient id="linear-gradient-4" x1="-630.54" y1="429.47" x2="-629.54" y2="429.47" gradientTransform="matrix(31.81, 65.11, 26.72, -77.51, 8591.09, 74356.01)" xlink:href="#linear-gradient"/></defs><title>medium</title><g id="medium"><g class="cls-2"><path id="Fill_1" data-name="Fill 1" class="cls-3" d="M45.11,50.07,44.53,19A1,1,0,0,1,46,18.11l13.48,6.72a1,1,0,0,1,.57.88l1,30.51a.8.8,0,0,1-1.15.7Z"/><path id="Fill_3" data-name="Fill 3" class="cls-4" d="M30,43.43,44.67,18.48a1,1,0,0,1,1.25-.38l13.53,6.72a1,1,0,0,1,.41,1.43L45,51Z"/><path id="Fill_4" data-name="Fill 4" class="cls-5" d="M29.41,43.25l-14.29-24a.78.78,0,0,1,1-1.12L29.41,24.7,45,51Z"/><path id="Fill_5" data-name="Fill 5" class="cls-6" d="M14.46,50.25a.79.79,0,0,1-.46-.7l.93-30.78a.78.78,0,0,1,1.12-.68L29.39,24.7,30,56.22a.8.8,0,0,1-1.15.7Z"/></g></g></svg>