<svg id="Layer_1" data-name="Layer 1" xmlns="http://www.w3.org/2000/svg" xmlns:xlink="http://www.w3.org/1999/xlink" viewBox="0 0 50 50"><defs><style>.cls-1{fill:url(#linear-gradient);}.cls-2{fill:url(#linear-gradient-2);}.cls-3{fill:url(#linear-gradient-3);}.cls-4{fill:url(#linear-gradient-4);}</style><linearGradient id="linear-gradient" x1="-1124.99" y1="-357.07" x2="-1123.99" y2="-357.07" gradientTransform="matrix(-32.74, -65.11, 27.5, -77.51, -26951.58, -100856.51)" gradientUnits="userSpaceOnUse"><stop offset="0" stop-color="#24f281"/><stop offset="1" stop-color="#0083ff"/></linearGradient><linearGradient id="linear-gradient-2" x1="-1089.52" y1="-376.96" x2="-1088.52" y2="-376.96" gradientTransform="matrix(59.64, 55.16, -50.11, 65.66, 46101.37, 84851.75)" xlink:href="#linear-gradient"/><linearGradient id="linear-gradient-3" x1="-1116.48" y1="-364.92" x2="-1115.48" y2="-364.92" gradientTransform="matrix(-59.64, -55.12, 50.11, -65.61, -48246.69, -85427.12)" xlink:href="#linear-gradient"/><linearGradient id="linear-gradient-4" x1="-1080.43" y1="-385.48" x2="-1079.43" y2="-385.48" gradientTransform="matrix(31.81, 65.11, -26.72, 77.51, 24064.79, 100224.38)" xlink:href="#linear-gradient"/></defs><title>medium</title><g id="medium"><path id="Fill_1" data-name="Fill 1" class="cls-1" d="M32.11,37.07,31.53,6A1,1,0,0,1,33,5.11l13.48,6.72a1,1,0,0,1,.57.88l1,30.51a.8.8,0,0,1-.82.78.76.76,0,0,1-.33-.08Z"/><path id="Fill_3" data-name="Fill 3" class="cls-2" d="M17,30.43,31.67,5.48a1,1,0,0,1,1.25-.38l13.53,6.72a1,1,0,0,1,.46,1.34.41.41,0,0,1,0,.09L32,38Z"/><path id="Fill_4" data-name="Fill 4" class="cls-3" d="M16.41,30.25,2.12,6.25a.78.78,0,0,1,1-1.12L16.41,11.7,32,38Z"/><path id="Fill_5" data-name="Fill 5" class="cls-4" d="M1.46,37.25a.81.81,0,0,1-.46-.7L1.93,5.77A.78.78,0,0,1,2.73,5a.89.89,0,0,1,.32.08L16.39,11.7,17,43.22a.8.8,0,0,1-.82.78.76.76,0,0,1-.33-.08Z"/></g></svg>