<svg width="71" height="63" viewBox="0 0 71 63" version="1.1" xmlns="http://www.w3.org/2000/svg" xmlns:xlink="http://www.w3.org/1999/xlink">
<g id="Canvas" fill="none">
<g id="medium" filter="url(#filter0_d)">
<mask id="mask0" mask-type="alpha" maskUnits="userSpaceOnUse" x="12" y="8" width="47" height="40">
<path id="Clip 2" fill-rule="evenodd" clip-rule="evenodd" d="M 0 0L 47 0L 47 40L 0 40L 0 0Z" transform="translate(12 8)" fill="white"/>
</mask>
<g mask="url(#mask0)">
<path id="Fill 1" fill-rule="evenodd" clip-rule="evenodd" d="M 0.577979 32.052L 6.22999e-06 0.987491C -0.00254669 0.261979 0.779984 -0.216087 1.45553 0.098309L 14.9329 6.81352C 15.2846 6.97719 15.5083 7.32159 15.5083 7.69929L 16.467 38.2053C 16.4669 38.7797 15.8472 39.1568 15.3126 38.9079L 0.577979 32.052Z" transform="translate(42.5332 9.01411)" fill="url(#paint0_linear)"/>
<path id="Fill 3" fill-rule="evenodd" clip-rule="evenodd" d="M 0 25.4317L 14.6678 0.482123C 14.9269 0.0413824 15.4676 -0.12433 15.9174 0.0990999L 29.45 6.82229C 29.9673 7.07932 30.1568 7.74157 29.8577 8.24771L 15 33.0248L 0 25.4317Z" transform="translate(28 9)" fill="url(#paint1_linear)"/>
<path id="Fill 4" fill-rule="evenodd" clip-rule="evenodd" d="M 14.4082 25.2532L 0.116798 1.2043C -0.281377 0.53429 0.411447 -0.259036 1.09714 0.0816803L 14.4082 6.69617L 30 33L 14.4082 25.2532Z" transform="translate(13 9)" fill="url(#paint2_linear)"/>
<path id="Fill 5" fill-rule="evenodd" clip-rule="evenodd" d="M 0.456205 32.2304C 0.177305 32.1009 0 31.8288 0 31.5303L 0.93415 0.753226C 0.93415 0.199093 1.53412 -0.164975 2.05182 0.0752746L 15.394 6.68707L 16 38.2066C 16 38.7789 15.3805 39.1547 14.846 38.9067L 0.456205 32.2304Z" transform="translate(12 9.01558)" fill="url(#paint3_linear)"/>
</g>
</g>
</g>
<defs>
<filter id="filter0_d" x="0" y="0" width="71" height="63" filterUnits="userSpaceOnUse" color-interpolation-filters="sRGB">
<feFlood flood-opacity="0" result="BackgroundImageFix"/>
<feColorMatrix in="SourceAlpha" type="matrix" values="0 0 0 0 0 0 0 0 0 0 0 0 0 0 0 0 0 0 255 0"/>
<feOffset dy="3"/>
<feGaussianBlur stdDeviation="6"/>
<feColorMatrix type="matrix" values="0 0 0 0 0.218932 0 0 0 0 0.371656 0 0 0 0 0.619127 0 0 0 0.5 0"/>
<feBlend mode="normal" in2="BackgroundImageFix" result="effect1_dropShadow"/>
<feBlend mode="normal" in="SourceGraphic" in2="effect1_dropShadow" result="shape"/>
</filter>
<linearGradient id="paint0_linear" x2="1" gradientUnits="userSpaceOnUse" gradientTransform="matrix(-0.252399 41.569 -17.558 -0.597559 4.247 -7.23925)">
<stop stop-color="#24F281"/>
<stop offset="1" stop-color="#0083FF"/>
</linearGradient>
<linearGradient id="paint1_linear" x2="1" gradientUnits="userSpaceOnUse" gradientTransform="matrix(-0.459827 35.2129 -31.9877 -0.50619 7.73729 -6.13234)">
<stop stop-color="#24F281"/>
<stop offset="1" stop-color="#0083FF"/>
</linearGradient>
<linearGradient id="paint2_linear" x2="1" gradientUnits="userSpaceOnUse" gradientTransform="matrix(-0.459827 35.1865 -31.9877 -0.50581 7.73729 -6.12774)">
<stop stop-color="#24F281"/>
<stop offset="1" stop-color="#0083FF"/>
</linearGradient>
<linearGradient id="paint3_linear" x2="1" gradientUnits="userSpaceOnUse" gradientTransform="matrix(-0.245241 41.5674 -17.0601 -0.597536 4.12656 -7.23898)">
<stop stop-color="#24F281"/>
<stop offset="1" stop-color="#0083FF"/>
</linearGradient>
</defs>
</svg>
