<svg id="Layer_1" data-name="Layer 1" xmlns="http://www.w3.org/2000/svg" xmlns:xlink="http://www.w3.org/1999/xlink" viewBox="0 0 50 50"><defs><style>.cls-1{fill:url(#linear-gradient);}</style><linearGradient id="linear-gradient" x1="9.71" y1="41.92" x2="45.27" y2="6.36" gradientUnits="userSpaceOnUse"><stop offset="0" stop-color="#0083ff"/><stop offset="1" stop-color="#24f281"/></linearGradient></defs><title>Untitled-1</title><g id="Page-1"><g id="iPhone-8"><g id="reddit"><path id="Fill_4" data-name="Fill 4" class="cls-1" d="M32.59,31.81a3.16,3.16,0,1,1,3.11-3.2,3.11,3.11,0,0,1-.89,2.21,3.14,3.14,0,0,1-2.2.94ZM32,39.11a12,12,0,0,1-14.34,0,1.6,1.6,0,0,1-.36-2.22,1.54,1.54,0,0,1,2.16-.36,9,9,0,0,0,10.71,0,1.53,1.53,0,0,1,2.15.25l.07.1a1.65,1.65,0,0,1,.27,1.2A1.6,1.6,0,0,1,32,39.11ZM14,28.65a3.11,3.11,0,1,1,3.1,3.16A3.15,3.15,0,0,1,14,28.65ZM41.91,8.16a1.55,1.55,0,1,1-1.12.47A1.57,1.57,0,0,1,41.91,8.16Zm8,15.76a6.28,6.28,0,0,0-6.22-6.31,6.08,6.08,0,0,0-3.78,1.28,25.81,25.81,0,0,0-12.83-4.27l2.6-6.21,7.59,1.8a4.7,4.7,0,1,0,.71-3L29.12,5.06A1.57,1.57,0,0,0,27.33,6l-3.59,8.58A26.34,26.34,0,0,0,9.83,18.83a6,6,0,0,0-3.63-1.2A6.31,6.31,0,0,0,3.12,29.38v.85C3.12,38.92,12.87,46,24.86,46S46.6,38.92,46.6,30.23v-.74A6.23,6.23,0,0,0,49.94,23.92Z"/></g></g></g></svg>