<svg width="69" height="61" viewBox="0 0 69 61" version="1.1" xmlns="http://www.w3.org/2000/svg" xmlns:xlink="http://www.w3.org/1999/xlink">
<g id="Canvas" fill="none">
<g id="reddit" filter="url(#filter0_d)">
<path id="Fill 1" fill-rule="evenodd" clip-rule="evenodd" d="M 2 0.016L 0 0L 0 0.016L 2 0.016Z" transform="translate(27 31)" fill="url(#paint0_linear)"/>
<g id="Group 5">
<path id="Fill 2" fill-rule="evenodd" clip-rule="evenodd" d="M 0 0.0125957L 1.39806 0.0125957L 0 0L 0 0.0125957Z" transform="translate(41.3594 30.3809)" fill="url(#paint1_linear)"/>
<path id="Fill 4" fill-rule="evenodd" clip-rule="evenodd" d="M 29.3591 24.1344C 27.8156 24.1344 26.563 22.8624 26.563 21.2951C 26.563 19.7306 27.8156 18.4558 29.3591 18.4558C 30.9026 18.4558 32.1552 19.7306 32.1552 21.2951C 32.1552 22.8624 30.9026 24.1344 29.3591 24.1344ZM 28.825 30.7132C 26.8957 32.13 24.6308 32.8398 22.3688 32.8398C 20.1067 32.8398 17.8418 32.13 15.9125 30.7132C 15.2862 30.2532 15.1464 29.3645 15.5994 28.7313C 16.0523 28.0981 16.9275 27.9562 17.551 28.4133C 20.4338 30.5286 24.3037 30.5343 27.1865 28.4133C 27.81 27.9562 28.6824 28.0925 29.1381 28.7313C 29.5911 29.3673 29.4485 30.2532 28.825 30.7132ZM 12.5825 21.2951C 12.5825 19.7306 13.838 18.4558 15.3786 18.4558C 16.9193 18.4558 18.1748 19.7306 18.1748 21.2951C 18.1748 22.8624 16.9193 24.1344 15.3786 24.1344C 13.838 24.1344 12.5825 22.8624 12.5825 21.2951ZM 37.7477 2.83946C 38.5166 2.83946 39.1457 3.47547 39.1457 4.25913C 39.1457 5.04278 38.5166 5.67879 37.7477 5.67879C 36.9787 5.67879 36.3496 5.04278 36.3496 4.25913C 36.3496 3.47547 36.9787 2.83946 37.7477 2.83946ZM 44.9336 17.0361C 44.9336 13.9043 42.4255 11.3575 39.3414 11.3575C 38.1083 11.3575 36.9367 11.7663 35.9804 12.5074C 32.86 10.3069 28.772 8.99513 24.4241 8.66293L 26.77 3.07513L 33.5953 4.69355C 33.8134 6.83724 35.5806 8.51812 37.7476 8.51812C 40.06 8.51812 41.9417 6.60726 41.9417 4.25913C 41.9417 1.91101 40.06 0.000139394 37.7476 0.000139394C 36.2824 0.000139394 34.9934 0.769597 34.244 1.93088L 26.2667 0.0370507C 25.5901 -0.119112 24.9274 0.230125 24.659 0.863295L 21.4155 8.58627C 16.7208 8.75095 12.247 10.094 8.86928 12.4336C 7.94936 11.7408 6.80854 11.3575 5.59223 11.3575C 2.50812 11.3575 0 13.9043 0 17.0361C 0 19.1117 1.11565 20.9885 2.82687 21.951C 2.8045 22.2008 2.79612 22.4564 2.79612 22.7148C 2.79612 30.5428 11.5759 36.9114 22.3689 36.9114C 33.1591 36.9114 41.9417 30.5428 41.9417 22.7148C 41.9417 22.4933 41.9334 22.2747 41.9194 22.056C 43.7424 21.1134 44.9336 19.1912 44.9336 17.0361Z" transform="translate(12 9.08859)" fill="url(#paint2_linear)"/>
</g>
</g>
</g>
<defs>
<filter id="filter0_d" x="0" y="0.0885925" width="68.9336" height="60.9114" filterUnits="userSpaceOnUse" color-interpolation-filters="sRGB">
<feFlood flood-opacity="0" result="BackgroundImageFix"/>
<feColorMatrix in="SourceAlpha" type="matrix" values="0 0 0 0 0 0 0 0 0 0 0 0 0 0 0 0 0 0 255 0"/>
<feOffset dy="3"/>
<feGaussianBlur stdDeviation="6"/>
<feColorMatrix type="matrix" values="0 0 0 0 0.218932 0 0 0 0 0.371656 0 0 0 0 0.619127 0 0 0 0.5 0"/>
<feBlend mode="normal" in2="BackgroundImageFix" result="effect1_dropShadow"/>
<feBlend mode="normal" in="SourceGraphic" in2="effect1_dropShadow" result="shape"/>
</filter>
<linearGradient id="paint0_linear" x2="1" gradientUnits="userSpaceOnUse" gradientTransform="matrix(-0.0306551 1.06626 -2.13251 -0.0153276 0.515819 -0.185689)">
<stop stop-color="#24F281"/>
<stop offset="1" stop-color="#0083FF"/>
</linearGradient>
<linearGradient id="paint1_linear" x2="1" gradientUnits="userSpaceOnUse" gradientTransform="matrix(-0.0214288 1.06626 -1.49069 -0.0153276 0.360573 -0.185689)">
<stop stop-color="#24F281"/>
<stop offset="1" stop-color="#0083FF"/>
</linearGradient>
<linearGradient id="paint2_linear" x2="1" gradientUnits="userSpaceOnUse" gradientTransform="matrix(-0.688723 39.3571 -47.9108 -0.565762 11.5888 -6.85404)">
<stop stop-color="#24F281"/>
<stop offset="1" stop-color="#0083FF"/>
</linearGradient>
</defs>
</svg>
