<svg id="Layer_1" data-name="Layer 1" xmlns="http://www.w3.org/2000/svg" xmlns:xlink="http://www.w3.org/1999/xlink" viewBox="0 0 75 75"><defs><style>.cls-1{fill:url(#linear-gradient);}</style><linearGradient id="linear-gradient" x1="-1276.32" y1="-1.15" x2="-1276.33" y2="-2.34" gradientTransform="matrix(89.33, 61.65, -75.05, 73.38, 113937.12, 78835.67)" gradientUnits="userSpaceOnUse"><stop offset="0" stop-color="#0083ff"/><stop offset="0.59" stop-color="#24f281"/><stop offset="1" stop-color="#24f281"/></linearGradient></defs><title>reddit</title><g id="Canvas"><g id="reddit"><g id="Group_5" data-name="Group 5"><path id="Fill_4" data-name="Fill 4" class="cls-1" d="M44.38,43.18a2.84,2.84,0,1,1,2.8-2.88v0a2.81,2.81,0,0,1-2.78,2.84Zm-.53,6.58a10.85,10.85,0,0,1-12.91,0,1.44,1.44,0,0,1-.32-2h0a1.38,1.38,0,0,1,1.94-.33h0a8.1,8.1,0,0,0,9.64,0,1.38,1.38,0,0,1,1.94.23l.06.09A1.44,1.44,0,0,1,43.85,49.76ZM27.61,40.34a2.8,2.8,0,1,1,2.79,2.84A2.83,2.83,0,0,1,27.61,40.34ZM52.77,21.89a1.42,1.42,0,1,1-1.4,1.44v0A1.4,1.4,0,0,1,52.77,21.89ZM60,36.08a5.64,5.64,0,0,0-5.6-5.68A5.44,5.44,0,0,0,51,31.55a23.17,23.17,0,0,0-11.55-3.84l2.34-5.59,6.83,1.62A4.23,4.23,0,1,0,49.26,21l-8-1.9a1.41,1.41,0,0,0-1.61.83l-3.24,7.72a23.73,23.73,0,0,0-12.52,3.85,5.35,5.35,0,0,0-3.27-1.08A5.68,5.68,0,0,0,17.85,41v.76c0,7.83,8.78,14.2,19.57,14.2S57,49.59,57,41.76V41.1A5.62,5.62,0,0,0,60,36.08Z"/></g></g></g></svg>