<?xml version="1.0" encoding="utf-8"?>
<!-- Generator: Adobe Illustrator 21.1.0, SVG Export Plug-In . SVG Version: 6.00 Build 0)  -->
<svg version="1.1" id="Layer_1" xmlns="http://www.w3.org/2000/svg" xmlns:xlink="http://www.w3.org/1999/xlink" width="45" height="37" viewBox="0 0 45 37" xml:space="preserve">
<style type="text/css">
	.st0{fill:url(#SVGID_1_);}
	.st1{fill:url(#SVGID_2_);}
</style>
<g>
	<path d="M28.6,17.8L19.3,26c-0.1,0.1-0.2,0.2-0.2,0.3l-0.4,3.2c0,0.1-0.2,0.1-0.2,0l-1.5-4.7c-0.1-0.2,0-0.5,0.2-0.6l11-6.8
		C28.6,17.2,28.8,17.6,28.6,17.8z"/>
</g>
<linearGradient id="SVGID_1_" gradientUnits="userSpaceOnUse" x1="17.0884" y1="23.4576" x2="28.6789" y2="23.4576">
	<stop  offset="0" style="stop-color:#001358"/>
	<stop  offset="1" style="stop-color:#125AC4"/>
</linearGradient>
<path class="st0" d="M28.6,17.8L19.3,26c-0.1,0.1-0.2,0.2-0.2,0.3l-0.4,3.2c0,0.1-0.2,0.1-0.2,0l-1.5-4.7c-0.1-0.2,0-0.5,0.2-0.6
	l11-6.8C28.6,17.2,28.8,17.6,28.6,17.8z"/>
<linearGradient id="SVGID_2_" gradientUnits="userSpaceOnUse" x1="6.5902" y1="6.5902" x2="38.4099" y2="38.4099">
	<stop  offset="0" style="stop-color:#001358"/>
	<stop  offset="1" style="stop-color:#125AC4"/>
</linearGradient>
<path class="st1" d="M22.5,0C10.1,0,0,10.1,0,22.5C0,34.9,10.1,45,22.5,45C34.9,45,45,34.9,45,22.5C45,10.1,34.9,0,22.5,0z
	 M32.5,15.3l-3.4,16.3c-0.2,0.8-1.1,1.1-1.7,0.6l-5.2-3.8l-2.6,2.7c-0.5,0.5-1.3,0.3-1.5-0.3l-1.9-6l-5.1-1.5
	c-0.7-0.2-0.7-1.1-0.1-1.4l20-7.8C31.9,13.8,32.7,14.5,32.5,15.3z"/>
</svg>
