<?xml version="1.0" encoding="utf-8"?>
<!-- Generator: Adobe Illustrator 21.1.0, SVG Export Plug-In . SVG Version: 6.00 Build 0)  -->
<svg version="1.1" id="Layer_1" xmlns="http://www.w3.org/2000/svg" xmlns:xlink="http://www.w3.org/1999/xlink" x="0px" y="0px"
	 viewBox="0 0 69 69" style="enable-background:new 0 0 69 69;" xml:space="preserve">
<style type="text/css">
	.st0{fill:url(#SVGID_1_);}
	.st1{fill:url(#SVGID_2_);}
</style>
<g>
	<g>
		<path d="M40.6,26.8L31.3,35c-0.1,0.1-0.2,0.2-0.2,0.3l-0.4,3.2c0,0.1-0.2,0.1-0.2,0l-1.5-4.7c-0.1-0.2,0-0.5,0.2-0.6l11-6.8
			C40.6,26.2,40.8,26.6,40.6,26.8z"/>
	</g>
	<linearGradient id="SVGID_1_" gradientUnits="userSpaceOnUse" x1="21.241" y1="32.4576" x2="38.3866" y2="32.4576">
		<stop  offset="0" style="stop-color:#24F281"/>
		<stop  offset="1" style="stop-color:#0083FF"/>
	</linearGradient>
	<path class="st0" d="M40.6,26.8L31.3,35c-0.1,0.1-0.2,0.2-0.2,0.3l-0.4,3.2c0,0.1-0.2,0.1-0.2,0l-1.5-4.7c-0.1-0.2,0-0.5,0.2-0.6
		l11-6.8C40.6,26.2,40.8,26.6,40.6,26.8z"/>
	<linearGradient id="SVGID_2_" gradientUnits="userSpaceOnUse" x1="18.5902" y1="15.5902" x2="50.4099" y2="47.4099">
		<stop  offset="0" style="stop-color:#24F281"/>
		<stop  offset="1" style="stop-color:#0083FF"/>
	</linearGradient>
	<path class="st1" d="M34.5,9C22.1,9,12,19.1,12,31.5C12,43.9,22.1,54,34.5,54C46.9,54,57,43.9,57,31.5C57,19.1,46.9,9,34.5,9z
		 M44.5,24.3l-3.4,16.3c-0.2,0.8-1.1,1.1-1.7,0.6l-5.2-3.8l-2.6,2.7c-0.5,0.5-1.3,0.3-1.5-0.3l-1.9-6l-5.1-1.5
		c-0.7-0.2-0.7-1.1-0.1-1.4l20-7.8C43.9,22.8,44.7,23.5,44.5,24.3z"/>
</g>
</svg>
