<svg id="Layer_1" data-name="Layer 1" xmlns="http://www.w3.org/2000/svg" viewBox="0 0 50 50"><defs><style>.cls-1{fill:#fff;}</style></defs><title>Untitled-1</title><g id="Page-1"><g id="iPhone-8"><g id="telegram"><path id="Shape" class="cls-1" d="M32.6,19.73l-10.68,9c-.12.11-.23.22-.23.33l-.46,3.52c0,.11-.23.11-.23,0l-1.73-5.17a.53.53,0,0,1,.23-.66l12.64-7.49C32.6,19.07,32.83,19.51,32.6,19.73Z"/><path id="Shape-2" data-name="Shape" class="cls-1" d="M32.6,19.73l-10.68,9c-.12.11-.23.22-.23.33l-.46,3.52c0,.11-.23.11-.23,0l-1.73-5.17a.53.53,0,0,1,.23-.66l12.64-7.49C32.6,19.07,32.83,19.51,32.6,19.73Z"/><path id="Shape-3" data-name="Shape" class="cls-1" d="M25,0A25,25,0,1,0,50,25,25,25,0,0,0,25,0ZM36.11,17,32.33,35.11a1.16,1.16,0,0,1-.75.87,1.18,1.18,0,0,1-1.14-.2l-5.77-4.22-2.89,3a1,1,0,0,1-.93.29,1,1,0,0,1-.74-.63L18,27.56l-5.67-1.67a.82.82,0,0,1-.59-.74.85.85,0,0,1,.48-.82l22.22-8.66A1.2,1.2,0,0,1,36.11,17Z"/></g></g></g></svg>