<svg id="Layer_1" data-name="Layer 1" xmlns="http://www.w3.org/2000/svg" xmlns:xlink="http://www.w3.org/1999/xlink" viewBox="0 0 75 75"><defs><style>.cls-1{fill:url(#linear-gradient);}.cls-2{fill:url(#linear-gradient-2);}.cls-3{fill:url(#linear-gradient-3);}</style><linearGradient id="linear-gradient" x1="31.64" y1="38.5" x2="43.36" y2="38.5" gradientTransform="matrix(1, 0, 0, -1, 0, 76)" gradientUnits="userSpaceOnUse"><stop offset="0" stop-color="#001358"/><stop offset="1" stop-color="#125ac4"/></linearGradient><linearGradient id="linear-gradient-2" x1="23.92" y1="735.5" x2="41.07" y2="735.5" gradientTransform="translate(0 -698)" xlink:href="#linear-gradient"/><linearGradient id="linear-gradient-3" x1="21.59" y1="719.59" x2="53.41" y2="751.41" gradientTransform="translate(0 -698)" xlink:href="#linear-gradient"/></defs><title>telegram</title><path class="cls-1" d="M43.28,31.84,34,40c-.1.1-.2.2-.2.3l-.4,3.2c0,.1-.2.1-.2,0l-1.5-4.7a.48.48,0,0,1,.2-.6l11-6.8C43.28,31.24,43.48,31.64,43.28,31.84Z"/><path class="cls-2" d="M43.28,31.84,34,40c-.1.1-.2.2-.2.3l-.4,3.2c0,.1-.2.1-.2,0l-1.5-4.7a.48.48,0,0,1,.2-.6l11-6.8C43.28,31.24,43.48,31.64,43.28,31.84Z"/><path class="cls-3" d="M37.5,15A22.5,22.5,0,1,0,60,37.5,22.5,22.5,0,0,0,37.5,15Zm10,15.3L44.1,46.6a1,1,0,0,1-1.24.82,1,1,0,0,1-.46-.22l-5.2-3.8-2.6,2.7a.9.9,0,0,1-1.5-.3l-1.9-6-5.1-1.5a.74.74,0,0,1-.5-.93.72.72,0,0,1,.4-.47l20-7.8a1.09,1.09,0,0,1,1.43.54A1.15,1.15,0,0,1,47.5,30.3Z"/></svg>