<svg id="Layer_1" data-name="Layer 1" xmlns="http://www.w3.org/2000/svg" viewBox="0 0 50 50"><defs><style>.cls-1{fill:#fff;}</style></defs><title>Untitled-1</title><g id="Page-1"><g id="iPhone-8"><g id="twitter"><path id="Shape" class="cls-1" d="M44.87,15c0,.44,0,.88,0,1.32,0,13.43-10.32,28.91-29.18,28.91A29.22,29.22,0,0,1,0,40.71a22.31,22.31,0,0,0,2.47.13,20.67,20.67,0,0,0,12.74-4.35,10.26,10.26,0,0,1-9.59-7,13.59,13.59,0,0,0,1.93.15,10.85,10.85,0,0,0,2.7-.34A10.19,10.19,0,0,1,2,19.28v-.12a10.57,10.57,0,0,0,4.64,1.29A10.13,10.13,0,0,1,2.06,12a10,10,0,0,1,1.4-5.12A29.27,29.27,0,0,0,24.61,17.49a11.24,11.24,0,0,1-.26-2.33A10.29,10.29,0,0,1,42.1,8.21a20.38,20.38,0,0,0,6.51-2.45,10.17,10.17,0,0,1-4.51,5.6A20.56,20.56,0,0,0,50,9.78,21.94,21.94,0,0,1,44.87,15Z"/></g></g></g></svg>