<svg id="Layer_1" data-name="Layer 1" xmlns="http://www.w3.org/2000/svg" xmlns:xlink="http://www.w3.org/1999/xlink" viewBox="0 0 75 75"><defs><style>.cls-1{fill:url(#linear-gradient);}</style><linearGradient id="linear-gradient" x1="-1275.84" y1="-0.78" x2="-1275.54" y2="0.13" gradientTransform="matrix(91.36, 53.18, -76.75, 63.31, 116553.71, 67907.84)" gradientUnits="userSpaceOnUse"><stop offset="0" stop-color="#0083ff"/><stop offset="0.59" stop-color="#24f281"/><stop offset="1" stop-color="#24f281"/></linearGradient></defs><title>youtube</title><path id="Fill_1" data-name="Fill 1" class="cls-1" d="M58.52,22.74c-1.24-2.24-2.6-2.65-5.35-2.8s-9.67-.27-15.66-.27-12.93.08-15.68.26-4.11.57-5.36,2.81-1.95,6.07-1.95,12.84h0c0,6.74.66,10.62,1.95,12.82s2.61,2.64,5.36,2.83,9.67.26,15.68.26,12.91-.09,15.66-.25,4.11-.6,5.36-2.83,1.95-6.08,1.95-12.82h0C60.48,28.81,59.82,25,58.52,22.74ZM31.76,44.27V26.91l14.36,8.68Z"/></svg>