<svg id="Layer_1" data-name="Layer 1" xmlns="http://www.w3.org/2000/svg" xmlns:xlink="http://www.w3.org/1999/xlink" viewBox="0 0 50 50"><defs><style>.cls-1{fill:url(#linear-gradient);}</style><linearGradient id="linear-gradient" x1="6.49" y1="44.45" x2="43.43" y2="7.52" gradientUnits="userSpaceOnUse"><stop offset="0" stop-color="#273469"/><stop offset="0.18" stop-color="#283877"/><stop offset="0.51" stop-color="#2a449b"/><stop offset="0.95" stop-color="#2e56d5"/><stop offset="1" stop-color="#2e58db"/></linearGradient></defs><title>Untitled-1</title><g id="Page-1"><g id="iPhone-8"><g id="youtube"><path id="Fill_1" data-name="Fill 1" class="cls-1" d="M47.79,12.28C46.45,9.89,45,9.45,42,9.29S31.47,9,25,9s-14.06.09-17,.28-4.47.61-5.83,3S0,18.77,0,26,.69,37.35,2.09,39.7s2.84,2.82,5.83,3S18.43,43,25,43s14-.1,17-.27,4.47-.64,5.82-3,2.12-6.5,2.12-13.7S49.21,14.7,47.79,12.28ZM19,35.09V16.91L34.86,26Z"/></g></g></g></svg>