<?xml version="1.0" encoding="utf-8"?>
<!-- Generator: Adobe Illustrator 21.1.0, SVG Export Plug-In . SVG Version: 6.00 Build 0)  -->
<svg version="1.1" id="Layer_1" xmlns="http://www.w3.org/2000/svg" xmlns:xlink="http://www.w3.org/1999/xlink" x="0px" y="0px"
	 viewBox="0 0 68.1 124.6" style="enable-background:new 0 0 68.1 124.6;" xml:space="preserve">
<style type="text/css">
	.st0{fill:#FFFFFF;}
</style>
<path class="st0" d="M31.4,66c-5.7,0-11,0.1-16.3,0C6.4,65.9,2.4,61.9,2.4,53.5c0-13,0-26,0-39c0-8.4,3.9-12.3,12.2-12.3
	c13-0.1,26-0.1,39,0c7.8,0,11.9,3.9,11.8,11.6c-0.2,18,0.3,36-1.3,53.9c-1.8,20-10.1,37.5-25.7,50.9c-6.2,5.3-6.9,5.2-12.4-0.8
	c-4-4.4-8-9-12.1-13.3c-2.8-3-2.6-5.2,0.6-7.8c8.8-6.9,14.8-15.7,16.8-26.9C31.5,68.8,31.4,67.8,31.4,66z"/>
</svg>
