<?xml version="1.0" encoding="UTF-8"?>
<svg viewBox="0 0 38 32" version="1.1" xmlns="http://www.w3.org/2000/svg" xmlns:xlink="http://www.w3.org/1999/xlink">
    <!-- Generator: Sketch 47.1 (45422) - http://www.bohemiancoding.com/sketch -->
    <title>Medium</title>
    <desc>Created with Sketch.</desc>
    <defs></defs>
    <g id="MyBit-HomePage" stroke="none" stroke-width="1" fill="none" fill-rule="evenodd">
        <g id="MyBit-WebDesign-V1" transform="translate(-1076.000000, -5349.000000)" fill-rule="nonzero" fill="#FFFFFF">
            <g id="Social" transform="translate(956.000000, 5348.000000)">
                <g id="Medium" transform="translate(120.000000, 1.000000)">
                    <path d="M13,5.8528827 L13,30.7276342 C13,31.0810691 12.9092686,31.3814888 12.7278057,31.6288933 C12.5463428,31.8762978 12.281407,32 11.9329983,32 C11.6862088,32 11.4466778,31.9434504 11.2144054,31.8303512 L1.08877722,26.8893307 C0.783919598,26.7479567 0.526242323,26.5111553 0.315745394,26.1789264 C0.105248465,25.8466976 0,25.5180031 0,25.1928429 L0,1.01789264 C0,0.735144687 0.072585148,0.494808924 0.217755444,0.296885355 C0.36292574,0.0989617848 0.573422669,0 0.849246231,0 C1.05248465,0 1.3718593,0.106030484 1.80737018,0.318091451 L12.9346734,5.74685222 C12.9782245,5.78926441 13,5.82460791 13,5.8528827 Z M14,8 L25,26 L14,20.4711316 L14,8 Z M38,9 L38,30.8396396 C38,31.184985 37.9049383,31.4647147 37.7148148,31.6788288 C37.5246914,31.8929429 37.2666667,32 36.9407407,32 C36.6148148,32 36.295679,31.9102102 35.9833333,31.7306306 L27,27.1720721 L38,9 Z M38,5.9293524 C38,5.97140454 36.1942978,8.91155032 32.5828933,14.7497897 C28.9714889,20.5880292 26.8560366,24.0047659 26.2365364,25 L18,11.6694701 L24.842661,0.588730025 C25.0820134,0.196243342 25.4480817,0 25.9408659,0 C26.1379796,0 26.3210137,0.0420521447 26.4899683,0.126156434 L37.9155227,5.80319596 C37.9718409,5.83123073 38,5.87328287 38,5.9293524 Z"></path>
                </g>
            </g>
        </g>
    </g>
</svg>