<?xml version="1.0" encoding="UTF-8"?>
<svg viewBox="0 0 36 32" version="1.1" xmlns="http://www.w3.org/2000/svg" xmlns:xlink="http://www.w3.org/1999/xlink">
    <!-- Generator: Sketch 47.1 (45422) - http://www.bohemiancoding.com/sketch -->
    <title>Reddit</title>
    <desc>Created with Sketch.</desc>
    <defs></defs>
    <g id="MyBit-HomePage" stroke="none" stroke-width="1" fill="none" fill-rule="evenodd">
        <g id="MyBit-WebDesign-V1" transform="translate(-1020.000000, -5349.000000)" fill="#FFFFFF">
            <g id="Social" transform="translate(956.000000, 5348.000000)">
                <g id="Reddit" transform="translate(64.000000, 1.000000)">
                    <g id="icons8-Reddit-Filled">
                        <path d="M21,0 C19.4208983,0 17.5751955,1.25892876 17.296875,6.88095238 C17.53125,6.87500038 17.7626955,6.85714286 18,6.85714286 C18.2636723,6.85714286 18.536133,6.87202362 18.796875,6.88095238 C18.9755858,3.502976 19.7666018,1.52380952 21,1.52380952 C21.5273438,1.52380952 21.8261723,1.81547657 22.3828125,2.42857143 C23.0332035,3.14583314 23.8828125,4.07738133 25.546875,4.42857143 C25.520508,4.22916648 25.5,4.01488076 25.5,3.80952381 C25.5,3.48809524 25.5322268,3.18452419 25.59375,2.88095238 C24.5625,2.5952381 24.0175785,1.99107124 23.484375,1.4047619 C22.8896483,0.75 22.2070313,0 21,0 Z M30,0.761904762 C28.3447268,0.761904762 27,2.13095238 27,3.80952381 C27,5.48809524 28.3447268,6.85714286 30,6.85714286 C31.6552733,6.85714286 33,5.48809524 33,3.80952381 C33,2.13095238 31.6552733,0.761904762 30,0.761904762 Z M18,8.38095238 C8.900391,8.38095238 1.5,13.0892861 1.5,19.8095238 C1.5,26.5297623 8.900391,32 18,32 C27.0996097,32 34.5,26.5297623 34.5,19.8095238 C34.5,13.0892861 27.0996097,8.38095238 18,8.38095238 Z M4.875,9.0952381 C3.77929725,9.0952381 2.739258,9.55059505 1.9453125,10.3571429 C0.6533205,11.6696427 0.38671875,13.5565478 1.125,15.1190476 C2.25878925,12.8898811 4.20996075,10.9880952 6.7265625,9.57142857 C6.15527325,9.27678552 5.52246075,9.0952381 4.875,9.0952381 Z M31.125,9.0952381 C30.4775392,9.0952381 29.8447267,9.27678552 29.2734375,9.57142857 C31.7900392,10.9880952 33.7412108,12.8898811 34.875,15.1190476 C35.6132812,13.5565478 35.3466795,11.6696427 34.0546875,10.3571429 C33.260742,9.55059505 32.2207035,9.0952381 31.125,9.0952381 Z M12,15.2380952 C13.2421875,15.2380952 14.25,16.2619048 14.25,17.5238095 C14.25,18.7857143 13.2421875,19.8095238 12,19.8095238 C10.7578125,19.8095238 9.75,18.7857143 9.75,17.5238095 C9.75,16.2619048 10.7578125,15.2380952 12,15.2380952 Z M24,15.2380952 C25.2421875,15.2380952 26.25,16.2619048 26.25,17.5238095 C26.25,18.7857143 25.2421875,19.8095238 24,19.8095238 C22.7578125,19.8095238 21.75,18.7857143 21.75,17.5238095 C21.75,16.2619048 22.7578125,15.2380952 24,15.2380952 Z M11.296875,23.6190476 C11.484375,23.6517859 11.6689455,23.7589288 11.7890625,23.9285714 C11.8681642,24.041667 13.6259767,26.4285714 18,26.4285714 C22.432617,26.4285714 24.1933597,23.9761905 24.2109375,23.952381 C24.448242,23.6101189 24.9257812,23.5178575 25.265625,23.7619048 C25.6025392,24.002976 25.666992,24.4642857 25.4296875,24.8095238 C25.3417972,24.9375002 23.203125,27.952381 18,27.952381 C12.7939455,27.952381 10.6582035,24.9375002 10.5703125,24.8095238 C10.333008,24.4642857 10.3945312,24.002976 10.734375,23.7619048 C10.9042972,23.6398811 11.109375,23.5863093 11.296875,23.6190476 Z" id="Shape" fill-rule="nonzero"></path>
                    </g>
                </g>
            </g>
        </g>
    </g>
</svg>