<svg width="22" height="39" viewBox="0 0 22 39" fill="none" xmlns="http://www.w3.org/2000/svg">
<g opacity="0.5">
<path opacity="0.8" fill-rule="evenodd" clip-rule="evenodd" d="M21.4142 13.5858C22.1953 14.3668 22.1953 15.6332 21.4142 16.4142L12.4142 25.4142C11.6332 26.1953 10.3668 26.1953 9.58579 25.4142L0.585787 16.4142C-0.195263 15.6332 -0.195263 14.3668 0.585787 13.5858C1.36683 12.8047 2.63317 12.8047 3.41421 13.5858L11 21.1716L18.5858 13.5858C19.3668 12.8047 20.6332 12.8047 21.4142 13.5858Z" fill="#1890FF"/>
<path fill-rule="evenodd" clip-rule="evenodd" d="M21.4142 26.5858C22.1953 27.3668 22.1953 28.6332 21.4142 29.4142L12.4142 38.4142C11.6332 39.1953 10.3668 39.1953 9.58579 38.4142L0.585787 29.4142C-0.195263 28.6332 -0.195263 27.3668 0.585787 26.5858C1.36683 25.8047 2.63317 25.8047 3.41421 26.5858L11 34.1716L18.5858 26.5858C19.3668 25.8047 20.6332 25.8047 21.4142 26.5858Z" fill="#1890FF"/>
<path opacity="0.6" fill-rule="evenodd" clip-rule="evenodd" d="M21.4142 0.585786C22.1953 1.36684 22.1953 2.63317 21.4142 3.41421L12.4142 12.4142C11.6332 13.1953 10.3668 13.1953 9.58579 12.4142L0.585787 3.41421C-0.195263 2.63316 -0.195263 1.36683 0.585787 0.585786C1.36683 -0.195263 2.63317 -0.195263 3.41421 0.585786L11 8.17157L18.5858 0.585786C19.3668 -0.195262 20.6332 -0.195262 21.4142 0.585786Z" fill="#1890FF"/>
</g>
</svg>
