<svg width="39" height="22" viewBox="0 0 39 22" fill="none" xmlns="http://www.w3.org/2000/svg">
<g opacity="0.5">
<path opacity="0.8" fill-rule="evenodd" clip-rule="evenodd" d="M13.5858 0.585786C14.3668 -0.195262 15.6332 -0.195262 16.4142 0.585786L25.4142 9.58579C26.1953 10.3668 26.1953 11.6332 25.4142 12.4142L16.4142 21.4142C15.6332 22.1953 14.3668 22.1953 13.5858 21.4142C12.8047 20.6332 12.8047 19.3668 13.5858 18.5858L21.1716 11L13.5858 3.41421C12.8047 2.63317 12.8047 1.36683 13.5858 0.585786Z" fill="#1890FF"/>
<path fill-rule="evenodd" clip-rule="evenodd" d="M26.5858 0.585786C27.3668 -0.195262 28.6332 -0.195262 29.4142 0.585786L38.4142 9.58579C39.1953 10.3668 39.1953 11.6332 38.4142 12.4142L29.4142 21.4142C28.6332 22.1953 27.3668 22.1953 26.5858 21.4142C25.8047 20.6332 25.8047 19.3668 26.5858 18.5858L34.1716 11L26.5858 3.41421C25.8047 2.63317 25.8047 1.36683 26.5858 0.585786Z" fill="#1890FF"/>
<path opacity="0.6" fill-rule="evenodd" clip-rule="evenodd" d="M0.585786 0.585786C1.36683 -0.195262 2.63317 -0.195262 3.41421 0.585786L12.4142 9.58579C13.1953 10.3668 13.1953 11.6332 12.4142 12.4142L3.41421 21.4142C2.63317 22.1953 1.36683 22.1953 0.585786 21.4142C-0.195262 20.6332 -0.195262 19.3668 0.585786 18.5858L8.17157 11L0.585786 3.41421C-0.195262 2.63317 -0.195262 1.36683 0.585786 0.585786Z" fill="#1890FF"/>
</g>
</svg>
