<svg width="1087" height="645" viewBox="0 0 1087 645" fill="none" xmlns="http://www.w3.org/2000/svg">
<path opacity="0.1" d="M1057.89 599.111C1033.83 616.809 999.588 624.134 966.476 628.76L960.903 629.513C903.027 637.171 843.986 638.731 785.222 640.273C621.319 644.575 456.992 648.868 293.524 638.95C221.232 634.569 147.151 626.894 83.7913 600.661L82.1412 599.969C81.321 599.628 80.5009 599.286 79.6807 598.927C68.4312 594.165 57.6551 588.57 47.4674 582.201C29.3746 570.758 14.4339 556.792 6.53868 540.224C-5.83282 514.237 0.708661 485.025 14.839 459.617C28.9694 434.208 50.2144 411.323 68.5345 387.395C73.91 380.385 79.0088 373.113 83.7518 365.657C113.396 318.896 128.099 264.785 97.0225 219.724C92.9205 213.978 88.4912 208.422 83.7518 203.076C76.1728 194.315 68.4653 185.553 63.2578 175.854C51.1136 153.284 53.7223 127.902 58.1492 103.79C64.078 71.731 74.9969 37.2015 108.92 17.1724C144.167 -3.62771 194.196 -2.57632 237.941 4.90611C305.955 16.4627 368.731 40.6535 432.1 62.47C495.47 84.2864 561.892 104.158 631.566 106.296C693.088 108.197 764.856 94.0293 805.706 57.1604C845.379 21.3692 919.934 18.6619 973.689 40.2768C1024.98 60.9016 1058.16 104.552 1055.7 148.15C1052.58 202.56 1001.43 246.131 960.942 292.454C954.213 300.155 947.77 307.944 941.891 315.865C922.701 341.738 909.134 372.815 922.346 400.747C929.757 416.387 943.897 428.32 960.942 438.738C999.134 462.07 1051.85 477.771 1075.57 510.434C1095.99 538.612 1088.42 576.637 1057.89 599.111Z" fill="#1890FF"/>
</svg>
