<svg width="104" height="104" viewBox="0 0 104 104" fill="none" xmlns="http://www.w3.org/2000/svg">
<g filter="url(#filter0_dd)">
<circle cx="52" cy="48" r="32" fill="white"/>
</g>
<mask id="path-2-inside-1" fill="white">
<path fill-rule="evenodd" clip-rule="evenodd" d="M63.9989 39.9511C64.0039 38.6975 64.0016 37.5702 63.7766 36.2281C62.433 36.0029 61.3052 36 60.0504 36C54.9329 36 51.8511 38.6403 49.3556 42.5718L48.7664 43.5H41.5603C41.252 43.5 40.9711 43.6748 40.8349 43.9473L38.3705 48.8751H46.1088L44.8007 51.7124C44.5577 52.2394 44.3095 52.7688 44.0566 53.2908L46.7107 55.9444C47.2368 55.6914 47.7679 55.4454 48.2892 55.2052L51.1263 53.8977V61.634L56.0544 59.1679C56.3217 59.0351 56.4974 58.7554 56.4974 58.4454V51.2314L57.4221 50.6418C61.3494 48.1377 63.9989 45.0433 63.9989 39.959L63.9989 39.9511ZM49.1263 62.5938C49.1263 63.6368 50.2281 64.3165 51.1599 63.8536L56.9443 60.9591C57.8996 60.4845 58.4974 59.5059 58.4974 58.4454V52.3282C62.7521 49.6153 65.9989 45.9766 65.9989 39.959C66.0048 38.4824 66.0048 37.0059 65.6004 35.1191C65.5242 34.7617 65.2429 34.4805 64.8854 34.4043C62.9983 34 61.5214 34 60.0504 34C54.0023 34 50.3746 37.2344 47.667 41.5H41.5603C40.4936 41.5 39.5208 42.1035 39.0461 43.0528L36.151 48.8418C35.6821 49.7793 36.3619 50.8751 37.411 50.8751H42.9844C42.6722 51.5522 42.3552 52.2247 42.0334 52.8751C41.9988 52.945 41.9642 53.0147 41.9295 53.084C41.7478 53.4473 41.8181 53.8809 42.1053 54.168L45.8326 57.8946C46.1198 58.1817 46.5535 58.252 46.9168 58.0704C46.9864 58.0356 47.0562 58.001 47.1263 57.9664C47.7767 57.6457 48.4491 57.3336 49.1263 57.0216V62.5938ZM62 41C62 42.6567 60.6567 44 59 44C57.3433 44 56 42.6567 56 41C56 39.3433 57.3433 38 59 38C60.6567 38 62 39.3433 62 41ZM58.0052 40.8977C58.0017 40.9313 58 40.9655 58 41C58 41.04 58.0023 41.0795 58.0069 41.1182C58.0614 41.5815 58.4323 41.9476 58.8977 41.9948C58.9313 41.9983 58.9655 42 59 42C59.04 42 59.0794 41.9977 59.1182 41.9931C59.5815 41.9386 59.9476 41.5677 59.9948 41.1023C59.9983 41.0687 60 41.0345 60 41C60 40.9605 59.9977 40.9215 59.9933 40.8832C59.9393 40.4193 59.5682 40.0524 59.1023 40.0052C59.0687 40.0017 59.0345 40 59 40C58.9605 40 58.9215 40.0023 58.8832 40.0067C58.4193 40.0607 58.0524 40.4318 58.0052 40.8977Z"/>
</mask>
<path fill-rule="evenodd" clip-rule="evenodd" d="M63.9989 39.9511C64.0039 38.6975 64.0016 37.5702 63.7766 36.2281C62.433 36.0029 61.3052 36 60.0504 36C54.9329 36 51.8511 38.6403 49.3556 42.5718L48.7664 43.5H41.5603C41.252 43.5 40.9711 43.6748 40.8349 43.9473L38.3705 48.8751H46.1088L44.8007 51.7124C44.5577 52.2394 44.3095 52.7688 44.0566 53.2908L46.7107 55.9444C47.2368 55.6914 47.7679 55.4454 48.2892 55.2052L51.1263 53.8977V61.634L56.0544 59.1679C56.3217 59.0351 56.4974 58.7554 56.4974 58.4454V51.2314L57.4221 50.6418C61.3494 48.1377 63.9989 45.0433 63.9989 39.959L63.9989 39.9511ZM49.1263 62.5938C49.1263 63.6368 50.2281 64.3165 51.1599 63.8536L56.9443 60.9591C57.8996 60.4845 58.4974 59.5059 58.4974 58.4454V52.3282C62.7521 49.6153 65.9989 45.9766 65.9989 39.959C66.0048 38.4824 66.0048 37.0059 65.6004 35.1191C65.5242 34.7617 65.2429 34.4805 64.8854 34.4043C62.9983 34 61.5214 34 60.0504 34C54.0023 34 50.3746 37.2344 47.667 41.5H41.5603C40.4936 41.5 39.5208 42.1035 39.0461 43.0528L36.151 48.8418C35.6821 49.7793 36.3619 50.8751 37.411 50.8751H42.9844C42.6722 51.5522 42.3552 52.2247 42.0334 52.8751C41.9988 52.945 41.9642 53.0147 41.9295 53.084C41.7478 53.4473 41.8181 53.8809 42.1053 54.168L45.8326 57.8946C46.1198 58.1817 46.5535 58.252 46.9168 58.0704C46.9864 58.0356 47.0562 58.001 47.1263 57.9664C47.7767 57.6457 48.4491 57.3336 49.1263 57.0216V62.5938ZM62 41C62 42.6567 60.6567 44 59 44C57.3433 44 56 42.6567 56 41C56 39.3433 57.3433 38 59 38C60.6567 38 62 39.3433 62 41ZM58.0052 40.8977C58.0017 40.9313 58 40.9655 58 41C58 41.04 58.0023 41.0795 58.0069 41.1182C58.0614 41.5815 58.4323 41.9476 58.8977 41.9948C58.9313 41.9983 58.9655 42 59 42C59.04 42 59.0794 41.9977 59.1182 41.9931C59.5815 41.9386 59.9476 41.5677 59.9948 41.1023C59.9983 41.0687 60 41.0345 60 41C60 40.9605 59.9977 40.9215 59.9933 40.8832C59.9393 40.4193 59.5682 40.0524 59.1023 40.0052C59.0687 40.0017 59.0345 40 59 40C58.9605 40 58.9215 40.0023 58.8832 40.0067C58.4193 40.0607 58.0524 40.4318 58.0052 40.8977Z" fill="#1890FF"/>
<path d="M63.9989 39.9511L61.9989 39.9431L61.9989 39.9472L63.9989 39.9511ZM63.7766 36.2281L65.7491 35.8975L65.5135 34.4914L64.1073 34.2556L63.7766 36.2281ZM49.3556 42.5718L47.667 41.5L49.3556 42.5718ZM48.7664 43.5V45.5H49.8658L50.455 44.5718L48.7664 43.5ZM40.8349 43.9473L39.0461 43.0528L40.8349 43.9473ZM38.3705 48.8751L36.5817 47.9805L35.1341 50.8751H38.3705V48.8751ZM46.1088 48.8751L47.925 49.7124L49.2332 46.8751H46.1088V48.8751ZM44.8007 51.7124L46.6169 52.5498L46.6169 52.5498L44.8007 51.7124ZM44.0566 53.2908L42.2567 52.4189L41.6365 53.6993L42.6425 54.7052L44.0566 53.2908ZM46.7107 55.9444L45.2967 57.3587L46.2995 58.3614L47.5775 57.7468L46.7107 55.9444ZM48.2892 55.2052L47.4521 53.3888L47.4521 53.3888L48.2892 55.2052ZM51.1263 53.8977H53.1263V50.7739L50.2892 52.0813L51.1263 53.8977ZM51.1263 61.634H49.1263V64.8712L52.0213 63.4226L51.1263 61.634ZM56.0544 59.1679L55.1646 57.3768L55.1594 57.3794L56.0544 59.1679ZM56.4974 51.2314L55.4221 49.5451L54.4974 50.1347V51.2314H56.4974ZM57.4221 50.6418L58.4974 52.3282L57.4221 50.6418ZM63.9989 39.959L61.9989 39.9552V39.959H63.9989ZM51.1599 63.8536L52.0497 65.6448L52.0549 65.6422L51.1599 63.8536ZM56.9443 60.9591L56.0544 59.1679L56.0493 59.1705L56.9443 60.9591ZM58.4974 52.3282L57.4221 50.6418L56.4974 51.2314V52.3282H58.4974ZM65.9989 39.959L63.9989 39.9511V39.959H65.9989ZM65.6004 35.1191L63.6443 35.5361L63.6448 35.5383L65.6004 35.1191ZM64.8854 34.4043L64.4664 36.3599L64.4686 36.3604L64.8854 34.4043ZM47.667 41.5V43.5H48.7664L49.3556 42.5718L47.667 41.5ZM39.0461 43.0528L37.2573 42.1582L37.2573 42.1582L39.0461 43.0528ZM36.151 48.8418L37.9397 49.7364H37.9397L36.151 48.8418ZM42.9844 50.8751L44.8007 51.7124L46.1088 48.8751H42.9844V50.8751ZM42.0334 52.8751L43.8261 53.7619L43.8261 53.7619L42.0334 52.8751ZM41.9295 53.084L40.1407 52.1895L40.1407 52.1895L41.9295 53.084ZM42.1053 54.168L43.5194 52.7537L43.5194 52.7537L42.1053 54.168ZM45.8326 57.8946L47.2467 56.4803L47.2467 56.4802L45.8326 57.8946ZM46.9168 58.0704L47.8111 59.8593L47.8111 59.8593L46.9168 58.0704ZM47.1263 57.9664L48.0108 59.7602L48.0108 59.7602L47.1263 57.9664ZM49.1263 57.0216H51.1263V53.8977L48.2892 55.2052L49.1263 57.0216ZM58.0052 40.8977L56.0154 40.6958L56.0154 40.6958L58.0052 40.8977ZM58.0069 41.1182L59.9932 40.8845L59.9932 40.8845L58.0069 41.1182ZM58.8977 41.9948L59.0997 40.0051L59.0997 40.0051L58.8977 41.9948ZM59.1182 41.9931L59.3519 43.9794L59.3519 43.9794L59.1182 41.9931ZM59.9948 41.1023L61.9846 41.3042L61.9846 41.3042L59.9948 41.1023ZM59.9933 40.8832L61.9799 40.6523L61.9799 40.6523L59.9933 40.8832ZM59.1023 40.0052L58.9003 41.9949L58.9003 41.9949L59.1023 40.0052ZM58.8832 40.0067L59.1141 41.9934L59.1141 41.9934L58.8832 40.0067ZM61.8042 36.5587C61.9981 37.7159 62.0039 38.691 61.9989 39.9431L65.9989 39.959C66.0039 38.704 66.005 37.4245 65.7491 35.8975L61.8042 36.5587ZM60.0504 38C61.3096 38 62.2853 38.006 63.446 38.2006L64.1073 34.2556C62.5807 33.9997 61.3008 34 60.0504 34V38ZM51.0441 43.6436C52.2085 41.8092 53.4246 40.4149 54.8314 39.4742C56.2065 38.5547 57.8652 38 60.0504 38V34C57.1182 34 54.6772 34.7654 52.608 36.149C50.5707 37.5113 48.9981 39.403 47.667 41.5L51.0441 43.6436ZM50.455 44.5718L51.0441 43.6436L47.667 41.5L47.0778 42.4282L50.455 44.5718ZM42.6236 44.8419C42.4214 45.2464 42.0101 45.5 41.5603 45.5V41.5C40.4939 41.5 39.5209 42.1033 39.0461 43.0528L42.6236 44.8419ZM40.1593 49.7696L42.6236 44.8419L39.0461 43.0528L36.5817 47.9805L40.1593 49.7696ZM46.6169 52.5498L47.925 49.7124L44.2925 48.0377L42.9844 50.8751L46.6169 52.5498ZM45.8566 54.1627C46.1166 53.6258 46.3705 53.0843 46.6169 52.5498L42.9844 50.875C42.7449 51.3946 42.5023 51.9118 42.2567 52.4189L45.8566 54.1627ZM48.1248 54.53L45.4707 51.8764L42.6425 54.7052L45.2967 57.3587L48.1248 54.53ZM47.4521 53.3888C46.9298 53.6295 46.3859 53.8813 45.844 54.142L47.5775 57.7468C48.0876 57.5015 48.6059 57.2614 49.1263 57.0216L47.4521 53.3888ZM50.2892 52.0813L47.4521 53.3888L49.1263 57.0216L51.9634 55.7141L50.2892 52.0813ZM54.4974 58.4454C54.4974 58.002 54.7464 57.5845 55.1646 57.3768L56.9442 60.9591C57.897 60.4858 58.4974 59.5088 58.4974 58.4454H54.4974ZM56.3469 48.9554L55.4221 49.5451L57.5726 52.9178L58.4974 52.3282L56.3469 48.9554ZM61.9989 39.959C61.9989 42.1237 61.444 43.7775 60.5215 45.1551C59.5775 46.5646 58.1798 47.7868 56.3469 48.9554L58.4974 52.3282C60.5918 50.9928 62.4824 49.4156 63.845 47.3808C65.229 45.3141 65.9989 42.8786 65.9989 39.959H61.9989ZM61.9989 39.9472L61.9989 39.9552L65.9989 39.9628L65.9989 39.9549L61.9989 39.9472ZM50.2701 62.0624C50.6636 61.867 51.1263 62.1477 51.1263 62.5938H47.1263C47.1263 65.1259 49.7925 66.766 52.0497 65.6448L50.2701 62.0624ZM56.0493 59.1705L50.2649 62.065L52.0549 65.6422L57.8393 62.7476L56.0493 59.1705ZM56.4974 58.4454C56.4974 58.7554 56.3217 59.0351 56.0544 59.168L57.8342 62.7502C59.4774 61.9338 60.4974 60.2565 60.4974 58.4454H56.4974ZM56.4974 52.3282V58.4454H60.4974V52.3282H56.4974ZM63.9989 39.959C63.9989 45.0433 61.3494 48.1377 57.4221 50.6418L59.5726 54.0146C64.1549 51.0928 67.9989 46.9099 67.9989 39.959H63.9989ZM63.6448 35.5383C64.0006 37.1983 64.0047 38.4888 63.9989 39.9511L67.9989 39.9669C68.0048 38.4761 68.0089 36.8135 67.556 34.7L63.6448 35.5383ZM64.4686 36.3604C64.0545 36.2722 63.7327 35.9507 63.6443 35.5361L67.5564 34.7022C67.3157 33.5728 66.4313 32.6888 65.3022 32.4482L64.4686 36.3604ZM60.0504 36C61.5139 36 62.8046 36.0039 64.4664 36.3599L65.3044 32.4487C63.192 31.9961 61.529 32 60.0504 32V36ZM49.3556 42.5718C51.8511 38.6403 54.9329 36 60.0504 36V32C53.0717 32 48.8981 35.8284 45.9784 40.4282L49.3556 42.5718ZM41.5603 43.5H47.667V39.5H41.5603V43.5ZM40.8349 43.9473C40.9711 43.6748 41.252 43.5 41.5603 43.5V39.5C39.7353 39.5 38.0704 40.5323 37.2573 42.1582L40.8349 43.9473ZM37.9397 49.7364L40.8349 43.9473L37.2573 42.1582L34.3622 47.9473L37.9397 49.7364ZM37.411 48.8751C37.8414 48.8751 38.1392 49.3376 37.9397 49.7364L34.3622 47.9473C33.225 50.2211 34.8824 52.8751 37.411 52.8751V48.8751ZM43.8261 53.7619C44.1588 53.0893 44.4841 52.399 44.8007 51.7124L41.1681 50.0377C40.8603 50.7055 40.5516 51.36 40.2408 51.9882L43.8261 53.7619ZM43.7183 53.9786C43.7543 53.9066 43.7902 53.8343 43.8261 53.7619L40.2408 51.9882C40.2075 52.0556 40.1741 52.1227 40.1407 52.1895L43.7183 53.9786ZM43.5194 52.7537C43.8413 53.0755 43.9216 53.5721 43.7183 53.9786L40.1407 52.1895C39.574 53.3226 39.795 54.6863 40.6912 55.5824L43.5194 52.7537ZM47.2467 56.4802L43.5194 52.7537L40.6912 55.5824L44.4186 59.309L47.2467 56.4802ZM46.0226 56.2815C46.4287 56.0784 46.9249 56.1585 47.2467 56.4803L44.4186 59.309C45.3147 60.205 46.6783 60.4256 47.8111 59.8593L46.0226 56.2815ZM46.2418 56.1726C46.1686 56.2087 46.0955 56.245 46.0226 56.2815L47.8111 59.8593C47.8773 59.8263 47.9438 59.7932 48.0108 59.7602L46.2418 56.1726ZM48.2892 55.2052C47.6116 55.5174 46.9181 55.8392 46.2418 56.1726L48.0108 59.7602C48.6353 59.4523 49.2865 59.1499 49.9634 58.838L48.2892 55.2052ZM59 46C61.7612 46 64 43.7612 64 41H60C60 41.5521 59.5521 42 59 42V46ZM54 41C54 43.7612 56.2388 46 59 46V42C58.4479 42 58 41.5521 58 41H54ZM59 36C56.2388 36 54 38.2388 54 41H58C58 40.4479 58.4479 40 59 40V36ZM64 41C64 38.2388 61.7612 36 59 36V40C59.5521 40 60 40.4479 60 41H64ZM60 41C60 41.0331 59.9983 41.0663 59.9949 41.0996L56.0154 40.6958C56.0052 40.7964 56 40.8979 56 41H60ZM59.9932 40.8845C59.9978 40.9232 60 40.9618 60 41H56C56 41.1183 56.0069 41.2358 56.0206 41.352L59.9932 40.8845ZM59.0997 40.0051C59.5686 40.0526 59.9383 40.4179 59.9932 40.8845L56.0206 41.352C56.1846 42.745 57.296 43.8426 58.6958 43.9846L59.0997 40.0051ZM59 40C59.033 40 59.0663 40.0017 59.0997 40.0051L58.6958 43.9846C58.7964 43.9948 58.8979 44 59 44V40ZM58.8845 40.0068C58.9232 40.0022 58.9617 40 59 40V44C59.1182 44 59.2357 43.9931 59.3519 43.9794L58.8845 40.0068ZM58.0051 40.9003C58.0526 40.4314 58.418 40.0617 58.8845 40.0068L59.3519 43.9794C60.745 43.8155 61.8426 42.7041 61.9846 41.3042L58.0051 40.9003ZM58 41C58 40.9669 58.0017 40.9337 58.0051 40.9004L61.9846 41.3042C61.9948 41.2036 62 41.1021 62 41H58ZM58.0066 41.1141C58.0022 41.0759 58 41.0378 58 41H62C62 40.8831 61.9932 40.7671 61.9799 40.6523L58.0066 41.1141ZM58.9003 41.9949C58.431 41.9473 58.0609 41.5813 58.0066 41.1141L61.9799 40.6523C61.8177 39.2572 60.7054 38.1576 59.3042 38.0154L58.9003 41.9949ZM59 42C58.967 42 58.9337 41.9983 58.9003 41.9949L59.3042 38.0154C59.2036 38.0052 59.1021 38 59 38V42ZM59.1141 41.9934C59.0759 41.9978 59.0378 42 59 42V38C58.8832 38 58.7671 38.0068 58.6523 38.0201L59.1141 41.9934ZM59.9949 41.0997C59.9473 41.569 59.5813 41.9391 59.1141 41.9934L58.6523 38.0201C57.2572 38.1822 56.1576 39.2946 56.0154 40.6958L59.9949 41.0997ZM41.5603 45.5H48.7664V41.5H41.5603V45.5ZM46.1088 46.8751H38.3705V50.8751H46.1088V46.8751ZM53.1263 61.634V53.8977H49.1263V61.634H53.1263ZM55.1594 57.3794L50.2313 59.8454L52.0213 63.4226L56.9494 60.9565L55.1594 57.3794ZM54.4974 51.2314V58.4454H58.4974V51.2314H54.4974ZM51.1263 62.5938V57.0216H47.1263V62.5938H51.1263ZM42.9844 48.8751H37.411V52.8751H42.9844V48.8751Z" fill="#1890FF" mask="url(#path-2-inside-1)"/>
<defs>
<filter id="filter0_dd" x="0" y="0" width="104" height="104" filterUnits="userSpaceOnUse" color-interpolation-filters="sRGB">
<feFlood flood-opacity="0" result="BackgroundImageFix"/>
<feColorMatrix in="SourceAlpha" type="matrix" values="0 0 0 0 0 0 0 0 0 0 0 0 0 0 0 0 0 0 127 0"/>
<feOffset dy="1"/>
<feGaussianBlur stdDeviation="1"/>
<feColorMatrix type="matrix" values="0 0 0 0 0 0 0 0 0 0 0 0 0 0 0 0 0 0 0.12 0"/>
<feBlend mode="normal" in2="BackgroundImageFix" result="effect1_dropShadow"/>
<feColorMatrix in="SourceAlpha" type="matrix" values="0 0 0 0 0 0 0 0 0 0 0 0 0 0 0 0 0 0 127 0"/>
<feOffset dy="4"/>
<feGaussianBlur stdDeviation="10"/>
<feColorMatrix type="matrix" values="0 0 0 0 0 0 0 0 0 0 0 0 0 0 0 0 0 0 0.12 0"/>
<feBlend mode="normal" in2="effect1_dropShadow" result="effect2_dropShadow"/>
<feBlend mode="normal" in="SourceGraphic" in2="effect2_dropShadow" result="shape"/>
</filter>
</defs>
</svg>
