<svg width="104" height="104" viewBox="0 0 104 104" fill="none" xmlns="http://www.w3.org/2000/svg">
<g filter="url(#filter0_dd)">
<circle cx="52" cy="48" r="32" fill="white"/>
</g>
<path d="M65.5711 39.5278C65.5562 39.5078 65.5342 39.4973 65.5183 39.4784C63.9203 36.9536 61.6401 34.9118 58.9339 33.603C58.9179 33.5915 58.9078 33.5739 58.8915 33.5634C58.8387 33.5312 58.7798 33.5204 58.7236 33.5014C56.676 32.5482 54.4035 32 52 32C49.5951 32 47.321 32.5489 45.2724 33.5038C45.2178 33.5221 45.1609 33.5326 45.1088 33.5641C45.0922 33.5739 45.0831 33.5915 45.0675 33.603C42.3602 34.9118 40.0793 36.9543 38.4821 39.4801C38.4655 39.4983 38.4441 39.5082 38.4299 39.5281C38.3961 39.5752 38.3822 39.629 38.3598 39.6802C36.873 42.1081 36 44.9511 36 48C36 51.0472 36.8719 53.8879 38.3561 56.3141C38.3791 56.3679 38.393 56.4231 38.4289 56.4722C38.4438 56.4929 38.4658 56.5027 38.4824 56.5216C40.0807 59.0464 42.3606 61.0882 45.0672 62.398C45.0827 62.4085 45.0919 62.4261 45.1085 62.4359C45.1613 62.4691 45.2182 62.4789 45.2744 62.4972C47.3227 63.4511 49.5958 64 52 64C54.3808 64 56.6336 63.4626 58.6667 62.526C58.7436 62.5074 58.8194 62.4803 58.8915 62.4356C58.9081 62.4258 58.9173 62.4082 58.9328 62.397C61.6411 61.0876 63.9217 59.0447 65.52 56.5183C65.5349 56.5 65.5579 56.4935 65.5711 56.4736C65.609 56.4217 65.6256 56.3628 65.6486 56.3049C67.1301 53.8801 67.9997 51.0428 67.9997 48C67.9997 44.9528 67.1277 42.1121 65.6429 39.6849C65.6209 39.6321 65.606 39.5759 65.5711 39.5278ZM63.8872 39.7611C62.914 40.3879 61.8179 40.9368 60.6026 41.378C59.8529 39.4652 58.7822 37.8066 57.4561 36.57C57.9258 36.165 58.3521 35.7051 58.7293 35.1945C60.7936 36.2832 62.5618 37.8547 63.8872 39.7611ZM60.2619 47.2378H52.7622V44.2932C55.1938 44.2319 57.5296 43.8899 59.6453 43.282C59.9998 44.5227 60.2027 45.8589 60.2619 47.2378ZM59.6446 52.7183C57.5306 52.1105 55.1935 51.7681 52.7622 51.7072V48.7626H60.2619C60.2027 50.1394 60.0008 51.4762 59.6446 52.7183ZM56.1772 58.5097C55.1441 57.9154 53.9833 57.5551 52.7622 57.4447V53.2296C55.0266 53.2902 57.1951 53.6034 59.1526 54.1578C58.4449 55.9304 57.4257 57.4295 56.1772 58.5097ZM47.8235 58.5107C46.5743 57.4295 45.5551 55.9314 44.8474 54.1581C46.8043 53.6034 48.9738 53.2895 51.2378 53.2299V57.445C50.0167 57.5551 48.857 57.9154 47.8235 58.5107ZM43.7381 48.7622H51.2378V51.7068C48.8062 51.7681 46.4704 52.1101 44.3547 52.718C43.9992 51.4762 43.7973 50.1394 43.7381 48.7622ZM44.3547 43.281C46.4694 43.8895 48.8062 44.2319 51.2378 44.2928V47.2374H43.7381C43.7973 45.8606 43.9992 44.5238 44.3547 43.281ZM47.8218 37.4893C48.8553 38.0836 50.0157 38.4449 51.2378 38.555V42.7704C48.9734 42.7101 46.8043 42.3966 44.8467 41.8419C45.5551 40.0696 46.5737 38.5705 47.8218 37.4893ZM56.1758 37.491C57.4257 38.5722 58.4449 40.0686 59.1526 41.8419C57.1951 42.3966 55.0255 42.7108 52.7622 42.7704V38.555C53.9823 38.4459 55.143 38.0846 56.1758 37.491ZM52 33.5245C53.88 33.5245 55.6706 33.8949 57.32 34.5494C56.0262 36.1484 54.095 37.0793 52 37.0793C49.906 37.0793 47.9755 36.1484 46.681 34.5494C48.3294 33.8949 50.121 33.5245 52 33.5245ZM45.2713 35.1935C45.6475 35.7035 46.0735 36.1623 46.5422 36.5676C45.2178 37.8036 44.1492 39.4668 43.3991 41.379C42.1821 40.9368 41.086 40.3886 40.1128 39.7611C41.4382 37.8547 43.2071 36.2832 45.2713 35.1935ZM39.3069 41.0523C40.3773 41.7383 41.5787 42.3387 42.9064 42.8198C42.5025 44.2112 42.2583 45.7018 42.197 47.2378H37.5624C37.6799 45.0073 38.2884 42.9052 39.3069 41.0523ZM42.197 48.7622C42.2583 50.2975 42.5021 51.7881 42.9064 53.1802C41.5787 53.6607 40.3773 54.2604 39.3059 54.9477C38.2884 53.0942 37.6799 50.9927 37.5627 48.7622H42.197ZM40.1122 56.2389C41.086 55.6108 42.1828 55.0625 43.3991 54.6203C44.1498 56.5332 45.2185 58.1958 46.5432 59.4317C46.0742 59.8367 45.6475 60.2955 45.2713 60.8068C43.2065 59.7168 41.4382 58.1453 40.1122 56.2389ZM52 62.4755C50.121 62.4755 48.3294 62.1051 46.681 61.4506C47.9755 59.8523 49.906 58.9207 52 58.9207C54.095 58.9207 56.0251 59.8516 57.3207 61.4506C55.6706 62.1051 53.88 62.4755 52 62.4755ZM58.7293 60.8055C58.3525 60.2945 57.9265 59.8367 57.4578 59.4314C58.7815 58.1947 59.8502 56.5328 60.6009 54.6206C61.8172 55.0632 62.913 55.6121 63.8872 56.2396C62.5618 58.1453 60.7929 59.7168 58.7293 60.8055ZM64.6931 54.9484C63.6227 54.2617 62.4213 53.6613 61.0936 53.1802C61.4975 51.7891 61.7417 50.2982 61.803 48.7622H66.4376C66.3201 50.9927 65.7116 53.0952 64.6931 54.9484ZM61.803 47.2378C61.7417 45.7001 61.4989 44.2105 61.0942 42.8192C62.423 42.339 63.6234 41.7396 64.6941 41.0526C65.7116 42.9062 66.3201 45.0076 66.4373 47.2381H61.803V47.2378Z" fill="#1890FF"/>
<defs>
<filter id="filter0_dd" x="0" y="0" width="104" height="104" filterUnits="userSpaceOnUse" color-interpolation-filters="sRGB">
<feFlood flood-opacity="0" result="BackgroundImageFix"/>
<feColorMatrix in="SourceAlpha" type="matrix" values="0 0 0 0 0 0 0 0 0 0 0 0 0 0 0 0 0 0 127 0"/>
<feOffset dy="1"/>
<feGaussianBlur stdDeviation="1"/>
<feColorMatrix type="matrix" values="0 0 0 0 0 0 0 0 0 0 0 0 0 0 0 0 0 0 0.12 0"/>
<feBlend mode="normal" in2="BackgroundImageFix" result="effect1_dropShadow"/>
<feColorMatrix in="SourceAlpha" type="matrix" values="0 0 0 0 0 0 0 0 0 0 0 0 0 0 0 0 0 0 127 0"/>
<feOffset dy="4"/>
<feGaussianBlur stdDeviation="10"/>
<feColorMatrix type="matrix" values="0 0 0 0 0 0 0 0 0 0 0 0 0 0 0 0 0 0 0.12 0"/>
<feBlend mode="normal" in2="effect1_dropShadow" result="effect2_dropShadow"/>
<feBlend mode="normal" in="SourceGraphic" in2="effect2_dropShadow" result="shape"/>
</filter>
</defs>
</svg>
