<svg width="104" height="104" viewBox="0 0 104 104" fill="none" xmlns="http://www.w3.org/2000/svg">
<g filter="url(#filter0_dd)">
<circle cx="52" cy="48" r="32" fill="white"/>
</g>
<path d="M63.1152 41.8447C63.0669 41.7696 63.0005 41.7078 62.9222 41.6651C62.8438 41.6223 62.7559 41.5999 62.6667 41.5999H57.0333V38.5333C57.0333 38.3919 56.9771 38.2562 56.8771 38.1562C56.7771 38.0562 56.6414 38 56.5 38H36.5333C36.3919 38 36.2562 38.0562 36.1562 38.1562C36.0562 38.2562 36 38.3919 36 38.5333V55.4666C36 55.608 36.0562 55.7437 36.1562 55.8437C36.2562 55.9437 36.3919 55.9999 36.5333 55.9999H40.3147C40.44 56.7452 40.8254 57.422 41.4025 57.9101C41.9795 58.3982 42.7109 58.666 43.4667 58.666C44.2225 58.666 44.9538 58.3982 45.5309 57.9101C46.1079 57.422 46.4933 56.7452 46.6187 55.9999H58.448C58.5734 56.7452 58.9588 57.422 59.5358 57.9101C60.1129 58.3982 60.8442 58.666 61.6 58.666C62.3558 58.666 63.0871 58.3982 63.6642 57.9101C64.2412 57.422 64.6266 56.7452 64.752 55.9999H67.4667C67.6081 55.9999 67.7438 55.9437 67.8438 55.8437C67.9438 55.7437 68 55.608 68 55.4666V49.5999C68 49.4976 67.9706 49.3974 67.9152 49.3114L63.1152 41.8447ZM63.7333 44.7786L66.1467 48.5332H59.4667V44.7999H63.7333V44.7786ZM43.4667 57.5999C43.0447 57.5999 42.6323 57.4748 42.2815 57.2404C41.9306 57.0059 41.6572 56.6728 41.4957 56.2829C41.3343 55.8931 41.292 55.4642 41.3743 55.0504C41.4566 54.6365 41.6598 54.2564 41.9582 53.9581C42.2565 53.6597 42.6366 53.4565 43.0505 53.3742C43.4643 53.2919 43.8932 53.3341 44.2831 53.4956C44.6729 53.6571 45.0061 53.9305 45.2405 54.2813C45.4749 54.6322 45.6 55.0446 45.6 55.4666C45.6 56.0324 45.3752 56.575 44.9752 56.9751C44.5751 57.3751 44.0325 57.5999 43.4667 57.5999ZM43.4667 52.2666C42.7112 52.268 41.9805 52.5364 41.4037 53.0243C41.093 53.2872 40.8377 53.6047 40.6486 53.9581C40 54 39.4611 53.9769 38 54V40H55V52.7999V54C53 54 47.5 54 46.3068 54C46.1156 53.6298 45.8526 53.2975 45.5296 53.0243C44.9528 52.5364 44.2222 52.268 43.4667 52.2666ZM61.6 57.5999C61.1781 57.5999 60.7656 57.4748 60.4148 57.2404C60.064 57.0059 59.7905 56.6728 59.6291 56.2829C59.4676 55.8931 59.4253 55.4642 59.5077 55.0504C59.59 54.6365 59.7932 54.2564 60.0915 53.9581C60.3899 53.6597 60.77 53.4565 61.1838 53.3742C61.5976 53.2919 62.0266 53.3341 62.4164 53.4956C62.8062 53.6571 63.1394 53.9305 63.3738 54.2813C63.6082 54.6322 63.7333 55.0446 63.7333 55.4666C63.7333 56.0324 63.5086 56.575 63.1085 56.9751C62.7084 57.3751 62.1658 57.5999 61.6 57.5999ZM64.752 54.9332C64.6266 54.1879 64.2412 53.5111 63.6642 53.023C63.0871 52.5349 62.3558 52.2671 61.6 52.2671C60.8442 52.2671 60.1129 52.5349 59.5358 53.023C58.9588 53.5111 58.5734 54.1879 58.448 54.9332H57.3333V42.6666H62.3755L63.0613 43.7332H58.9333C58.7919 43.7332 58.6562 43.7894 58.5562 43.8894C58.4562 43.9895 58.4 44.1251 58.4 44.2666V49.0666C58.4 49.208 58.4562 49.3437 58.5562 49.4437C58.6562 49.5437 58.7919 49.5999 58.9333 49.5999H66.8325L66.9333 49.7567V52.7999H65.3333V53.8666H66.9333V54.9332H64.752Z" fill="#1890FF"/>
<defs>
<filter id="filter0_dd" x="0" y="0" width="104" height="104" filterUnits="userSpaceOnUse" color-interpolation-filters="sRGB">
<feFlood flood-opacity="0" result="BackgroundImageFix"/>
<feColorMatrix in="SourceAlpha" type="matrix" values="0 0 0 0 0 0 0 0 0 0 0 0 0 0 0 0 0 0 127 0"/>
<feOffset dy="1"/>
<feGaussianBlur stdDeviation="1"/>
<feColorMatrix type="matrix" values="0 0 0 0 0 0 0 0 0 0 0 0 0 0 0 0 0 0 0.12 0"/>
<feBlend mode="normal" in2="BackgroundImageFix" result="effect1_dropShadow"/>
<feColorMatrix in="SourceAlpha" type="matrix" values="0 0 0 0 0 0 0 0 0 0 0 0 0 0 0 0 0 0 127 0"/>
<feOffset dy="4"/>
<feGaussianBlur stdDeviation="10"/>
<feColorMatrix type="matrix" values="0 0 0 0 0 0 0 0 0 0 0 0 0 0 0 0 0 0 0.12 0"/>
<feBlend mode="normal" in2="effect1_dropShadow" result="effect2_dropShadow"/>
<feBlend mode="normal" in="SourceGraphic" in2="effect2_dropShadow" result="shape"/>
</filter>
</defs>
</svg>
