<svg width="104" height="104" viewBox="0 0 104 104" fill="none" xmlns="http://www.w3.org/2000/svg">
<g filter="url(#filter0_dd)">
<circle cx="52" cy="48" r="32" fill="white"/>
</g>
<path d="M57.419 44.2725L50.364 51.3213L46.6183 47.6152C46.2546 47.2519 45.6364 47.2519 45.2727 47.6152C44.9091 47.9786 44.9091 48.5962 45.2727 48.9596L49.673 53.356C49.8549 53.5376 50.1094 53.6466 50.3276 53.6466C50.5458 53.6466 50.8004 53.5376 50.9822 53.356L58.7282 45.6169C59.0918 45.2535 59.0918 44.6358 58.7282 44.2725C58.4009 43.9092 57.7827 43.9092 57.419 44.2725Z" fill="#1890FF"/>
<path fill-rule="evenodd" clip-rule="evenodd" d="M65.3677 63.8318L59.9118 61.3417C57.4533 62.8223 54.6579 63.5962 51.7953 63.5962C43.0725 63.5962 36 56.53 36 47.8149C36 39.0999 43.0725 32 51.7953 32C60.518 32 67.5905 39.0999 67.5905 47.7813C67.5905 50.6414 66.8159 53.4343 65.334 55.8906L67.8263 61.3754C68.163 62.082 67.9946 62.8896 67.4558 63.4616C67.0853 63.7981 66.6138 64 66.1423 64C65.8729 64 65.6035 63.9327 65.3677 63.8318ZM63.8299 59.8322L59.7188 57.956L58.3641 58.7718C56.3739 59.9703 54.1138 60.5962 51.7953 60.5962C44.7269 60.5962 39 54.8706 39 47.8149C39 40.7509 44.7352 35 51.7953 35C58.8595 35 64.5905 40.7551 64.5905 47.7813C64.5905 50.0962 63.9645 52.3531 62.7653 54.341L61.9493 55.6936L63.8299 59.8322Z" fill="#1890FF"/>
<defs>
<filter id="filter0_dd" x="0" y="0" width="104" height="104" filterUnits="userSpaceOnUse" color-interpolation-filters="sRGB">
<feFlood flood-opacity="0" result="BackgroundImageFix"/>
<feColorMatrix in="SourceAlpha" type="matrix" values="0 0 0 0 0 0 0 0 0 0 0 0 0 0 0 0 0 0 127 0"/>
<feOffset dy="1"/>
<feGaussianBlur stdDeviation="1"/>
<feColorMatrix type="matrix" values="0 0 0 0 0 0 0 0 0 0 0 0 0 0 0 0 0 0 0.12 0"/>
<feBlend mode="normal" in2="BackgroundImageFix" result="effect1_dropShadow"/>
<feColorMatrix in="SourceAlpha" type="matrix" values="0 0 0 0 0 0 0 0 0 0 0 0 0 0 0 0 0 0 127 0"/>
<feOffset dy="4"/>
<feGaussianBlur stdDeviation="10"/>
<feColorMatrix type="matrix" values="0 0 0 0 0 0 0 0 0 0 0 0 0 0 0 0 0 0 0.12 0"/>
<feBlend mode="normal" in2="effect1_dropShadow" result="effect2_dropShadow"/>
<feBlend mode="normal" in="SourceGraphic" in2="effect2_dropShadow" result="shape"/>
</filter>
</defs>
</svg>
