<svg width="104" height="104" viewBox="0 0 104 104" fill="none" xmlns="http://www.w3.org/2000/svg">
<g filter="url(#filter0_dd)">
<circle cx="52" cy="48" r="32" fill="white"/>
</g>
<path d="M65.842 45.3847C65.475 43.4414 64.7144 41.6369 63.637 40.0617C64.3355 39.0249 64.2299 37.6037 63.3139 36.6871C62.4288 35.8016 60.9677 35.6956 59.942 36.3657C58.3661 35.2866 56.5599 34.5244 54.6149 34.1576C54.3769 32.9308 53.296 32 51.9998 32C50.7036 32 49.6228 32.9308 49.3847 34.1576C47.4397 34.5247 45.6342 35.2859 44.0587 36.3651C43.0327 35.6953 41.5702 35.803 40.6868 36.6874C39.7698 37.6034 39.6638 39.0252 40.3634 40.0621C39.2852 41.6369 38.5247 43.4414 38.1576 45.3851C36.9308 45.6228 36 46.7036 36 47.9998C36 49.296 36.9308 50.3769 38.1576 50.6149C38.5247 52.5593 39.2852 54.3637 40.3634 55.9396C39.6641 56.9765 39.7708 58.3983 40.6874 59.3143C41.1906 59.8185 41.8607 60.0948 42.5722 60.0948C43.1119 60.0948 43.6263 59.9343 44.0634 59.6383C45.638 60.7155 47.4424 61.4753 49.3847 61.8424C49.6228 63.0692 50.7036 64 51.9998 64C53.296 64 54.3769 63.0692 54.6149 61.8424C56.5582 61.4753 58.362 60.7155 59.9363 59.6383C60.3734 59.9343 60.8884 60.0948 61.4275 60.0948C62.14 60.0948 62.8097 59.8188 63.3139 59.3143C64.2299 58.3983 64.3359 56.9755 63.6363 55.939C64.7144 54.3641 65.475 52.5586 65.842 50.6149C67.0688 50.3769 67.9997 49.296 67.9997 47.9998C67.9997 46.7036 67.0688 45.6228 65.842 45.3847ZM66.0503 48.8677C65.8525 49.0312 65.6087 49.1423 65.3327 49.1423C65.0202 49.1423 64.7368 49.015 64.5299 48.8108C64.321 48.6036 64.1903 48.3175 64.1903 47.9998C64.1903 47.6822 64.321 47.3964 64.5299 47.1889C64.7368 46.9843 65.0202 46.8573 65.3327 46.8573C65.6087 46.8573 65.8525 46.9681 66.0503 47.132C66.3042 47.3412 66.4752 47.6463 66.4752 47.9998C66.4752 48.3533 66.3042 48.6584 66.0503 48.8677ZM64.3247 45.5774C63.5862 45.8794 63.0231 46.3068 62.7898 47.3226H56.502C56.3852 46.3068 56.1136 45.9475 55.7215 45.3966L60.1675 40.9309C60.5519 41.1392 60.9792 41.2492 61.4282 41.2492C61.7875 41.2492 62.1352 41.1944 62.4559 41.0603C63.3525 42.4015 63.9986 43.9405 64.3247 45.5774ZM51.9998 62.4752C51.646 62.4752 51.3412 62.3042 51.132 62.0503C50.9684 61.8525 50.8573 61.6087 50.8573 61.3327C50.8573 61.0202 50.9847 60.7368 51.1889 60.5299C51.3961 60.321 51.6822 60.1903 51.9998 60.1903C52.3175 60.1903 52.6032 60.321 52.8108 60.5299C53.0153 60.7368 53.1423 61.0202 53.1423 61.3327C53.1423 61.6087 53.0316 61.8525 52.8677 62.0503C52.6584 62.3042 52.3537 62.4752 51.9998 62.4752ZM51.9998 33.5244C52.3537 33.5244 52.6584 33.6954 52.8677 33.9494C53.0312 34.1471 53.1423 34.391 53.1423 34.6669C53.1423 34.9795 53.015 35.2629 52.8108 35.4698C52.6036 35.6787 52.3175 35.8094 51.9998 35.8094C51.6822 35.8094 51.3964 35.6787 51.1889 35.4698C50.9843 35.2629 50.8573 34.9795 50.8573 34.6669C50.8573 34.391 50.9681 34.1471 51.132 33.9494C51.3412 33.6954 51.646 33.5244 51.9998 33.5244ZM55.047 47.9998C55.047 48.2643 55.0023 48.5172 54.9397 48.7621C54.8669 49.038 54.7578 49.2977 54.6156 49.5375C54.3529 49.9831 53.9841 50.3525 53.5392 50.6156C53.2977 50.7578 53.0384 50.8669 52.7621 50.9397C52.5162 51.0027 52.2643 51.047 51.9998 51.047C51.7354 51.047 51.4834 51.0023 51.2376 50.9397C50.9616 50.8669 50.7019 50.7578 50.4615 50.6156C50.0159 50.3529 49.6471 49.9841 49.384 49.5382C49.2418 49.2977 49.1328 49.038 49.06 48.7621C48.997 48.5172 48.9526 48.2643 48.9526 47.9998C48.9526 47.7354 48.9973 47.4834 49.06 47.2386C49.1328 46.9616 49.2418 46.7019 49.384 46.4605C49.6468 46.0159 50.0162 45.6471 50.4622 45.384C50.7019 45.2418 50.9616 45.1328 51.2376 45.06C51.4834 44.997 51.7354 44.9526 51.9998 44.9526C52.2643 44.9526 52.5162 44.9973 52.7621 45.06C53.038 45.1328 53.2977 45.2418 53.5382 45.384C53.9838 45.6468 54.3525 46.0156 54.6156 46.4615C54.7578 46.7019 54.8669 46.9616 54.9397 47.2386C55.0023 47.4834 55.047 47.7354 55.047 47.9998ZM61.3168 37.452C61.3554 37.448 61.3896 37.43 61.4292 37.43C61.7333 37.43 62.0211 37.5492 62.2361 37.7649C62.4884 38.0168 62.5818 38.3548 62.5487 38.6849C62.5239 38.9379 62.4301 39.1874 62.2361 39.3811C62.0177 39.5995 61.7187 39.7052 61.4194 39.7035C61.1268 39.7018 60.8339 39.5951 60.6209 39.3811C60.3978 39.158 60.2864 38.8644 60.2871 38.5708C60.2871 38.2789 60.3978 37.987 60.6209 37.7656C60.8085 37.577 61.0554 37.4784 61.3168 37.452ZM59.0911 39.8304L54.6021 44.2781C54.0522 43.8864 53.6929 43.6144 52.6771 43.4976V37.2092C53.6929 36.9766 54.1202 36.4135 54.4223 35.675C56.0612 36.0024 57.6069 36.6478 58.9495 37.5455C58.6421 38.2813 58.7108 39.1217 59.0911 39.8304ZM49.4081 35.675C49.7101 36.4135 50.3068 36.9766 50.984 37.2092V43.4976C50.3068 43.6144 49.7789 43.886 49.2293 44.2781L44.8446 39.8304C45.2265 39.1217 45.2418 38.2813 44.9343 37.5455C46.2769 36.6478 47.7692 36.0021 49.4081 35.675ZM41.7639 37.7646C41.9806 37.5485 42.2664 37.4297 42.5725 37.4297C42.6114 37.4297 42.6453 37.448 42.6832 37.451C42.9443 37.4774 43.1915 37.576 43.3801 37.7646C43.6026 37.9867 43.7133 38.3561 43.714 38.648C43.7146 38.9409 43.6039 39.1959 43.3818 39.5345H43.3808C43.3797 39.5345 43.3791 39.4583 43.3791 39.4593C43.1657 39.6716 42.8732 39.7387 42.5806 39.7414C42.2813 39.7434 41.9819 39.6185 41.7639 39.4001C41.5705 39.2067 41.4761 38.947 41.4513 38.6924C41.4188 38.3636 41.5123 38.0161 41.7639 37.7646ZM41.5438 41.0342C41.8651 41.1683 42.2136 41.2391 42.5722 41.2391C43.0218 41.2391 43.4485 41.1168 43.8328 40.9093L48.2781 45.3966C47.8864 45.9475 47.6144 46.3068 47.4976 47.3226H41.2099C40.9769 46.3068 40.4135 45.8794 39.675 45.5774C40.0011 43.9405 40.6471 42.3751 41.5438 41.0342ZM37.5244 47.9998C37.5244 47.646 37.6954 47.3412 37.9494 47.132C38.1471 46.9684 38.391 46.8573 38.6669 46.8573C38.9795 46.8573 39.2629 46.9847 39.4698 47.1889C39.6787 47.3961 39.8094 47.6822 39.8094 47.9998C39.8094 48.3175 39.6787 48.6032 39.4698 48.8108C39.2629 49.0153 38.9795 49.1423 38.6669 49.1423C38.391 49.1423 38.1471 49.0316 37.9494 48.8677C37.6954 48.6584 37.5244 48.3537 37.5244 47.9998ZM39.675 50.5916C40.4135 50.2895 40.9766 49.6929 41.2092 49.0157H47.4976C47.6151 49.6929 47.886 50.2215 48.2781 50.7714L43.8247 55.1615C43.1251 54.8026 42.2809 54.7877 41.5519 55.0752C40.6509 53.7312 40.0028 52.2345 39.675 50.5916ZM42.6764 58.5419C42.3456 58.57 42.0067 58.4789 41.7649 58.2371C41.5126 57.9849 41.4198 57.6459 41.452 57.3168C41.4778 57.0638 41.5705 56.9033 41.7649 56.71C41.9803 56.495 42.2664 56.4652 42.5705 56.4652C42.5715 56.4652 42.5722 56.4652 42.5728 56.4652C42.8779 56.4652 43.1657 56.4943 43.3808 56.7107C43.6039 56.9342 43.7146 57.1813 43.7146 57.4756C43.7146 57.7665 43.6032 58.0367 43.3808 58.2585C43.1911 58.4491 42.9358 58.5185 42.6764 58.5419ZM44.9086 56.1682L49.2286 51.7215C49.7782 52.1133 50.3068 52.3852 50.984 52.502V58.7904C50.3068 59.0231 49.7101 59.5862 49.4081 60.3247C47.7692 59.9983 46.3098 59.3519 44.9689 58.4542C45.2746 57.7184 45.2905 56.8779 44.9086 56.1682ZM54.4223 60.3247C54.1202 59.5862 53.6929 59.0231 52.6771 58.7904V52.502C53.6929 52.3845 54.0522 52.1136 54.6031 51.7215L59.0704 56.1675C58.8622 56.5519 58.7504 56.9792 58.7504 57.4282C58.7504 57.7875 58.8053 58.1352 58.9404 58.4559C57.5981 59.3525 56.0591 59.9986 54.4223 60.3247ZM62.2358 58.2358C61.9943 58.4772 61.6547 58.5686 61.3249 58.5399C61.0642 58.5178 60.9 58.4257 60.7093 58.2358C60.4943 58.0211 60.4652 57.735 60.4652 57.4302C60.4652 57.4292 60.4652 57.4292 60.4652 57.4282C60.4652 57.1234 60.4943 56.9267 60.7093 56.7107C60.9253 56.4943 61.1224 56.4652 61.4275 56.4652C61.4282 56.4652 61.4292 56.4652 61.4292 56.4652C61.7333 56.4652 62.0201 56.4943 62.2361 56.7107C62.4295 56.9044 62.5229 57.1085 62.5487 57.3615C62.5808 57.6903 62.4874 57.9845 62.2358 58.2358ZM62.4474 54.9797C61.7184 54.6919 60.8742 54.7389 60.1757 55.0978L55.7215 50.7704C56.1133 50.2208 56.3845 49.6929 56.502 49.0157H62.7904C63.0231 49.6929 63.5862 50.2895 64.3247 50.5916C63.9969 52.2345 63.3488 53.6347 62.4474 54.9797Z" fill="#1890FF"/>
<defs>
<filter id="filter0_dd" x="0" y="0" width="104" height="104" filterUnits="userSpaceOnUse" color-interpolation-filters="sRGB">
<feFlood flood-opacity="0" result="BackgroundImageFix"/>
<feColorMatrix in="SourceAlpha" type="matrix" values="0 0 0 0 0 0 0 0 0 0 0 0 0 0 0 0 0 0 127 0"/>
<feOffset dy="1"/>
<feGaussianBlur stdDeviation="1"/>
<feColorMatrix type="matrix" values="0 0 0 0 0 0 0 0 0 0 0 0 0 0 0 0 0 0 0.12 0"/>
<feBlend mode="normal" in2="BackgroundImageFix" result="effect1_dropShadow"/>
<feColorMatrix in="SourceAlpha" type="matrix" values="0 0 0 0 0 0 0 0 0 0 0 0 0 0 0 0 0 0 127 0"/>
<feOffset dy="4"/>
<feGaussianBlur stdDeviation="10"/>
<feColorMatrix type="matrix" values="0 0 0 0 0 0 0 0 0 0 0 0 0 0 0 0 0 0 0.12 0"/>
<feBlend mode="normal" in2="effect1_dropShadow" result="effect2_dropShadow"/>
<feBlend mode="normal" in="SourceGraphic" in2="effect2_dropShadow" result="shape"/>
</filter>
</defs>
</svg>
