<svg width="28" height="29" viewBox="0 0 28 29" fill="none" xmlns="http://www.w3.org/2000/svg">
<path fill-rule="evenodd" clip-rule="evenodd" d="M11.8402 19.3331C11.8402 22.4585 14.3718 24.9914 17.4997 24.9914C20.6252 24.9914 23.158 22.4574 23.158 19.3331C23.158 16.2064 20.6263 13.6747 17.4997 13.6747C14.3742 13.6747 11.8402 16.2076 11.8402 19.3331ZM2.33301 22.833V6.49967C2.33301 5.20467 3.37134 4.16634 4.66634 4.16634H5.83301V1.83301H8.16634V4.16634H17.4997V1.83301H19.833V4.16634H20.9997C22.2877 4.16634 23.333 5.2105 23.333 6.49967V13.6163C24.7785 15.0863 25.6663 17.1035 25.6663 19.333C25.6663 23.8433 22.0088 27.4996 17.4997 27.4996C15.2713 27.4996 13.2518 26.613 11.783 25.1663H4.66634C3.37134 25.1663 2.33301 24.1163 2.33301 22.833ZM4.66634 9.99967V22.833H10.1147C9.61184 21.7702 9.33301 20.5813 9.33301 19.333C9.33301 14.8215 12.9893 11.1663 17.4997 11.1663C18.7468 11.1663 19.938 11.4463 20.9997 11.948V9.99967H4.66634ZM18.083 15.833V19.123L20.9285 20.768L20.0535 22.2847L16.333 20.138V15.833H18.083Z" fill="#1890FF"/>
</svg>
