<svg width="24" height="24" viewBox="0 0 24 24" fill="none" xmlns="http://www.w3.org/2000/svg">
<path fill-rule="evenodd" clip-rule="evenodd" d="M10.149 16C10.149 18.679 12.319 20.85 15 20.85C17.679 20.85 19.85 18.678 19.85 16C19.85 13.32 17.68 11.15 15 11.15C12.321 11.15 10.149 13.321 10.149 16ZM2 19V5C2 3.89 2.89 3 4 3H5V1H7V3H15V1H17V3H18C19.104 3 20 3.895 20 5V11.1C21.239 12.36 22 14.089 22 16C22 19.866 18.865 23 15 23C13.09 23 11.359 22.24 10.1 21H4C2.89 21 2 20.1 2 19ZM4 8V19H8.67C8.239 18.089 8 17.07 8 16C8 12.133 11.134 9 15 9C16.069 9 17.09 9.24 18 9.67V8H4ZM15.5 13V15.82L17.939 17.23L17.189 18.53L14 16.69V13H15.5Z" fill="#1890FF"/>
</svg>
