<svg width="28" height="29" viewBox="0 0 28 29" fill="none" xmlns="http://www.w3.org/2000/svg">
<path d="M13.9998 7.21667C15.3532 7.21667 16.4498 8.31333 16.4498 9.66667C16.4498 11.02 15.3532 12.1167 13.9998 12.1167C12.6465 12.1167 11.5498 11.02 11.5498 9.66667C11.5498 8.31333 12.6465 7.21667 13.9998 7.21667ZM13.9998 17.7167C17.4648 17.7167 21.1165 19.42 21.1165 20.1667V21.45H6.88317V20.1667C6.88317 19.42 10.5348 17.7167 13.9998 17.7167ZM13.9998 5C11.4215 5 9.33317 7.08833 9.33317 9.66667C9.33317 12.245 11.4215 14.3333 13.9998 14.3333C16.5782 14.3333 18.6665 12.245 18.6665 9.66667C18.6665 7.08833 16.5782 5 13.9998 5ZM13.9998 15.5C10.8848 15.5 4.6665 17.0633 4.6665 20.1667V23.6667H23.3332V20.1667C23.3332 17.0633 17.1148 15.5 13.9998 15.5Z" fill="#1890FF"/>
</svg>
