<svg width="104" height="104" viewBox="0 0 104 104" fill="none" xmlns="http://www.w3.org/2000/svg">
<g filter="url(#filter0_dd)">
<circle cx="52" cy="48" r="32" fill="white"/>
</g>
<path d="M56.5618 52.5139V54.6205H55.2076C54.7562 54.6205 54.3549 55.0217 54.3549 55.4731V63.2474C54.3549 63.6989 54.7562 64.1001 55.2076 64.1001H67.2452C67.6966 64.1001 68.0979 63.6989 68.0979 63.2474V55.4731C68.0979 55.0217 67.6966 54.6205 67.2452 54.6205H65.891V52.5139C65.891 49.9559 63.7844 47.8493 61.2264 47.8493C58.6684 47.8493 56.5618 49.9559 56.5618 52.5139ZM66.3926 56.376V62.4449H56.0603V56.376H66.3926ZM64.1857 52.5139V54.6205H58.2672V52.5139C58.2672 50.9089 59.5712 49.5546 61.2264 49.5546C62.8314 49.5546 64.1857 50.9089 64.1857 52.5139ZM57.0133 40.727H60.3738V45.4919C60.3738 45.9434 60.775 46.3446 61.2264 46.3446C61.6778 46.3446 62.0791 45.9434 62.0791 45.4919V39.8744C62.0791 39.8242 62.0791 39.7741 62.0791 39.6738C62.0791 39.6236 62.0289 39.5233 61.9788 39.4731V39.423C61.9286 39.3728 61.8785 39.2725 61.8283 39.2223L54.6057 32.2506C54.5556 32.2004 54.5054 32.1503 54.4553 32.1503H54.4051C54.3549 32.1001 54.2546 32.1001 54.2045 32.1001C54.2045 32.1001 54.2045 32.1001 54.1543 32.1001C54.1042 32.1001 54.054 32.1001 54.0038 32.1001H40.7625C38.6057 32.1001 36.9004 33.8556 36.9004 35.9622V59.9371C36.9004 62.0938 38.6559 63.7992 40.7625 63.7992H51.8973C52.3487 63.7992 52.7499 63.3979 52.7499 62.9465C52.7499 62.4951 52.3487 62.0938 51.8973 62.0938H40.7625C39.5587 62.0938 38.6057 61.1409 38.6057 59.9371V35.9622C38.6057 34.7584 39.5587 33.8054 40.7625 33.8054H53.1512V36.865C53.1512 38.9716 54.8565 40.727 57.0133 40.727ZM54.8565 34.959L59.0697 39.0217H57.0133C55.8095 39.0217 54.8565 38.0688 54.8565 36.865V34.959Z" fill="#1890FF"/>
<defs>
<filter id="filter0_dd" x="0" y="0" width="104" height="104" filterUnits="userSpaceOnUse" color-interpolation-filters="sRGB">
<feFlood flood-opacity="0" result="BackgroundImageFix"/>
<feColorMatrix in="SourceAlpha" type="matrix" values="0 0 0 0 0 0 0 0 0 0 0 0 0 0 0 0 0 0 127 0"/>
<feOffset dy="1"/>
<feGaussianBlur stdDeviation="1"/>
<feColorMatrix type="matrix" values="0 0 0 0 0 0 0 0 0 0 0 0 0 0 0 0 0 0 0.12 0"/>
<feBlend mode="normal" in2="BackgroundImageFix" result="effect1_dropShadow"/>
<feColorMatrix in="SourceAlpha" type="matrix" values="0 0 0 0 0 0 0 0 0 0 0 0 0 0 0 0 0 0 127 0"/>
<feOffset dy="4"/>
<feGaussianBlur stdDeviation="10"/>
<feColorMatrix type="matrix" values="0 0 0 0 0 0 0 0 0 0 0 0 0 0 0 0 0 0 0.12 0"/>
<feBlend mode="normal" in2="effect1_dropShadow" result="effect2_dropShadow"/>
<feBlend mode="normal" in="SourceGraphic" in2="effect2_dropShadow" result="shape"/>
</filter>
</defs>
</svg>
