<svg width="360" height="210" viewBox="0 0 360 210" fill="none" xmlns="http://www.w3.org/2000/svg">
<path opacity="0.1" d="M200.763 50.6139C184.128 50.0357 168.284 44.6677 153.153 38.7934C138.022 32.9191 123.039 26.4101 106.803 23.311C96.3596 21.3093 84.418 21.0266 76.0028 26.6234C67.9064 32.0197 65.2898 41.3091 63.8813 49.9355C62.8249 56.4291 62.2003 63.2593 65.1022 69.3366C67.1148 73.556 70.69 77.1021 73.1627 81.1443C81.7629 95.2055 75.6841 112.546 66.3617 126.276C61.9921 132.715 56.9184 138.867 53.5436 145.718C50.1688 152.568 48.6086 160.429 51.5593 167.424C54.4869 174.362 61.4601 179.563 69.0116 183.225C84.3537 190.661 102.426 192.792 120.063 193.997C159.085 196.667 198.318 195.51 237.443 194.354C251.924 193.925 266.467 193.491 280.712 191.252C288.623 190.009 296.791 188.035 302.533 183.286C309.823 177.24 311.63 167 306.746 159.419C298.552 146.702 275.903 143.541 270.168 129.894C267.015 122.382 270.253 114.013 274.833 107.047C284.662 92.0988 301.135 78.9883 302.004 61.9025C302.6 50.1693 294.681 38.4182 282.436 32.8651C269.6 27.0448 251.804 27.7771 242.34 37.4109C232.583 47.3067 215.449 51.1227 200.763 50.6139Z" fill="#1890FF"/>
<path d="M200.601 153.231C200.509 154.346 200.218 155.434 199.742 156.446C199.424 157.091 199.012 157.685 198.714 158.332C198.431 158.918 198.221 160.026 198.095 161.241C197.941 161.215 197.784 161.192 197.63 161.174C197.858 160.372 198.031 159.55 198.259 158.746C198.802 156.834 199.693 155.028 200.601 153.231Z" fill="url(#paint0_linear)"/>
<path d="M204.561 192.753C204.019 191.519 203.505 190.101 204.047 188.868C204.401 188.141 205.009 187.57 205.756 187.262C206.495 186.96 207.275 186.768 208.069 186.691C210.563 186.364 213.087 186.33 215.589 186.589C215.772 188.033 215.386 189.497 215.055 190.892C214.754 192.177 214.582 192.367 213.256 192.434C212.397 192.48 204.764 193.208 204.561 192.753Z" fill="#FBBEBE"/>
<path d="M227.45 184.432C247.749 184.432 264.205 179.831 264.205 174.154C264.205 168.477 247.749 163.875 227.45 163.875C207.15 163.875 190.694 168.477 190.694 174.154C190.694 179.831 207.15 184.432 227.45 184.432Z" fill="#605D82"/>
<path opacity="0.1" d="M227.45 184.432C247.749 184.432 264.205 179.831 264.205 174.154C264.205 168.477 247.749 163.875 227.45 163.875C207.15 163.875 190.694 168.477 190.694 174.154C190.694 179.831 207.15 184.432 227.45 184.432Z" fill="black"/>
<path d="M234.04 119.892C232.781 122.326 230.688 124.227 228.144 125.248C226.646 125.793 225.07 126.094 223.476 126.137C221.731 126.216 219.95 126.103 218.31 125.507C216.11 124.711 214.283 123.081 212.913 121.182C211.543 119.283 210.599 117.115 209.779 114.928C209.348 113.789 208.936 112.577 209.139 111.374C210.463 111.073 211.913 110.631 212.596 109.457C213.18 108.45 213.018 107.242 212.681 106.091C212.586 105.764 212.476 105.441 212.365 105.13C212.108 104.384 211.221 102.969 211.838 102.331C212.231 101.928 213.879 101.722 214.447 101.46C216.197 100.653 217.812 99.4866 219.734 99.1037C221.397 98.7722 223.114 99.0832 224.774 99.4275C224.995 99.4595 225.206 99.5356 225.396 99.6511C225.613 99.8338 225.774 100.074 225.859 100.345C226.332 101.496 226.61 102.768 226.99 103.968C227.386 105.225 227.895 106.404 228.848 107.296C229.591 107.992 230.537 108.429 231.462 108.853L233.74 109.896C234.145 110.048 234.512 110.286 234.817 110.593C235.114 111.002 235.292 111.486 235.331 111.991C235.739 114.695 235.287 117.459 234.04 119.892Z" fill="#FBBEBE"/>
<path opacity="0.1" d="M226.98 103.968C225.167 105.853 222.78 107.084 220.193 107.468C217.605 107.853 214.964 107.368 212.681 106.091C212.586 105.764 212.476 105.441 212.365 105.13C212.108 104.384 211.221 102.969 211.838 102.331C212.231 101.928 213.879 101.722 214.447 101.46C216.197 100.653 217.811 99.4866 219.734 99.1037C221.397 98.7722 223.114 99.0832 224.774 99.4275C224.995 99.4595 225.206 99.5356 225.396 99.6511C225.613 99.8338 225.774 100.074 225.859 100.345C226.322 101.496 226.599 102.768 226.98 103.968Z" fill="black"/>
<path d="M254.478 133.627L253.506 127.743C253.015 124.79 252.509 121.781 251.136 119.121C250.234 117.379 248.802 115.719 246.872 115.375C246.492 115.341 246.118 115.254 245.762 115.118C245.196 114.845 244.888 114.234 244.453 113.782C243.333 112.62 241.508 112.602 240.007 112.011C238.68 111.497 237.596 110.508 236.388 109.752C235.18 108.997 233.676 108.467 232.34 108.951C232.124 111.25 231.895 113.602 230.918 115.696C230.282 117.059 229.35 118.263 228.189 119.22C227.028 120.177 225.668 120.862 224.208 121.226C222.748 121.589 221.225 121.622 219.75 121.321C218.276 121.021 216.888 120.395 215.687 119.489C213.396 117.765 211.929 115.105 211.245 112.322C211.078 111.644 210.888 110.865 210.263 110.554C209.587 110.215 208.775 110.626 208.207 111.124C207.166 112.047 206.338 113.368 204.986 113.679C204.498 113.792 203.958 113.769 203.552 114.064C203.282 114.313 203.056 114.606 202.884 114.93C202.588 115.348 202.193 115.686 201.734 115.913C201.275 116.14 200.766 116.249 200.255 116.23C199.784 116.207 199.226 116.099 198.905 116.441C198.666 116.698 198.648 117.099 198.391 117.338C198.044 117.675 197.481 117.51 196.998 117.492C196.083 117.454 195.232 118.04 194.708 118.777C194.183 119.514 193.937 120.427 193.68 121.311C196.489 127.565 199.059 133.828 201.869 140.082C202 140.318 202.07 140.583 202.072 140.853C202.015 141.133 201.896 141.397 201.722 141.624C200.344 143.837 200.388 146.619 200.54 149.22C200.691 151.821 200.877 154.568 199.715 156.898C199.399 157.538 198.987 158.124 198.687 158.764C197.982 160.213 197.728 164.849 198.139 166.406H256.228C255.12 163.361 255.542 157.25 255.773 154.018C255.935 151.756 255.516 149.498 255.336 147.236C254.958 142.618 255.241 138.237 254.478 133.627Z" fill="#1890FF"/>
<path d="M257.45 164.607C258.306 164.281 259.249 164.399 260.167 164.522C263.12 164.926 266.117 165.34 268.855 166.519C270.14 167.069 271.363 167.804 272.232 168.886C273.003 169.86 273.453 171.052 273.879 172.226L274.866 174.922C275.242 175.95 275.622 176.998 275.728 178.09C276.036 181.326 273.823 184.376 271.039 186.056C268.256 187.737 264.979 188.336 261.786 188.963C258.594 189.59 255.389 190.283 252.209 191.018C250.726 191.403 249.222 191.699 247.704 191.905C244.3 192.29 240.743 191.723 237.51 192.848C236.225 193.298 234.963 193.966 233.629 194.277C232.744 194.471 231.849 194.615 230.948 194.708L224.828 195.407C223.583 195.574 222.331 195.67 221.075 195.695C218.402 195.695 215.773 195.063 213.177 194.431C212.901 194.383 212.638 194.277 212.406 194.12C211.994 193.796 211.904 193.223 211.845 192.704C211.583 190.407 211.354 188.107 211.157 185.805C211.095 185.057 211.049 184.247 211.457 183.618C211.971 182.847 212.974 182.605 213.889 182.456C217.769 181.822 221.699 181.549 225.63 181.642C227.123 180.149 229.586 180.141 231.542 179.329C232.261 178.999 232.958 178.62 233.626 178.196C237.123 176.156 241.032 174.92 245.066 174.58C245.857 174.556 246.642 174.444 247.408 174.246C248.922 173.776 250.302 172.496 251.857 172.81C252.05 172.278 252.184 171.566 252.628 171.201C252.849 171.013 253.122 170.888 253.325 170.687C253.754 170.253 253.793 169.569 253.728 168.963C253.664 168.356 253.52 167.735 253.677 167.144C253.742 166.92 253.838 166.706 253.962 166.509C254.736 165.157 255.9 164.479 257.45 164.607Z" fill="#605D82"/>
<path opacity="0.05" d="M257.45 164.607C258.306 164.281 259.249 164.399 260.167 164.522C263.12 164.926 266.117 165.34 268.855 166.519C270.14 167.069 271.363 167.804 272.232 168.886C273.003 169.86 273.453 171.052 273.879 172.226L274.866 174.922C275.242 175.95 275.622 176.998 275.728 178.09C276.036 181.326 273.823 184.376 271.039 186.056C268.256 187.737 264.979 188.336 261.786 188.963C258.594 189.59 255.389 190.283 252.209 191.018C250.726 191.403 249.222 191.699 247.704 191.905C244.3 192.29 240.743 191.723 237.51 192.848C236.225 193.298 234.963 193.966 233.629 194.277C232.744 194.471 231.849 194.615 230.948 194.708L224.828 195.407C223.583 195.574 222.331 195.67 221.075 195.695C218.402 195.695 215.773 195.063 213.177 194.431C212.901 194.383 212.638 194.277 212.406 194.12C211.994 193.796 211.904 193.223 211.845 192.704C211.583 190.407 211.354 188.107 211.157 185.805C211.095 185.057 211.049 184.247 211.457 183.618C211.971 182.847 212.974 182.605 213.889 182.456C217.769 181.822 221.699 181.549 225.63 181.642C227.123 180.149 229.586 180.141 231.542 179.329C232.261 178.999 232.958 178.62 233.626 178.196C237.123 176.156 241.032 174.92 245.066 174.58C245.857 174.556 246.642 174.444 247.408 174.246C248.922 173.776 250.302 172.496 251.857 172.81C252.05 172.278 252.184 171.566 252.628 171.201C252.849 171.013 253.122 170.888 253.325 170.687C253.754 170.253 253.793 169.569 253.728 168.963C253.664 168.356 253.52 167.735 253.677 167.144C253.742 166.92 253.838 166.706 253.962 166.509C254.736 165.157 255.9 164.479 257.45 164.607Z" fill="black"/>
<path d="M206.926 194.341C205.335 196.183 203.934 196.841 201.444 196.782C199.912 196.746 198.382 196.667 196.853 196.543C195.808 196.43 194.758 196.381 193.707 196.397C190.535 196.52 187.474 197.972 184.31 197.718C183.842 197.681 183.379 197.595 182.93 197.461C182.216 197.262 181.571 196.87 181.066 196.327C180.46 195.641 180.169 194.732 180.002 193.832C179.157 189.222 181.475 184.201 185.533 181.855C186.063 181.513 186.665 181.299 187.292 181.231C187.906 181.228 188.513 181.361 189.07 181.621L189.109 181.637C190.758 182.315 192.255 183.314 193.514 184.576C193.705 184.795 193.933 184.978 194.188 185.118C194.442 185.214 194.71 185.265 194.982 185.267L198.359 185.481C198.931 185.498 199.5 185.576 200.056 185.715C200.668 185.928 201.264 186.186 201.839 186.486C203.657 187.298 205.672 187.513 207.635 187.827C207.825 187.837 208.005 187.91 208.15 188.032C208.228 188.13 208.282 188.244 208.309 188.367C208.583 189.4 208.6 190.484 208.359 191.525C208.118 192.567 207.626 193.533 206.926 194.341Z" fill="#535070"/>
<path opacity="0.1" d="M189.098 181.637C187.788 182.887 186.651 184.308 185.718 185.861C184.222 188.424 183.281 191.273 182.958 194.223C182.836 195.299 182.826 196.385 182.93 197.463C182.216 197.264 181.571 196.871 181.066 196.327C180.46 195.641 180.169 194.732 180.002 193.832C179.157 189.222 181.475 184.201 185.533 181.855C186.063 181.513 186.665 181.299 187.292 181.231C187.906 181.228 188.513 181.361 189.07 181.621L189.098 181.637Z" fill="black"/>
<path d="M254.51 188.027C256.399 187.976 258.52 187.881 259.908 189.153C261.231 190.355 261.406 192.339 261.493 194.125L261.594 196.199C261.625 196.831 261.65 197.484 261.396 198.069C260.943 199.097 259.702 199.593 258.568 199.534C257.435 199.475 256.394 198.979 255.358 198.532C252.546 197.321 249.618 196.399 246.619 195.78C246.717 194.346 246.88 192.919 247.108 191.499C247.264 190.515 247.29 188.867 247.948 188.05C248.645 187.187 249.552 187.655 250.498 187.814C251.825 188.016 253.169 188.088 254.51 188.027Z" fill="#FBBEBE"/>
<path d="M204.59 167.193C204.59 167.449 204.187 167.193 204.151 166.918C203.868 164.839 202.218 163.125 200.295 162.292C198.373 161.46 196.183 161.416 194.101 161.614C190.952 161.912 187.431 163.117 186.267 166.059C185.994 166.748 185.871 167.493 185.537 168.154C185.167 168.878 184.563 169.456 184.162 170.16C183.47 171.379 183.442 172.872 183.691 174.249C184.362 177.923 186.876 181.066 189.922 183.243C192.967 185.419 196.527 186.72 200.077 187.891C209.463 190.986 219.092 193.285 228.864 194.765C230.447 195.004 232.046 195.225 233.563 195.734C234.92 196.189 236.19 196.87 237.516 197.404C240.6 198.643 243.918 199.085 247.206 199.519C247.766 199.591 248.409 199.642 248.823 199.262C249.357 198.766 249.18 197.903 249.028 197.191C248.47 194.487 248.936 191.672 250.336 189.292C250.887 188.367 251.601 187.418 251.498 186.347C251.375 185.098 250.131 184.214 248.892 184.014C247.653 183.813 246.394 184.109 245.15 184.271C244.72 184.327 244.253 184.363 243.864 184.145C243.68 184.02 243.512 183.871 243.366 183.703C242.509 182.876 241.412 182.342 240.233 182.177C239.053 182.013 237.852 182.225 236.801 182.785C236.341 183.042 235.645 182.469 235.167 182.253L229.766 179.805C223.557 176.996 217.316 174.174 210.746 172.396C210.222 172.293 209.724 172.086 209.281 171.787C208.955 171.53 208.721 171.181 208.42 170.895C207.765 170.276 206.852 170.029 206.066 169.59C205.279 169.151 204.405 168.074 204.59 167.193Z" fill="#605D82"/>
<path d="M287.916 200.776C287.052 202.377 285.377 203.374 283.577 203.785C283.126 203.887 282.667 203.952 282.205 203.98C279.93 204.121 277.684 203.492 275.491 202.87L272.515 202.027C272.003 201.866 271.479 201.749 270.947 201.678C270.223 201.629 269.496 201.654 268.778 201.752C265.26 202.079 261.714 201.92 258.239 201.279C257.949 201.248 257.67 201.148 257.425 200.989C257.21 200.779 257.019 200.545 256.857 200.293C256.047 199.319 255.176 198.751 256.134 197.466C256.687 196.721 257.712 196.348 258.142 195.492C258.571 194.637 258.296 193.421 258.041 192.537C257.694 191.317 256.553 190.79 256.145 189.669C255.839 188.824 256.353 187.842 257.126 187.382C257.9 186.922 258.856 186.887 259.748 187.005C260.64 187.123 261.514 187.375 262.411 187.444C265.048 187.655 267.744 186.295 270.276 187.061C270.834 187.231 271.361 187.501 271.926 187.65C273.029 187.896 274.18 187.797 275.224 187.364C275.594 187.226 275.956 187.059 276.316 186.894C277.01 186.533 277.749 186.266 278.514 186.1C280.984 185.676 283.274 187.385 285.137 189.053C285.777 189.584 286.343 190.197 286.821 190.877C287.335 191.679 287.608 192.612 287.849 193.532C288.53 195.914 289.093 198.591 287.916 200.776Z" fill="#535070"/>
<path opacity="0.1" d="M287.916 200.776C287.052 202.377 285.376 203.374 283.577 203.785C284.277 202.425 284.592 200.901 284.489 199.375C284.335 196.931 283.261 194.629 281.891 192.599C281.048 191.349 280.089 190.182 279.028 189.112C278.21 188.29 277.205 187.637 276.326 186.884C277.02 186.523 277.759 186.256 278.524 186.09C280.994 185.666 283.284 187.375 285.147 189.043C285.787 189.573 286.353 190.187 286.831 190.867C287.345 191.669 287.618 192.602 287.859 193.521C288.53 195.914 289.093 198.591 287.916 200.776Z" fill="black"/>
<g opacity="0.1">
<path opacity="0.1" d="M202.712 92.8484C202.581 92.0647 201.941 91.4557 201.594 90.7363C201.371 90.251 201.242 89.7279 201.214 89.1946C201.214 89.4824 201.188 89.7701 201.186 90.0605C201.186 90.9033 201.222 91.7718 201.594 92.5375C201.879 93.1208 202.35 93.6347 202.586 94.2282C202.711 93.7796 202.754 93.3122 202.712 92.8484Z" fill="black"/>
<path opacity="0.1" d="M233.15 87.3807C232.682 89.6213 231.952 91.903 232.178 94.1487C232.325 92.4914 232.808 90.8238 233.15 89.1793C233.435 87.9314 233.535 86.6484 233.448 85.3713C233.392 86.0468 233.292 86.718 233.15 87.3807Z" fill="black"/>
</g>
<path d="M203.725 144.985C203.414 150.089 199.669 154.305 198.243 159.213C197.888 160.442 197.675 161.716 197.166 162.886C196.138 165.237 194.023 166.943 191.768 168.146C190.946 168.621 190.046 168.948 189.111 169.112C188.082 169.232 187.041 169.036 186.127 168.55C185.213 168.064 184.468 167.31 183.993 166.391C183.405 165.196 183.322 163.821 182.965 162.536C182.567 161.053 181.821 159.686 181.336 158.229C180.441 155.549 180.459 152.614 181.079 149.86C181.665 147.464 182.594 145.166 183.836 143.035C184.016 142.719 184.199 142.405 184.386 142.094C184.917 141.195 185.512 140.337 186.168 139.525C187.71 137.667 189.692 136.238 191.653 134.83C191.802 134.706 191.978 134.619 192.167 134.573H192.198C192.419 134.565 192.638 134.616 192.832 134.722C195.552 135.897 198.163 137.311 200.633 138.946C201.518 139.535 202.913 140.193 203.376 141.195C203.839 142.197 203.792 143.896 203.725 144.985Z" fill="#FBBEBE"/>
<path d="M193.522 121.501C193.272 121.763 193.078 122.073 192.952 122.413C190.874 127.094 189.647 132.108 189.328 137.219C189.333 137.469 189.276 137.715 189.16 137.936C189.047 138.084 188.92 138.22 188.783 138.345C188.657 138.493 188.564 138.666 188.508 138.851C188.452 139.037 188.435 139.233 188.458 139.425C188.481 139.618 188.543 139.804 188.64 139.972C188.737 140.139 188.868 140.286 189.024 140.401C189.448 139.602 190.464 139.342 191.366 139.273C195.686 138.931 199.907 140.94 204.24 140.789C203.934 139.733 203.495 138.718 203.246 137.649C202.143 132.902 204.893 127.735 203.207 123.163C202.87 122.249 202.308 121.349 201.421 120.948C201.054 120.8 200.669 120.698 200.277 120.645C199.182 120.447 197.002 119.602 195.943 119.941C195.553 120.067 195.399 120.434 195.075 120.655C194.594 120.971 193.941 121.082 193.522 121.501Z" fill="#1890FF"/>
<path opacity="0.1" d="M195.294 163.99C194.633 165.111 193.694 166.043 192.569 166.696C191.444 167.349 190.169 167.701 188.868 167.719C188.164 167.738 187.463 167.609 186.812 167.341C185.169 166.617 184.241 164.823 183.897 163.06C183.553 161.297 183.66 159.478 183.416 157.697C183.221 156.279 182.805 154.902 182.589 153.486C182.059 149.983 183.103 146.524 183.846 143.037C184.025 142.721 184.208 142.408 184.396 142.097C184.926 141.198 185.521 140.339 186.177 139.527C187.719 137.669 189.701 136.24 191.662 134.832H189.606C189.655 134.796 189.714 134.773 189.775 134.767C189.836 134.76 189.898 134.769 189.955 134.794C190.011 134.819 190.06 134.858 190.097 134.907C190.133 134.957 190.156 135.015 190.163 135.076C190.366 136.875 192.903 138.674 193.456 140.421C193.798 141.495 194.209 142.549 194.484 143.644C194.701 144.576 194.866 145.52 194.977 146.47C195.342 149.131 195.706 151.786 196.067 154.436C196.522 157.672 196.913 161.169 195.294 163.99Z" fill="black"/>
<path d="M191.891 130.251L194.371 122.472C194.741 121.308 195.116 120.126 195.16 118.903C195.204 117.68 194.883 116.398 194.027 115.524C193.333 114.817 192.371 114.452 191.549 113.9C189.493 112.515 188.465 110.089 187.393 107.856C186.321 105.623 184.91 103.287 182.571 102.46C182.031 102.27 181.286 102.254 181.044 102.771C180.96 102.985 180.947 103.221 181.006 103.444C181.232 104.631 182.082 105.579 182.823 106.527C184.064 108.134 185.103 110.099 184.804 112.109C184.45 114.488 182.311 116.333 182.054 118.726C181.941 119.779 182.211 120.835 182.208 121.897C182.208 122.555 182.1 123.225 182.247 123.868C182.399 124.364 182.58 124.852 182.789 125.327C183.018 126.096 183.138 126.892 183.144 127.694L183.686 137.808C183.979 143.279 181.011 148.601 181.828 153.997C182.044 155.413 182.46 156.79 182.656 158.209C182.913 159.99 182.792 161.806 183.136 163.572C183.481 165.337 184.421 167.128 186.051 167.853C186.703 168.12 187.403 168.249 188.107 168.231C189.408 168.213 190.683 167.86 191.808 167.207C192.934 166.554 193.872 165.623 194.533 164.502C196.152 161.675 195.762 158.183 195.32 154.961L194.23 146.995C194.118 146.044 193.953 145.1 193.736 144.168C193.464 143.073 193.052 142.02 192.708 140.946C191.605 137.433 190.78 133.74 191.891 130.251Z" fill="#FBBEBE"/>
<path d="M257.916 130.855H204.695C203.564 130.855 202.646 131.772 202.646 132.903V165.296C202.646 166.427 203.564 167.344 204.695 167.344H257.916C259.047 167.344 259.964 166.427 259.964 165.296V132.903C259.964 131.772 259.047 130.855 257.916 130.855Z" fill="#3F3D56"/>
<path opacity="0.2" d="M257.916 130.855H204.695C203.564 130.855 202.646 131.772 202.646 132.903V165.296C202.646 166.427 203.564 167.344 204.695 167.344H257.916C259.047 167.344 259.964 166.427 259.964 165.296V132.903C259.964 131.772 259.047 130.855 257.916 130.855Z" fill="black"/>
<path d="M231.177 150.641C232.029 150.641 232.719 149.951 232.719 149.099C232.719 148.248 232.029 147.557 231.177 147.557C230.325 147.557 229.635 148.248 229.635 149.099C229.635 149.951 230.325 150.641 231.177 150.641Z" fill="white"/>
<path d="M163.545 178.995H166.658C168.362 178.995 169.996 179.672 171.201 180.877C172.406 182.081 173.083 183.716 173.083 185.419V194.955H157.119V185.419C157.119 183.716 157.796 182.081 159.001 180.877C160.206 179.672 161.841 178.995 163.545 178.995Z" fill="#3F3D56"/>
<path opacity="0.1" d="M163.545 178.995H166.658C168.362 178.995 169.996 179.672 171.201 180.877C172.406 182.081 173.083 183.716 173.083 185.419V194.955H157.119V185.419C157.119 183.716 157.796 182.081 159.001 180.877C160.206 179.672 161.841 178.995 163.545 178.995Z" fill="black"/>
<path d="M164.465 182.508C165.17 182.508 165.742 181.936 165.742 181.231C165.742 180.525 165.17 179.954 164.465 179.954C163.759 179.954 163.188 180.525 163.188 181.231C163.188 181.936 163.759 182.508 164.465 182.508Z" fill="#3F3D56"/>
<path d="M164.465 180.912C165.17 180.912 165.742 180.34 165.742 179.635C165.742 178.929 165.17 178.358 164.465 178.358C163.759 178.358 163.188 178.929 163.188 179.635C163.188 180.34 163.759 180.912 164.465 180.912Z" fill="#3F3D56"/>
<path d="M164.465 179.316C165.17 179.316 165.742 178.744 165.742 178.039C165.742 177.334 165.17 176.762 164.465 176.762C163.759 176.762 163.188 177.334 163.188 178.039C163.188 178.744 163.759 179.316 164.465 179.316Z" fill="#3F3D56"/>
<path d="M164.465 177.72C165.17 177.72 165.742 177.148 165.742 176.443C165.742 175.738 165.17 175.166 164.465 175.166C163.759 175.166 163.188 175.738 163.188 176.443C163.188 177.148 163.759 177.72 164.465 177.72Z" fill="#3F3D56"/>
<path d="M164.465 176.125C165.17 176.125 165.742 175.553 165.742 174.848C165.742 174.142 165.17 173.571 164.465 173.571C163.759 173.571 163.188 174.142 163.188 174.848C163.188 175.553 163.759 176.125 164.465 176.125Z" fill="#3F3D56"/>
<path d="M164.465 174.529C165.17 174.529 165.742 173.957 165.742 173.252C165.742 172.546 165.17 171.975 164.465 171.975C163.759 171.975 163.188 172.546 163.188 173.252C163.188 173.957 163.759 174.529 164.465 174.529Z" fill="#3F3D56"/>
<path d="M164.465 172.933C165.17 172.933 165.742 172.361 165.742 171.656C165.742 170.951 165.17 170.379 164.465 170.379C163.759 170.379 163.188 170.951 163.188 171.656C163.188 172.361 163.759 172.933 164.465 172.933Z" fill="#3F3D56"/>
<path d="M166.38 173.57C167.085 173.57 167.657 172.999 167.657 172.293C167.657 171.588 167.085 171.016 166.38 171.016C165.674 171.016 165.103 171.588 165.103 172.293C165.103 172.999 165.674 173.57 166.38 173.57Z" fill="#3F3D56"/>
<path d="M167.657 172.933C168.363 172.933 168.935 172.361 168.935 171.656C168.935 170.951 168.363 170.379 167.657 170.379C166.952 170.379 166.38 170.951 166.38 171.656C166.38 172.361 166.952 172.933 167.657 172.933Z" fill="#3F3D56"/>
<path d="M168.934 172.293C169.639 172.293 170.211 171.721 170.211 171.016C170.211 170.311 169.639 169.739 168.934 169.739C168.228 169.739 167.656 170.311 167.656 171.016C167.656 171.721 168.228 172.293 168.934 172.293Z" fill="#3F3D56"/>
<path d="M164.465 171.334C165.17 171.334 165.742 170.763 165.742 170.057C165.742 169.352 165.17 168.78 164.465 168.78C163.759 168.78 163.188 169.352 163.188 170.057C163.188 170.763 163.759 171.334 164.465 171.334Z" fill="#3F3D56"/>
<path d="M164.465 169.739C165.17 169.739 165.742 169.167 165.742 168.462C165.742 167.757 165.17 167.185 164.465 167.185C163.759 167.185 163.188 167.757 163.188 168.462C163.188 169.167 163.759 169.739 164.465 169.739Z" fill="#3F3D56"/>
<path d="M164.465 168.143C165.17 168.143 165.742 167.571 165.742 166.866C165.742 166.161 165.17 165.589 164.465 165.589C163.759 165.589 163.188 166.161 163.188 166.866C163.188 167.571 163.759 168.143 164.465 168.143Z" fill="#3F3D56"/>
<path d="M164.465 166.547C165.17 166.547 165.742 165.976 165.742 165.27C165.742 164.565 165.17 163.993 164.465 163.993C163.759 163.993 163.188 164.565 163.188 165.27C163.188 165.976 163.759 166.547 164.465 166.547Z" fill="#3F3D56"/>
<path d="M169.757 161.151C169.441 161.197 169.122 161.23 168.804 161.251C169.1 160.993 169.375 160.711 169.626 160.408C169.448 159.872 169.188 159.367 168.855 158.91C168.538 159.088 168.188 159.198 167.827 159.234C167.511 159.28 167.192 159.316 166.873 159.337C167.302 158.929 167.709 158.5 168.094 158.052C167.17 157.221 165.989 156.733 164.748 156.669C163.507 156.604 162.281 156.968 161.277 157.7C160.272 158.431 159.549 159.485 159.228 160.685C158.908 161.886 159.01 163.16 159.516 164.294C160.023 165.428 160.904 166.354 162.012 166.917C163.12 167.48 164.388 167.645 165.603 167.384C166.818 167.124 167.907 166.455 168.688 165.488C169.468 164.521 169.893 163.316 169.891 162.073C169.891 161.76 169.863 161.448 169.809 161.14L169.757 161.151Z" fill="#1890FF"/>
<path d="M174.026 167.495C173.7 167.695 173.333 167.818 172.952 167.855C172.636 167.901 172.317 167.935 171.998 167.955C172.337 167.652 172.653 167.324 172.944 166.974C172.174 166.773 171.357 166.867 170.652 167.236C169.947 167.606 169.406 168.225 169.133 168.973C168.861 169.721 168.877 170.543 169.179 171.279C169.481 172.015 170.047 172.613 170.766 172.954C171.485 173.295 172.305 173.357 173.067 173.125C173.828 172.894 174.476 172.387 174.884 171.704C175.291 171.021 175.429 170.21 175.271 169.43C175.112 168.65 174.668 167.958 174.026 167.488V167.495Z" fill="#1890FF"/>
<path d="M162.548 173.57C163.253 173.57 163.825 172.999 163.825 172.293C163.825 171.588 163.253 171.016 162.548 171.016C161.842 171.016 161.271 171.588 161.271 172.293C161.271 172.999 161.842 173.57 162.548 173.57Z" fill="#3F3D56"/>
<path d="M161.271 172.933C161.976 172.933 162.548 172.361 162.548 171.656C162.548 170.951 161.976 170.379 161.271 170.379C160.565 170.379 159.993 170.951 159.993 171.656C159.993 172.361 160.565 172.933 161.271 172.933Z" fill="#3F3D56"/>
<path d="M159.993 172.293C160.699 172.293 161.271 171.721 161.271 171.016C161.271 170.311 160.699 169.739 159.993 169.739C159.288 169.739 158.716 170.311 158.716 171.016C158.716 171.721 159.288 172.293 159.993 172.293Z" fill="#3F3D56"/>
<path d="M154.9 167.495C155.226 167.695 155.594 167.818 155.975 167.855C156.291 167.901 156.61 167.935 156.928 167.955C156.589 167.652 156.273 167.324 155.982 166.974C156.753 166.773 157.57 166.867 158.275 167.236C158.979 167.606 159.521 168.225 159.793 168.973C160.066 169.721 160.049 170.543 159.747 171.279C159.446 172.015 158.88 172.613 158.161 172.954C157.442 173.295 156.622 173.357 155.86 173.125C155.099 172.894 154.451 172.387 154.043 171.704C153.635 171.021 153.497 170.21 153.656 169.43C153.814 168.65 154.258 167.958 154.9 167.488V167.495Z" fill="#1890FF"/>
<path d="M163.545 179.954H166.658C168.362 179.954 169.996 180.63 171.201 181.835C172.406 183.04 173.083 184.674 173.083 186.378V194.824C173.083 195.113 172.968 195.39 172.764 195.595C172.56 195.799 172.282 195.914 171.993 195.914H158.209C157.92 195.914 157.643 195.799 157.438 195.595C157.234 195.39 157.119 195.113 157.119 194.824V186.378C157.119 184.674 157.796 183.04 159.001 181.835C160.206 180.63 161.841 179.954 163.545 179.954Z" fill="#3F3D56"/>
<g opacity="0.1">
<path opacity="0.1" d="M169.855 161.5C169.725 161.638 169.588 161.769 169.443 161.891C169.59 161.891 169.734 161.868 169.88 161.852C169.875 161.734 169.867 161.616 169.855 161.5Z" fill="black"/>
<path opacity="0.1" d="M167.526 159.974C167.848 159.953 168.164 159.92 168.482 159.874C168.768 159.838 169.048 159.761 169.313 159.648C169.183 159.391 169.033 159.144 168.865 158.91C168.706 159.007 168.532 159.081 168.351 159.129C168.099 159.432 167.823 159.715 167.526 159.974Z" fill="black"/>
<path opacity="0.1" d="M159.675 162.716C159.673 161.741 159.934 160.785 160.43 159.946C160.926 159.108 161.639 158.419 162.494 157.952C163.349 157.485 164.315 157.257 165.288 157.292C166.262 157.327 167.208 157.624 168.027 158.152L168.11 158.065C167.575 157.589 166.952 157.224 166.276 156.991C165.599 156.757 164.884 156.66 164.169 156.704C163.455 156.748 162.757 156.933 162.115 157.249C161.473 157.564 160.899 158.003 160.427 158.541C159.956 159.079 159.595 159.705 159.366 160.382C159.138 161.06 159.046 161.777 159.095 162.49C159.144 163.204 159.335 163.901 159.655 164.54C159.975 165.18 160.418 165.75 160.96 166.218C160.128 165.24 159.673 163.999 159.675 162.716Z" fill="black"/>
</g>
<g opacity="0.1">
<path opacity="0.1" d="M171.999 168.593C172.318 168.572 172.636 168.539 172.953 168.492C173.334 168.457 173.701 168.333 174.027 168.133C174.388 168.398 174.689 168.737 174.91 169.127C175.131 169.516 175.268 169.948 175.312 170.394C175.324 170.282 175.33 170.17 175.33 170.057C175.332 169.558 175.217 169.066 174.994 168.619C174.771 168.173 174.446 167.785 174.045 167.488C173.719 167.687 173.351 167.81 172.971 167.848L172.714 167.878C172.494 168.135 172.255 168.373 171.999 168.593Z" fill="black"/>
<path opacity="0.1" d="M172.128 167.503C172.234 167.504 172.341 167.512 172.446 167.526C172.613 167.349 172.778 167.159 172.945 166.974C172.472 166.848 171.977 166.832 171.498 166.928C171.018 167.024 170.567 167.229 170.179 167.527C169.792 167.825 169.478 168.208 169.262 168.647C169.047 169.086 168.935 169.568 168.936 170.057C168.936 170.165 168.936 170.271 168.951 170.376C169.03 169.589 169.399 168.859 169.986 168.328C170.573 167.797 171.336 167.503 172.128 167.503Z" fill="black"/>
</g>
<g opacity="0.1">
<path opacity="0.1" d="M156.929 168.593C156.61 168.572 156.291 168.539 155.975 168.492C155.594 168.457 155.226 168.334 154.901 168.133C154.54 168.398 154.239 168.737 154.018 169.127C153.796 169.516 153.659 169.948 153.616 170.394C153.603 170.282 153.597 170.17 153.598 170.057C153.595 169.558 153.71 169.066 153.934 168.619C154.157 168.173 154.482 167.785 154.883 167.488C155.209 167.688 155.576 167.811 155.957 167.848L156.214 167.878C156.432 168.136 156.671 168.375 156.929 168.593Z" fill="black"/>
<path opacity="0.1" d="M156.8 167.503C156.692 167.504 156.585 167.512 156.478 167.526C156.314 167.349 156.149 167.159 155.982 166.974C156.455 166.848 156.95 166.832 157.43 166.928C157.909 167.024 158.36 167.229 158.748 167.527C159.136 167.825 159.449 168.208 159.665 168.647C159.881 169.086 159.993 169.568 159.992 170.057C159.992 170.165 159.992 170.271 159.976 170.376C159.897 169.589 159.529 168.859 158.942 168.328C158.355 167.797 157.591 167.503 156.8 167.503Z" fill="black"/>
</g>
<path d="M116 76H89V97H116V76Z" fill="#1890FF"/>
<path d="M182 76H116V97H182V76Z" fill="white"/>
<path d="M120.651 90.1399C121.931 90.1399 123.051 89.5099 123.651 88.5199L122.271 87.7199C121.971 88.2599 121.361 88.5799 120.651 88.5799C119.411 88.5799 118.611 87.7499 118.611 86.4999C118.611 85.2499 119.411 84.4199 120.651 84.4199C121.361 84.4199 121.961 84.7399 122.271 85.2799L123.651 84.4799C123.041 83.4899 121.921 82.8599 120.651 82.8599C118.541 82.8599 117.011 84.4399 117.011 86.4999C117.011 88.5599 118.541 90.1399 120.651 90.1399Z" fill="#1890FF"/>
<path d="M128.643 90.1399C130.653 90.1399 132.283 88.5599 132.283 86.4999C132.283 84.4399 130.653 82.8599 128.643 82.8599C126.633 82.8599 125.003 84.4399 125.003 86.4999C125.003 88.5599 126.633 90.1399 128.643 90.1399ZM128.643 88.5799C127.503 88.5799 126.603 87.7499 126.603 86.4999C126.603 85.2499 127.503 84.4199 128.643 84.4199C129.783 84.4199 130.683 85.2499 130.683 86.4999C130.683 87.7499 129.783 88.5799 128.643 88.5799Z" fill="#1890FF"/>
<path d="M134.184 82.9999V89.9999H135.784V82.9999H134.184Z" fill="#1890FF"/>
<path d="M141.887 82.9999V86.7999L139.187 82.9999H137.987V89.9999H139.587V86.1999L142.287 89.9999H143.487V82.9999H141.887Z" fill="#1890FF"/>
<path d="M153.636 89.9999H155.386L153.006 82.9999H150.966L148.586 89.9999H150.336L150.686 88.8999H153.286L153.636 89.9999ZM151.166 87.3999L151.986 84.8299L152.806 87.3999H151.166Z" fill="#1890FF"/>
<path d="M161.185 82.9999H155.985V84.5399H157.785V89.9999H159.385V84.5399H161.185V82.9999Z" fill="#1890FF"/>
<path d="M169.885 82.9999H168.285L166.385 86.1099L164.485 82.9999H162.885V89.9999H164.485V85.9299L166.295 88.8999H166.475L168.285 85.9299V89.9999H169.885V82.9999Z" fill="#1890FF"/>
<path d="M104.34 86.37C104.72 86.04 104.95 85.58 104.95 85C104.95 83.79 103.96 83 102.74 83H100V90H102.94C104.19 90 105.2 89.19 105.2 87.95C105.2 87.24 104.86 86.7 104.34 86.37ZM102.74 84.5C103.11 84.5 103.35 84.76 103.35 85.12C103.35 85.48 103.1 85.74 102.74 85.74H101.6V84.5H102.74ZM102.94 88.5H101.6V87.16H102.94C103.34 87.16 103.6 87.44 103.6 87.83C103.6 88.22 103.34 88.5 102.94 88.5Z" fill="white"/>
<path d="M106.996 83V90H108.596V83H106.996Z" fill="white"/>
<path d="M115.499 83H110.299V84.54H112.099V90H113.699V84.54H115.499V83Z" fill="white"/>
<path d="M179.927 75H91.0728C89.3757 75 88 76.4042 88 78.1364V94.8636C88 96.5958 89.3757 98 91.0728 98H179.927C181.624 98 183 96.5958 183 94.8636V78.1364C183 76.4042 181.624 75 179.927 75Z" stroke="#3F3D56" stroke-width="2" stroke-miterlimit="10"/>
<path d="M212.098 97.1548C212.026 96.8863 212.021 96.604 212.081 96.3319C212.294 95.7429 213.109 95.7664 213.727 95.7975C216.219 95.9873 218.651 94.9954 221.141 94.7071C223.631 94.4188 226.611 95.1757 227.506 97.5275C229.086 95.938 230.366 94.0718 231.283 92.0214C231.798 90.8703 232.199 89.5847 231.903 88.3631C231.475 86.601 229.771 85.5249 228.227 84.6292L223.58 81.968C222.959 81.5636 222.271 81.2736 221.548 81.1112C220.55 80.9499 219.541 81.2881 218.544 81.4622C215.568 81.9821 212.15 81.1705 209.723 83.0029C208.701 83.7718 208.033 84.9032 207.387 86.0038L204.447 91.0088C204.216 91.3355 204.071 91.7154 204.024 92.113C204.007 92.6639 204.365 93.1416 204.55 93.6611C204.881 94.6065 204.636 95.7221 205.11 96.604C205.897 98.064 207.809 97.9578 209.102 98.6504C209.58 98.9064 210.435 99.9186 210.942 99.8145C211.836 99.6392 212.19 97.8795 212.098 97.1548Z" fill="#3F3D56"/>
<path d="M220.361 108.864C226.861 107.763 231.197 101.353 230.044 94.546C228.891 87.7394 222.686 83.1143 216.185 84.2155C209.684 85.3167 205.349 91.7273 206.502 98.5339C207.655 105.34 213.86 109.966 220.361 108.864Z" fill="#FFC0C6"/>
<path d="M210.487 93.3793C210.418 93.1101 210.414 92.828 210.474 92.5558C210.686 91.963 211.502 91.9903 212.12 92.0213C214.612 92.2111 217.045 91.2191 219.535 90.9307C222.026 90.6424 225.002 91.3999 225.901 93.751C227.479 92.1597 228.759 90.2939 229.678 88.2448C230.193 87.0899 230.594 85.8044 230.297 84.5828C229.87 82.8206 228.162 81.7452 226.622 80.8527L221.974 78.1916C221.355 77.787 220.668 77.4967 219.946 77.3342C218.944 77.1735 217.939 77.5111 216.942 77.6853C213.965 78.2052 210.547 77.3936 208.119 79.2261C207.097 79.995 206.429 81.1265 205.783 82.2271L202.839 87.2329C202.61 87.5599 202.465 87.9395 202.419 88.3364C202.403 88.8873 202.761 89.365 202.946 89.8845C203.277 90.8299 203.032 91.9455 203.505 92.8236C204.293 94.2874 206.205 94.1811 207.498 94.8737C207.976 95.1297 208.831 96.1418 209.339 96.0378C210.217 95.865 210.571 94.1054 210.487 93.3793Z" fill="#3F3D56"/>
<defs>
<linearGradient id="paint0_linear" x1="234.225" y1="203.998" x2="234.225" y2="72.5203" gradientUnits="userSpaceOnUse">
<stop stop-color="#808080" stop-opacity="0.25"/>
<stop offset="0.54" stop-color="#808080" stop-opacity="0.12"/>
<stop offset="1" stop-color="#808080" stop-opacity="0.1"/>
</linearGradient>
</defs>
</svg>
