<svg width="360" height="210" viewBox="0 0 360 210" fill="none" xmlns="http://www.w3.org/2000/svg">
<path d="M101.016 162.613C101.016 162.613 195.765 83.5155 250.335 162.613H101.016Z" fill="#F2F2F2"/>
<path d="M256.495 210C280.732 210 300.379 206.937 300.379 203.159C300.379 199.381 280.732 196.318 256.495 196.318C232.259 196.318 212.611 199.381 212.611 203.159C212.611 206.937 232.259 210 256.495 210Z" fill="#F2F2F2"/>
<path d="M263.619 207.435C287.856 207.435 307.503 204.372 307.503 200.594C307.503 196.816 287.856 193.753 263.619 193.753C239.383 193.753 219.735 196.816 219.735 200.594C219.735 204.372 239.383 207.435 263.619 207.435Z" stroke="#3F3D56" stroke-miterlimit="10"/>
<path d="M282.281 129.82C282.925 130.054 283.615 130.135 284.295 130.057C284.976 129.979 285.63 129.744 286.204 129.371C286.779 128.997 287.259 128.495 287.607 127.904C287.954 127.314 288.16 126.65 288.207 125.966C288.255 125.282 288.143 124.597 287.88 123.964C287.618 123.331 287.212 122.767 286.694 122.318C286.177 121.868 285.562 121.545 284.898 121.374C284.235 121.202 283.54 121.188 282.87 121.331L282.981 123.609L281.903 121.656C280.846 122.153 280.029 123.05 279.632 124.15C279.491 124.535 279.405 124.938 279.377 125.347C279.309 126.307 279.556 127.263 280.08 128.07C280.604 128.877 281.377 129.491 282.281 129.82Z" fill="#57B894"/>
<path d="M287.613 156.243C287.233 154.305 288.881 152.588 290.509 151.471C292.137 150.355 294.039 149.258 294.595 147.363C295.393 144.64 293.015 142.146 291.164 139.996C289.791 138.4 288.612 136.646 287.651 134.773C287.233 134.037 286.949 133.233 286.811 132.398C286.665 131.191 287.052 129.99 287.443 128.839C288.744 125.003 290.135 121.2 291.616 117.429" stroke="#3F3D56" stroke-miterlimit="10"/>
<path d="M282.463 129.233C283.108 129.467 283.797 129.549 284.478 129.471C285.159 129.393 285.812 129.158 286.387 128.784C286.962 128.411 287.442 127.909 287.789 127.318C288.137 126.727 288.342 126.064 288.39 125.38C288.437 124.696 288.325 124.01 288.063 123.377C287.8 122.744 287.394 122.181 286.877 121.731C286.359 121.282 285.744 120.959 285.081 120.787C284.417 120.616 283.723 120.601 283.053 120.744L283.164 123.022L282.086 121.07C281.028 121.567 280.211 122.464 279.814 123.563C279.673 123.948 279.588 124.351 279.56 124.76C279.492 125.72 279.739 126.676 280.262 127.483C280.786 128.29 281.559 128.905 282.463 129.233V129.233Z" stroke="#3F3D56" stroke-miterlimit="10"/>
<path d="M287.072 116.642C287.325 115.944 287.749 115.322 288.306 114.831C288.862 114.341 289.533 113.998 290.257 113.835L290.621 116.001L291.297 113.726C292.235 113.74 293.144 114.052 293.893 114.616C294.642 115.181 295.193 115.969 295.465 116.867C295.737 117.765 295.717 118.726 295.408 119.611C295.099 120.497 294.516 121.262 293.744 121.794C292.972 122.327 292.05 122.601 291.113 122.576C290.175 122.551 289.27 122.228 288.527 121.655C287.785 121.081 287.244 120.287 286.982 119.386C286.721 118.485 286.752 117.524 287.072 116.642H287.072Z" fill="#57B894"/>
<path d="M287.315 115.86C287.568 115.162 287.992 114.54 288.549 114.049C289.105 113.559 289.776 113.216 290.5 113.053L290.864 115.219L291.54 112.944C292.478 112.958 293.387 113.27 294.136 113.834C294.885 114.399 295.436 115.187 295.708 116.085C295.981 116.983 295.961 117.944 295.651 118.829C295.342 119.715 294.759 120.48 293.987 121.012C293.215 121.545 292.294 121.819 291.356 121.794C290.418 121.769 289.513 121.446 288.77 120.873C288.028 120.299 287.487 119.505 287.225 118.604C286.964 117.703 286.995 116.742 287.315 115.86V115.86Z" stroke="#3F3D56" stroke-miterlimit="10"/>
<path d="M290.388 140.04C291.409 140.41 292.531 140.392 293.54 139.988C294.549 139.584 295.374 138.823 295.858 137.85C296.342 136.877 296.451 135.76 296.164 134.712C295.878 133.663 295.215 132.757 294.304 132.166L293.785 133.914L293.417 131.722C293.413 131.721 293.409 131.719 293.405 131.718C292.859 131.52 292.279 131.431 291.699 131.457C291.118 131.483 290.549 131.623 290.022 131.87C289.496 132.116 289.023 132.463 288.631 132.892C288.239 133.321 287.935 133.823 287.737 134.37C287.539 134.916 287.45 135.496 287.476 136.077C287.502 136.657 287.642 137.227 287.888 137.754C288.134 138.28 288.482 138.753 288.911 139.145C289.339 139.537 289.841 139.841 290.388 140.04Z" fill="#57B894"/>
<path d="M290.598 139.247C291.619 139.618 292.741 139.6 293.75 139.196C294.759 138.792 295.584 138.031 296.068 137.058C296.552 136.085 296.661 134.968 296.374 133.92C296.088 132.871 295.425 131.965 294.514 131.374L293.995 133.122L293.627 130.93C293.623 130.928 293.619 130.927 293.615 130.926C292.512 130.526 291.295 130.58 290.232 131.077C289.169 131.575 288.347 132.474 287.947 133.577C287.547 134.681 287.601 135.898 288.098 136.961C288.595 138.025 289.494 138.847 290.598 139.247V139.247Z" stroke="#3F3D56" stroke-miterlimit="10"/>
<path d="M285.78 147.39C285.956 148.39 286.469 149.298 287.235 149.964C288.001 150.63 288.973 151.012 289.987 151.046C291.001 151.08 291.996 150.764 292.805 150.152C293.614 149.539 294.188 148.667 294.43 147.681C294.673 146.696 294.569 145.657 294.137 144.739C293.704 143.821 292.969 143.079 292.055 142.639C291.141 142.198 290.103 142.086 289.116 142.32C288.129 142.554 287.252 143.12 286.633 143.924L288.604 146.892L285.91 145.317C285.701 145.987 285.657 146.698 285.78 147.39Z" fill="#57B894"/>
<path d="M285.963 146.803C286.138 147.803 286.652 148.712 287.418 149.377C288.184 150.043 289.156 150.425 290.17 150.459C291.184 150.493 292.179 150.178 292.988 149.565C293.797 148.952 294.371 148.08 294.613 147.095C294.856 146.109 294.752 145.07 294.319 144.152C293.887 143.234 293.152 142.493 292.238 142.052C291.324 141.612 290.286 141.499 289.299 141.733C288.311 141.967 287.435 142.533 286.815 143.337L288.787 146.306L286.093 144.73C285.884 145.401 285.839 146.112 285.963 146.803V146.803Z" stroke="#3F3D56" stroke-miterlimit="10"/>
<path d="M281.469 158.867C281.469 158.867 285.374 157.336 286.55 156.498C287.727 155.66 292.557 154.659 292.849 156.003C293.141 157.348 298.717 162.689 294.309 162.725C289.9 162.761 284.065 163.448 282.891 162.733C281.716 162.017 281.469 158.867 281.469 158.867Z" fill="#656380"/>
<path opacity="0.2" d="M294.387 162.257C289.979 162.293 284.144 162.981 282.969 162.265C282.075 161.72 281.718 159.764 281.599 158.862C281.517 158.866 281.469 158.867 281.469 158.867C281.469 158.867 281.716 162.017 282.891 162.733C284.065 163.449 289.9 162.761 294.309 162.725C295.581 162.715 296.021 162.262 295.997 161.591C295.82 161.996 295.334 162.249 294.387 162.257Z" fill="black"/>
<path d="M112.029 117.72H101.686C99.8205 117.72 98.3086 119.232 98.3086 121.098V159.378C98.3086 161.243 99.8205 162.755 101.686 162.755H112.029C113.894 162.755 115.406 161.243 115.406 159.378V121.098C115.406 119.232 113.894 117.72 112.029 117.72Z" fill="#1890FF"/>
<path d="M144.515 90.6414H134.171C132.306 90.6414 130.794 92.1537 130.794 94.0192V159.378C130.794 161.243 132.306 162.755 134.171 162.755H144.515C146.38 162.755 147.892 161.243 147.892 159.378V94.0192C147.892 92.1537 146.38 90.6414 144.515 90.6414Z" fill="#1890FF"/>
<path d="M177.001 71.8291H166.657C164.792 71.8291 163.28 73.3414 163.28 75.2069V159.378C163.28 161.243 164.792 162.755 166.657 162.755H177.001C178.866 162.755 180.378 161.243 180.378 159.378V75.2069C180.378 73.3414 178.866 71.8291 177.001 71.8291Z" fill="#1890FF"/>
<path d="M209.486 53.8718H199.143C197.278 53.8718 195.766 55.3841 195.766 57.2496V159.378C195.766 161.243 197.278 162.755 199.143 162.755H209.486C211.351 162.755 212.863 161.243 212.863 159.378V57.2496C212.863 55.3841 211.351 53.8718 209.486 53.8718Z" fill="#1890FF"/>
<path d="M241.972 22.5178H231.628C229.763 22.5178 228.251 24.0301 228.251 25.8956V159.378C228.251 161.243 229.763 162.755 231.628 162.755H241.972C243.837 162.755 245.349 161.243 245.349 159.378V25.8956C245.349 24.0301 243.837 22.5178 241.972 22.5178Z" fill="#1890FF"/>
<path d="M114.309 115.439H103.965C102.1 115.439 100.588 116.952 100.588 118.817V157.097C100.588 158.963 102.1 160.475 103.965 160.475H114.309C116.174 160.475 117.686 158.963 117.686 157.097V118.817C117.686 116.952 116.174 115.439 114.309 115.439Z" stroke="#3F3D56" stroke-miterlimit="10"/>
<path d="M146.795 88.3611H136.451C134.586 88.3611 133.074 89.8734 133.074 91.7389V157.097C133.074 158.963 134.586 160.475 136.451 160.475H146.795C148.66 160.475 150.172 158.963 150.172 157.097V91.7389C150.172 89.8734 148.66 88.3611 146.795 88.3611Z" stroke="#3F3D56" stroke-miterlimit="10"/>
<path d="M179.28 69.5488H168.937C167.071 69.5488 165.56 71.0611 165.56 72.9267V157.097C165.56 158.963 167.071 160.475 168.937 160.475H179.28C181.145 160.475 182.657 158.963 182.657 157.097V72.9267C182.657 71.0611 181.145 69.5488 179.28 69.5488Z" stroke="#3F3D56" stroke-miterlimit="10"/>
<path d="M211.766 51.5916H201.422C199.557 51.5916 198.045 53.1039 198.045 54.9694V157.097C198.045 158.963 199.557 160.475 201.422 160.475H211.766C213.631 160.475 215.143 158.963 215.143 157.097V54.9694C215.143 53.1039 213.631 51.5916 211.766 51.5916Z" stroke="#3F3D56" stroke-miterlimit="10"/>
<path d="M244.251 20.2375H233.907C232.042 20.2375 230.53 21.7498 230.53 23.6154V157.097C230.53 158.963 232.042 160.475 233.907 160.475H244.251C246.116 160.475 247.628 158.963 247.628 157.097V23.6154C247.628 21.7498 246.116 20.2375 244.251 20.2375Z" stroke="#3F3D56" stroke-miterlimit="10"/>
<path d="M298.351 162.898H53" stroke="#3F3D56" stroke-miterlimit="10"/>
<path d="M282.879 135.556C282.879 135.556 285.56 145.213 282.164 146.644C278.767 148.074 279.839 135.914 279.839 135.914L282.879 135.556Z" fill="#A0616A"/>
<path d="M258.564 197.431C258.564 197.431 256.061 197.252 255.167 197.789C254.9 197.945 254.601 198.042 254.293 198.073C253.984 198.104 253.673 198.068 253.38 197.968C253.38 197.968 249.446 197.61 250.877 199.577C252.307 201.544 253.737 202.259 253.737 203.154C253.737 204.048 259.637 204.048 259.816 203.154C259.994 202.259 260.173 197.61 259.816 197.431C259.458 197.252 258.564 197.431 258.564 197.431Z" fill="#575A89"/>
<path d="M265.18 197.431C265.18 197.431 267.683 197.252 268.576 197.789C268.844 197.945 269.142 198.042 269.451 198.073C269.759 198.104 270.071 198.068 270.364 197.968C270.364 197.968 274.297 197.61 272.867 199.577C271.437 201.544 270.007 202.259 270.007 203.154C270.007 204.048 264.107 204.048 263.928 203.154C263.749 202.259 263.571 197.61 263.928 197.431C264.286 197.252 265.18 197.431 265.18 197.431Z" fill="#575A89"/>
<path d="M251.235 133.589C251.235 133.589 249.983 161.844 250.698 163.275C251.413 164.705 253.916 188.847 253.559 190.278C253.201 191.708 251.413 197.61 253.559 198.504C255.704 199.398 260.352 198.504 260.352 198.504C260.352 198.504 261.604 191.351 261.068 187.595C260.531 183.84 260.352 168.103 260.352 168.103L263.928 151.651L265.18 167.209C265.18 167.209 265.537 188.489 263.034 192.781C260.531 197.073 263.928 198.862 263.928 198.862C263.928 198.862 270.722 199.756 271.437 199.577C272.152 199.398 270.901 192.424 271.437 189.384C271.973 186.344 273.225 169.355 274.297 165.242C275.37 161.129 281.449 138.239 276.979 133.589C272.51 128.94 251.235 133.589 251.235 133.589Z" fill="#3F3D56"/>
<path d="M264.286 76.5426C267.742 76.5426 270.543 73.7404 270.543 70.2837C270.543 66.8269 267.742 64.0247 264.286 64.0247C260.83 64.0247 258.028 66.8269 258.028 70.2837C258.028 73.7404 260.83 76.5426 264.286 76.5426Z" fill="#A0616A"/>
<path d="M259.637 73.1449C259.637 73.1449 260.709 81.7287 260.173 81.9075C259.637 82.0863 269.648 81.9075 269.648 81.9075C269.648 81.9075 267.682 76.7215 269.648 72.6084L259.637 73.1449Z" fill="#A0616A"/>
<path d="M259.637 80.1192C259.637 80.1192 263.994 75.8273 269.145 80.1192L269.479 81.3985L266.788 81.371H259.637V80.1192Z" fill="#F2F2F2"/>
<path d="M280.912 135.02C280.499 135.102 279.487 135.27 278.168 135.471C273.775 136.134 265.991 137.139 265.716 136.45C265.358 135.556 264.107 132.337 263.213 133.768C262.319 135.199 262.855 136.45 259.101 136.629C256.546 136.751 252.833 136.375 250.777 135.785C249.811 135.508 249.21 135.184 249.268 134.841C249.446 133.768 251.413 113.382 251.413 111.414C251.413 109.447 252.128 99.9694 252.128 99.9694L246.99 89.8567L246.586 89.0609C246.586 89.0609 247.122 87.0938 248.731 86.7361C250.34 86.3785 258.028 81.9078 258.028 81.9078C258.028 81.9078 259.637 79.4042 262.676 79.583C265.716 79.7618 266.431 78.51 270.543 81.9078C270.543 81.9078 275.549 84.0537 277.336 85.1267C279.124 86.1997 281.091 86.1997 281.27 87.9879C281.305 88.3474 281.11 89.0395 280.776 89.9139C279.551 93.1185 276.457 98.7892 275.972 99.6726C275.929 99.7495 275.906 99.7906 275.906 99.7906C275.906 99.7906 275.813 103.006 275.911 106.77V106.779C276.008 110.39 276.28 114.505 276.979 116.779C278.409 121.429 282.7 134.662 280.912 135.02Z" fill="#575A89"/>
<path d="M272.408 67.7145C272.283 67.1447 272.043 66.6067 271.701 66.1338C271.565 64.8258 271.129 63.567 270.427 62.4554C270.152 61.9346 269.761 61.4836 269.285 61.137C268.739 60.8229 268.117 60.6677 267.488 60.689C267.374 60.6871 267.169 60.7217 266.984 60.7301C266.866 60.6935 266.747 60.6608 266.627 60.6301C266.557 60.4748 266.419 60.0222 266.38 60.0529L265.859 60.4672C265.639 60.4289 265.417 60.3991 265.195 60.3754C265.114 60.1444 265.033 59.9134 264.952 59.6824C264.82 59.889 264.705 60.1055 264.607 60.3299C264.386 60.3191 264.164 60.3153 263.943 60.3185L263.5 59.8927C263.474 60.0115 263.413 60.12 263.327 60.2051C263.24 60.2901 263.13 60.348 263.011 60.3717C262.807 60.3926 262.604 60.4199 262.401 60.4525C262.385 60.4524 262.368 60.4525 262.352 60.4521C261.261 60.4249 260.087 60.3759 259.174 60.9752C258.747 61.2684 258.4 61.6631 258.163 62.1237C258.051 62.1996 257.939 62.275 257.83 62.3556C257.464 62.6053 257.147 62.9199 256.894 63.2838C256.71 63.5976 256.571 63.9355 256.48 64.2876C256.132 65.3475 255.97 66.4599 256.003 67.5751C256.04 68.6979 256.464 69.7734 257.202 70.62C257.67 71.123 258.265 71.4944 258.734 71.9968C259.699 73.0313 259.88 74.474 260.705 75.5685C261.578 76.7262 263.171 77.488 264.571 77.7063C265.412 77.8332 266.27 77.7924 267.096 77.5865C267.921 77.3806 268.698 77.0135 269.381 76.5063C269.709 76.2779 269.987 75.9858 270.2 75.6474C270.686 74.8072 270.48 73.751 270.66 72.7973C270.998 71.0097 272.704 69.5096 272.408 67.7145Z" fill="#3F3D56"/>
<path d="M248.553 136.093C248.553 136.093 251.234 145.749 247.837 147.18C244.441 148.611 245.513 136.45 245.513 136.45L248.553 136.093Z" fill="#A0616A"/>
<path opacity="0.1" d="M251.769 114.179C251.769 114.179 250.596 131.59 250.777 135.785C249.811 135.508 249.211 135.184 249.268 134.841C249.447 133.768 251.413 113.381 251.413 111.414C251.413 109.447 252.128 99.9691 252.128 99.9691L246.99 89.8563C247.072 89.3556 247.123 89.0605 247.123 89.0605L249.715 94.5148L253.38 95.4984L251.769 114.179Z" fill="black"/>
<path d="M247.837 87.9878L246.586 89.0608C246.586 89.0608 244.977 98.5387 245.156 100.863C245.334 103.188 241.401 138.417 244.441 138.417C247.48 138.417 250.877 137.881 250.34 136.629C249.804 135.377 251.233 114.179 251.233 114.179L252.843 95.4986L247.837 87.9878Z" fill="#575A89"/>
<path opacity="0.1" d="M280.776 89.9136C279.552 93.1182 276.457 98.7889 275.973 99.6723C275.987 97.3851 275.996 95.7667 275.996 95.7667L279.75 88.0771L280.555 87.4512C280.555 87.4512 280.641 88.3972 280.776 89.9136Z" fill="black"/>
<path opacity="0.1" d="M280.912 135.02C280.499 135.102 279.487 135.27 278.167 135.471C277.483 130.406 275.652 115.842 275.768 114.471C275.825 113.795 275.873 110.454 275.911 106.779C276.008 110.39 276.279 114.505 276.978 116.779C278.409 121.429 282.699 134.662 280.912 135.02Z" fill="black"/>
<path d="M278.588 86.7361L281.27 87.4514C281.27 87.4514 283.058 107.301 283.236 110.699C283.415 114.097 285.561 135.02 285.203 135.914C284.845 136.808 279.303 138.06 279.124 137.166C278.946 136.272 276.347 116.096 276.484 114.47C276.621 112.845 275.728 96.0352 275.728 96.0352L278.588 86.7361Z" fill="#575A89"/>
<path d="M108.995 98.1949L141.481 71.1166L174.251 52.5892L206.737 34.632L239.222 3.27808" stroke="#3F3D56" stroke-miterlimit="10"/>
<path d="M108.139 102.755C109.871 102.755 111.274 101.352 111.274 99.62C111.274 97.8884 109.871 96.4846 108.139 96.4846C106.408 96.4846 105.005 97.8884 105.005 99.62C105.005 101.352 106.408 102.755 108.139 102.755Z" fill="#F2F2F2"/>
<path d="M140.626 75.677C142.357 75.677 143.76 74.2733 143.76 72.5416C143.76 70.81 142.357 69.4062 140.626 69.4062C138.895 69.4062 137.491 70.81 137.491 72.5416C137.491 74.2733 138.895 75.677 140.626 75.677Z" fill="#F2F2F2"/>
<path d="M173.396 57.1497C175.127 57.1497 176.531 55.7459 176.531 54.0143C176.531 52.2827 175.127 50.8789 173.396 50.8789C171.665 50.8789 170.262 52.2827 170.262 54.0143C170.262 55.7459 171.665 57.1497 173.396 57.1497Z" fill="#F2F2F2"/>
<path d="M205.882 39.1924C207.613 39.1924 209.016 37.7887 209.016 36.057C209.016 34.3254 207.613 32.9216 205.882 32.9216C204.15 32.9216 202.747 34.3254 202.747 36.057C202.747 37.7887 204.15 39.1924 205.882 39.1924Z" fill="#F2F2F2"/>
<path d="M238.367 7.83841C240.098 7.83841 241.502 6.43465 241.502 4.70302C241.502 2.97139 240.098 1.56763 238.367 1.56763C236.636 1.56763 235.232 2.97139 235.232 4.70302C235.232 6.43465 236.636 7.83841 238.367 7.83841Z" fill="#F2F2F2"/>
<path d="M108.995 101.33C110.726 101.33 112.129 99.9266 112.129 98.195C112.129 96.4633 110.726 95.0596 108.995 95.0596C107.264 95.0596 105.86 96.4633 105.86 98.195C105.86 99.9266 107.264 101.33 108.995 101.33Z" stroke="#3F3D56" stroke-miterlimit="10"/>
<path d="M141.48 74.2517C143.211 74.2517 144.615 72.848 144.615 71.1163C144.615 69.3847 143.211 67.981 141.48 67.981C139.749 67.981 138.346 69.3847 138.346 71.1163C138.346 72.848 139.749 74.2517 141.48 74.2517Z" stroke="#3F3D56" stroke-miterlimit="10"/>
<path d="M174.251 55.7244C175.982 55.7244 177.385 54.3206 177.385 52.589C177.385 50.8574 175.982 49.4536 174.251 49.4536C172.52 49.4536 171.116 50.8574 171.116 52.589C171.116 54.3206 172.52 55.7244 174.251 55.7244Z" stroke="#3F3D56" stroke-miterlimit="10"/>
<path d="M206.736 37.7674C208.467 37.7674 209.871 36.3636 209.871 34.632C209.871 32.9003 208.467 31.4966 206.736 31.4966C205.005 31.4966 203.602 32.9003 203.602 34.632C203.602 36.3636 205.005 37.7674 206.736 37.7674Z" stroke="#3F3D56" stroke-miterlimit="10"/>
<path d="M239.221 7.41336C240.953 7.41336 242.356 6.0096 242.356 4.27797C242.356 2.54634 240.953 1.14258 239.221 1.14258C237.49 1.14258 236.087 2.54634 236.087 4.27797C236.087 6.0096 237.49 7.41336 239.221 7.41336Z" stroke="#3F3D56" stroke-miterlimit="10"/>
</svg>
