<svg width="358" height="257" viewBox="0 0 358 257" fill="none" xmlns="http://www.w3.org/2000/svg">
<path opacity="0.1" d="M249.953 80.7673C250.228 80.3645 250.379 79.8863 250.388 79.3942C250.388 76.4127 244.486 74 237.206 74C229.925 74 224.024 76.4127 224.024 79.3942C224.037 79.9517 224.228 80.4893 224.567 80.9242C216.46 81.856 211 83.6017 211 85.6058C211 88.584 223.071 91 238 91C252.929 91 265 88.584 265 85.6058C264.984 83.4971 258.847 81.65 249.953 80.7673Z" fill="#1890FF"/>
<path opacity="0.2" fill-rule="evenodd" clip-rule="evenodd" d="M306.181 220.125C307.316 218.711 308.137 216.851 308.44 214.746C308.64 213.352 308.592 211.997 308.336 210.753L301.825 210.369L295.679 208.947C295.086 210.065 294.66 211.348 294.46 212.737C294.157 214.842 294.422 216.859 295.113 218.536C293.978 219.95 293.156 221.811 292.854 223.915C292.552 226.016 292.815 228.029 293.502 229.704C292.278 231.264 291.495 233.124 291.233 235.089C291.137 235.784 291.099 236.485 291.118 237.185C295.766 237.26 300.433 237.416 305.122 237.654C305.154 237.473 305.186 237.284 305.212 237.094C305.512 235.145 305.288 233.151 304.564 231.316C305.704 229.9 306.53 228.035 306.834 225.924C307.136 223.819 306.872 221.802 306.181 220.125Z" fill="#1890FF"/>
<path opacity="0.3" d="M337.375 127.706C338.412 126.728 339.379 125.681 340.271 124.572L323.813 119.468L342.023 122.183C344.32 118.681 345.866 114.755 346.569 110.644C347.271 106.533 347.114 102.324 346.108 98.2748L319.831 107.309L344.765 94.1761C343.176 90.2811 340.789 86.7501 337.755 83.803C334.72 80.8559 331.102 78.5559 327.126 77.0462C323.149 75.5364 318.9 74.8493 314.642 75.0276C310.385 75.2059 306.21 76.2458 302.378 78.0825C298.546 79.9192 295.139 82.5134 292.37 85.7035C289.6 88.8937 287.526 92.6114 286.279 96.6252C285.031 100.639 284.635 104.863 285.117 109.034C285.598 113.205 286.946 117.233 289.077 120.869C287.462 122.386 286.018 124.071 284.769 125.893L305.016 140.186L282.814 129.172C280.48 133.71 279.331 138.749 279.472 143.833C279.613 148.918 281.039 153.888 283.621 158.293C279.405 162.252 276.405 167.301 274.964 172.861C273.524 178.421 273.7 184.268 275.474 189.734C277.248 195.199 280.547 200.063 284.995 203.769C289.442 207.475 294.859 209.873 300.625 210.689C306.391 211.505 312.274 210.707 317.601 208.385C322.928 206.063 327.484 202.311 330.749 197.559C334.013 192.806 335.854 187.245 336.061 181.51C336.268 175.776 334.833 170.099 331.92 165.13C336.957 160.398 340.233 154.136 341.223 147.349C342.213 140.562 340.859 133.644 337.378 127.706H337.375Z" fill="#1890FF"/>
<path opacity="0.2" d="M279.769 138.314C278.768 145.133 280.121 152.087 283.609 158.048C279.398 162.026 276.402 167.098 274.963 172.684C273.524 178.269 273.701 184.144 275.472 189.635C277.243 195.126 280.538 200.012 284.98 203.735C289.422 207.458 294.832 209.867 300.59 210.688C306.349 211.508 312.224 210.705 317.544 208.373C322.864 206.04 327.414 202.271 330.675 197.496C333.935 192.722 335.774 187.135 335.98 181.373C336.187 175.612 334.754 169.909 331.844 164.917C336.706 160.33 280.262 134.901 279.769 138.314Z" fill="#1890FF"/>
<path opacity="0.2" fill-rule="evenodd" clip-rule="evenodd" d="M56.1948 208.394C56.8523 206.938 57.1008 205.122 56.7945 203.227C56.5738 201.862 56.0925 200.626 55.4356 199.603L50.8766 201.036L45.6594 201.753C45.4731 202.776 45.4563 203.888 45.6408 205.03C45.8716 206.457 46.387 207.743 47.0901 208.792C46.4434 210.236 46.1971 212.029 46.4934 213.902C46.7718 215.661 47.4839 217.205 48.4484 218.359L48.4444 218.369C47.9077 219.893 47.7782 221.531 48.0687 223.121C48.167 223.683 48.3127 224.235 48.5042 224.773C52.039 223.635 55.6103 222.557 59.2182 221.539C59.1982 221.389 59.1759 221.235 59.1485 221.081C58.8936 219.5 58.2286 218.014 57.22 216.771C57.7182 215.419 57.8857 213.812 57.6214 212.141C57.3967 210.721 56.8894 209.441 56.1948 208.394Z" fill="#1890FF"/>
<path opacity="0.3" d="M58.7566 131.232C59.2627 130.266 59.7025 129.267 60.0729 128.241L47.1465 128.442L60.7514 126.056C61.6049 122.743 61.7425 119.287 61.1551 115.917C60.6426 112.935 59.5657 110.076 57.9815 107.494L41.4242 120.463L56.0511 104.798C50.8806 98.5617 42.6738 95.2355 34.2052 96.7864C21.5472 99.0979 13.115 111.42 15.3503 124.302C16.2326 129.506 18.8387 134.267 22.7539 137.827C21.9623 139.334 21.3339 140.92 20.8794 142.559L38.6843 148.201L20.2589 145.443C19.875 147.999 19.9055 150.6 20.349 153.146C21.2313 158.35 23.8374 163.111 27.7527 166.671C25.281 171.376 24.438 176.761 25.3542 181.991C27.5895 194.875 39.6548 203.439 52.3042 201.121C64.9536 198.803 73.3943 186.483 71.1591 173.599C70.2759 168.397 67.6699 163.637 63.7554 160.077C66.2267 155.371 67.0697 149.986 66.1539 144.755C65.2724 139.553 62.6687 134.793 58.7566 131.232Z" fill="#1890FF"/>
<path opacity="0.2" d="M20.5668 153.648C21.4453 158.798 24.0403 163.509 27.9388 167.033C25.4777 171.689 24.6383 177.018 25.5506 182.193C27.7764 194.944 39.7901 203.419 52.3855 201.125C64.9808 198.831 73.3855 186.639 71.1598 173.889C70.2804 168.74 67.6855 164.03 63.7878 160.506C66.1589 156.02 20.1135 151.058 20.5668 153.648Z" fill="#1890FF"/>
<path d="M32 196C32 212.584 42.2867 226 55 226L32 196Z" fill="#46455B"/>
<path d="M55 226C55 208.866 66.6282 195 81 195L55 226Z" fill="#1899FF"/>
<path d="M40 197C40 213.031 46.708 226 55 226L40 197Z" fill="#1899FF"/>
<path d="M55 226C55 204.444 68.8655 187 86 187L55 226Z" fill="#46455B"/>
<path opacity="0.2" d="M164.5 244C255.351 244 329 241.761 329 239C329 236.239 255.351 234 164.5 234C73.6491 234 0 236.239 0 239C0 241.761 73.6491 244 164.5 244Z" fill="#1890FF"/>
<path opacity="0.1" d="M52 231C55.3137 231 58 230.552 58 230C58 229.448 55.3137 229 52 229C48.6863 229 46 229.448 46 230C46 230.552 48.6863 231 52 231Z" fill="#1899FF"/>
<path d="M48 224.714C48 224.714 51.4954 224.618 52.548 223.935C53.6006 223.252 57.9191 222.444 58.1814 223.533C58.4437 224.621 63.4279 228.972 59.493 228.999C55.5582 229.026 50.3314 228.441 49.2788 227.86C48.2263 227.278 48 224.714 48 224.714Z" fill="#2E58DB"/>
<path opacity="0.2" d="M59.5597 228.648C55.6245 228.673 50.3939 228.125 49.3445 227.583C48.5444 227.171 48.223 225.685 48.1181 225H48C48 225 48.223 227.393 49.2724 227.936C50.3218 228.479 55.5458 229.027 59.4875 228.999C60.6255 228.999 61.019 228.648 60.9993 228.139C60.8419 228.451 60.4057 228.643 59.5597 228.648Z" fill="black"/>
<path opacity="0.1" d="M124 21C123.915 19.8811 123.531 18.8131 122.896 17.9255C122.26 17.038 121.4 16.3691 120.421 16C119.922 16.1274 119.444 16.3321 119 16.6075C119.149 16.6075 119.298 16.6075 119.446 16.644C120.524 16.785 121.537 17.277 122.35 18.055C123.163 18.833 123.739 19.86 124 21Z" fill="#1890FF"/>
<path opacity="0.1" d="M125 17C124.914 15.6576 124.53 14.3764 123.895 13.3115C123.26 12.2466 122.4 11.4437 121.421 11C120.922 11.1615 120.444 11.4144 120 11.7509C120.149 11.7509 120.298 11.7509 120.449 11.7947C121.524 11.9625 122.535 12.55 123.347 13.4794C124.16 14.4088 124.736 15.6364 125 17Z" fill="#1890FF"/>
<path opacity="0.1" d="M125 10C124.947 9.32794 124.715 8.68708 124.335 8.15475C123.954 7.62242 123.44 7.22137 122.854 7C122.554 7.07913 122.267 7.20492 122 7.37348C122.089 7.37348 122.179 7.37348 122.279 7.39777C122.921 7.48293 123.524 7.77691 124.009 8.24123C124.495 8.70555 124.84 9.31856 125 10Z" fill="#1890FF"/>
<path opacity="0.1" d="M127.825 20C127.937 21.5422 127.545 23.0776 126.722 24.3254C125.899 25.5732 124.698 26.4501 123.341 26.7957C122.95 27.2673 122.498 27.6717 122 27.9957C122.898 28.0321 123.791 27.836 124.608 27.4227C125.426 27.0095 126.146 26.3906 126.711 25.6149C127.276 24.8392 127.671 23.9281 127.864 22.9535C128.058 21.979 128.044 20.9678 127.825 20Z" fill="#1890FF"/>
<path d="M256 189C256 220.504 276.126 246 301 246L256 189Z" fill="#46455B"/>
<path d="M301 246C301 213.939 322.913 188 350 188L301 246Z" fill="#1899FF"/>
<path d="M272 192C272 221.847 284.968 246 301 246L272 192Z" fill="#1899FF"/>
<path d="M301 246C301 205.097 326.493 172 358 172L301 246Z" fill="#46455B"/>
<path opacity="0.1" d="M299 257C305.075 257 310 256.105 310 255C310 253.895 305.075 253 299 253C292.925 253 288 253.895 288 255C288 256.105 292.925 257 299 257Z" fill="#1899FF"/>
<path d="M291 246.431C291 246.431 297.449 246.237 299.394 244.874C301.338 243.511 309.316 241.882 309.798 244.069C310.279 246.256 319.49 254.939 312.21 254.998C304.93 255.056 295.291 253.882 293.35 252.726C291.409 251.571 291 246.431 291 246.431Z" fill="#2E58DB"/>
<path opacity="0.2" d="M312.339 254.297C305.059 254.351 295.419 253.254 293.478 252.174C292.002 251.343 291.412 248.374 291.218 247H291C291 247 291.409 251.786 293.35 252.874C295.291 253.963 304.927 255.061 312.21 254.997C314.31 254.982 315.038 254.294 314.998 253.275C314.715 253.918 313.914 254.285 312.339 254.297Z" fill="black"/>
<path opacity="0.1" d="M256.978 16.7673C257.253 16.3645 257.405 15.8863 257.414 15.3942C257.414 12.4127 251.512 10 244.231 10C236.951 10 231.049 12.4127 231.049 15.3942C231.055 15.9487 231.237 16.486 231.567 16.9242C223.46 17.856 218 19.6017 218 21.6058C218 24.584 230.071 27 245 27C259.929 27 272 24.584 272 21.6058C272.01 19.4971 265.873 17.65 256.978 16.7673Z" fill="#1890FF"/>
<path opacity="0.1" d="M93.6744 22.7673C93.9543 22.3645 94.1087 21.8863 94.1176 21.3942C94.1176 18.4127 88.1065 16 80.6912 16C73.2759 16 67.2647 18.4127 67.2647 21.3942C67.2781 21.9517 67.4725 22.4893 67.8179 22.9242C59.5615 23.856 54 25.6017 54 27.6058C54 30.584 66.3103 33 81.5 33C96.6897 33 109 30.584 109 27.6058C108.984 25.4971 102.733 23.65 93.6744 22.7673Z" fill="#1890FF"/>
<path opacity="0.2" d="M230.188 168V160.406L234.038 163.906L235 163L229.5 158L224 163L224.962 163.872L228.812 160.406V168H230.188Z" fill="#1899FF"/>
<path opacity="0.2" d="M120.625 194V186.406L124.125 189.906L125 189L120 184L115 189L115.875 189.872L119.375 186.406V194H120.625Z" fill="#1899FF"/>
<path opacity="0.2" d="M192.625 217V209.406L196.125 212.906L197 212L192 207L187 212L187.875 212.872L191.375 209.406V217H192.625Z" fill="#1899FF"/>
<g filter="url(#filter0_dd)">
<path d="M267.04 115.128L230.224 152.008H230.154C214.396 136.324 192.773 126.574 168.818 126.574C144.863 126.574 123.169 136.324 107.411 152.008H107.34L70.4541 115.128L168.747 16.8525L267.04 115.128Z" fill="url(#paint0_linear)"/>
</g>
<g filter="url(#filter1_dd)">
<path d="M219.342 162.817L168.818 213.333L118.223 162.817C131.083 149.818 149.032 141.834 168.747 141.834C172.21 141.834 175.531 142.046 178.852 142.54C194.61 144.731 208.743 152.078 219.342 162.817Z" fill="url(#paint1_linear)"/>
</g>
<path d="M140.836 101.888C140.218 99.8518 140.122 97.5892 138.939 95.833C138.819 95.6232 138.646 95.4491 138.437 95.3285C138.183 95.2291 137.907 95.2002 137.639 95.2448C136.771 95.3175 135.91 95.4117 135.049 95.5391C134.808 95.5684 134.528 95.6396 134.43 95.8661C134.418 95.8903 134.41 95.9162 134.406 95.9429C133.285 94.9705 132.369 93.6808 131.18 92.7906C131.327 92.7209 131.471 92.6553 131.623 92.5961C131.61 92.4904 131.561 92.3965 131.527 92.2971C131.523 92.2643 131.501 92.2374 131.49 92.2092C131.479 92.1809 131.441 92.0747 131.41 92.0082C131.38 91.9416 131.38 91.9416 131.361 91.9106C131.335 91.8474 131.305 91.7856 131.272 91.7255C131.268 91.6927 131.239 91.663 131.22 91.632L131.12 91.4482L131.065 91.3625C131.028 91.3005 130.991 91.2384 130.95 91.1805L130.897 91.1057C130.856 91.0405 130.811 90.9757 130.766 90.9109L130.721 90.8498C130.672 90.7818 130.62 90.7143 130.57 90.6427C130.558 90.632 130.548 90.6196 130.54 90.6057C130.482 90.5277 130.421 90.4501 130.36 90.3762C129.862 89.7492 129.321 89.1385 128.897 88.484C128.154 87.3323 127.788 85.9754 127.231 84.7195C126.675 83.4636 125.816 82.2224 124.56 81.7436C123.952 81.522 123.155 81.3568 123.021 80.7185C122.994 80.5115 123.013 80.301 123.075 80.1018C123.188 79.6638 123.338 79.2362 123.522 78.8231C123.593 78.674 123.667 78.5244 123.741 78.3748L123.802 78.2675C123.862 78.1566 123.926 78.0452 123.991 77.9411L124.071 77.8093C124.136 77.7052 124.206 77.608 124.275 77.5071L124.36 77.3894C124.459 77.2554 124.557 77.125 124.662 76.9828C124.762 76.884 124.836 76.7618 124.877 76.6273C124.894 76.4972 124.884 76.3651 124.848 76.2388C124.663 75.2039 125.091 74.1642 125.593 73.2523C126.096 72.3403 126.713 71.4588 126.939 70.4363C126.965 70.3185 126.984 70.2015 126.999 70.0813C127.005 70.0429 127.009 70.0042 127.011 69.9653C127.02 69.8865 127.025 69.8082 127.03 69.7263L127.036 69.5924C127.027 69.5196 127.036 69.4445 127.035 69.3744L127.018 69.2323L126.991 69.0173L126.974 68.8752C126.966 68.8059 126.957 68.7331 126.948 68.6602C126.939 68.5873 126.937 68.5691 126.931 68.5217C126.925 68.4744 126.912 68.3687 126.885 68.2944L126.869 68.1705C126.859 68.0831 126.822 67.9951 126.8 67.909C126.797 67.8798 126.793 67.8507 126.79 67.8216C126.758 67.7046 126.721 67.5858 126.68 67.4652C126.411 66.7123 126.094 65.9778 125.73 65.2662C125.529 64.8264 125.29 64.4052 125.014 64.0076C125.146 63.9656 125.281 63.9195 125.411 63.8666C125.284 63.7123 125.164 63.5516 125.053 63.3853C125.741 62.0475 126.203 60.6053 126.421 59.117C126.504 58.0626 126.499 57.0032 126.404 55.9498C126.219 52.7699 126.035 49.575 125.388 46.459L125.373 46.3351C125.389 45.6469 125.312 44.9598 125.146 44.292C124.899 42.9759 124.35 41.7352 123.541 40.6679C122.698 39.6393 121.412 38.798 120.098 38.8253C119.914 39.0923 119.704 39.3409 119.471 39.5676C119.039 39.2723 118.698 38.8617 118.487 38.3824C119.973 37.9596 121.279 37.0608 122.204 35.8241C123.129 34.5873 123.623 33.081 123.609 31.5365C123.595 31.4236 123.606 31.3038 123.6 31.19C123.594 31.1426 123.588 31.0953 123.582 31.0479C123.577 31.0005 123.566 30.9131 123.558 30.8475C123.55 30.7819 123.543 30.7273 123.536 30.6653L123.517 30.5159C123.509 30.4467 123.5 30.3738 123.492 30.3046C123.483 30.2354 123.482 30.2281 123.478 30.1916C123.473 30.1552 123.458 30.0313 123.427 29.9575C123.425 29.9293 123.422 29.9014 123.417 29.8737L123.353 29.6226L123.346 29.568C123.335 29.4769 123.295 29.3893 123.265 29.3005L123.262 29.2713C123.231 29.1752 123.198 29.0831 123.16 28.9879C122.916 28.3446 122.58 27.7404 122.161 27.1944C122.367 26.5158 122.471 25.8101 122.467 25.1008C122.452 24.9733 122.462 24.8463 122.455 24.7325C122.449 24.6186 122.436 24.5721 122.426 24.492C122.416 24.4118 122.416 24.4118 122.412 24.3754C122.399 24.2697 122.386 24.1641 122.374 24.062C122.37 24.0514 122.369 24.0403 122.37 24.0292C122.103 22.2846 121.199 20.7008 119.833 19.5835C119.943 19.3356 120.03 19.0773 120.09 18.8125C120.109 18.7324 120.126 18.6528 120.138 18.5699C120.15 18.4907 120.163 18.4152 120.172 18.3364L120.17 18.3182L120.188 18.1052C120.185 18.0934 120.183 18.0811 120.184 18.0688C120.174 17.9886 120.189 17.9017 120.19 17.8165C120.191 17.7314 120.169 17.6453 120.181 17.5588C120.177 17.5333 120.174 17.5042 120.171 17.4786C120.168 17.4531 120.156 17.3584 120.149 17.3001L120.138 17.2127C120.131 17.1544 120.124 17.0924 120.116 17.0341C120.109 16.9758 120.11 16.9831 120.107 16.9576C119.913 15.8826 119.322 14.9201 118.45 14.262C117.578 13.6038 116.49 13.2983 115.403 13.4064C114.316 13.5145 113.309 14.0282 112.584 14.8452C111.859 15.6622 111.468 16.7223 111.49 17.8144C111.491 18.2612 111.559 18.7054 111.692 19.1321C110.696 19.7783 109.877 20.6638 109.312 21.7078C108.746 22.7517 108.451 23.9208 108.454 25.1082C108.456 25.5055 108.491 25.902 108.558 26.2936C108.05 27.3569 107.812 28.5292 107.865 29.7065C107.871 29.7502 107.876 29.7939 107.881 29.8376C107.899 29.9834 107.899 30.135 107.917 30.2808C108.046 31.3603 108.42 32.3962 109.01 33.3092C109.601 34.2222 110.392 34.9881 111.324 35.5484C111.75 36.0792 112.279 36.5178 112.88 36.8376C113.016 37.1221 113.127 37.4178 113.213 37.7214C113.305 38.1324 113.302 38.5588 113.204 38.9685C113.107 39.3782 112.918 39.7604 112.652 40.0865C112.511 40.2368 112.349 40.3675 112.2 40.5114C112.029 40.4843 111.854 40.5058 111.694 40.5733C109.886 41.3933 108.228 42.7829 107.583 44.6774C107.441 45.1078 107.342 45.551 107.286 46.0006L107.203 46.1698C106.28 48.0965 105.699 50.1698 105.489 52.2962C105.382 53.3854 105.367 54.504 104.989 55.5302C104.895 55.7462 104.824 55.9718 104.779 56.203C104.778 56.5477 104.806 56.8919 104.86 57.2322C104.885 57.8578 104.592 58.4521 104.546 59.0753C104.517 59.4486 104.576 59.8111 104.559 60.1831C104.462 60.8303 104.308 61.4677 104.1 62.0882C103.845 63.2066 103.992 64.3831 103.839 65.5223C103.827 65.7084 103.77 65.8889 103.674 66.049C103.468 66.2546 103.229 66.4239 102.966 66.5497C102.781 66.6997 102.63 66.8872 102.523 67.0998C102.416 67.3124 102.355 67.5454 102.344 67.7833C102.326 68.2626 102.375 68.7421 102.492 69.2074L102.86 71.0374L100.867 71.917L97.5972 73.3704C96.6327 73.7437 95.7306 74.2616 94.9221 74.9065C94.2093 75.5444 93.6853 76.3656 93.4074 77.2808C93.1735 78.2282 93.0675 79.2025 93.092 80.178C93.0933 82.9152 92.8339 85.6464 92.3172 88.3344C92.272 88.5396 92.2236 88.7489 92.1748 88.9546L92.016 89.562C92.0026 89.6043 91.9893 89.6466 91.9796 89.6884L91.8394 90.1752C91.776 90.3827 91.7085 90.5869 91.6373 90.7916L99.917 92.4722C99.9286 92.5669 99.9593 92.6667 99.9877 92.7779C100.503 94.6971 100.611 96.6957 101.105 98.6212C101.178 98.9424 101.291 99.2529 101.444 99.545C101.263 99.7446 101.145 99.9931 101.105 100.259C101.067 100.687 101.105 101.118 101.22 101.532C101.433 102.519 101.643 103.507 101.856 104.494C101.944 104.852 101.988 105.219 101.99 105.587C101.972 106.259 101.664 106.885 101.533 107.54C101.402 108.196 101.512 109.004 102.08 109.323C102.277 109.425 102.497 109.475 102.719 109.467C102.941 109.46 103.157 109.397 103.347 109.282C103.727 109.049 104.048 108.733 104.289 108.358C105.671 106.384 106.096 103.895 107.088 101.692C107.35 101.18 107.574 100.649 107.759 100.105C107.882 99.6866 107.939 99.2506 108.028 98.8219C108.152 98.2503 108.316 97.6878 108.517 97.1387C108.631 96.8253 109.123 96.044 108.952 95.7321C108.679 95.1922 106.435 94.9634 105.886 94.8531C105.53 94.7439 105.146 94.7735 104.812 94.9361C104.763 94.9677 104.717 95.0055 104.678 95.0487L104.198 92.663C104.518 92.5942 104.834 92.5149 105.144 92.4215C105.089 91.9697 105.023 91.5156 104.945 91.0591C104.894 90.6438 104.824 90.227 104.762 89.8093C104.616 88.7918 104.469 87.7742 104.321 86.7753C104.242 86.1855 104.133 85.6002 103.992 85.0219C103.759 84.1444 103.379 83.3033 103.182 82.414C103.3 82.2937 103.447 82.2046 103.609 82.1548C103.859 82.0826 104.117 82.0412 104.378 82.0312L104.582 82.0063C105.711 81.8516 106.781 81.4101 107.691 80.7241C108.629 80.0806 109.479 79.3148 110.398 78.659L110.738 78.4214L110.868 78.3352L111.087 78.1901L111.269 78.0754L111.31 78.0482C111.856 77.7005 112.41 77.3592 112.934 76.9882C112.98 77.0453 113.028 77.0999 113.08 77.1516C113.238 77.3202 113.444 77.4379 113.669 77.49C113.895 77.5421 114.131 77.5262 114.347 77.4442C113.861 79.1862 113.248 80.8883 113.263 82.7059C113.281 85.333 114.615 87.718 115.934 90.0049L120.109 97.2608C120.577 98.0616 121.163 98.9515 122.073 99.0437C122.645 99.0507 123.203 98.8667 123.659 98.5208C125.055 97.6327 126.265 96.4568 127.509 95.3434L127.569 95.3805C128.915 96.1996 129.85 97.4575 130.857 98.6472L133.583 102.101C133.59 102.29 133.645 102.474 133.741 102.636C133.945 102.925 134.194 103.178 134.48 103.386C136.113 104.763 137.302 106.593 137.897 108.645C137.992 109.177 138.21 109.68 138.535 110.112C139.247 110.883 140.537 110.67 141.393 110.078C141.66 109.914 141.879 109.683 142.029 109.408C142.149 109.118 142.21 108.806 142.206 108.492C142.278 107.7 142.274 106.903 142.192 106.112C142.003 104.682 141.278 103.324 140.836 101.888ZM119.41 34.8268C119.556 34.7027 119.695 34.5708 119.828 34.4318C119.633 35.3945 119.241 36.3062 118.675 37.1095C118.543 37.2958 118.398 37.4725 118.249 37.646L118.235 37.5294C118.172 37.1673 118.141 36.7606 118.094 36.3744C118.635 35.9559 119.084 35.4287 119.41 34.8268ZM110.056 65.151L110.069 65.0791C110.21 65.1565 110.336 65.2574 110.442 65.3775C110.378 65.5839 110.363 65.8025 110.398 66.0159C110.433 66.2293 110.517 66.4315 110.644 66.6064C110.873 66.9039 111.252 67.1609 111.224 67.5378C111.196 67.9147 110.748 68.1174 110.376 68.2257C109.887 68.3668 109.406 68.518 108.926 68.6765C108.926 68.6765 108.926 68.6765 108.923 68.651C108.883 68.2391 108.778 67.8361 108.611 67.4577C109.415 66.9896 109.834 66.0583 110.056 65.151Z" fill="url(#paint2_linear)"/>
<path d="M120.039 20.8793C120.298 20.2859 120.422 19.6421 120.402 18.9947C120.381 18.3474 120.216 17.7128 119.919 17.1371C119.622 16.5615 119.201 16.0592 118.685 15.667C118.17 15.2747 117.574 15.0022 116.94 14.8694C116.306 14.7365 115.65 14.7467 115.02 14.8991C114.391 15.0515 113.803 15.3423 113.3 15.7504C112.797 16.1585 112.391 16.6736 112.112 17.2581C111.834 17.8427 111.689 18.4821 111.688 19.1298C111.687 19.5719 111.754 20.0115 111.888 20.4329C110.721 21.1709 109.8 22.2384 109.24 23.5003C108.681 24.7621 108.508 26.1616 108.745 27.5215C108.27 28.5004 108.03 29.5765 108.043 30.6645C108.056 31.7524 108.323 32.8223 108.822 33.7892C109.321 34.7561 110.038 35.5936 110.917 36.2351C111.796 36.8766 112.812 37.3046 113.886 37.485C114.959 37.6655 116.059 37.5935 117.1 37.2748C118.14 36.9561 119.092 36.3994 119.88 35.6488C120.668 34.8983 121.27 33.9745 121.638 32.9509C122.007 31.9272 122.132 30.8317 122.004 29.7513C121.99 29.6383 121.976 29.529 121.963 29.4197C122.662 27.9909 122.854 26.3668 122.508 24.8143C122.162 23.2618 121.297 21.8733 120.057 20.8771L120.039 20.8793Z" fill="#46455B"/>
<g opacity="0.1">
<path opacity="0.1" d="M111.702 19.343L111.757 19.3032C111.733 19.2306 111.713 19.1568 111.696 19.0821C111.696 19.098 111.698 19.1138 111.702 19.1293C111.698 19.2005 111.698 19.2718 111.702 19.343Z" fill="black"/>
<path opacity="0.1" d="M122.518 25.2028C122.522 26.2751 122.278 27.3338 121.805 28.2965C121.819 28.4058 121.832 28.5151 121.846 28.6244C122.056 30.4149 121.567 32.2175 120.482 33.6571C119.396 35.0967 117.798 36.0623 116.018 36.3531C114.239 36.6439 112.416 36.2374 110.928 35.2182C109.441 34.1991 108.404 32.6458 108.033 30.8815C108.056 31.071 108.052 31.249 108.077 31.453C108.302 33.2968 109.251 34.9756 110.714 36.1201C112.178 37.2645 114.036 37.7809 115.88 37.5556C117.724 37.3303 119.403 36.3817 120.548 34.9186C121.692 33.4555 122.209 31.5977 121.984 29.7539C121.97 29.641 121.956 29.5317 121.943 29.4224C122.417 28.4602 122.661 27.4012 122.656 26.3287C122.657 25.8563 122.608 25.3851 122.51 24.9228C122.532 25.0126 122.522 25.11 122.518 25.2028Z" fill="black"/>
<path opacity="0.1" d="M120.269 18.0314C120.265 18.6254 120.139 19.2121 119.899 19.7558C120.039 19.8646 120.168 19.982 120.311 20.0976C120.385 19.7766 120.421 19.4482 120.421 19.1188C120.418 18.7513 120.367 18.3858 120.269 18.0314Z" fill="black"/>
</g>
<path d="M101.136 98.887C101.217 99.2785 101.372 99.6511 101.592 99.9851C101.702 100.152 101.851 100.29 102.026 100.388C102.201 100.485 102.396 100.54 102.596 100.547C102.957 100.505 103.298 100.359 103.577 100.127C104.153 99.7277 104.752 99.2736 104.997 98.6149C105.242 97.9563 105.107 97.2703 104.97 96.6029L103.906 91.3521C102.904 91.445 101.898 91.5679 100.903 91.745C99.9074 91.9221 99.7719 92.1753 100.029 93.1276C100.537 95.018 100.631 96.9925 101.136 98.887Z" fill="#FBBEBE"/>
<path d="M130.957 98.88L133.807 102.437C133.937 102.649 134.146 102.801 134.387 102.862C134.561 102.866 134.731 102.814 134.872 102.714C135.593 102.216 136.201 101.572 136.657 100.824C137.04 100.37 137.306 99.8296 137.434 99.2498C137.473 98.9321 137.431 98.6096 137.31 98.313C137.19 98.0163 136.996 97.7554 136.746 97.5551C136.44 97.3437 136.115 97.163 135.774 97.0156C133.734 95.9742 132.59 93.6658 130.572 92.5885C130.458 92.5136 130.325 92.4723 130.188 92.4691C130.051 92.4956 129.923 92.557 129.818 92.6474L127.437 94.351C126.417 95.0858 126.765 95.1172 127.682 95.6634C129.02 96.4689 129.941 97.7098 130.957 98.88Z" fill="#FBBEBE"/>
<path d="M105.932 95.1876C105.576 95.0821 105.193 95.1157 104.86 95.2816C104.717 95.3941 104.602 95.538 104.524 95.7021C104.446 95.8662 104.407 96.0461 104.41 96.2278C104.389 96.6002 104.44 96.9637 104.383 97.3146C104.233 97.906 103.937 98.4505 103.523 98.8989C103.374 99.1261 103.168 99.3105 102.926 99.4341C102.591 99.5638 102.207 99.448 101.866 99.5636C101.669 99.6416 101.497 99.7716 101.368 99.9397C101.24 100.108 101.159 100.308 101.135 100.518C101.094 100.94 101.132 101.365 101.248 101.773L101.879 104.691C101.967 105.049 102.012 105.416 102.012 105.784C101.993 106.449 101.684 107.063 101.552 107.712C101.421 108.36 101.525 109.154 102.099 109.494C102.298 109.594 102.518 109.642 102.74 109.634C102.962 109.626 103.179 109.563 103.37 109.45C103.749 109.22 104.071 108.908 104.312 108.536C105.702 106.591 106.13 104.131 107.13 101.96C107.392 101.457 107.617 100.935 107.804 100.399C107.928 99.9842 107.986 99.5555 108.075 99.1341C108.201 98.5691 108.367 98.0137 108.571 97.4723C108.681 97.163 109.179 96.3921 109.008 96.0839C108.743 95.5172 106.492 95.2929 105.932 95.1876Z" fill="#46455B"/>
<path d="M135.869 99.8032C135.591 100.528 135.051 101.122 134.356 101.467C134.154 101.55 133.971 101.675 133.82 101.832C133.726 101.98 133.677 102.152 133.68 102.327C133.683 102.503 133.738 102.673 133.837 102.818C134.041 103.103 134.291 103.352 134.578 103.555C136.203 104.905 137.389 106.708 137.985 108.734C138.083 109.26 138.302 109.756 138.624 110.183C139.335 110.944 140.629 110.73 141.489 110.14C141.754 109.978 141.973 109.752 142.126 109.482C142.247 109.195 142.307 108.887 142.304 108.576C142.378 107.796 142.375 107.009 142.294 106.229C142.116 104.772 141.375 103.424 140.936 102.013C140.321 100.006 140.225 97.7731 139.044 96.0388C138.927 95.8283 138.757 95.6526 138.549 95.5298C138.294 95.4329 138.018 95.4055 137.748 95.4502C136.884 95.5225 136.016 95.6211 135.154 95.7449C134.914 95.7743 134.634 95.8454 134.535 96.0683C134.506 96.1895 134.507 96.3161 134.539 96.4368C134.57 96.5575 134.631 96.6685 134.716 96.7599C135.372 97.7411 136.341 98.4622 135.869 99.8032Z" fill="#46455B"/>
<path d="M110.872 65.543C110.656 65.772 110.526 66.0698 110.507 66.3843C110.487 66.6989 110.578 67.0104 110.765 67.2646C110.996 67.558 111.375 67.8113 111.343 68.185C111.311 68.5588 110.865 68.7538 110.494 68.862C107.213 69.8027 104.075 71.1809 100.958 72.5528L97.6797 73.9925C96.7132 74.3602 95.8081 74.8723 94.9951 75.5113C94.2825 76.1368 93.7569 76.9472 93.4764 77.8528C93.2396 78.7863 93.1306 79.7476 93.1524 80.7103C93.0675 84.2524 92.8441 87.8409 91.6772 91.186L100.255 92.8856C101.092 93.0807 101.946 93.187 102.805 93.2027C103.618 93.173 104.424 93.0349 105.2 92.7918C104.924 90.958 104.659 89.0636 104.383 87.2262C104.307 86.6445 104.198 86.0677 104.057 85.4983C103.825 84.6317 103.447 83.8052 103.251 82.9268C103.577 82.5689 104.159 82.5792 104.652 82.53C105.783 82.3764 106.856 81.9413 107.775 81.2647C108.71 80.6253 109.564 79.87 110.484 79.2215C112.035 78.1408 113.852 77.3308 114.949 75.7803C114.605 78.3186 113.325 80.6494 113.353 83.2088C113.381 85.7681 114.699 88.1662 116.018 90.3976L120.186 97.536C120.652 98.3222 121.237 99.2012 122.146 99.2897C122.719 99.2945 123.277 99.112 123.736 98.7701C126.554 97.0058 128.622 94.0793 131.712 92.8513C131.278 91.2993 129.872 90.1435 128.997 88.797C128.252 87.664 127.893 86.3249 127.338 85.0872C126.784 83.8495 125.928 82.6265 124.665 82.1595C124.058 81.9416 123.258 81.7805 123.129 81.1491C123.099 80.9444 123.118 80.7356 123.184 80.5396C123.478 79.4119 124.025 78.3654 124.781 77.4784C124.879 77.3791 124.953 77.2588 124.997 77.1266C125.01 77.0038 125.001 76.8796 124.97 76.76C124.783 75.7401 125.216 74.7146 125.72 73.8135C126.224 72.9125 126.846 72.0414 127.074 71.0336C127.465 69.2958 126.647 67.5393 125.86 65.9454C125.584 65.2778 125.173 64.6746 124.653 64.1736C123.788 63.451 122.571 63.3593 121.44 63.3717C117.801 63.4021 113.462 62.9745 110.872 65.543Z" fill="#46455B"/>
<g opacity="0.1">
<path opacity="0.1" d="M125.407 71.1703C124.895 72.0722 124.462 73.0978 124.657 74.1168C124.688 74.2364 124.697 74.3606 124.683 74.4834C124.639 74.6156 124.565 74.7359 124.467 74.8352C123.711 75.7222 123.165 76.7687 122.87 77.8964C122.804 78.0924 122.786 78.3012 122.815 78.5059C122.877 78.6941 122.985 78.8633 123.131 78.9971C123.277 79.1309 123.455 79.2247 123.648 79.2694C123.945 78.6176 124.332 78.0102 124.796 77.465C124.894 77.3658 124.968 77.2454 125.012 77.1132C125.026 76.9904 125.017 76.8663 124.986 76.7466C124.798 75.7267 125.232 74.7012 125.735 73.8002C126.239 72.8991 126.861 72.028 127.09 71.0202C127.273 70.0389 127.18 69.0261 126.821 68.0946C126.808 68.1923 126.791 68.2906 126.768 68.3895C126.533 69.3982 125.922 70.2716 125.407 71.1703Z" fill="black"/>
<path opacity="0.1" d="M110.556 66.091C110.674 66.0518 110.78 65.9815 110.861 65.8876C110.943 65.7937 110.998 65.6796 111.02 65.5572C111.021 65.5092 111.016 65.4613 111.003 65.4151L110.86 65.5472C110.715 65.7007 110.611 65.8875 110.556 66.091Z" fill="black"/>
<path opacity="0.1" d="M102.482 90.5751C101.624 90.5593 100.769 90.453 99.9323 90.2579L92.3515 88.7577C92.1726 89.5813 91.9445 90.3935 91.6686 91.1899L100.254 92.8891C101.09 93.0842 101.945 93.1905 102.804 93.2063C103.617 93.1766 104.422 93.0384 105.199 92.7953C105.068 91.9347 104.942 91.0587 104.813 90.1831C104.056 90.4146 103.273 90.5464 102.482 90.5751Z" fill="black"/>
<path opacity="0.1" d="M123.424 96.1392C122.964 96.4811 122.406 96.6636 121.834 96.6588C120.924 96.5703 120.332 95.6922 119.874 94.9051L115.706 87.7667C114.774 86.1979 113.853 84.5613 113.375 82.8262C113.368 82.9527 113.365 83.0788 113.361 83.1977C113.377 85.7843 114.706 88.1551 116.026 90.3865L120.194 97.5249C120.66 98.3111 121.244 99.1901 122.154 99.2786C122.726 99.2834 123.285 99.1009 123.744 98.759C126.561 96.9947 128.63 94.0682 131.72 92.8402C131.452 92.0329 131.023 91.2888 130.458 90.6535C127.869 92.0533 125.945 94.5553 123.424 96.1392Z" fill="black"/>
<path opacity="0.1" d="M114.638 73.1502C113.539 74.6897 111.723 75.5106 110.172 76.5913C109.242 77.2412 108.388 77.9965 107.463 78.6345C106.545 79.3122 105.472 79.7485 104.341 79.9035C103.849 79.9636 103.284 79.9366 102.939 80.2967C103.12 81.1067 103.454 81.8757 103.688 82.6718C104.007 82.5885 104.333 82.5411 104.662 82.5306C105.793 82.3769 106.866 81.9418 107.785 81.2652C108.72 80.6259 109.575 79.8706 110.494 79.222C111.517 78.5091 112.653 77.9117 113.624 77.1422C114.056 75.8373 114.395 74.5032 114.638 73.1502Z" fill="black"/>
</g>
<path d="M113.375 38.7705C113.466 39.176 113.462 39.5969 113.363 40.0007C113.265 40.4044 113.076 40.7803 112.809 41.0991C112.63 41.2949 112.408 41.4513 112.237 41.6535C112.085 41.8524 111.978 42.082 111.924 42.3264C111.87 42.5708 111.87 42.824 111.924 43.0684C111.978 43.3129 112.084 43.5426 112.236 43.7417C112.388 43.9408 112.581 44.1044 112.802 44.2211C113.507 44.5418 114.329 44.3305 115.07 44.1067C116.064 43.8438 117.023 43.4647 117.928 42.9773C118.839 42.4857 119.571 41.7194 120.021 40.7876C119.59 40.5816 119.218 40.2723 118.936 39.8872C118.655 39.5021 118.474 39.0532 118.408 38.5808C118.242 37.6434 118.37 36.5405 117.682 35.8811C116.995 35.2218 115.939 35.3842 115.075 35.7337C114.65 35.9115 114.244 36.1312 113.817 36.3053C113.599 36.3912 112.863 36.4848 112.752 36.6648C112.533 36.9947 113.291 38.2963 113.375 38.7705Z" fill="#FBBEBE"/>
<path opacity="0.1" d="M113.375 38.7705C113.466 39.176 113.462 39.5969 113.363 40.0007C113.265 40.4044 113.076 40.7803 112.809 41.0991C112.63 41.2949 112.408 41.4513 112.237 41.6535C112.085 41.8524 111.978 42.082 111.924 42.3264C111.87 42.5708 111.87 42.824 111.924 43.0684C111.978 43.3129 112.084 43.5426 112.236 43.7417C112.388 43.9408 112.581 44.1044 112.802 44.2211C113.507 44.5418 114.329 44.3305 115.07 44.1067C116.064 43.8438 117.023 43.4647 117.928 42.9773C118.839 42.4857 119.571 41.7194 120.021 40.7876C119.59 40.5816 119.218 40.2723 118.936 39.8872C118.655 39.5021 118.474 39.0532 118.408 38.5808C118.242 37.6434 118.37 36.5405 117.682 35.8811C116.995 35.2218 115.939 35.3842 115.075 35.7337C114.65 35.9115 114.244 36.1312 113.817 36.3053C113.599 36.3912 112.863 36.4848 112.752 36.6648C112.533 36.9947 113.291 38.2963 113.375 38.7705Z" fill="black"/>
<path d="M115.901 38.4096C118.6 38.0798 120.52 35.6249 120.19 32.9264C119.861 30.2278 117.405 28.3075 114.706 28.6373C112.007 28.9671 110.087 31.422 110.417 34.1205C110.746 36.8191 113.202 38.7393 115.901 38.4096Z" fill="#FBBEBE"/>
<path d="M104.454 72.8884C104.416 73.2879 104.305 73.6772 104.129 74.0376C103.681 75.1188 103.619 76.3212 103.953 77.4427C104.125 77.998 104.431 78.5023 104.844 78.9111C105.257 79.3199 105.765 79.6205 106.322 79.7863C106.556 79.8695 106.808 79.8893 107.053 79.8438C107.297 79.7984 107.525 79.6893 107.714 79.5275C106.958 78.7582 106.78 77.604 106.689 76.5278C106.653 76.3295 106.676 76.125 106.754 75.9393C106.777 75.8953 106.808 75.8562 106.845 75.8244C106.883 75.7926 106.927 75.7688 106.974 75.7544C107.022 75.74 107.071 75.7352 107.121 75.7405C107.17 75.7458 107.217 75.7609 107.26 75.785C107.325 76.462 107.537 77.1166 107.883 77.7022C108.014 77.9266 108.221 78.1675 108.483 78.1282C108.847 78.0837 108.89 77.557 108.83 77.1871C108.59 75.678 108.321 74.1097 107.43 72.8724C107.053 72.4568 106.746 71.9838 106.519 71.4712C106.49 71.2824 106.401 71.1078 106.266 70.9733C106.178 70.9198 106.079 70.8876 105.977 70.8792C105.543 70.8102 104.499 70.5642 104.201 71C103.903 71.4358 104.458 72.3775 104.454 72.8884Z" fill="#FBBEBE"/>
<path d="M108.538 46.0473C107.969 46.0502 107.591 46.6179 107.343 47.129C106.413 49.0317 105.827 51.0839 105.613 53.1906C105.504 54.2653 105.49 55.3689 105.107 56.3809C105.013 56.5931 104.942 56.8151 104.896 57.0428C104.897 57.3838 104.924 57.7242 104.976 58.0611C105 58.6758 104.705 59.2628 104.658 59.8787C104.63 60.252 104.689 60.6145 104.668 60.9869C104.635 61.627 104.358 62.2304 104.209 62.8588C103.948 63.9631 104.093 65.1213 103.939 66.2459C103.925 66.4287 103.868 66.6057 103.772 66.7618C103.605 67.0004 103.298 67.0897 103.064 67.2588C102.878 67.4056 102.726 67.5904 102.618 67.8007C102.51 68.011 102.448 68.242 102.436 68.4782C102.417 68.9502 102.466 69.4226 102.582 69.8805L103.161 72.7423C103.378 72.6159 103.481 72.3334 103.673 72.1509C104.002 71.8149 104.516 71.8186 104.978 71.8436L105.652 71.8832C106.341 71.9211 107.093 71.9883 107.573 72.4695C107.85 71.8884 107.56 71.1213 108.041 70.7001C108.198 70.5626 108.409 70.4999 108.575 70.376C108.732 70.2449 108.854 70.0781 108.933 69.8895C109.012 69.701 109.044 69.4963 109.027 69.2927C108.988 68.8856 108.883 68.4875 108.716 68.114C109.517 67.6464 109.938 66.7333 110.165 65.8365C110.402 64.7556 110.535 63.6546 110.562 62.5485C110.799 58.1595 110.966 53.7495 110.506 49.3791C110.465 48.6447 110.296 47.9232 110.005 47.2474C109.695 46.5827 109.273 46.0388 108.538 46.0473Z" fill="white"/>
<path opacity="0.1" d="M108.538 46.0473C107.969 46.0502 107.591 46.6179 107.343 47.129C106.413 49.0317 105.827 51.0839 105.613 53.1906C105.504 54.2653 105.49 55.3689 105.107 56.3809C105.013 56.5931 104.942 56.8151 104.896 57.0428C104.897 57.3838 104.924 57.7242 104.976 58.0611C105 58.6758 104.705 59.2628 104.658 59.8787C104.63 60.252 104.689 60.6145 104.668 60.9869C104.635 61.627 104.358 62.2304 104.209 62.8588C103.948 63.9631 104.093 65.1213 103.939 66.2459C103.925 66.4287 103.868 66.6057 103.772 66.7618C103.605 67.0004 103.298 67.0897 103.064 67.2588C102.878 67.4056 102.726 67.5904 102.618 67.8007C102.51 68.011 102.448 68.242 102.436 68.4782C102.417 68.9502 102.466 69.4226 102.582 69.8805L103.161 72.7423C103.378 72.6159 103.481 72.3334 103.673 72.1509C104.002 71.8149 104.516 71.8186 104.978 71.8436L105.652 71.8832C106.341 71.9211 107.093 71.9883 107.573 72.4695C107.85 71.8884 107.56 71.1213 108.041 70.7001C108.198 70.5626 108.409 70.4999 108.575 70.376C108.732 70.2449 108.854 70.0781 108.933 69.8895C109.012 69.701 109.044 69.4963 109.027 69.2927C108.988 68.8856 108.883 68.4875 108.716 68.114C109.517 67.6464 109.938 66.7333 110.165 65.8365C110.402 64.7556 110.535 63.6546 110.562 62.5485C110.799 58.1595 110.966 53.7495 110.506 49.3791C110.465 48.6447 110.296 47.9232 110.005 47.2474C109.695 46.5827 109.273 46.0388 108.538 46.0473Z" fill="black"/>
<path d="M120.279 39.8648C119.576 40.8088 118.619 41.5335 117.52 41.9548C116.425 42.371 115.292 42.6815 114.138 42.882C113.788 42.9836 113.419 42.997 113.063 42.9209C112.887 42.8766 112.733 42.7685 112.632 42.6176C112.531 42.4667 112.489 42.2837 112.515 42.104C112.565 41.9918 112.594 41.8718 112.602 41.7495C112.565 41.4507 112.117 41.4796 111.844 41.6017C110.035 42.4145 108.371 43.7863 107.72 45.6594C107.407 46.7372 107.267 47.8577 107.305 48.9792C107.253 51.944 107.204 54.9343 108.104 57.757C108.586 59.2549 109.33 60.6766 109.553 62.232C109.682 63.1038 109.639 63.9929 109.753 64.8665C109.766 65.1757 109.885 65.471 110.092 65.7016C110.246 65.8418 110.462 65.9152 110.579 66.0895C110.774 66.3764 110.614 66.8249 110.856 67.08C111.156 67.3909 111.658 67.0782 111.982 66.7945C113.608 65.3746 115.684 64.5748 117.843 64.5364C120.427 64.498 123.145 65.5527 125.547 64.564C125.396 64.3941 125.262 64.2098 125.147 64.0138C123.41 60.0989 122.938 55.5377 124.325 51.4853C124.796 50.1002 125.471 48.7566 125.551 47.2899C125.567 46.6079 125.493 45.9268 125.329 45.2645C125.083 43.9646 124.534 42.7408 123.728 41.6919C122.888 40.6592 121.6 39.8366 120.279 39.8648Z" fill="white"/>
<path d="M112.359 73.1976C112.227 73.7543 112.201 74.331 112.282 74.8974C112.332 75.4413 112.425 75.9803 112.561 76.5093C112.66 76.9641 112.878 77.3843 113.194 77.7264C113.354 77.8943 113.56 78.0109 113.786 78.0616C114.012 78.1124 114.248 78.0949 114.464 78.0114C114.63 77.9166 114.772 77.7862 114.881 77.6296C114.99 77.473 115.062 77.2942 115.093 77.106C115.154 76.7277 115.186 76.3455 115.19 75.9624C115.268 74.8433 115.722 73.7152 115.595 72.5841C115.586 72.4491 115.548 72.3176 115.485 72.1981C115.217 71.7611 114.115 71.3669 113.617 71.5053C113.003 71.6803 112.527 72.6334 112.359 73.1976Z" fill="#FBBEBE"/>
<path opacity="0.1" d="M123.066 43.7108C123.09 44.6953 124.119 45.3128 124.601 46.1673C124.803 46.5709 124.943 47.0026 125.017 47.4479C125.659 50.5239 125.836 53.6714 126.012 56.8044C126.109 57.8431 126.113 58.8884 126.024 59.9278C125.759 62.1162 124.687 64.1184 123.648 66.0574C123.493 66.373 123.305 66.6712 123.087 66.9468C122.753 67.2929 122.371 67.5887 121.952 67.8252L117.872 70.4574C117.357 70.7635 116.877 71.1235 116.439 71.5312C115.934 72.0368 115.565 72.662 115.366 73.3485C114.472 73.0214 113.55 72.742 112.663 72.4141C112.454 72.3361 112.215 72.2321 112.156 72.0174C112.076 71.7313 112.357 71.4862 112.54 71.2308C112.886 70.7929 112.936 70.1988 113.089 69.6625C113.583 67.9009 115.205 66.6155 115.632 64.8401C115.796 64.158 115.779 63.4095 116.146 62.8099C116.359 62.5059 116.607 62.2275 116.884 61.9801C117.479 61.3319 118.013 60.6291 118.477 59.881C118.694 59.5937 118.861 59.2721 118.971 58.9294C119.048 58.4125 119.033 57.8859 118.925 57.3745C118.75 55.6725 119.326 53.9972 119.596 52.3074C119.85 50.7196 119.839 49.0864 120.236 47.5253C120.634 45.9643 121.562 44.3013 123.066 43.7108Z" fill="black"/>
<path d="M123.629 43.6422C123.653 44.6266 124.679 45.2446 125.161 46.0991C125.364 46.5023 125.506 46.9339 125.58 47.3792C126.219 50.4556 126.4 53.6027 126.576 56.7357C126.667 57.7757 126.664 58.8217 126.569 59.8613C126.304 62.0497 125.232 64.0519 124.193 65.9909C124.039 66.3066 123.851 66.6048 123.632 66.8804C123.298 67.2264 122.916 67.5223 122.497 67.7587L118.414 70.3914C117.9 70.699 117.42 71.0588 116.98 71.4652C116.476 71.9717 116.108 72.5965 115.908 73.2825C115.014 72.9554 114.095 72.6756 113.205 72.3481C112.995 72.2701 112.757 72.1661 112.697 71.9514C112.614 71.6657 112.895 71.4207 113.079 71.1653C113.428 70.7269 113.478 70.1328 113.627 69.5969C114.118 67.8358 115.743 66.5499 116.17 64.7745C116.334 64.0925 116.317 63.3439 116.684 62.7444C116.895 62.4388 117.143 62.1602 117.422 61.9146C118.018 61.2663 118.551 60.5635 119.015 59.8155C119.232 59.5282 119.399 59.2065 119.509 58.8639C119.585 58.3469 119.569 57.8205 119.463 57.3089C119.288 55.6069 119.86 53.9321 120.131 52.2423C120.388 50.654 120.373 49.0212 120.771 47.4602C121.168 45.8992 122.133 44.2318 123.629 43.6422Z" fill="white"/>
<path d="M116.799 25.675C115.271 25.6761 113.787 26.1784 112.572 27.1048C112.765 27.0812 112.959 27.0576 113.157 27.0777C114.624 27.0758 116.055 27.5345 117.247 28.3891C118.44 29.2436 119.334 30.451 119.803 31.8408C120.273 33.2306 120.294 34.7326 119.863 36.1351C119.433 37.5375 118.574 38.7695 117.406 39.6572C119.2 39.4961 120.862 38.6502 122.049 37.2954C123.235 35.9406 123.855 34.1809 123.777 32.3817C123.7 30.5826 122.933 28.8822 121.635 27.6338C120.337 26.3854 118.608 25.6849 116.807 25.6777L116.799 25.675Z" fill="#46455B"/>
<path d="M119.41 29.2795C119.626 29.6409 119.768 30.0415 119.829 30.4582C119.889 30.8748 119.867 31.2993 119.762 31.7072C119.718 31.6128 119.669 31.5189 119.613 31.4258C118.519 29.6177 115.777 29.1501 113.483 30.381C112.87 30.6867 112.329 31.1182 111.894 31.6474C111.46 32.1766 111.142 32.7915 110.962 33.4519C110.123 31.6754 111.107 29.4026 113.283 28.2342C115.574 27.0038 118.316 27.4714 119.41 29.2795Z" fill="#46455B"/>
<defs>
<filter id="filter0_dd" x="50.4541" y="0.852539" width="236.586" height="175.156" filterUnits="userSpaceOnUse" color-interpolation-filters="sRGB">
<feFlood flood-opacity="0" result="BackgroundImageFix"/>
<feColorMatrix in="SourceAlpha" type="matrix" values="0 0 0 0 0 0 0 0 0 0 0 0 0 0 0 0 0 0 127 0"/>
<feOffset dy="1"/>
<feGaussianBlur stdDeviation="1"/>
<feColorMatrix type="matrix" values="0 0 0 0 0 0 0 0 0 0 0 0 0 0 0 0 0 0 0.12 0"/>
<feBlend mode="normal" in2="BackgroundImageFix" result="effect1_dropShadow"/>
<feColorMatrix in="SourceAlpha" type="matrix" values="0 0 0 0 0 0 0 0 0 0 0 0 0 0 0 0 0 0 127 0"/>
<feOffset dy="4"/>
<feGaussianBlur stdDeviation="10"/>
<feColorMatrix type="matrix" values="0 0 0 0 0 0 0 0 0 0 0 0 0 0 0 0 0 0 0.12 0"/>
<feBlend mode="normal" in2="effect1_dropShadow" result="effect2_dropShadow"/>
<feBlend mode="normal" in="SourceGraphic" in2="effect2_dropShadow" result="shape"/>
</filter>
<filter id="filter1_dd" x="98.2227" y="125.834" width="141.12" height="111.499" filterUnits="userSpaceOnUse" color-interpolation-filters="sRGB">
<feFlood flood-opacity="0" result="BackgroundImageFix"/>
<feColorMatrix in="SourceAlpha" type="matrix" values="0 0 0 0 0 0 0 0 0 0 0 0 0 0 0 0 0 0 127 0"/>
<feOffset dy="1"/>
<feGaussianBlur stdDeviation="1"/>
<feColorMatrix type="matrix" values="0 0 0 0 0 0 0 0 0 0 0 0 0 0 0 0 0 0 0.12 0"/>
<feBlend mode="normal" in2="BackgroundImageFix" result="effect1_dropShadow"/>
<feColorMatrix in="SourceAlpha" type="matrix" values="0 0 0 0 0 0 0 0 0 0 0 0 0 0 0 0 0 0 127 0"/>
<feOffset dy="4"/>
<feGaussianBlur stdDeviation="10"/>
<feColorMatrix type="matrix" values="0 0 0 0 0 0 0 0 0 0 0 0 0 0 0 0 0 0 0.12 0"/>
<feBlend mode="normal" in2="effect1_dropShadow" result="effect2_dropShadow"/>
<feBlend mode="normal" in="SourceGraphic" in2="effect2_dropShadow" result="shape"/>
</filter>
<linearGradient id="paint0_linear" x1="119.599" y1="164.263" x2="217.887" y2="65.958" gradientUnits="userSpaceOnUse">
<stop stop-color="#273469"/>
<stop offset="0.9987" stop-color="#2E58DB"/>
</linearGradient>
<linearGradient id="paint1_linear" x1="118.204" y1="177.606" x2="219.318" y2="177.606" gradientUnits="userSpaceOnUse">
<stop stop-color="#1990F2"/>
<stop offset="1" stop-color="#3CBCF7"/>
</linearGradient>
<linearGradient id="paint2_linear" x1="118.721" y1="113.262" x2="106.65" y2="14.4636" gradientUnits="userSpaceOnUse">
<stop stop-color="#808080" stop-opacity="0.25"/>
<stop offset="0.54" stop-color="#808080" stop-opacity="0.12"/>
<stop offset="1" stop-color="#808080" stop-opacity="0.1"/>
</linearGradient>
</defs>
</svg>
