<svg width="360" height="211" viewBox="0 0 360 211" fill="none" xmlns="http://www.w3.org/2000/svg">
<g opacity="0.3">
<path opacity="0.3" d="M262.055 175.121C264.776 176.575 268.199 175.552 269.654 172.805C271.109 170.085 270.085 166.691 267.336 165.21C266.42 164.725 265.369 164.482 264.318 164.563L264.049 167.445L263.052 164.806C261.624 165.237 260.465 166.233 259.764 167.526C259.522 167.984 259.333 168.469 259.225 168.98C258.659 171.431 259.818 173.936 262.055 175.121Z" fill="#111111"/>
<path opacity="0.3" d="M264.048 209.192C263.914 206.687 266.285 204.829 268.522 203.724C270.758 202.62 273.345 201.57 274.369 199.307C275.851 196.021 273.318 192.493 271.378 189.45C269.95 187.214 268.764 184.79 267.902 182.285C267.552 181.262 267.255 180.238 267.282 179.161C267.309 177.626 268.01 176.171 268.71 174.798C271.028 170.219 273.453 165.694 275.986 161.223" stroke="#3F3D56" stroke-miterlimit="10"/>
<path opacity="0.3" d="M262.378 174.394C265.1 175.848 268.522 174.825 269.977 172.078C271.433 169.357 270.409 165.964 267.66 164.483C266.744 163.998 265.693 163.755 264.642 163.836L264.372 166.718L263.375 164.079C261.947 164.509 260.789 165.506 260.088 166.799C259.845 167.257 259.657 167.741 259.549 168.253C259.01 170.731 260.169 173.236 262.378 174.394Z" stroke="#3F3D56" stroke-miterlimit="10"/>
<path opacity="0.3" d="M270.408 159.446C271.298 157.749 272.995 156.645 274.908 156.483L274.989 159.257L276.229 156.537C279.301 157.022 281.376 159.877 280.891 162.947C280.406 166.018 277.549 168.091 274.477 167.607C271.405 167.122 269.33 164.267 269.815 161.196C269.896 160.577 270.112 159.984 270.408 159.446Z" fill="#111111"/>
<path opacity="0.3" d="M270.839 158.503C271.728 156.806 273.426 155.702 275.339 155.541L275.42 158.315L276.66 155.594C279.732 156.079 281.807 158.934 281.322 162.005C280.837 165.075 277.98 167.149 274.908 166.664C271.863 166.179 269.761 163.324 270.246 160.254C270.354 159.634 270.543 159.042 270.839 158.503Z" stroke="#3F3D56" stroke-miterlimit="10"/>
<path opacity="0.3" d="M270.409 189.369C273.13 190.823 276.526 189.773 277.981 187.053C279.193 184.736 278.681 181.908 276.714 180.185L275.744 182.286L275.663 179.484C272.942 178.03 269.546 179.054 268.064 181.801C266.609 184.494 267.66 187.888 270.409 189.369C270.382 189.369 270.409 189.369 270.409 189.369Z" fill="#111111"/>
<path opacity="0.3" d="M270.813 188.399C273.534 189.854 276.93 188.803 278.385 186.083C279.597 183.767 279.085 180.939 277.118 179.215L276.148 181.316L276.067 178.515C273.346 177.06 269.95 178.084 268.468 180.831C267.04 183.551 268.064 186.945 270.813 188.399ZM270.813 188.399C270.786 188.399 270.813 188.399 270.813 188.399Z" stroke="#3F3D56" stroke-miterlimit="10"/>
<path opacity="0.3" d="M263.321 197.772C263.429 200.87 266.016 203.294 269.115 203.186C272.214 203.078 274.639 200.492 274.531 197.395C274.423 194.298 271.836 191.874 268.738 191.981C267.336 192.035 266.016 192.601 265.019 193.571L266.959 197.638L263.86 195.187C263.456 195.995 263.294 196.883 263.321 197.772Z" fill="#111111"/>
<path opacity="0.3" d="M263.645 197.045C263.753 200.142 266.34 202.566 269.439 202.459C272.538 202.351 274.963 199.765 274.855 196.668C274.747 193.57 272.16 191.146 269.061 191.254C267.66 191.308 266.34 191.874 265.343 192.843L267.283 196.91L264.184 194.459C263.807 195.294 263.618 196.156 263.645 197.045Z" stroke="#3F3D56" stroke-miterlimit="10"/>
</g>
<g opacity="0.3">
<path opacity="0.3" d="M113.766 175.929C111.044 177.384 107.649 176.36 106.167 173.613C104.712 170.893 105.736 167.472 108.484 166.018C109.401 165.533 110.451 165.29 111.502 165.371L111.772 168.253L112.769 165.614C114.197 166.045 115.356 167.041 116.056 168.334C116.299 168.792 116.488 169.277 116.595 169.788C117.161 172.239 115.976 174.744 113.766 175.929Z" fill="#1890FF"/>
<path opacity="0.3" d="M111.771 210C111.906 207.495 109.535 205.637 107.298 204.532C105.062 203.428 102.475 202.378 101.451 200.115C99.9687 196.83 102.502 193.301 104.442 190.258C105.87 188.022 107.056 185.598 107.918 183.093C108.268 182.07 108.565 181.047 108.538 179.969C108.511 178.434 107.81 176.98 107.11 175.606C104.792 171.027 102.367 166.502 99.834 162.031" stroke="#3F3D56" stroke-miterlimit="10"/>
<path opacity="0.3" d="M113.443 175.202C110.721 176.657 107.326 175.633 105.844 172.886C104.389 170.166 105.413 166.772 108.161 165.291C109.077 164.806 110.128 164.563 111.179 164.644L111.449 167.526L112.446 164.887C113.874 165.318 115.033 166.314 115.733 167.607C115.976 168.065 116.164 168.55 116.272 169.061C116.811 171.539 115.652 174.044 113.443 175.202Z" stroke="#3F3D56" stroke-miterlimit="10"/>
<path opacity="0.3" d="M105.412 160.254C104.523 158.557 102.825 157.453 100.912 157.291L100.831 160.065L99.5915 157.345C96.5196 157.83 94.4446 160.685 94.9297 163.755C95.4147 166.826 98.2711 168.9 101.343 168.415C104.415 167.93 106.49 165.075 106.005 162.005C105.924 161.385 105.708 160.793 105.412 160.254Z" fill="#1890FF"/>
<path opacity="0.3" d="M104.981 159.311C104.092 157.615 102.394 156.51 100.481 156.349L100.4 159.123L99.1608 156.403C96.0889 156.887 94.014 159.742 94.499 162.813C94.9841 165.883 97.8404 167.957 100.912 167.472C103.984 166.987 106.059 164.132 105.574 161.062C105.466 160.443 105.278 159.85 104.981 159.311Z" stroke="#3F3D56" stroke-miterlimit="10"/>
<path opacity="0.3" d="M105.412 190.177C102.691 191.632 99.2953 190.581 97.8402 187.861C96.6275 185.545 97.1395 182.717 99.1067 180.993L100.077 183.094L100.158 180.293C102.879 178.838 106.275 179.862 107.757 182.609C109.185 185.302 108.161 188.696 105.412 190.177Z" fill="#1890FF"/>
<path opacity="0.3" d="M105.008 189.207C102.286 190.662 98.891 189.611 97.4359 186.891C96.2233 184.575 96.7352 181.747 98.7024 180.023L99.6725 182.124L99.7533 179.323C102.475 177.868 105.87 178.892 107.352 181.639C108.781 184.359 107.757 187.753 105.008 189.207Z" stroke="#3F3D56" stroke-miterlimit="10"/>
<path opacity="0.3" d="M112.5 198.58C112.392 201.678 109.805 204.102 106.706 203.994C103.607 203.886 101.182 201.301 101.29 198.203C101.397 195.106 103.984 192.682 107.083 192.79C108.484 192.843 109.805 193.409 110.802 194.379L108.862 198.446L111.961 195.995C112.365 196.803 112.526 197.691 112.5 198.58Z" fill="#1890FF"/>
<path opacity="0.3" d="M112.176 197.853C112.068 200.95 109.482 203.374 106.383 203.267C103.284 203.159 100.859 200.573 100.966 197.476C101.074 194.379 103.661 191.955 106.76 192.062C108.161 192.116 109.482 192.682 110.479 193.651L108.538 197.718L111.637 195.267C112.015 196.102 112.203 196.964 112.176 197.853Z" stroke="#3F3D56" stroke-miterlimit="10"/>
</g>
<g opacity="0.3">
<path opacity="0.3" d="M253.89 175.66C251.168 177.114 247.746 176.091 246.291 173.343C244.836 170.623 245.86 167.229 248.608 165.748C249.525 165.263 250.576 165.021 251.626 165.102L251.896 167.984L252.893 165.344C254.321 165.775 255.48 166.772 256.18 168.064C256.423 168.522 256.612 169.007 256.719 169.519C257.285 171.97 256.1 174.475 253.89 175.66Z" fill="#1890FF"/>
<path opacity="0.3" d="M251.896 209.73C252.03 207.226 249.659 205.367 247.422 204.263C245.186 203.159 242.599 202.108 241.575 199.846C240.093 196.56 242.626 193.032 244.566 189.988C245.994 187.753 247.18 185.329 248.042 182.824C248.392 181.8 248.689 180.777 248.662 179.7C248.635 178.164 247.934 176.71 247.234 175.336C244.916 170.758 242.491 166.233 239.958 161.762" stroke="#3F3D56" stroke-miterlimit="10"/>
<path opacity="0.3" d="M253.567 174.933C250.845 176.387 247.423 175.364 245.968 172.616C244.513 169.896 245.537 166.502 248.285 165.021C249.201 164.536 250.252 164.294 251.303 164.375L251.573 167.257L252.57 164.617C253.998 165.048 255.157 166.045 255.857 167.337C256.1 167.795 256.288 168.28 256.396 168.792C256.935 171.27 255.776 173.774 253.567 174.933Z" stroke="#3F3D56" stroke-miterlimit="10"/>
<path opacity="0.3" d="M245.536 159.984C244.647 158.288 242.949 157.183 241.036 157.022L240.955 159.796L239.716 157.076C236.644 157.56 234.569 160.415 235.054 163.486C235.539 166.556 238.395 168.63 241.467 168.145C244.539 167.66 246.614 164.805 246.129 161.735C246.048 161.116 245.832 160.523 245.536 159.984Z" fill="#1890FF"/>
<path opacity="0.3" d="M245.105 159.042C244.216 157.345 242.519 156.241 240.605 156.079L240.524 158.853L239.285 156.133C236.213 156.618 234.138 159.473 234.623 162.543C235.108 165.614 237.964 167.687 241.036 167.203C244.108 166.718 246.183 163.863 245.698 160.792C245.59 160.173 245.402 159.58 245.105 159.042Z" stroke="#3F3D56" stroke-miterlimit="10"/>
<path opacity="0.3" d="M245.536 189.908C242.815 191.362 239.419 190.312 237.964 187.591C236.752 185.275 237.264 182.447 239.231 180.723L240.201 182.824L240.282 180.023C243.003 178.569 246.399 179.592 247.881 182.339C249.309 185.033 248.285 188.426 245.536 189.908Z" fill="#1890FF"/>
<path opacity="0.3" d="M245.132 188.938C242.41 190.392 239.015 189.342 237.56 186.622C236.347 184.305 236.859 181.477 238.826 179.754L239.796 181.854L239.877 179.053C242.599 177.599 245.994 178.622 247.476 181.37C248.905 184.09 247.881 187.483 245.132 188.938Z" stroke="#3F3D56" stroke-miterlimit="10"/>
<path opacity="0.3" d="M252.624 198.311C252.516 201.408 249.929 203.832 246.83 203.724C243.731 203.617 241.306 201.031 241.414 197.934C241.521 194.836 244.108 192.412 247.207 192.52C248.608 192.574 249.929 193.14 250.926 194.109L248.986 198.176L252.085 195.725C252.489 196.533 252.65 197.422 252.624 198.311Z" fill="#1890FF"/>
<path opacity="0.3" d="M252.3 197.583C252.193 200.681 249.606 203.105 246.507 202.997C243.408 202.889 240.983 200.304 241.09 197.206C241.198 194.109 243.785 191.685 246.884 191.793C248.285 191.847 249.606 192.412 250.603 193.382L248.662 197.449L251.761 194.998C252.139 195.833 252.327 196.695 252.3 197.583Z" stroke="#3F3D56" stroke-miterlimit="10"/>
</g>
<g opacity="0.3">
<path opacity="0.3" d="M54.4827 175.391C51.7611 176.845 48.3658 175.822 46.8837 173.074C45.4286 170.354 46.4526 166.934 49.2011 165.479C50.1173 164.994 51.1683 164.752 52.2192 164.833L52.4887 167.715L53.4857 165.075C54.9139 165.506 56.0726 166.503 56.7732 167.795C57.0158 168.253 57.2044 168.738 57.3122 169.25C57.8781 171.701 56.6924 174.206 54.4827 175.391Z" fill="#1890FF"/>
<path opacity="0.3" d="M52.4883 209.461C52.623 206.957 50.2517 205.098 48.0151 203.994C45.7785 202.89 43.1916 201.839 42.1676 199.577C40.6855 196.291 43.2185 192.763 45.1587 189.719C46.5869 187.484 47.7726 185.06 48.6349 182.555C48.9852 181.531 49.2816 180.508 49.2546 179.431C49.2277 177.895 48.5271 176.441 47.8265 175.067C45.509 170.489 43.0838 165.964 40.5508 161.493" stroke="#3F3D56" stroke-miterlimit="10"/>
<path opacity="0.3" d="M54.1595 174.664C51.4379 176.118 48.0425 175.094 46.5605 172.347C45.1053 169.627 46.1293 166.233 48.8779 164.752C49.7941 164.267 50.845 164.025 51.896 164.106L52.1654 166.988L53.1625 164.348C54.5907 164.779 55.7494 165.776 56.45 167.068C56.6925 167.526 56.8811 168.011 56.9889 168.523C57.5279 171.001 56.3692 173.505 54.1595 174.664Z" stroke="#3F3D56" stroke-miterlimit="10"/>
<path opacity="0.3" d="M46.1291 159.715C45.2399 158.019 43.5422 156.914 41.629 156.753L41.5482 159.527L40.3086 156.807C37.2636 157.264 35.1617 160.146 35.6468 163.217C36.1318 166.287 38.9882 168.361 42.0601 167.876C45.1321 167.391 47.207 164.536 46.722 161.466C46.6411 160.847 46.4256 160.254 46.1291 159.715Z" fill="#1890FF"/>
<path opacity="0.3" d="M45.6982 158.773C44.8089 157.076 43.1113 155.972 41.198 155.81L41.1172 158.584L39.8776 155.864C36.8057 156.349 34.7308 159.204 35.2158 162.274C35.7009 165.345 38.5572 167.418 41.6292 166.934C44.7011 166.449 46.7761 163.594 46.291 160.523C46.1832 159.904 45.9946 159.311 45.6982 158.773Z" stroke="#3F3D56" stroke-miterlimit="10"/>
<path opacity="0.3" d="M46.129 189.639C43.4074 191.093 40.0121 190.043 38.557 187.322C37.3443 185.006 37.8563 182.178 39.8235 180.454L40.7936 182.555L40.8744 179.754C43.596 178.3 46.9913 179.323 48.4734 182.07C49.9555 184.817 48.8776 188.184 46.129 189.639Z" fill="#1890FF"/>
<path opacity="0.3" d="M45.7247 188.669C43.0031 190.123 39.6078 189.073 38.1527 186.353C36.94 184.036 37.452 181.208 39.4192 179.485L40.3893 181.585L40.4701 178.784C43.1917 177.33 46.5871 178.353 48.0691 181.101C49.4973 183.821 48.4733 187.214 45.7247 188.669Z" stroke="#3F3D56" stroke-miterlimit="10"/>
<path opacity="0.3" d="M53.2163 198.042C53.1085 201.139 50.5216 203.563 47.4227 203.455C44.3238 203.348 41.8986 200.762 42.0064 197.665C42.1142 194.567 44.7011 192.143 47.8 192.251C49.2012 192.305 50.5216 192.87 51.5187 193.84L49.5785 197.907L52.6774 195.456C53.0816 196.264 53.2433 197.153 53.2163 198.042Z" fill="#1890FF"/>
<path opacity="0.3" d="M52.8931 197.314C52.7853 200.412 50.1984 202.836 47.0995 202.728C44.0006 202.62 41.5754 200.035 41.6831 196.937C41.7909 193.84 44.3778 191.416 47.4767 191.524C48.878 191.578 50.1984 192.143 51.1954 193.113L49.2552 197.18L52.3541 194.729C52.7314 195.564 52.92 196.426 52.8931 197.314Z" stroke="#3F3D56" stroke-miterlimit="10"/>
</g>
<g opacity="0.3">
<path opacity="0.3" d="M52.9732 150.504C57.662 153.009 63.5095 151.231 66.0156 146.518C68.5216 141.831 66.7431 135.987 62.0274 133.482C60.4375 132.647 58.6321 132.243 56.8266 132.378L56.3686 137.307L54.6709 132.809C52.2457 133.563 50.1977 135.233 49.012 137.495C48.5809 138.276 48.2845 139.111 48.0958 140C47.1796 144.202 49.1737 148.484 52.9732 150.504Z" fill="#111111"/>
<path opacity="0.3" d="M56.4223 209.057C56.2067 204.775 60.2757 201.57 64.1291 199.657C67.9825 197.745 72.4018 195.968 74.1803 192.062C76.7403 186.433 72.3749 180.346 69.0334 175.148C66.5543 171.297 64.5602 167.149 63.0512 162.839C62.4584 161.116 61.9194 159.311 61.9733 157.48C62.0272 154.84 63.2398 152.362 64.4255 150.019C68.3867 142.155 72.5635 134.398 76.9019 126.722" stroke="#3F3D56" stroke-miterlimit="10"/>
<path opacity="0.3" d="M53.5657 149.292C58.2544 151.797 64.1019 150.019 66.608 145.306C69.1141 140.619 67.3356 134.775 62.6198 132.27C61.03 131.435 59.2245 131.031 57.4191 131.166L56.961 136.095L55.2364 131.57C52.8112 132.324 50.7632 133.994 49.5775 136.256C49.1464 137.037 48.85 137.872 48.6613 138.761C47.7451 142.99 49.7662 147.272 53.5657 149.292Z" stroke="#3F3D56" stroke-miterlimit="10"/>
<path opacity="0.3" d="M67.3358 123.597C68.8718 120.689 71.7821 118.776 75.0696 118.534L75.2044 123.301L77.3601 118.615C82.6148 119.45 86.1987 124.352 85.3903 129.604C84.5549 134.856 79.6506 138.438 74.3959 137.63C69.1413 136.822 65.5574 131.893 66.3658 126.641C66.4735 125.564 66.8239 124.54 67.3358 123.597Z" fill="#111111"/>
<path opacity="0.3" d="M68.0907 121.981C69.6267 119.073 72.537 117.16 75.8245 116.918L75.9592 121.685L78.115 116.999C83.3696 117.834 86.9536 122.736 86.1452 127.988C85.3098 133.24 80.4055 136.822 75.1508 136.014C69.8962 135.206 66.3122 130.277 67.1206 125.025C67.2554 123.948 67.5787 122.924 68.0907 121.981Z" stroke="#3F3D56" stroke-miterlimit="10"/>
<path opacity="0.3" d="M67.3361 174.987C72.0248 177.491 77.8723 175.687 80.3515 171C82.4533 167.041 81.5641 162.166 78.1687 159.23L76.525 162.84L76.3903 158.018H76.3633C71.6745 155.514 65.827 157.318 63.3479 162.005C60.8688 166.691 62.6473 172.509 67.3361 174.987Z" fill="#111111"/>
<path opacity="0.3" d="M68.0365 173.343C72.7252 175.848 78.5727 174.044 81.0518 169.357C83.1537 165.398 82.2645 160.523 78.8691 157.587L77.2254 161.196L77.0906 156.375H77.0637C72.3749 153.871 66.5274 155.675 64.0483 160.362C61.5423 165.021 63.3477 170.866 68.0365 173.343Z" stroke="#3F3D56" stroke-miterlimit="10"/>
<path opacity="0.3" d="M55.1562 189.423C55.3448 194.729 59.7911 198.903 65.0996 198.715C70.4082 198.526 74.5849 194.082 74.3963 188.776C74.2077 183.471 69.7614 179.296 64.4529 179.484C62.0546 179.565 59.7641 180.535 58.0395 182.205L61.3809 189.207L56.0454 185.006C55.4257 186.379 55.1023 187.888 55.1562 189.423Z" fill="#111111"/>
<path opacity="0.3" d="M55.7484 188.211C55.937 193.517 60.3833 197.691 65.6918 197.503C71.0004 197.314 75.1772 192.87 74.9885 187.564C74.7999 182.258 70.3537 178.084 65.0451 178.272C62.6468 178.353 60.3563 179.323 58.6317 180.993L61.9732 187.995L56.6377 183.794C55.9909 185.167 55.6945 186.675 55.7484 188.211Z" stroke="#3F3D56" stroke-miterlimit="10"/>
</g>
<g opacity="0.3">
<path opacity="0.3" d="M283.639 209.623C283.342 204.075 288.624 199.927 293.609 197.449C298.594 194.971 304.334 192.682 306.625 187.618C309.939 180.346 304.28 172.455 299.969 165.721C296.762 160.739 294.175 155.379 292.235 149.777C291.453 147.541 290.78 145.198 290.834 142.828C290.915 139.407 292.451 136.202 294.013 133.159C299.16 122.978 304.55 112.932 310.155 102.993" stroke="#3F3D56" stroke-miterlimit="10"/>
<path opacity="0.3" d="M316.622 91.6545L311.206 93.2166L311.583 90.7118C311.098 90.6849 310.613 90.658 310.128 90.658C303.068 90.658 297.328 93.9169 297.328 97.93C297.328 101.943 303.068 105.202 310.128 105.202C317.188 105.202 322.928 101.943 322.928 97.93C322.901 95.2366 320.395 92.9204 316.622 91.6545Z" fill="#1890FF"/>
<path opacity="0.3" d="M316.622 90.8464L311.206 92.4085L311.583 89.9037C311.098 89.8768 310.613 89.8499 310.128 89.8499C303.068 89.8499 297.328 93.1088 297.328 97.1219C297.328 101.135 303.068 104.394 310.128 104.394C317.188 104.394 322.928 101.135 322.928 97.1219C322.901 94.4285 320.395 92.1123 316.622 90.8464Z" stroke="#3F3D56" stroke-miterlimit="10"/>
<path opacity="0.3" d="M300.724 184.036L295.307 185.598L295.685 183.093C295.2 183.066 294.715 183.04 294.23 183.04C287.169 183.04 281.43 186.298 281.43 190.312C281.43 194.325 287.169 197.584 294.23 197.584C301.29 197.584 307.029 194.325 307.029 190.312C307.002 187.618 304.496 185.302 300.724 184.036Z" fill="#1890FF"/>
<path opacity="0.3" d="M300.724 183.228L295.307 184.79L295.685 182.285C295.2 182.258 294.715 182.231 294.23 182.231C287.169 182.231 281.43 185.49 281.43 189.503C281.43 193.517 287.169 196.776 294.23 196.776C301.29 196.776 307.029 193.517 307.029 189.503C307.002 186.81 304.496 184.494 300.724 183.228Z" stroke="#3F3D56" stroke-miterlimit="10"/>
<path opacity="0.3" d="M319.586 164.644L314.17 166.206L314.547 163.701C314.062 163.674 313.577 163.647 313.092 163.647C306.032 163.647 300.292 166.906 300.292 170.919C300.292 174.933 306.032 178.192 313.092 178.192C320.152 178.192 325.892 174.933 325.892 170.919C325.865 168.226 323.359 165.91 319.586 164.644Z" fill="#1890FF"/>
<path opacity="0.3" d="M319.586 163.836L314.17 165.398L314.547 162.893C314.062 162.866 313.577 162.839 313.092 162.839C306.032 162.839 300.292 166.098 300.292 170.111C300.292 174.124 306.032 177.383 313.092 177.383C320.152 177.383 325.892 174.124 325.892 170.111C325.865 167.418 323.359 165.102 319.586 163.836Z" stroke="#3F3D56" stroke-miterlimit="10"/>
<path opacity="0.3" d="M297.274 115.167L291.723 114.09L293.205 112.016C292.801 111.774 292.37 111.531 291.939 111.316C285.633 108.111 279.058 108.434 277.226 112.016C275.42 115.598 279.058 121.093 285.337 124.298C291.642 127.503 298.217 127.18 300.05 123.597C301.262 121.2 300.077 117.995 297.274 115.167Z" fill="#1890FF"/>
<path opacity="0.3" d="M297.651 114.44L292.1 113.363L293.582 111.289C293.178 111.047 292.747 110.804 292.315 110.589C286.01 107.384 279.435 107.707 277.602 111.289C275.797 114.871 279.435 120.366 285.713 123.571C291.992 126.776 298.594 126.452 300.426 122.87C301.639 120.5 300.426 117.268 297.651 114.44Z" stroke="#3F3D56" stroke-miterlimit="10"/>
<path opacity="0.3" d="M309.4 143.447L303.849 142.37L305.331 140.296C304.927 140.054 304.495 139.811 304.064 139.596C297.759 136.391 291.184 136.714 289.351 140.296C287.519 143.878 291.184 149.373 297.462 152.578C303.741 155.783 310.343 155.46 312.175 151.878C313.388 149.481 312.202 146.275 309.4 143.447Z" fill="#1890FF"/>
<path opacity="0.3" d="M309.778 142.72L304.227 141.643L305.709 139.569C305.305 139.327 304.873 139.084 304.442 138.869C298.137 135.664 291.562 135.987 289.729 139.569C287.897 143.151 291.562 148.646 297.84 151.851C304.119 155.056 310.721 154.733 312.553 151.15C313.766 148.78 312.553 145.548 309.778 142.72Z" stroke="#3F3D56" stroke-miterlimit="10"/>
</g>
<path d="M37 209.5H321" stroke="#3F3D56" stroke-miterlimit="10"/>
<path d="M156.827 88.584C156.827 88.584 155.803 74.6594 156.288 72.1007C156.773 69.542 157.231 62.2969 154.564 64.694C151.896 67.0911 152.839 72.4778 152.839 72.4778C152.839 72.4778 150.306 87.2104 152.65 89.2034C154.995 91.1965 156.827 88.584 156.827 88.584Z" fill="#A0616A"/>
<path d="M158.767 102.347C158.767 102.347 150.791 95.2368 151.222 89.2037C151.222 89.2037 155.965 85.5407 157.042 87.4799C158.12 89.4191 165.962 96.9874 164.615 99.5461C163.294 102.132 158.767 102.347 158.767 102.347Z" fill="#1890FF"/>
<path d="M187.008 89.6344C187.008 89.6344 191.75 76.4909 191.966 73.9053C192.182 71.3197 193.691 64.2093 195.631 67.2258C197.571 70.2424 195.2 75.1981 195.2 75.1981C195.2 75.1981 193.691 90.0654 190.888 91.3582C188.086 92.651 187.008 89.6344 187.008 89.6344Z" fill="#A0616A"/>
<path d="M174.073 155.594H186.792L187.439 162.059L184.421 162.705C184.421 162.705 177.307 160.55 173.211 161.197C169.115 161.843 174.073 155.594 174.073 155.594Z" fill="#A0616A"/>
<path d="M182.48 154.733C182.48 154.733 188.517 150.639 189.594 154.086C190.672 157.534 194.553 170.031 193.259 171.324C191.966 172.616 190.457 170.246 190.457 170.246C190.457 170.246 187.87 164.86 185.93 164.644C183.989 164.429 182.912 162.705 182.912 162.705C182.912 162.705 188.517 158.396 182.48 154.733Z" fill="#2F2E41"/>
<path d="M170.84 188.13C170.84 188.13 173.211 197.826 172.78 199.334C172.349 200.843 179.678 199.981 179.678 199.981L180.11 197.18C180.11 197.18 175.798 190.285 175.798 187.268C175.798 184.252 170.84 188.13 170.84 188.13Z" fill="#A0616A"/>
<path d="M179.678 195.24C179.678 195.24 185.499 199.55 182.481 201.704C179.463 203.859 168.253 209.461 168.253 209.461C168.253 209.461 164.157 210.108 167.175 206.445C170.193 202.782 171.055 202.135 171.271 200.196C171.459 198.903 171.918 197.664 172.591 196.56C172.591 196.56 175.582 202.566 179.678 195.24Z" fill="#2F2E41"/>
<path d="M162.001 143.501C162.001 143.501 159.629 165.91 163.294 173.02C166.959 180.131 171.27 189.827 171.055 190.258C170.839 190.689 177.307 189.611 177.307 187.672C177.307 185.733 170.193 166.341 170.193 166.341C170.193 166.341 173.211 141.131 175.582 139.407C177.953 137.684 162.001 143.501 162.001 143.501Z" fill="#2F2E41"/>
<path opacity="0.1" d="M162.001 143.501C162.001 143.501 159.629 165.91 163.294 173.02C166.959 180.131 171.27 189.827 171.055 190.258C170.839 190.689 177.307 189.611 177.307 187.672C177.307 185.733 170.193 166.341 170.193 166.341C170.193 166.341 173.211 141.131 175.582 139.407C177.953 137.684 162.001 143.501 162.001 143.501Z" fill="black"/>
<path d="M166.878 80.2617C165.342 80.5311 163.806 81.3929 163.052 82.8204C162.324 84.1671 162.297 85.9716 161.166 86.9412C160.492 87.5068 159.576 87.6415 158.794 88.0994C157.689 88.7996 157.07 90.0386 157.124 91.3314C157.177 92.5164 157.824 93.6207 157.797 94.8058C157.77 96.341 156.719 97.6338 155.695 98.765L159.037 99.3845C159.549 99.5191 160.061 99.5461 160.573 99.4383C161.139 99.2767 161.624 98.7919 162.19 98.6573C163.025 98.4418 163.86 98.9535 164.588 99.4114C166.717 100.704 168.98 101.674 171.271 102.616C171.944 102.913 172.699 103.182 173.346 102.886C173.885 102.643 174.208 102.051 174.72 101.755C175.609 101.189 176.741 101.62 177.738 101.889C180.028 102.509 182.427 102.293 184.582 101.297C184.124 100.758 183.505 100.381 183.02 99.8693C182.534 99.3575 182.13 98.6573 182.238 97.9301C182.373 97.2029 182.993 96.7181 183.424 96.1255C184.07 95.1828 184.286 94.0247 184.07 92.9204C183.855 91.8162 183.316 90.8196 182.534 90.0116C182.076 89.6076 181.672 89.1498 181.268 88.6919C180.486 87.6415 180.298 86.214 180.028 84.8943C179.786 83.5745 179.382 82.174 178.358 81.366C176.741 80.0732 174.1 80.5311 172.187 80.3964C170.435 80.2887 168.684 80.2617 166.878 80.2617Z" fill="#2F2E41"/>
<path d="M156.18 128.203L160.276 138.33C160.276 138.33 141.521 158.8 152.084 161.601C162.647 164.402 166.312 159.446 172.995 163.324C172.995 163.324 176.228 158.369 175.797 155.352C175.797 155.352 166.528 153.628 161.569 153.844C161.569 153.844 174.935 142.209 176.228 141.778C177.522 141.347 181.833 134.452 175.151 128.85C168.468 123.248 170.192 120.231 170.192 120.231L156.18 128.203Z" fill="#2F2E41"/>
<path d="M165.881 93.082C165.881 93.082 166.528 99.7615 163.725 100.623C160.923 101.485 174.72 101.27 174.72 101.27C174.72 101.27 171.486 99.3306 172.995 95.2367C174.504 91.1428 165.881 93.082 165.881 93.082Z" fill="#A0616A"/>
<path opacity="0.1" d="M165.881 93.082C165.881 93.082 166.528 99.7615 163.725 100.623C160.923 101.485 174.72 101.27 174.72 101.27C174.72 101.27 171.486 99.3306 172.995 95.2367C174.504 91.1428 165.881 93.082 165.881 93.082Z" fill="black"/>
<path d="M180.54 104.717C180.54 104.717 179.247 98.0378 176.66 98.4687C174.073 98.8997 168.899 99.3306 168.252 99.7615C167.606 100.192 164.156 101.081 164.156 101.081C164.156 101.081 165.45 99.5461 164.156 99.3306C162.863 99.1151 158.767 100.192 158.336 101.054C157.905 101.916 156.18 103.64 156.18 106.656C156.18 109.673 154.887 114.844 155.318 116.999C155.749 119.154 155.102 124.109 153.809 126.91C152.515 129.711 153.593 132.513 155.749 129.711C157.905 126.91 156.827 129.711 158.551 129.927C160.276 130.142 168.037 122.17 170.193 124.109C172.348 126.049 174.504 127.341 174.935 126.264C175.366 125.187 173.211 123.247 173.211 122.386C173.211 121.524 169.761 125.187 173.426 117.645C177.091 110.104 173.642 107.949 180.54 104.717Z" fill="#1890FF"/>
<path d="M178.816 104.286L180.541 104.717C180.541 104.717 186.792 100.192 188.517 96.9604C190.241 93.7284 191.535 91.1427 191.535 91.1427C191.535 91.1427 188.732 87.6953 187.008 88.9881C185.283 90.2809 177.522 99.115 177.522 99.115L178.816 104.286Z" fill="#1890FF"/>
<path d="M170.839 97.6068C174.53 97.6068 177.522 94.6163 177.522 90.9273C177.522 87.2383 174.53 84.2478 170.839 84.2478C167.148 84.2478 164.156 87.2383 164.156 90.9273C164.156 94.6163 167.148 97.6068 170.839 97.6068Z" fill="#A0616A"/>
<path d="M164.938 88.9879C166.07 88.0453 167.552 87.5605 169.007 87.6413C171.567 87.8029 173.831 89.6343 176.391 89.6882C176.283 89.1226 176.364 88.557 176.607 88.0453C176.795 87.6413 177.119 87.2373 177.065 86.7794C176.984 86.4293 176.795 86.1061 176.499 85.8637C175.017 84.4631 172.969 83.7359 170.921 83.6551C169.546 83.6013 166.933 83.6282 165.882 84.6517C164.992 85.5674 165.1 87.8567 164.938 88.9879Z" fill="#2F2E41"/>
<path d="M148.366 52.2241C147.827 52.3049 147.369 52.3857 146.911 52.6011V52.5203L141.467 44.4672C141.467 44.4672 141.467 44.4672 141.387 44.3864C142.734 42.932 142.734 40.6696 141.306 39.2152C139.851 37.8685 137.587 37.8685 136.132 39.296C135.97 39.4576 135.863 39.6731 135.674 39.8347C135.674 39.8347 135.593 39.8347 135.593 39.7539L115.733 32.5088V32.2394C115.733 30.2194 114.089 28.6304 112.122 28.6304C110.101 28.6304 108.511 30.2733 108.511 32.2394C108.511 34.2056 110.155 35.8485 112.122 35.8485L113.928 43.6592C108.484 44.6558 104.954 49.9078 105.951 55.2675C106.49 57.9878 108.053 60.331 110.398 61.8124L102.367 74.1479C100.481 73.5284 98.3793 74.5249 97.7595 76.3295C97.1397 78.134 98.1368 80.3156 99.9422 80.9351C101.829 81.5546 103.93 80.558 104.55 78.7535C104.712 78.2956 104.82 77.9455 104.82 77.4876C104.82 76.5719 104.442 75.7639 103.903 75.1444L111.961 62.6473C114.952 63.8324 118.293 63.563 121.015 61.8393L126.189 68.4649C125.111 70.1887 125.65 72.3703 127.374 73.4476C129.099 74.5249 131.282 73.9863 132.359 72.2625C132.898 71.3468 133.087 70.1617 132.737 69.1652H132.818L144.512 62.9974C144.593 62.9974 144.593 62.9166 144.674 62.9166C146.048 64.371 148.501 65.1521 150.576 64.8558C150.576 64.2364 149.875 63.6169 149.74 62.9974C149.578 63.0244 149.39 63.0244 149.228 63.0244C146.668 63.0244 144.701 61.0044 144.701 58.4995C144.701 55.9678 146.722 53.9747 149.228 53.9747C149.525 53.9747 149.794 54.0017 150.09 54.0555C150.144 53.3283 150.252 52.8974 150.198 52.1971C149.632 52.0355 148.366 52.2241 148.366 52.2241ZM101.182 79.3191C100.185 79.3191 99.3763 78.5111 99.3763 77.5145C99.3763 76.518 100.185 75.71 101.182 75.71C102.179 75.71 102.987 76.518 102.987 77.5145C103.014 78.5111 102.179 79.3191 101.182 79.3191ZM138.638 40.0771C139.635 40.0771 140.443 40.8851 140.443 41.8816C140.443 42.8782 139.635 43.6862 138.638 43.6862C137.641 43.6862 136.833 42.8782 136.833 41.8816C136.833 40.8581 137.668 40.0771 138.638 40.0771ZM112.068 33.9901C111.071 33.9901 110.263 33.1821 110.263 32.1856C110.263 31.189 111.071 30.381 112.068 30.381C113.065 30.381 113.874 31.189 113.874 32.1856C113.874 33.1552 113.092 33.9901 112.068 33.9901ZM113.631 35.4984C114.251 35.2291 114.817 34.7712 115.194 34.2325L135.054 41.5854H135.135V41.9624C135.135 42.124 135.135 42.3395 135.216 42.5011L124.437 48.5072C122.712 45.3291 119.371 43.336 115.706 43.336L113.901 35.4176L113.631 35.4984ZM115.706 61.4622C111.179 61.4622 107.541 57.8531 107.541 53.3014C107.541 48.7496 111.152 45.1406 115.706 45.1406C120.233 45.1406 123.871 48.7496 123.871 53.3014C123.871 57.8531 120.233 61.4622 115.706 61.4622ZM129.314 72.074C128.317 72.074 127.509 71.266 127.509 70.2695C127.509 69.2729 128.317 68.4649 129.314 68.4649C130.311 68.4649 131.12 69.2729 131.12 70.2695C131.12 71.2391 130.311 72.074 129.314 72.074ZM131.928 67.4414C131.847 67.4414 131.847 67.5223 131.767 67.6031C130.581 66.5257 128.856 66.2564 127.482 67.1452L122.497 60.7081C123.952 59.3614 124.949 57.7185 125.407 55.8062L142.923 58.5265C142.923 59.4422 143.192 60.4118 143.542 61.2468L131.928 67.4414ZM143.192 56.7219L125.677 53.9209V53.3014C125.677 52.2241 125.515 51.1198 125.138 50.1233L135.836 44.0363C136.752 45.2214 138.396 45.76 139.824 45.2214C139.824 45.3022 139.824 45.3022 139.905 45.3022L145.348 53.463C144.351 54.2979 143.569 55.4561 143.192 56.7219Z" fill="#1890FF"/>
<path d="M235.377 7.3797C234.192 6.9757 232.871 7.6221 232.494 8.75331C232.386 9.04957 232.332 9.26504 232.332 9.53438C232.332 10.1 232.575 10.6117 232.898 11.0157L227.832 18.8533C225.973 18.1261 223.871 18.2877 222.146 19.3651L218.913 15.2173C219.586 14.14 219.263 12.7664 218.185 12.0931C217.107 11.4197 215.733 11.7429 215.059 12.8203C214.709 13.3859 214.601 14.14 214.817 14.7325H214.763L207.433 18.584C207.379 18.584 207.379 18.6379 207.325 18.6379C206.49 17.7491 205.358 17.3181 204.227 17.3989V18.6109C204.307 18.6109 204.415 18.584 204.496 18.584C206.086 18.584 207.325 19.8499 207.325 21.412C207.325 23.0011 206.059 24.24 204.496 24.24C204.523 24.3208 204.523 24.4016 204.496 24.4824C204.469 24.671 204.469 24.8326 204.469 25.0211C204.496 25.048 204.496 25.048 204.523 25.075L204.55 25.1019C204.604 25.1288 204.631 25.1558 204.685 25.1827C204.766 25.2366 204.873 25.2904 204.981 25.3443C205.008 25.3443 205.035 25.3443 205.062 25.3712V25.3443C205.412 25.2904 205.682 25.2366 205.978 25.1019V25.1558L209.4 30.2193C209.4 30.2193 209.4 30.2193 209.454 30.2731C208.619 31.1889 208.619 32.6163 209.508 33.5051C210.424 34.3401 211.853 34.3401 212.742 33.4513C212.85 33.3435 212.903 33.2089 213.038 33.1011C213.038 33.1011 213.092 33.1011 213.092 33.155L225.542 37.7068V37.8684C225.542 39.1342 226.566 40.1308 227.805 40.1308C229.072 40.1308 230.069 39.1073 230.069 37.8684C230.069 36.6294 229.045 35.6059 227.805 35.6059L226.673 30.7041C230.096 30.0846 232.305 26.7987 231.685 23.432C231.335 21.7352 230.365 20.2539 228.91 19.3381L233.868 11.6082C235.054 12.0123 236.374 11.3658 236.752 10.2346C237.156 9.15731 236.536 7.7837 235.377 7.3797ZM216.972 12.9549C217.592 12.9549 218.104 13.4667 218.104 14.0861C218.104 14.7056 217.592 15.2173 216.972 15.2173C216.353 15.2173 215.841 14.7056 215.841 14.0861C215.841 13.4936 216.326 12.9549 216.972 12.9549ZM215.302 15.8637C215.356 15.8637 215.356 15.8099 215.41 15.756C216.137 16.4293 217.215 16.5909 218.077 16.0523L221.203 20.0654C220.287 20.9003 219.667 21.9238 219.398 23.1358L208.43 21.439C208.43 20.8734 208.269 20.2539 208.026 19.7421L215.302 15.8637ZM211.098 33.0203C210.478 33.0203 209.966 32.5086 209.966 31.8891C209.966 31.2697 210.478 30.7579 211.098 30.7579C211.718 30.7579 212.23 31.2697 212.23 31.8891C212.23 32.5086 211.745 33.0203 211.098 33.0203ZM212.877 30.5155C212.311 29.7883 211.287 29.4382 210.37 29.7883C210.37 29.7345 210.37 29.7345 210.317 29.7345L206.894 24.6171C207.514 24.1054 208.026 23.3512 208.269 22.5702L219.236 24.3208V24.7248C219.236 25.3982 219.344 26.0984 219.586 26.7179L212.877 30.5155ZM227.778 36.8449C228.398 36.8449 228.91 37.3566 228.91 37.9761C228.91 38.5956 228.398 39.1073 227.778 39.1073C227.158 39.1073 226.646 38.5956 226.646 37.9761C226.619 37.3297 227.131 36.8449 227.778 36.8449ZM226.808 35.8753C226.404 36.0369 226.081 36.3332 225.838 36.6564L213.389 32.0507H213.335V31.8353C213.335 31.7275 213.335 31.5929 213.281 31.4851L220.044 27.7414C221.122 29.7345 223.224 30.9734 225.515 30.9734L226.646 35.9291L226.808 35.8753ZM230.608 24.7248C230.608 27.5528 228.344 29.8422 225.488 29.8422C222.631 29.8422 220.368 27.5528 220.368 24.7248C220.368 21.8968 222.631 19.6075 225.488 19.6075C228.344 19.6075 230.608 21.8699 230.608 24.7248ZM234.596 10.6925C233.976 10.6925 233.464 10.1808 233.464 9.56131C233.464 8.94184 233.976 8.4301 234.596 8.4301C235.216 8.4301 235.728 8.94184 235.728 9.56131C235.728 10.2077 235.216 10.6925 234.596 10.6925Z" fill="#1890FF"/>
<path d="M183.101 48.2647C183.37 48.5341 183.828 48.5341 184.098 48.2647C184.367 47.9954 184.367 47.5645 184.098 47.2951C180.514 43.6861 180.514 37.8684 184.098 34.2863C184.367 34.017 184.367 33.5591 184.098 33.2898C183.828 33.0204 183.37 33.0204 183.101 33.2898C179.49 36.8719 173.669 36.8719 170.085 33.2898C169.816 33.0204 169.358 33.0204 169.088 33.2898C168.819 33.5591 168.819 33.99 169.088 34.2863C172.672 37.8954 172.672 43.713 169.088 47.2951C168.819 47.5645 168.819 48.0223 169.088 48.2917C169.358 48.561 169.816 48.561 170.085 48.2917C173.669 44.6826 179.517 44.6826 183.101 48.2647ZM172.268 45.0866C173.481 42.3394 173.481 39.1882 172.268 36.441C175.017 37.653 178.169 37.653 180.918 36.441C179.705 39.1882 179.705 42.3394 180.918 45.0866C178.169 43.8746 175.017 43.8746 172.268 45.0866ZM169.816 58.5264C169.816 56.1562 169.034 53.84 167.606 51.9277C173.238 48.9381 179.975 48.9381 185.607 51.9277C181.942 56.7757 182.912 63.6976 187.762 67.3605C192.613 71.0235 199.538 70.0539 203.203 65.2059C206.868 60.3579 205.898 53.436 201.047 49.773C197.113 46.8103 191.697 46.8103 187.789 49.773C184.798 44.1439 184.798 37.4106 187.789 31.7815C192.64 35.4444 199.565 34.4748 203.23 29.6268C206.895 24.7788 205.925 17.8569 201.074 14.194C196.224 10.531 189.298 11.5006 185.634 16.3486C182.67 20.2809 182.67 25.6945 185.634 29.5999C180.002 32.5895 173.265 32.5895 167.633 29.5999C171.298 24.7519 170.328 17.83 165.477 14.167C160.627 10.5041 153.702 11.4737 150.037 16.3217C146.372 21.1697 147.342 28.0916 152.193 31.7546C156.127 34.7172 161.543 34.7172 165.45 31.7546C168.442 37.3836 168.442 44.117 165.45 49.7461C160.6 46.1101 153.729 47.1066 150.091 51.9277C146.453 56.7757 147.45 63.6437 152.273 67.2798C157.124 70.9158 163.995 69.9192 167.633 65.0981C169.061 63.2128 169.816 60.8965 169.816 58.5264ZM194.338 48.9381C199.646 48.9111 203.958 53.1936 203.985 58.4995C204.011 63.8053 199.7 68.1416 194.418 68.1416C189.11 68.1686 184.798 63.8861 184.771 58.5802C184.771 56.4256 185.472 54.3248 186.819 52.628C188.005 53.3821 189.137 54.2709 190.134 55.2674L192.128 57.2605C191.67 58.0416 191.67 58.9843 192.128 59.7384L189.11 62.7549C188.84 63.0243 188.84 63.4821 189.11 63.7515C189.379 64.0208 189.837 64.0208 190.107 63.7515L193.098 60.7619C193.475 60.9773 193.906 61.0851 194.338 61.0851C195.766 61.0851 196.897 59.9269 196.897 58.5264C196.897 58.0955 196.79 57.6645 196.574 57.2874L199.565 54.2978C199.835 54.0285 199.835 53.5706 199.565 53.3013C199.296 53.032 198.838 53.032 198.568 53.3013L195.577 56.2909C194.796 55.833 193.852 55.833 193.098 56.2909L191.104 54.2978C190.107 53.3013 189.218 52.197 188.463 50.985C190.134 49.6653 192.209 48.9381 194.338 48.9381ZM193.529 59.3344C193.071 58.8765 193.071 58.1224 193.529 57.6645C193.987 57.2066 194.715 57.2066 195.173 57.6645C195.631 58.1224 195.631 58.8496 195.173 59.3075C194.715 59.7923 193.987 59.7923 193.529 59.3344ZM184.771 23.0281C184.744 17.7222 189.029 13.4129 194.338 13.386C199.646 13.359 203.958 17.6414 203.985 22.9473C204.011 28.2532 199.727 32.5626 194.418 32.5895C192.263 32.5895 190.161 31.8892 188.463 30.5425C189.218 29.3575 190.107 28.2263 191.104 27.2297L193.098 25.2367C193.879 25.6945 194.823 25.6945 195.577 25.2367L198.568 28.2263C198.838 28.4956 199.296 28.4956 199.565 28.2263C199.835 27.9569 199.835 27.4991 199.565 27.2297L196.574 24.2401C196.79 23.8631 196.897 23.4321 196.897 23.0012C196.897 21.5737 195.739 20.4425 194.338 20.4425C193.906 20.4425 193.475 20.5502 193.098 20.7657L190.107 17.7761C189.837 17.5068 189.379 17.5068 189.11 17.7761C188.84 18.0454 188.84 18.5033 189.11 18.7726L192.101 21.7892C191.643 22.5703 191.643 23.5129 192.101 24.2671L190.107 26.2601C189.11 27.2567 188.005 28.1455 186.792 28.8996C185.472 27.2297 184.771 25.1559 184.771 23.0281ZM194.338 21.87C194.984 21.87 195.496 22.3817 195.496 23.0281C195.496 23.3244 195.362 23.6207 195.146 23.8631C194.688 24.3209 193.96 24.3209 193.502 23.8631C193.044 23.4052 193.044 22.678 193.502 22.2201C193.745 21.9777 194.041 21.87 194.338 21.87ZM158.848 32.6164C153.54 32.6434 149.228 28.3609 149.201 23.0551C149.174 17.7492 153.459 13.4398 158.768 13.4129C164.076 13.386 168.388 17.6684 168.415 22.9743C168.415 25.1289 167.714 27.2297 166.367 28.9265C165.181 28.1724 164.049 27.2836 163.052 26.2871L161.058 24.294C161.516 23.5129 161.516 22.5703 161.058 21.8161L164.076 18.7996C164.346 18.5302 164.346 18.0724 164.076 17.803C163.807 17.5337 163.349 17.5337 163.079 17.803L160.088 20.7926C159.711 20.5772 159.28 20.4694 158.848 20.4694C157.42 20.4694 156.288 21.6276 156.288 23.0281C156.288 23.4591 156.396 23.89 156.612 24.2671L153.621 27.2567C153.351 27.526 153.351 27.9839 153.621 28.2532C153.89 28.5225 154.348 28.5225 154.618 28.2532L157.609 25.2636C158.39 25.7215 159.333 25.7215 160.088 25.2636L162.082 27.2567C163.079 28.2532 163.968 29.3575 164.723 30.5695C163.052 31.8892 160.977 32.6164 158.848 32.6164ZM159.657 22.1932C160.115 22.6511 160.115 23.4052 159.657 23.8631C159.199 24.3209 158.471 24.3209 158.013 23.8631C157.555 23.4052 157.555 22.678 158.013 22.2201C158.471 21.7622 159.199 21.7622 159.657 22.1932ZM169.061 40.7772C169.061 37.3028 168.172 33.9092 166.501 30.8657C166.555 30.8119 166.609 30.758 166.663 30.7041C172.834 34.0978 180.325 34.0978 186.496 30.7041C186.55 30.758 186.604 30.8119 186.658 30.8657C183.262 37.0335 183.262 44.521 186.658 50.6888C186.604 50.7426 186.55 50.7965 186.496 50.8504C180.325 47.4567 172.834 47.4567 166.663 50.8504C166.609 50.7965 166.555 50.7426 166.501 50.6888C168.199 47.6453 169.061 44.2517 169.061 40.7772ZM149.255 58.5264C149.255 53.2474 153.513 48.965 158.795 48.965C160.95 48.965 163.025 49.6653 164.696 51.012C163.941 52.197 163.052 53.3282 162.055 54.3248L160.061 56.3178C159.28 55.86 158.336 55.86 157.582 56.3178L154.591 53.3282C154.321 53.0589 153.863 53.0589 153.594 53.3282C153.324 53.5976 153.324 54.0554 153.594 54.3248L156.585 57.3144C156.369 57.6914 156.262 58.1224 156.262 58.5533C156.262 59.9808 157.42 61.112 158.821 61.112C159.253 61.112 159.684 61.0043 160.061 60.7888L163.052 63.7784C163.322 64.0477 163.78 64.0477 164.049 63.7784C164.319 63.5091 164.319 63.0512 164.049 62.7819L161.058 59.7923C161.516 59.0112 161.516 58.0685 161.058 57.3144L163.052 55.3213C164.049 54.3248 165.154 53.436 166.367 52.6818C169.627 56.8565 168.873 62.8627 164.696 66.1216C160.519 69.3806 154.51 68.6264 151.249 64.4517C149.983 62.728 149.255 60.6541 149.255 58.5264ZM159.657 57.6914C160.115 58.1493 160.115 58.8765 159.657 59.3344C159.199 59.7923 158.471 59.7923 158.013 59.3344C157.555 58.8765 157.555 58.1493 158.013 57.6914C158.471 57.2336 159.199 57.2336 159.657 57.6914ZM201.047 22.3279C201.425 22.3279 201.748 22.6511 201.748 23.0281C201.748 23.9977 201.559 24.9404 201.209 25.8292C201.074 26.1793 200.643 26.3679 200.293 26.2063C199.942 26.0716 199.754 25.6407 199.916 25.2905C200.212 24.5633 200.347 23.8092 200.347 23.0281C200.347 22.6511 200.67 22.3279 201.047 22.3279ZM187.628 23.7284C187.25 23.7284 186.927 23.4052 186.927 23.0281C186.927 21.9777 187.143 20.9542 187.574 20.0116C187.736 19.6614 188.14 19.4998 188.49 19.6614C188.84 19.823 189.002 20.227 188.84 20.5772C188.49 21.3582 188.328 22.1932 188.328 23.0281C188.328 23.4321 188.005 23.7284 187.628 23.7284ZM192.074 64.1016C192.802 64.3979 193.556 64.5325 194.338 64.5325C194.715 64.5325 195.038 64.8557 195.038 65.2328C195.038 65.6099 194.715 65.9331 194.338 65.9331C193.367 65.9331 192.424 65.7445 191.535 65.3944C191.185 65.2597 190.996 64.8288 191.158 64.4787C191.293 64.1285 191.724 63.94 192.074 64.1016ZM196.79 53.032C196.008 52.6818 195.173 52.5202 194.338 52.5202C193.96 52.5202 193.637 52.197 193.637 51.82C193.637 51.4429 193.96 51.1197 194.338 51.1197C195.388 51.1197 196.412 51.3352 197.356 51.7661C197.706 51.9277 197.868 52.3317 197.706 52.6818C197.571 53.032 197.14 53.1936 196.79 53.032ZM156.558 28.6033C157.286 28.8996 158.04 29.0343 158.821 29.0343C159.199 29.0343 159.522 29.3575 159.522 29.7345C159.522 30.1116 159.199 30.4348 158.821 30.4348C157.851 30.4348 156.908 30.2463 156.019 29.8961C155.669 29.7615 155.48 29.3305 155.642 28.9804C155.803 28.6303 156.208 28.4417 156.558 28.6033ZM161.274 17.5337C160.492 17.1836 159.657 17.022 158.821 17.022C158.444 17.022 158.121 16.6988 158.121 16.3217C158.121 15.9446 158.444 15.6214 158.821 15.6214C159.872 15.6214 160.896 15.8369 161.84 16.2678C162.19 16.4294 162.352 16.8334 162.19 17.1836C162.055 17.5337 161.651 17.6953 161.274 17.5337C161.301 17.5337 161.274 17.5337 161.274 17.5337ZM152.112 59.1997C151.734 59.1997 151.411 58.8765 151.411 58.4995C151.411 57.5298 151.6 56.5872 151.95 55.6984C152.085 55.3482 152.516 55.1597 152.866 55.3213C153.217 55.456 153.405 55.8869 153.243 56.237C152.947 56.9642 152.812 57.7184 152.812 58.4995C152.812 58.9035 152.516 59.1997 152.112 59.1997ZM164.696 61.8931C164.346 61.7315 164.184 61.3275 164.346 60.9773C164.696 60.1963 164.858 59.3613 164.858 58.5264C164.858 58.1493 165.181 57.8261 165.558 57.8261C165.935 57.8261 166.259 58.1493 166.259 58.5264C166.259 59.5768 166.043 60.6003 165.612 61.5429C165.45 61.8931 165.046 62.0547 164.696 61.8931ZM179.382 40.7772C179.382 39.242 178.115 37.9762 176.58 37.9762C175.044 37.9762 173.777 39.242 173.777 40.7772C173.777 42.3125 175.044 43.5783 176.58 43.5783C178.142 43.5783 179.382 42.3125 179.382 40.7772ZM175.178 40.7772C175.178 39.9962 175.798 39.3767 176.58 39.3767C177.361 39.3767 177.981 39.9962 177.981 40.7772C177.981 41.5583 177.361 42.1778 176.58 42.1778C175.825 42.1778 175.178 41.5583 175.178 40.7772Z" fill="black"/>
</svg>
