<svg width="307" height="236" viewBox="0 0 307 236" fill="none" xmlns="http://www.w3.org/2000/svg">
<path opacity="0.1" d="M188.811 32.3255C171.996 43.9993 158.575 42.9708 143.612 37.0567C128.648 31.1427 114.97 20.5489 100.366 13.0407C88.231 6.76668 75.4271 2.65258 62.3661 0.801232C43.803 -1.82151 23.0803 1.36692 10.1221 19.8289C-4.27587 40.2966 -3.1446 77.3235 12.4361 96.1455C20.3549 105.711 30.742 110.442 39.7922 117.899C48.8423 125.356 57.224 137.801 56.4527 152.2C55.7328 165.571 47.4539 175.805 38.8666 182.284C32.2332 187.273 24.0573 192.673 23.2345 203.009C22.4632 212.986 29.3022 220.803 35.8842 225.225C57.2754 239.728 83.6545 239.573 104.994 224.865C112.605 219.62 119.598 212.626 127.568 208.563C148.497 197.815 171.585 208.615 193.799 212.574C212.671 215.917 231.851 214.169 250.105 207.483C261.109 203.472 272.114 197.352 279.827 185.884C285.38 177.656 288.877 167.217 292.116 156.88C295.562 145.875 298.904 134.818 302.144 123.659C304.046 116.973 305.949 110.133 306.463 102.985C307.337 90.0258 303.583 77.1692 298.39 66.2668C286.152 40.2452 265.48 21.9888 243.163 17.3605C220.847 12.7321 205.677 20.6003 188.811 32.3255Z" fill="white"/>
<g opacity="0.1">
<path opacity="0.1" d="M81.5463 13.7606L79.5923 127.413C79.5923 127.413 150.502 127.413 210.871 147.006L212.053 32.1712C212.002 32.1712 115.227 9.02942 81.5463 13.7606Z" fill="black"/>
</g>
<path d="M80.0043 11.7035L78.0503 125.355C78.0503 125.355 148.96 125.355 209.329 144.949L210.511 30.1141C210.46 30.1141 113.685 6.97229 80.0043 11.7035Z" fill="white"/>
<g opacity="0.2">
<path d="M98.9263 35.3596L147.005 43.9478V50.9418L98.9263 41.685V35.3596Z" fill="#0B3F9C"/>
</g>
<path opacity="0.2" d="M99.5952 48.3706L187.371 66.5241V73.518L99.5952 54.7475V48.3706Z" fill="#3CBCF7"/>
<path opacity="0.2" d="M99.5952 61.4329L187.371 79.5863V86.5803L99.5952 67.8097V61.4329Z" fill="#3CBCF7"/>
<path opacity="0.1" d="M112.296 210.929C138.991 210.929 160.632 207.222 160.632 202.649C160.632 198.077 138.991 194.37 112.296 194.37C85.6007 194.37 63.96 198.077 63.96 202.649C63.96 207.222 85.6007 210.929 112.296 210.929Z" fill="#1890FF"/>
<path d="M102.577 90.9001C102.32 91.4144 102.166 91.9286 102.063 92.4943C102.012 92.6486 102.012 92.7515 101.96 92.9057C101.652 94.5 101.446 96.4542 101.343 97.5855C101.292 98.1512 101.24 98.5112 101.24 98.5112C101.24 98.5112 90.0818 97.7398 92.0358 95.8885C92.55 95.3742 92.91 94.7571 93.0642 94.0371C93.1156 93.8314 93.1671 93.6257 93.2185 93.42C93.3213 92.9572 93.3727 92.4943 93.3727 91.9801C93.3727 91.8772 93.3727 91.7229 93.3727 91.6201C93.3727 90.8487 93.3727 90.0773 93.2699 89.3059C93.2699 89.3059 96.8694 89.3059 99.6461 89.6145C101.497 89.923 102.937 90.283 102.577 90.9001Z" fill="#D38884"/>
<path d="M83.2434 143.972C79.4382 143.869 82.2664 135.95 82.6777 134.87C83.0891 133.79 82.0093 131.218 82.0093 131.218C82.0093 131.218 80.7237 123.659 80.7237 123.196C80.6723 122.167 80.5181 121.139 80.3124 120.162C80.1581 119.133 80.3638 118.105 80.8266 117.179C81.2379 116.511 81.1865 113.733 81.1865 113.733V110.185L82.0607 109.054L84.2204 111.111L84.8374 111.676L85.9173 115.636L85.5573 121.345L85.3517 126.899L86.6372 134.561C86.5858 134.51 87.0486 144.126 83.2434 143.972Z" fill="#D38884"/>
<path opacity="0.1" d="M84.4256 112.036L81.186 110.699V110.185L82.0602 109.054L84.2199 111.111L84.4256 112.036Z" fill="black"/>
<path d="M82.9345 103.911C82.5231 104.939 82.2146 106.019 82.0089 107.099C81.8547 108.128 81.5461 109.156 81.1348 110.133L84.7343 111.625L82.9345 103.911Z" fill="#4C4981"/>
<path opacity="0.05" d="M82.9345 103.911C82.5231 104.939 82.2146 106.019 82.0089 107.099C81.8547 108.128 81.5461 109.156 81.1348 110.133L84.7343 111.625L82.9345 103.911Z" fill="black"/>
<path d="M111.628 182.593L111.32 183.21C111.32 183.21 111.011 185.319 111.011 185.37C111.011 185.422 110.085 186.81 110.085 186.81L107.72 187.325L106.743 187.222C106.692 186.656 106.589 186.039 106.486 185.473C106.435 185.319 106.435 185.165 106.383 184.959C106.023 183.622 105.458 182.388 104.738 181.256C104.738 181.256 102.989 176.936 102.372 176.371C101.755 175.805 99.3898 170.148 99.6469 168.76C99.8012 167.988 99.6469 165.468 99.5441 163.411C99.4412 161.714 99.3384 160.274 99.3384 160.274L105.252 156.777L105.92 157.857L106.332 158.474C106.332 158.474 106.332 158.577 106.332 158.783V158.834C106.28 159.709 106.075 160.583 105.817 161.406C105.817 161.406 105.355 164.594 105.817 165.16C106.28 165.726 107.669 173.234 107.977 176.679C107.977 176.782 107.977 176.885 107.977 176.988C108.08 178.582 109.108 180.022 110.085 181.051C110.137 181.102 110.188 181.205 110.291 181.256C110.651 181.822 111.114 182.233 111.628 182.593Z" fill="#D38884"/>
<path opacity="0.1" d="M106.691 187.273L107.668 187.376L110.034 186.862L110.959 185.422L111.268 183.262L111.576 182.645L111.628 182.593C111.062 182.182 110.497 181.771 110.034 181.256C109.982 181.205 109.931 181.153 109.879 181.102C109.828 181.051 110.239 183.159 108.44 184.085C107.566 184.548 106.846 184.856 106.383 185.113L106.691 187.273Z" fill="black"/>
<path d="M112.039 182.902L111.679 183.621C111.679 183.621 111.371 185.73 111.371 185.781C111.371 185.833 110.445 187.221 110.445 187.221L108.08 187.736L106.743 187.581C106.743 187.324 106.692 186.913 106.64 186.45C106.589 186.193 106.537 185.833 106.486 185.524C107 185.267 107.771 184.907 108.8 184.393C110.6 183.467 110.24 181.41 110.24 181.41C110.651 181.822 111.062 182.182 111.474 182.49C111.731 182.696 111.885 182.799 112.039 182.902Z" fill="#CEDDF9"/>
<path opacity="0.1" d="M112.039 182.902L111.679 183.622C111.679 183.622 111.37 185.73 111.37 185.782C111.37 185.833 110.445 187.221 110.445 187.221L108.079 187.736L106.742 187.581C106.742 187.324 106.691 186.913 106.64 186.45C106.948 186.45 107.205 186.501 107.514 186.553C107.514 186.553 110.702 187.221 110.856 184.702C110.959 183.262 111.268 182.696 111.473 182.49C111.73 182.696 111.885 182.799 112.039 182.902Z" fill="black"/>
<path d="M111.783 182.748C111.783 182.748 111.011 182.593 110.806 185.113C110.6 187.633 107.463 186.965 107.463 186.965C107.463 186.965 105.869 186.553 105.869 187.222C105.921 187.839 106.075 188.404 106.281 188.97C106.281 188.97 106.383 190.462 106.692 190.822C107 191.181 106.795 192.519 106.795 192.519C106.795 192.519 106.898 193.496 109.417 192.519C109.417 192.519 111.628 192.056 113.479 189.33C113.531 189.227 113.274 188.97 114.868 188.404C116.462 187.839 121.038 184.136 120.73 182.336C120.678 181.719 120.216 181.205 119.65 181.051C119.187 180.896 118.673 180.999 118.21 181.256C117.799 181.513 117.336 181.719 116.873 181.873C116.256 182.13 115.639 182.285 114.971 182.336C114.457 182.388 113.994 182.49 113.479 182.593C112.914 182.748 112.348 182.85 111.783 182.748Z" fill="#CC8294"/>
<path d="M93.6312 165.262C93.2713 165.571 92.9627 165.879 92.7056 166.291C91.78 167.679 91.2658 169.634 90.6488 170.456C89.8775 171.536 89.6203 173.645 89.6203 173.645C89.4147 175.033 86.4836 182.387 85.7123 183.673C84.941 184.959 83.8097 188.558 83.8097 188.558C83.1413 189.381 83.1927 190.667 83.2441 191.233C83.2441 191.335 83.2441 191.438 83.2955 191.49C83.3469 191.541 83.2955 191.593 83.2955 191.593V191.644L82.2157 193.495L78.7704 193.032L76.9707 191.85C77.125 191.593 77.2278 191.387 77.3821 191.13C78.3077 189.021 79.0276 185.216 79.0276 185.216C79.0276 185.216 80.0046 180.896 79.9017 179.867C79.9017 178.479 80.0046 177.142 80.1588 175.753C80.1588 175.753 82.8842 167.525 83.7069 166.188C84.0668 165.674 84.2725 165.057 84.3754 164.388C84.3754 164.285 84.3754 164.131 84.3754 163.977L85.5581 162.845C85.5581 162.794 95.1224 164.079 93.6312 165.262Z" fill="#D38884"/>
<path opacity="0.1" d="M83.3463 191.233C83.3463 191.233 83.3463 191.335 83.3463 191.49V191.644L82.2665 193.495L78.8212 193.032L77.0215 191.85C77.1757 191.593 77.2786 191.387 77.4329 191.13C78.307 190.873 80.261 191.593 80.261 191.593C80.261 191.593 82.3693 191.901 83.3463 191.233C83.2949 191.233 83.2949 191.233 83.3463 191.233Z" fill="black"/>
<path d="M82.4719 196.118L78.9752 196.941L75.7871 194.575L75.9414 193.238C76.1471 193.084 76.3527 192.929 76.507 192.724C76.7641 192.466 76.9184 192.106 76.9698 191.747C77.1755 190.769 80.2093 191.849 80.2093 191.849C80.2093 191.849 82.4205 192.261 83.2946 191.592C83.2432 192.261 83.2946 192.878 83.4489 193.495C83.5517 193.804 83.706 194.061 83.9631 194.266C84.8887 194.884 82.4719 196.118 82.4719 196.118Z" fill="#CEDDF9"/>
<path opacity="0.1" d="M82.4719 196.118L78.9752 196.941L75.7871 194.575L75.9414 193.238C76.1471 193.084 76.3527 192.929 76.507 192.724C76.7641 192.724 76.9698 192.724 77.2269 192.724C77.7411 192.775 79.0267 195.038 79.0267 195.038C82.1634 195.244 83.1404 194.215 83.4489 193.444C83.5517 193.752 83.706 194.009 83.9631 194.215C84.8887 194.884 82.4719 196.118 82.4719 196.118Z" fill="black"/>
<path d="M79.0265 195.45C79.0265 195.45 77.7409 193.135 77.2267 193.135C76.7639 193.135 76.3012 193.135 75.8898 193.135C75.8898 193.135 74.5014 196.478 73.9872 196.735C73.473 196.992 72.7017 198.587 72.7017 198.587C72.7017 198.587 76.404 202.186 80.0035 201.466C81.1348 201.466 82.266 201.775 83.2944 202.289C84.9399 203.164 91.8818 202.495 92.7045 201.004C93.3216 199.872 93.5787 199.049 93.0131 198.432C92.6531 198.072 92.1903 197.918 91.7275 197.969C90.8534 198.072 88.8994 198.072 87.2025 195.964C87.2025 195.964 84.0658 193.084 83.8087 193.084C83.5516 193.084 83.9629 195.81 79.0265 195.45Z" fill="#CC8294"/>
<path opacity="0.1" d="M106.28 158.937C106.022 159.194 104.531 160.891 104.068 160.994C103.297 161.303 102.577 161.611 101.806 161.971C101.806 161.971 100.88 163.206 100.109 163.257C99.9033 163.308 99.6462 163.36 99.4405 163.411C99.3377 161.714 99.2349 160.274 99.2349 160.274L105.148 156.777L105.817 157.857C106.022 158.372 106.177 158.783 106.28 158.937Z" fill="black"/>
<path d="M84.7862 134.869C84.7862 134.869 82.4723 137.852 84.7862 141.863C86.0203 144.126 87.6144 146.132 89.517 147.829L97.3845 164.08C97.3845 164.08 99.4413 162.948 100.213 162.897C100.984 162.845 101.91 161.611 101.91 161.611C102.629 161.251 103.401 160.891 104.172 160.634C104.686 160.531 106.383 158.577 106.383 158.577C106.383 158.577 105.509 156.726 105.715 156.211C105.92 155.697 105.149 154.463 105.149 154.463C104.892 153.846 104.738 153.177 104.635 152.509C104.635 151.994 103.812 150.812 103.812 150.812C103.812 150.812 102.989 149.577 102.989 148.857C102.989 148.137 101.755 145.463 101.755 145.463L101.447 133.635L84.7862 134.869Z" fill="#CEDDF9"/>
<path opacity="0.05" d="M106.28 158.577C106.28 158.577 104.532 160.531 104.069 160.634C103.297 160.943 102.578 161.251 101.806 161.611C101.806 161.611 100.881 162.846 100.109 162.897C99.5952 163 99.0295 163.206 98.5667 163.463C97.8983 163.771 97.2812 164.08 97.2812 164.08L89.4652 147.829C88.7967 147.212 88.1282 146.595 87.5626 145.875C86.4827 144.641 85.5572 143.252 84.7344 141.864C83.8088 140.424 83.5003 138.675 83.8603 137.03C84.0145 136.258 84.323 135.538 84.7344 134.921L90.3393 134.51L101.446 133.738L101.549 137.235L101.755 145.566C101.755 145.566 101.909 145.978 102.166 146.543C102.526 147.315 102.783 148.138 102.938 148.96C102.938 149.629 103.76 150.915 103.76 150.915C103.76 150.915 104.583 152.097 104.583 152.612C104.686 153.28 104.84 153.897 105.097 154.566C105.097 154.566 105.869 155.8 105.663 156.314C105.457 156.829 106.28 158.577 106.28 158.577Z" fill="black"/>
<path opacity="0.1" d="M93.6313 165.263C93.2714 165.571 92.9629 165.88 92.7057 166.291C89.3119 166.548 85.4039 164.748 84.3755 164.285C84.3755 164.183 84.3755 164.028 84.3755 163.874L85.5582 162.743C85.5582 162.743 95.1226 164.08 93.6313 165.263Z" fill="black"/>
<path d="M103.606 138.572C103.606 138.572 103.092 140.321 102.938 141.041C102.783 141.76 102.372 145.463 102.372 145.463L102.166 146.492L98.6183 163.462L97.847 167.165C96.4586 167.936 93.0648 165.931 93.0648 165.931C89.054 166.394 84.1689 163.822 84.1689 163.822C84.1689 163.822 84.9917 161.2 84.786 159.914C84.5803 158.628 85.9173 157.548 85.9173 157.548C85.6087 156.366 86.74 151.171 86.74 151.171C86.74 151.171 86.9971 149.217 87.9227 148.754C88.8483 148.292 87.8199 147.52 87.5628 147.057C87.4599 146.697 87.5113 146.286 87.6656 145.926C87.7684 145.617 87.8199 145.36 87.9741 145.103C85.6087 142.738 85.2488 139.035 85.2488 136.926C85.2488 136.412 85.2488 135.898 85.3002 135.435L90.4423 134.509L101.652 132.555L102.783 136.104L103.092 136.978L103.606 138.572Z" fill="#CEDDF9"/>
<path opacity="0.1" d="M102.578 90.9C102.321 91.4142 102.167 91.9285 102.064 92.4942C102.012 92.6485 102.012 92.7513 101.961 92.9056C100.881 93.6256 100.213 93.6256 98.8243 93.6256C98.3615 93.6256 98.053 92.6999 97.6416 92.597C97.6416 92.597 96.9732 90.1286 96.7675 92.1856C95.482 91.9285 94.3507 92.957 93.4251 92.0313C93.4251 91.9285 93.4251 91.7742 93.4251 91.6714C93.4251 90.9 93.4251 90.1286 93.3223 89.3572C93.3223 89.3572 96.9218 89.3572 99.6985 89.6657C101.498 89.9229 102.938 90.2829 102.578 90.9Z" fill="black"/>
<path d="M105.149 86.7344C105.149 90.5914 102.012 93.677 98.2069 93.677C97.7441 93.677 97.2813 93.6255 96.8185 93.5227C93.0648 92.7513 90.648 89.1 91.4193 85.3459C92.1906 81.5918 95.8415 79.1748 99.5953 79.9462C101.549 80.3576 103.246 81.5918 104.223 83.3403C104.84 84.3174 105.149 85.5002 105.149 86.7344Z" fill="#D38884"/>
<path opacity="0.1" d="M101.343 97.6368C101.292 98.2025 101.24 98.5625 101.24 98.5625C101.24 98.5625 90.0818 97.7911 92.0358 95.9397C92.55 95.4255 92.91 94.8083 93.0642 94.0884L97.8978 94.8598C97.8978 94.8598 99.2862 95.9397 100.315 96.9168C100.623 97.2254 100.983 97.4311 101.343 97.6368Z" fill="black"/>
<path opacity="0.1" d="M102.989 137.286C102.475 137.338 102.012 137.338 101.549 137.183C101.344 137.132 101.138 137.029 100.932 136.926C100.007 136.361 96.8701 137.029 96.8701 137.029C96.8701 137.029 88.3856 137.595 88.0256 137.029C87.8199 136.721 86.3287 136.772 85.0946 136.823C84.5804 136.875 84.169 136.926 83.8091 136.926C83.9633 136.155 84.2719 135.435 84.6832 134.818L90.2882 134.406L101.498 132.452L102.629 136.001C102.784 136.463 102.886 136.875 102.989 137.286Z" fill="black"/>
<path d="M97.8983 95.2713L91.8306 94.2942C91.6249 94.757 91.2135 95.1684 90.6993 95.2713C89.8766 95.477 86.2771 97.3283 84.6316 99.5911L82.9861 101.854C82.9861 101.854 81.7006 103.448 82.112 104.785C82.5233 106.122 83.0375 110.493 83.0375 110.493L83.6546 115.43C83.6546 115.43 84.8373 118.979 84.4773 120.522C84.1174 122.064 84.683 128.647 84.683 128.647L83.4489 136.772C83.4489 136.772 87.6655 136.207 88.0768 136.772C88.4882 137.338 96.9213 136.772 96.9213 136.772C96.9213 136.772 100.007 136.104 100.984 136.669C101.601 137.029 102.321 137.132 103.04 137.029C103.04 137.029 102.269 134.458 102.732 133.018C103.195 131.578 103.04 128.955 103.04 128.955C103.04 128.955 103.657 125.15 103.349 124.481C103.04 123.813 104.017 121.293 104.017 121.293L107.308 103.911C107.308 103.911 106.897 100.774 105.149 99.7454C103.4 98.7169 101.395 98.3569 100.315 97.3798C99.2352 96.4027 97.8983 95.2713 97.8983 95.2713Z" fill="#1890FF"/>
<path d="M100.726 112.396V114.454L102.629 119.648L103.297 124.43C103.297 124.43 104.531 127.876 104.531 129.059C104.531 130.241 107.565 136.001 107.565 136.001C107.565 136.001 108.388 137.955 107.976 138.315C107.565 138.675 103.966 146.903 108.491 146.646C113.016 146.389 111.627 137.801 111.627 137.801L111.01 134.047C111.01 134.047 110.136 124.687 110.136 124.019C110.136 124.019 109.005 120.008 108.902 119.133C108.799 118.259 107.976 113.836 107.976 113.836L107.308 110.957L100.726 112.396Z" fill="#D38884"/>
<path opacity="0.1" d="M98.5149 118.876L91.7787 122.784L89.6704 125.921L92.4472 123.093L98.5149 118.876Z" fill="black"/>
<path opacity="0.1" d="M96.4583 126.333C96.4583 126.333 93.373 128.338 91.9332 128.338C90.4934 128.338 87.0996 131.784 87.0996 131.784C87.0996 131.784 91.8818 128.698 92.2417 128.801C92.6017 128.904 96.4583 126.333 96.4583 126.333Z" fill="black"/>
<path opacity="0.1" d="M88.5916 127.361C88.5916 127.361 85.712 129.984 86.4319 130.241C87.1518 130.498 91.0599 127.361 91.0599 127.361H88.5916Z" fill="black"/>
<path opacity="0.1" d="M101.395 118.053C101.395 118.053 99.1322 121.087 99.7492 121.035C100.366 120.984 102.063 119.236 102.063 119.236L101.395 118.053Z" fill="black"/>
<path opacity="0.1" d="M101.704 121.036C101.704 121.036 99.2871 123.813 99.3899 124.481C99.4928 125.15 101.704 121.036 101.704 121.036Z" fill="black"/>
<path opacity="0.1" d="M102.32 122.424C102.32 122.424 100.675 125.356 101.395 125.973C102.115 126.59 102.32 122.424 102.32 122.424Z" fill="black"/>
<path opacity="0.1" d="M100.213 114.916C100.213 114.916 98.9787 116.973 99.9043 117.127C100.83 117.282 100.881 117.127 100.881 117.127L100.213 114.916Z" fill="black"/>
<path opacity="0.1" d="M100.521 107.408C100.213 108.642 99.8012 109.876 99.287 111.059C99.0813 110.442 98.9271 109.825 98.8242 109.208C99.3384 108.539 99.9041 107.922 100.521 107.408Z" fill="black"/>
<path opacity="0.1" d="M104.223 83.2889C104.12 83.546 103.966 83.8031 103.76 84.0089C103.452 84.3174 103.143 84.626 102.938 84.986C102.732 85.5002 102.629 86.0659 102.629 86.6316C102.526 87.1973 102.166 87.8144 101.601 87.8144C101.292 87.8144 101.035 87.7115 100.778 87.5573C100.521 87.403 100.212 87.4544 99.9553 87.5573C99.801 87.7115 99.6982 87.9172 99.6982 88.1744C99.6467 88.6372 99.5953 89.1515 99.5953 89.6143C99.5953 89.82 99.5953 90.0257 99.6467 90.18C99.801 90.7971 99.7496 91.4142 99.5439 92.0313C99.2868 92.4428 98.8754 92.8027 98.4126 92.957C97.8984 93.1627 97.3328 93.317 96.8186 93.4199C95.7387 93.5741 94.7103 93.5741 93.6305 93.5227C93.5276 93.5227 93.4248 93.5227 93.3219 93.4713C93.2705 93.4713 93.2191 93.4199 93.2191 93.4199C93.3219 92.8542 93.4248 92.2371 93.4248 91.6199C90.6994 88.9458 90.5966 84.5745 93.2705 81.7975C95.9444 79.0719 100.315 78.9691 103.092 81.6433C103.503 82.2089 103.915 82.7232 104.223 83.2889Z" fill="black"/>
<path d="M101.344 77.4264C100.726 77.3749 100.109 77.6835 99.4923 77.8378C98.2068 78.0949 96.8699 77.5292 95.5329 77.5292C94.4016 77.5806 93.2704 77.9406 92.2934 78.5063C91.4706 78.8663 90.7507 79.3806 90.1337 79.9977C89.5166 80.6148 89.1567 81.489 89.1052 82.3633C89.2081 82.8775 89.1567 83.3918 89.0538 83.9061C88.8995 84.1632 88.7453 84.4203 88.591 84.626C88.2825 85.1403 88.1796 85.8088 88.3853 86.426C88.6424 86.9916 89.0024 87.5573 89.4652 88.0202C90.3393 89.1001 90.8536 90.4372 91.6249 91.5686C91.9334 92.0828 92.3448 92.5457 92.7561 93.0085C92.8076 93.1114 92.9104 93.1628 93.0132 93.2142C93.1161 93.2656 93.2189 93.2656 93.2704 93.2656C94.9158 93.3171 96.5613 93.3685 98.0525 92.7C98.5153 92.5457 98.9267 92.1857 99.1838 91.7743C99.3895 91.1572 99.4409 90.54 99.2867 89.9229C99.2352 89.2544 99.2352 88.5344 99.3381 87.8659C99.3381 87.6602 99.4409 87.403 99.5952 87.2488C99.8523 87.0945 100.161 87.0945 100.418 87.2488C100.675 87.403 100.932 87.4545 101.241 87.5059C101.806 87.5059 102.166 86.8888 102.269 86.3231C102.166 85.2946 102.578 84.3175 103.4 83.7004C104.172 82.7233 104.429 81.3862 104.12 80.2034C103.76 79.0206 102.629 77.5292 101.344 77.4264Z" fill="#1E1637"/>
<path opacity="0.1" d="M108.029 106.945C107.874 107.819 107.874 108.642 108.029 109.516C107.977 110.185 108.029 113.991 108.029 113.991C105.972 113.373 100.727 114.608 100.727 114.608L100.11 112.756C99.7497 112.293 99.4926 111.779 99.3383 111.213C99.1326 110.596 98.9784 109.979 98.8755 109.362C98.6184 108.076 98.4128 106.739 98.2585 105.454C98.0014 103.448 100.932 101.34 103.195 100.157C105.457 98.9741 107.36 104.014 107.36 104.014C107.36 104.014 108.286 105.968 108.029 106.945Z" fill="black"/>
<path d="M108.029 106.585C107.874 107.459 107.874 108.282 108.029 109.156C107.977 109.825 108.029 113.63 108.029 113.63C105.972 113.013 100.727 114.248 100.727 114.248L100.11 112.396C99.7497 111.933 99.4926 111.419 99.3383 110.853C99.1326 110.236 98.9784 109.619 98.8755 109.002C98.6184 107.716 98.4128 106.379 98.2585 105.094C98.0014 103.088 100.932 100.98 103.195 99.7968C105.457 98.6139 107.36 103.654 107.36 103.654C107.36 103.654 108.286 105.608 108.029 106.585Z" fill="#4C4981"/>
<path opacity="0.2" d="M104.07 80.1521C103.967 79.7921 103.813 79.4835 103.607 79.1235C103.659 79.2264 103.659 79.2778 103.71 79.3807C104.07 80.6149 103.761 81.9006 102.99 82.8777C102.167 83.4948 101.705 84.4719 101.859 85.5004C101.756 86.0661 101.396 86.6832 100.83 86.6832C100.522 86.6832 100.265 86.5803 100.008 86.4261C99.7505 86.2718 99.442 86.3232 99.1849 86.4261C99.0306 86.5803 98.9277 86.7861 98.9277 87.0432C98.8249 87.7117 98.8249 88.4317 98.8763 89.1002C98.9278 89.7173 99.0306 90.3859 98.7735 90.9516C98.5164 91.363 98.105 91.723 97.6422 91.8772C96.151 92.4944 94.4541 92.4944 92.86 92.4429C92.7572 92.4429 92.6544 92.4429 92.6029 92.3915C92.5001 92.3401 92.4487 92.2887 92.3458 92.1858C91.9345 91.723 91.5745 91.2601 91.2146 90.7459C90.4432 89.5631 89.929 88.2774 89.0549 87.1975C88.7977 86.8889 88.5406 86.6318 88.335 86.2718V86.3232C88.5921 86.8889 88.952 87.4546 89.4148 87.9174C90.289 88.9974 90.8032 90.3345 91.5745 91.4658C91.9345 91.9801 92.2944 92.4429 92.7058 92.9058C92.7572 93.0086 92.86 93.0601 92.9629 93.1115C93.0657 93.1629 93.1686 93.1629 93.22 93.1629C94.8655 93.2143 96.511 93.2658 98.0022 92.5972C98.465 92.4429 98.8763 92.083 99.1334 91.6715C99.3391 91.0544 99.3905 90.4373 99.2363 89.8202C99.1849 89.1517 99.1849 88.4317 99.2877 87.7631C99.2877 87.5574 99.3905 87.3003 99.5448 87.146C99.8019 86.9918 100.11 86.9918 100.368 87.146C100.625 87.3003 100.882 87.3517 101.19 87.4032C101.756 87.4032 102.116 86.786 102.219 86.2204C102.219 85.6547 102.322 85.089 102.527 84.5747C102.784 84.2147 103.041 83.9062 103.35 83.5976C104.121 82.672 104.378 81.3863 104.07 80.1521Z" fill="black"/>
<path d="M154.205 81.4891L149.782 90.9515C149.782 90.9515 149.114 92.7514 148.702 93.06C148.291 93.3685 146.389 98.974 146.389 98.974L141.606 106.328L141.298 106.842L139.447 106.328L138.161 101.442L138.264 100.003V99.7968C138.264 99.7968 141.195 96.7112 141.863 96.4541C141.863 96.4541 142.378 96.5055 143.355 94.1399C144.332 91.7743 145.206 91.26 145.206 91.26L145.72 89.5116L151.222 80.7177C151.222 80.7177 155.85 74.0837 157.136 77.015C158.421 79.9463 154.205 81.4891 154.205 81.4891Z" fill="#FFD2C6"/>
<path d="M135.744 148.601C135.744 148.755 135.693 148.909 135.59 149.063C135.076 149.835 132.196 165.108 132.196 165.108C132.453 166.137 131.785 168.194 131.374 169.12C130.962 170.045 130.037 174.931 130.037 174.931C130.037 174.931 129.779 185.422 129.214 187.016C128.648 188.61 129.42 192.159 129.42 192.159C129.368 193.753 130.345 195.501 130.911 196.324L131.014 196.478C131.219 196.736 131.322 196.89 131.322 196.89C131.476 197.198 131.682 197.456 131.991 197.713L132.145 197.815C132.916 198.33 133.842 198.741 134.767 198.947H134.87C135.23 199.05 135.487 199.05 135.487 199.05L135.744 200.335L133.276 200.85L128.545 201.158C128.545 201.158 122.992 201.57 124.226 199.101C124.329 198.947 124.38 198.741 124.432 198.587C124.483 198.484 124.535 198.33 124.535 198.227C125.306 195.861 124.792 192.93 124.792 192.93L123.712 184.496C121.912 176.628 125.1 167.885 125.1 167.885C125.1 167.885 124.843 167.165 125.46 165.417C126.077 163.668 125.46 159.76 125.46 159.76C125.46 159.76 125.152 154.772 124.689 152.303C124.535 151.275 124.483 150.195 124.535 149.166C124.535 148.549 124.586 147.932 124.689 147.315L135.333 145.875C135.282 145.875 135.847 147.572 135.744 148.601Z" fill="#FFD2C6"/>
<path opacity="0.1" d="M135.59 200.283L133.122 200.798L128.391 201.106C128.391 201.106 122.837 201.518 124.072 199.049C124.174 198.895 124.226 198.689 124.277 198.535C124.329 198.432 124.38 198.278 124.38 198.175C125.357 198.226 126.283 198.381 127.208 198.741C128.802 199.358 129.985 197.763 129.985 197.763L130.756 196.272L130.859 196.066C131.065 196.324 131.168 196.478 131.168 196.478C131.373 196.838 131.63 197.146 131.939 197.403L131.785 197.661L131.013 199.255C131.013 199.255 131.99 199.358 133.276 199.563C133.79 199.718 134.356 199.409 134.51 198.895H134.613C134.973 198.998 135.23 198.998 135.23 198.998L135.59 200.283Z" fill="black"/>
<path d="M137.904 201.467C137.698 202.289 132.505 202.546 132.505 202.546C132.505 202.546 129.625 202.289 128.802 202.958C127.979 203.626 125.614 203.472 125.511 203.472C125.408 203.472 124.174 203.421 123.66 201.158C123.146 198.895 124.277 198.587 124.329 198.535C125.357 198.535 126.334 198.741 127.26 199.101C128.854 199.718 130.036 198.124 130.036 198.124L130.91 196.427C131.116 196.684 131.219 196.838 131.219 196.838C131.425 197.198 131.682 197.507 131.99 197.764L131.116 199.615C131.116 199.615 132.093 199.718 133.379 199.924C133.944 200.078 134.561 199.667 134.664 199.101C134.664 199.05 134.664 198.947 134.716 198.895C134.716 198.844 134.716 198.792 134.716 198.741C134.716 198.741 135.538 198.998 136.515 199.255C137.492 199.564 138.058 200.489 137.904 201.467Z" fill="#626696"/>
<path d="M147.674 159.708C147.571 160.479 147.417 162.382 147.417 162.382C147.828 163.976 146.748 167.833 146.748 167.833L146.182 170.045C146.44 172.873 144.64 179.713 144.64 179.713C144.64 179.713 143.457 186.09 142.84 188.815C142.48 190.358 142.583 191.952 143.149 193.392L143.2 193.495C143.2 193.546 143.2 193.598 143.251 193.649C143.251 193.701 143.303 193.804 143.303 193.855C143.457 194.215 143.663 194.575 143.92 194.883C144.023 194.986 144.126 195.141 144.28 195.243C144.846 195.758 145.514 196.169 146.285 196.478L146.594 196.581C146.902 196.683 147.262 196.786 147.571 196.889H147.674L147.417 198.38L144.126 197.506L139.703 196.066L137.544 194.883C137.544 194.883 137.544 194.781 137.595 194.524V194.472C137.595 194.369 137.647 194.266 137.647 194.112C138.007 192.158 138.829 186.81 138.418 182.798C137.904 177.861 139.961 171.073 140.423 169.479C140.732 168.553 140.835 167.576 140.783 166.599C139.96 165.416 139.806 160.685 139.806 160.685C139.806 160.685 138.315 157.651 137.081 154.411C136.67 153.331 136.361 152.251 136.207 151.12C136.052 150.348 136.001 149.526 136.052 148.754C136.052 148.754 146.08 139.6 147.211 148.446C147.262 148.754 147.262 149.011 147.314 149.32C148.239 157.497 147.828 158.988 147.674 159.708Z" fill="#FFD2C6"/>
<path opacity="0.1" d="M147.674 196.941L147.417 198.432L144.126 197.558L139.704 196.118L137.544 194.884C137.544 194.884 137.544 194.781 137.596 194.524V194.472C137.596 194.37 137.647 194.267 137.647 194.112H137.956C138.573 194.061 139.241 194.112 139.807 194.37C140.527 194.627 141.452 194.935 141.658 194.832C141.967 194.678 142.378 194.627 142.738 194.627L143.201 193.598L143.252 193.444C143.406 193.804 143.612 194.164 143.869 194.472C143.972 194.627 144.075 194.729 144.229 194.832V195.192V195.707C144.743 196.015 145.258 196.272 145.823 196.427C145.978 196.478 146.132 196.478 146.286 196.427L146.595 196.529C146.903 196.632 147.263 196.735 147.572 196.838L147.674 196.941Z" fill="black"/>
<path d="M146.029 200.129C145.104 199.872 142.892 199.461 142.532 199.769C142.173 200.078 139.087 199.769 139.087 199.769C138.419 199.769 137.853 199.409 137.493 198.844C136.876 197.866 137.39 194.627 137.39 194.627H137.596L137.956 194.575C138.573 194.524 139.241 194.575 139.807 194.832C140.527 195.089 141.453 195.398 141.658 195.295C141.967 195.141 142.378 195.089 142.738 195.089L143.252 193.958C143.407 194.318 143.612 194.678 143.869 194.987C143.972 195.141 144.075 195.244 144.229 195.347L144.178 196.221C144.692 196.529 145.206 196.786 145.772 196.941C146.029 197.044 146.389 196.941 146.543 196.684C146.543 196.632 146.595 196.581 146.595 196.581C147.006 196.786 147.469 196.941 147.88 196.992C149.063 196.889 150.194 197.661 150.451 198.844C150.966 200.232 146.955 200.386 146.029 200.129Z" fill="#626696"/>
<path opacity="0.1" d="M135.744 148.6L135.178 148.755C134.715 148.909 134.253 149.012 133.79 149.063C130.859 149.474 125.974 149.217 124.431 149.114C124.431 148.497 124.483 147.88 124.585 147.263L135.23 145.823C135.281 145.875 135.847 147.572 135.744 148.6Z" fill="black"/>
<path d="M145.052 145.978C145.052 145.978 141.144 146.595 137.955 147.263C136.876 147.52 135.899 147.726 135.179 147.983C134.716 148.138 134.253 148.24 133.79 148.292C130.242 148.806 123.969 148.343 123.969 148.343C122.221 142.738 126.077 135.692 126.077 135.692C125.974 135.127 126.848 133.43 126.848 133.43V133.378L127.414 131.373H141.915L142.069 132.247L142.429 133.995L144.692 144.846L145.052 145.978Z" fill="#1890FF"/>
<path opacity="0.1" d="M147.262 149.371L147.159 149.423L145.463 150.194C143.611 151.017 138.109 151.223 136.207 151.223C136.052 150.451 136.001 149.629 136.052 148.857C136.052 148.857 146.08 139.703 147.211 148.549C147.211 148.806 147.262 149.114 147.262 149.371Z" fill="black"/>
<path d="M147.571 148.497L147.211 148.652L145.514 149.423C143.663 150.297 137.955 150.452 136.156 150.452H135.693C134.87 150.452 133.996 149.629 133.996 149.423C133.996 149.32 133.893 148.754 133.842 148.292C133.79 147.932 133.739 147.572 133.739 147.572C131.785 146.749 129.882 145.772 128.083 144.64C126.643 143.663 127.003 136.772 127.311 133.275C127.414 132.092 127.517 131.27 127.517 131.27L142.223 132.144L144.28 132.247L145.463 132.504L145.771 132.555C145.771 132.555 146.646 138.726 147.057 139.241C147.468 139.755 147.211 141.503 147.16 142.48C147.16 142.892 147.108 143.303 147.006 143.766C147.006 143.766 147.623 145.515 147.468 146.44C147.314 147.16 147.365 147.88 147.571 148.497Z" fill="#1890FF"/>
<path d="M131.785 97.2767C135.108 97.2767 137.802 94.5828 137.802 91.2598C137.802 87.9368 135.108 85.2429 131.785 85.2429C128.463 85.2429 125.769 87.9368 125.769 91.2598C125.769 94.5828 128.463 97.2767 131.785 97.2767Z" fill="#FFD2C6"/>
<path d="M128.854 93.7798C128.854 93.7798 129.265 99.4881 128.083 100.774C126.746 102.111 125.357 103.396 123.866 104.579L124.792 108.436L130.088 109.053L136.259 102.471L134.87 100.774C134.87 100.774 133.791 97.1225 134.665 95.3226C135.539 93.5227 128.854 93.7798 128.854 93.7798Z" fill="#FFD2C6"/>
<path opacity="0.1" d="M141.606 106.328L141.298 106.842L139.447 106.328L138.161 101.442L138.264 100.002L138.675 99.4368C138.675 99.4368 140.732 99.4882 140.629 101.34C140.475 103.037 141.401 105.711 141.606 106.328Z" fill="black"/>
<path opacity="0.1" d="M145.669 133.378C145.669 133.378 144.178 133.687 142.481 133.944C140.784 134.201 138.83 134.304 138.007 133.789C136.67 132.967 129.317 133.224 127.209 133.275H126.849L127.414 131.27H141.915L142.069 132.144L144.126 132.247L145.309 132.504C145.566 133.069 145.669 133.378 145.669 133.378Z" fill="black"/>
<path d="M138.213 99.8481C138.213 99.8481 140.27 99.8996 140.167 101.751C140.064 103.602 141.298 106.842 141.298 106.842L140.835 107.922C140.835 107.922 140.167 110.545 140.681 111.213C141.195 111.882 143.047 111.882 141.967 117.23C141.967 117.23 141.71 121.241 142.275 122.579C142.841 123.916 142.841 127.001 143.664 128.338C144.435 129.727 145.103 131.167 145.618 132.71C145.618 132.71 139.55 134.047 137.956 133.121C136.362 132.195 126.592 132.658 126.592 132.658C126.592 132.658 126.643 131.012 126.592 130.858C126.489 130.447 126.592 130.035 126.849 129.675C127.157 129.213 127.672 128.493 127.414 127.824C127.157 127.155 128.134 126.23 127.62 125.201C127.106 124.173 126.489 123.967 126.592 123.453C126.643 122.784 126.437 122.167 126.026 121.704C125.666 121.241 123.146 116.305 123.146 116.305L122.735 113.99C122.735 113.99 119.496 111.625 119.547 110.493C119.598 109.362 120.781 107.819 120.781 107.819L123.918 104.734C123.918 104.734 125.666 106.585 127.312 105.968C128.957 105.351 132.608 102.162 132.608 102.162C132.608 102.162 133.894 101.442 133.996 100.928C134.099 100.414 134.871 100.877 134.871 100.877C134.871 100.877 136.053 100.26 136.259 100.465C136.67 100.671 137.082 100.825 137.544 100.877L138.213 99.8481Z" fill="#3CBCF7"/>
<path d="M120.524 109.567L119.547 110.339C118.776 111.933 118.364 113.681 118.313 115.43C118.056 118.104 117.644 120.727 117.027 123.298L115.073 126.795C115.073 126.795 111.834 133.583 111.423 135.383C111.011 137.183 109.109 140.217 109.109 140.217C109.109 140.217 102.629 146.08 107.155 147.109C111.68 148.137 111.834 142.48 111.834 142.48C111.834 142.48 112.862 141.297 113.068 140.526C113.274 139.755 118.981 129.572 118.981 129.572C118.981 129.572 120.987 126.847 120.576 125.407C120.576 125.407 123.198 119.236 123.198 117.693C123.147 116.407 122.992 115.121 122.787 113.836L123.198 110.596L120.524 109.567Z" fill="#FFD2C6"/>
<path opacity="0.1" d="M133.996 122.424C133.996 122.424 129.42 124.841 128.546 124.944C127.672 125.047 132.402 124.43 132.402 124.43L133.996 122.424Z" fill="black"/>
<path opacity="0.1" d="M137.75 124.327C137.75 124.327 131.683 126.384 129.009 126.024C129.009 125.973 135.642 127.258 137.75 124.327Z" fill="black"/>
<path opacity="0.1" d="M138.11 124.996C138.11 124.996 132.659 128.441 129.419 127.875C129.419 127.875 136.927 129.367 138.11 128.595L134.767 127.67C134.767 127.618 138.47 125.664 138.11 124.996Z" fill="black"/>
<path opacity="0.1" d="M131.837 80.666C130.242 80.2546 128.546 80.6146 127.209 81.5403C126.283 82.2602 125.666 83.3916 124.586 83.9573C124.021 84.2144 123.455 84.4201 122.889 84.5744C120.781 85.4486 119.547 87.6085 119.907 89.8713C120.061 90.797 120.524 91.6712 120.73 92.5455C121.09 94.1911 120.781 95.8882 120.37 97.4824C119.238 102.008 117.49 106.328 115.176 110.339C114.97 110.596 114.919 110.905 114.919 111.213C114.97 111.419 115.073 111.625 115.227 111.779C117.387 114.299 120.884 115.122 124.226 115.224C125.46 115.327 126.694 115.122 127.774 114.659C128.443 114.247 129.06 113.733 129.523 113.065C130.654 111.47 131.219 109.568 131.117 107.613C131.014 106.071 130.5 104.476 130.911 102.934C130.962 102.728 131.065 102.522 131.168 102.368C131.528 102.008 132.094 102.111 132.608 102.059C133.996 101.905 134.87 100.465 135.025 99.0766C135.179 97.6881 134.87 96.2996 134.819 94.9625C134.819 93.1626 135.385 91.3627 136.464 89.8713C136.927 89.2542 137.493 88.6371 137.647 87.8143C137.853 86.8372 137.287 86.1172 136.773 85.3458C136.002 84.1116 135.642 82.7231 134.459 81.7974C133.688 81.2317 132.762 80.8717 131.837 80.666Z" fill="black"/>
<path d="M131.426 80.3064C129.832 79.895 128.186 80.255 126.849 81.1806C125.924 81.9006 125.307 83.032 124.227 83.5977C123.661 83.8548 123.096 84.0091 122.53 84.2148C120.422 85.089 119.187 87.2489 119.547 89.5117C119.702 90.4374 120.164 91.3116 120.37 92.1858C120.73 93.8315 120.422 95.5285 120.01 97.1228C118.879 101.597 117.131 105.968 114.817 109.979C114.611 110.236 114.56 110.545 114.56 110.854C114.611 111.059 114.714 111.265 114.868 111.419C117.028 113.939 120.524 114.762 123.867 114.865C125.101 114.968 126.335 114.762 127.415 114.299C128.083 113.888 128.7 113.373 129.163 112.705C130.294 111.111 130.86 109.208 130.757 107.254C130.654 105.711 130.14 104.117 130.552 102.574C130.603 102.368 130.706 102.163 130.809 102.008C131.169 101.648 131.734 101.751 132.249 101.7C133.637 101.545 134.511 100.105 134.665 98.717C134.82 97.3285 134.511 95.94 134.46 94.6029C134.46 92.803 135.025 91.003 136.105 89.5117C136.568 88.8946 137.134 88.2775 137.288 87.4546C137.493 86.4775 136.928 85.7576 136.414 84.9862C135.642 83.7519 135.282 82.3634 134.1 81.4378C133.328 80.8206 132.403 80.4607 131.426 80.3064Z" fill="#985C7E"/>
<path opacity="0.1" d="M129.419 138.727C129.419 138.727 130.602 144.332 132.608 145.875L129.419 138.727Z" fill="black"/>
<g opacity="0.1">
<path opacity="0.1" d="M119.856 90.7457C119.804 90.54 119.701 90.2829 119.65 90.0771C119.753 90.2829 119.804 90.4886 119.856 90.7457Z" fill="black"/>
<path opacity="0.1" d="M136.928 85.8604C136.928 86.0146 136.928 86.2203 136.928 86.3746C136.774 87.146 136.208 87.7631 135.745 88.4317C134.665 89.923 134.1 91.6715 134.1 93.5229C134.1 94.9114 134.46 96.2999 134.305 97.637C134.151 98.974 133.277 100.465 131.889 100.62C131.374 100.671 130.809 100.568 130.449 100.928C130.294 101.083 130.192 101.288 130.192 101.494C129.78 103.037 130.346 104.58 130.397 106.174C130.5 108.128 129.935 110.031 128.752 111.573C128.289 112.242 127.723 112.756 127.004 113.168C125.872 113.682 124.69 113.888 123.455 113.733C120.216 113.631 116.771 112.808 114.611 110.391C114.56 110.545 114.56 110.699 114.56 110.854C114.611 111.059 114.714 111.265 114.868 111.419C117.028 113.939 120.524 114.762 123.867 114.865C125.101 114.968 126.335 114.762 127.415 114.299C128.083 113.888 128.7 113.373 129.163 112.705C130.294 111.111 130.86 109.208 130.757 107.254C130.654 105.711 130.14 104.117 130.552 102.574C130.603 102.368 130.706 102.162 130.809 102.008C131.169 101.648 131.734 101.751 132.248 101.7C133.637 101.545 134.511 100.105 134.665 98.7169C134.82 97.3284 134.511 95.9399 134.46 94.6028C134.46 92.8029 135.025 91.003 136.105 89.5116C136.568 88.8945 137.133 88.2774 137.288 87.4546C137.339 86.9403 137.236 86.3232 136.928 85.8604Z" fill="black"/>
</g>
</svg>
