<svg width="360" height="225" viewBox="0 0 360 225" fill="none" xmlns="http://www.w3.org/2000/svg">
<path opacity="0.1" d="M166.54 36.9764C149.503 40.264 152.459 40.4942 136.032 38.043C119.606 35.5918 103.218 32.4615 86.1444 33.0743C75.168 33.4718 62.9579 35.9672 55.3627 43.6245C48.0562 50.9919 47.011 61.0645 47.0802 70.1737C47.1327 77.025 47.6887 84.1219 51.6999 89.6316C54.4846 93.4547 58.7415 96.2317 61.9605 99.7677C73.1755 112.073 69.9947 131.137 62.8935 147.279C59.5528 154.854 55.47 162.287 53.2294 170.052C50.9888 177.817 50.7669 186.181 54.9857 192.61C59.171 198.984 67.1767 202.655 75.5068 204.623C140.385 219.943 232.146 198.47 292.435 174.508C300.271 171.399 308.243 167.488 313.261 161.302C319.63 153.449 319.687 142.609 313.395 136.034C302.838 124.992 279.222 116.001 271.016 103.436C266.497 96.5353 268.337 87.2549 271.789 79.098C279.187 61.5973 293.683 44.4139 291.595 26.8276C290.163 14.7482 280.05 4.6342 266.616 1.83794C215.92 -8.70834 206.72 29.2346 166.54 36.9764Z" fill="#1990F2"/>
<path d="M38.2166 221.125C39.2367 219.252 38.0805 216.956 36.7577 215.283C35.4349 213.61 33.8298 211.883 33.8638 209.744C33.9148 206.683 37.1624 204.877 39.757 203.255C41.6836 202.053 43.4599 200.625 45.0483 199.001C45.7129 198.376 46.2631 197.64 46.6738 196.825C47.2111 195.628 47.1975 194.268 47.1635 192.955C47.0479 188.589 46.8314 184.227 46.514 179.87" stroke="#3F3D56" stroke-width="4" stroke-miterlimit="10"/>
<path d="M51.4457 179.614C51.4096 178.814 51.1725 178.037 50.7565 177.354C50.3404 176.67 49.7588 176.102 49.0653 175.703L47.9976 177.815L48.0316 175.258C47.0642 174.97 46.0307 174.998 45.0799 175.336C44.1292 175.674 43.3106 176.306 42.7422 177.14C42.1738 177.973 41.885 178.966 41.9175 179.975C41.95 180.983 42.3022 181.955 42.9231 182.751C43.544 183.546 44.4017 184.124 45.3722 184.4C46.3427 184.677 47.3759 184.637 48.3227 184.288C49.2695 183.939 50.0809 183.298 50.6398 182.458C51.1987 181.618 51.4761 180.622 51.4321 179.614H51.4457Z" fill="#2E58DB"/>
<path d="M42.9438 211.916C42.4432 212.886 41.6243 213.655 40.6243 214.093C39.6244 214.532 38.5041 214.613 37.4513 214.324C36.3985 214.034 35.4772 213.392 34.8417 212.504C34.2062 211.616 33.8952 210.537 33.9607 209.447C34.0263 208.357 34.4645 207.323 35.2019 206.518C35.9393 205.713 36.931 205.185 38.0109 205.024C39.0908 204.863 40.1932 205.078 41.1334 205.633C42.0736 206.188 42.7944 207.05 43.1751 208.073L40.1928 210.498L43.4743 209.74C43.4731 210.497 43.2913 211.243 42.9438 211.916Z" fill="#2E58DB"/>
<path d="M40.5809 202.65C39.3921 202.738 38.2133 202.378 37.2775 201.639C36.3417 200.901 35.7169 199.838 35.5268 198.662C35.3366 197.485 35.5949 196.279 36.2505 195.284C36.9062 194.288 37.9114 193.575 39.0677 193.285L39.0405 195.253L40.1218 193.115C40.7494 193.082 41.3772 193.174 41.969 193.385C42.5608 193.597 43.1049 193.923 43.5699 194.346C44.035 194.769 44.4117 195.279 44.6785 195.848C44.9452 196.417 45.0967 197.033 45.1241 197.661C45.152 198.212 45.083 198.763 44.9201 199.29C44.6319 200.229 44.0602 201.056 43.2833 201.658C42.5064 202.259 41.5625 202.606 40.5809 202.65Z" fill="#2E58DB"/>
<path d="M52.1661 194.94C51.4335 194.967 50.7046 194.824 50.0362 194.523C49.3678 194.222 48.7779 193.771 48.3126 193.204C47.8472 192.638 47.519 191.972 47.3534 191.258C47.1879 190.543 47.1895 189.801 47.3582 189.087C47.5268 188.374 47.8579 187.709 48.3257 187.145C48.7935 186.58 49.3854 186.131 50.0551 185.833C50.7248 185.535 51.4543 185.396 52.1868 185.426C52.9193 185.456 53.6349 185.655 54.2779 186.007L53.4346 188.319L55.1689 186.653C56.0983 187.504 56.6522 188.689 56.7093 189.948C56.7321 190.389 56.692 190.831 56.5903 191.261C56.3528 192.271 55.7925 193.177 54.9943 193.841C54.196 194.505 53.2032 194.891 52.1661 194.94Z" fill="#2E58DB"/>
<path opacity="0.1" d="M50.8056 180.882C49.7038 181.005 48.6326 181.348 47.5274 181.416C46.4222 181.484 45.2082 181.219 44.5077 180.362C44.1337 179.896 43.9432 179.311 43.627 178.808C43.3249 178.337 42.9115 177.948 42.4232 177.676C42.1352 178.277 41.977 178.933 41.9588 179.6C41.9406 180.267 42.0628 180.931 42.3175 181.547C42.5722 182.164 42.9537 182.72 43.4373 183.18C43.9208 183.64 44.4956 183.993 45.1244 184.216C45.7532 184.44 46.4219 184.528 47.0871 184.477C47.7524 184.425 48.3993 184.234 48.986 183.916C49.5726 183.598 50.0859 183.16 50.4926 182.631C50.8992 182.102 51.19 181.494 51.3463 180.845C51.1661 180.852 50.9858 180.865 50.8056 180.882Z" fill="black"/>
<path opacity="0.1" d="M52.1671 194.941C51.344 194.983 50.5241 194.81 49.7878 194.44C49.0514 194.07 48.4237 193.515 47.9661 192.829C47.5086 192.144 47.2368 191.351 47.1774 190.529C47.118 189.707 47.2731 188.884 47.6273 188.14C48.0062 188.395 48.3318 188.722 48.5863 189.102C48.9263 189.616 49.1338 190.207 49.5316 190.68C50.2764 191.554 51.5448 191.839 52.6976 191.785C53.8504 191.731 54.9624 191.408 56.0982 191.302C56.258 191.302 56.4178 191.278 56.5811 191.272C56.3421 192.279 55.7825 193.181 54.9865 193.843C54.1904 194.505 53.201 194.89 52.1671 194.941Z" fill="black"/>
<path opacity="0.1" d="M40.5806 202.649C39.7652 202.69 38.9528 202.521 38.2216 202.158C37.4904 201.794 36.8649 201.249 36.4052 200.574C35.9456 199.899 35.6672 199.118 35.5968 198.304C35.5265 197.491 35.6665 196.673 36.0035 195.929C36.3994 196.188 36.7451 196.516 37.0236 196.898C37.3943 197.422 37.6255 198.024 38.0438 198.507C38.8497 199.405 40.2032 199.721 41.4206 199.69C42.638 199.66 43.7432 199.374 44.9164 199.286C44.629 200.225 44.058 201.053 43.2818 201.655C42.5055 202.257 41.562 202.604 40.5806 202.649Z" fill="black"/>
<path opacity="0.1" d="M42.9439 211.917C42.4276 213.071 41.474 213.973 40.2929 214.424C39.1118 214.875 37.8 214.838 36.6461 214.322C35.4921 213.805 34.5905 212.852 34.1396 211.671C33.6888 210.489 33.7255 209.178 34.2419 208.024C34.6357 208.28 34.9887 208.594 35.2892 208.955C35.7449 209.51 36.0442 210.135 36.5679 210.656C37.5438 211.615 39.1183 212.016 40.5227 212.047C41.3316 212.05 42.14 212.007 42.9439 211.917Z" fill="black"/>
<path d="M31.0186 220.312C31.0186 220.312 34.7864 218.836 35.9222 218.026C37.058 217.217 41.7032 216.251 41.9956 217.55C42.2881 218.849 47.6576 224.011 43.4069 224.032C39.1561 224.052 33.5248 224.729 32.389 224.032C31.2532 223.335 31.0186 220.312 31.0186 220.312Z" fill="#656380"/>
<path opacity="0.2" d="M43.4817 223.579C39.2276 223.613 33.5996 224.26 32.4672 223.579C31.6035 223.056 31.26 221.168 31.1444 220.298H31.0186C31.0186 220.298 31.2566 223.335 32.3788 224.038C33.501 224.742 39.1425 224.066 43.3967 224.038C44.6243 224.038 45.0459 223.593 45.0221 222.943C44.8623 223.328 44.3964 223.573 43.4817 223.579Z" fill="black"/>
<path d="M311.347 219.626C309.736 216.64 311.565 212.981 313.667 210.318C315.768 207.656 318.336 204.877 318.281 201.477C318.203 196.597 313.027 193.72 308.889 191.132C305.821 189.214 302.991 186.939 300.459 184.355C299.439 183.335 298.463 182.209 297.868 180.886C297.011 178.978 297.034 176.806 297.089 174.721C297.268 167.759 297.608 160.806 298.109 153.862" stroke="#3F3D56" stroke-width="4" stroke-miterlimit="10"/>
<path d="M0.194336 224.154H359.806" stroke="#3F3D56" stroke-miterlimit="10"/>
<path d="M290.261 153.495C290.319 152.221 290.697 150.983 291.36 149.894C292.024 148.805 292.951 147.901 294.056 147.265L295.756 150.631L295.705 146.551C297.252 146.093 298.904 146.139 300.423 146.682C301.942 147.225 303.249 148.236 304.155 149.57C305.062 150.905 305.521 152.492 305.466 154.104C305.411 155.716 304.845 157.269 303.85 158.539C302.855 159.808 301.482 160.728 299.929 161.166C298.377 161.605 296.726 161.538 295.214 160.976C293.702 160.415 292.407 159.387 291.518 158.041C290.628 156.696 290.189 155.103 290.264 153.491L290.261 153.495Z" fill="#3CBCF7"/>
<path d="M303.821 204.975C304.619 206.527 305.926 207.757 307.523 208.459C309.12 209.161 310.91 209.293 312.593 208.832C314.275 208.371 315.748 207.345 316.764 205.927C317.78 204.509 318.278 202.784 318.173 201.043C318.069 199.301 317.369 197.649 316.191 196.362C315.012 195.076 313.427 194.234 311.702 193.977C309.976 193.721 308.215 194.065 306.713 194.953C305.211 195.841 304.061 197.219 303.454 198.854L308.215 202.721L302.988 201.507C302.986 202.713 303.271 203.902 303.821 204.975Z" fill="#3CBCF7"/>
<path d="M307.579 190.206C309.444 190.292 311.276 189.689 312.726 188.511C314.175 187.334 315.141 185.664 315.439 183.82C315.737 181.977 315.346 180.088 314.341 178.514C313.336 176.94 311.788 175.79 309.99 175.284L310.031 178.42L308.31 175.019H308.29C307.287 174.965 306.285 175.11 305.339 175.445C304.393 175.78 303.522 176.299 302.778 176.972C302.033 177.645 301.43 178.459 301.001 179.367C300.572 180.274 300.328 181.257 300.281 182.26C300.234 183.262 300.386 184.264 300.728 185.208C301.07 186.151 301.595 187.018 302.274 187.757C302.952 188.497 303.77 189.095 304.68 189.517C305.591 189.939 306.576 190.177 307.579 190.216V190.206Z" fill="#3CBCF7"/>
<path d="M289.113 177.938C290.29 177.993 291.463 177.774 292.54 177.298C293.618 176.823 294.57 176.104 295.322 175.197C296.075 174.291 296.606 173.223 296.875 172.076C297.144 170.929 297.143 169.736 296.872 168.59C296.601 167.443 296.068 166.376 295.314 165.471C294.561 164.566 293.607 163.848 292.529 163.374C291.451 162.901 290.277 162.684 289.101 162.741C287.924 162.798 286.777 163.127 285.75 163.703L287.11 167.386L284.346 164.733C283.239 165.747 282.458 167.066 282.1 168.523C281.742 169.981 281.822 171.512 282.332 172.923C282.842 174.335 283.757 175.564 284.964 176.456C286.171 177.348 287.614 177.864 289.113 177.938Z" fill="#3CBCF7"/>
<path opacity="0.1" d="M291.28 155.521C293.038 155.715 294.745 156.262 296.507 156.371C298.268 156.48 300.203 156.058 301.315 154.671C301.917 153.933 302.217 153.001 302.723 152.195C303.205 151.448 303.862 150.829 304.638 150.393C305.128 151.357 305.406 152.415 305.455 153.495C305.504 154.576 305.322 155.654 304.921 156.659C304.521 157.663 303.91 158.571 303.131 159.321C302.352 160.071 301.421 160.646 300.402 161.008C299.383 161.37 298.298 161.51 297.221 161.42C296.143 161.33 295.097 161.01 294.152 160.484C293.207 159.957 292.386 159.235 291.742 158.366C291.099 157.497 290.648 156.5 290.42 155.443C290.709 155.47 290.995 155.494 291.28 155.521Z" fill="black"/>
<path opacity="0.1" d="M289.114 177.938C290.429 178 291.738 177.721 292.913 177.127C294.088 176.533 295.088 175.645 295.817 174.548C296.547 173.452 296.979 172.186 297.072 170.872C297.166 169.559 296.917 168.244 296.35 167.056C295.745 167.463 295.226 167.984 294.82 168.589C294.279 169.405 293.949 170.351 293.314 171.102C292.13 172.493 290.103 172.949 288.267 172.867C286.431 172.786 284.662 172.262 282.826 172.092C282.571 172.072 282.316 172.055 282.058 172.048C282.43 173.665 283.322 175.115 284.596 176.179C285.87 177.242 287.456 177.86 289.114 177.938Z" fill="black"/>
<path opacity="0.1" d="M307.579 190.206C308.877 190.267 310.169 189.994 311.331 189.414C312.494 188.833 313.488 187.965 314.22 186.891C314.952 185.818 315.396 184.574 315.511 183.28C315.626 181.986 315.408 180.684 314.877 179.498C314.249 179.91 313.704 180.434 313.268 181.045C312.676 181.878 312.309 182.837 311.615 183.609C310.333 185.037 308.177 185.541 306.232 185.493C304.348 185.452 302.536 184.99 300.662 184.847C301.123 186.344 302.034 187.662 303.272 188.621C304.51 189.58 306.014 190.134 307.579 190.206Z" fill="black"/>
<path opacity="0.1" d="M303.821 204.975C304.71 206.709 306.23 208.035 308.067 208.681C309.905 209.328 311.92 209.244 313.698 208.449C315.476 207.653 316.881 206.206 317.624 204.405C318.366 202.604 318.389 200.587 317.689 198.769C317.062 199.18 316.499 199.682 316.019 200.259C315.295 201.139 314.819 202.139 313.979 202.959C312.425 204.486 309.915 205.115 307.681 205.173C306.392 205.182 305.103 205.116 303.821 204.975Z" fill="black"/>
<path d="M322.817 217.547C322.817 217.547 316.815 216.003 314.996 214.714C313.177 213.426 305.76 211.888 305.311 213.953C304.862 216.017 296.289 224.229 303.067 224.284C309.844 224.338 318.815 224.59 320.62 223.488C322.426 222.386 322.817 217.547 322.817 217.547Z" fill="#656380"/>
<path opacity="0.2" d="M302.958 223.566C309.735 223.62 318.706 223.868 320.511 222.77C321.872 221.93 322.433 218.927 322.616 217.54H322.817C322.817 217.54 322.436 222.382 320.63 223.481C318.825 224.579 309.854 224.331 303.077 224.276C301.121 224.276 300.445 223.566 300.482 222.535C300.754 223.164 301.499 223.552 302.958 223.566Z" fill="black"/>
<path d="M167.757 51.5609C162.588 51.9281 157.739 55.5395 157.385 60.2221C157.192 62.7692 158.256 65.3672 157.824 67.8802C157.256 71.206 154.209 73.6612 151.023 75.3309C147.837 77.0006 144.314 78.2588 141.665 80.5576C139.016 82.8564 137.465 86.6786 139.335 89.6745C140.053 90.8239 141.185 91.7149 142.103 92.7351C144.599 95.5337 145.443 99.4478 144.266 102.77C143.195 105.78 140.583 108.432 140.865 111.629C141.138 114.689 144.127 117.172 147.364 118.141C150.601 119.11 154.063 118.882 157.413 118.641C161.279 118.365 165.615 117.862 167.863 115.06C170.277 112.05 169.199 107.715 170.485 104.158C173.049 97.0708 183.655 95.3467 187.892 89.0046C189.932 85.9441 190.242 82.1729 190.211 78.541C190.123 67.0403 183.954 50.4149 167.757 51.5609Z" fill="#3F3D56"/>
<path d="M166.9 76.3657C166.9 76.3657 168.6 81.8066 162.819 84.8671C157.038 87.9277 167.58 95.4089 167.58 95.4089L175.741 98.4695L184.923 94.3888L183.223 80.4464C183.223 80.4464 175.401 83.1669 175.401 73.3052L166.9 76.3657Z" fill="#A0616A"/>
<path opacity="0.1" d="M166.9 76.3657C166.9 76.3657 168.6 81.8066 162.819 84.8671C157.038 87.9277 167.58 95.4089 167.58 95.4089L175.741 98.4695L184.923 94.3888L183.223 80.4464C183.223 80.4464 175.401 83.1669 175.401 73.3052L166.9 76.3657Z" fill="black"/>
<path d="M179.483 198.786C179.483 198.786 177.782 210.347 178.803 211.708C179.823 213.068 184.584 212.388 184.584 212.388C184.584 212.388 185.604 200.826 185.944 199.466C186.284 198.105 179.483 198.786 179.483 198.786Z" fill="#A0616A"/>
<path d="M184.757 210.456C184.757 210.456 179.823 209.667 179.823 211.027C179.823 211.027 177.782 212.048 177.782 211.027C177.782 210.007 175.912 221.739 177.272 223.439C178.632 225.14 183.828 223.276 185.093 224.12C186.114 224.8 193.765 224.63 194.105 222.929C194.445 221.229 194.445 219.869 191.384 218.169C188.324 216.468 184.757 210.456 184.757 210.456Z" fill="#3F3D56"/>
<path opacity="0.1" d="M184.757 210.456C184.757 210.456 179.823 209.667 179.823 211.027C179.823 211.027 177.782 212.048 177.782 211.027C177.782 210.007 175.912 221.739 177.272 223.439C178.632 225.14 183.828 223.276 185.093 224.12C186.114 224.8 193.765 224.63 194.105 222.929C194.445 221.229 194.445 219.869 191.384 218.169C188.324 216.468 184.757 210.456 184.757 210.456Z" fill="black"/>
<path d="M167.58 197.767C167.58 197.767 169.96 207.969 168.94 212.73L176.082 210.689C176.082 210.689 171.661 198.787 172.001 197.767C172.341 196.747 167.58 197.767 167.58 197.767Z" fill="#A0616A"/>
<path d="M170.301 210.689C170.301 210.689 174.722 208.308 176.082 210.689C177.442 213.069 181.523 222.591 179.143 223.611C176.762 224.631 169.281 224.291 168.941 220.55C168.601 216.81 168.261 211.369 168.261 211.369C168.261 211.369 169.961 212.049 170.301 210.689Z" fill="#3F3D56"/>
<path d="M158.059 123.634C158.059 123.634 151.598 136.896 159.759 157.98C159.759 157.98 163.84 170.222 161.8 177.363C159.759 184.504 166.22 201.167 166.22 201.167L174.042 199.807C174.042 199.807 170.981 177.363 172.001 174.983C173.021 172.602 172.341 147.098 172.341 147.098C172.341 147.098 181.523 164.441 180.163 178.383C178.802 192.326 178.462 200.147 178.462 200.147L187.304 199.807C187.968 195.116 188.877 190.462 190.024 185.865C191.725 179.404 192.745 148.798 188.324 139.617L187.304 128.395L158.059 123.634Z" fill="#3F3D56"/>
<path d="M168.941 79.4229C173.448 79.4229 177.102 75.7689 177.102 71.2615C177.102 66.7541 173.448 63.1001 168.941 63.1001C164.433 63.1001 160.779 66.7541 160.779 71.2615C160.779 75.7689 164.433 79.4229 168.941 79.4229Z" fill="#A0616A"/>
<path d="M169.423 71.385C174.639 70.7168 178.578 67.9099 178.22 65.1156C177.862 62.3213 173.343 60.5978 168.127 61.266C162.911 61.9342 158.973 64.7411 159.331 67.5354C159.689 70.3296 164.207 72.0532 169.423 71.385Z" fill="#3F3D56"/>
<path opacity="0.1" d="M178.187 64.9741C177.739 67.4599 174.107 69.7757 169.421 70.3742C164.3 71.0306 159.852 69.3779 159.355 66.6744C159.3 66.9613 159.291 67.2552 159.328 67.545C159.668 70.3368 164.204 72.0609 169.421 71.3944C174.637 70.7279 178.575 67.919 178.215 65.1237C178.208 65.0727 178.198 65.0387 178.187 64.9741Z" fill="black"/>
<path d="M157.637 86.2062C156.542 85.7539 155.284 86.4544 154.549 87.3828C153.815 88.3111 153.393 89.4571 152.669 90.3923C151.853 91.4397 150.7 92.1606 149.625 92.9461C148.222 93.9744 146.927 95.1423 145.759 96.4317C145.14 97.1118 144.538 97.8532 143.718 98.3088C142.416 99.04 140.77 98.9107 139.396 98.3088C138.022 97.7069 136.87 96.7344 135.744 95.755C132.398 92.8373 129.097 89.8527 125.842 86.8013C123.526 84.6385 120.19 83.5503 117.041 83.2035C116.272 83.1185 115.405 83.1151 114.834 83.6353C114.457 84.0126 114.246 84.5238 114.246 85.0568C114.174 86.8285 115.681 88.3043 117.306 89.0219C118.932 89.7394 120.734 89.957 122.37 90.6371C123.923 91.2908 125.285 92.3302 126.324 93.6569C127.467 95.1123 128.851 96.3025 129.939 97.7954C130.436 98.4755 130.874 99.193 131.351 99.8867C132.506 101.499 133.764 103.035 135.118 104.484C136.693 106.236 138.618 108.133 140.964 107.956C141.943 107.885 142.848 107.446 143.729 107.014C146.48 105.654 149.255 104.294 151.666 102.407C153.077 101.301 154.352 100.026 155.831 99.006C157.246 98.0368 158.861 97.3057 160.007 96.0237C160.659 95.2814 161.124 94.3944 161.364 93.4363C161.604 92.4782 161.612 91.4766 161.388 90.5147C161.136 89.5563 160.667 88.6689 160.016 87.9216C159.366 87.1743 158.552 86.5872 157.637 86.2062Z" fill="#A0616A"/>
<path d="M188.746 82.8065C189.841 82.3543 191.099 83.0548 191.833 83.9831C192.568 84.9115 192.989 86.0575 193.714 86.9926C194.53 88.04 195.683 88.7609 196.757 89.5465C198.161 90.5748 199.456 91.7426 200.624 93.0321C201.243 93.7122 201.845 94.4535 202.664 94.9092C203.967 95.6403 205.612 95.5111 206.986 94.9092C208.36 94.3073 209.513 93.3347 210.638 92.3553C213.994 89.4263 217.299 86.4417 220.555 83.4016C222.87 81.2389 226.206 80.1507 229.355 79.8038C230.124 79.7188 230.991 79.7154 231.562 80.2357C231.939 80.6129 232.15 81.1241 232.151 81.6571C232.222 83.4288 230.715 84.9047 229.09 85.6222C227.465 86.3397 225.662 86.5574 224.027 87.2375C222.473 87.8912 221.112 88.9305 220.072 90.2572C218.929 91.7126 217.545 92.9028 216.457 94.3957C215.96 95.0758 215.522 95.7933 215.046 96.4871C213.886 98.0999 212.623 99.6357 211.264 101.085C209.69 102.836 207.765 104.733 205.419 104.557C204.439 104.485 203.535 104.047 202.654 103.615C199.903 102.254 197.128 100.894 194.717 99.0069C193.306 97.9017 192.031 96.6265 190.551 95.6063C189.137 94.6371 187.521 93.906 186.375 92.624C185.724 91.8817 185.258 90.9947 185.018 90.0366C184.778 89.0785 184.77 88.0769 184.995 87.1151C185.246 86.1567 185.715 85.2693 186.366 84.5219C187.017 83.7746 187.831 83.1876 188.746 82.8065Z" fill="#A0616A"/>
<path d="M175.062 93.0279C173.196 91.7944 171.266 90.6593 169.281 89.6273C166.561 88.2671 163.5 83.8463 163.5 83.8463C163.5 83.8463 153.979 85.5466 153.979 87.927C153.979 90.3074 158.059 98.8089 159.419 99.489C160.78 100.169 162.82 100.169 162.48 101.529C162.14 102.89 163.5 105.61 163.5 105.61C163.5 105.61 166.221 109.691 164.52 110.711C162.82 111.731 155.339 123.973 156.359 125.673C157.379 127.374 166.901 129.074 171.662 133.155C176.422 137.235 189.685 132.815 189.685 131.794C189.685 130.774 188.324 128.734 188.324 128.734C188.324 128.734 187.984 111.731 189.685 106.29C191.385 100.849 190.025 93.0279 189.345 92.0077C189.345 92.0077 193.425 84.8665 191.725 82.8262C190.025 80.7858 181.863 79.7656 181.183 80.1057L180.54 83.8089C180.088 86.3949 179.298 88.9102 178.191 91.2902C177.851 92.0281 177.555 92.6878 177.443 93.0211C177.102 94.0481 175.062 93.0279 175.062 93.0279Z" fill="#1890FF"/>
<path d="M109.651 129.966C109.615 129.166 109.378 128.389 108.962 127.705C108.546 127.022 107.964 126.454 107.271 126.055L106.203 128.167L106.234 125.609C105.725 125.458 105.193 125.393 104.663 125.419C103.723 125.466 102.819 125.789 102.063 126.349C101.308 126.909 100.735 127.681 100.418 128.566C100.1 129.451 100.051 130.41 100.278 131.323C100.505 132.236 100.998 133.061 101.693 133.694C102.388 134.327 103.255 134.74 104.185 134.881C105.115 135.022 106.066 134.884 106.917 134.486C107.769 134.087 108.484 133.445 108.971 132.64C109.458 131.836 109.696 130.905 109.655 129.966H109.651Z" fill="#F2F2F2"/>
<path opacity="0.03" d="M109.009 131.234C107.907 131.357 106.836 131.7 105.731 131.768C104.625 131.836 103.411 131.571 102.711 130.714C102.337 130.248 102.146 129.663 101.83 129.16C101.528 128.689 101.115 128.3 100.626 128.028C100.338 128.63 100.18 129.285 100.162 129.952C100.144 130.619 100.266 131.283 100.521 131.899C100.775 132.516 101.157 133.072 101.64 133.532C102.124 133.992 102.699 134.345 103.328 134.568C103.956 134.792 104.625 134.88 105.29 134.829C105.956 134.777 106.602 134.586 107.189 134.268C107.776 133.95 108.289 133.512 108.696 132.983C109.102 132.454 109.393 131.846 109.549 131.197C109.369 131.204 109.189 131.217 109.009 131.234Z" fill="black"/>
<path d="M226.124 176.129C225.388 175.814 224.584 175.69 223.787 175.769C222.989 175.847 222.225 176.125 221.564 176.578L222.999 178.462L220.71 177.316C220.353 177.708 220.065 178.157 219.857 178.645C219.489 179.511 219.385 180.466 219.559 181.39C219.733 182.315 220.176 183.167 220.834 183.839C221.492 184.511 222.334 184.974 223.254 185.168C224.175 185.362 225.132 185.28 226.005 184.93C226.878 184.581 227.629 183.981 228.161 183.206C228.694 182.431 228.985 181.515 228.998 180.574C229.01 179.634 228.744 178.711 228.233 177.921C227.722 177.132 226.988 176.512 226.124 176.139V176.129Z" fill="#F2F2F2"/>
<path opacity="0.03" d="M226.988 177.257C226.614 178.301 226.458 179.413 226.036 180.44C225.615 181.467 224.846 182.439 223.768 182.694C223.187 182.83 222.578 182.745 221.986 182.81C221.431 182.876 220.901 183.078 220.442 183.398C220.94 184.058 221.603 184.575 222.364 184.898C223.436 185.402 224.658 185.488 225.791 185.139C226.924 184.79 227.885 184.032 228.488 183.011C229.091 181.991 229.292 180.782 229.051 179.622C228.81 178.461 228.145 177.432 227.186 176.736C227.114 176.917 227.05 177.09 226.988 177.257Z" fill="black"/>
<path d="M209.224 28.4214C208.525 28.0305 207.739 27.8221 206.938 27.8156C206.138 27.8091 205.348 28.0046 204.643 28.384L205.878 30.4074L203.718 29.0471C202.967 29.7203 202.45 30.6146 202.24 31.6009C202.03 32.5872 202.139 33.6147 202.551 34.5353C202.962 35.4558 203.656 36.2219 204.531 36.723C205.406 37.2241 206.417 37.4344 207.42 37.3236C208.422 37.2128 209.363 36.7866 210.108 36.1064C210.852 35.4262 211.362 34.5272 211.562 33.5389C211.763 32.5507 211.644 31.5243 211.224 30.6076C210.804 29.6909 210.104 28.9314 209.224 28.4384V28.4214Z" fill="#F2F2F2"/>
<path opacity="0.03" d="M209.965 29.6377C209.489 30.6341 209.213 31.7257 208.69 32.6982C208.166 33.6708 207.302 34.5651 206.204 34.708C205.612 34.7828 205.014 34.6366 204.419 34.64C203.859 34.648 203.31 34.794 202.82 35.065C203.247 35.7764 203.853 36.3629 204.578 36.7653C205.591 37.3585 206.787 37.5568 207.937 37.3219C209.087 37.0871 210.11 36.4358 210.809 35.493C211.508 34.5503 211.834 33.3825 211.725 32.2139C211.616 31.0454 211.078 29.9584 210.217 29.1616C210.128 29.3317 210.043 29.4745 209.965 29.6377Z" fill="black"/>
<g filter="url(#filter0_dd)">
<path d="M261.303 72.5344H247.029C241.105 72.5344 236.323 67.7467 236.323 61.8156V47.5238C236.323 44.5583 237.537 41.8786 239.464 39.9492L256.271 23.085L258.805 25.6217C260.696 27.5154 261.303 30.2308 260.625 32.6604L258.555 40.378H272.008C275.934 40.378 279.145 43.5936 279.145 47.5238C279.145 48.7386 278.86 49.882 278.325 50.8824L271.152 65.9959C269.546 69.819 265.728 72.5344 261.303 72.5344Z" fill="white"/>
</g>
<path d="M275.22 49.0602L275.577 47.5238C275.577 45.5587 273.971 43.9509 272.008 43.9509H253.916L257.199 31.66V31.5885C257.52 30.4095 257.235 29.0875 256.271 28.1585L241.997 42.486C240.677 43.7723 239.892 45.5587 239.892 47.5238V61.8156C239.892 65.7458 243.103 68.9614 247.029 68.9614H261.303C264.158 68.9614 266.656 67.2822 267.762 64.8883H267.726L275.22 49.0602ZM261.303 72.5344H247.029C241.105 72.5344 236.323 67.7467 236.323 61.8156V47.5238C236.323 44.5583 237.537 41.8786 239.464 39.9492L256.271 23.085L258.805 25.6217C260.696 27.5154 261.303 30.2308 260.625 32.6604L258.555 40.378H272.008C275.934 40.378 279.145 43.5936 279.145 47.5238C279.145 48.7386 278.86 49.882 278.325 50.8824L271.152 65.9959C269.546 69.819 265.728 72.5344 261.303 72.5344Z" fill="#1890FF"/>
<g filter="url(#filter1_dd)">
<path d="M73.1913 72.5337L87.4654 72.5337C93.3891 72.5337 98.1709 77.3215 98.1709 83.2525L98.1709 97.5443C98.1709 100.51 96.9576 103.19 95.0306 105.119L78.2229 121.983L75.6892 119.446C73.7979 117.553 73.1913 114.837 73.8693 112.408L75.939 104.69L62.4857 104.69C58.5604 104.69 55.3487 101.475 55.3487 97.5443C55.3487 96.3295 55.6342 95.1861 56.1695 94.1857L63.3422 79.0722C64.948 75.2492 68.7663 72.5337 73.1913 72.5337Z" fill="white"/>
</g>
<path d="M59.2741 96.0079L58.9172 97.5443C58.9172 99.5094 60.5231 101.117 62.4857 101.117L80.5781 101.117L77.2951 113.408L77.2951 113.48C76.9739 114.659 77.2594 115.981 78.2229 116.91L92.497 102.582C93.8173 101.296 94.6024 99.5094 94.6024 97.5443L94.6024 83.2525C94.6024 79.3223 91.3907 76.1067 87.4654 76.1067L73.1913 76.1067C70.3365 76.1067 67.8385 77.7859 66.7323 80.1798L66.768 80.1798L59.2741 96.0079ZM73.1913 72.5337L87.4654 72.5337C93.3891 72.5337 98.1709 77.3215 98.1709 83.2525L98.1709 97.5443C98.1709 100.51 96.9576 103.19 95.0306 105.119L78.2229 121.983L75.6892 119.446C73.7979 117.553 73.1913 114.837 73.8693 112.408L75.939 104.69L62.4857 104.69C58.5604 104.69 55.3487 101.475 55.3487 97.5443C55.3487 96.3295 55.6342 95.1861 56.1695 94.1857L63.3422 79.0722C64.948 75.2492 68.7663 72.5337 73.1913 72.5337Z" fill="#0B3F9C"/>
<defs>
<filter id="filter0_dd" x="216.323" y="7.08496" width="82.8222" height="89.4494" filterUnits="userSpaceOnUse" color-interpolation-filters="sRGB">
<feFlood flood-opacity="0" result="BackgroundImageFix"/>
<feColorMatrix in="SourceAlpha" type="matrix" values="0 0 0 0 0 0 0 0 0 0 0 0 0 0 0 0 0 0 127 0"/>
<feOffset dy="1"/>
<feGaussianBlur stdDeviation="1"/>
<feColorMatrix type="matrix" values="0 0 0 0 0 0 0 0 0 0 0 0 0 0 0 0 0 0 0.12 0"/>
<feBlend mode="normal" in2="BackgroundImageFix" result="effect1_dropShadow"/>
<feColorMatrix in="SourceAlpha" type="matrix" values="0 0 0 0 0 0 0 0 0 0 0 0 0 0 0 0 0 0 127 0"/>
<feOffset dy="4"/>
<feGaussianBlur stdDeviation="10"/>
<feColorMatrix type="matrix" values="0 0 0 0 0 0 0 0 0 0 0 0 0 0 0 0 0 0 0.12 0"/>
<feBlend mode="normal" in2="effect1_dropShadow" result="effect2_dropShadow"/>
<feBlend mode="normal" in="SourceGraphic" in2="effect2_dropShadow" result="shape"/>
</filter>
<filter id="filter1_dd" x="35.3486" y="56.5337" width="82.8222" height="89.4494" filterUnits="userSpaceOnUse" color-interpolation-filters="sRGB">
<feFlood flood-opacity="0" result="BackgroundImageFix"/>
<feColorMatrix in="SourceAlpha" type="matrix" values="0 0 0 0 0 0 0 0 0 0 0 0 0 0 0 0 0 0 127 0"/>
<feOffset dy="1"/>
<feGaussianBlur stdDeviation="1"/>
<feColorMatrix type="matrix" values="0 0 0 0 0 0 0 0 0 0 0 0 0 0 0 0 0 0 0.12 0"/>
<feBlend mode="normal" in2="BackgroundImageFix" result="effect1_dropShadow"/>
<feColorMatrix in="SourceAlpha" type="matrix" values="0 0 0 0 0 0 0 0 0 0 0 0 0 0 0 0 0 0 127 0"/>
<feOffset dy="4"/>
<feGaussianBlur stdDeviation="10"/>
<feColorMatrix type="matrix" values="0 0 0 0 0 0 0 0 0 0 0 0 0 0 0 0 0 0 0.12 0"/>
<feBlend mode="normal" in2="effect1_dropShadow" result="effect2_dropShadow"/>
<feBlend mode="normal" in="SourceGraphic" in2="effect2_dropShadow" result="shape"/>
</filter>
</defs>
</svg>
