<svg width="291" height="210" viewBox="0 0 291 210" fill="none" xmlns="http://www.w3.org/2000/svg">
<g clip-path="url(#clip0)">
<g opacity="0.3">
<path opacity="0.3" d="M227.055 175.121C229.776 176.575 233.199 175.552 234.654 172.805C236.109 170.085 235.085 166.691 232.336 165.21C231.42 164.725 230.369 164.482 229.318 164.563L229.049 167.445L228.052 164.806C226.624 165.237 225.465 166.233 224.764 167.526C224.522 167.984 224.333 168.469 224.225 168.98C223.659 171.431 224.818 173.936 227.055 175.121Z" fill="#111111"/>
<path opacity="0.3" d="M229.049 209.192C228.914 206.687 231.286 204.829 233.522 203.725C235.759 202.62 238.346 201.57 239.37 199.308C240.852 196.022 238.319 192.493 236.379 189.45C234.95 187.214 233.765 184.79 232.902 182.286C232.552 181.262 232.256 180.239 232.283 179.161C232.31 177.626 233.01 176.172 233.711 174.798C236.028 170.219 238.453 165.695 240.986 161.224" stroke="#3F3D56" stroke-miterlimit="10"/>
<path opacity="0.3" d="M227.378 174.394C230.1 175.848 233.522 174.825 234.977 172.078C236.432 169.357 235.408 165.964 232.66 164.483C231.743 163.998 230.692 163.755 229.641 163.836L229.372 166.718L228.375 164.079C226.947 164.509 225.788 165.506 225.087 166.799C224.845 167.257 224.656 167.741 224.549 168.253C224.01 170.731 225.168 173.236 227.378 174.394Z" stroke="#3F3D56" stroke-miterlimit="10"/>
<path opacity="0.3" d="M235.408 159.446C236.298 157.749 237.995 156.645 239.908 156.483L239.989 159.258L241.229 156.537C244.301 157.022 246.376 159.877 245.891 162.947C245.406 166.018 242.549 168.092 239.477 167.607C236.405 167.122 234.33 164.267 234.815 161.197C234.896 160.577 235.112 159.985 235.408 159.446Z" fill="#111111"/>
<path opacity="0.3" d="M235.839 158.503C236.728 156.806 238.426 155.702 240.339 155.541L240.42 158.315L241.66 155.594C244.732 156.079 246.807 158.934 246.322 162.005C245.837 165.075 242.98 167.149 239.908 166.664C236.863 166.179 234.761 163.324 235.246 160.254C235.354 159.634 235.543 159.042 235.839 158.503Z" stroke="#3F3D56" stroke-miterlimit="10"/>
<path opacity="0.3" d="M235.408 189.369C238.13 190.823 241.525 189.773 242.98 187.053C244.193 184.736 243.681 181.908 241.714 180.185L240.744 182.286L240.663 179.484C237.941 178.03 234.546 179.054 233.064 181.801C231.609 184.494 232.659 187.888 235.408 189.369C235.381 189.369 235.408 189.369 235.408 189.369Z" fill="#111111"/>
<path opacity="0.3" d="M235.812 188.399C238.534 189.854 241.929 188.803 243.384 186.083C244.597 183.767 244.085 180.939 242.118 179.215L241.148 181.316L241.067 178.515C238.345 177.06 234.95 178.084 233.468 180.831C232.04 183.551 233.064 186.945 235.812 188.399ZM235.812 188.399C235.785 188.399 235.812 188.399 235.812 188.399Z" stroke="#3F3D56" stroke-miterlimit="10"/>
<path opacity="0.3" d="M228.321 197.772C228.429 200.87 231.016 203.294 234.115 203.186C237.214 203.078 239.639 200.492 239.531 197.395C239.423 194.298 236.836 191.874 233.738 191.981C232.336 192.035 231.016 192.601 230.019 193.571L231.959 197.638L228.86 195.187C228.456 195.995 228.294 196.883 228.321 197.772Z" fill="#111111"/>
<path opacity="0.3" d="M228.645 197.045C228.752 200.142 231.339 202.566 234.438 202.459C237.537 202.351 239.962 199.765 239.855 196.668C239.747 193.571 237.16 191.147 234.061 191.254C232.66 191.308 231.339 191.874 230.342 192.844L232.282 196.91L229.184 194.46C228.806 195.294 228.618 196.156 228.645 197.045Z" stroke="#3F3D56" stroke-miterlimit="10"/>
</g>
<g opacity="0.3">
<path opacity="0.3" d="M78.7659 175.929C76.0443 177.384 72.649 176.36 71.1669 173.613C69.7118 170.893 70.7358 167.472 73.4843 166.018C74.4005 165.533 75.4515 165.29 76.5024 165.371L76.7719 168.253L77.7689 165.614C79.1971 166.045 80.3558 167.041 81.0564 168.334C81.2989 168.792 81.4876 169.277 81.5954 169.788C82.1612 172.239 80.9756 174.744 78.7659 175.929Z" fill="#1890FF"/>
<path opacity="0.3" d="M76.772 210C76.9067 207.495 74.5354 205.637 72.2988 204.533C70.0622 203.428 67.4753 202.378 66.4513 200.116C64.9692 196.83 67.5022 193.301 69.4424 190.258C70.8706 188.023 72.0562 185.598 72.9186 183.094C73.2689 182.07 73.5653 181.047 73.5383 179.969C73.5114 178.434 72.8108 176.98 72.1101 175.606C69.7927 171.028 67.3675 166.503 64.8345 162.032" stroke="#3F3D56" stroke-miterlimit="10"/>
<path opacity="0.3" d="M78.4427 175.202C75.7211 176.657 72.3258 175.633 70.8437 172.886C69.3885 170.166 70.4125 166.772 73.1611 165.291C74.0773 164.806 75.1282 164.563 76.1792 164.644L76.4486 167.526L77.4457 164.887C78.8739 165.318 80.0326 166.314 80.7332 167.607C80.9757 168.065 81.1644 168.55 81.2721 169.061C81.8111 171.539 80.6524 174.044 78.4427 175.202Z" stroke="#3F3D56" stroke-miterlimit="10"/>
<path opacity="0.3" d="M70.4125 160.254C69.5233 158.557 67.8256 157.453 65.9124 157.292L65.8316 160.066L64.592 157.345C61.5201 157.83 59.4451 160.685 59.9302 163.756C60.4152 166.826 63.2716 168.9 66.3436 168.415C69.4155 167.93 71.4904 165.075 71.0054 162.005C70.9245 161.385 70.709 160.793 70.4125 160.254Z" fill="#1890FF"/>
<path opacity="0.3" d="M69.9814 159.311C69.0921 157.615 67.3945 156.51 65.4812 156.349L65.4004 159.123L64.1608 156.403C61.0889 156.887 59.014 159.742 59.499 162.813C59.9841 165.883 62.8404 167.957 65.9124 167.472C68.9843 166.987 71.0593 164.132 70.5742 161.062C70.4664 160.443 70.2778 159.85 69.9814 159.311Z" stroke="#3F3D56" stroke-miterlimit="10"/>
<path opacity="0.3" d="M70.4127 190.177C67.6911 191.632 64.2958 190.581 62.8406 187.861C61.628 185.545 62.14 182.717 64.1072 180.993L65.0772 183.094L65.1581 180.293C67.8797 178.838 71.275 179.862 72.7571 182.609C74.1853 185.302 73.1613 188.696 70.4127 190.177Z" fill="#1890FF"/>
<path opacity="0.3" d="M70.0084 189.207C67.2868 190.662 63.8915 189.611 62.4364 186.891C61.2237 184.575 61.7357 181.747 63.7029 180.023L64.6729 182.124L64.7538 179.323C67.4754 177.868 70.8707 178.892 72.3528 181.639C73.781 184.359 72.757 187.753 70.0084 189.207Z" stroke="#3F3D56" stroke-miterlimit="10"/>
<path opacity="0.3" d="M77.4995 198.58C77.3917 201.678 74.8048 204.102 71.7059 203.994C68.607 203.886 66.1818 201.301 66.2896 198.203C66.3974 195.106 68.9843 192.682 72.0832 192.79C73.4844 192.843 74.8048 193.409 75.8019 194.379L73.8617 198.446L76.9606 195.995C77.3648 196.803 77.5265 197.691 77.4995 198.58Z" fill="#1890FF"/>
<path opacity="0.3" d="M77.1763 197.853C77.0685 200.951 74.4816 203.375 71.3827 203.267C68.2838 203.159 65.8586 200.574 65.9663 197.476C66.0741 194.379 68.661 191.955 71.7599 192.063C73.1612 192.116 74.4816 192.682 75.4786 193.652L73.5384 197.719L76.6373 195.268C77.0146 196.103 77.2032 196.964 77.1763 197.853Z" stroke="#3F3D56" stroke-miterlimit="10"/>
</g>
<g opacity="0.3">
<path opacity="0.3" d="M218.89 175.66C216.168 177.114 212.746 176.091 211.291 173.343C209.836 170.623 210.86 167.229 213.608 165.748C214.525 165.263 215.576 165.021 216.626 165.102L216.896 167.984L217.893 165.344C219.321 165.775 220.48 166.772 221.18 168.064C221.423 168.522 221.612 169.007 221.719 169.519C222.285 171.97 221.1 174.475 218.89 175.66Z" fill="#1890FF"/>
<path opacity="0.3" d="M216.896 209.731C217.031 207.226 214.659 205.367 212.423 204.263C210.186 203.159 207.599 202.109 206.575 199.846C205.093 196.56 207.626 193.032 209.566 189.988C210.995 187.753 212.18 185.329 213.043 182.824C213.393 181.801 213.689 180.777 213.662 179.7C213.635 178.165 212.935 176.71 212.234 175.337C209.917 170.758 207.492 166.233 204.958 161.762" stroke="#3F3D56" stroke-miterlimit="10"/>
<path opacity="0.3" d="M218.567 174.933C215.845 176.387 212.423 175.364 210.968 172.616C209.513 169.896 210.537 166.502 213.285 165.021C214.201 164.536 215.252 164.294 216.303 164.375L216.573 167.257L217.57 164.617C218.998 165.048 220.157 166.045 220.857 167.337C221.1 167.795 221.288 168.28 221.396 168.792C221.935 171.27 220.776 173.774 218.567 174.933Z" stroke="#3F3D56" stroke-miterlimit="10"/>
<path opacity="0.3" d="M210.537 159.985C209.647 158.288 207.95 157.184 206.036 157.022L205.956 159.796L204.716 157.076C201.644 157.561 199.569 160.416 200.054 163.486C200.539 166.556 203.396 168.63 206.468 168.145C209.54 167.661 211.614 164.806 211.129 161.735C211.049 161.116 210.833 160.523 210.537 159.985Z" fill="#1890FF"/>
<path opacity="0.3" d="M210.105 159.042C209.216 157.345 207.519 156.241 205.605 156.079L205.524 158.853L204.285 156.133C201.213 156.618 199.138 159.473 199.623 162.543C200.108 165.614 202.964 167.687 206.036 167.203C209.108 166.718 211.183 163.863 210.698 160.792C210.59 160.173 210.402 159.58 210.105 159.042Z" stroke="#3F3D56" stroke-miterlimit="10"/>
<path opacity="0.3" d="M210.536 189.908C207.815 191.362 204.419 190.312 202.964 187.591C201.752 185.275 202.264 182.447 204.231 180.723L205.201 182.824L205.282 180.023C208.003 178.569 211.399 179.592 212.881 182.339C214.309 185.033 213.285 188.426 210.536 189.908Z" fill="#1890FF"/>
<path opacity="0.3" d="M210.132 188.938C207.411 190.392 204.016 189.342 202.56 186.622C201.348 184.305 201.86 181.477 203.827 179.754L204.797 181.854L204.878 179.053C207.599 177.599 210.995 178.622 212.477 181.37C213.905 184.09 212.881 187.483 210.132 188.938Z" stroke="#3F3D56" stroke-miterlimit="10"/>
<path opacity="0.3" d="M217.624 198.311C217.516 201.408 214.929 203.832 211.83 203.724C208.731 203.617 206.306 201.031 206.414 197.934C206.521 194.836 209.108 192.412 212.207 192.52C213.608 192.574 214.929 193.14 215.926 194.109L213.986 198.176L217.085 195.725C217.489 196.533 217.65 197.422 217.624 198.311Z" fill="#1890FF"/>
<path opacity="0.3" d="M217.3 197.584C217.193 200.681 214.606 203.105 211.507 202.997C208.408 202.89 205.983 200.304 206.09 197.207C206.198 194.109 208.785 191.685 211.884 191.793C213.285 191.847 214.606 192.412 215.603 193.382L213.662 197.449L216.761 194.998C217.139 195.833 217.327 196.695 217.3 197.584Z" stroke="#3F3D56" stroke-miterlimit="10"/>
</g>
<g opacity="0.3">
<path opacity="0.3" d="M19.4823 175.391C16.7606 176.845 13.3653 175.822 11.8832 173.074C10.4281 170.354 11.4521 166.934 14.2007 165.479C15.1169 164.994 16.1678 164.752 17.2187 164.833L17.4882 167.715L18.4852 165.075C19.9134 165.506 21.0721 166.503 21.7727 167.795C22.0153 168.253 22.2039 168.738 22.3117 169.25C22.8776 171.701 21.6919 174.206 19.4823 175.391Z" fill="#1890FF"/>
<path opacity="0.3" d="M17.4883 209.462C17.623 206.957 15.2517 205.098 13.0151 203.994C10.7785 202.89 8.19158 201.839 7.1676 199.577C5.68552 196.291 8.21853 192.763 10.1587 189.719C11.5869 187.484 12.7726 185.06 13.6349 182.555C13.9852 181.532 14.2816 180.508 14.2546 179.431C14.2277 177.896 13.5271 176.441 12.8265 175.068C10.509 170.489 8.08379 165.964 5.55078 161.493" stroke="#3F3D56" stroke-miterlimit="10"/>
<path opacity="0.3" d="M19.159 174.664C16.4374 176.118 13.0421 175.094 11.56 172.347C10.1048 169.627 11.1288 166.233 13.8774 164.752C14.7936 164.267 15.8445 164.025 16.8955 164.106L17.1649 166.988L18.162 164.348C19.5902 164.779 20.7489 165.776 21.4495 167.068C21.692 167.526 21.8807 168.011 21.9884 168.523C22.5274 171.001 21.3687 173.505 19.159 174.664Z" stroke="#3F3D56" stroke-miterlimit="10"/>
<path opacity="0.3" d="M11.1286 159.716C10.2394 158.019 8.54174 156.915 6.62851 156.753L6.54767 159.527L5.30811 156.807C2.26311 157.265 0.161243 160.147 0.646288 163.217C1.13133 166.287 3.98771 168.361 7.05966 167.876C10.1316 167.392 12.2065 164.537 11.7215 161.466C11.6406 160.847 11.4251 160.254 11.1286 159.716Z" fill="#1890FF"/>
<path opacity="0.3" d="M10.6977 158.773C9.80845 157.076 8.11079 155.972 6.19756 155.81L6.11672 158.584L4.87716 155.864C1.80521 156.349 -0.269708 159.204 0.215337 162.274C0.700382 165.345 3.55676 167.418 6.62871 166.934C9.70066 166.449 11.7756 163.594 11.2905 160.523C11.1827 159.904 10.9941 159.311 10.6977 158.773Z" stroke="#3F3D56" stroke-miterlimit="10"/>
<path opacity="0.3" d="M11.1286 189.639C8.40692 191.093 5.0116 190.043 3.55647 187.322C2.34386 185.006 2.85585 182.178 4.82297 180.454L5.79306 182.555L5.8739 179.754C8.59554 178.3 11.9909 179.323 13.4729 182.07C14.955 184.817 13.8771 188.184 11.1286 189.639Z" fill="#1890FF"/>
<path opacity="0.3" d="M10.7247 188.669C8.00311 190.123 4.60779 189.073 3.15266 186.353C1.94005 184.036 2.45204 181.208 4.41917 179.485L5.38926 181.585L5.4701 178.784C8.19174 177.33 11.5871 178.353 13.0691 181.101C14.4973 183.821 13.4733 187.214 10.7247 188.669Z" stroke="#3F3D56" stroke-miterlimit="10"/>
<path opacity="0.3" d="M18.2158 198.042C18.108 201.139 15.5211 203.563 12.4222 203.455C9.32334 203.348 6.89811 200.762 7.0059 197.665C7.11369 194.567 9.70059 192.143 12.7995 192.251C14.2007 192.305 15.5211 192.87 16.5182 193.84L14.578 197.907L17.6769 195.456C18.0811 196.264 18.2428 197.153 18.2158 198.042Z" fill="#1890FF"/>
<path opacity="0.3" d="M17.8926 197.315C17.7848 200.412 15.1979 202.836 12.099 202.728C9.00009 202.621 6.57487 200.035 6.68266 196.938C6.79045 193.84 9.37735 191.416 12.4762 191.524C13.8775 191.578 15.1979 192.143 16.1949 193.113L14.2547 197.18L17.3536 194.729C17.7309 195.564 17.9195 196.426 17.8926 197.315Z" stroke="#3F3D56" stroke-miterlimit="10"/>
</g>
<g opacity="0.3">
<path opacity="0.3" d="M17.9737 150.504C22.6625 153.009 28.51 151.231 31.016 146.518C33.5221 141.832 31.7436 135.987 27.0279 133.482C25.438 132.647 23.6326 132.243 21.8271 132.378L21.369 137.307L19.6714 132.809C17.2462 133.563 15.1982 135.233 14.0125 137.495C13.5814 138.276 13.285 139.111 13.0963 140C12.1801 144.202 14.1742 148.484 17.9737 150.504Z" fill="#111111"/>
<path opacity="0.3" d="M21.4228 209.057C21.2072 204.775 25.2762 201.57 29.1296 199.657C32.983 197.745 37.4023 195.968 39.1808 192.062C41.7407 186.433 37.3753 180.346 34.0339 175.148C31.5548 171.297 29.5607 167.149 28.0517 162.839C27.4589 161.116 26.9199 159.311 26.9738 157.48C27.0277 154.84 28.2403 152.362 29.426 150.019C33.3872 142.155 37.564 134.398 41.9024 126.722" stroke="#3F3D56" stroke-miterlimit="10"/>
<path opacity="0.3" d="M18.5667 149.292C23.2554 151.797 29.1029 150.019 31.609 145.306C34.115 140.619 32.3365 134.775 27.6208 132.27C26.031 131.435 24.2255 131.031 22.4201 131.166L21.962 136.094L20.2374 131.57C17.8121 132.324 15.7642 133.994 14.5785 136.256C14.1474 137.037 13.8509 137.872 13.6623 138.761C12.7461 142.989 14.7671 147.272 18.5667 149.292Z" stroke="#3F3D56" stroke-miterlimit="10"/>
<path opacity="0.3" d="M32.3363 123.598C33.8723 120.689 36.7826 118.777 40.0701 118.534L40.2048 123.301L42.3606 118.615C47.6152 119.45 51.1992 124.352 50.3908 129.604C49.5554 134.856 44.6511 138.438 39.3964 137.63C34.1418 136.822 30.5578 131.893 31.3662 126.641C31.474 125.564 31.8243 124.54 32.3363 123.598Z" fill="#111111"/>
<path opacity="0.3" d="M33.0907 121.981C34.6267 119.073 37.537 117.16 40.8245 116.918L40.9592 121.685L43.115 116.999C48.3696 117.834 51.9536 122.736 51.1452 127.988C50.3098 133.24 45.4055 136.822 40.1508 136.014C34.8962 135.206 31.3122 130.277 32.1206 125.025C32.2554 123.948 32.5787 122.924 33.0907 121.981Z" stroke="#3F3D56" stroke-miterlimit="10"/>
<path opacity="0.3" d="M32.3366 174.987C37.0253 177.491 42.8728 175.687 45.3519 171C47.4538 167.041 46.5646 162.166 43.1692 159.23L41.5255 162.84L41.3907 158.018H41.3638C36.675 155.514 30.8275 157.318 28.3484 162.005C25.8693 166.691 27.6478 172.509 32.3366 174.987Z" fill="#111111"/>
<path opacity="0.3" d="M33.037 173.343C37.7257 175.848 43.5732 174.044 46.0523 169.357C48.1542 165.398 47.2649 160.523 43.8696 157.587L42.2259 161.196L42.0911 156.375H42.0642C37.3754 153.871 31.5279 155.675 29.0488 160.362C26.5427 165.021 28.3482 170.866 33.037 173.343Z" stroke="#3F3D56" stroke-miterlimit="10"/>
<path opacity="0.3" d="M20.1562 189.423C20.3448 194.728 24.7911 198.903 30.0996 198.715C35.4082 198.526 39.5849 194.082 39.3963 188.776C39.2077 183.47 34.7614 179.296 29.4529 179.484C27.0546 179.565 24.7641 180.535 23.0395 182.204L26.3809 189.207L21.0454 185.006C20.4257 186.379 20.1023 187.887 20.1562 189.423Z" fill="#111111"/>
<path opacity="0.3" d="M20.7494 188.211C20.938 193.517 25.3843 197.691 30.6928 197.503C36.0014 197.314 40.1781 192.87 39.9895 187.564C39.8009 182.258 35.3546 178.084 30.0461 178.272C27.6478 178.353 25.3573 179.323 23.6327 180.993L26.9741 187.995L21.6386 183.794C20.9919 185.167 20.6955 186.675 20.7494 188.211Z" stroke="#3F3D56" stroke-miterlimit="10"/>
</g>
<g opacity="0.3">
<path opacity="0.3" d="M248.639 209.623C248.343 204.075 253.625 199.927 258.61 197.449C263.595 194.971 269.335 192.682 271.625 187.619C274.94 180.346 269.281 172.455 264.969 165.722C261.763 160.739 259.176 155.379 257.235 149.777C256.454 147.542 255.78 145.198 255.834 142.828C255.915 139.408 257.451 136.203 259.014 133.159C264.161 122.978 269.55 112.932 275.155 102.994" stroke="#3F3D56" stroke-miterlimit="10"/>
<path opacity="0.3" d="M281.623 91.6547L276.206 93.2169L276.584 90.7121C276.099 90.6851 275.613 90.6582 275.128 90.6582C268.068 90.6582 262.329 93.9171 262.329 97.9302C262.329 101.943 268.068 105.202 275.128 105.202C282.189 105.202 287.928 101.943 287.928 97.9302C287.901 95.2369 285.395 92.9206 281.623 91.6547Z" fill="#1890FF"/>
<path opacity="0.3" d="M281.623 90.8466L276.206 92.4088L276.584 89.904C276.099 89.877 275.613 89.8501 275.128 89.8501C268.068 89.8501 262.329 93.109 262.329 97.1221C262.329 101.135 268.068 104.394 275.128 104.394C282.189 104.394 287.928 101.135 287.928 97.1221C287.901 94.4288 285.395 92.1125 281.623 90.8466Z" stroke="#3F3D56" stroke-miterlimit="10"/>
<path opacity="0.3" d="M265.724 184.036L260.307 185.598L260.685 183.093C260.2 183.066 259.715 183.04 259.23 183.04C252.169 183.04 246.43 186.298 246.43 190.312C246.43 194.325 252.169 197.584 259.23 197.584C266.29 197.584 272.029 194.325 272.029 190.312C272.002 187.618 269.496 185.302 265.724 184.036Z" fill="#1890FF"/>
<path opacity="0.3" d="M265.724 183.228L260.307 184.791L260.685 182.286C260.2 182.259 259.715 182.232 259.23 182.232C252.169 182.232 246.43 185.491 246.43 189.504C246.43 193.517 252.169 196.776 259.23 196.776C266.29 196.776 272.029 193.517 272.029 189.504C272.002 186.811 269.496 184.494 265.724 183.228Z" stroke="#3F3D56" stroke-miterlimit="10"/>
<path opacity="0.3" d="M284.586 164.644L279.17 166.206L279.547 163.701C279.062 163.674 278.577 163.647 278.092 163.647C271.032 163.647 265.292 166.906 265.292 170.919C265.292 174.933 271.032 178.192 278.092 178.192C285.152 178.192 290.892 174.933 290.892 170.919C290.865 168.226 288.359 165.91 284.586 164.644Z" fill="#1890FF"/>
<path opacity="0.3" d="M284.586 163.836L279.17 165.399L279.547 162.894C279.062 162.867 278.577 162.84 278.092 162.84C271.032 162.84 265.292 166.099 265.292 170.112C265.292 174.125 271.032 177.384 278.092 177.384C285.152 177.384 290.892 174.125 290.892 170.112C290.865 167.419 288.359 165.102 284.586 163.836Z" stroke="#3F3D56" stroke-miterlimit="10"/>
<path opacity="0.3" d="M262.275 115.167L256.723 114.09L258.206 112.016C257.801 111.774 257.37 111.531 256.939 111.316C250.633 108.111 244.058 108.434 242.226 112.016C240.421 115.598 244.058 121.093 250.337 124.298C256.643 127.503 263.218 127.18 265.05 123.598C266.263 121.201 265.077 117.995 262.275 115.167Z" fill="#1890FF"/>
<path opacity="0.3" d="M262.652 114.44L257.101 113.363L258.583 111.289C258.179 111.047 257.748 110.804 257.316 110.589C251.011 107.384 244.436 107.707 242.603 111.289C240.798 114.871 244.436 120.366 250.714 123.571C256.993 126.776 263.595 126.453 265.427 122.871C266.64 120.5 265.427 117.268 262.652 114.44Z" stroke="#3F3D56" stroke-miterlimit="10"/>
<path opacity="0.3" d="M274.401 143.448L268.85 142.37L270.332 140.297C269.928 140.054 269.496 139.812 269.065 139.596C262.76 136.391 256.185 136.714 254.352 140.297C252.52 143.879 256.185 149.373 262.463 152.578C268.742 155.783 275.344 155.46 277.176 151.878C278.389 149.481 277.203 146.276 274.401 143.448Z" fill="#1890FF"/>
<path opacity="0.3" d="M274.778 142.721L269.227 141.643L270.709 139.569C270.305 139.327 269.873 139.085 269.442 138.869C263.137 135.664 256.562 135.987 254.729 139.569C252.897 143.152 256.562 148.646 262.84 151.851C269.119 155.056 275.721 154.733 277.553 151.151C278.766 148.781 277.553 145.549 274.778 142.721Z" stroke="#3F3D56" stroke-miterlimit="10"/>
</g>
<path d="M2 209.5H286" stroke="#3F3D56" stroke-miterlimit="10"/>
<path d="M121.827 88.584C121.827 88.584 120.803 74.6594 121.288 72.1007C121.773 69.542 122.231 62.2969 119.564 64.694C116.896 67.0911 117.839 72.4778 117.839 72.4778C117.839 72.4778 115.306 87.2104 117.65 89.2034C119.995 91.1965 121.827 88.584 121.827 88.584Z" fill="#A0616A"/>
<path d="M123.767 102.347C123.767 102.347 115.791 95.2368 116.222 89.2037C116.222 89.2037 120.965 85.5407 122.042 87.4799C123.12 89.4191 130.962 96.9874 129.615 99.5461C128.294 102.132 123.767 102.347 123.767 102.347Z" fill="#1890FF"/>
<path d="M152.008 89.6347C152.008 89.6347 156.75 76.4912 156.966 73.9056C157.182 71.3199 158.691 64.2095 160.631 67.2261C162.571 70.2426 160.2 75.1984 160.2 75.1984C160.2 75.1984 158.691 90.0656 155.888 91.3584C153.086 92.6512 152.008 89.6347 152.008 89.6347Z" fill="#A0616A"/>
<path d="M139.073 155.594H151.792L152.439 162.058L149.421 162.705C149.421 162.705 142.307 160.55 138.211 161.196C134.115 161.843 139.073 155.594 139.073 155.594Z" fill="#A0616A"/>
<path d="M147.48 154.732C147.48 154.732 153.517 150.638 154.594 154.086C155.672 157.533 159.553 170.031 158.259 171.323C156.966 172.616 155.457 170.246 155.457 170.246C155.457 170.246 152.87 164.859 150.93 164.644C148.989 164.428 147.912 162.705 147.912 162.705C147.912 162.705 153.517 158.395 147.48 154.732Z" fill="#2F2E41"/>
<path d="M135.839 188.13C135.839 188.13 138.211 197.826 137.78 199.334C137.348 200.843 144.678 199.981 144.678 199.981L145.109 197.18C145.109 197.18 140.798 190.285 140.798 187.268C140.798 184.252 135.839 188.13 135.839 188.13Z" fill="#A0616A"/>
<path d="M144.678 195.24C144.678 195.24 150.499 199.55 147.481 201.704C144.463 203.859 133.253 209.461 133.253 209.461C133.253 209.461 129.157 210.107 132.175 206.445C135.193 202.782 136.055 202.135 136.271 200.196C136.459 198.903 136.918 197.664 137.591 196.56C137.591 196.56 140.582 202.566 144.678 195.24Z" fill="#2F2E41"/>
<path d="M127.001 143.502C127.001 143.502 124.629 165.91 128.294 173.021C131.959 180.131 136.27 189.827 136.055 190.258C135.839 190.689 142.307 189.612 142.307 187.672C142.307 185.733 135.193 166.341 135.193 166.341C135.193 166.341 138.211 141.131 140.582 139.408C142.953 137.684 127.001 143.502 127.001 143.502Z" fill="#2F2E41"/>
<path opacity="0.1" d="M127.001 143.502C127.001 143.502 124.629 165.91 128.294 173.021C131.959 180.131 136.27 189.827 136.055 190.258C135.839 190.689 142.307 189.612 142.307 187.672C142.307 185.733 135.193 166.341 135.193 166.341C135.193 166.341 138.211 141.131 140.582 139.408C142.953 137.684 127.001 143.502 127.001 143.502Z" fill="black"/>
<path d="M131.878 80.2617C130.342 80.5311 128.806 81.3929 128.052 82.8204C127.324 84.1671 127.297 85.9716 126.166 86.9412C125.492 87.5068 124.576 87.6415 123.794 88.0994C122.689 88.7996 122.07 90.0386 122.124 91.3314C122.177 92.5164 122.824 93.6207 122.797 94.8058C122.77 96.341 121.719 97.6338 120.695 98.765L124.037 99.3845C124.549 99.5191 125.061 99.5461 125.573 99.4383C126.139 99.2767 126.624 98.7919 127.19 98.6573C128.025 98.4418 128.86 98.9535 129.588 99.4114C131.717 100.704 133.98 101.674 136.271 102.616C136.944 102.913 137.699 103.182 138.346 102.886C138.885 102.643 139.208 102.051 139.72 101.755C140.609 101.189 141.741 101.62 142.738 101.889C145.028 102.509 147.427 102.293 149.582 101.297C149.124 100.758 148.505 100.381 148.02 99.8693C147.534 99.3575 147.13 98.6573 147.238 97.9301C147.373 97.2029 147.993 96.7181 148.424 96.1255C149.07 95.1828 149.286 94.0247 149.07 92.9204C148.855 91.8162 148.316 90.8196 147.534 90.0116C147.076 89.6076 146.672 89.1498 146.268 88.6919C145.486 87.6415 145.298 86.214 145.028 84.8943C144.786 83.5745 144.382 82.174 143.358 81.366C141.741 80.0732 139.1 80.5311 137.187 80.3964C135.435 80.2887 133.684 80.2617 131.878 80.2617Z" fill="#2F2E41"/>
<path d="M121.18 128.203L125.276 138.33C125.276 138.33 106.521 158.8 117.084 161.601C127.648 164.402 131.312 159.446 137.995 163.324C137.995 163.324 141.229 158.369 140.798 155.352C140.798 155.352 131.528 153.628 126.57 153.844C126.57 153.844 139.936 142.209 141.229 141.778C142.522 141.347 146.834 134.452 140.151 128.85C133.468 123.248 135.193 120.231 135.193 120.231L121.18 128.203Z" fill="#2F2E41"/>
<path d="M130.882 93.082C130.882 93.082 131.528 99.7615 128.726 100.623C125.923 101.485 139.72 101.27 139.72 101.27C139.72 101.27 136.486 99.3306 137.996 95.2367C139.505 91.1428 130.882 93.082 130.882 93.082Z" fill="#A0616A"/>
<path opacity="0.1" d="M130.882 93.082C130.882 93.082 131.528 99.7615 128.726 100.623C125.923 101.485 139.72 101.27 139.72 101.27C139.72 101.27 136.486 99.3306 137.996 95.2367C139.505 91.1428 130.882 93.082 130.882 93.082Z" fill="black"/>
<path d="M145.541 104.717C145.541 104.717 144.247 98.0378 141.66 98.4687C139.073 98.8997 133.9 99.3306 133.253 99.7615C132.606 100.192 129.157 101.081 129.157 101.081C129.157 101.081 130.45 99.5461 129.157 99.3306C127.863 99.1151 123.768 100.192 123.336 101.054C122.905 101.916 121.181 103.64 121.181 106.656C121.181 109.673 119.887 114.844 120.318 116.999C120.75 119.154 120.103 124.109 118.809 126.91C117.516 129.711 118.594 132.513 120.75 129.711C122.905 126.91 121.827 129.711 123.552 129.927C125.277 130.142 133.037 122.17 135.193 124.109C137.349 126.049 139.505 127.341 139.936 126.264C140.367 125.187 138.211 123.247 138.211 122.386C138.211 121.524 134.762 125.187 138.427 117.645C142.091 110.104 138.642 107.949 145.541 104.717Z" fill="#1890FF"/>
<path d="M143.816 104.287L145.541 104.717C145.541 104.717 151.792 100.193 153.517 96.9606C155.241 93.7286 156.535 91.143 156.535 91.143C156.535 91.143 153.732 87.6955 152.008 88.9883C150.283 90.2811 142.522 99.1153 142.522 99.1153L143.816 104.287Z" fill="#1890FF"/>
<path d="M135.84 97.6065C139.53 97.6065 142.522 94.616 142.522 90.9271C142.522 87.2381 139.53 84.2476 135.84 84.2476C132.149 84.2476 129.157 87.2381 129.157 90.9271C129.157 94.616 132.149 97.6065 135.84 97.6065Z" fill="#A0616A"/>
<path d="M129.938 88.9879C131.07 88.0453 132.552 87.5605 134.007 87.6413C136.567 87.8029 138.831 89.6343 141.39 89.6882C141.283 89.1226 141.364 88.557 141.606 88.0453C141.795 87.6413 142.118 87.2373 142.064 86.7794C141.983 86.4293 141.795 86.1061 141.498 85.8637C140.016 84.4631 137.968 83.7359 135.92 83.6551C134.546 83.6013 131.932 83.6282 130.881 84.6517C129.992 85.5674 130.1 87.8567 129.938 88.9879Z" fill="#2F2E41"/>
<path d="M113.366 52.2241C112.827 52.3049 112.369 52.3857 111.911 52.6011V52.5203L106.467 44.4672C106.467 44.4672 106.467 44.4672 106.387 44.3864C107.734 42.932 107.734 40.6696 106.306 39.2152C104.851 37.8685 102.587 37.8685 101.132 39.296C100.97 39.4576 100.863 39.6731 100.674 39.8347C100.674 39.8347 100.593 39.8347 100.593 39.7539L80.7331 32.5088V32.2394C80.7331 30.2194 79.0894 28.6304 77.1223 28.6304C75.1012 28.6304 73.5114 30.2733 73.5114 32.2394C73.5114 34.2056 75.1551 35.8485 77.1223 35.8485L78.9277 43.6592C73.4844 44.6558 69.9544 49.9078 70.9514 55.2675C71.4903 57.9878 73.0533 60.331 75.3976 61.8124L67.3675 74.1479C65.4812 73.5284 63.3793 74.5249 62.7595 76.3295C62.1397 78.134 63.1368 80.3156 64.9422 80.9351C66.8285 81.5546 68.9304 80.558 69.5502 78.7535C69.7118 78.2956 69.8196 77.9455 69.8196 77.4876C69.8196 76.5719 69.4424 75.7639 68.9034 75.1444L76.9606 62.6473C79.9517 63.8324 83.2931 63.563 86.0147 61.8393L91.1886 68.4649C90.1107 70.1887 90.6496 72.3703 92.3742 73.4476C94.0988 74.5249 96.2815 73.9863 97.3594 72.2625C97.8983 71.3468 98.087 70.1617 97.7367 69.1652H97.8175L109.512 62.9974C109.593 62.9974 109.593 62.9166 109.674 62.9166C111.048 64.371 113.501 65.1521 115.576 64.8558C115.576 64.2364 114.875 63.6169 114.74 62.9974C114.578 63.0244 114.39 63.0244 114.228 63.0244C111.668 63.0244 109.701 61.0044 109.701 58.4995C109.701 55.9678 111.722 53.9747 114.228 53.9747C114.525 53.9747 114.794 54.0017 115.09 54.0555C115.144 53.3283 115.252 52.8974 115.198 52.1971C114.632 52.0355 113.366 52.2241 113.366 52.2241ZM66.1818 79.3191C65.1848 79.3191 64.3763 78.5111 64.3763 77.5145C64.3763 76.518 65.1848 75.71 66.1818 75.71C67.1788 75.71 67.9872 76.518 67.9872 77.5145C68.0142 78.5111 67.1788 79.3191 66.1818 79.3191ZM103.638 40.0771C104.635 40.0771 105.443 40.8851 105.443 41.8816C105.443 42.8782 104.635 43.6862 103.638 43.6862C102.641 43.6862 101.833 42.8782 101.833 41.8816C101.833 40.8581 102.668 40.0771 103.638 40.0771ZM77.0684 33.9901C76.0713 33.9901 75.2629 33.1821 75.2629 32.1856C75.2629 31.189 76.0713 30.381 77.0684 30.381C78.0654 30.381 78.8738 31.189 78.8738 32.1856C78.8738 33.1552 78.0923 33.9901 77.0684 33.9901ZM78.6313 35.4984C79.2511 35.2291 79.8169 34.7712 80.1942 34.2325L100.054 41.5854H100.135V41.9624C100.135 42.124 100.135 42.3395 100.216 42.5011L89.437 48.5072C87.7124 45.3291 84.371 43.336 80.7062 43.336L78.9007 35.4176L78.6313 35.4984ZM80.7062 61.4622C76.1791 61.4622 72.5413 57.8531 72.5413 53.3014C72.5413 48.7496 76.1522 45.1406 80.7062 45.1406C85.2333 45.1406 88.8711 48.7496 88.8711 53.3014C88.8711 57.8531 85.2333 61.4622 80.7062 61.4622ZM94.3144 72.074C93.3174 72.074 92.509 71.266 92.509 70.2695C92.509 69.2729 93.3174 68.4649 94.3144 68.4649C95.3114 68.4649 96.1198 69.2729 96.1198 70.2695C96.1198 71.2391 95.3114 72.074 94.3144 72.074ZM96.9283 67.4414C96.8474 67.4414 96.8474 67.5223 96.7666 67.6031C95.5809 66.5257 93.8563 66.2564 92.482 67.1452L87.4968 60.7081C88.952 59.3614 89.949 57.7185 90.4071 55.8062L107.923 58.5265C107.923 59.4422 108.192 60.4118 108.542 61.2468L96.9283 67.4414ZM108.192 56.7219L90.6766 53.9209V53.3014C90.6766 52.2241 90.5149 51.1198 90.1376 50.1233L100.836 44.0363C101.752 45.2214 103.396 45.76 104.824 45.2214C104.824 45.3022 104.824 45.3022 104.905 45.3022L110.348 53.463C109.351 54.2979 108.569 55.4561 108.192 56.7219Z" fill="#1890FF"/>
<path d="M200.377 7.3797C199.192 6.9757 197.871 7.6221 197.494 8.75331C197.386 9.04957 197.332 9.26504 197.332 9.53438C197.332 10.1 197.575 10.6117 197.898 11.0157L192.832 18.8533C190.973 18.1261 188.871 18.2877 187.146 19.3651L183.913 15.2173C184.586 14.14 184.263 12.7664 183.185 12.0931C182.107 11.4197 180.733 11.7429 180.059 12.8203C179.709 13.3859 179.601 14.14 179.817 14.7325H179.763L172.433 18.584C172.379 18.584 172.379 18.6379 172.325 18.6379C171.49 17.7491 170.358 17.3181 169.227 17.3989V18.6109C169.307 18.6109 169.415 18.584 169.496 18.584C171.086 18.584 172.325 19.8499 172.325 21.412C172.325 23.0011 171.059 24.24 169.496 24.24C169.523 24.3208 169.523 24.4016 169.496 24.4824C169.469 24.671 169.469 24.8326 169.469 25.0211C169.496 25.048 169.496 25.048 169.523 25.075L169.55 25.1019C169.604 25.1288 169.631 25.1558 169.685 25.1827C169.766 25.2366 169.873 25.2904 169.981 25.3443C170.008 25.3443 170.035 25.3443 170.062 25.3712V25.3443C170.412 25.2904 170.682 25.2366 170.978 25.1019V25.1558L174.4 30.2193C174.4 30.2193 174.4 30.2193 174.454 30.2731C173.619 31.1889 173.619 32.6163 174.508 33.5051C175.424 34.3401 176.853 34.3401 177.742 33.4513C177.85 33.3435 177.903 33.2089 178.038 33.1011C178.038 33.1011 178.092 33.1011 178.092 33.155L190.542 37.7068V37.8684C190.542 39.1342 191.566 40.1308 192.805 40.1308C194.072 40.1308 195.069 39.1073 195.069 37.8684C195.069 36.6294 194.045 35.6059 192.805 35.6059L191.673 30.7041C195.096 30.0846 197.305 26.7987 196.685 23.432C196.335 21.7352 195.365 20.2539 193.91 19.3381L198.868 11.6082C200.054 12.0123 201.374 11.3658 201.752 10.2346C202.156 9.15731 201.536 7.7837 200.377 7.3797ZM181.972 12.9549C182.592 12.9549 183.104 13.4667 183.104 14.0861C183.104 14.7056 182.592 15.2173 181.972 15.2173C181.353 15.2173 180.841 14.7056 180.841 14.0861C180.841 13.4936 181.326 12.9549 181.972 12.9549ZM180.302 15.8637C180.356 15.8637 180.356 15.8099 180.41 15.756C181.137 16.4293 182.215 16.5909 183.077 16.0523L186.203 20.0654C185.287 20.9003 184.667 21.9238 184.398 23.1358L173.43 21.439C173.43 20.8734 173.269 20.2539 173.026 19.7421L180.302 15.8637ZM176.098 33.0203C175.478 33.0203 174.966 32.5086 174.966 31.8891C174.966 31.2697 175.478 30.7579 176.098 30.7579C176.718 30.7579 177.23 31.2697 177.23 31.8891C177.23 32.5086 176.745 33.0203 176.098 33.0203ZM177.877 30.5155C177.311 29.7883 176.287 29.4382 175.37 29.7883C175.37 29.7345 175.37 29.7345 175.317 29.7345L171.894 24.6171C172.514 24.1054 173.026 23.3512 173.269 22.5702L184.236 24.3208V24.7248C184.236 25.3982 184.344 26.0984 184.586 26.7179L177.877 30.5155ZM192.778 36.8449C193.398 36.8449 193.91 37.3566 193.91 37.9761C193.91 38.5956 193.398 39.1073 192.778 39.1073C192.158 39.1073 191.646 38.5956 191.646 37.9761C191.619 37.3297 192.131 36.8449 192.778 36.8449ZM191.808 35.8753C191.404 36.0369 191.081 36.3332 190.838 36.6564L178.389 32.0507H178.335V31.8353C178.335 31.7275 178.335 31.5929 178.281 31.4851L185.044 27.7414C186.122 29.7345 188.224 30.9734 190.515 30.9734L191.646 35.9291L191.808 35.8753ZM195.608 24.7248C195.608 27.5528 193.344 29.8422 190.488 29.8422C187.631 29.8422 185.368 27.5528 185.368 24.7248C185.368 21.8968 187.631 19.6075 190.488 19.6075C193.344 19.6075 195.608 21.8699 195.608 24.7248ZM199.596 10.6925C198.976 10.6925 198.464 10.1808 198.464 9.56131C198.464 8.94184 198.976 8.4301 199.596 8.4301C200.216 8.4301 200.728 8.94184 200.728 9.56131C200.728 10.2077 200.216 10.6925 199.596 10.6925Z" fill="#1890FF"/>
<path d="M148.101 48.2647C148.37 48.5341 148.828 48.5341 149.098 48.2647C149.367 47.9954 149.367 47.5645 149.098 47.2951C145.514 43.6861 145.514 37.8684 149.098 34.2863C149.367 34.017 149.367 33.5591 149.098 33.2898C148.828 33.0204 148.37 33.0204 148.101 33.2898C144.49 36.8719 138.669 36.8719 135.085 33.2898C134.816 33.0204 134.358 33.0204 134.088 33.2898C133.819 33.5591 133.819 33.99 134.088 34.2863C137.672 37.8954 137.672 43.713 134.088 47.2951C133.819 47.5645 133.819 48.0223 134.088 48.2917C134.358 48.561 134.816 48.561 135.085 48.2917C138.669 44.6826 144.517 44.6826 148.101 48.2647ZM137.268 45.0866C138.481 42.3394 138.481 39.1882 137.268 36.441C140.017 37.653 143.169 37.653 145.918 36.441C144.705 39.1882 144.705 42.3394 145.918 45.0866C143.169 43.8746 140.017 43.8746 137.268 45.0866ZM134.816 58.5264C134.816 56.1562 134.034 53.84 132.606 51.9277C138.238 48.9381 144.975 48.9381 150.607 51.9277C146.942 56.7757 147.912 63.6976 152.762 67.3605C157.613 71.0235 164.538 70.0539 168.203 65.2059C171.868 60.3579 170.898 53.436 166.047 49.773C162.113 46.8103 156.697 46.8103 152.789 49.773C149.798 44.1439 149.798 37.4106 152.789 31.7815C157.64 35.4444 164.565 34.4748 168.23 29.6268C171.895 24.7788 170.925 17.8569 166.074 14.194C161.224 10.531 154.298 11.5006 150.634 16.3486C147.67 20.2809 147.67 25.6945 150.634 29.5999C145.002 32.5895 138.265 32.5895 132.633 29.5999C136.298 24.7519 135.328 17.83 130.477 14.167C125.627 10.5041 118.702 11.4737 115.037 16.3217C111.372 21.1697 112.342 28.0916 117.193 31.7546C121.127 34.7172 126.543 34.7172 130.45 31.7546C133.442 37.3836 133.442 44.117 130.45 49.7461C125.6 46.1101 118.729 47.1066 115.091 51.9277C111.453 56.7757 112.45 63.6437 117.273 67.2798C122.124 70.9158 128.995 69.9192 132.633 65.0981C134.061 63.2128 134.816 60.8965 134.816 58.5264ZM159.338 48.9381C164.646 48.9111 168.958 53.1936 168.985 58.4995C169.011 63.8053 164.7 68.1416 159.418 68.1416C154.11 68.1686 149.798 63.8861 149.771 58.5802C149.771 56.4256 150.472 54.3248 151.819 52.628C153.005 53.3821 154.137 54.2709 155.134 55.2674L157.128 57.2605C156.67 58.0416 156.67 58.9843 157.128 59.7384L154.11 62.7549C153.84 63.0243 153.84 63.4821 154.11 63.7515C154.379 64.0208 154.837 64.0208 155.107 63.7515L158.098 60.7619C158.475 60.9773 158.906 61.0851 159.338 61.0851C160.766 61.0851 161.897 59.9269 161.897 58.5264C161.897 58.0955 161.79 57.6645 161.574 57.2874L164.565 54.2978C164.835 54.0285 164.835 53.5706 164.565 53.3013C164.296 53.032 163.838 53.032 163.568 53.3013L160.577 56.2909C159.796 55.833 158.852 55.833 158.098 56.2909L156.104 54.2978C155.107 53.3013 154.218 52.197 153.463 50.985C155.134 49.6653 157.209 48.9381 159.338 48.9381ZM158.529 59.3344C158.071 58.8765 158.071 58.1224 158.529 57.6645C158.987 57.2066 159.715 57.2066 160.173 57.6645C160.631 58.1224 160.631 58.8496 160.173 59.3075C159.715 59.7923 158.987 59.7923 158.529 59.3344ZM149.771 23.0281C149.744 17.7222 154.029 13.4129 159.338 13.386C164.646 13.359 168.958 17.6414 168.985 22.9473C169.011 28.2532 164.727 32.5626 159.418 32.5895C157.263 32.5895 155.161 31.8892 153.463 30.5425C154.218 29.3575 155.107 28.2263 156.104 27.2297L158.098 25.2367C158.879 25.6945 159.823 25.6945 160.577 25.2367L163.568 28.2263C163.838 28.4956 164.296 28.4956 164.565 28.2263C164.835 27.9569 164.835 27.4991 164.565 27.2297L161.574 24.2401C161.79 23.8631 161.897 23.4321 161.897 23.0012C161.897 21.5737 160.739 20.4425 159.338 20.4425C158.906 20.4425 158.475 20.5502 158.098 20.7657L155.107 17.7761C154.837 17.5068 154.379 17.5068 154.11 17.7761C153.84 18.0454 153.84 18.5033 154.11 18.7726L157.101 21.7892C156.643 22.5703 156.643 23.5129 157.101 24.2671L155.107 26.2601C154.11 27.2567 153.005 28.1455 151.792 28.8996C150.472 27.2297 149.771 25.1559 149.771 23.0281ZM159.338 21.87C159.984 21.87 160.496 22.3817 160.496 23.0281C160.496 23.3244 160.362 23.6207 160.146 23.8631C159.688 24.3209 158.96 24.3209 158.502 23.8631C158.044 23.4052 158.044 22.678 158.502 22.2201C158.745 21.9777 159.041 21.87 159.338 21.87ZM123.848 32.6164C118.54 32.6434 114.228 28.3609 114.201 23.0551C114.174 17.7492 118.459 13.4398 123.768 13.4129C129.076 13.386 133.388 17.6684 133.415 22.9743C133.415 25.1289 132.714 27.2297 131.367 28.9265C130.181 28.1724 129.049 27.2836 128.052 26.2871L126.058 24.294C126.516 23.5129 126.516 22.5703 126.058 21.8161L129.076 18.7996C129.346 18.5302 129.346 18.0724 129.076 17.803C128.807 17.5337 128.349 17.5337 128.079 17.803L125.088 20.7926C124.711 20.5772 124.28 20.4694 123.848 20.4694C122.42 20.4694 121.288 21.6276 121.288 23.0281C121.288 23.4591 121.396 23.89 121.612 24.2671L118.621 27.2567C118.351 27.526 118.351 27.9839 118.621 28.2532C118.89 28.5225 119.348 28.5225 119.618 28.2532L122.609 25.2636C123.39 25.7215 124.333 25.7215 125.088 25.2636L127.082 27.2567C128.079 28.2532 128.968 29.3575 129.723 30.5695C128.052 31.8892 125.977 32.6164 123.848 32.6164ZM124.657 22.1932C125.115 22.6511 125.115 23.4052 124.657 23.8631C124.199 24.3209 123.471 24.3209 123.013 23.8631C122.555 23.4052 122.555 22.678 123.013 22.2201C123.471 21.7622 124.199 21.7622 124.657 22.1932ZM134.061 40.7772C134.061 37.3028 133.172 33.9092 131.501 30.8657C131.555 30.8119 131.609 30.758 131.663 30.7041C137.834 34.0978 145.325 34.0978 151.496 30.7041C151.55 30.758 151.604 30.8119 151.658 30.8657C148.262 37.0335 148.262 44.521 151.658 50.6888C151.604 50.7426 151.55 50.7965 151.496 50.8504C145.325 47.4567 137.834 47.4567 131.663 50.8504C131.609 50.7965 131.555 50.7426 131.501 50.6888C133.199 47.6453 134.061 44.2517 134.061 40.7772ZM114.255 58.5264C114.255 53.2474 118.513 48.965 123.795 48.965C125.95 48.965 128.025 49.6653 129.696 51.012C128.941 52.197 128.052 53.3282 127.055 54.3248L125.061 56.3178C124.28 55.86 123.336 55.86 122.582 56.3178L119.591 53.3282C119.321 53.0589 118.863 53.0589 118.594 53.3282C118.324 53.5976 118.324 54.0554 118.594 54.3248L121.585 57.3144C121.369 57.6914 121.262 58.1224 121.262 58.5533C121.262 59.9808 122.42 61.112 123.821 61.112C124.253 61.112 124.684 61.0043 125.061 60.7888L128.052 63.7784C128.322 64.0477 128.78 64.0477 129.049 63.7784C129.319 63.5091 129.319 63.0512 129.049 62.7819L126.058 59.7923C126.516 59.0112 126.516 58.0685 126.058 57.3144L128.052 55.3213C129.049 54.3248 130.154 53.436 131.367 52.6818C134.627 56.8565 133.873 62.8627 129.696 66.1216C125.519 69.3806 119.51 68.6264 116.249 64.4517C114.983 62.728 114.255 60.6541 114.255 58.5264ZM124.657 57.6914C125.115 58.1493 125.115 58.8765 124.657 59.3344C124.199 59.7923 123.471 59.7923 123.013 59.3344C122.555 58.8765 122.555 58.1493 123.013 57.6914C123.471 57.2336 124.199 57.2336 124.657 57.6914ZM166.047 22.3279C166.425 22.3279 166.748 22.6511 166.748 23.0281C166.748 23.9977 166.559 24.9404 166.209 25.8292C166.074 26.1793 165.643 26.3679 165.293 26.2063C164.942 26.0716 164.754 25.6407 164.916 25.2905C165.212 24.5633 165.347 23.8092 165.347 23.0281C165.347 22.6511 165.67 22.3279 166.047 22.3279ZM152.628 23.7284C152.25 23.7284 151.927 23.4052 151.927 23.0281C151.927 21.9777 152.143 20.9542 152.574 20.0116C152.736 19.6614 153.14 19.4998 153.49 19.6614C153.84 19.823 154.002 20.227 153.84 20.5772C153.49 21.3582 153.328 22.1932 153.328 23.0281C153.328 23.4321 153.005 23.7284 152.628 23.7284ZM157.074 64.1016C157.802 64.3979 158.556 64.5325 159.338 64.5325C159.715 64.5325 160.038 64.8557 160.038 65.2328C160.038 65.6099 159.715 65.9331 159.338 65.9331C158.367 65.9331 157.424 65.7445 156.535 65.3944C156.185 65.2597 155.996 64.8288 156.158 64.4787C156.293 64.1285 156.724 63.94 157.074 64.1016ZM161.79 53.032C161.008 52.6818 160.173 52.5202 159.338 52.5202C158.96 52.5202 158.637 52.197 158.637 51.82C158.637 51.4429 158.96 51.1197 159.338 51.1197C160.388 51.1197 161.412 51.3352 162.356 51.7661C162.706 51.9277 162.868 52.3317 162.706 52.6818C162.571 53.032 162.14 53.1936 161.79 53.032ZM121.558 28.6033C122.286 28.8996 123.04 29.0343 123.821 29.0343C124.199 29.0343 124.522 29.3575 124.522 29.7345C124.522 30.1116 124.199 30.4348 123.821 30.4348C122.851 30.4348 121.908 30.2463 121.019 29.8961C120.669 29.7615 120.48 29.3305 120.642 28.9804C120.803 28.6303 121.208 28.4417 121.558 28.6033ZM126.274 17.5337C125.492 17.1836 124.657 17.022 123.821 17.022C123.444 17.022 123.121 16.6988 123.121 16.3217C123.121 15.9446 123.444 15.6214 123.821 15.6214C124.872 15.6214 125.896 15.8369 126.84 16.2678C127.19 16.4294 127.352 16.8334 127.19 17.1836C127.055 17.5337 126.651 17.6953 126.274 17.5337C126.301 17.5337 126.274 17.5337 126.274 17.5337ZM117.112 59.1997C116.734 59.1997 116.411 58.8765 116.411 58.4995C116.411 57.5298 116.6 56.5872 116.95 55.6984C117.085 55.3482 117.516 55.1597 117.866 55.3213C118.217 55.456 118.405 55.8869 118.243 56.237C117.947 56.9642 117.812 57.7184 117.812 58.4995C117.812 58.9035 117.516 59.1997 117.112 59.1997ZM129.696 61.8931C129.346 61.7315 129.184 61.3275 129.346 60.9773C129.696 60.1963 129.858 59.3613 129.858 58.5264C129.858 58.1493 130.181 57.8261 130.558 57.8261C130.935 57.8261 131.259 58.1493 131.259 58.5264C131.259 59.5768 131.043 60.6003 130.612 61.5429C130.45 61.8931 130.046 62.0547 129.696 61.8931ZM144.382 40.7772C144.382 39.242 143.115 37.9762 141.58 37.9762C140.044 37.9762 138.777 39.242 138.777 40.7772C138.777 42.3125 140.044 43.5783 141.58 43.5783C143.142 43.5783 144.382 42.3125 144.382 40.7772ZM140.178 40.7772C140.178 39.9962 140.798 39.3767 141.58 39.3767C142.361 39.3767 142.981 39.9962 142.981 40.7772C142.981 41.5583 142.361 42.1778 141.58 42.1778C140.825 42.1778 140.178 41.5583 140.178 40.7772Z" fill="black"/>
</g>
<defs>
<clipPath id="clip0">
<rect width="291" height="210" fill="white"/>
</clipPath>
</defs>
</svg>
