<svg width="360" height="211" viewBox="0 0 360 211" fill="none" xmlns="http://www.w3.org/2000/svg">
<path d="M322.999 65.1557C322.999 65.1557 319.02 63.5363 306.361 69.3415C293.701 75.1467 292.121 74.4168 288.842 73.5273C285.562 72.6378 283.739 72.4259 280.219 67.5704C280.219 67.5704 277.742 54.1235 275.344 52.0385C272.945 49.9534 262.755 53.2262 262.755 53.2262C262.755 53.2262 250.54 56.0333 248.212 39.693C248.212 39.693 249.863 27.3685 247.613 23.5882C247.613 23.5882 252.154 25.5476 259.648 22.3821C267.142 19.2166 273.144 25.7831 273.144 25.7831C273.144 25.7831 275.033 30.6831 274.834 33.6027C274.635 36.5223 275.835 37.621 279.409 36.2188C279.409 36.2188 281.165 33.7178 278.678 29.5843C276.19 25.4508 274.416 22.3717 275.111 19.1591C275.806 15.9465 277.8 11.4991 284.212 9.27275C290.624 7.04643 299.332 6.61738 303.513 4.87505C307.693 3.13271 308.705 1.99731 308.705 1.99731C308.705 1.99731 306.133 4.57681 312.193 15.5174C318.252 26.458 314.39 31.2142 314.39 31.2142C314.39 31.2142 311.166 38.9056 296.934 38.2777C296.934 38.2777 283.219 38.78 290.697 44.6035C290.697 44.6035 295.483 43.6277 302.643 41.349C309.802 39.0704 314.97 48.4727 316.253 55.0156C317.536 61.5586 322.999 65.1557 322.999 65.1557Z" fill="#1890FF"/>
<path d="M304.567 10.2957L304.64 10.2773C305.191 12.3702 299.061 20.7418 293.822 27.4208L293.76 27.3737C301.152 17.9661 304.99 11.902 304.567 10.2957Z" fill="#444053"/>
<path d="M293.869 27.2351L293.9 27.3214C289.719 32.6479 284.449 39.005 280.237 43.7141C279.838 44.164 279.438 44.6349 279.054 45.1163L278.934 45.0195C279.32 44.5355 279.717 44.062 280.122 43.612C284.334 38.9056 289.686 32.5615 293.869 27.2351Z" fill="#444053"/>
<path d="M279.036 44.8914L279.119 45.0352C271.453 54.6181 270.946 69.4986 270.928 69.6268L269.311 67.7589C269.337 67.6281 271.315 54.5422 279.036 44.8914Z" fill="#444053"/>
<path d="M314.109 59.9575C314.109 59.9575 305.068 55.2485 298.024 56.9411C290.98 58.6337 275.117 50.9737 275.117 50.9737C275.117 50.9737 268.384 48.2347 267.017 45.111C267.017 45.111 262.395 40.2215 262.131 37.6865C261.867 35.1514 257.371 28.7916 254.437 28.5483" stroke="#444053" stroke-miterlimit="10"/>
<path d="M312.799 64.4886C312.799 64.4886 308.247 61.4172 308.775 57.8384" stroke="#444053" stroke-miterlimit="10"/>
<path d="M305.815 68.4546C305.815 68.4546 299.306 66.087 298.65 56.8076" stroke="#444053" stroke-miterlimit="10"/>
<path d="M295.309 70.8563C295.309 70.8563 289.088 65.6869 291.152 56.656" stroke="#444053" stroke-miterlimit="10"/>
<path d="M282.686 68.3291C282.686 68.3291 278.54 59.6305 282.229 53.9692" stroke="#444053" stroke-miterlimit="10"/>
<path d="M314.213 54.2229C314.213 54.2229 309.51 55.7193 310.516 58.1994" stroke="#444053" stroke-miterlimit="10"/>
<path d="M308.53 45.6658C308.53 45.6658 302.23 47.6671 302.081 56.5907" stroke="#444053" stroke-miterlimit="10"/>
<path d="M299.746 43.6069C299.746 43.6069 294.013 50.694 294.431 57.1349" stroke="#444053" stroke-miterlimit="10"/>
<path d="M289.717 46.3853C289.717 46.3853 284.021 51.8373 284.752 54.8694" stroke="#444053" stroke-miterlimit="10"/>
<path d="M286.269 44.4596C286.269 44.4596 280.928 45.4198 280.181 43.6748" stroke="#444053" stroke-miterlimit="10"/>
<path d="M279.328 38.0029C279.328 38.0029 282.027 41.5818 282.725 40.7813" stroke="#444053" stroke-miterlimit="10"/>
<path d="M306.079 35.7402C306.079 35.7402 292.615 36.7186 289.568 32.6558" stroke="#444053" stroke-miterlimit="10"/>
<path d="M276.496 19.9727C276.496 19.9727 282.814 33.5503 287.4 35.2796" stroke="#444053" stroke-miterlimit="10"/>
<path d="M283.123 13.5059C283.123 13.5059 287.003 25.9952 291.811 29.8932" stroke="#444053" stroke-miterlimit="10"/>
<path d="M311.744 25.4247C311.744 25.4247 301.506 29.825 295.358 25.375" stroke="#444053" stroke-width="0.75" stroke-miterlimit="10"/>
<path d="M292.244 10.8425C292.244 10.8425 294.583 20.0251 297.731 22.241" stroke="#444053" stroke-width="0.75" stroke-miterlimit="10"/>
<path d="M310.2 15.1514C310.2 15.1514 304.452 17.3306 302.296 15.6746" stroke="#444053" stroke-width="0.75" stroke-miterlimit="10"/>
<path d="M274.401 41.0037C274.401 41.0037 274.385 49.0064 272.222 49.5741" stroke="#444053" stroke-miterlimit="10"/>
<path d="M256.613 51.3715C256.613 51.3715 265.254 52.1093 269.239 47.6619" stroke="#444053" stroke-miterlimit="10"/>
<path d="M272.17 31.5491C272.17 31.5491 270.08 39.659 264.311 41.8514" stroke="#444053" stroke-miterlimit="10"/>
<path d="M251.429 42.822C251.429 42.822 257.545 44.9515 262.805 39.5283" stroke="#444053" stroke-miterlimit="10"/>
<path d="M265.368 24.5718C265.368 24.5718 264.79 31.4653 261.049 34.6909" stroke="#444053" stroke-miterlimit="10"/>
<path d="M251.661 32.3183C251.661 32.3183 256.738 32.3523 257.932 30.6963" stroke="#444053" stroke-miterlimit="10"/>
<path d="M87.0977 196.276C87.0977 196.276 90.5754 193.979 94.0217 195.614C94.0217 195.614 92.9609 197.66 88.5974 197.466L87.0977 196.276Z" fill="#1890FF"/>
<path d="M86.6723 196.399C86.6723 196.399 85.6141 200.443 88.2662 203.177C88.2662 203.177 89.8626 201.513 88.2792 197.44L86.6723 196.399Z" fill="#1890FF"/>
<path d="M82.335 192.527C82.335 192.527 82.5962 189.095 90.3303 190.233C90.3303 190.233 90.3669 192.446 87.6495 193.495C84.9321 194.544 83.691 193.66 82.335 192.527Z" fill="#1890FF"/>
<path d="M81.8592 192.503C81.8592 192.503 78.5879 193.55 81.5038 200.82C81.5038 200.82 83.662 200.339 84.0435 197.448C84.425 194.557 83.2779 193.555 81.8592 192.503Z" fill="#1890FF"/>
<path d="M77.4771 187.624C77.4771 187.624 77.0355 181.979 84.942 182.56C84.942 182.56 85.5038 187.669 78.875 188.982L77.4771 187.624Z" fill="#1890FF"/>
<path d="M72.2549 181.262C72.2549 181.262 73.3366 174.865 81.2405 176.773C81.2405 176.773 81.2718 182.303 73.543 182.79L72.2549 181.262Z" fill="#1890FF"/>
<path d="M68.4346 174.674C68.4346 174.674 70.2636 168.427 78.0812 170.308C78.0812 170.308 76.2183 175.912 68.9545 175.826L68.4346 174.674Z" fill="#1890FF"/>
<path d="M64.8086 168.239C64.8086 168.239 66.5827 161.772 74.1417 163.713C74.1417 163.713 71.6177 169.858 65.305 169.34L64.8086 168.239Z" fill="#1890FF"/>
<path d="M62.4688 162.125C62.4688 162.125 63.8327 154.216 70.8821 155.966C70.8821 155.966 68.8337 163.161 62.9887 163.276L62.4688 162.125Z" fill="#1890FF"/>
<path d="M60.2773 154.74C60.2773 154.74 61.9156 146.768 69.0409 149.086C69.0409 149.086 66.2425 156.621 60.7738 155.841L60.2773 154.74Z" fill="#1890FF"/>
<path d="M58.9209 147.859C58.9209 147.859 61.5181 139.885 67.0338 140.103C67.0338 140.103 64.3765 148.524 59.3808 149.458L58.9209 147.859Z" fill="#1890FF"/>
<path d="M58.0586 141.159C58.0586 141.159 60.8857 131.561 65.3746 132.304C65.3746 132.304 63.4176 139.629 58.218 142.656L58.0586 141.159Z" fill="#1890FF"/>
<path d="M57.5674 133.149C57.5674 133.149 60.2194 125.151 64.6508 124.837C64.6508 124.837 62.8454 132.707 57.6667 135.231L57.5674 133.149Z" fill="#1890FF"/>
<path d="M57.0322 125.69C57.0322 125.69 60.3401 117.682 63.2665 117.502C63.2665 117.502 61.832 125.387 57.3249 127.004L57.0322 125.69Z" fill="#1890FF"/>
<path d="M56.6641 118.744C56.6641 118.744 58.6969 110.048 61.6285 109.326C61.6285 109.326 61.2287 116.437 56.9645 119.393L56.6641 118.744Z" fill="#1890FF"/>
<path d="M55.5664 109.664C55.5664 109.664 57.7037 102.734 60.071 101.677C60.071 101.677 59.6033 109.847 56.1151 111.357L55.5664 109.664Z" fill="#1890FF"/>
<path d="M54.6489 103.683L54.2178 91.4634C54.2178 91.4634 58.6387 100.688 54.9755 105.839L54.6489 103.683Z" fill="#1890FF"/>
<path d="M51.2316 91.5394C51.2316 91.5394 48.0439 82.6158 47.2783 82.1213C47.2783 82.1213 53.5309 87.9108 52.9195 95.3589L51.2316 91.5394Z" fill="#1890FF"/>
<path d="M77.2639 187.596C77.2639 187.596 71.6568 186.86 71.824 194.795C71.824 194.795 76.8929 195.622 78.5469 189.061L77.2639 187.596Z" fill="#1890FF"/>
<path d="M71.9885 181.05C71.9885 181.05 65.5086 181.026 66.0364 189.16C66.0364 189.16 71.4738 190.133 73.2688 182.593L71.9885 181.05Z" fill="#1890FF"/>
<path d="M68.3713 175.2C68.3713 175.2 62.4897 172.451 58.7246 179.567C58.7246 179.567 64.1594 181.866 68.8912 176.351L68.3713 175.2Z" fill="#1890FF"/>
<path d="M64.6776 168.299C64.6776 168.299 58.655 165.358 55.1172 172.325C55.1172 172.325 61.388 174.486 65.1741 169.4L64.6776 168.299Z" fill="#1890FF"/>
<path d="M62.5457 162.298C62.5457 162.298 56.7504 156.751 52.123 162.36C52.123 162.36 58.0464 166.923 62.8122 163.532L62.5457 162.298Z" fill="#1890FF"/>
<path d="M60.6063 154.551C60.6063 154.551 54.7744 148.88 50.1836 154.813C50.1836 154.813 56.7314 159.465 60.8127 155.742L60.6063 154.551Z" fill="#1890FF"/>
<path d="M59.5247 147.639C59.5247 147.639 55.0332 140.576 49.7422 142.146C49.7422 142.146 54.4035 149.643 59.4751 149.309L59.5247 147.639Z" fill="#1890FF"/>
<path d="M58.1924 141.115C58.1924 141.115 53.6591 132.197 49.3818 133.745C49.3818 133.745 52.6453 140.6 58.3074 142.614L58.1924 141.115Z" fill="#1890FF"/>
<path d="M57.8786 132.686C57.8786 132.686 53.2251 125.664 48.8643 126.522C48.8643 126.522 52.6686 133.641 58.3306 134.716L57.8786 132.686Z" fill="#1890FF"/>
<path d="M57.5234 125.533C57.5234 125.533 53.9176 117.656 50.9912 117.588C50.9912 117.588 52.7235 125.41 57.2882 126.857L57.5234 125.533Z" fill="#1890FF"/>
<path d="M56.8095 118.572C56.8095 118.572 52.7988 110.595 49.7861 110.579C49.7861 110.579 51.8398 117.4 56.6736 119.275L56.8095 118.572Z" fill="#1890FF"/>
<path d="M56.2067 110.145C56.2067 110.145 53.2072 103.542 50.7197 102.794C50.7197 102.794 52.2195 110.841 55.8723 111.895L56.2067 110.145Z" fill="#1890FF"/>
<path d="M54.299 103.453L47.5918 93.2319C47.5918 93.2319 49.3084 103.314 55.271 105.402L54.299 103.453Z" fill="#1890FF"/>
<path d="M49.6922 92.3636C49.6922 92.3636 41.9033 86.9796 41.6211 86.1189C41.6211 86.1189 45.5952 93.6612 52.94 94.9902L49.6922 92.3636Z" fill="#1890FF"/>
<path d="M49.2275 89.941C49.2275 89.941 40.2837 81.334 37.9922 81.3418C37.9922 81.3418 45.3683 81.6793 49.4339 89.4832L49.2275 89.941Z" fill="#1890FF"/>
<path d="M56.1276 111.422L55.8009 111.464C54.1209 98.2916 51.67 90.5087 48.9004 89.5459L49.0101 89.2346C51.947 90.2549 54.3978 97.928 56.1276 111.422Z" fill="#444053"/>
<path d="M58.59 142.915L58.0988 142.957C57.9943 141.727 57.9159 140.469 57.861 139.216C57.3933 128.312 56.6643 118.302 55.708 110.797L55.9928 110.446C56.9517 117.962 57.8845 128.278 58.3444 139.192C58.4097 140.44 58.4802 141.691 58.59 142.915Z" fill="#444053"/>
<path d="M96.2825 202.536C96.1963 202.497 87.5321 198.625 78.536 189.382C73.2687 183.972 68.8902 177.762 65.5632 170.98C61.4061 162.509 58.8716 152.095 58.0225 141.973L58.545 142.214C60.455 164.932 70.7837 180.464 78.9985 188.911C87.9057 198.068 96.4733 201.906 96.5595 201.942L96.2825 202.536Z" fill="#444053"/>
<path d="M299.453 36.865V195.099C299.453 199.808 294.92 203.63 289.32 203.63H74.9015C69.3048 203.63 64.7715 199.802 64.7715 195.099V36.865C64.7715 32.156 69.3048 27.345 74.9015 27.345L289.31 27.8682C294.907 27.8656 299.453 32.1508 299.453 36.865Z" fill="#E8EAF2"/>
<path d="M299.453 36.9121V44.2373H64.7715V36.9121C64.7715 34.3748 65.7782 31.9413 67.5701 30.1471C69.3621 28.3529 71.7925 27.345 74.3267 27.345H289.887C291.143 27.3439 292.387 27.5906 293.547 28.0709C294.707 28.5512 295.762 29.2557 296.65 30.1442C297.538 31.0327 298.243 32.0877 298.724 33.2489C299.205 34.4102 299.453 35.655 299.453 36.9121Z" fill="#65617D"/>
<path opacity="0.8" d="M76.1395 39.1697C78.0039 39.1697 79.5153 37.6564 79.5153 35.7897C79.5153 33.923 78.0039 32.4097 76.1395 32.4097C74.2751 32.4097 72.7637 33.923 72.7637 35.7897C72.7637 37.6564 74.2751 39.1697 76.1395 39.1697Z" fill="#FA5959"/>
<path opacity="0.8" d="M85.9666 39.1697C87.831 39.1697 89.3424 37.6564 89.3424 35.7897C89.3424 33.923 87.831 32.4097 85.9666 32.4097C84.1022 32.4097 82.5908 33.923 82.5908 35.7897C82.5908 37.6564 84.1022 39.1697 85.9666 39.1697Z" fill="#FED253"/>
<path opacity="0.8" d="M95.7909 39.1697C97.6553 39.1697 99.1667 37.6564 99.1667 35.7897C99.1667 33.923 97.6553 32.4097 95.7909 32.4097C93.9264 32.4097 92.415 33.923 92.415 35.7897C92.415 37.6564 93.9264 39.1697 95.7909 39.1697Z" fill="#8CCF4D"/>
<path d="M294.24 200.347L288.536 192.072C288.536 192.072 288.429 190.024 288.056 189.545C287.682 189.066 287.977 187.999 287.977 187.999C287.977 187.999 288.377 187.413 288.03 187.36C287.682 187.308 287.977 186.003 287.977 186.003L287.949 183.925C287.949 183.925 288.27 181.929 288.003 181.451C287.926 181.321 287.887 181.172 287.891 181.022C287.896 180.871 287.944 180.725 288.03 180.6C288.03 180.6 288.348 179.454 288.03 179.161C287.711 178.868 287.789 177.084 287.87 175.674C287.951 174.264 287.311 173.466 287.311 173.252C287.311 173.037 285.205 170.963 285.205 170.777C285.205 170.591 283.872 169.817 283.073 169.605C282.273 169.393 281.874 169.233 281.9 169.126C281.926 169.019 280.648 168.603 280.648 168.603C280.648 168.603 279.527 168.524 279.101 167.964C278.676 167.405 277.372 167.245 277.335 167.24C277.299 167.235 277.317 167.164 277.309 167.127L277.285 167.007C277.385 166.84 277.479 166.664 277.562 166.484L277.638 166.322C278.105 166.323 278.561 166.181 278.945 165.913C279.132 165.755 279.286 165.561 279.395 165.341C279.505 165.122 279.569 164.882 279.582 164.637C279.605 164.145 279.498 163.656 279.271 163.219C279.036 162.737 278.694 162.243 278.811 161.722C278.864 161.497 278.997 161.301 279.073 161.081C279.175 160.652 279.106 160.2 278.882 159.82C278.678 159.433 278.399 159.093 278.174 158.719C277.886 158.238 277.694 157.704 277.609 157.149C277.592 156.857 277.522 156.57 277.403 156.302C277.282 156.113 277.122 155.952 276.935 155.828C276.099 155.229 275.089 154.924 274.061 154.96C273.335 154.983 272.611 155.179 271.89 155.091C271.46 155.016 271.037 154.905 270.625 154.758C269.732 154.497 268.7 154.384 267.921 154.897C267.142 155.41 266.834 156.417 266.306 157.204C265.839 157.903 265.157 158.486 264.801 159.224C264.801 159.211 264.801 159.195 264.801 159.182C264.715 159.354 264.648 159.534 264.603 159.721C264.505 160.31 264.545 160.914 264.72 161.484C264.761 161.791 264.915 162.07 265.151 162.269C265.413 162.437 265.776 162.397 266.084 162.452C266.084 162.502 266.058 162.552 266.048 162.604C265.729 164.104 265.987 165.669 266.77 166.986C267.553 168.304 268.804 169.277 270.273 169.712C270.273 169.767 270.273 169.822 270.273 169.874C270.273 170.027 270.263 170.18 270.244 170.332C270.244 170.332 267.566 169.78 266.847 170.154C266.129 170.528 264.715 170.819 264.496 171.033C264.276 171.248 263.748 171.085 263.267 172.341C262.787 173.597 262.745 174.871 262.123 175.457C261.501 176.043 261.19 176.441 261.164 176.867C261.138 177.294 261.243 177.39 261.002 177.532C260.762 177.673 260.417 178.225 260.524 178.437C260.561 178.584 260.552 178.739 260.5 178.882C260.448 179.025 260.354 179.148 260.231 179.237C260.107 179.325 260.007 179.443 259.941 179.58C259.876 179.718 259.847 179.87 259.858 180.022C259.858 180.022 259.698 180.608 259.335 180.742C258.972 180.875 258.721 181.751 258.721 181.751L257.514 183.143L255.118 180.49C254.938 180.292 254.687 180.173 254.42 180.159C254.152 180.146 253.891 180.238 253.691 180.417L252.516 181.464C252.062 181.574 251.653 181.819 251.34 182.165C251.084 182.428 250.877 182.736 250.728 183.073L250.086 183.653C249.883 183.905 249.759 184.211 249.729 184.534C249.7 184.856 249.767 185.179 249.921 185.464L251.455 187.162V187.177C250.919 187.238 250.413 187.457 250.002 187.808C247.711 189.83 247.682 191.695 248.029 192.546C248.377 193.396 251.28 196.674 251.28 196.674C251.28 196.674 252.968 198.869 255.403 200.038L255.384 200.056C255.337 200.109 255.288 200.164 255.241 200.224L255.202 200.274C255.19 200.292 255.178 200.309 255.165 200.326L255.123 200.389L255.089 200.441L255.042 200.519L255.013 200.569L254.959 200.674C254.959 200.674 254.946 200.695 254.94 200.708C254.935 200.721 254.896 200.802 254.875 200.852C254.867 200.87 254.86 200.888 254.854 200.907C254.838 200.941 254.825 200.977 254.812 201.011L254.789 201.082C254.789 201.116 254.765 201.15 254.755 201.184L254.731 201.26L254.7 201.378C254.7 201.401 254.687 201.425 254.679 201.448C254.671 201.472 254.65 201.574 254.637 201.639C254.634 201.665 254.63 201.69 254.624 201.715L254.601 201.854C254.601 201.885 254.601 201.916 254.588 201.95L254.572 202.081C254.572 202.115 254.572 202.149 254.572 202.183C254.572 202.217 254.572 202.283 254.572 202.335V202.429C254.572 202.513 254.572 202.597 254.572 202.691C254.517 205.807 254.7 206.259 254.7 206.259C254.818 206.547 255.012 206.798 255.26 206.985C255.509 207.172 255.804 207.288 256.113 207.321C256.266 207.333 256.42 207.325 256.571 207.298C257.956 207.057 261.206 206.497 262.353 206.712C263.043 206.84 264.318 206.649 265.227 206.479L265.468 206.432L265.635 206.955L266.157 206.811L266.607 207.073C266.724 207.143 266.821 207.198 266.889 207.235C267.411 209.022 269.549 208.412 269.549 208.412L270.056 208.705L275.198 208.839C275.778 209.189 276.39 209.481 277.027 209.713C277.112 209.739 277.2 209.758 277.288 209.77C277.765 209.807 278.244 209.816 278.723 209.796C279.117 209.796 279.42 209.77 279.42 209.77C279.42 209.77 279.368 208.37 279.295 206.806C280.889 206.767 282.479 206.637 284.058 206.416C286.804 205.932 287.951 203.431 288.372 202.094C288.496 202.641 288.583 203.195 288.633 203.753C288.746 204.241 288.888 204.721 289.059 205.192C289.21 205.57 289.407 205.928 289.647 206.257C291.672 205.563 290.446 204.525 290.021 204.072C289.595 203.62 290.313 203.248 290.313 203.248C290.313 203.248 290.872 202.874 290.82 202.529C290.768 202.183 290.739 201.809 292.552 201.838C294.366 201.867 294.24 200.347 294.24 200.347ZM266.097 183.342C266.121 183.496 266.374 185.134 266.601 185.566C266.667 185.854 266.687 186.15 266.662 186.445C265.588 186.358 264.469 186.311 264.469 186.311C264.502 186.351 264.522 186.399 264.527 186.45L264.36 186.411L264.114 186.351L266.092 183.339L266.097 183.342ZM262.178 189.587L264.038 189.88L264.192 189.906C264.141 190.196 264.108 190.49 264.096 190.785C264.096 190.811 264.14 190.845 264.198 190.884C264.173 191.029 264.161 191.177 264.164 191.324C264.192 191.47 265.063 191.789 266.058 192.054C266.045 192.109 266.032 192.158 266.016 192.205C265.136 191.742 263.751 191.525 263.591 191.183C263.432 190.84 258.713 189.194 258.713 189.194C258.713 189.194 258.541 189.103 258.243 188.959L259.487 189.194L259.826 189.16C260.6 189.355 261.386 189.499 262.178 189.592V189.587Z" fill="url(#paint0_linear)"/>
<path d="M288.173 201.503C288.173 201.503 287.433 205.974 283.681 206.633C279.929 207.292 267.411 207.156 267.411 207.156C267.411 207.156 260.255 206.11 257.665 200.066C255.076 194.023 253.414 191.606 255.632 191.499C257.851 191.391 269.815 195.546 270.502 195.598C271.189 195.65 288.834 186.402 288.173 201.503Z" fill="#65617D"/>
<path opacity="0.05" d="M288.173 201.503C288.173 201.503 287.433 205.974 283.681 206.633C279.929 207.292 267.411 207.156 267.411 207.156C267.411 207.156 260.255 206.11 257.665 200.066C255.076 194.023 253.414 191.606 255.632 191.499C257.851 191.391 269.815 195.546 270.502 195.598C271.189 195.65 288.834 186.402 288.173 201.503Z" fill="black"/>
<path d="M254.598 206.476C254.716 206.76 254.909 207.008 255.155 207.192C255.401 207.376 255.693 207.49 255.999 207.523C256.15 207.534 256.302 207.526 256.451 207.499C257.825 207.261 261.047 206.714 262.183 206.918C262.865 207.044 264.13 206.855 265.029 206.685C265.627 206.573 266.074 206.468 266.074 206.468C266.074 206.468 265.016 202.95 264.885 202.845C264.754 202.74 260.13 199.967 260.13 199.967L256.472 199.706C255.98 199.78 255.535 200.042 255.231 200.435C254.844 200.904 254.512 201.673 254.491 202.931C254.418 206.026 254.598 206.476 254.598 206.476Z" fill="#3F3D56"/>
<path opacity="0.05" d="M254.598 206.476C254.716 206.76 254.909 207.008 255.155 207.192C255.402 207.376 255.693 207.49 255.999 207.523C255.639 207.059 255.308 206.574 255.006 206.071L255.024 203.507C254.949 202.804 255.041 202.093 255.29 201.431C255.54 200.77 255.941 200.176 256.461 199.698C256.461 199.698 254.533 199.829 254.481 202.923C254.428 206.018 254.598 206.476 254.598 206.476Z" fill="black"/>
<path opacity="0.1" d="M270.477 200.87L273.873 198.198L279.235 192.909C279.235 192.909 278.657 192.88 277.782 192.843C277.565 192.982 276.956 193.419 276.933 193.947C276.907 194.593 275.485 193.992 274.746 194.363C274.006 194.735 270.388 199.37 269.753 199.334C269.118 199.297 268.616 199.012 268.352 199.462L268.334 199.491L270.477 200.87Z" fill="black"/>
<path opacity="0.1" d="M255.209 200.443L255.58 200.614C258.167 201.723 261.362 204.051 261.59 204.475C261.736 204.737 263.588 205.856 265.018 206.701C265.616 206.589 266.063 206.484 266.063 206.484C266.063 206.484 265.005 202.965 264.874 202.861C264.743 202.756 260.119 199.983 260.119 199.983L256.461 199.721C255.966 199.792 255.518 200.05 255.209 200.443Z" fill="black"/>
<path d="M248.024 192.857C248.369 193.702 251.248 196.956 251.248 196.956C251.248 196.956 253.077 199.334 255.659 200.446C258.24 201.558 261.444 203.884 261.681 204.307C261.833 204.569 263.897 205.822 265.339 206.678L265.666 206.869L266.387 207.287L266.769 207.507L268.532 206.081C269.402 205.375 270.267 204.663 270.28 204.624C270.306 204.545 270.651 203.646 270.57 203.593C270.531 203.564 270.348 203.201 270.014 202.774C269.66 202.302 269.199 201.921 268.668 201.662C267.897 201.267 267.283 200.621 266.925 199.831C266.925 199.831 266.81 199.747 266.635 199.638C266.275 199.39 265.872 199.213 265.447 199.114C264.866 199.041 263.785 197.851 263.785 197.851C263.361 197.575 263.008 197.204 262.753 196.768C262.476 196.187 258.379 193.367 258 193.105L267.929 199.491L270.304 201.019L273.701 198.348L279.065 193.061C279.065 193.061 278.344 193.024 277.293 192.98C274.68 192.867 270.061 192.689 269.476 192.823C269 192.933 268.509 192.965 268.023 192.917C268.023 192.917 266.716 192.977 265.831 192.514C264.945 192.051 263.586 191.839 263.427 191.496C263.267 191.154 258.593 189.516 258.593 189.516C258.593 189.516 252.228 186.131 249.955 188.14C247.682 190.149 247.682 192.009 248.024 192.857Z" fill="#65617D"/>
<path d="M268.553 173.445L269.371 176.168L270.416 182.303L274.298 182.565L275.422 180.699L276.543 178.837C276.543 178.837 277.243 176.357 277.745 173.96C278.189 171.836 278.479 169.774 278.006 169.555C277.578 169.356 277.295 168.642 277.112 167.872C277.089 167.778 277.068 167.682 277.05 167.585C276.919 166.934 276.831 166.275 276.788 165.612C276.788 165.612 268.652 165.191 269.789 168.55C269.992 169.123 270.095 169.726 270.094 170.334C270.094 170.486 270.085 170.638 270.068 170.789C270.013 171.313 269.849 171.819 269.588 172.276C269.327 172.733 268.975 173.131 268.553 173.445Z" fill="#EE8E9E"/>
<path d="M266.857 172.995L267.147 177.623L267.809 181.563L268.548 183.394L269.209 193.38C269.209 193.38 275.577 194.117 277.126 193.367C277.237 193.319 277.333 193.243 277.406 193.147C279.266 190.311 278.665 182.13 278.665 182.13L279.378 176.843L278.903 174.096L277.753 173.976L276.867 173.879C276.867 173.879 276.669 174.125 276.381 174.507C275.597 175.553 274.158 177.578 274.254 178.431C274.385 179.595 274.095 180.786 273.646 180.971C273.196 181.157 272.828 181.474 272.747 181.154C272.637 180.887 272.609 180.593 272.668 180.309C272.747 179.859 272.326 178.478 272.326 178.478C272.326 178.478 271.613 176.867 271.665 176.179C271.717 175.491 271.587 174.698 271.375 174.512C271.163 174.326 270.873 174.141 271.114 173.296C271.354 172.451 270.069 170.802 270.069 170.802L266.857 172.995Z" fill="#E3E8F4"/>
<path opacity="0.1" d="M275.271 184.553L275.532 192.461L277.058 193.306C277.169 193.261 277.266 193.186 277.337 193.089C279.208 190.259 278.594 182.068 278.594 182.068L279.308 176.778L278.832 174.033L277.685 173.911C278.129 171.789 278.419 169.725 277.946 169.505C277.518 169.306 277.236 168.592 277.053 167.825L276.23 173.419C276.23 173.419 276.298 173.924 276.321 174.444C276.356 174.773 276.334 175.106 276.256 175.428C276.07 175.904 276.203 176.752 276.203 176.752C275.725 177.591 275.488 179.148 275.373 180.65C275.211 182.654 275.271 184.553 275.271 184.553Z" fill="black"/>
<path d="M277.069 167.697C277.069 167.697 278.402 167.865 278.822 168.419C279.243 168.974 280.356 169.055 280.356 169.055C280.356 169.055 281.623 169.476 281.597 169.578C281.571 169.68 281.966 169.84 282.76 170.054C283.554 170.269 284.871 171.033 284.871 171.219C284.871 171.404 286.961 173.466 286.961 173.678C286.961 173.89 287.596 174.682 287.515 176.085C287.434 177.487 287.359 179.258 287.675 179.548C287.991 179.839 287.675 180.977 287.675 180.977C287.59 181.1 287.543 181.246 287.538 181.395C287.534 181.545 287.572 181.693 287.649 181.822C287.91 182.298 287.596 184.281 287.596 184.281L287.622 186.345C287.622 186.345 287.332 187.653 287.675 187.692C288.017 187.732 287.622 188.328 287.622 188.328C287.622 188.328 287.332 189.374 287.701 189.861C288.069 190.348 288.176 192.375 288.176 192.375L293.828 200.6C293.828 200.6 293.909 202.107 292.111 202.081C290.314 202.055 290.342 202.424 290.395 202.769C290.447 203.114 289.893 203.481 289.893 203.481C289.893 203.481 289.18 203.852 289.603 204.302C290.026 204.752 291.241 205.783 289.232 206.471C288.996 206.147 288.801 205.796 288.652 205.424C288.481 204.958 288.34 204.482 288.229 203.999C288.229 203.999 288.043 201.987 287.675 201.723C287.306 201.458 287.366 200.182 287.366 200.182C287.366 200.182 287.889 199.151 287.155 198.727C286.421 198.303 275.69 192.354 275.69 192.354L275.428 184.446C275.428 184.446 275.245 178.601 276.353 176.644C276.353 176.644 276.223 175.797 276.405 175.321C276.588 174.844 276.379 173.311 276.379 173.311L277.069 167.697Z" fill="#3F3D56"/>
<path opacity="0.1" d="M270.148 170.881C270.148 170.881 267.493 170.335 266.78 170.704C266.066 171.072 264.666 171.365 264.454 171.577C264.242 171.789 263.715 171.63 263.239 172.885C262.764 174.141 262.717 175.399 262.103 175.98C261.488 176.561 261.18 176.959 261.154 177.382C261.128 177.806 261.232 177.906 260.995 178.044C260.757 178.183 260.412 178.73 260.519 178.942C260.626 179.154 266.006 183.808 266.006 183.808C266.006 183.808 266.267 185.581 266.508 186.029C266.748 186.476 266.247 192.668 265.724 193.092C265.201 193.516 269.29 193.474 269.29 193.474C269.29 193.474 269.476 189.414 269.635 189.205C269.795 188.995 269.528 184.655 269.528 184.655C269.528 184.655 269.502 180.953 269.844 179.972C270.187 178.991 270.15 175.742 270.15 175.742C270.15 175.742 270.453 173.791 270.822 173.335C271.19 172.88 270.148 170.881 270.148 170.881Z" fill="black"/>
<path d="M270.068 170.792C270.068 170.792 267.411 170.243 266.698 170.614C265.984 170.986 264.587 171.276 264.375 171.488C264.163 171.7 263.636 171.54 263.16 172.783C262.684 174.025 262.637 175.294 262.023 175.878C261.409 176.461 261.098 176.856 261.072 177.277C261.046 177.699 261.153 177.801 260.916 177.939C260.678 178.078 260.333 178.627 260.44 178.839C260.547 179.051 265.94 183.7 265.94 183.7C265.94 183.7 266.201 185.471 266.442 185.921C266.682 186.371 266.18 192.558 265.658 192.985C265.135 193.411 269.209 193.38 269.209 193.38C269.209 193.38 269.394 189.319 269.551 189.107C269.708 188.896 269.447 184.558 269.447 184.558C269.447 184.558 269.42 180.856 269.763 179.878C270.105 178.899 270.068 175.647 270.068 175.647C270.068 175.647 270.371 173.696 270.74 173.241C271.108 172.785 270.068 170.792 270.068 170.792Z" fill="#3F3D56"/>
<path opacity="0.1" d="M269.789 168.553C269.992 169.126 270.095 169.729 270.094 170.337C271.393 170.724 272.784 170.663 274.045 170.164C275.305 169.666 276.363 168.759 277.047 167.587C276.916 166.936 276.829 166.277 276.786 165.615C276.786 165.615 268.652 165.194 269.789 168.553Z" fill="black"/>
<path d="M265.775 164.372C265.777 165.921 266.373 167.411 267.439 168.534C268.506 169.656 269.962 170.326 271.507 170.405C273.053 170.485 274.569 169.967 275.745 168.96C276.92 167.952 277.665 166.531 277.825 164.99C277.985 163.449 277.548 161.905 276.605 160.677C275.661 159.449 274.283 158.631 272.755 158.39C271.226 158.149 269.664 158.505 268.389 159.384C267.115 160.263 266.226 161.598 265.906 163.114C265.819 163.527 265.775 163.949 265.775 164.372Z" fill="#EE8E9E"/>
<path d="M261.894 178.389L260.454 178.839C260.488 178.984 260.479 179.136 260.427 179.276C260.374 179.416 260.282 179.537 260.161 179.624C260.038 179.712 259.939 179.831 259.875 179.968C259.81 180.106 259.782 180.257 259.793 180.409C259.793 180.409 259.633 180.992 259.27 181.123C258.907 181.254 258.661 182.13 258.661 182.13L257.446 183.53C257.446 183.53 256.997 183.901 257.078 184.087C257.159 184.273 256.603 184.325 256.603 184.325L256.893 189.034L259.401 189.51L260.969 189.351L262.236 188.875L263.344 188.215L263.848 186.907L266.066 183.522L261.894 178.389Z" fill="#3F3D56"/>
<path d="M256.952 184.71C256.952 184.71 253.731 180.056 251.327 182.567C248.923 185.078 252.304 189.152 253.096 189.021C253.887 188.89 257.666 188.67 257.666 188.67L256.952 184.71Z" fill="#EE8E9E"/>
<path d="M264.57 182.721L250.265 175.411C250.067 175.31 249.824 175.388 249.723 175.586L244.136 186.547C244.035 186.746 244.113 186.988 244.311 187.089L258.617 194.4C258.815 194.501 259.057 194.423 259.158 194.224L264.746 183.263C264.847 183.065 264.768 182.823 264.57 182.721Z" fill="#3F3D56"/>
<path d="M263.206 183.352L250.578 176.899L245.721 186.427L258.349 192.88L263.206 183.352Z" fill="#1890FF"/>
<path d="M247.677 181.636C247.805 181.636 247.909 181.532 247.909 181.403C247.909 181.275 247.805 181.17 247.677 181.17C247.548 181.17 247.444 181.275 247.444 181.403C247.444 181.532 247.548 181.636 247.677 181.636Z" fill="#E6E8EC"/>
<path d="M261.344 188.799C261.556 188.799 261.728 188.627 261.728 188.414C261.728 188.202 261.556 188.03 261.344 188.03C261.132 188.03 260.96 188.202 260.96 188.414C260.96 188.627 261.132 188.799 261.344 188.799Z" fill="#E6E8EC"/>
<path d="M254.867 185.688C254.841 189.181 262.05 189.919 262.05 189.919L263.879 190.212L264.705 190.342L265.05 186.941C265.05 186.941 264.671 186.887 264.198 186.777C263.5 186.612 262.596 186.332 262.408 185.937C262.102 185.27 254.893 182.198 254.867 185.688Z" fill="#EE8E9E"/>
<path opacity="0.1" d="M265.906 163.114C266.072 163.126 266.229 163.196 266.348 163.313C266.554 163.53 266.565 163.912 266.829 164.045C266.928 164.09 267.038 164.103 267.145 164.082C267.848 163.982 268.253 163.19 268.927 162.97C269.322 162.871 269.738 162.907 270.11 163.072C270.261 163.122 270.396 163.213 270.5 163.334C270.727 163.627 270.568 164.058 270.672 164.411C270.818 164.903 271.404 165.097 271.911 165.162C272.417 165.228 272.99 165.262 273.327 165.644C273.44 165.786 273.522 165.952 273.567 166.128C273.612 166.305 273.619 166.489 273.588 166.669C273.558 166.793 273.558 166.922 273.588 167.046C273.729 167.443 274.414 167.383 274.594 167.072C274.725 166.844 274.683 166.653 274.991 166.591C275.213 166.573 275.436 166.612 275.639 166.703C276.176 166.89 276.743 166.979 277.311 166.965C277.673 166.192 277.868 165.351 277.883 164.498C277.898 163.644 277.732 162.798 277.397 162.013C277.062 161.228 276.565 160.523 275.938 159.944C275.312 159.365 274.571 158.925 273.763 158.653C272.955 158.381 272.098 158.283 271.25 158.365C270.401 158.448 269.58 158.709 268.839 159.132C268.099 159.554 267.456 160.129 266.953 160.818C266.449 161.507 266.097 162.295 265.919 163.13L265.906 163.114Z" fill="black"/>
<path d="M273.575 166.878C273.545 166.754 273.545 166.624 273.575 166.499C273.606 166.32 273.599 166.136 273.554 165.96C273.509 165.783 273.427 165.619 273.314 165.476C272.977 165.092 272.405 165.055 271.898 164.992C271.391 164.929 270.806 164.731 270.659 164.241C270.555 163.888 270.714 163.456 270.487 163.166C270.385 163.043 270.25 162.953 270.097 162.904C269.726 162.736 269.308 162.7 268.914 162.802C268.24 163.02 267.835 163.815 267.132 163.914C267.025 163.933 266.915 163.92 266.816 163.878C266.554 163.744 266.539 163.354 266.335 163.143C266.016 162.802 265.407 163.022 265.013 162.771C264.777 162.572 264.625 162.292 264.587 161.986C264.413 161.419 264.373 160.819 264.469 160.233C264.699 159.25 265.577 158.575 266.139 157.735C266.662 156.95 266.954 155.961 267.741 155.443C268.527 154.925 269.533 155.043 270.419 155.305C270.827 155.449 271.247 155.559 271.673 155.634C272.389 155.723 273.105 155.527 273.823 155.503C274.839 155.471 275.837 155.774 276.664 156.367C276.849 156.49 277.007 156.65 277.126 156.838C277.245 157.103 277.315 157.387 277.332 157.677C277.417 158.225 277.606 158.751 277.889 159.226C278.111 159.598 278.391 159.935 278.592 160.32C278.814 160.697 278.882 161.147 278.78 161.573C278.712 161.79 278.579 161.986 278.519 162.209C278.401 162.732 278.741 163.218 278.973 163.695C279.196 164.13 279.302 164.616 279.282 165.105C279.269 165.348 279.205 165.587 279.096 165.805C278.987 166.024 278.834 166.217 278.647 166.373C278.255 166.646 277.786 166.788 277.309 166.779C276.729 166.797 276.151 166.709 275.603 166.517C275.4 166.427 275.178 166.389 274.957 166.405C274.649 166.47 274.696 166.666 274.558 166.886C274.401 167.218 273.716 167.273 273.575 166.878Z" fill="#3F3D56"/>
<path opacity="0.1" d="M270.317 201.027L273.714 198.356L279.078 193.068C279.078 193.068 278.357 193.032 277.307 192.987C277.1 193.176 276.967 193.432 276.933 193.709C276.907 194.356 275.485 193.754 274.746 194.125C274.007 194.497 270.388 199.133 269.753 199.096C269.118 199.059 268.616 198.774 268.352 199.224L268.334 199.253C268.229 199.374 268.088 199.458 267.932 199.494L270.317 201.027Z" fill="black"/>
<path d="M263.451 200.844L265.157 206.314L265.419 207.174L266.234 206.95L268.032 206.455L276.037 204.255C277.041 204.204 278.021 203.936 278.911 203.47C280.422 202.623 282.15 202.246 283.876 202.384C284.921 202.484 286.11 202.026 287.087 200.221C287.087 200.221 289.305 193.662 283.706 191.784C278.107 189.906 277.838 192.783 277.838 192.783L277.762 192.83C277.545 192.969 276.936 193.406 276.913 193.934C276.886 194.581 275.465 193.979 274.726 194.35C273.986 194.722 270.367 199.358 269.732 199.321C269.098 199.284 268.596 198.999 268.332 199.449L268.314 199.478C268.118 199.739 267.53 199.81 267.141 199.823C266.929 199.823 266.775 199.823 266.775 199.823L266.725 199.839L266.317 199.959L263.451 200.844Z" fill="#65617D"/>
<path opacity="0.1" d="M263.892 190.212L264.717 190.343L265.062 186.942C265.062 186.942 264.683 186.887 264.21 186.777C264.336 187.243 264.054 189.082 263.892 190.212Z" fill="black"/>
<path opacity="0.1" d="M285.493 174.282C285.493 174.282 287.949 173.568 287.34 180.561C286.731 187.554 282.19 191.959 282.19 191.959C282.19 191.959 276.964 194.259 274.613 193.89C272.261 193.521 270.545 193.44 270.545 193.44C269.805 193.065 268.995 192.848 268.167 192.804C266.86 192.752 264.072 191.933 264.02 191.666C263.968 191.399 264.707 187.515 264.389 187.219C264.389 187.219 268.088 187.371 268.457 187.64C268.825 187.91 269.356 187.716 269.763 187.64C270.171 187.564 271.373 186.505 273.777 187.431C273.777 187.431 274.597 187.509 274.913 187.3C275.172 187.178 275.467 187.159 275.739 187.245C275.943 187.176 276.137 187.078 276.314 186.955C276.392 186.85 277.027 186.955 277.027 186.955C277.065 186.973 277.106 186.983 277.148 186.983C277.19 186.983 277.231 186.974 277.269 186.957C277.307 186.939 277.34 186.913 277.366 186.88C277.393 186.848 277.412 186.81 277.422 186.769C277.506 186.553 277.632 186.355 277.793 186.188C277.793 186.188 278.506 182.167 279.852 180.66C279.96 180.567 280.044 180.448 280.094 180.314C280.145 180.18 280.161 180.036 280.142 179.894C280.024 179.454 282.321 173.424 285.493 174.282Z" fill="black"/>
<path d="M285.427 173.735C285.427 173.735 287.883 173.021 287.275 180.014C286.666 187.007 282.125 191.413 282.125 191.413C282.125 191.413 276.899 193.712 274.547 193.343C272.196 192.974 270.479 192.893 270.479 192.893C269.739 192.518 268.93 192.301 268.101 192.258C266.795 192.205 264.007 191.386 263.955 191.119C263.903 190.853 264.642 186.968 264.326 186.672C264.326 186.672 268.023 186.824 268.391 187.093C268.76 187.363 269.29 187.169 269.698 187.093C270.105 187.017 271.307 185.958 273.711 186.884C273.711 186.884 274.532 186.962 274.848 186.751C275.107 186.631 275.401 186.612 275.673 186.698C275.878 186.629 276.071 186.531 276.248 186.408C276.327 186.303 276.962 186.408 276.962 186.408C276.999 186.426 277.04 186.436 277.082 186.436C277.124 186.437 277.165 186.428 277.203 186.41C277.241 186.392 277.275 186.366 277.301 186.333C277.327 186.301 277.346 186.263 277.356 186.222C277.44 186.006 277.566 185.808 277.727 185.641C277.727 185.641 278.44 181.62 279.786 180.113C279.895 180.02 279.978 179.901 280.03 179.767C280.081 179.634 280.098 179.489 280.079 179.347C279.959 178.918 282.258 172.888 285.427 173.735Z" fill="#3F3D56"/>
<path opacity="0.1" d="M266.348 199.972L269.838 204.2L269.859 204.176C269.885 204.095 270.228 203.195 270.149 203.143C270.071 203.091 269.462 201.767 268.247 201.212C267.63 200.911 267.112 200.439 266.755 199.852L266.348 199.972Z" fill="black"/>
<path opacity="0.1" d="M266.398 207.287L266.779 207.507L268.543 206.081C269.413 205.374 270.278 204.663 270.291 204.624C270.317 204.545 270.662 203.645 270.581 203.593C270.542 203.564 270.359 203.2 270.025 202.774C267.673 202.112 269.168 203.755 269.366 203.82C269.366 203.82 266.492 203.159 266.33 206.298C266.309 206.629 266.331 206.962 266.398 207.287Z" fill="black"/>
<path d="M269.314 208.619L269.816 208.909L274.913 209.04C275.485 209.388 276.09 209.68 276.719 209.911C276.804 209.937 276.891 209.955 276.98 209.966C277.453 210.004 277.927 210.013 278.401 209.992C278.791 209.992 279.094 209.966 279.094 209.966C279.094 209.966 278.851 203.53 278.67 202.853C278.582 202.528 278.148 202.591 277.735 202.761C277.418 202.89 277.112 203.045 276.821 203.224C276.821 203.224 274.655 203.433 274.312 203.622C273.97 203.81 272.99 203.515 272.384 203.622C271.778 203.729 270.693 202.905 270.693 202.905C267.736 201.927 269.387 203.753 269.609 203.831C269.609 203.831 266.735 203.169 266.573 206.309C266.411 209.448 269.314 208.619 269.314 208.619Z" fill="#3F3D56"/>
<path d="M276.682 206.131C276.739 207.465 277.776 209.118 278.396 209.992C278.785 209.992 279.088 209.966 279.088 209.966C279.088 209.966 278.845 203.53 278.665 202.853C278.576 202.528 278.142 202.591 277.729 202.761C277.217 203.721 276.653 205.058 276.682 206.131Z" fill="#565387"/>
<path opacity="0.1" d="M276.682 206.131C276.739 207.465 277.776 209.118 278.396 209.992C278.785 209.992 279.088 209.966 279.088 209.966C279.088 209.966 278.845 203.53 278.665 202.853C278.576 202.528 278.142 202.591 277.729 202.761C277.217 203.721 276.653 205.058 276.682 206.131Z" fill="black"/>
<path opacity="0.05" d="M275.812 206.309C276.162 207.596 276.159 209.037 276.718 209.911C276.804 209.937 276.891 209.955 276.98 209.966C277.452 210.005 277.927 210.013 278.401 209.992C278.79 209.992 279.093 209.966 279.093 209.966C279.093 209.966 278.85 203.53 278.67 202.853C278.581 202.528 278.147 202.591 277.735 202.761C277.418 202.89 277.112 203.045 276.82 203.224C276.82 203.224 275.362 204.66 275.812 206.309Z" fill="black"/>
<path opacity="0.1" d="M258.225 193.259C258.225 193.259 260.756 194.083 262.902 197.008L258.225 193.259Z" fill="black"/>
<g opacity="0.1">
<path opacity="0.1" d="M278.801 161.526L278.785 161.583C278.76 161.659 278.731 161.732 278.696 161.803C278.723 161.708 278.758 161.615 278.801 161.526Z" fill="black"/>
<path opacity="0.1" d="M264.475 160.244C264.52 160.063 264.586 159.887 264.671 159.721C264.671 159.765 264.644 159.81 264.634 159.857C264.535 160.443 264.575 161.044 264.752 161.612C264.789 161.918 264.941 162.199 265.177 162.397C265.569 162.659 266.178 162.431 266.5 162.771C266.703 162.986 266.714 163.37 266.98 163.504C267.08 163.547 267.19 163.56 267.296 163.54C267.997 163.441 268.404 162.646 269.078 162.428C269.472 162.326 269.889 162.362 270.259 162.53C270.411 162.581 270.546 162.671 270.651 162.792C270.876 163.085 270.719 163.514 270.824 163.87C270.968 164.359 271.553 164.555 272.06 164.618C272.567 164.681 273.139 164.72 273.478 165.102C273.591 165.245 273.672 165.41 273.717 165.586C273.762 165.762 273.77 165.946 273.74 166.125C273.709 166.25 273.709 166.38 273.74 166.504C273.878 166.902 274.563 166.842 274.743 166.528C274.874 166.3 274.835 166.112 275.143 166.049C275.364 166.03 275.586 166.069 275.788 166.162C276.336 166.351 276.915 166.44 277.494 166.423C277.973 166.43 278.441 166.288 278.835 166.015C279.006 165.88 279.146 165.71 279.245 165.515C279.157 165.868 278.957 166.183 278.675 166.413C278.283 166.685 277.815 166.827 277.338 166.818C276.758 166.836 276.179 166.748 275.631 166.557C275.428 166.466 275.205 166.428 274.983 166.444C274.675 166.51 274.722 166.706 274.584 166.926C274.406 167.239 273.721 167.297 273.58 166.902C273.552 166.777 273.552 166.647 273.58 166.523C273.612 166.343 273.605 166.159 273.56 165.983C273.515 165.807 273.433 165.642 273.319 165.5C272.982 165.115 272.41 165.079 271.903 165.016C271.396 164.953 270.811 164.754 270.664 164.265C270.56 163.912 270.719 163.48 270.492 163.19C270.389 163.068 270.254 162.977 270.103 162.928C269.731 162.76 269.314 162.724 268.919 162.826C268.245 163.043 267.837 163.838 267.137 163.938C267.03 163.956 266.921 163.943 266.821 163.901C266.56 163.768 266.544 163.378 266.34 163.166C266.019 162.826 265.413 163.046 265.018 162.795C264.782 162.597 264.629 162.316 264.592 162.01C264.415 161.439 264.374 160.834 264.475 160.244Z" fill="black"/>
</g>
<path opacity="0.1" d="M279.21 181.411C278.724 182.065 278.165 182.669 277.745 183.363C277.281 184.039 277.055 184.851 277.102 185.67C277.546 185.215 277.75 184.587 278.029 184.017C278.502 183.049 279.208 182.23 279.806 181.34C279.918 181.17 280.647 180.189 280.279 180.145C279.973 180.106 279.375 181.189 279.21 181.411Z" fill="black"/>
<path d="M112.897 96.2485H91.2811C91.183 96.2426 91.0846 96.2569 90.9921 96.2904C90.8997 96.3239 90.815 96.3761 90.7434 96.4436C90.6718 96.5111 90.6147 96.5925 90.5757 96.683C90.5367 96.7734 90.5166 96.8708 90.5166 96.9693C90.5166 97.0678 90.5367 97.1652 90.5757 97.2556C90.6147 97.346 90.6718 97.4275 90.7434 97.495C90.815 97.5625 90.8997 97.6146 90.9921 97.6482C91.0846 97.6817 91.183 97.6959 91.2811 97.69H112.897C112.995 97.6959 113.094 97.6817 113.186 97.6482C113.279 97.6146 113.363 97.5625 113.435 97.495C113.507 97.4275 113.564 97.346 113.603 97.2556C113.642 97.1652 113.662 97.0678 113.662 96.9693C113.662 96.8708 113.642 96.7734 113.603 96.683C113.564 96.5925 113.507 96.5111 113.435 96.4436C113.363 96.3761 113.279 96.3239 113.186 96.2904C113.094 96.2569 112.995 96.2426 112.897 96.2485ZM112.897 98.7208H91.2811C91.0899 98.7208 90.9065 98.7968 90.7712 98.9323C90.636 99.0677 90.56 99.2513 90.56 99.4428C90.56 99.6343 90.636 99.818 90.7712 99.9534C90.9065 100.089 91.0899 100.165 91.2811 100.165H112.897C113.089 100.165 113.272 100.089 113.407 99.9534C113.542 99.818 113.618 99.6343 113.618 99.4428C113.618 99.2513 113.542 99.0677 113.407 98.9323C113.272 98.7968 113.089 98.7208 112.897 98.7208ZM111.813 82.0352H92.3681C91.8892 82.0358 91.4301 82.2264 91.0913 82.5652C90.7524 82.904 90.5614 83.3634 90.56 83.8429V92.9993C90.5614 93.4788 90.7524 93.9382 91.0913 94.277C91.4301 94.6158 91.8892 94.8064 92.3681 94.8071H111.813C112.291 94.8057 112.75 94.6148 113.088 94.2761C113.426 93.9373 113.617 93.4783 113.618 92.9993V83.8429C113.617 83.3639 113.426 82.9049 113.088 82.5661C112.75 82.2274 112.291 82.0365 111.813 82.0352ZM94.7798 93.1667H92.9272C92.736 93.1667 92.5526 93.0907 92.4173 92.9553C92.2821 92.8199 92.2061 92.6362 92.2061 92.4447C92.2061 92.2532 92.2821 92.0695 92.4173 91.9341C92.5526 91.7987 92.736 91.7227 92.9272 91.7227H94.7798C94.971 91.7227 95.1544 91.7987 95.2897 91.9341C95.4249 92.0695 95.5009 92.2532 95.5009 92.4447C95.5009 92.6362 95.4249 92.8199 95.2897 92.9553C95.1544 93.0907 94.971 93.1667 94.7798 93.1667ZM94.7798 85.1274H92.9272C92.736 85.1274 92.5526 85.0513 92.4173 84.9159C92.2821 84.7805 92.2061 84.5969 92.2061 84.4054C92.2061 84.2139 92.2821 84.0302 92.4173 83.8948C92.5526 83.7594 92.736 83.6833 92.9272 83.6833H94.7798C94.971 83.6833 95.1544 83.7594 95.2897 83.8948C95.4249 84.0302 95.5009 84.2139 95.5009 84.4054C95.5009 84.5969 95.4249 84.7805 95.2897 84.9159C95.1544 85.0513 94.971 85.1274 94.7798 85.1274ZM102.096 92.5467C101.281 92.5467 100.485 92.3049 99.808 91.8519C99.1308 91.3988 98.603 90.7549 98.2913 90.0015C97.9797 89.2481 97.8981 88.4191 98.057 87.6194C98.2159 86.8196 98.6081 86.0849 99.184 85.5083C99.7599 84.9317 100.494 84.539 101.292 84.3799C102.091 84.2208 102.919 84.3025 103.672 84.6146C104.424 84.9266 105.067 85.4551 105.52 86.1331C105.972 86.8111 106.214 87.6083 106.214 88.4237C106.212 89.5177 105.777 90.5664 105.004 91.3394C104.231 92.1125 103.183 92.5467 102.091 92.5467H102.096ZM111.259 93.1667H109.407C109.215 93.1667 109.032 93.0907 108.897 92.9553C108.761 92.8199 108.685 92.6362 108.685 92.4447C108.685 92.2532 108.761 92.0695 108.897 91.9341C109.032 91.7987 109.215 91.7227 109.407 91.7227H111.259C111.45 91.7227 111.634 91.7987 111.769 91.9341C111.904 92.0695 111.98 92.2532 111.98 92.4447C111.98 92.6362 111.904 92.8199 111.769 92.9553C111.634 93.0907 111.45 93.1667 111.259 93.1667ZM111.259 85.1274H109.407C109.215 85.1274 109.032 85.0513 108.897 84.9159C108.761 84.7805 108.685 84.5969 108.685 84.4054C108.685 84.2139 108.761 84.0302 108.897 83.8948C109.032 83.7594 109.215 83.6833 109.407 83.6833H111.259C111.45 83.6833 111.634 83.7594 111.769 83.8948C111.904 84.0302 111.98 84.2139 111.98 84.4054C111.98 84.5969 111.904 84.7805 111.769 84.9159C111.634 85.0513 111.45 85.1274 111.259 85.1274Z" fill="white"/>
<path d="M102.091 91.2542C103.598 91.2542 104.819 90.0314 104.819 88.523C104.819 87.0146 103.598 85.7917 102.091 85.7917C100.585 85.7917 99.3633 87.0146 99.3633 88.523C99.3633 90.0314 100.585 91.2542 102.091 91.2542Z" fill="white"/>
<path opacity="0.2" d="M241.576 63.8137H143.413V118.381H241.576V63.8137Z" fill="#1890FF"/>
<path opacity="0.2" d="M241.576 130.588H143.413V185.155H241.576V130.588Z" fill="#1890FF"/>
<path d="M165.688 101.81H162.717V111.778H165.688V101.81Z" fill="white"/>
<path d="M171.345 89.47H168.374V111.778H171.345V89.47Z" fill="white"/>
<path d="M177.004 78.3516H174.033V111.778H177.004V78.3516Z" fill="#DFE3EF"/>
<path d="M182.663 70.4194H179.692V111.778H182.663V70.4194Z" fill="white"/>
<path d="M177.004 70.4194H174.033V111.778H177.004V70.4194Z" fill="#1890FF"/>
<path d="M188.32 89.0435H185.35V111.778H188.32V89.0435Z" fill="#1890FF"/>
<path opacity="0.2" d="M193.98 83.1677H191.009V111.778H193.98V83.1677Z" fill="#1890FF"/>
<path d="M199.637 74.2444H196.666V111.778H199.637V74.2444Z" fill="#1890FF"/>
<path opacity="0.2" d="M205.296 95.0635H202.325V111.778H205.296V95.0635Z" fill="#1890FF"/>
<path d="M210.955 87.3457H207.984V111.778H210.955V87.3457Z" fill="#1890FF"/>
<path opacity="0.2" d="M216.612 78.3516H213.642V111.778H216.612V78.3516Z" fill="#1890FF"/>
<path d="M222.272 78.3516H219.301V111.778H222.272V78.3516Z" fill="#1890FF"/>
<path d="M113.611 151.273C113.61 150.836 113.436 150.418 113.128 150.109C112.819 149.8 112.401 149.626 111.965 149.625H92.2093C91.7729 149.626 91.3547 149.8 91.0459 150.109C90.7371 150.418 90.5626 150.836 90.5606 151.273V153.748H113.611V151.273ZM90.5527 164.466C90.5541 164.904 90.7283 165.323 91.0372 165.632C91.346 165.941 91.7646 166.116 92.2014 166.117H111.965C112.402 166.116 112.82 165.941 113.128 165.632C113.437 165.323 113.611 164.903 113.611 164.466V156.231H90.5606L90.5527 164.466ZM97.8687 161.994H106.311C106.409 161.988 106.507 162.002 106.6 162.036C106.692 162.069 106.777 162.122 106.849 162.189C106.92 162.257 106.977 162.338 107.016 162.428C107.055 162.519 107.075 162.616 107.075 162.715C107.075 162.813 107.055 162.911 107.016 163.001C106.977 163.092 106.92 163.173 106.849 163.24C106.777 163.308 106.692 163.36 106.6 163.394C106.507 163.427 106.409 163.441 106.311 163.436H97.8687C97.6853 163.424 97.513 163.344 97.3871 163.21C97.2611 163.076 97.191 162.899 97.191 162.715C97.191 162.531 97.2611 162.354 97.3871 162.22C97.513 162.086 97.6853 162.005 97.8687 161.994ZM94.1637 161.994H94.7803C94.8785 161.988 94.9769 162.002 95.0693 162.036C95.1618 162.069 95.2465 162.122 95.3181 162.189C95.3897 162.257 95.4468 162.338 95.4858 162.428C95.5248 162.519 95.5449 162.616 95.5449 162.715C95.5449 162.813 95.5248 162.911 95.4858 163.001C95.4468 163.092 95.3897 163.173 95.3181 163.24C95.2465 163.308 95.1618 163.36 95.0693 163.394C94.9769 163.427 94.8785 163.441 94.7803 163.436H94.1637C94.0655 163.441 93.9672 163.427 93.8747 163.394C93.7822 163.36 93.6976 163.308 93.626 163.24C93.5544 163.173 93.4973 163.092 93.4583 163.001C93.4193 162.911 93.3992 162.813 93.3992 162.715C93.3992 162.616 93.4193 162.519 93.4583 162.428C93.4973 162.338 93.5544 162.257 93.626 162.189C93.6976 162.122 93.7822 162.069 93.8747 162.036C93.9672 162.002 94.0655 161.988 94.1637 161.994Z" fill="white"/>
<path d="M165.688 168.582H162.717V178.549H165.688V168.582Z" fill="white"/>
<path d="M171.345 156.241H168.374V178.549H171.345V156.241Z" fill="white"/>
<path d="M177.004 145.123H174.033V178.549H177.004V145.123Z" fill="#DFE3EF"/>
<path d="M182.663 137.191H179.692V178.549H182.663V137.191Z" fill="white"/>
<path d="M177.004 137.191H174.033V178.549H177.004V137.191Z" fill="#1890FF"/>
<path d="M188.32 155.815H185.35V178.549H188.32V155.815Z" fill="#1890FF"/>
<path d="M193.98 149.939H191.009V178.549H193.98V149.939Z" fill="white"/>
<path d="M199.637 141.016H196.666V178.549H199.637V141.016Z" fill="white"/>
<path opacity="0.2" d="M205.296 161.835H202.325V178.549H205.296V161.835Z" fill="#1890FF"/>
<path opacity="0.2" d="M210.955 154.117H207.984V178.549H210.955V154.117Z" fill="#1890FF"/>
<path opacity="0.2" d="M216.612 145.123H213.642V178.549H216.612V145.123Z" fill="#1890FF"/>
<path opacity="0.2" d="M222.272 145.123H219.301V178.549H222.272V145.123Z" fill="#1890FF"/>
<defs>
<linearGradient id="paint0_linear" x1="271.051" y1="209.804" x2="271.051" y2="154.536" gradientUnits="userSpaceOnUse">
<stop stop-color="#808080" stop-opacity="0.25"/>
<stop offset="0.54" stop-color="#808080" stop-opacity="0.12"/>
<stop offset="1" stop-color="#808080" stop-opacity="0.1"/>
</linearGradient>
</defs>
</svg>
