<svg width="360" height="211" viewBox="0 0 360 211" fill="none" xmlns="http://www.w3.org/2000/svg">
<path d="M238.222 129.647L240.345 128.337C240.547 128.209 240.746 128.072 240.95 127.944C236.396 127.161 232.247 124.847 229.188 121.383C226.129 117.92 224.344 113.516 224.129 108.901C223.973 105.726 224.573 102.56 225.88 99.6633C227.097 96.9527 228.894 94.542 231.143 92.6011C233.393 90.6603 236.041 89.2366 238.901 88.4304L238.796 96.7869L243.386 87.6914C243.405 87.6885 243.424 87.6885 243.443 87.6914C246.103 87.5672 248.761 87.9682 251.267 88.8715C253.772 89.7747 256.074 91.1626 258.043 92.9557C260.012 94.7489 261.608 96.9123 262.74 99.3224C263.873 101.733 264.52 104.342 264.644 107.002C264.661 107.389 264.644 107.77 264.644 108.139C266.241 106.317 267.691 104.365 268.652 102.224C270.596 97.8897 270.641 92.981 270.479 87.015C270.172 75.1909 269.663 63.2787 268.998 51.4007C264.205 50.8684 259.759 48.6445 256.459 45.1284C253.159 41.6124 251.22 37.0347 250.992 32.2178C250.964 31.5954 250.972 30.9843 250.992 30.376C250.992 30.2254 250.992 30.0719 251.015 29.9212C251.055 29.3329 251.109 28.7502 251.2 28.1761C251.2 28.0794 251.234 27.9885 251.251 27.8918C251.334 27.4048 251.434 26.9235 251.549 26.4479C251.595 26.2717 251.637 26.0926 251.686 25.9164C251.828 25.3991 251.97 24.8903 252.166 24.3872C252.226 24.2195 252.297 24.0575 252.359 23.8927C252.504 23.5232 252.661 23.1594 252.825 22.7984C252.914 22.608 252.999 22.4204 253.093 22.2299C253.115 22.1816 253.135 22.1333 253.161 22.085C255.301 17.858 258.854 14.5145 263.204 12.6358C267.553 10.7571 272.424 10.4618 276.968 11.8014L276.832 22.6762L281.379 13.6944C285.11 15.8296 288.06 19.1016 289.798 23.0324C291.537 26.9632 291.973 31.347 291.043 35.5434H291.066C291.035 35.6883 290.989 35.8276 290.955 35.9697C290.893 36.2369 290.824 36.5012 290.751 36.7656C290.654 37.1038 290.546 37.4363 290.435 37.7689C290.35 38.0162 290.267 38.2691 290.174 38.5136C290.037 38.8717 289.889 39.2213 289.724 39.5709C289.634 39.7756 289.551 39.9831 289.44 40.1849C289.181 40.7079 288.896 41.2195 288.588 41.7197C288.482 41.8931 288.363 42.058 288.252 42.2313C288.036 42.5667 287.817 42.8993 287.581 43.2233C287.436 43.4223 287.28 43.6127 287.127 43.8088C286.905 44.0931 286.678 44.3773 286.442 44.6359C286.274 44.8264 286.103 45.014 285.927 45.2044C285.68 45.4659 285.424 45.7189 285.16 45.969C284.986 46.1367 284.81 46.3044 284.628 46.4636C284.33 46.7279 284.017 46.9809 283.702 47.2281C283.542 47.3532 283.389 47.484 283.224 47.6033C282.745 47.9596 282.249 48.294 281.738 48.6067C281.641 48.6635 281.539 48.7118 281.453 48.7687C281.027 49.0216 280.601 49.2576 280.143 49.4793C279.953 49.5731 279.754 49.6555 279.558 49.7436C279.191 49.9085 278.821 50.0676 278.443 50.2126C278.224 50.295 278 50.3717 277.775 50.4485C277.403 50.5764 277.025 50.6929 276.638 50.7981C276.411 50.8606 276.187 50.9232 275.956 50.9772C275.541 51.0766 275.118 51.1591 274.691 51.2301C274.663 51.2301 274.637 51.2301 274.609 51.2472C274.889 56.2573 275.139 61.2702 275.357 66.2859C276.566 63.8041 278.269 61.5954 280.362 59.7954C282.455 57.9954 284.894 56.642 287.529 55.8183C290.164 54.9946 292.939 54.7178 295.685 55.0051C298.43 55.2924 301.088 56.1376 303.496 57.4889L299.911 67.3091L307.284 60.2289C311.231 63.8465 313.582 68.8817 313.822 74.2302C313.916 76.1069 313.742 77.9874 313.307 79.8154C312.381 83.7711 310.287 87.3573 307.298 90.1085C304.308 92.8598 300.561 94.6491 296.542 95.2444C292.523 95.8398 288.418 95.2136 284.76 93.4471C281.101 91.6806 278.058 88.8554 276.025 85.338C276.025 85.8468 276.061 86.3584 276.076 86.8672C276.209 92.1311 276.377 98.6798 273.753 104.529C271.977 108.494 269.115 111.715 266.287 114.6C264.448 116.478 262.541 118.295 260.585 120.054C258.662 122.636 256.152 124.723 253.263 126.142C250.051 128.617 246.726 130.935 243.287 133.095L241.198 134.442C239.268 135.639 237.289 136.866 235.348 138.137C235.689 138.103 236.027 138.066 236.374 138.052C240.671 137.85 244.921 139.02 248.51 141.392C252.098 143.765 254.84 147.216 256.339 151.249L243.668 161.563L257.595 158.332C257.591 161.761 256.718 165.133 255.058 168.133C253.397 171.133 251.003 173.663 248.1 175.487C245.196 177.311 241.878 178.369 238.454 178.562C235.031 178.756 231.614 178.079 228.524 176.594C228.836 176.986 229.152 177.375 229.464 177.765C230.087 178.541 230.707 179.311 231.312 180.075C239.555 190.515 241.851 200.429 237.767 207.987L232.804 205.304C236.783 197.948 230.815 188.534 226.884 183.571C226.29 182.821 225.681 182.065 225.067 181.298C219.801 174.76 213.832 167.336 213.982 158.238C214.195 144.538 227.523 136.275 238.222 129.647Z" fill="#F2F2F2"/>
<path d="M173.468 211C244.971 211 302.936 208.328 302.936 205.031C302.936 201.735 244.971 199.062 173.468 199.062C101.965 199.062 44 201.735 44 205.031C44 208.328 101.965 211 173.468 211Z" fill="#3F3D56"/>
<path d="M278.063 202.806C278.915 201.239 277.949 199.321 276.846 197.922C275.743 196.524 274.399 195.08 274.427 193.292C274.467 190.734 277.181 189.225 279.353 187.869C280.961 186.862 282.445 185.669 283.773 184.313C284.33 183.792 284.791 183.176 285.134 182.494C285.581 181.494 285.569 180.357 285.541 179.26C285.446 175.61 285.266 171.964 285.001 168.323" stroke="#3F3D56" stroke-width="4" stroke-miterlimit="10"/>
<path d="M289.124 168.129C289.093 167.462 288.894 166.812 288.546 166.241C288.199 165.67 287.713 165.196 287.135 164.861L286.242 166.629L286.268 164.491C285.657 164.308 285.012 164.275 284.386 164.393C283.76 164.512 283.171 164.779 282.67 165.172C282.168 165.565 281.769 166.073 281.505 166.653C281.24 167.233 281.119 167.868 281.152 168.504C281.201 169.56 281.668 170.552 282.45 171.263C282.837 171.615 283.289 171.888 283.781 172.065C284.274 172.242 284.796 172.321 285.318 172.296C285.841 172.271 286.354 172.144 286.827 171.921C287.3 171.699 287.725 171.385 288.077 170.998C288.429 170.611 288.702 170.159 288.879 169.666C289.056 169.174 289.135 168.652 289.11 168.129H289.124Z" fill="#2E58DB"/>
<path d="M282.01 195.131C281.593 195.943 280.909 196.586 280.073 196.953C279.238 197.32 278.302 197.389 277.421 197.148C276.541 196.907 275.771 196.37 275.239 195.629C274.707 194.887 274.446 193.985 274.5 193.074C274.554 192.163 274.92 191.299 275.535 190.625C276.151 189.951 276.98 189.51 277.882 189.375C278.785 189.239 279.706 189.418 280.493 189.882C281.279 190.345 281.882 191.064 282.201 191.919L279.711 193.946L282.451 193.309C282.451 193.943 282.3 194.568 282.01 195.131Z" fill="#2E58DB"/>
<path d="M280.041 187.375C279.518 187.4 278.994 187.321 278.501 187.144C278.008 186.966 277.555 186.693 277.168 186.34C276.781 185.987 276.467 185.561 276.245 185.086C276.023 184.612 275.897 184.098 275.874 183.574C275.842 182.95 275.96 182.327 276.218 181.758C276.457 181.225 276.81 180.751 277.252 180.369C277.694 179.986 278.214 179.706 278.776 179.547L278.756 181.192L279.66 179.402C280.717 179.352 281.751 179.725 282.533 180.438C283.316 181.15 283.783 182.145 283.833 183.202C283.882 184.259 283.509 185.293 282.797 186.075C282.084 186.858 281.09 187.325 280.033 187.375H280.041Z" fill="#2E58DB"/>
<path d="M289.724 180.92C288.669 180.97 287.637 180.598 286.855 179.887C286.074 179.176 285.607 178.184 285.557 177.128C285.507 176.073 285.879 175.041 286.59 174.259C287.301 173.478 288.293 173.011 289.349 172.961C290.095 172.925 290.836 173.1 291.486 173.467L290.781 175.4L292.231 174.007C293.009 174.718 293.473 175.709 293.521 176.762C293.539 177.13 293.505 177.5 293.419 177.859C293.22 178.701 292.752 179.456 292.085 180.009C291.418 180.561 290.589 180.881 289.724 180.92Z" fill="#2E58DB"/>
<path opacity="0.1" d="M288.587 169.181C287.666 169.283 286.771 169.57 285.847 169.627C284.924 169.684 283.909 169.462 283.323 168.743C283.008 168.357 282.852 167.868 282.584 167.447C282.333 167.054 281.988 166.729 281.581 166.5C281.34 167.004 281.208 167.552 281.193 168.109C281.178 168.667 281.28 169.221 281.493 169.737C281.706 170.252 282.024 170.717 282.429 171.101C282.833 171.486 283.313 171.781 283.839 171.967C284.364 172.154 284.923 172.228 285.479 172.185C286.035 172.142 286.576 171.982 287.066 171.716C287.557 171.451 287.986 171.085 288.326 170.643C288.666 170.2 288.909 169.692 289.039 169.15C288.886 169.155 288.735 169.167 288.587 169.181Z" fill="black"/>
<path opacity="0.1" d="M289.724 180.92C289.036 180.954 288.351 180.81 287.735 180.501C287.12 180.191 286.595 179.728 286.213 179.155C285.83 178.582 285.603 177.919 285.553 177.232C285.504 176.545 285.633 175.857 285.929 175.235C286.246 175.449 286.518 175.722 286.731 176.039C287.015 176.468 287.186 176.963 287.521 177.358C288.141 178.089 289.204 178.327 290.167 178.282C291.131 178.236 292.057 177.966 293.01 177.878C293.14 177.878 293.277 177.855 293.41 177.853C293.213 178.695 292.746 179.45 292.081 180.004C291.416 180.557 290.588 180.879 289.724 180.92Z" fill="black"/>
<path opacity="0.1" d="M280.041 187.375C279.518 187.4 278.994 187.322 278.501 187.144C278.008 186.966 277.555 186.693 277.168 186.34C276.781 185.987 276.467 185.561 276.245 185.086C276.023 184.612 275.897 184.098 275.874 183.575C275.842 182.95 275.96 182.328 276.218 181.758C276.549 181.975 276.838 182.249 277.071 182.568C277.381 183.006 277.574 183.509 277.924 183.913C278.597 184.663 279.728 184.927 280.749 184.902C281.769 184.876 282.687 184.638 283.671 184.564C283.428 185.348 282.949 186.039 282.3 186.542C281.65 187.045 280.862 187.336 280.041 187.375Z" fill="black"/>
<path opacity="0.1" d="M282.011 195.131C281.796 195.609 281.489 196.039 281.108 196.399C280.727 196.758 280.279 197.038 279.79 197.224C279.3 197.41 278.779 197.498 278.256 197.482C277.732 197.467 277.217 197.348 276.739 197.134C276.262 196.919 275.831 196.612 275.472 196.231C275.113 195.85 274.833 195.402 274.647 194.913C274.461 194.423 274.373 193.902 274.388 193.379C274.404 192.855 274.522 192.34 274.737 191.863C275.065 192.08 275.359 192.343 275.613 192.644C275.991 193.107 276.241 193.63 276.681 194.065C277.497 194.864 278.813 195.202 279.984 195.225C280.661 195.234 281.338 195.203 282.011 195.131Z" fill="black"/>
<path d="M272.048 201.001C272.048 201.001 275.194 200.904 276.144 200.227C277.093 199.551 280.976 198.744 281.223 199.83C281.47 200.915 285.955 205.23 282.4 205.247C278.844 205.264 274.14 204.679 273.193 204.11C272.247 203.542 272.048 201.001 272.048 201.001Z" fill="#656380"/>
<path opacity="0.2" d="M282.462 204.869C278.909 204.897 274.202 204.301 273.256 203.732C272.537 203.294 272.247 201.717 272.153 200.989H272.048C272.048 200.989 272.247 203.527 273.185 204.116C274.123 204.704 278.835 205.275 282.391 205.253C283.417 205.253 283.772 204.878 283.753 204.338C283.619 204.659 283.227 204.863 282.462 204.869Z" fill="black"/>
<path d="M99.258 194.037C97.1945 190.217 99.5423 185.539 102.225 182.134C104.909 178.728 108.194 175.187 108.123 170.847C108.021 164.611 101.404 160.93 96.1173 157.624C92.1943 155.171 88.5755 152.262 85.3363 148.958C84.0374 147.631 82.7782 146.215 82.0222 144.521C80.9307 142.082 80.9592 139.311 81.0302 136.639C81.2576 127.733 81.6972 118.844 82.3491 109.973" stroke="#3F3D56" stroke-width="4" stroke-miterlimit="10"/>
<path d="M72.2949 109.486C72.3727 107.859 72.858 106.278 73.7063 104.887C74.5545 103.497 75.7385 102.342 77.1496 101.528L79.3268 105.834L79.2614 100.621C81.2394 100.038 83.3514 100.099 85.2925 100.795C87.2336 101.491 88.9034 102.785 90.0607 104.492C91.218 106.199 91.803 108.229 91.7311 110.29C91.6593 112.351 90.9344 114.335 89.6611 115.957C88.3877 117.579 86.6319 118.754 84.647 119.313C82.6622 119.872 80.5511 119.786 78.6185 119.067C76.6859 118.348 75.0319 117.033 73.8953 115.312C72.7586 113.592 72.1982 111.555 72.2949 109.495V109.486Z" fill="#3CBCF7"/>
<path d="M89.6389 175.303C90.6167 177.209 92.1964 178.738 94.1327 179.654C96.069 180.569 98.2535 180.819 100.347 180.366C102.44 179.912 104.325 178.78 105.708 177.145C107.092 175.51 107.896 173.464 107.997 171.324C108.065 169.979 107.849 168.635 107.364 167.379C106.653 165.537 105.399 163.954 103.768 162.842C102.137 161.729 100.206 161.14 98.2318 161.151C96.2575 161.162 94.3334 161.774 92.7152 162.906C91.0971 164.037 89.8615 165.634 89.1727 167.484L95.2468 172.424L88.5645 170.869C88.5617 172.412 88.9302 173.933 89.6389 175.303Z" fill="#3CBCF7"/>
<path d="M94.4402 156.425C96.8247 156.534 99.1661 155.762 101.019 154.257C102.871 152.751 104.105 150.617 104.486 148.26C104.867 145.904 104.368 143.49 103.084 141.477C101.801 139.465 99.8216 137.995 97.5241 137.347L97.5752 141.352L95.3867 136.994H95.3611C92.7841 136.874 90.2649 137.783 88.3577 139.52C86.4505 141.257 85.3115 143.681 85.1912 146.258C85.071 148.835 85.9794 151.354 87.7166 153.261C89.4537 155.168 91.8774 156.307 94.4544 156.427L94.4402 156.425Z" fill="#3CBCF7"/>
<path d="M70.8315 140.715C72.3371 140.789 73.8392 140.511 75.2192 139.904C76.5991 139.298 77.8192 138.379 78.7831 137.22C79.7469 136.061 80.4282 134.693 80.7732 133.226C81.1181 131.759 81.1173 130.231 80.7707 128.764C80.4241 127.297 79.7413 125.931 78.7761 124.773C77.8109 123.615 76.5898 122.697 75.2092 122.092C73.8285 121.487 72.3261 121.211 70.8206 121.286C69.315 121.361 67.8475 121.785 66.5339 122.524L68.2393 127.234L64.7177 123.832C63.7763 124.689 63.013 125.722 62.4717 126.874C61.9303 128.026 61.6214 129.274 61.5627 130.545C61.5176 131.445 61.6008 132.347 61.81 133.223C62.2934 135.283 63.436 137.13 65.0641 138.482C66.6923 139.834 68.7173 140.618 70.8315 140.715Z" fill="#3CBCF7"/>
<path opacity="0.1" d="M73.6026 112.079C75.848 112.326 78.0309 113.022 80.282 113.162C82.5331 113.301 85.0088 112.764 86.4328 111.013C87.2002 110.069 87.5839 108.875 88.232 107.846C88.846 106.888 89.6877 106.096 90.6821 105.541C91.3013 106.774 91.6512 108.124 91.7087 109.502C91.7662 110.88 91.5299 112.255 91.0156 113.534C90.5012 114.814 89.7205 115.97 88.7254 116.925C87.7302 117.88 86.5433 118.613 85.2434 119.074C83.9435 119.535 82.5603 119.715 81.1858 119.601C79.8112 119.486 78.4766 119.081 77.2706 118.412C76.0646 117.742 75.0148 116.824 74.1908 115.718C73.3667 114.612 72.7874 113.343 72.4912 111.996C72.8692 112.013 73.2387 112.039 73.6026 112.079Z" fill="black"/>
<path opacity="0.1" d="M70.8314 140.715C72.5074 140.792 74.1748 140.435 75.672 139.678C77.1691 138.921 78.4451 137.789 79.376 136.394C80.307 134.998 80.8613 133.385 80.9852 131.712C81.1091 130.039 80.7984 128.362 80.0832 126.844C79.311 127.364 78.6469 128.028 78.1277 128.8C77.4342 129.846 77.0163 131.054 76.2006 132.015C74.6856 133.794 72.0991 134.377 69.7514 134.271C67.4036 134.166 65.1383 133.496 62.8019 133.282C62.4779 133.254 62.1482 133.231 61.8213 133.223C62.3042 135.281 63.445 137.127 65.0709 138.479C66.6968 139.831 68.7192 140.616 70.8314 140.715Z" fill="black"/>
<path opacity="0.1" d="M94.4401 156.425C96.0997 156.503 97.7516 156.154 99.2382 155.412C100.725 154.67 101.996 153.56 102.932 152.187C103.867 150.814 104.436 149.224 104.582 147.569C104.728 145.914 104.448 144.249 103.769 142.733C102.968 143.265 102.271 143.94 101.714 144.723C100.958 145.789 100.486 147.017 99.6018 148C97.9618 149.828 95.2047 150.473 92.7177 150.413C90.3102 150.362 87.9909 149.771 85.5977 149.586C86.1902 151.496 87.3569 153.178 88.9391 154.401C90.5213 155.625 92.4421 156.332 94.4401 156.425Z" fill="black"/>
<path opacity="0.1" d="M89.6387 175.303C90.6165 177.209 92.1962 178.738 94.1325 179.654C96.0688 180.569 98.2533 180.819 100.346 180.366C102.44 179.912 104.324 178.78 105.708 177.145C107.091 175.51 107.896 173.463 107.997 171.324C108.065 169.979 107.849 168.635 107.363 167.379C106.563 167.905 105.845 168.545 105.232 169.28C104.308 170.417 103.697 171.685 102.628 172.737C100.638 174.687 97.4295 175.494 94.5729 175.579C92.9242 175.585 91.2765 175.493 89.6387 175.303Z" fill="black"/>
<path d="M166.567 199.716L129.048 207.39L128.196 207.305L95.2246 203.979V162.197L135.586 155.376L164.862 158.787L164.87 158.971L164.873 159.062L166.567 199.716Z" fill="#1890FF"/>
<path opacity="0.1" d="M166.567 199.716L129.048 207.39L128.195 207.305V164.471L164.87 158.971L166.567 199.716Z" fill="black"/>
<path opacity="0.05" d="M164.873 159.062L164.862 159.071L128.196 164.471L95.2246 162.197L135.586 155.376L164.862 158.787L164.87 158.971L164.873 159.062Z" fill="black"/>
<path d="M207.781 201.421L170.262 209.096L169.409 209.01L136.438 205.685V163.903L176.799 157.081L206.075 160.492L206.084 160.677L206.087 160.768L207.781 201.421Z" fill="#0B3F9C"/>
<path opacity="0.3" d="M207.781 201.421L170.262 209.096L169.409 209.01V166.177L206.084 160.677L207.781 201.421Z" fill="black"/>
<path opacity="0.15" d="M206.087 160.768L206.075 160.776L169.409 166.176L136.438 163.903L176.799 157.081L206.075 160.492L206.084 160.677L206.087 160.768Z" fill="black"/>
<path d="M181.916 160.492L144.397 168.166L143.544 168.081L110.573 164.756V122.973L150.934 116.152L180.21 119.563L180.219 119.747L180.222 119.838L181.916 160.492Z" fill="#0B3F9C"/>
<path opacity="0.3" d="M181.915 160.492L144.397 168.166L143.544 168.081V125.247L180.218 119.747L181.915 160.492Z" fill="black"/>
<path opacity="0.15" d="M180.221 119.838L180.21 119.847L143.544 125.247L110.573 122.973L150.934 116.152L180.21 119.563L180.219 119.747L180.221 119.838Z" fill="black"/>
<path d="M203.232 162.243L183.652 166.25L183.205 166.205L165.998 164.468V142.662L187.062 139.101L202.343 140.883L202.349 140.979V141.025L203.232 162.243Z" fill="#0B3F9C"/>
<path opacity="0.3" d="M203.233 162.243L183.652 166.251L183.206 166.205V143.85L202.349 140.979L203.233 162.243Z" fill="black"/>
<path opacity="0.15" d="M202.349 141.025L202.343 141.031L183.205 143.85L165.998 142.662L187.062 139.101L202.343 140.883L202.349 140.979V141.025Z" fill="black"/>
<path d="M150.649 119.892L131.069 123.897L130.622 123.854L113.415 122.118V100.311L134.479 96.75L149.76 98.5321L149.765 98.6288V98.6743L150.649 119.892Z" fill="#0B3F9C"/>
<path opacity="0.3" d="M150.65 119.892L131.069 123.897L130.623 123.855V101.5L149.766 98.6289L150.65 119.892Z" fill="black"/>
<path opacity="0.15" d="M149.765 98.6742L149.76 98.6799L130.622 101.5L113.415 100.311L134.479 96.75L149.76 98.5321L149.765 98.6288V98.6742Z" fill="black"/>
<path d="M185.042 119.04L165.461 123.044L165.015 123.002L147.808 121.265V99.4589L168.872 95.8975L184.152 97.6796L184.158 97.7762V97.8217L185.042 119.04Z" fill="#1890FF"/>
<path opacity="0.1" d="M185.042 119.04L165.461 123.044L165.015 123.002V100.647L184.158 97.7761L185.042 119.04Z" fill="black"/>
<path opacity="0.05" d="M184.158 97.8217L184.152 97.8274L165.015 100.647L147.808 99.4589L168.872 95.8975L184.152 97.6796L184.158 97.7762V97.8217Z" fill="black"/>
<path d="M195.274 97.1537L175.694 101.159L175.247 101.116L158.04 99.3792V77.5729L179.104 74.0115L194.385 75.7936L194.391 75.8903V75.9357L195.274 97.1537Z" fill="#0B3F9C"/>
<path opacity="0.3" d="M195.274 97.1535L175.693 101.158L175.247 101.116V78.7609L194.39 75.8901L195.274 97.1535Z" fill="black"/>
<path opacity="0.05" d="M194.391 75.9357L194.385 75.9414L175.247 78.761L158.04 77.5729L179.104 74.0115L194.385 75.7936L194.391 75.8903V75.9357Z" fill="black"/>
<path d="M208.611 52.5747C208.403 54.4222 206.993 55.9116 206.47 57.6909C205.686 60.3769 207.039 63.2618 208.903 65.3651C210.406 67.0363 212.225 68.3928 214.256 69.3559C216.287 70.319 218.488 70.8696 220.733 70.9759C221.393 71.0326 222.057 70.9602 222.689 70.7627C223.251 70.5337 223.758 70.1867 224.175 69.7451C225.574 68.3382 226.327 66.3912 226.625 64.4272C226.924 62.4631 226.81 60.465 226.693 58.4839C226.693 58.0739 226.618 57.6674 226.472 57.2844C226.281 56.9202 226.019 56.5982 225.702 56.3379C224.693 55.4115 223.582 54.6037 222.39 53.9305C221.879 53.6462 221.33 53.362 221.003 52.8703C220.779 52.4787 220.633 52.0471 220.574 51.5998L220.207 49.7352C220.142 49.1976 219.959 48.6811 219.67 48.2231C219.025 47.3533 217.789 47.234 216.706 47.1913L212.726 47.035C211.49 46.9867 209.864 46.6314 208.656 46.8758C207.519 47.1004 207.903 48.1407 208.108 49.0843C208.404 50.2256 208.572 51.3962 208.611 52.5747Z" fill="#FFC0C6"/>
<path opacity="0.1" d="M208.611 52.5747C208.403 54.4222 206.993 55.9116 206.47 57.6909C205.686 60.3769 207.039 63.2618 208.903 65.3651C210.406 67.0363 212.225 68.3928 214.256 69.3559C216.287 70.319 218.488 70.8696 220.733 70.9759C221.393 71.0326 222.057 70.9602 222.689 70.7627C223.251 70.5337 223.758 70.1867 224.175 69.7451C225.574 68.3382 226.327 66.3912 226.625 64.4272C226.924 62.4631 226.81 60.465 226.693 58.4839C226.693 58.0739 226.618 57.6674 226.472 57.2844C226.281 56.9202 226.019 56.5982 225.702 56.3379C224.693 55.4115 223.582 54.6037 222.39 53.9305C221.879 53.6462 221.33 53.362 221.003 52.8703C220.779 52.4787 220.633 52.0471 220.574 51.5998L220.207 49.7352C220.142 49.1976 219.959 48.6811 219.67 48.2231C219.025 47.3533 217.789 47.234 216.706 47.1913L212.726 47.035C211.49 46.9867 209.864 46.6314 208.656 46.8758C207.519 47.1004 207.903 48.1407 208.108 49.0843C208.404 50.2256 208.572 51.3962 208.611 52.5747Z" fill="black"/>
<path d="M233.882 135.787L232.193 154.296C231.753 159.15 231.304 164.025 230.44 168.817C230.155 170.469 229.792 172.111 229.377 173.74C228.223 178.262 226.549 182.682 226.009 187.318C225.991 187.451 225.977 187.602 225.963 187.724C225.852 188.748 225.756 189.782 225.395 190.737C225.11 191.445 224.71 192.09 224.417 192.789C223.848 194.188 223.757 195.734 223.686 197.249C221.637 196.092 219.394 195.322 217.067 194.975C215.93 194.807 214.693 194.691 213.94 193.838C213.087 192.912 213.187 191.493 213.329 190.248C213.776 186.383 214.221 182.519 214.665 178.657C214.813 176.996 215.098 175.349 215.518 173.734C215.671 173.197 215.856 172.669 216.043 172.14C216.302 171.412 216.563 170.685 216.76 169.937C217.032 168.736 217.22 167.518 217.322 166.29C217.78 162.402 218.331 158.522 218.815 154.637L218.84 154.432C219.565 148.543 220.116 142.625 219.957 136.693C219.934 135.815 219.898 134.937 219.841 134.056C219.761 132.779 219.645 132.103 220.693 131.304C221.862 130.423 223.399 129.806 224.735 129.229C225.454 128.917 233.373 126.103 233.546 126.722C233.914 128.039 234.105 129.398 234.115 130.764C234.131 132.441 234.053 134.118 233.882 135.787Z" fill="#605D82"/>
<path opacity="0.1" d="M230.439 168.817C230.155 170.469 229.791 172.111 229.376 173.74C228.222 178.262 226.548 182.682 226.008 187.318C225.991 187.451 225.977 187.602 225.963 187.724C222.433 182.682 219.46 177.259 216.015 172.163C216.273 171.435 216.535 170.707 216.731 169.96C217.014 168.752 217.211 167.526 217.322 166.29C217.78 162.402 218.331 158.522 218.814 154.637L218.84 154.432C219.039 155.257 219.325 156.058 219.693 156.823C222.006 161.524 227.503 163.9 230.192 168.399C230.281 168.54 230.364 168.679 230.439 168.817Z" fill="black"/>
<path d="M201.794 127.484C201.911 131.253 202.513 134.991 203.116 138.714L204.358 146.388C205.037 150.595 205.748 154.884 207.737 158.65C209.227 161.47 211.37 163.874 213.311 166.401C218.081 172.614 221.665 179.655 226.187 186.05C227.503 187.909 229.382 189.921 231.624 189.532C233.097 189.279 234.165 188.051 235.319 187.107C236.684 185.993 238.326 185.178 239.401 183.779C240.475 182.381 240.686 180.061 239.23 179.067C238.733 178.728 238.127 178.6 237.565 178.384C235.311 177.532 233.85 175.326 232.923 173.098C231.997 170.869 231.431 168.479 230.195 166.407C227.506 161.907 222.006 159.531 219.692 154.827C218.396 152.195 218.271 149.143 218.174 146.224L217.921 138.745C217.893 137.927 217.873 137.077 218.206 136.329C219.09 134.34 221.761 134.152 223.927 133.899C226.383 133.612 228.763 132.862 230.939 131.688C232.187 131.014 233.404 130.156 234.066 128.905C234.674 127.768 234.757 126.43 234.828 125.139L235.578 111.584C235.643 110.419 235.7 109.211 235.294 108.119C234.262 105.374 230.794 104.476 227.864 104.606C222.412 104.851 217.381 107.196 212.231 108.782C210.955 109.174 209.673 109.526 208.357 109.791C207.22 110.021 205.799 109.927 204.707 110.297C202.752 110.956 202.8 115.237 202.525 117.01C201.956 120.471 201.711 123.978 201.794 127.484Z" fill="#605D82"/>
<path d="M230.885 190.106C231.366 190.592 231.522 191.303 231.647 191.973C232.342 195.696 232.703 199.473 232.727 203.26C232.696 203.614 232.766 203.969 232.929 204.284C233.065 204.47 233.249 204.617 233.46 204.71C234.85 205.372 236.462 204.448 237.622 203.434C239.768 201.555 241.584 199.031 241.706 196.18C241.737 195.447 241.655 194.705 241.783 193.98C241.97 192.906 242.599 191.971 243.15 191.033C244.093 189.434 244.856 187.735 245.424 185.968C245.634 185.303 245.776 184.467 245.253 184.004C245.07 183.858 244.861 183.749 244.636 183.682L238.355 181.352C237.809 181.15 236.456 184.626 236.243 185.007C235.717 185.936 235.194 186.462 234.14 186.678C233.085 186.894 231.783 186.582 230.777 187.119C229.072 188.025 229.922 189.137 230.885 190.106Z" fill="#535070"/>
<path d="M221.199 192.252C221.082 192.02 220.92 191.814 220.721 191.647C220.431 191.462 220.1 191.35 219.757 191.32C218.564 191.115 217.148 190.982 216.321 191.871C215.548 192.704 215.682 194.06 215.036 194.998C214.832 195.282 214.553 195.538 214.377 195.85C214.158 196.329 214.06 196.854 214.093 197.38C214.059 198.826 214.024 200.279 214.127 201.723C214.209 202.933 214.411 204.204 215.17 205.153C216.386 206.677 218.581 206.896 220.525 206.992L222.102 207.075C222.536 207.126 222.976 207.085 223.393 206.955C223.651 206.836 223.883 206.667 224.075 206.456C224.266 206.246 224.413 205.999 224.507 205.73C225.328 203.69 224.029 201.492 223.228 199.446C222.304 197.09 222.469 194.478 221.199 192.252Z" fill="#535070"/>
<path d="M208.155 42.1576C208.135 41.9508 208.165 41.7421 208.243 41.5494C208.474 41.1429 209.076 41.2652 209.531 41.3675C211.359 41.8279 213.286 41.4101 215.17 41.5181C217.055 41.6261 219.175 42.5669 219.553 44.4145C220.92 43.4469 222.098 42.2369 223.029 40.8445C223.552 40.0629 224.007 39.1675 223.936 38.2296C223.833 36.8766 222.699 35.8647 221.662 35.0064L218.535 32.4483C218.124 32.0705 217.648 31.7684 217.131 31.5558C216.409 31.3085 215.619 31.4279 214.857 31.4279C212.584 31.4279 210.145 30.3904 208.118 31.4279C207.266 31.8628 206.632 32.6103 206.018 33.3379L203.224 36.6464C203.012 36.8573 202.858 37.1184 202.775 37.4053C202.695 37.8089 202.903 38.2068 202.977 38.6133C203.107 39.3523 202.789 40.1424 203.033 40.853C203.44 42.0297 204.872 42.1974 205.748 42.8739C206.072 43.124 206.583 43.9796 206.973 43.9682C207.658 43.954 208.135 42.7034 208.155 42.1576Z" fill="#3F3D56"/>
<path d="M212.897 51.9152C217.841 51.9152 221.85 47.9066 221.85 42.9619C221.85 38.0171 217.841 34.0085 212.897 34.0085C207.952 34.0085 203.943 38.0171 203.943 42.9619C203.943 47.9066 207.952 51.9152 212.897 51.9152Z" fill="#FFC0C6"/>
<path d="M214.994 62.5541C214.691 61.6863 214.12 60.9373 213.363 60.4152C212.606 59.8931 211.703 59.6249 210.784 59.6492C210.521 59.6995 210.248 59.6647 210.006 59.5497C209.868 59.4448 209.758 59.3083 209.684 59.1518C209.142 58.1719 208.704 57.1372 208.38 56.0651C208.238 55.5904 208.042 55.0304 207.561 54.9082C207.175 54.8087 206.78 55.0589 206.521 55.363C206.292 55.6894 206.043 56.0016 205.776 56.2981C204.639 57.3043 202.65 56.3862 201.459 57.31C201.263 57.4606 201.101 57.6539 200.89 57.7932C200.686 57.9179 200.465 58.0135 200.234 58.0774C197.922 58.8295 195.656 59.715 193.446 60.7293C194.242 65.5158 195.055 70.3932 196.92 74.8699C197.806 77.0016 198.81 79.0907 199.52 81.2878C201.095 86.1567 201.163 91.3667 201.183 96.4857C201.183 99.9875 201.183 103.563 200.046 106.877C199.79 107.628 199.478 108.372 199.407 109.151C199.336 109.93 199.569 110.811 200.208 111.277C200.578 111.521 201.003 111.671 201.445 111.712C203.409 111.996 205.387 111.479 207.32 111.03C212.501 109.83 217.788 109.143 223.06 108.472L231.9 107.335C232.534 107.291 233.155 107.13 233.731 106.86C235.348 105.976 235.501 103.543 234.495 101.997C234.015 101.255 233.335 100.647 232.929 99.8624C232.523 99.0779 232.491 97.9751 233.188 97.4322C234.609 96.3237 234.182 94.2687 234.251 92.4724C234.44 87.4471 234.415 82.4257 234.174 77.4081C234.102 76.3675 234.085 75.3239 234.123 74.2815C234.222 72.5136 234.66 70.7826 235.098 69.063L237.784 58.4896C237.082 57.3811 235.737 56.6762 234.467 56.3578C233.196 56.0395 231.869 55.9457 230.615 55.5563C228.057 54.7604 225.761 52.7424 223.08 52.93C222.877 52.9336 222.677 52.9821 222.495 53.0721C221.892 53.416 221.986 54.2858 221.949 54.9793C221.864 56.517 220.733 57.7989 219.488 58.6999C218.243 59.6009 216.816 60.2546 215.67 61.2807C215.472 61.4307 215.308 61.6224 215.191 61.8424C215.074 62.0624 215.007 62.3053 214.994 62.5541Z" fill="#1890FF"/>
<path d="M179.519 72.5846C178.926 72.9702 178.295 73.2949 177.637 73.5539C177.012 73.8011 176.344 73.9973 175.832 74.4293C175.579 74.6491 175.366 74.9117 175.204 75.2052C174.901 75.7427 174.748 76.3516 174.76 76.9684C174.773 77.5852 174.951 78.1873 175.276 78.712C175.6 79.2366 176.06 79.6646 176.606 79.9511C177.152 80.2377 177.765 80.3725 178.382 80.3413C179.203 80.2987 179.979 79.9661 180.732 79.6393L187.048 76.8907C188.117 76.4274 189.271 75.8874 189.777 74.8357C189.835 74.7373 189.857 74.6218 189.839 74.5089C189.79 74.385 189.697 74.2837 189.578 74.2246C188.154 73.2987 186.909 72.1241 185.902 70.757C185.644 70.4046 185.334 69.5746 184.959 69.3614C183.623 68.6196 180.59 71.8911 179.519 72.5846Z" fill="#FFC0C6"/>
<path d="M247.03 70.3533L249.358 73.0137C249.858 73.5821 250.359 74.1506 250.813 74.7646C251.932 76.3058 252.83 77.9964 253.479 79.7869C253.985 81.1143 254.406 82.5298 254.23 83.9396C254.112 84.6623 253.916 85.3704 253.647 86.0514C253.221 87.3608 252.691 88.6343 252.064 89.8601C251.54 90.7903 250.948 91.6805 250.293 92.5234C248.49 94.9125 246.517 97.1685 244.39 99.2739C243.594 100.061 243.253 101.337 242.914 102.4C242.275 104.364 240.754 105.897 239.285 107.346C238.812 107.846 238.289 108.295 237.724 108.688C236.878 109.234 235.889 109.515 234.882 109.495C234.443 109.497 234.008 109.407 233.606 109.231C232.6 108.753 232.088 107.591 231.983 106.482C231.89 105.475 232.058 104.461 232.472 103.537C233.808 100.579 237.238 99.2966 239.663 97.1365C241.084 95.8716 242.173 94.2799 243.247 92.7081C243.975 91.7257 244.583 90.6598 245.058 89.5333C245.598 88.0865 245.387 86.3754 245.862 84.9088C246.061 84.2863 246.43 83.7264 246.632 83.1096C246.834 82.4928 246.902 81.7624 246.524 81.2308C246.241 80.8911 245.879 80.6257 245.47 80.4577C243.921 79.6732 242.187 78.6614 241.891 76.9475C241.773 75.9983 242.021 75.0397 242.585 74.2671C243.146 73.5044 243.802 72.8167 244.537 72.2207C245.211 71.6124 246.351 70.9388 247.03 70.3533Z" fill="#FFC0C6"/>
<path d="M178.025 76.2966C177.615 75.4666 177.101 74.6196 176.271 74.2075C175.867 74.0332 175.432 73.9434 174.992 73.9434C174.552 73.9434 174.117 74.0332 173.713 74.2075C172.909 74.5552 172.155 75.0103 171.473 75.5604L169.466 77.0413C169.012 77.3398 168.609 77.7115 168.275 78.1413C167.957 78.6627 167.747 79.2426 167.656 79.8467C167.372 81.2309 167.141 82.6549 167.34 84.0561C167.659 86.33 169.023 88.2969 170.524 90.025C171.462 91.0994 172.621 92.1852 174.048 92.2335C174.665 92.2534 175.35 92.009 175.606 91.449C175.695 91.2266 175.742 90.9895 175.745 90.7498C175.899 88.2258 174.995 85.7615 173.943 83.4621C173.659 82.8368 173.352 82.1887 173.375 81.5037C173.366 81.3874 173.396 81.2715 173.46 81.174C173.55 81.0795 173.671 81.02 173.801 81.0063C175.242 80.7221 177.726 81.842 178.735 80.2417C179.389 79.1844 178.491 77.2374 178.025 76.2966Z" fill="#FFC0C6"/>
<path d="M207.684 39.3408C207.666 39.1337 207.697 38.9253 207.775 38.7325C208.005 38.3232 208.607 38.4483 209.062 38.5506C210.89 39.011 212.817 38.5932 214.701 38.7012C216.586 38.8092 218.703 39.7501 219.084 41.5976C220.45 40.6285 221.628 39.4187 222.56 38.0276C223.083 37.2431 223.538 36.3478 223.467 35.4098C223.365 34.0569 222.228 33.045 221.193 32.1895L218.067 29.6314C217.656 29.2536 217.182 28.9515 216.665 28.7389C215.941 28.4916 215.153 28.611 214.392 28.611C212.118 28.611 209.679 27.5735 207.652 28.611C206.8 29.0459 206.166 29.7934 205.552 30.521L202.755 33.8295C202.545 34.0409 202.391 34.3019 202.309 34.5884C202.229 34.992 202.437 35.3899 202.511 35.7964C202.641 36.5354 202.323 37.3255 202.568 38.0333C202.974 39.2128 204.407 39.3805 205.282 40.057C205.606 40.3071 206.118 41.1627 206.507 41.1513C207.181 41.1371 207.658 39.8865 207.684 39.3408Z" fill="#3F3D56"/>
<path d="M188.668 63.8757C188.308 64.11 187.99 64.4053 187.73 64.7483C187.404 65.2457 187.335 65.8852 187.054 66.3969C186.451 67.5167 185.039 67.9175 184.16 68.8356C184.018 68.9611 183.919 69.1281 183.876 69.3131C183.871 69.5631 183.954 69.8069 184.112 70.0009L188.359 76.6747C189.78 76.7998 191.127 75.913 192.542 76.0323C193.068 76.075 193.611 76.2569 194.117 76.1005C194.479 75.9395 194.818 75.7321 195.126 75.4838C195.979 74.9494 197.093 74.8869 197.801 74.1848C198.508 73.4828 198.568 72.451 198.56 71.4931C198.572 70.6618 198.487 69.8319 198.307 69.0203C197.681 66.4622 195.723 64.4897 194.495 62.2215C193.895 61.1158 193.571 60.4706 192.307 61.2295C191.042 61.9884 189.865 63.0003 188.668 63.8757Z" fill="#1890FF"/>
<path d="M240.231 60.5019C241.029 61.0201 241.749 61.6499 242.368 62.3721C243.014 63.2049 243.38 64.2282 244.003 65.0809C244.625 65.9336 245.424 66.5475 246.106 67.3093C247.143 68.4632 247.845 69.8673 248.533 71.2629C246.849 73.4538 245.015 75.5242 243.042 77.4592C242.822 77.7179 242.532 77.9075 242.206 78.0049C241.986 78.0286 241.763 77.9971 241.557 77.9133C241.352 77.8294 241.171 77.6959 241.03 77.5246C240.723 77.2062 240.507 76.8083 240.214 76.4757C239.524 75.7644 238.605 75.3203 237.619 75.2223C236.641 75.127 235.657 75.1128 234.677 75.1796C234.462 75.2052 234.244 75.1687 234.049 75.0745C233.904 74.9748 233.786 74.8398 233.708 74.6822C232.571 72.7267 232.926 70.271 233.333 68.0369L234.262 62.9207C234.398 61.9439 234.658 60.9886 235.038 60.0784C235.39 59.3252 236.175 58.0461 237.147 58.2735C238.119 58.5009 239.409 59.9107 240.231 60.5019Z" fill="#1890FF"/>
<path d="M159.177 98.0064L139.596 102.011L139.15 101.969L121.942 100.232V78.4257L143.007 74.8643L158.287 76.6464L158.293 76.743V76.7885L159.177 98.0064Z" fill="#1890FF"/>
<path opacity="0.1" d="M159.176 98.0063L139.596 102.011L139.149 101.969V79.6137L158.292 76.7429L159.176 98.0063Z" fill="black"/>
<path opacity="0.05" d="M158.293 76.7885L158.287 76.7942L139.15 79.6138L121.942 78.4257L143.007 74.8643L158.287 76.6464L158.293 76.743V76.7885Z" fill="black"/>
<path d="M169.409 76.4046L149.828 80.4123L149.382 80.3668L132.175 78.6302V56.8239L153.239 53.2625L168.52 55.0446L168.525 55.1412V55.1867L169.409 76.4046Z" fill="#0B3F9C"/>
<path opacity="0.3" d="M169.409 76.4045L149.828 80.4122L149.382 80.3667V58.0119L168.525 55.1411L169.409 76.4045Z" fill="black"/>
<path opacity="0.15" d="M168.525 55.1867L168.52 55.1924L149.382 58.012L132.175 56.8239L153.239 53.2625L168.52 55.0446L168.525 55.1412V55.1867Z" fill="black"/>
</svg>
