<svg width="168" height="70" viewBox="0 0 168 70" fill="none" xmlns="http://www.w3.org/2000/svg">
<path d="M162.597 20.5193C162.597 19.4375 163.417 18.6124 164.457 18.6124C165.478 18.6124 166.298 19.4375 166.298 20.5193C166.298 21.6195 165.478 22.4446 164.457 22.4446C163.417 22.4446 162.597 21.6195 162.597 20.5193ZM164.457 22.8114C165.697 22.8114 166.754 21.8395 166.754 20.5193C166.754 19.2175 165.697 18.2273 164.457 18.2273C163.199 18.2273 162.141 19.2175 162.141 20.5193C162.141 21.8395 163.199 22.8114 164.457 22.8114ZM163.964 20.7027H164.42L165.113 21.8395H165.569L164.821 20.6844C165.204 20.6294 165.496 20.4277 165.496 19.9509C165.496 19.4375 165.186 19.2175 164.566 19.2175H163.563V21.8395H163.964V20.7027ZM163.964 20.3543V19.5475H164.511C164.785 19.5475 165.077 19.6025 165.077 19.9326C165.077 20.336 164.785 20.3543 164.457 20.3543H163.964ZM97.771 23.5448C108.274 23.5448 109.806 23.2148 109.806 34.5466V34.5833C109.806 45.9335 108.256 45.4934 97.7527 45.4934H85.754L85.7722 23.5448H97.771ZM101.527 38.3606V30.7143H93.9233V38.3606H101.527ZM117.392 45.4934H108.803L118.997 23.5632H127.421L137.615 45.4934H129.026L127.822 42.963H118.595L117.392 45.4934ZM123.209 31.3928L120.802 36.6186H125.616L123.209 31.3928ZM65.3854 23.5448C59.8055 23.6365 59.8419 27.3038 59.8419 30.4209C59.8419 33.5748 59.6961 37.4071 65.3854 37.4804V23.5448ZM65.3854 37.4804H76.5088V38.984H60.699V45.4934H78.077C83.7846 45.4017 83.6205 41.5694 83.6205 38.4339C83.6205 35.2801 83.7664 31.4661 78.077 31.3744H66.4795V29.8892H81.9611V23.5632L65.3489 23.5448L65.3854 37.4804ZM13.0197 35.2067L23.2441 45.4934H30.6293V23.5632H22.8429L22.8247 33.8315L12.5984 23.5632H5.23145V45.4934H13.0197V35.2067ZM136.593 34.5099C136.593 45.9151 138.162 45.6034 148.683 45.6034C159.205 45.6034 160.737 45.9151 160.737 34.5099V34.4916C160.737 23.0681 159.205 23.3981 148.683 23.3981C138.162 23.3981 136.593 23.0681 136.593 34.4916V34.5099ZM144.872 38.3239V30.6777H152.476V38.3239H144.872ZM159.843 52.7546V45.31H152.458V52.7546H159.843ZM41.0962 42.963H50.3414L51.545 45.4934H60.1155L49.922 23.5632H41.4974L31.3222 45.4934H39.911L41.0962 42.963ZM48.1168 36.6186H43.3209L45.728 31.3928L48.1168 36.6186Z" fill="white"/>
</svg>
