<svg width="147" height="44" viewBox="0 0 147 44" fill="none" xmlns="http://www.w3.org/2000/svg">
<path d="M82.5684 22.1379V31.8042L77.9519 31.7821C77.9519 28.6401 77.9519 25.4977 77.9519 22.3547L77.9155 21.0368C77.9155 19.1383 76.7601 17.7066 75.0026 17.5658C74.6158 17.5332 74.2264 17.5718 73.8536 17.6797C73.252 17.8221 72.7107 18.1504 72.3068 18.6178C72.1673 18.787 72.0496 18.973 71.9566 19.1716C71.7406 19.6604 71.6175 20.1851 71.5937 20.7188C71.5826 20.8675 71.5747 21.0162 71.5699 21.1665C71.5699 21.3754 71.5699 21.5826 71.5699 21.7851C71.5699 25.1169 71.5699 28.4482 71.5699 31.7789H66.974C66.974 28.4482 66.9766 25.1169 66.9819 21.7851C66.9819 21.5826 66.9819 21.3754 66.974 21.1665C66.974 21.0178 66.9629 20.8691 66.9502 20.722C66.9264 20.1874 66.8039 19.6618 66.5889 19.1716C66.4948 18.9733 66.3766 18.7873 66.2371 18.6178C65.8333 18.1511 65.2928 17.8229 64.6919 17.6797C64.3186 17.5716 63.9286 17.533 63.5413 17.5658C61.7838 17.705 60.63 19.1368 60.6284 21.0368L60.592 22.3547C60.592 25.4977 60.592 28.6401 60.592 31.7821L55.9771 31.8042V22.1379C55.9771 21.6775 55.985 21.214 56.0087 20.7504C56.0087 20.6476 56.0198 20.5495 56.0262 20.4483C56.1942 17.917 57.2005 15.7575 59.4224 14.4365C61.3464 13.2895 63.8599 12.932 66.0168 13.598C67.394 14.0252 68.2941 14.8494 69.2307 15.9062L69.2815 15.9663L69.3306 15.9062C70.2672 14.8494 71.1674 14.0252 72.5461 13.598C74.6951 12.932 77.215 13.2895 79.1405 14.4365C81.3592 15.7591 82.3687 17.917 82.5383 20.4483C82.5383 20.5495 82.5494 20.6492 82.5542 20.7504C82.5605 21.214 82.5684 21.6775 82.5684 22.1379Z" fill="#111111"/>
<path d="M71.5933 22.3609C71.5933 25.5018 71.5933 28.6422 71.5933 31.782H71.5601C71.5601 28.4513 71.5601 25.12 71.5601 21.7882C71.5601 21.5857 71.5601 21.3785 71.5601 21.1696C71.5601 21.0194 71.5712 20.8706 71.5838 20.7219L71.5949 20.7457L71.5933 22.3609Z" fill="#111111"/>
<path d="M142.507 18.4327V25.911C142.507 27.8522 143.911 27.8855 146.577 27.7446V31.9497C140.204 32.6696 137.86 30.8423 137.86 25.9126V18.4327H134.73V13.9776H137.862V11.7881L142.507 7.14001V13.9776H146.577V18.4311L142.507 18.4327Z" fill="#111111"/>
<path d="M97.8413 13.9586L93.8587 25.998L89.1978 13.9586H84.1392L91.4974 31.2963C90.6368 33.7343 89.2787 34.7673 86.7953 34.7341V39.0325C91.3912 39.2809 94.4023 37.0249 96.266 31.8674L102.797 13.9586H97.8413Z" fill="#111111"/>
<path d="M132.079 13.9586H127.452V31.8674H132.079V13.9586Z" fill="#111111"/>
<path d="M121.593 16.2148C119.905 14.3875 117.826 13.4557 115.412 13.4557C112.903 13.4557 110.959 14.3148 109.6 16.0677V6.78735H109.472L104.971 11.2804V31.8755H109.599V29.7603C110.965 31.5132 112.902 32.3723 115.41 32.3723C117.811 32.3723 119.897 31.4784 121.591 29.6527C123.314 27.8255 124.174 25.5695 124.174 22.9179C124.174 20.2664 123.315 18.0421 121.593 16.2148ZM118.116 26.563C117.18 27.4964 115.997 27.962 114.564 27.9599C113.138 27.9599 111.947 27.4964 111.012 26.563C110.077 25.5958 109.611 24.3782 109.613 22.91C109.613 21.4387 110.077 20.2205 111.012 19.2903C111.947 18.3237 113.131 17.8665 114.564 17.8665C115.997 17.8665 117.18 18.33 118.116 19.2903C119.084 20.2237 119.542 21.4387 119.542 22.91C119.542 24.3813 119.084 25.5964 118.116 26.563Z" fill="#111111"/>
<path d="M129.746 4.96838L126.336 8.36389L129.742 11.7722L133.152 8.37668L129.746 4.96838Z" fill="url(#paint0_linear)"/>
<path d="M44.0876 22.0016L35.826 30.2551H35.8165C34.0101 28.4477 31.8643 27.0136 29.5019 26.0352C27.1395 25.0568 24.607 24.5531 22.0494 24.5531C19.4917 24.5531 16.9592 25.0568 14.5968 26.0352C12.2344 27.0136 10.0886 28.4477 8.28217 30.2551H8.26791L0 22.0016L22.0478 0L44.0876 22.0016Z" fill="url(#paint1_linear)"/>
<path d="M33.387 32.6883L22.0557 44L10.7085 32.6883C12.1913 31.1945 13.9572 30.0102 15.9032 29.2046C17.8492 28.399 19.9363 27.9881 22.043 27.996C22.8012 27.9956 23.5585 28.0484 24.3093 28.1542C27.7513 28.6311 30.9409 30.2243 33.387 32.6883Z" fill="url(#paint2_linear)"/>
<defs>
<linearGradient id="paint0_linear" x1="128.038" y1="10.0775" x2="131.441" y2="6.66701" gradientUnits="userSpaceOnUse">
<stop stop-color="#1990F2"/>
<stop offset="1" stop-color="#3CBCF7"/>
</linearGradient>
<linearGradient id="paint1_linear" x1="11.0223" y1="33.0127" x2="33.0302" y2="10.9649" gradientUnits="userSpaceOnUse">
<stop stop-color="#273469"/>
<stop offset="1" stop-color="#2E58DB"/>
</linearGradient>
<linearGradient id="paint2_linear" x1="10.7085" y1="35.9996" x2="33.387" y2="35.9996" gradientUnits="userSpaceOnUse">
<stop stop-color="#1990F2"/>
<stop offset="1" stop-color="#3CBCF7"/>
</linearGradient>
</defs>
</svg>
