<svg width="168" height="70" viewBox="0 0 168 70" fill="none" xmlns="http://www.w3.org/2000/svg">
<g clip-path="url(#clip0)">
<path d="M5.37034 60.0001C3.31273 58.429 1.99847 56.8439 1.04823 54.5835C0.310093 52.583 -0.188839 50.4501 0.0684503 48.235C0.336865 45.4889 0.872305 43.1016 1.38688 40.4346C1.53222 40.2877 1.43139 40.0502 1.52109 39.8808C1.85661 38.3439 2.27036 36.8407 2.60588 35.3037C2.74008 35.27 2.9188 35.2812 3.06413 35.2925L2.89654 35.3262C4.18229 35.4053 5.54662 35.4731 6.85532 35.575C6.93355 35.6769 7.07888 35.6653 7.16824 35.6428C7.27567 35.6565 7.38172 35.6737 7.4888 35.6885C7.6025 35.3733 7.72801 35.0732 7.87717 34.8975C7.39632 33.9709 7.26594 33.8571 6.69573 32.9754C6.69573 32.9754 5.572 31.2575 5.31263 31.0825C5.05325 30.9079 4.82273 30.8204 4.47713 30.6457C4.13118 30.4711 3.73482 30.5063 3.20911 30.3256C2.58293 28.3024 1.53813 25.8409 0.947753 23.3289L1.753 24.1427L4.5039 26.8322L6.12761 28.1657C6.17246 28.5048 6.17246 28.9679 6.32892 29.3182C6.41827 29.7592 6.76492 30.0642 6.9551 30.4711C7.86083 31.7596 8.32395 32.247 9.17405 33.558C9.17405 33.558 9.72131 33.3542 10.0669 33.0629C9.60622 32.83 9.73765 31.3155 9.73765 31.3155C9.64829 30.5245 8.96613 29.8351 9.33503 28.976C9.39101 28.9082 9.51409 28.5803 9.54746 28.4675C9.48036 28.0381 8.92649 27.7602 9.31799 27.2971C9.3625 27.2292 9.18969 26.9759 9.18969 26.874C9.15632 25.9699 9.43551 25.0995 9.52521 24.2295C9.73765 23.8791 9.98381 23.6304 10.3527 23.4497C11.281 23.0653 12.4103 23.0088 13.3609 22.7262C13.4391 22.7828 13.4725 22.6584 13.5511 22.6697C14.0542 22.6697 14.4568 22.2744 14.9599 22.455C15.6981 23.1672 16.4025 23.9016 17.0958 24.6476C17.6103 24.9979 17.8562 25.5289 18.2703 25.9924C18.3819 26.2411 18.6266 26.6245 18.481 26.9183L18.1642 27.2971L18.0463 29.0663C17.957 29.2248 17.9792 29.4282 17.845 29.5751V29.6654L17.8228 29.6429C17.7557 30.061 17.7223 30.4904 17.5881 30.8749C17.5206 31.3267 17.4483 31.8264 17.4149 32.3349C17.3478 33.2052 17.5982 33.5742 17.8662 34.3539C18.0787 34.5686 18.4907 35.0627 18.8269 35.4801C19.2636 36.0223 20.3251 36.9359 21.1898 38.5958C22.0541 40.2558 23.0051 43.2552 23.6678 46.6042C23.8468 47.8699 24.2109 48.8394 23.6966 50.1279C23.0478 50.9755 22.8271 51.0879 21.9099 51.4382C21.9099 51.4382 24.4459 54.7581 24.4459 55.4029C24.4459 55.8485 24.2439 56.0396 24.2439 56.0396H13.3234C12.1419 57.5537 8.74743 59.6722 5.37034 60.0001Z" fill="white"/>
<path d="M14.7845 23.0912C15.4555 23.7384 16.0959 24.406 16.7263 25.0842C17.1939 25.4029 17.4175 25.8857 17.7937 26.307C17.8952 26.533 18.068 26.7898 17.9359 27.0569L17.7732 27.2523L17.5903 29.1016C17.509 29.2453 17.5291 29.4301 17.4074 29.5637V29.6459L17.3869 29.6255C17.3261 30.0057 17.2955 30.3961 17.1734 30.7454C17.1126 31.1561 16.96 31.5982 16.9294 32.0603C16.8685 32.8516 17.1025 33.6425 17.3462 34.3516C17.5396 34.5467 17.5496 34.7726 17.7732 34.937L17.7631 34.9472C18.3323 35.605 18.9626 36.2417 19.5523 36.9406L20.2334 37.7727C20.2435 37.8859 20.3148 37.9575 20.4062 38.0194C21.9719 40.4541 22.3988 43.3618 23.1307 46.1564C23.2934 47.3072 23.7103 48.6428 23.2427 49.814C22.653 50.5846 21.7786 50.9546 20.9452 51.2729C21.87 52.6085 22.9172 53.9238 23.8118 55.2798C23.8219 55.3518 23.8424 55.4133 23.8324 55.4853C23.324 55.4646 22.7851 55.3929 22.2869 55.4031C21.4535 54.1086 20.5585 52.8141 19.6132 51.5811C19.5829 51.5502 19.4915 51.5913 19.4915 51.5298C19.481 51.54 19.4609 51.5502 19.471 51.5709C19.2269 51.5502 18.9425 51.6324 18.6678 51.6426C18.5764 51.7761 18.5562 51.9817 18.5155 52.1563C18.4748 52.3106 18.4644 52.4852 18.373 52.5983C18.5461 52.8243 18.5969 53.0913 18.7898 53.3071C19.1254 54.0366 19.4202 54.797 19.7352 55.5366H17.7937L14.2254 55.5468C14.0627 55.5777 13.8798 55.4955 13.7272 55.5468L13.3103 55.5264C13.4935 55.3929 13.6051 55.1772 13.7678 55.0436C15.4861 55.0127 17.1432 55.1153 18.851 55.0022C18.6375 54.1803 18.2002 53.4202 17.7224 52.6908L17.1126 52.0024C16.6244 51.7761 16.0754 51.6942 15.5775 51.4887L16.1467 49.516C17.0921 49.7317 17.9971 50.1632 18.8813 50.5023C20.3555 48.1291 21.3822 45.4579 21.1687 42.4577L21.0467 41.4714C20.9552 41.379 21.0265 41.276 20.9653 41.1734C20.6604 39.427 19.9285 37.8346 18.6883 36.5091C18.6678 36.5604 18.7391 36.5914 18.7492 36.6325C18.8103 36.9508 18.9626 37.3412 18.6984 37.6083C18.4849 37.8961 18.1087 37.8549 17.824 37.7829C16.9906 37.1975 16.3908 36.2727 15.6996 35.5741C14.764 34.5878 13.6357 33.6527 12.2123 33.7146C11.6737 33.6837 11.1654 33.807 10.6977 33.9405C10.6571 33.9612 10.6672 34.0126 10.6772 34.0329C11.4703 34.1359 12.1413 34.5157 12.8124 34.937C13.7171 35.6665 14.2862 36.6219 14.6016 37.6701C14.022 37.4955 13.4528 37.3001 12.843 37.187C12.9344 37.0742 13.1173 37.0331 13.0867 36.8686C12.9647 36.7042 12.7613 36.7555 12.5784 36.6838L12.3955 36.694C12.3854 36.9097 12.6295 37.0945 12.7717 37.1666C12.5989 37.0945 12.4258 37.0432 12.2429 37.0021C12.3242 36.9097 12.2328 36.7966 12.1208 36.7966C11.9379 36.8275 11.7551 36.694 11.5718 36.7762L11.6532 36.8584C11.5009 36.8173 11.3483 36.7966 11.2061 36.7351C11.2975 36.694 11.3076 36.6219 11.2975 36.5295C11.1351 36.4269 10.8911 36.5295 10.7993 36.3138H10.7485C10.7283 36.3549 10.769 36.396 10.8097 36.4167C10.7283 36.4062 10.647 36.2934 10.5757 36.3858C10.5555 36.5091 10.6672 36.5914 10.7485 36.6325L10.9011 36.6732C9.84383 36.5193 8.73574 36.2417 7.63775 36.0776C7.84114 35.6873 8.1259 35.3482 8.43082 34.9887C7.99378 34.1461 7.35299 33.3857 6.83459 32.5845L5.6149 30.9404C5.37082 30.7865 5.2081 30.5296 4.92369 30.4678C4.50682 30.1905 4.04926 30.0159 3.57154 29.8515C3.00202 28.0123 2.3515 26.2143 1.54834 24.4679L2.28022 25.2076L4.78114 27.6528L5.67574 28.454C5.71642 28.7625 5.71642 29.1835 5.85863 29.5022C5.93999 29.9028 6.25534 30.1804 6.42814 30.55C7.25146 31.7215 8.10539 32.7901 8.87795 33.9816C8.95931 34.0842 9.10186 34.1766 9.0511 34.2898L9.04067 34.3105C9.22355 34.2385 9.33551 34.0227 9.5389 33.9405C10.0267 33.6527 10.5555 33.4475 11.1146 33.3446L11.1755 33.3653C11.2367 33.2522 11.1045 33.211 11.1045 33.0982C11.0739 33.0466 10.962 33.0673 11.0027 32.9749C10.6672 32.8516 10.1487 32.7282 10.1387 32.2556L10.0371 31.146C9.95578 30.4267 9.33551 29.8002 9.67102 29.0194C9.72179 28.9575 9.73187 28.8753 9.76247 28.8036H9.72179C9.79306 28.7727 9.83374 28.6596 9.86434 28.557C9.80315 28.1666 9.31534 27.7966 9.67102 27.3756C9.7117 27.3138 9.75238 27.2523 9.73187 27.17C9.69119 27.2112 9.5389 27.201 9.5389 27.1082C9.50831 26.2863 9.76247 25.4953 9.84383 24.704C10.0371 24.3857 10.2607 24.1597 10.5962 23.9953C11.4401 23.646 12.4664 23.5947 13.3308 23.3378C13.4017 23.3891 13.4323 23.276 13.5036 23.2862C13.9611 23.2862 14.3269 22.9267 14.7845 23.0912Z" fill="#0B3F9C"/>
<path d="M14.7242 23.5535C14.9683 23.8311 15.3341 23.9647 15.4766 24.2932C15.3341 24.3449 15.1919 24.211 15.0497 24.1699C14.5208 23.9439 13.9315 23.8206 13.3721 23.7078V23.6256C13.7584 23.5434 14.2364 23.8926 14.4906 23.4713C14.582 23.3174 14.7041 23.4611 14.7242 23.5535Z" fill="white"/>
<path d="M11.5929 24.0874C11.491 24.7245 11.3283 25.3408 11.2268 25.9677L10.8711 26.091C10.9424 25.495 11.0543 24.8373 11.1965 24.2311C11.3081 24.1387 11.4507 24.1081 11.5929 24.0874Z" fill="white"/>
<path d="M10.333 24.9196L10.1296 26.245C10.0281 26.245 9.96727 26.3887 9.896 26.3578C9.94676 25.8648 10.0688 25.3409 10.1602 24.8374C10.2315 24.7657 10.3636 24.8068 10.333 24.9196Z" fill="white"/>
<path d="M2.636 25.9369C3.55077 26.8614 4.40469 27.7553 5.37057 28.5776C5.51277 28.567 5.40116 28.7111 5.45193 28.7828C5.64524 30.0878 6.65145 31.0534 7.26164 32.1835C7.27172 32.2657 7.17993 32.2348 7.14969 32.2555C7.09892 32.317 7.04816 32.3683 6.97688 32.3788L6.99705 32.3377C6.24465 31.259 5.49261 30.1697 4.69953 29.1117C4.30316 28.5361 3.96765 27.9096 3.48992 27.3751C3.72357 28.0431 4.04901 28.7111 4.28265 29.3991C4.2524 29.4915 4.15088 29.5534 4.05909 29.5122C3.8762 29.4402 3.76425 29.2143 3.69332 29.0396L2.45277 25.7623L2.36133 25.6597C2.47328 25.7415 2.59532 25.8034 2.636 25.9369Z" fill="white"/>
<path d="M14.7856 26.769C14.7449 27.0156 14.9483 27.1801 14.9685 27.4162C15.1413 28.2486 15.1618 29.2656 15.0091 30.1286C14.877 30.4575 14.7651 30.7554 14.6229 31.0738C14.4195 31.4027 14.2265 31.7723 13.8809 31.9677C13.3621 32.4505 12.5694 32.5942 11.9189 32.317C11.5222 32.2962 11.4106 31.4951 10.9429 31.9164C10.8922 32.0292 10.76 32.1114 10.7496 32.2449L10.7089 32.2759C10.6074 32.1114 10.7089 31.8138 10.6783 31.6697C10.7294 31.3925 11.0142 31.3925 11.2378 31.3306L11.6341 31.3819L11.6748 31.3616C11.5729 31.228 11.5222 31.0327 11.4714 30.889C11.2885 30.8169 11.0851 30.9301 10.8717 30.889C10.8004 30.8991 10.6989 30.8991 10.638 30.8376L10.6989 30.8275C10.6989 30.786 10.6481 30.7143 10.6989 30.6525C10.9328 30.4986 11.2273 30.4884 11.502 30.4061C11.6341 30.4778 11.7763 30.365 11.8782 30.4676L12.2947 30.5295C12.366 30.6321 12.478 30.6834 12.5896 30.7347C12.6609 30.6834 12.5287 30.6525 12.5388 30.591L12.5287 30.6114C12.4269 30.5499 12.4373 30.1493 12.2036 30.3341C11.7663 30.3854 11.4412 29.8306 11.0142 30.1799C10.8717 30.2315 10.7701 29.995 10.6582 30.1595L10.5361 30.2726C10.5872 30.0976 10.6481 29.9128 10.7089 29.7589H10.6783C10.8414 29.6869 11.0549 29.8615 11.1766 29.6661L11.1463 29.5945L11.1766 29.6254L11.1867 29.6046L11.1463 29.5635L11.2072 29.5224C11.4412 29.5224 11.7868 29.7484 11.9088 29.4711C11.9189 29.3169 11.817 29.1833 11.695 29.1011C11.4412 29.0807 11.2478 29.2859 11.0142 29.2346C10.8717 29.1528 10.6683 29.0705 10.6175 28.9163C10.7496 28.4746 10.8922 28.0431 11.1258 27.632C11.2579 27.601 11.3595 27.704 11.502 27.6833C11.614 27.9507 11.9189 28.0122 12.1219 28.1766C12.2947 28.2075 12.4575 28.3203 12.6306 28.269C12.6814 28.2381 12.7422 28.3203 12.793 28.2894C12.7422 28.0737 12.4675 27.9401 12.4675 27.6731C12.4474 27.6422 12.3865 27.6422 12.4269 27.601C12.9049 27.5086 13.3726 27.5807 13.7283 27.8171C13.7488 27.8273 13.7689 27.8171 13.7894 27.7964C13.3827 27.5599 12.9964 27.139 12.478 27.2314L12.4881 27.2212L12.3966 27.1695C12.8844 26.8512 13.464 27.2314 13.9522 27.3136L13.9928 27.2827C13.5353 26.9847 13.0471 26.7588 12.5082 26.6766C12.1626 26.6867 11.8782 26.8203 11.5629 26.8923C11.4207 26.7792 11.2885 26.6766 11.3494 26.4506C11.3292 26.4095 11.3699 26.3786 11.3901 26.3582C11.8375 26.1628 12.3358 26.1526 12.8441 26.1832C13.5249 26.3065 14.1757 26.5019 14.7856 26.769Z" fill="white"/>
<path d="M15.6598 27.2521C15.5277 27.2623 15.4464 27.437 15.2937 27.3547C15.3243 27.2212 15.0399 27.1597 15.2023 27.0364C15.3448 27.1186 15.6803 26.9643 15.6598 27.2521Z" fill="white"/>
<path d="M16.5445 27.9921L16.5038 28.0947C16.3515 28.0947 16.2702 27.9408 16.2295 27.8174L16.1787 27.6221C16.3818 27.653 16.443 27.8484 16.5445 27.9921Z" fill="white"/>
<path d="M15.8726 27.6941C15.9133 27.7658 15.954 27.8277 15.954 27.9099C15.9133 27.9819 15.8219 27.951 15.7607 27.9921C15.6592 27.9405 15.598 27.7967 15.5166 27.7251C15.5778 27.5501 15.7711 27.6836 15.8726 27.6941Z" fill="white"/>
<path d="M15.476 27.9404C15.4961 28.0328 15.598 28.0739 15.598 28.1663C15.486 28.2281 15.3946 28.1252 15.3132 28.0637C15.2826 28.0328 15.2322 27.9611 15.2826 27.9302C15.3539 27.92 15.4454 28.0226 15.476 27.9404Z" fill="white"/>
<path d="M16.5026 28.4543C16.4313 28.6086 16.2891 28.5366 16.1671 28.5879C16.045 28.5573 16.0148 28.4132 15.9233 28.3415C15.964 28.2797 16.0555 28.2593 16.1368 28.2488C16.2689 28.2899 16.3906 28.3721 16.5026 28.4543Z" fill="white"/>
<path d="M15.8828 28.5981V28.8448C15.71 28.8037 15.466 28.7931 15.3745 28.6188C15.4152 28.5672 15.3745 28.4748 15.466 28.454C15.6388 28.4235 15.7608 28.5261 15.8828 28.5981Z" fill="white"/>
<path d="M17.0634 28.7829C17.0433 28.8855 16.8805 28.9371 16.7891 29.0194C16.6264 28.9986 16.4536 29.0707 16.3722 28.9062C16.4025 28.896 16.4331 28.8753 16.4432 28.8444C16.4331 28.8036 16.3517 28.7727 16.3315 28.7727C16.4536 28.8342 16.5857 28.8138 16.7178 28.7829C16.7484 28.7418 16.7585 28.6697 16.738 28.6392C16.8705 28.6392 17.0127 28.6595 17.0634 28.7829Z" fill="white"/>
<path d="M15.5374 29.0498C15.5169 29.0907 15.4868 29.0907 15.4463 29.0907L15.4563 28.9885C15.4868 28.9987 15.5169 29.0291 15.5374 29.0498Z" fill="white"/>
<path d="M16.4319 29.2145C16.4625 29.2967 16.3812 29.3684 16.3203 29.3891C16.2084 29.42 16.0863 29.4815 15.9643 29.4095C15.8728 29.3069 15.7814 29.2043 15.7407 29.0809C15.9236 28.9987 16.1169 29.0809 16.2998 29.1733L16.4319 29.2145Z" fill="white"/>
<path d="M17.1133 29.1116L17.1234 29.132C17.1335 29.132 16.9913 29.163 17.0626 29.2146C17.1032 29.235 17.1742 29.2248 17.1742 29.2863C17.154 29.3478 17.1641 29.3787 17.1641 29.4507C17.0626 29.6356 16.92 29.4609 16.7576 29.502L16.6558 29.3892C16.6763 29.2452 16.8592 29.3583 16.8592 29.2041C16.92 29.1837 16.9607 29.1015 17.032 29.132L17.0219 29.1116L17.1032 29.0498C17.1133 29.0603 17.0827 29.1116 17.1133 29.1116Z" fill="white"/>
<path d="M15.801 29.5328C15.8212 29.5739 15.9026 29.5121 15.8925 29.5841C15.8417 29.7074 15.7298 29.7384 15.6282 29.7795C15.5876 29.7384 15.5368 29.6972 15.4655 29.7074C15.3942 29.6252 15.3028 29.5328 15.3536 29.4095L15.4148 29.3582C15.5469 29.4095 15.7197 29.4196 15.801 29.5328Z" fill="white"/>
<path d="M16.8588 29.718L16.5132 30.0262C16.371 29.9851 16.2083 29.9236 16.127 29.7901C16.2389 29.6769 16.3811 29.6769 16.5438 29.6463C16.6252 29.451 16.7062 29.6976 16.8488 29.6358C16.8995 29.6562 16.8387 29.6871 16.8588 29.718Z" fill="white"/>
<path d="M17.3872 29.564H17.3974V29.5953H17.3872V29.564Z" fill="white"/>
<path d="M16.1475 30.0979L16.2594 30.0568C16.2897 30.0776 16.3001 30.1289 16.3001 30.1802C16.1881 30.2624 16.0661 30.437 15.9034 30.3446C15.7104 30.3239 15.7205 30.0979 15.5884 29.9953C15.7003 29.8207 15.8627 30.0568 16.0254 30.0055L16.1475 30.0979Z" fill="white"/>
<path d="M16.9909 30.0159C17.1637 30.0774 17.0316 30.2935 17.0518 30.4267C17.0111 30.5605 16.8689 30.4372 16.7875 30.4372L16.5435 30.2524C16.6554 30.0879 16.9096 30.1185 17.0316 29.9646L16.9909 30.0159Z" fill="white"/>
<path d="M15.4653 30.3753L15.6583 30.5088C15.5773 30.5499 15.4045 30.6423 15.2723 30.5703C15.2216 30.5295 15.1298 30.5703 15.0995 30.488C15.069 30.3545 15.2317 30.4062 15.2112 30.2723C15.3332 30.1595 15.4146 30.2621 15.4653 30.3753Z" fill="white"/>
<path d="M16.7264 30.6837C16.6756 30.807 16.523 30.8172 16.4214 30.8787C16.2893 30.8172 16.096 30.8583 16.0146 30.7044C16.1165 30.6116 16.2281 30.6222 16.3502 30.5603C16.4823 30.5399 16.6349 30.5705 16.7264 30.6837Z" fill="white"/>
<path d="M16.9196 31.1256C16.8789 31.2282 16.9502 31.3516 16.8383 31.3927C16.6961 31.3312 16.5128 31.3002 16.4419 31.146C16.5027 31.1049 16.5942 31.0947 16.6655 31.0638L16.8077 30.8276C16.9401 30.8586 16.8689 31.0332 16.9196 31.1256Z" fill="white"/>
<path d="M15.9337 30.9508L16.1267 31.0741C16.0453 31.1254 15.9946 31.2179 15.8931 31.2386C15.6695 31.1458 15.3441 31.1564 15.2627 30.8686C15.415 30.8377 15.6184 30.8173 15.7404 30.9817L15.9337 30.9508Z" fill="white"/>
<path d="M15.3348 31.2899L15.3452 31.3722C15.1825 31.3103 14.9892 31.5468 14.847 31.362C14.7656 31.3103 14.7451 31.2183 14.7757 31.1255C14.8164 31.0946 14.8265 31.0127 14.8977 31.0127C15.091 31.0127 15.1926 31.1975 15.3348 31.2899Z" fill="white"/>
<path d="M16.5032 31.5671C16.4726 31.6391 16.4218 31.7006 16.3711 31.7417C16.1882 31.7727 16.0762 31.8032 15.8933 31.7214C15.8627 31.6184 15.6493 31.6184 15.7612 31.4849C15.9848 31.4336 16.2288 31.4128 16.4319 31.454L16.5032 31.5671Z" fill="white"/>
<path d="M15.7409 31.8755C15.6088 31.9577 15.4054 31.9886 15.2531 31.9064C15.1819 31.8344 14.999 31.7831 15.0292 31.6597C15.1617 31.5568 15.3647 31.639 15.5174 31.5979C15.5275 31.7212 15.6902 31.7623 15.7409 31.8755Z" fill="white"/>
<path d="M16.787 32.1016C16.787 32.2966 16.6242 32.1838 16.5123 32.2249C16.4007 32.2042 16.3193 32.0914 16.2686 32.0092C16.3395 31.9782 16.4208 32.0295 16.4921 31.9782C16.5836 31.9269 16.6242 31.824 16.7362 31.824C16.8071 31.9164 16.6955 32.0193 16.787 32.1016Z" fill="white"/>
<path d="M15.0393 32.0293C15.0493 32.0602 15.1307 32.1013 15.0699 32.1319C14.9377 32.2141 14.7444 32.2964 14.5921 32.2141C14.5209 32.1319 14.338 32.1425 14.3783 31.9984C14.5817 31.9162 14.8463 31.9984 15.0393 32.0293Z" fill="white"/>
<path d="M16.1165 32.2451C16.0859 32.3993 15.9945 32.4917 15.8418 32.5223C15.6895 32.471 15.4861 32.4401 15.4048 32.276C15.466 32.2349 15.5675 32.1938 15.6287 32.2553C15.6694 32.3375 15.7608 32.3066 15.8217 32.2862C15.903 32.2243 15.9336 32.1115 16.0452 32.1217C16.0758 32.1629 16.0452 32.2349 16.1165 32.2451Z" fill="white"/>
<path d="M14.4704 32.5535C14.4704 32.6357 14.5518 32.687 14.501 32.7692C14.2671 32.7794 13.9826 32.8824 13.8199 32.6255C13.8098 32.5328 13.9319 32.5124 14.0028 32.5022C14.064 32.5328 14.1248 32.5535 14.1961 32.5433C14.2368 32.42 14.4604 32.4098 14.4704 32.5535Z" fill="white"/>
<path d="M15.1611 32.4919V32.5021C15.2324 32.4817 15.3746 32.4919 15.4052 32.5843C15.3541 32.759 15.1205 32.7386 14.9682 32.7899C14.907 32.6564 14.7342 32.636 14.6733 32.5021C14.8256 32.3791 15.0391 32.6666 15.1611 32.4919Z" fill="white"/>
<path d="M16.6353 32.6255C16.6659 32.7387 16.564 32.8413 16.4931 32.9028C16.371 32.9439 16.1881 32.9748 16.0661 32.8722C16.0254 32.8413 15.8829 32.7489 16.0049 32.6768C16.1881 32.6666 16.371 32.492 16.564 32.5331L16.6353 32.6255Z" fill="white"/>
<path d="M7.63874 32.7179C8.0657 33.2728 8.47215 33.8585 8.85878 34.4439C8.7875 34.516 8.77707 34.6804 8.6453 34.6597C8.17731 34.0535 7.74027 33.3859 7.30322 32.7387C7.35399 32.7077 7.36407 32.6048 7.42526 32.6768L7.44543 32.687C7.40475 32.5637 7.58798 32.6153 7.63874 32.7179Z" fill="white"/>
<path d="M13.8305 32.9643C13.7798 33.0672 13.6883 33.1287 13.607 33.2211C13.4342 33.2007 13.1901 33.2419 13.0986 33.0465C13.1188 33.0261 13.1087 32.985 13.1188 32.9541L13.495 33.0465C13.5558 32.9748 13.7492 32.7281 13.8305 32.9643Z" fill="white"/>
<path d="M15.873 33.1082C15.8525 33.1391 15.863 33.1803 15.863 33.2112C15.6189 33.2931 15.324 33.3447 15.1412 33.098C15.1206 33.0875 15.1311 33.0569 15.1311 33.0362C15.2225 33.0056 15.324 32.8823 15.4155 32.9951C15.5782 33.026 15.7308 32.8001 15.863 32.9642L15.873 33.1082Z" fill="white"/>
<path d="M14.7964 33.0568V33.1598C14.6437 33.2213 14.4709 33.2828 14.3489 33.3959C14.2574 33.3137 14.1152 33.2726 14.0947 33.1493C14.1862 33.1183 14.3388 33.0776 14.4709 33.1493C14.5422 33.0259 14.6844 32.9746 14.7964 33.0568Z" fill="white"/>
<path d="M16.5937 33.3034C16.5732 33.509 16.3194 33.4162 16.1973 33.4883C16.0854 33.509 15.9432 33.4781 15.8618 33.4162C15.9126 33.2933 16.0955 33.3136 16.1973 33.2212C16.3291 33.3034 16.5937 32.9851 16.5732 33.3034H16.5937Z" fill="white"/>
<path d="M12.7626 33.4167C12.7626 33.4578 12.7525 33.4887 12.7219 33.5091C12.6406 33.4989 12.5391 33.4782 12.5085 33.3963C12.4984 33.3039 12.61 33.3756 12.651 33.3345C12.6913 33.345 12.7727 33.345 12.7626 33.4167Z" fill="white"/>
<path d="M15.3741 33.6525C15.2928 33.8169 15.1099 33.7555 14.9778 33.7966C14.8762 33.6834 14.7135 33.6627 14.6016 33.5499C14.693 33.3651 14.9371 33.5088 15.0897 33.416C15.1812 33.5292 15.5062 33.3753 15.3741 33.6525Z" fill="white"/>
<path d="M14.0633 33.5807C14.0835 33.704 13.9211 33.632 13.9211 33.7553C13.7584 33.6731 13.5449 33.6731 13.4023 33.5498C13.4938 33.4777 13.677 33.4573 13.8091 33.4675C13.8905 33.437 14.1141 33.3959 14.0633 33.5807Z" fill="white"/>
<path d="M16.9197 33.6323C16.9298 33.6734 16.8891 33.7454 16.9604 33.7556C16.8992 33.8582 16.8384 33.9917 16.7268 34.0638C16.564 34.0328 16.3401 34.0536 16.2998 33.8273C16.3808 33.6323 16.6861 33.8582 16.7268 33.6323C16.7671 33.5297 16.8891 33.5398 16.9197 33.6323Z" fill="white"/>
<path d="M16.0147 33.7966C16.1266 33.8377 16.0759 33.9916 16.1367 34.0738C15.9333 34.1666 15.6791 34.0844 15.5063 33.9505C15.5164 33.8581 15.5164 33.7144 15.6385 33.7144C15.7911 33.7351 15.8419 33.9301 16.0147 33.7966Z" fill="white"/>
<path d="M14.826 33.9711C14.714 34.0123 14.5513 34.1458 14.399 34.0945L14.1348 33.9096C14.2161 33.8478 14.3378 33.8376 14.4192 33.7761C14.5311 33.8787 14.6834 33.93 14.826 33.9711Z" fill="white"/>
<path d="M15.5067 34.228C15.4761 34.4336 15.2424 34.3 15.1405 34.3925C15.0595 34.3823 14.917 34.3823 14.8662 34.2589C14.9375 34.2589 14.9882 34.156 15.0185 34.1047C15.0898 34.1458 15.2118 34.156 15.273 34.0945L15.5067 34.228Z" fill="white"/>
<path d="M17.1126 34.4437C17.1026 34.567 17.0212 34.6492 16.8787 34.6285C16.757 34.6183 16.6245 34.5568 16.5737 34.4335C16.6551 34.2483 16.9092 34.4437 16.9298 34.2075C17.0515 34.2279 17.0515 34.3614 17.1126 34.4437Z" fill="white"/>
<path d="M16.3302 34.3105C16.2388 34.4132 16.4321 34.5776 16.2593 34.6289C16.1679 34.67 16.0559 34.67 15.9645 34.5983L15.7812 34.3928C15.8626 34.3618 15.9846 34.3517 16.066 34.3517C16.1474 34.3207 16.2489 34.3207 16.3302 34.3105Z" fill="white"/>
<path d="M11.2371 34.475C11.2677 34.547 11.349 34.6187 11.3083 34.7009L10.9829 34.9065C10.7694 34.8861 10.4951 34.8141 10.4443 34.5881C10.4847 34.5059 10.5559 34.5983 10.6272 34.5674C10.8306 34.6085 11.0034 34.4339 11.1964 34.475L11.3184 34.4033C11.3389 34.4546 11.2371 34.4237 11.2371 34.475Z" fill="white"/>
<path d="M9.91583 34.4337C9.97703 34.6083 9.77363 34.5363 9.71244 34.5982C9.63108 34.557 9.50904 34.6185 9.45828 34.5261C9.43811 34.4544 9.46836 34.4235 9.53963 34.4133L9.91583 34.4337Z" fill="white"/>
<path d="M15.7511 34.8036C15.6697 34.9062 15.5275 34.9578 15.4055 34.896C15.3648 34.8345 15.192 34.7934 15.2532 34.6803C15.3342 34.6184 15.4563 34.6391 15.5581 34.6184L15.7511 34.8036Z" fill="white"/>
<path d="M12.1622 34.8033C12.1827 34.9059 12.1215 35.0089 12.0301 35.0292C11.8166 35.05 11.5725 35.0805 11.3896 34.9576L11.5319 34.8342C11.5826 34.8648 11.6744 34.8342 11.7353 34.7826C11.8368 34.6902 11.9793 34.7109 12.101 34.7415L12.1622 34.8033Z" fill="white"/>
<path d="M17.5187 34.9061C17.4985 34.9883 17.5593 35.0604 17.5086 35.1218C17.366 35.0192 17.0409 35.1939 17.051 34.8959C17.0917 34.8344 17.1425 34.9163 17.1831 34.8752C17.285 34.7315 17.4168 34.8548 17.5187 34.9061Z" fill="white"/>
<path d="M9.31599 34.8962C9.33615 34.9784 9.30556 35.0195 9.23463 35.0504C9.14319 35.0093 8.98047 35.0093 8.98047 34.8754C9.08234 34.8139 9.25479 34.8347 9.31599 34.8962Z" fill="white"/>
<path d="M16.3202 34.886C16.3202 34.958 16.2489 35.0606 16.1474 35.081C16.0862 35.1632 15.9847 35.1017 15.9033 35.081L15.8828 35.0606C15.944 34.8347 16.1575 34.9784 16.3202 34.886Z" fill="white"/>
<path d="M10.3834 35.0088C10.2819 35.05 10.2207 35.1835 10.099 35.2348C9.92585 35.2552 9.79372 35.0911 9.61084 35.0911V34.9677C9.85492 35.1627 10.0378 34.8237 10.2614 34.9368L10.3834 35.0088Z" fill="white"/>
<path d="M16.5737 34.9372L16.5942 34.927L16.6648 34.9578L16.5737 34.9372Z" fill="white"/>
<path d="M16.8685 35.1219L16.9193 35.1939C16.767 35.3377 16.5838 35.2245 16.4214 35.2452C16.4923 35.1834 16.5128 35.0193 16.6244 35.0601L16.7364 34.9473C16.8379 34.9782 16.7566 35.1219 16.8685 35.1219Z" fill="white"/>
<path d="M12.7517 35.3375C12.7823 35.3684 12.8331 35.3477 12.8738 35.3168C12.6603 35.5122 12.2841 35.502 12.0299 35.4299L11.9385 35.3273C12.0908 35.2142 12.4061 35.3477 12.4875 35.1116C12.5789 35.1731 12.7924 35.1629 12.7517 35.3375Z" fill="white"/>
<path d="M11.3603 35.2657C11.3808 35.4815 11.1367 35.4302 11.0248 35.5226C10.9027 35.3992 10.6892 35.3789 10.5776 35.2555C10.6792 35.1322 10.7706 35.2864 10.8826 35.2759C11.0147 35.2144 11.2382 35.1013 11.3603 35.2657Z" fill="white"/>
<path d="M9.10276 35.4507C9.01132 35.4609 9.052 35.5329 9.03148 35.574C8.90979 35.6253 8.78776 35.5638 8.74708 35.4507L8.72656 35.3379C8.82844 35.3481 9.00089 35.379 9.10276 35.4507Z" fill="white"/>
<path d="M17.896 35.6972L17.8553 35.7383C17.7945 35.6765 17.6825 35.6663 17.6012 35.615C17.5097 35.6048 17.4284 35.5841 17.3672 35.5124C17.3672 35.4505 17.4385 35.4505 17.4892 35.4505C17.6012 35.4713 17.6314 35.2966 17.7333 35.3788C17.8553 35.4403 17.896 35.5739 17.896 35.6972Z" fill="white"/>
<path d="M16.3801 35.5434C16.2886 35.5947 16.2886 35.7181 16.1464 35.646C16.055 35.6049 15.8717 35.5536 15.9023 35.4306C16.0139 35.4099 16.1363 35.3586 16.2378 35.379C16.3192 35.4201 16.2886 35.5332 16.3801 35.5434Z" fill="white"/>
<path d="M10.0885 35.5636C9.93586 35.6149 9.7429 35.7794 9.58018 35.6662C9.5089 35.5945 9.43798 35.4814 9.3667 35.3992C9.61078 35.5123 9.83434 35.5534 10.0885 35.5636Z" fill="white"/>
<path d="M17.1136 35.6151C17.1644 35.6664 17.2663 35.7384 17.2663 35.8105C17.1442 35.8923 17.0017 35.8105 16.8797 35.7897C16.8289 35.7283 16.7274 35.6973 16.7173 35.6049C16.7882 35.502 16.9509 35.6355 17.0424 35.5431C17.1136 35.5125 17.0931 35.5842 17.1136 35.6151Z" fill="white"/>
<path d="M12.2021 35.7488C12.1715 35.8721 11.9987 35.8103 11.9274 35.9132C11.7651 36.0362 11.6023 35.8412 11.4699 35.7691C11.3784 35.6767 11.4497 35.5945 11.5512 35.5639C11.7953 35.5126 11.958 35.7488 12.2021 35.7488Z" fill="white"/>
<path d="M13.2498 35.7282C13.2901 35.7897 13.3106 35.8617 13.3614 35.9232C13.3106 36.0978 13.1277 36.0363 13.0158 36.0774C12.843 36.0567 12.6904 35.9952 12.5381 35.913C12.5075 35.8824 12.5075 35.8413 12.4873 35.8002C12.5586 35.7693 12.7008 35.8719 12.7616 35.7591C12.9751 35.9028 13.0259 35.4815 13.199 35.7282H13.2498Z" fill="white"/>
<path d="M11.0027 35.8205C11.0636 35.8307 11.0942 35.7896 11.1651 35.8103L11.1449 35.954C10.962 35.9952 10.7687 36.0053 10.5959 35.9439C10.4944 35.9027 10.4231 35.8307 10.3115 35.8001C10.3115 35.7074 10.413 35.7179 10.4638 35.6663C10.6164 35.7692 10.8299 35.7485 11.0027 35.8205Z" fill="white"/>
<path d="M18.2622 35.8825C18.2622 35.9439 18.2928 36.0058 18.3335 36.0364C18.3335 36.088 18.2723 36.0775 18.2417 36.0982L18.2115 36.0673C18.0894 36.0982 17.9573 36.0364 17.8454 35.9545L17.8252 35.9338C17.9267 35.8311 18.1503 35.718 18.2622 35.8825Z" fill="white"/>
<path d="M16.7987 36.0366C16.7274 36.129 16.6054 36.0984 16.4833 36.1086C16.3717 36.0984 16.3617 35.9955 16.3105 35.9238C16.3617 35.7903 16.5039 35.8929 16.6054 35.8929L16.7987 36.0366Z" fill="white"/>
<path d="M13.4023 35.9131L13.4834 35.8823L13.4429 35.9131H13.4023Z" fill="white"/>
<path d="M8.46202 35.9748C8.48219 36.0363 8.42134 36.0672 8.39075 36.1185C8.30939 36.0981 8.16718 36.0879 8.17727 35.985C8.23846 35.8722 8.36015 35.9955 8.46202 35.9748Z" fill="white"/>
<path d="M9.34587 36.0979C9.31563 36.17 9.28503 36.2417 9.19324 36.2522C9.06147 36.1904 8.90883 36.1904 8.79688 36.067L8.86815 35.9746C9.01036 36.0466 9.19324 36.0263 9.34587 36.0979Z" fill="white"/>
<path d="M3.39873 36.0364C4.568 36.1085 5.8082 36.17 6.9973 36.2624C7.06857 36.3551 7.20069 36.3446 7.28205 36.3242C9.67101 36.6324 11.9484 37.1974 14.1951 37.8345C15.4047 38.1736 16.5535 38.6462 17.6717 39.1908C17.7631 39.2727 17.753 39.396 17.7836 39.499C17.3667 41.8311 16.9599 44.0916 16.5128 46.3517C16.3296 47.3482 16.0045 48.3757 15.903 49.3107C15.8724 49.3001 15.8825 49.4235 15.8115 49.3929L15.8418 49.4235C15.4148 51.4165 14.7542 53.3277 13.4021 54.9202C13.3002 54.9304 13.3509 55.0537 13.2699 55.0948C11.2568 57.4477 8.52225 59.0707 5.45217 59.3687C3.58161 57.9407 2.29064 55.8756 1.42664 53.8211C0.755602 52.0023 0.45068 50.0194 0.684326 48.0056C0.928403 45.5091 1.55876 43.1052 2.0264 40.6803C2.15852 40.5468 2.06708 40.3311 2.14844 40.1768C2.45336 38.7797 2.82956 37.4132 3.13448 36.016C3.25652 35.9851 3.41889 35.9953 3.55136 36.0055L3.39873 36.0364Z" fill="#0B3F9C"/>
<path d="M12.578 36.2417C12.6389 36.293 12.7306 36.293 12.7915 36.3443C12.7202 36.4269 12.578 36.3854 12.4761 36.4269C12.344 36.3548 12.2018 36.293 12.1611 36.1289C12.1917 36.1289 12.2526 35.995 12.3339 36.0568C12.3847 36.1493 12.4967 36.2209 12.578 36.2417Z" fill="white"/>
<path d="M10.3823 36.1287C10.4841 36.1491 10.3823 36.2415 10.4535 36.2826C10.2703 36.4059 10.0673 36.3648 9.86387 36.3135C9.89446 36.2415 9.76199 36.2622 9.82319 36.1902C9.77243 36.1596 9.71123 36.1287 9.72132 36.0566C9.94523 36.0774 10.1483 36.1698 10.3823 36.1287Z" fill="white"/>
<path d="M17.9057 36.2415C17.7635 36.3957 17.5396 36.2618 17.3567 36.2618L17.2959 36.1592C17.4381 36.0668 17.5907 36.1287 17.7329 36.0566C17.8039 36.0872 17.9158 36.1389 17.9057 36.2415Z" fill="white"/>
<path d="M11.8058 36.2419C11.9887 36.1804 11.8973 36.4576 12.06 36.4886C12.0802 36.6323 11.8973 36.5606 11.8465 36.6014C11.623 36.5089 11.3688 36.4576 11.2568 36.2212C11.2874 36.1495 11.4095 36.0774 11.4804 36.1597C11.5924 36.2212 11.6939 36.2317 11.8058 36.2419Z" fill="white"/>
<path d="M13.7384 36.591L13.6977 36.6834C13.4436 36.663 13.1487 36.6732 13.0166 36.4266C13.1592 36.2417 13.3928 36.4884 13.5454 36.3032C13.6063 36.3854 13.7283 36.4575 13.7384 36.591Z" fill="white"/>
<path d="M17.245 36.5399C17.1636 36.509 17.1028 36.5501 17.0315 36.6221C16.93 36.5708 16.7471 36.6425 16.7266 36.4988C16.7672 36.3241 16.9706 36.4267 17.1028 36.3652L17.245 36.5399Z" fill="white"/>
<path d="M18.4546 36.6733C18.3732 36.8276 18.1803 36.7454 18.0582 36.7454C18.0075 36.7043 17.916 36.7454 17.8955 36.6632C17.9362 36.5191 18.1191 36.6322 18.1903 36.5296C18.2209 36.5296 18.2717 36.5809 18.3023 36.5296C18.3023 36.5089 18.2717 36.4885 18.2616 36.4783C18.3732 36.283 18.3934 36.5809 18.4953 36.5296L18.4546 36.6733Z" fill="white"/>
<path d="M13.8802 36.4886C13.8702 36.4988 13.8497 36.5397 13.8092 36.5296C13.7891 36.4988 13.8598 36.468 13.8802 36.4886Z" fill="white"/>
<path d="M5.45259 36.6116L8.51259 36.9609C8.24835 38.4406 7.89232 39.8686 7.54672 41.3377C7.48587 41.3276 7.46536 41.4098 7.44519 41.4302C5.85939 41.1529 4.27358 41.0296 2.68743 40.8651C2.72811 40.7931 2.64675 40.7829 2.65718 40.7214C2.90091 39.3447 3.19575 38.0706 3.49059 36.735C3.56187 36.6735 3.54135 36.5705 3.56187 36.4883C4.17171 36.581 4.84275 36.5501 5.45259 36.6116Z" fill="white"/>
<path d="M17.7225 36.9094C17.5699 37.0225 17.3769 37.0327 17.2041 36.9301C17.1735 36.9094 17.194 36.8785 17.1836 36.8479C17.3261 36.7348 17.6919 36.6114 17.7225 36.9094Z" fill="white"/>
<path d="M14.104 37.0639C14.1245 37.1152 14.0532 37.1563 14.114 37.1872C14.1345 37.1668 14.1752 37.1872 14.1954 37.177C14.1651 37.1974 14.1345 37.2796 14.104 37.2181C13.9106 37.5161 13.6158 37.1872 13.3721 37.1668C13.3922 37.1563 13.4534 37.0744 13.4329 37.0024C13.6669 37.0744 13.8498 36.879 14.0734 36.9817L14.104 37.0639Z" fill="white"/>
<path d="M18.6376 37.2181C18.617 37.2283 18.6275 37.2592 18.6275 37.2796C18.5562 37.2592 18.5663 37.3618 18.5054 37.3516C18.3326 37.3825 18.3531 37.1977 18.1904 37.2079C18.2412 37.1256 18.3629 37.146 18.4446 37.0947C18.5155 37.1049 18.617 37.1256 18.6376 37.2181Z" fill="white"/>
<path d="M17.896 37.2281C17.9669 37.3104 18.0382 37.4952 18.1908 37.485C18.089 37.4952 17.9975 37.5261 17.8859 37.4952C17.8046 37.4235 17.5605 37.4646 17.6314 37.29C17.6825 37.1565 17.7945 37.29 17.896 37.2281Z" fill="white"/>
<path d="M10.8402 38.1734L10.9316 38.5846C10.8503 38.8822 10.6876 39.2111 10.3927 39.3446L10.342 39.4268C10.1792 40.4335 10.0878 41.5432 9.90492 42.5296C10.5554 42.7762 11.2164 43.0022 11.7856 43.4439C11.7654 43.6392 11.6736 43.9372 11.6736 44.1118C11.1145 43.9165 10.586 43.6803 10.0064 43.5366C9.06108 43.3514 8.10528 43.1564 7.14984 43.0946C6.84492 43.0946 6.62135 43.2077 6.34668 43.0946C6.39744 42.8584 6.37728 42.5914 6.44855 42.3549C7.14984 42.2316 7.94291 42.2214 8.6748 42.324C8.817 42.1392 8.80692 41.8823 8.88828 41.6666C9.12227 40.8549 9.30516 39.9919 9.57948 39.1802C9.6 38.9953 9.366 39.0262 9.41676 38.8309C9.26448 38.7283 9.40668 38.5329 9.34584 38.4096C9.3966 38.0708 9.7728 37.8755 10.0676 37.7729C10.3927 37.7317 10.6775 37.937 10.8402 38.1734Z" fill="white"/>
<path d="M17.2145 39.5092C17.0924 39.8792 17.1536 40.259 17.0618 40.629C16.8991 41.718 16.7062 42.8175 16.6147 43.9271C16.5028 43.9988 16.4012 43.8449 16.2893 43.8344C15.7403 43.6601 15.2017 43.444 14.6423 43.3105L14.6016 43.2693C13.5342 42.9921 12.4772 42.6632 11.3893 42.4271C11.4098 42.386 11.3587 42.3652 11.3281 42.3448C11.5214 42.1084 11.4707 41.7798 11.5621 41.5022C11.8368 40.2696 12.101 39.0056 12.4466 37.8345C14.1343 38.1324 15.6488 38.8823 17.2145 39.5092Z" fill="white"/>
<path d="M21.2914 40.3825L21.2709 40.4956C21.1694 40.5367 21.1085 40.4338 21.0473 40.3621C21.0272 40.3105 21.0678 40.3003 21.1085 40.2901C21.1794 40.2693 21.2813 40.2901 21.2914 40.3825Z" fill="white"/>
<path d="M21.5962 41.0705C21.5455 41.1939 21.5455 41.3376 21.3928 41.3583C21.3014 41.3583 21.1999 41.2965 21.1387 41.1939C21.1387 41.0807 21.3219 41.0705 21.2506 40.937C21.3219 41.0603 21.5149 40.9268 21.5962 41.0705Z" fill="white"/>
<path d="M21.8405 41.8618C21.7084 41.9851 21.8606 42.1496 21.6878 42.2213C21.5456 42.1805 21.3829 42.1699 21.2612 42.0877C21.3019 41.872 21.5557 41.8927 21.6778 41.7694C21.749 41.7592 21.8099 41.8105 21.8405 41.8618Z" fill="white"/>
<path d="M22.1761 42.5398C22.2474 42.7453 22.0541 42.7966 22.0641 42.9814C21.8712 42.9611 21.6779 42.9505 21.5151 42.8377C21.5457 42.6322 21.81 42.7144 21.9219 42.5911C21.9932 42.5499 22.0947 42.4266 22.1761 42.5398Z" fill="white"/>
<path d="M21.718 43.3924C21.6874 43.567 21.5045 43.5361 21.4131 43.6492C21.3724 43.6183 21.291 43.5878 21.291 43.5157C21.3925 43.4437 21.2708 43.2177 21.3925 43.1562C21.5351 43.1974 21.5959 43.3513 21.718 43.3924Z" fill="white"/>
<path d="M22.3485 43.6905C22.4097 43.8448 22.2671 43.927 22.1451 43.9576C22.0029 43.9165 21.8401 43.9063 21.7588 43.7626C21.9417 43.6698 22.2063 43.2794 22.3485 43.6905Z" fill="white"/>
<path d="M9.05105 43.8755C9.07121 43.9064 8.98985 43.9166 9.04096 43.9475C9.09173 43.8136 9.21376 43.9679 9.29512 44.009C9.41681 44.1222 9.52877 44.2761 9.70157 44.3277L9.77285 44.4201L9.65081 44.872L7.99373 51.9714C7.62761 53.5846 7.17006 55.1563 6.73301 56.7284C6.77369 56.8518 6.64157 56.8929 6.652 56.9955L6.60089 57.1803C6.35681 57.5707 6.11308 57.992 5.77757 58.3209C5.52341 57.8174 5.40137 57.2214 5.40137 56.6357C5.9302 53.5744 6.63149 50.4921 7.23125 47.5127L7.96313 44.081C8.11577 44.0297 8.22737 43.8962 8.40052 43.9064L8.46137 44.009L7.94297 46.9269L6.67217 53.3583C6.63149 53.7592 6.45869 54.1394 6.46877 54.5298H6.48928C7.37345 50.9749 8.08517 47.3995 9.03053 43.8755H9.05105Z" fill="white"/>
<path d="M22.1455 44.2352C22.1862 44.2661 22.1657 44.3276 22.1455 44.3687C22.0335 44.4819 21.9014 44.42 21.7794 44.4921C21.6573 44.4921 21.4237 44.4819 21.4845 44.2967C21.4845 44.2454 21.5151 44.2145 21.5659 44.2145C21.7185 44.3276 21.81 44.0606 21.9626 44.2043L22.1455 44.2352Z" fill="white"/>
<path d="M22.5927 44.6767C22.5927 44.7589 22.552 44.8513 22.4811 44.8822C22.2676 44.9542 22.1049 44.872 21.9116 44.8309L21.8608 44.7589C22.0743 44.7691 22.227 44.5533 22.43 44.5122C22.4912 44.5741 22.5621 44.5944 22.5927 44.6767Z" fill="white"/>
<path d="M21.555 44.7693C21.5956 44.841 21.5751 44.9439 21.6669 44.9749C21.555 45.0262 21.443 44.9749 21.3516 44.9236C21.3109 44.8821 21.3213 44.8104 21.3314 44.7591C21.4027 44.6664 21.4736 44.7897 21.555 44.7693Z" fill="white"/>
<path d="M6.5602 45.3034C6.1534 47.2863 5.72679 49.3001 5.33008 51.283C5.18787 51.7865 5.06583 52.3002 4.97439 52.8241C4.74074 53.7181 4.54743 54.6425 4.3948 55.5467C4.2731 56.1735 4.18131 56.8513 4.09996 57.4578L4.05928 57.499C1.90431 54.8481 0.786143 51.6119 1.14183 48.0773C1.19259 46.9781 1.40607 45.9096 1.66023 44.8512C2.23983 44.6973 2.90043 44.8719 3.55096 44.8821C4.54743 44.9851 5.57415 45.1699 6.5602 45.3034Z" fill="white"/>
<path d="M22.3593 45.2317C22.2272 45.4475 21.973 45.4268 21.7491 45.4064C21.6883 45.3242 21.6476 45.2729 21.6274 45.1804C21.739 44.9545 21.9324 45.2317 22.0951 45.2317H22.3593Z" fill="white"/>
<path d="M22.735 45.6118C22.7858 45.7559 22.6331 45.8378 22.5114 45.8378C22.3487 45.8378 22.2267 45.7864 22.064 45.7453C22.2368 45.6631 22.4301 45.5503 22.5824 45.4062C22.6943 45.4164 22.6943 45.5401 22.735 45.6118Z" fill="white"/>
<path d="M21.6576 45.6943L21.861 45.7355C21.871 45.8279 21.871 45.9923 21.7288 45.9821C21.5254 45.9923 21.2713 45.9719 21.1798 45.7766C21.1492 45.6943 21.2104 45.6121 21.3019 45.6121C21.4239 45.6328 21.5661 45.5608 21.6576 45.6943Z" fill="white"/>
<path d="M22.4812 46.1873C22.3286 46.2899 22.2472 46.6497 21.9931 46.4339C21.9322 46.3619 21.7897 46.4339 21.7188 46.3415C21.8307 46.3106 21.9625 46.2182 22.0949 46.1669C22.176 46.136 22.3592 46.1669 22.4812 46.1873Z" fill="white"/>
<path d="M21.363 46.3001C21.3529 46.3722 21.2817 46.3722 21.241 46.4337C21.1596 46.4337 21.0786 46.3926 21.0581 46.3103C21.0988 46.1357 21.2918 46.187 21.363 46.3001Z" fill="white"/>
<path d="M13.4221 46.9169C14.1644 47.2047 14.937 47.4307 15.679 47.7286L15.6995 47.7698H15.679C15.4961 48.0779 15.6178 48.3552 15.5162 48.6943C15.252 49.9786 14.8963 51.232 14.4589 52.4442C13.3203 54.6017 11.3989 56.482 9.24396 57.5709C8.71512 57.8998 8.10528 58.1054 7.52603 58.3517C7.56671 58.1669 7.58688 57.9719 7.60704 57.7765H7.58688L7.48535 58.1669C8.02392 55.8038 8.65428 53.4717 9.17268 51.1188C9.59964 49.5573 9.94559 47.8931 10.3315 46.2901C10.4435 46.2286 10.5349 46.3519 10.6264 46.3006C11.5822 46.4443 12.4868 46.7114 13.4221 46.9169Z" fill="white"/>
<path d="M22.939 46.5157C22.9595 46.6594 22.8274 46.7107 22.6953 46.7213C22.6035 46.6594 22.512 46.7315 22.4307 46.6493C22.5225 46.5568 22.5426 46.4128 22.6647 46.372C22.7867 46.3615 22.8781 46.4437 22.939 46.5157Z" fill="white"/>
<path d="M22.8358 46.6394C22.8257 46.6496 22.7544 46.6598 22.7746 46.6187L22.8358 46.6394Z" fill="#231F20"/>
<path d="M21.5345 46.7729C21.6767 46.7933 21.8294 46.6186 21.941 46.7831C21.87 46.9166 21.7379 46.9577 21.626 47.0811C21.4532 46.9988 21.1889 46.9679 21.199 46.7114C21.2804 46.5262 21.4125 46.7318 21.5345 46.7729Z" fill="white"/>
<path d="M22.5833 47.0705C22.5732 47.1629 22.7255 47.3172 22.5426 47.3481C22.4105 47.3787 22.3799 47.502 22.2172 47.4711C22.1462 47.3274 21.963 47.2965 21.8413 47.2659C21.9122 47.0087 22.1156 47.2452 22.2478 47.1014C22.3392 47.0396 22.512 46.8548 22.5833 47.0705Z" fill="white"/>
<path d="M21.1703 47.2041C21.1703 47.266 21.2009 47.3173 21.2516 47.3584C21.1703 47.4199 21.0889 47.6153 20.9568 47.461C20.8959 47.461 20.8452 47.5636 20.784 47.4712C20.7433 47.4199 20.7941 47.3686 20.7231 47.3275C20.7231 47.2554 20.7231 47.1834 20.8042 47.1528C20.8959 47.2143 21.0482 47.2554 21.1703 47.2041Z" fill="white"/>
<path d="M23.0303 47.5843C23.0404 47.6975 23.0303 47.8514 22.9183 47.9132C22.8373 47.903 22.7761 47.8208 22.6746 47.831L22.522 47.6564C22.644 47.5843 22.8067 47.4508 22.9694 47.461L23.0303 47.5843Z" fill="white"/>
<path d="M22.0449 47.7592C22.0143 47.9135 21.8213 47.903 21.75 48.0263C21.628 47.9954 21.5265 47.9237 21.3943 47.9135L21.2417 47.7592C21.2925 47.7079 21.313 47.605 21.4145 47.605C21.5977 47.8207 21.9228 47.4303 22.0449 47.7592Z" fill="white"/>
<path d="M21.0269 48.098C21.1388 48.0259 21.2202 48.1802 21.3016 48.2213L20.9963 48.4061C20.8336 48.365 20.6201 48.2828 20.5693 48.098C20.5898 48.067 20.5593 47.9848 20.6305 47.995C20.7627 48.0259 20.8642 48.2006 21.0269 48.098Z" fill="white"/>
<path d="M22.6537 48.16C22.4809 48.232 22.4403 48.4579 22.2268 48.4372C22.1253 48.3037 21.9319 48.3037 21.8506 48.1498C21.9118 48.129 22.0032 48.1909 22.054 48.0985C22.176 48.1188 22.3182 48.1392 22.41 48.0366C22.4809 48.0879 22.5623 48.1498 22.6537 48.16Z" fill="white"/>
<path d="M23.1924 48.3653C23.2331 48.5195 23.1618 48.6221 23.1009 48.7557C22.9076 48.7658 22.7046 48.807 22.5214 48.7044C22.5012 48.4268 22.8468 48.4475 23.0196 48.314C23.0804 48.314 23.1517 48.314 23.1924 48.3653Z" fill="white"/>
<path d="M21.9929 48.6424C21.8913 48.7348 21.7794 48.8683 21.6267 48.889C21.4845 48.8068 21.1897 48.8272 21.2304 48.5703C21.3931 48.4987 21.6267 48.4987 21.7995 48.519L21.9929 48.6424Z" fill="white"/>
<path d="M20.8133 48.7656C20.854 48.8068 20.9252 48.889 20.8439 48.9403L20.864 48.9505C20.7118 49.0534 20.5184 48.9301 20.3557 48.8784C20.315 48.8169 20.2034 48.8068 20.2236 48.7038C20.4065 48.5292 20.5897 48.8373 20.8133 48.7656Z" fill="white"/>
<path d="M22.5205 49.0641C22.5306 49.1052 22.5712 49.1361 22.6119 49.1361C22.419 49.1976 22.3984 49.4341 22.1644 49.393L22.1241 49.4341L21.8188 49.1874C21.9409 49.0332 22.1544 48.9921 22.3272 49.0128C22.3783 49.0848 22.4391 49.0539 22.5205 49.0641Z" fill="white"/>
<path d="M21.5561 49.4337C21.3527 49.3718 21.2411 49.6804 21.0478 49.5468C20.9459 49.4439 20.7734 49.4028 20.7529 49.259C20.9362 48.9818 21.1597 49.2692 21.3934 49.2489C21.4646 49.29 21.5154 49.3616 21.5561 49.4337Z" fill="white"/>
<path d="M20.4474 49.3724C20.5288 49.4135 20.4982 49.4958 20.4575 49.5471C20.2948 49.5369 20.0917 49.5369 20.0104 49.3622C19.9898 49.3109 20.0204 49.2593 20.0712 49.2593C20.1932 49.3004 20.2948 49.3928 20.4474 49.3724Z" fill="white"/>
<path d="M23.0595 49.4752C22.9274 49.5574 22.9681 49.7528 22.836 49.8244C22.6632 49.8554 22.531 49.7528 22.3989 49.6702C22.5613 49.5265 22.8155 49.2798 23.0595 49.4752Z" fill="white"/>
<path d="M20.0715 49.9064C20.0003 49.9475 19.9088 49.9165 19.8275 49.9271C19.7868 49.8962 19.736 49.8551 19.7767 49.8034C19.8275 49.7215 20.1021 49.7317 20.0715 49.9064Z" fill="white"/>
<path d="M21.7281 49.8655C21.8703 49.9274 22.1349 49.7731 22.1551 49.999C22.2059 50.0198 22.1551 50.0915 22.1857 50.1224C22.0838 50.1635 21.9722 50.2661 21.8603 50.1737L21.8401 50.1944C21.6569 50.1737 21.4434 50.1326 21.3825 49.9376C21.3721 49.8862 21.4333 49.8964 21.4535 49.8757C21.4333 49.8451 21.4333 49.732 21.5147 49.7422C21.6061 49.732 21.6669 49.804 21.7281 49.8655Z" fill="white"/>
<path d="M20.9042 49.8033C21.1277 49.7621 20.9855 50.019 21.1176 50.1012C20.9754 50.091 20.8329 50.3581 20.7112 50.1322C20.6702 49.947 20.3451 49.9779 20.4974 49.752C20.6295 49.8444 20.7414 49.7931 20.9042 49.8033Z" fill="white"/>
<path d="M20.4779 50.4821C20.3559 50.441 20.173 50.4617 20.1323 50.2868C20.1323 50.2456 20.1629 50.2045 20.2137 50.1943C20.2745 50.3588 20.6914 50.2151 20.4779 50.4821Z" fill="white"/>
<path d="M19.7964 50.4608C19.8065 50.6558 19.6542 50.4401 19.5628 50.4917C19.5016 50.4608 19.5322 50.3786 19.5829 50.3477C19.6643 50.3477 19.7759 50.3582 19.7964 50.4608Z" fill="white"/>
<path d="M21.5153 50.4715C21.6168 50.4715 21.8001 50.3893 21.8001 50.5436L21.7896 50.5949C21.6067 50.5949 21.4339 50.8106 21.2611 50.6462C21.2205 50.5847 21.129 50.5025 21.2104 50.4304C21.2816 50.3689 21.3627 50.3995 21.4339 50.4097L21.5153 50.4715Z" fill="white"/>
<path d="M20.2841 50.7695C20.2027 50.9339 20.04 50.8004 19.9079 50.8004C19.8672 50.7491 19.7757 50.6669 19.8877 50.6152C20.0198 50.6669 20.1926 50.6462 20.2841 50.7695Z" fill="white"/>
<path d="M21.0163 50.8516C21.0368 50.9029 21.0368 50.9647 20.9656 50.9749C20.8028 50.9953 20.6909 50.8825 20.5386 50.8516C20.4878 50.8105 20.5285 50.7181 20.5894 50.7181C20.8028 50.646 20.8435 50.8414 21.0163 50.8516Z" fill="white"/>
<path d="M19.6752 51.1395C19.6752 51.2115 19.5531 51.1806 19.4923 51.2115C19.4311 51.2115 19.3803 51.201 19.3501 51.1497C19.3501 51.0984 19.3904 51.0467 19.4311 51.0264C19.5125 51.0573 19.6446 51.0467 19.6752 51.1395Z" fill="white"/>
<path d="M20.742 51.3964L20.6808 51.4273C21.5452 52.5883 22.267 53.7388 23.0802 54.9205C22.8768 54.8997 22.6126 54.9718 22.4297 54.8586C21.6265 53.7388 20.8741 52.7011 20.0508 51.5914C20.0609 51.5096 19.9795 51.3862 20.1116 51.3655C20.2744 51.3862 20.4166 51.2938 20.5894 51.304C20.6401 51.3349 20.6606 51.4273 20.742 51.3964Z" fill="white"/>
<path d="M60.5333 25.1639V23.1782L69.4665 23.1687V25.1688L66.6944 25.4429L60.4735 34.2921C60.4735 34.2921 66.4572 43.3909 67.2159 44.5273C68.0726 45.8102 68.6852 46.2852 69.665 46.2852C69.9922 46.2852 70.2599 46.2912 70.2599 46.2912L70.1153 48.2938H58.6687L58.8102 46.2912L61.4206 46.0741L56.916 39.1107C56.916 39.1107 53.5302 44.0487 52.8612 45.0171C52.2514 45.8991 52.3401 46.1602 53.2607 46.1647L55.8461 46.2877L55.7133 48.2938L46.0945 48.3001L46.2948 46.3004L49.0996 46.0783L55.5965 36.9363C55.5965 36.9363 50.0488 28.2504 49.0269 26.6425C48.3309 25.5476 47.5117 25.1618 46.0566 25.1589L46.0643 23.1736H57.7348V25.1719L55.018 25.446L59.1137 32.2425L62.9435 26.4745C63.4219 25.7394 63.3294 25.3975 62.6094 25.3266L60.5333 25.1639Z" fill="white"/>
<path d="M99.482 25.16C103.238 25.1628 105.445 26.5975 105.446 29.7368C105.446 33.4351 102.904 34.7662 99.3933 34.7795C99.3321 34.7799 99.2991 34.782 99.2991 34.782V25.1607C99.2991 25.1607 99.3645 25.16 99.482 25.16ZM110.079 40.998C109.467 38.1479 107.517 36.366 104.782 35.7395C104.766 35.7356 104.792 35.6973 104.871 35.6787C107.833 34.978 111.194 32.7162 111.207 29.4518C111.226 24.6607 106.731 23.1691 99.6235 23.1715L90.9292 23.1687L90.9368 25.1558C90.9744 25.1561 91.0116 25.1572 91.0485 25.1586C92.8356 25.1772 93.7458 26.4116 93.7573 28.8007L93.7601 46.0688L91.2571 46.2898L91.1124 48.2948L102.436 48.3018L102.593 46.2898C102.523 46.2898 102.416 46.2898 102.349 46.2895C99.5209 46.28 99.2869 46.2181 99.2869 43.8825V36.9268C99.2869 36.9268 99.3359 36.944 99.433 36.9437C102.364 36.9275 103.82 37.9205 104.412 40.447C104.675 41.5721 104.767 42.5346 105.038 43.899C105.717 47.3331 106.905 48.3711 110.752 48.3711C111.124 48.3711 111.391 48.3486 111.653 48.3472C112 48.3454 112.454 48.2959 112.454 48.2959L112.606 46.3116C111.2 46.3183 110.86 45.9166 110.585 44.016C110.337 42.2949 110.309 42.0683 110.079 40.998Z" fill="white"/>
<path d="M70.6195 25.1636C72.6486 25.1632 73.5519 26.3421 73.5467 28.7579L73.5393 46.0766L71.2293 46.2874L71.092 48.3023L83.2242 48.2973L83.381 46.293L82.6874 46.2853C79.3141 46.3004 79.0878 46.033 79.0902 43.4978L79.0895 37.4979C79.0895 37.4979 79.1323 37.5471 79.2494 37.5738C85.3051 38.9519 90.9512 36.0614 90.9491 30.0615C90.9474 24.7556 86.3749 23.1646 79.3548 23.167L70.6118 23.1646L70.6195 25.1636ZM79.1823 25.1597C82.8932 25.172 85.4157 26.6394 85.4157 30.3771C85.4157 34.0596 82.8765 35.8183 79.2665 35.4967C79.1455 35.4859 79.0794 35.4665 79.0794 35.4665V25.1594C79.1135 25.1594 79.1476 25.1594 79.1823 25.1597Z" fill="white"/>
<path d="M37.636 36.7279C38.9896 36.738 39.5535 37.0104 40.1338 37.7781C40.5111 38.2778 40.7298 38.6327 40.8285 38.8038C40.8723 38.8801 40.8925 38.9198 40.8925 38.9198H42.3065V31.9213L40.6161 31.9241C40.6168 31.9729 40.6115 32.0316 40.5997 32.0973C40.2621 33.6775 39.6985 34.1512 37.3367 34.149L34.5489 34.1304L34.5499 25.3971L40.2903 25.4045C40.979 25.4133 41.2183 25.4874 41.2996 25.7415C41.4578 26.2345 41.5625 26.5693 41.9463 27.5216C42.2954 28.387 42.6024 28.898 42.8639 29.2145L44.7223 29.2008L44.0119 23.1732L25.6943 23.1697L25.7016 25.1631C25.7319 25.1631 25.7618 25.1634 25.7917 25.1638C27.9456 25.1733 29.0081 25.9519 29.0092 28.9292L29.0151 46.0722L26.2771 46.2985L26.1383 48.2937L44.9218 48.3L45.66 41.2055C45.2462 41.0924 44.8311 41.0538 44.4392 41.0538C43.9817 41.0538 43.6117 41.2576 43.4595 41.642C43.2807 42.0924 43.0151 42.7759 42.5687 43.8346C41.8375 45.5697 40.8574 46.0346 38.1576 46.0346H35.0499C34.6296 46.0346 34.5499 45.8277 34.5499 45.4657V36.7293L37.636 36.7279Z" fill="white"/>
<path d="M135.082 40.4266C136.05 40.428 136.458 40.7112 136.682 41.6961C137.36 44.6731 138.907 46.6756 141.686 46.6735C144.168 46.6717 145.802 45.1815 145.805 42.8483C145.807 40.9248 144.789 39.7055 140.88 38.131C136.68 36.4391 134.495 33.887 134.479 30.0129C134.46 25.4688 137.806 22.5854 142.894 22.5745C144.529 22.571 145.937 23.006 147.081 23.9083C147.081 23.9083 147.108 23.8834 147.162 23.8451C147.452 23.6392 147.771 23.4473 148.218 23.304C148.959 23.0661 149.406 23.169 149.406 23.169C149.406 23.169 149.308 24.0415 149.554 26.6439C149.763 28.8421 150.052 30.1229 150.052 30.1229L147.949 30.1222C146.592 26.354 145.044 24.7225 142.465 24.7207C140.236 24.719 138.718 26.0532 138.718 28.2174C138.718 30.3478 140.013 31.6114 143.398 32.8785C147.975 34.5925 150.28 37.0122 150.278 40.9048C150.274 45.4675 146.858 48.8106 141.839 48.8535C139.493 48.8735 138.082 48.3689 136.577 47.3587C136.577 47.3587 136.548 47.3777 136.502 47.4226C136.294 47.6261 135.877 47.8791 135.431 48.0204C134.452 48.3303 133.735 48.2944 133.735 48.2944L134.523 40.4206C134.523 40.4206 134.775 40.4262 135.082 40.4266Z" fill="white"/>
<path d="M124.755 36.7243C126.108 36.7345 126.672 37.0167 127.252 37.7845C127.63 38.2841 127.848 38.639 127.947 38.8102C127.991 38.8864 128.011 38.9261 128.011 38.9261H129.425V31.9276L127.735 31.9304C127.735 31.9792 127.73 32.0379 127.718 32.1036C127.38 33.6838 126.817 34.1575 124.455 34.1554L121.668 34.1367L121.669 25.4034L127.517 25.4108C128.206 25.4196 128.358 25.5598 128.44 25.8135C128.598 26.3065 128.681 26.5756 129.065 27.5279C129.414 28.3934 129.721 28.8944 129.983 29.211L131.841 29.2072L131.13 23.1697L112.813 23.176L112.82 25.1596C112.851 25.1596 112.88 25.1599 112.91 25.1603C115.064 25.1476 116.127 25.9579 116.127 28.9355L116.134 46.0786L113.591 46.3048L113.443 48.3L132.04 48.2965L132.779 41.2119C132.365 41.0987 131.95 41.0601 131.558 41.0601C131.1 41.0601 130.73 41.2639 130.578 41.6483C130.399 42.0988 130.133 42.7822 129.687 43.8409C128.956 45.5761 127.976 46.041 125.276 46.041H122.168C121.748 46.041 121.669 45.834 121.669 45.4721V36.7356L124.755 36.7243Z" fill="white"/>
<path d="M152.805 40.4159C153.773 40.4173 154.181 40.7005 154.405 41.6854C155.083 44.6623 156.63 46.6649 159.41 46.6628C161.891 46.661 163.525 45.1708 163.528 42.8376C163.53 40.9141 162.512 39.6948 158.603 38.1203C154.403 36.4284 152.218 33.8762 152.202 30.0022C152.184 25.4581 155.529 22.6186 160.617 22.6077C162.252 22.6042 163.66 22.9953 164.804 23.8976C164.804 23.8976 164.831 23.8727 164.885 23.8344C165.175 23.6285 165.494 23.4366 165.941 23.2932C166.682 23.0554 167.129 23.1583 167.129 23.1583C167.129 23.1583 167.031 24.0308 167.277 26.6332C167.486 28.8314 167.775 30.1122 167.775 30.1122L165.672 30.1115C164.315 26.3433 162.767 24.7557 160.188 24.7539C157.959 24.7522 156.441 26.0425 156.441 28.207C156.441 30.3371 157.736 31.6007 161.121 32.8678C165.699 34.5818 168.003 37.0015 168 40.8941C167.997 45.4568 164.581 48.7999 159.563 48.8428C157.215 48.8628 155.805 48.3582 154.3 47.348C154.3 47.348 154.271 47.367 154.226 47.4119C154.017 47.6154 153.6 47.8684 153.154 48.0096C152.175 48.3196 151.458 48.2837 151.458 48.2837L152.247 40.4099C152.247 40.4099 152.498 40.4155 152.805 40.4159Z" fill="white"/>
<path d="M12.1417 29.0398C12.2436 29.1529 12.4467 29.0398 12.5179 29.2348C12.7213 29.4815 12.64 29.8617 12.874 30.0774C12.874 30.1287 12.9143 30.18 12.874 30.2212C12.8027 30.18 12.7314 30.0774 12.6501 30.0261C12.5687 29.8308 12.3754 29.8002 12.2436 29.6357C12.2638 29.3993 12.1216 29.2348 12.0503 29.0398L12.1216 29.0707L12.1417 29.0398Z" fill="#0B3F9C"/>
</g>
<defs>
<clipPath id="clip0">
<rect width="168" height="70" fill="white"/>
</clipPath>
</defs>
</svg>
