<svg width="168" height="70" viewBox="0 0 168 70" fill="none" xmlns="http://www.w3.org/2000/svg">
<path d="M42.9561 18.0209C42.0407 18.0222 41.127 18.0969 40.2236 18.2443C39.7548 18.1649 39.2839 18.1043 38.8111 18.0626C38.2062 18 37.7056 18 37.3629 18C36.5463 17.9997 35.7307 18.0585 34.9225 18.1758C34.8129 18.2198 34.7215 18.2996 34.6632 18.4023C34.641 18.4434 34.6249 18.4876 34.6155 18.5334L34.1566 20.664C37.2406 21.3988 40.0105 23.0963 42.0652 25.5105C44.12 27.9248 45.3528 30.9305 45.5851 34.0922C45.8175 37.2539 45.0373 40.4075 43.3576 43.0962C41.6779 45.785 39.1859 47.8691 36.2425 49.0469C35.9147 49.1796 35.5569 49.2208 35.2075 49.166C34.8581 49.1112 34.5301 48.9624 34.2587 48.7357C33.9872 48.5089 33.7825 48.2126 33.6664 47.8785C33.5503 47.5444 33.5271 47.1851 33.5994 46.8388L35.1102 39.6515L37.0471 42.6313L39.4101 41.0878L36.2217 36.177C35.8593 35.6219 35.2912 35.2334 34.6424 35.0971C33.9937 34.9607 33.3173 35.0877 32.7621 35.4499L27.8662 38.6532L29.4098 41.0162L32.3538 39.0943L30.8192 46.3919C30.6045 47.3941 30.7367 48.4395 31.1942 49.3567C31.6517 50.2739 32.4074 51.0084 33.3372 51.4397C35.2532 52.1847 37.4881 52.3694 40.0984 51.8301C42.4228 52.2281 44.8046 52.139 47.0928 51.5684C49.3809 50.9977 51.5256 49.958 53.3909 48.515C55.2561 47.0721 56.8013 45.2574 57.9285 43.186C59.0557 41.1145 59.7403 38.8315 59.9389 36.4817C60.1375 34.1318 59.8458 31.7663 59.0823 29.5351C58.3188 27.3038 57.1001 25.2555 55.5035 23.52C53.9069 21.7844 51.9672 20.3994 49.8073 19.4528C47.6474 18.5062 45.3143 18.0186 42.9561 18.0209ZM48.4122 35.1847C48.4122 29.678 45.6767 24.5467 41.3321 21.2301C44.2826 22.0788 46.8833 23.8511 48.7523 26.2868C50.6212 28.7225 51.66 31.6933 51.716 34.7629C51.772 37.8325 50.8423 40.8392 49.0635 43.3415C47.2846 45.8438 44.7503 47.7098 41.8327 48.6655C45.8465 45.3787 48.4032 40.4829 48.4122 35.1877V35.1847ZM47.5987 48.6297C49.6985 47.0497 51.4041 45.0049 52.5817 42.6557C53.7594 40.3064 54.3772 37.7164 54.3867 35.0885C54.3962 32.4605 53.7972 29.8661 52.6366 27.5084C51.476 25.1506 49.7854 23.0936 47.697 21.4983C50.5148 22.4841 52.9552 24.3239 54.6784 26.7617C56.4015 29.1994 57.3217 32.1138 57.3109 35.099C57.3001 38.0843 56.3588 40.9919 54.618 43.4171C52.8772 45.8423 50.4236 47.6644 47.5987 48.6297Z" fill="white"/>
<path d="M26.293 30.7208L24.3562 27.741L21.9931 29.2935L25.1875 34.1894C25.5499 34.7445 26.118 35.1329 26.7668 35.2693C27.4155 35.4056 28.0919 35.2787 28.6471 34.9165L33.546 31.7072L32.0024 29.3442L29.0583 31.2662L30.581 23.9805C30.749 23.1737 30.6947 22.3365 30.4239 21.5582C30.1532 20.7799 29.6762 20.0897 29.0438 19.5613C28.4114 19.033 27.6474 18.6862 26.8333 18.5582C26.0193 18.4302 25.1858 18.5256 24.4217 18.8343C17.726 21.5191 13 27.9854 13 35.1876C13 43.1289 18.6974 50.3013 26.6864 52.3515L27.2406 49.7084C24.1567 48.9735 21.3868 47.2761 19.332 44.8618C17.2773 42.4475 16.0445 39.4419 15.8121 36.2801C15.5798 33.1184 16.3599 29.9648 18.0397 27.2761C19.7194 24.5874 22.2114 22.5032 25.1547 21.3254C25.4826 21.1927 25.8403 21.1515 26.1898 21.2063C26.5392 21.2612 26.8672 21.4099 27.1386 21.6367C27.4101 21.8634 27.6148 22.1597 27.7309 22.4938C27.847 22.8279 27.8702 23.1873 27.7979 23.5335L26.293 30.7208Z" fill="white"/>
<path d="M153.011 27.5354C152.36 26.1358 151.45 24.8721 150.329 23.8106C149.167 22.7152 147.812 21.8443 146.333 21.242C144.767 20.5971 143.089 20.27 141.395 20.2795H137.855C136.162 20.2703 134.484 20.5974 132.918 21.242C131.437 21.8437 130.08 22.7146 128.916 23.8106C127.795 24.8716 126.885 26.1355 126.234 27.5354C125.585 28.9164 125.248 30.4228 125.245 31.9485V50.0689H131.663V32.6011C131.649 31.7479 131.833 30.9031 132.203 30.1338C132.546 29.4298 133.029 28.8024 133.621 28.2893C134.212 27.7848 134.889 27.3921 135.62 27.1301C136.335 26.8613 137.092 26.7201 137.855 26.713H141.398C142.157 26.7179 142.909 26.8551 143.621 27.1182C144.353 27.38 145.03 27.7728 145.621 28.2774C146.213 28.7905 146.695 29.4179 147.039 30.1219C147.411 30.8946 147.597 31.7437 147.581 32.6011V50.0808H154V31.9515C153.997 30.4248 153.66 28.9173 153.011 27.5354Z" fill="white"/>
<path d="M102.246 22.3355C100.846 22.9867 99.5808 23.8966 98.5182 25.0173C97.4233 26.1799 96.5525 27.5346 95.9496 29.0133C95.3051 30.5792 94.978 32.2576 94.9871 33.9509V37.482C94.976 39.1804 95.3032 40.8639 95.9496 42.4345C96.555 43.9082 97.4268 45.2577 98.5212 46.4155C99.5835 47.5365 100.848 48.4465 102.249 49.0974C103.629 49.7456 105.134 50.0833 106.659 50.0867H121.025V43.6592H107.297C106.443 43.6742 105.597 43.4895 104.827 43.1199C104.126 42.775 103.501 42.2926 102.991 41.7014C102.487 41.1107 102.095 40.4332 101.835 39.702C101.57 38.9914 101.432 38.2401 101.427 37.482V33.939C101.428 33.1774 101.563 32.422 101.826 31.7071C102.091 30.9795 102.485 30.306 102.991 29.7195C103.504 29.1274 104.131 28.6449 104.835 28.3011C105.606 27.9317 106.452 27.747 107.306 27.7618H121.034V21.3462H106.656C105.131 21.3496 103.626 21.6873 102.246 22.3355Z" fill="white"/>
<path d="M73.2997 22.3355C71.8992 22.9865 70.6344 23.8965 69.5719 25.0173C68.4767 26.1796 67.6059 27.5344 67.0033 29.0133C66.3609 30.5757 66.0338 32.2497 66.0408 33.939V37.482C66.0302 39.1803 66.3574 40.8638 67.0033 42.4345C67.6059 43.9134 68.4767 45.2681 69.5719 46.4304C70.6341 47.5517 71.8989 48.4616 73.2997 49.1123C74.6797 49.7605 76.1851 50.0982 77.7098 50.1016H92.0756V43.6592H78.3505C77.4943 43.6751 76.6462 43.4904 75.8742 43.1198C75.1702 42.776 74.5428 42.2936 74.0297 41.7014C73.5253 41.1108 73.1325 40.4333 72.8706 39.702C72.6075 38.9912 72.4703 38.2399 72.4653 37.482V33.939C72.4721 33.1765 72.6123 32.4212 72.8795 31.7071C73.1412 30.9757 73.534 30.2982 74.0387 29.7076C74.5503 29.1207 75.1744 28.6424 75.8742 28.3011C76.6445 27.9317 77.4903 27.747 78.3445 27.7618H92.0726V21.3462H77.7098C76.1851 21.3496 74.6797 21.6873 73.2997 22.3355Z" fill="white"/>
</svg>
