<svg width="168" height="70" viewBox="0 0 168 70" fill="none" xmlns="http://www.w3.org/2000/svg">
<path d="M85.9825 50.58H74.515V40.6415C74.515 39.3036 73.9416 38.1569 73.1771 37.2013L68.7813 32.8054C67.8256 32.0409 66.6789 31.4675 65.341 31.4675H63.0475V50.58H51.58V20H68.2079C70.6925 20 73.1771 20.9556 74.8973 22.8669L83.1156 31.0852C85.0269 32.8054 85.9825 35.29 85.9825 37.7746V50.58ZM135.675 20V29.9385C135.675 31.2764 135.102 32.4231 134.337 33.3787L129.941 37.7746C128.986 38.7302 127.839 39.1125 126.501 39.1125H121.723C123.252 37.3924 124.208 35.0989 124.208 32.8054V20H112.74V29.9385C112.74 31.2764 112.167 32.4231 111.402 33.3787L107.006 37.7746C106.051 38.7302 104.904 39.1125 103.566 39.1125H101.273V20H89.805V50.58H106.433C108.918 50.58 111.402 49.6244 113.122 47.7131L118.474 42.3616V50.58H129.368C131.853 50.58 134.337 49.6244 136.057 47.7131L144.276 39.4947C146.187 37.7746 147.143 35.29 147.143 32.8054V20H135.675ZM47.7575 20H21V31.4675H28.645V50.58H40.1125V31.4675H47.7575" fill="white"/>
</svg>
