<svg width="168" height="70" viewBox="0 0 168 70" fill="none" xmlns="http://www.w3.org/2000/svg">
<path d="M91.8357 18.4336L91.481 18.5053C91.286 18.5501 89.2909 18.9266 87.0476 19.3479C84.8043 19.7692 82.8802 20.1277 82.7738 20.1546C82.6141 20.1905 82.5787 20.2532 82.5964 20.5401C82.6141 20.8448 82.6407 20.8807 82.9688 20.9524C84.0949 21.2034 84.2989 21.293 84.7156 21.7233C85.221 22.2611 85.4604 22.9423 85.6112 24.3676C85.7264 25.506 85.753 45.0647 85.6378 47.9511L85.5757 49.6631L86.489 49.8603C89.9471 50.6133 93.3963 50.8732 95.5598 50.5416C98.2554 50.1382 100.224 49.197 101.9 47.5387C104.294 45.1454 105.446 41.7571 105.358 37.589C105.269 35.4467 104.914 34.0394 104.028 32.3004C102.822 29.943 100.791 28.2937 98.4682 27.8096C96.7391 27.4421 94.4958 27.729 92.8022 28.5357C92.3766 28.7329 91.9687 28.8942 91.8978 28.8942C91.7825 28.8942 91.7737 28.2309 91.8003 23.6684L91.8357 18.4336ZM22 19.0342L22.0266 19.5989L22.0532 20.1546L22.8512 20.2532C23.9161 20.3877 24.3054 20.5042 24.731 20.8179C25.3872 21.293 25.7862 21.9922 26.0344 23.0947C26.4246 24.8068 26.5665 28.6701 26.5044 35.8859C26.4335 43.514 26.3359 45.1006 25.8571 46.6424C25.4581 47.9062 24.7221 48.5785 23.5083 48.7847C23.1731 48.8385 22.6987 48.9281 22.454 48.9819L22.0089 49.0805V50.0486H37.8806V49.5556C37.8806 49.2867 37.854 49.0626 37.8274 49.0626C37.4018 49.0626 35.4334 48.6323 35.1141 48.471C33.9881 47.8973 33.4738 46.5348 33.2698 43.6395C33.128 41.5779 32.9861 35.5094 33.0748 35.4198C33.1634 35.3302 36.9053 35.4826 37.3486 35.5901C38.5545 35.8859 39.4944 37.0871 39.9555 38.9605L40.1683 39.7851L40.7092 39.812L41.25 39.8389V29.4321H40.6737C40.1328 29.4321 40.0973 29.45 40.0973 29.6382C40.0973 29.9788 39.7604 31.0545 39.4412 31.7268C38.9447 32.7934 38.2442 33.4299 37.3486 33.636C37.1269 33.6898 36.0895 33.7705 35.0432 33.8243C33.5713 33.887 33.128 33.887 33.0659 33.7974C32.9684 33.645 33.1989 21.8398 33.3142 21.293L33.3585 21.0868L36.6215 21.1137L39.8757 21.1406L40.6294 21.4185C42.385 22.0549 43.653 23.3457 44.7081 25.5956C44.9387 26.1065 45.249 26.8415 45.382 27.2359C45.515 27.6304 45.6303 27.971 45.6392 27.9799C45.6569 27.9979 45.9495 27.9262 46.2864 27.8186L46.916 27.6214L46.8717 24.6992C46.8451 23.0858 46.8096 21.1496 46.7741 20.4056L46.7298 19.0342H22ZM81.4526 27.2987C81.355 27.2987 81.2575 27.2987 81.1511 27.3077C78.9521 27.4331 76.9925 28.9122 75.5916 31.5116C75.3522 31.9509 75.1127 32.3004 75.0507 32.3004C74.962 32.3004 74.9531 31.8074 74.9975 29.8354L75.0595 27.3614L74.8467 27.4152C74.7315 27.4421 72.9581 27.8007 70.9098 28.222C66.5119 29.1094 65.9 29.2438 65.8025 29.3066C65.7582 29.3335 65.7227 29.4948 65.7227 29.6651C65.7227 29.9968 65.6784 29.9788 66.6803 30.1402C68.0547 30.3643 68.5335 31.0455 68.7374 33.0175C69.0123 35.5991 68.9059 45.6474 68.5956 47.0188C68.436 47.718 68.0281 48.3992 67.6202 48.6323C67.4606 48.7219 66.9818 48.8654 66.5562 48.955L65.767 49.1074L65.7404 49.5825L65.7138 50.0486H78.757V49.0805L78.0654 49.0177C76.4871 48.8833 76.0526 48.7219 75.6359 48.1214C75.0329 47.2429 74.8999 45.6205 74.8999 39.0591V33.9318L75.1216 33.6898C75.3965 33.394 76.2654 32.9817 76.8773 32.8472C78.1186 32.5873 79.7147 32.8114 80.956 33.4299C81.3107 33.6091 81.6211 33.7346 81.6388 33.7167C81.6743 33.6808 83.7225 28.222 83.7846 27.9889C83.8112 27.8903 83.6959 27.7917 83.3501 27.6572C82.7028 27.3973 82.1353 27.2808 81.4526 27.2987ZM54.9494 27.3704C51.7662 27.3704 49.2037 28.3743 47.2263 30.3732C45.116 32.5245 43.9988 35.5274 43.9988 39.0411C43.9988 42.6983 45.0096 45.6474 46.9692 47.709C48.0421 48.8474 49.0973 49.5287 50.6046 50.0755C51.1366 50.2637 51.5268 50.3533 52.9544 50.6222C53.0785 50.6491 53.8943 50.6491 54.7721 50.6312C55.9602 50.6043 56.5632 50.5505 57.1218 50.425C58.6912 50.0486 59.9503 49.4839 61.0676 48.6413C63.7986 46.5796 65.2882 43.4244 65.4301 39.4266C65.5631 35.4915 64.3927 32.1391 62.1139 29.9699C60.2784 28.213 57.9553 27.3704 54.9494 27.3704ZM118.126 27.3704C115.111 27.3704 112.629 28.3833 110.678 30.4091C109.082 32.0226 108.195 33.8332 107.663 36.3789C107.486 37.1498 107.486 37.5442 107.486 39.1577C107.486 40.7622 107.486 41.1745 107.663 41.9095C108.639 46.6155 111.742 49.7079 116.175 50.5057C117.239 50.7029 118.924 50.7208 119.988 50.5416C122.028 50.2009 124.067 49.206 125.486 47.8166C126.284 47.0547 126.55 46.6872 126.461 46.49C126.195 45.979 126.195 45.979 125.397 46.4452C124.244 47.1891 123.624 47.3953 122.205 47.5477C120.609 47.718 119.013 47.4401 117.683 46.7051C116.707 46.2211 115.555 45.1096 115.023 44.1056C114.313 42.7342 113.87 41.1386 113.781 39.086C113.693 38.2165 113.693 38.0014 113.781 37.9386C113.87 37.8938 116.796 37.8579 120.431 37.8579H126.904V37.598C126.904 37.0064 126.727 35.4288 126.55 34.5951C125.84 31.2517 124.067 28.8763 121.407 27.9172C120.431 27.5317 119.456 27.3704 118.126 27.3704ZM137.545 27.4242C135.594 27.4242 135.417 27.4421 134.619 27.6572C132.224 28.3116 130.451 29.6561 129.564 31.5296C129.121 32.5335 128.944 33.2954 128.944 34.4965C128.944 36.1996 129.387 37.4635 130.451 38.5661C131.249 39.5073 132.402 40.1795 134.353 40.9056C135.86 41.4793 137.456 42.2681 138.077 42.77C138.431 43.0658 138.697 43.4065 138.875 43.7829C139.141 44.3297 139.229 44.4014 139.229 45.253C139.229 46.0776 139.141 46.2031 138.875 46.7499C138.254 48.1931 136.924 48.9012 135.151 48.7578C132.756 48.5606 131.072 46.9561 129.653 43.5678C129.298 42.6894 129.298 42.6714 128.766 42.8776L128.5 42.9762L128.589 46.1314C128.589 48.9371 128.589 49.3046 128.766 49.4032C129.121 49.7079 131.692 50.3175 133.466 50.5326C134.885 50.7029 136.924 50.7029 137.988 50.5505C141.801 49.9679 144.195 47.9242 144.815 44.8048C145.17 43.2989 144.993 41.6227 144.461 40.5022C143.751 38.9336 142.421 37.9924 139.318 36.6478C137.013 35.6618 135.594 34.8192 135.062 34.0573C134.53 33.4388 134.441 32.9548 134.441 32.1212C134.441 30.8662 134.885 29.9071 135.771 29.3066C136.569 28.8046 137.456 28.6791 138.609 28.9391C139.939 29.2617 140.914 30.0774 141.801 31.6013C142.067 32.0853 142.687 33.4478 142.953 34.2904C143.042 34.4159 143.042 34.4248 143.397 34.3352C143.574 34.2725 143.751 34.2007 143.84 34.1649V31.3144L143.751 28.5178L143.397 28.3833C142.865 28.1502 141.446 27.7558 140.559 27.5855C139.85 27.4511 139.229 27.4242 137.545 27.4242ZM54.4263 28.8942C55.2775 28.8942 55.7474 29.1094 56.4125 29.7816C57.9996 31.4041 58.7533 34.4876 58.7444 39.3369C58.7356 43.2093 58.3543 45.6474 57.5031 47.2967C57.0863 48.0945 56.3149 48.8295 55.6854 49.0177C53.2558 49.7438 51.5268 47.4132 50.8529 42.5191C50.6312 40.9414 50.6401 36.6389 50.8529 34.8282C51.3317 30.8931 52.5287 28.9032 54.4263 28.8942ZM117.683 28.9032C119.19 28.8942 120.165 31.0366 120.343 34.9358V36.0473L118.835 36.101C117.949 36.1279 116.53 36.1638 115.643 36.1817L113.959 36.2086V35.8501C113.959 35.6439 114.047 35.124 114.136 34.6758C114.668 31.0634 115.998 28.9032 117.683 28.9032ZM93.9638 30.1043C94.7175 30.1043 94.815 30.1312 95.4446 30.445C96.9697 31.2069 98.016 33.0982 98.5036 35.9756C98.681 37.0422 98.7076 39.9465 98.5391 41.2193C98.1401 44.3477 97.1293 46.8754 95.7815 48.1034C95.2495 48.5875 94.7441 48.8474 94.1057 48.9729C93.6357 49.0626 93.4938 49.0626 92.6515 48.9998C92.2879 48.9729 92.2081 48.9281 92.1372 48.7399C92.0219 48.4351 91.8889 37.9296 91.9421 33.7346L91.9865 30.4539L92.5806 30.2836C92.9707 30.1671 93.4318 30.1043 93.9638 30.1043Z" fill="white"/>
</svg>
