<svg width="207" height="44" viewBox="0 0 207 44" fill="none" xmlns="http://www.w3.org/2000/svg">
<path d="M185.427 17.5714H172.597V22.5714H179.432C178.519 24.9643 176.289 26.4286 172.89 26.4286C167.919 26.4286 164.848 23.3214 164.848 19.0714C164.848 14.6786 168.065 11.5714 172.378 11.5714C175.266 11.5714 177.568 12.8571 178.628 14.5L183.599 11.7143C181.443 8.35714 177.312 6 172.415 6C164.885 6 159 11.7857 159 19.0357C159 26.2143 164.775 32 172.817 32C179.981 32 185.427 27.3571 185.427 19.7143V17.5714Z" fill="white"/>
<path d="M197.314 32C202.687 32 207 27.8929 207 22.5714C207 17.25 202.687 13.1429 197.314 13.1429C191.941 13.1429 187.628 17.25 187.628 22.5714C187.628 27.8929 191.941 32 197.314 32ZM197.314 26.7857C194.938 26.7857 193.11 25.1071 193.11 22.5714C193.11 20.0357 194.938 18.3571 197.314 18.3571C199.69 18.3571 201.517 20.0357 201.517 22.5714C201.517 25.1071 199.69 26.7857 197.314 26.7857Z" fill="white"/>
<path d="M82.5684 22.1377V31.804L77.9519 31.7818C77.9519 28.6399 77.9519 25.4974 77.9519 22.3544L77.9155 21.0366C77.9155 19.1381 76.7601 17.7063 75.0026 17.5655C74.6158 17.533 74.2264 17.5716 73.8536 17.6794C73.252 17.8219 72.7107 18.1502 72.3068 18.6176C72.1673 18.7868 72.0496 18.9728 71.9566 19.1713C71.7406 19.6601 71.6175 20.1848 71.5937 20.7186C71.5826 20.8673 71.5747 21.016 71.5699 21.1663C71.5699 21.3751 71.5699 21.5824 71.5699 21.7849C71.5699 25.1167 71.5699 28.4479 71.5699 31.7787H66.974C66.974 28.4479 66.9766 25.1167 66.9819 21.7849C66.9819 21.5824 66.9819 21.3751 66.974 21.1663C66.974 21.0176 66.9629 20.8689 66.9502 20.7217C66.9264 20.1871 66.8039 19.6615 66.5889 19.1713C66.4948 18.973 66.3766 18.7871 66.2371 18.6176C65.8333 18.1508 65.2928 17.8226 64.6919 17.6794C64.3186 17.5714 63.9286 17.5328 63.5413 17.5655C61.7838 17.7048 60.63 19.1365 60.6284 21.0366L60.592 22.3544C60.592 25.4974 60.592 28.6399 60.592 31.7818L55.9771 31.804V22.1377C55.9771 21.6773 55.985 21.2137 56.0087 20.7502C56.0087 20.6474 56.0198 20.5493 56.0262 20.448C56.1942 17.9168 57.2005 15.7573 59.4224 14.4362C61.3464 13.2893 63.8599 12.9317 66.0168 13.5978C67.394 14.0249 68.2941 14.8492 69.2307 15.906L69.2815 15.9661L69.3306 15.906C70.2672 14.8492 71.1674 14.0249 72.5461 13.5978C74.6951 12.9317 77.215 13.2893 79.1405 14.4362C81.3592 15.7588 82.3687 17.9168 82.5383 20.448C82.5383 20.5493 82.5494 20.649 82.5542 20.7502C82.5605 21.2137 82.5684 21.6773 82.5684 22.1377Z" fill="white"/>
<path d="M71.5933 22.3609C71.5933 25.5018 71.5933 28.6422 71.5933 31.782H71.5601C71.5601 28.4513 71.5601 25.12 71.5601 21.7882C71.5601 21.5857 71.5601 21.3785 71.5601 21.1696C71.5601 21.0194 71.5712 20.8706 71.5838 20.7219L71.5949 20.7457L71.5933 22.3609Z" fill="white"/>
<path d="M142.507 18.4326V25.9109C142.507 27.8521 143.911 27.8853 146.577 27.7445V31.9496C140.204 32.6694 137.86 30.8422 137.86 25.9125V18.4326H134.73V13.9775H137.862V11.788L142.507 7.13989V13.9775H146.577V18.431L142.507 18.4326Z" fill="white"/>
<path d="M97.8413 13.9585L93.8587 25.9979L89.1978 13.9585H84.1392L91.4974 31.2962C90.6368 33.7341 89.2787 34.7672 86.7953 34.734V39.0324C91.3912 39.2808 94.4023 37.0248 96.266 31.8673L102.797 13.9585H97.8413Z" fill="white"/>
<path d="M132.079 13.9585H127.452V31.8673H132.079V13.9585Z" fill="white"/>
<path d="M121.593 16.2146C119.905 14.3873 117.826 13.4555 115.412 13.4555C112.903 13.4555 110.959 14.3145 109.6 16.0674V6.78711H109.472L104.971 11.2801V31.8753H109.599V29.7601C110.965 31.513 112.902 32.372 115.41 32.372C117.811 32.372 119.897 31.4782 121.591 29.6525C123.314 27.8252 124.174 25.5692 124.174 22.9177C124.174 20.2662 123.315 18.0418 121.593 16.2146ZM118.116 26.5627C117.18 27.4962 115.997 27.9618 114.564 27.9597C113.138 27.9597 111.947 27.4962 111.012 26.5627C110.077 25.5956 109.611 24.3779 109.613 22.9098C109.613 21.4385 110.077 20.2203 111.012 19.2901C111.947 18.3234 113.131 17.8662 114.564 17.8662C115.997 17.8662 117.18 18.3298 118.116 19.2901C119.084 20.2235 119.542 21.4385 119.542 22.9098C119.542 24.3811 119.084 25.5961 118.116 26.5627Z" fill="white"/>
<path d="M129.746 4.96826L126.336 8.36377L129.742 11.7721L133.152 8.37656L129.746 4.96826Z" fill="white"/>
<path d="M44.0876 22.0016L35.826 30.2551H35.8165C34.0101 28.4477 31.8643 27.0136 29.5019 26.0352C27.1395 25.0568 24.607 24.5531 22.0494 24.5531C19.4917 24.5531 16.9592 25.0568 14.5968 26.0352C12.2344 27.0136 10.0886 28.4477 8.28217 30.2551H8.26791L0 22.0016L22.0478 0L44.0876 22.0016Z" fill="white"/>
<path d="M33.387 32.6883L22.0557 44L10.7085 32.6883C12.1913 31.1945 13.9572 30.0102 15.9032 29.2046C17.8492 28.399 19.9363 27.9881 22.043 27.996C22.8012 27.9956 23.5585 28.0484 24.3093 28.1542C27.7513 28.6311 30.9409 30.2243 33.387 32.6883Z" fill="white"/>
</svg>
