<svg width="168" height="70" viewBox="0 0 168 70" fill="none" xmlns="http://www.w3.org/2000/svg">
<path d="M117.348 19.9139C117.348 18.3507 117.724 17.8469 118.811 17.5632L120 17.2274V16.22H108.787V17.2274L110.138 17.5632C111.22 17.8469 111.82 18.2349 111.82 19.8618V46.7727C111.82 50.5245 111.495 53.5468 108.787 53.5468C107.049 53.5468 105.748 52.1456 105.804 51.1382C105.967 49.4013 108.787 49.5171 109 46.7206C109.163 44.7058 107.918 43.8662 106.78 43.6983C105.098 43.4725 103.04 44.9258 102.984 47.838C102.928 51.584 105.317 55 109.381 55C113.878 55 117.348 51.8677 117.348 45.8811V19.9139ZM99.5623 44.7579C99.5623 33.2883 87.3681 30.266 87.3681 21.9287C87.3681 20.1397 88.0185 17.4532 90.7264 17.4532C94.6285 17.4532 96.0918 22.6583 96.7422 28.9807H97.7738V16.22H97.1234C96.8543 17.4532 96.3665 18.0148 95.6601 18.0148C94.4155 18.0148 93.7651 16 90.7825 16C86.1796 16 83.0343 19.9718 83.0343 25.1768C83.0343 34.6315 95.2284 38.6033 95.2284 47.3343C95.2284 51.3061 93.44 53.5468 91.0011 53.5468C87.3681 53.5468 84.9854 49.1234 84.335 42.0193H83.3035V54.7742H83.9538C84.4976 52.9273 85.204 52.7593 85.7983 52.7593C86.8299 52.7593 87.912 55 91.0516 55C95.8788 55 99.5623 50.6924 99.5623 44.7579ZM58.0748 54.89H60.295L65.3352 27.3596H64.5784L70.1064 54.89H72.0574L78.6674 22.4325C79.3683 19.0223 79.7495 17.8469 81.0502 17.5111L82.0818 17.2274V16.22H74.4402V17.2274L75.5783 17.4532C77.2042 17.789 77.5798 18.7965 76.8229 22.9362L72.5452 44.7058H73.1955L68.8561 21.7608C68.4244 19.5781 68.1553 17.789 69.9438 17.4532L71.1323 17.2274V16.22H60.6763V17.2274L61.3827 17.3953C62.4647 17.679 62.6273 18.3507 63.059 20.4755L64.7409 28.8128L64.4158 23.7757L60.6763 44.1441H61.164L56.7741 21.7608C56.2864 19.4681 56.1238 17.7311 57.8562 17.3953L58.6747 17.2274V16.22H48V17.2274L49.026 17.5111C50.0015 17.789 50.5453 18.2928 51.1957 21.3671L58.0748 54.89Z" fill="white"/>
</svg>
