<svg width="295" height="914" viewBox="0 0 295 914" fill="none" xmlns="http://www.w3.org/2000/svg">
<path d="M117.736 570.568H120.184L122.92 562.168H120.82L118.96 568.348L117.1 562.168H115L117.736 570.568Z" fill="#111111"/>
<path d="M128.287 570.736C130.699 570.736 132.655 568.84 132.655 566.368C132.655 563.896 130.699 562 128.287 562C125.875 562 123.919 563.896 123.919 566.368C123.919 568.84 125.875 570.736 128.287 570.736ZM128.287 568.864C126.919 568.864 125.839 567.868 125.839 566.368C125.839 564.868 126.919 563.872 128.287 563.872C129.655 563.872 130.735 564.868 130.735 566.368C130.735 567.868 129.655 568.864 128.287 568.864Z" fill="#111111"/>
<path d="M139.895 562.168H133.655V564.016H135.815V570.568H137.735V564.016H139.895V562.168Z" fill="#111111"/>
<path d="M143.656 568.72V567.232H146.656V565.408H143.656V564.016H146.956V562.168H141.736V570.568H147.016V568.72H143.656Z" fill="#111111"/>
<path d="M152.459 562.168H149.099V570.568H152.459C154.775 570.568 156.539 568.744 156.539 566.368C156.539 563.992 154.775 562.168 152.459 562.168ZM152.459 568.72H151.019V564.016H152.459C153.779 564.016 154.691 564.928 154.691 566.368C154.691 567.808 153.779 568.72 152.459 568.72Z" fill="#111111"/>
<path d="M166.626 570.736C169.038 570.736 170.994 568.84 170.994 566.368C170.994 563.896 169.038 562 166.626 562C164.214 562 162.258 563.896 162.258 566.368C162.258 568.84 164.214 570.736 166.626 570.736ZM166.626 568.864C165.258 568.864 164.178 567.868 164.178 566.368C164.178 564.868 165.258 563.872 166.626 563.872C167.994 563.872 169.074 564.868 169.074 566.368C169.074 567.868 167.994 568.864 166.626 568.864Z" fill="#111111"/>
<path d="M177.755 562.168V566.728L174.515 562.168H173.075V570.568H174.995V566.008L178.235 570.568H179.675V562.168H177.755Z" fill="#111111"/>
<path d="M104 634V642.4H105.92V634H104Z" fill="#111111"/>
<path d="M116.763 634H114.843L112.563 637.732L110.283 634H108.363V642.4H110.283V637.516L112.455 641.08H112.671L114.843 637.516V642.4H116.763V634Z" fill="#111111"/>
<path d="M122.387 634H119.207V642.4H121.127V639.76H122.387C124.043 639.76 125.327 638.476 125.327 636.88C125.327 635.284 124.043 634 122.387 634ZM122.387 637.96H121.127V635.8H122.387C122.975 635.8 123.407 636.268 123.407 636.88C123.407 637.492 122.975 637.96 122.387 637.96Z" fill="#111111"/>
<path d="M129.205 640.552V634H127.285V642.4H132.205V640.552H129.205Z" fill="#111111"/>
<path d="M135.971 640.552V639.064H138.971V637.24H135.971V635.848H139.271V634H134.051V642.4H139.331V640.552H135.971Z" fill="#111111"/>
<path d="M149.814 634H147.894L145.614 637.732L143.334 634H141.414V642.4H143.334V637.516L145.506 641.08H145.722L147.894 637.516V642.4H149.814V634Z" fill="#111111"/>
<path d="M154.178 640.552V639.064H157.178V637.24H154.178V635.848H157.478V634H152.258V642.4H157.538V640.552H154.178Z" fill="#111111"/>
<path d="M164.301 634V638.56L161.061 634H159.621V642.4H161.541V637.84L164.781 642.4H166.221V634H164.301Z" fill="#111111"/>
<path d="M174.3 634H168.06V635.848H170.22V642.4H172.14V635.848H174.3V634Z" fill="#111111"/>
<path d="M178.061 640.552V639.064H181.061V637.24H178.061V635.848H181.361V634H176.141V642.4H181.421V640.552H178.061Z" fill="#111111"/>
<path d="M186.864 634H183.504V642.4H186.864C189.18 642.4 190.944 640.576 190.944 638.2C190.944 635.824 189.18 634 186.864 634ZM186.864 640.552H185.424V635.848H186.864C188.184 635.848 189.096 636.76 189.096 638.2C189.096 639.64 188.184 640.552 186.864 640.552Z" fill="#111111"/>
<path d="M108.947 216.568H111.047L108.191 208.168H105.743L102.887 216.568H104.987L105.407 215.248H108.527L108.947 216.568ZM105.983 213.448L106.967 210.364L107.951 213.448H105.983Z" fill="#BDBDBD"/>
<path d="M117.444 208.168V212.728L114.204 208.168H112.764V216.568H114.684V212.008L117.924 216.568H119.364V208.168H117.444Z" fill="#BDBDBD"/>
<path d="M128.643 208.168H126.459L124.863 211.408L123.267 208.168H121.083L123.903 213.34V216.568H125.823V213.34L128.643 208.168Z" fill="#BDBDBD"/>
<path d="M133.772 216.736C136.184 216.736 138.14 214.84 138.14 212.368C138.14 209.896 136.184 208 133.772 208C131.36 208 129.404 209.896 129.404 212.368C129.404 214.84 131.36 216.736 133.772 216.736ZM133.772 214.864C132.404 214.864 131.324 213.868 131.324 212.368C131.324 210.868 132.404 209.872 133.772 209.872C135.14 209.872 136.22 210.868 136.22 212.368C136.22 213.868 135.14 214.864 133.772 214.864Z" fill="#BDBDBD"/>
<path d="M144.901 208.168V212.728L141.661 208.168H140.221V216.568H142.141V212.008L145.381 216.568H146.821V208.168H144.901Z" fill="#BDBDBD"/>
<path d="M151.18 214.72V213.232H154.18V211.408H151.18V210.016H154.48V208.168H149.26V216.568H154.54V214.72H151.18Z" fill="#BDBDBD"/>
<path d="M162.339 216.568H164.523L165.891 211.612L167.259 216.568H169.443L171.759 208.168H169.743L168.291 214.048L166.671 208.168H165.111L163.491 214.048L162.039 208.168H160.023L162.339 216.568Z" fill="#BDBDBD"/>
<path d="M178.16 208.168V211.384H175.52V208.168H173.6V216.568H175.52V213.232H178.16V216.568H180.08V208.168H178.16Z" fill="#BDBDBD"/>
<path d="M186.529 216.736C188.941 216.736 190.897 214.84 190.897 212.368C190.897 209.896 188.941 208 186.529 208C184.117 208 182.161 209.896 182.161 212.368C182.161 214.84 184.117 216.736 186.529 216.736ZM186.529 214.864C185.161 214.864 184.081 213.868 184.081 212.368C184.081 210.868 185.161 209.872 186.529 209.872C187.897 209.872 188.977 210.868 188.977 212.368C188.977 213.868 187.897 214.864 186.529 214.864Z" fill="#BDBDBD"/>
<path d="M95.56 220.168V223.384H92.92V220.168H91V228.568H92.92V225.232H95.56V228.568H97.48V220.168H95.56Z" fill="#BDBDBD"/>
<path d="M103.93 228.736C106.342 228.736 108.298 226.84 108.298 224.368C108.298 221.896 106.342 220 103.93 220C101.518 220 99.5619 221.896 99.5619 224.368C99.5619 226.84 101.518 228.736 103.93 228.736ZM103.93 226.864C102.562 226.864 101.482 225.868 101.482 224.368C101.482 222.868 102.562 221.872 103.93 221.872C105.298 221.872 106.378 222.868 106.378 224.368C106.378 225.868 105.298 226.864 103.93 226.864Z" fill="#BDBDBD"/>
<path d="M112.299 226.72V220.168H110.379V228.568H115.299V226.72H112.299Z" fill="#BDBDBD"/>
<path d="M120.505 220.168H117.145V228.568H120.505C122.821 228.568 124.585 226.744 124.585 224.368C124.585 221.992 122.821 220.168 120.505 220.168ZM120.505 226.72H119.065V222.016H120.505C121.825 222.016 122.737 222.928 122.737 224.368C122.737 225.808 121.825 226.72 120.505 226.72Z" fill="#BDBDBD"/>
<path d="M129.299 228.736C131.123 228.736 132.419 227.776 132.419 226.156C132.419 224.38 130.991 223.936 129.719 223.552C128.411 223.156 128.207 222.892 128.207 222.508C128.207 222.172 128.507 221.872 129.107 221.872C129.875 221.872 130.271 222.244 130.559 222.844L132.179 221.896C131.567 220.66 130.487 220 129.107 220C127.655 220 126.287 220.936 126.287 222.556C126.287 224.164 127.511 224.764 128.759 225.112C130.019 225.46 130.499 225.664 130.499 226.18C130.499 226.504 130.271 226.864 129.359 226.864C128.411 226.864 127.895 226.396 127.595 225.7L125.939 226.66C126.407 227.896 127.535 228.736 129.299 228.736Z" fill="#BDBDBD"/>
<path d="M144.019 220.168H137.779V222.016H139.939V228.568H141.859V222.016H144.019V220.168Z" fill="#BDBDBD"/>
<path d="M150.419 220.168V223.384H147.779V220.168H145.859V228.568H147.779V225.232H150.419V228.568H152.339V220.168H150.419Z" fill="#BDBDBD"/>
<path d="M156.701 226.72V225.232H159.701V223.408H156.701V222.016H160.001V220.168H154.781V228.568H160.061V226.72H156.701Z" fill="#BDBDBD"/>
<path d="M174.545 220.168H172.625L170.345 223.9L168.065 220.168H166.145V228.568H168.065V223.684L170.237 227.248H170.453L172.625 223.684V228.568H174.545V220.168Z" fill="#BDBDBD"/>
<path d="M183.828 220.168H181.644L180.048 223.408L178.452 220.168H176.268L179.088 225.34V228.568H181.008V225.34L183.828 220.168Z" fill="#BDBDBD"/>
<path d="M190.755 224.212C191.211 223.816 191.487 223.264 191.487 222.568C191.487 221.116 190.299 220.168 188.835 220.168H185.547V228.568H189.075C190.575 228.568 191.787 227.596 191.787 226.108C191.787 225.256 191.379 224.608 190.755 224.212ZM188.835 221.968C189.279 221.968 189.567 222.28 189.567 222.712C189.567 223.144 189.267 223.456 188.835 223.456H187.467V221.968H188.835ZM189.075 226.768H187.467V225.16H189.075C189.555 225.16 189.867 225.496 189.867 225.964C189.867 226.432 189.555 226.768 189.075 226.768Z" fill="#BDBDBD"/>
<path d="M193.742 220.168V228.568H195.662V220.168H193.742Z" fill="#BDBDBD"/>
<path d="M203.745 220.168H197.505V222.016H199.665V228.568H201.585V222.016H203.745V220.168Z" fill="#BDBDBD"/>
<path d="M112.222 232.168H105.982V234.016H108.142V240.568H110.062V234.016H112.222V232.168Z" fill="#BDBDBD"/>
<path d="M117.59 240.736C120.002 240.736 121.958 238.84 121.958 236.368C121.958 233.896 120.002 232 117.59 232C115.178 232 113.222 233.896 113.222 236.368C113.222 238.84 115.178 240.736 117.59 240.736ZM117.59 238.864C116.222 238.864 115.142 237.868 115.142 236.368C115.142 234.868 116.222 233.872 117.59 233.872C118.958 233.872 120.038 234.868 120.038 236.368C120.038 237.868 118.958 238.864 117.59 238.864Z" fill="#BDBDBD"/>
<path d="M130.831 240.568L127.879 236.26L130.711 232.168H128.527L125.959 235.816V232.168H124.039V240.568H125.959V236.68L128.647 240.568H130.831Z" fill="#BDBDBD"/>
<path d="M134.471 238.72V237.232H137.471V235.408H134.471V234.016H137.771V232.168H132.551V240.568H137.831V238.72H134.471Z" fill="#BDBDBD"/>
<path d="M144.594 232.168V236.728L141.354 232.168H139.914V240.568H141.834V236.008L145.074 240.568H146.514V232.168H144.594Z" fill="#BDBDBD"/>
<path d="M154.153 241.768H155.953C155.113 240.088 154.633 238.288 154.633 236.368C154.633 234.448 155.113 232.648 155.953 230.968H154.153C153.313 232.648 152.833 234.448 152.833 236.368C152.833 238.288 153.313 240.088 154.153 241.768Z" fill="#BDBDBD"/>
<path d="M166.197 232.168H164.277L161.997 235.9L159.717 232.168H157.797V240.568H159.717V235.684L161.889 239.248H162.105L164.277 235.684V240.568H166.197V232.168Z" fill="#BDBDBD"/>
<path d="M175.481 232.168H173.297L171.701 235.408L170.105 232.168H167.921L170.741 237.34V240.568H172.661V237.34L175.481 232.168Z" fill="#BDBDBD"/>
<path d="M182.407 236.212C182.863 235.816 183.139 235.264 183.139 234.568C183.139 233.116 181.951 232.168 180.487 232.168H177.199V240.568H180.727C182.227 240.568 183.439 239.596 183.439 238.108C183.439 237.256 183.031 236.608 182.407 236.212ZM180.487 233.968C180.931 233.968 181.219 234.28 181.219 234.712C181.219 235.144 180.919 235.456 180.487 235.456H179.119V233.968H180.487ZM180.727 238.768H179.119V237.16H180.727C181.207 237.16 181.519 237.496 181.519 237.964C181.519 238.432 181.207 238.768 180.727 238.768Z" fill="#BDBDBD"/>
<path d="M186.36 241.768C187.2 240.088 187.68 238.288 187.68 236.368C187.68 234.448 187.2 232.648 186.36 230.968H184.56C185.4 232.648 185.88 234.448 185.88 236.368C185.88 238.288 185.4 240.088 184.56 241.768H186.36Z" fill="#BDBDBD"/>
<g filter="url(#filter0_dd)">
<rect x="20" y="330" width="255" height="48" rx="24" fill="white"/>
</g>
<g filter="url(#filter1_dd)">
<rect x="20" y="386" width="255" height="48" rx="24" fill="white"/>
</g>
<g filter="url(#filter2_dd)">
<rect x="20" y="442" width="255" height="48" rx="24" fill="white"/>
</g>
<g filter="url(#filter3_dd)">
<rect x="20" y="498" width="255" height="48" rx="24" fill="white"/>
</g>
<path d="M78.7284 526.168C80.2644 526.168 81.6084 525.412 82.3284 524.224L80.6724 523.264C80.3124 523.912 79.5804 524.296 78.7284 524.296C77.2404 524.296 76.2804 523.3 76.2804 521.8C76.2804 520.3 77.2404 519.304 78.7284 519.304C79.5804 519.304 80.3004 519.688 80.6724 520.336L82.3284 519.376C81.5964 518.188 80.2524 517.432 78.7284 517.432C76.1964 517.432 74.3604 519.328 74.3604 521.8C74.3604 524.272 76.1964 526.168 78.7284 526.168Z" fill="#001358"/>
<path d="M88.119 526.168C90.531 526.168 92.487 524.272 92.487 521.8C92.487 519.328 90.531 517.432 88.119 517.432C85.707 517.432 83.751 519.328 83.751 521.8C83.751 524.272 85.707 526.168 88.119 526.168ZM88.119 524.296C86.751 524.296 85.671 523.3 85.671 521.8C85.671 520.3 86.751 519.304 88.119 519.304C89.487 519.304 90.567 520.3 90.567 521.8C90.567 523.3 89.487 524.296 88.119 524.296Z" fill="#001358"/>
<path d="M99.248 517.6V522.16L96.008 517.6H94.568V526H96.488V521.44L99.728 526H101.168V517.6H99.248Z" fill="#001358"/>
<path d="M109.247 517.6H103.007V519.448H105.167V526H107.087V519.448H109.247V517.6Z" fill="#001358"/>
<path d="M115.504 526H117.568L115.78 522.916C116.704 522.448 117.328 521.512 117.328 520.48C117.328 518.884 116.044 517.6 114.448 517.6H111.088V526H113.008V523.24H113.92L115.504 526ZM113.008 519.4H114.448C114.976 519.4 115.408 519.868 115.408 520.48C115.408 521.092 114.976 521.56 114.448 521.56H113.008V519.4Z" fill="#001358"/>
<path d="M123.361 526.168C125.773 526.168 127.729 524.272 127.729 521.8C127.729 519.328 125.773 517.432 123.361 517.432C120.949 517.432 118.993 519.328 118.993 521.8C118.993 524.272 120.949 526.168 123.361 526.168ZM123.361 524.296C121.993 524.296 120.913 523.3 120.913 521.8C120.913 520.3 121.993 519.304 123.361 519.304C124.729 519.304 125.809 520.3 125.809 521.8C125.809 523.3 124.729 524.296 123.361 524.296Z" fill="#001358"/>
<path d="M131.73 524.152V517.6H129.81V526H134.73V524.152H131.73Z" fill="#001358"/>
<path d="M144.584 526.168C146.996 526.168 148.952 524.272 148.952 521.8C148.952 519.328 146.996 517.432 144.584 517.432C142.172 517.432 140.216 519.328 140.216 521.8C140.216 524.272 142.172 526.168 144.584 526.168ZM144.584 524.296C143.216 524.296 142.136 523.3 142.136 521.8C142.136 520.3 143.216 519.304 144.584 519.304C145.952 519.304 147.032 520.3 147.032 521.8C147.032 523.3 145.952 524.296 144.584 524.296Z" fill="#001358"/>
<path d="M156.133 519.448V517.6H151.033V526H152.953V522.916H156.073V521.068H152.953V519.448H156.133Z" fill="#001358"/>
<path d="M167.367 519.448V517.6H162.267V526H164.187V522.916H167.307V521.068H164.187V519.448H167.367Z" fill="#001358"/>
<path d="M169.502 517.6V526H171.422V517.6H169.502Z" fill="#001358"/>
<path d="M178.545 517.6V522.16L175.305 517.6H173.865V526H175.785V521.44L179.025 526H180.465V517.6H178.545Z" fill="#001358"/>
<path d="M188.244 526H190.344L187.488 517.6H185.04L182.184 526H184.284L184.704 524.68H187.824L188.244 526ZM185.28 522.88L186.264 519.796L187.248 522.88H185.28Z" fill="#001358"/>
<path d="M196.74 517.6V522.16L193.5 517.6H192.06V526H193.98V521.44L197.22 526H198.66V517.6H196.74Z" fill="#001358"/>
<path d="M205.107 526.168C206.643 526.168 207.987 525.412 208.707 524.224L207.051 523.264C206.691 523.912 205.959 524.296 205.107 524.296C203.619 524.296 202.659 523.3 202.659 521.8C202.659 520.3 203.619 519.304 205.107 519.304C205.959 519.304 206.679 519.688 207.051 520.336L208.707 519.376C207.975 518.188 206.631 517.432 205.107 517.432C202.575 517.432 200.739 519.328 200.739 521.8C200.739 524.272 202.575 526.168 205.107 526.168Z" fill="#001358"/>
<path d="M212.527 524.152V522.664H215.527V520.84H212.527V519.448H215.827V517.6H210.607V526H215.887V524.152H212.527Z" fill="#001358"/>
<path d="M220.91 526.168C222.734 526.168 224.03 525.208 224.03 523.588C224.03 521.812 222.602 521.368 221.33 520.984C220.022 520.588 219.818 520.324 219.818 519.94C219.818 519.604 220.118 519.304 220.718 519.304C221.486 519.304 221.882 519.676 222.17 520.276L223.79 519.328C223.178 518.092 222.098 517.432 220.718 517.432C219.266 517.432 217.898 518.368 217.898 519.988C217.898 521.596 219.122 522.196 220.37 522.544C221.63 522.892 222.11 523.096 222.11 523.612C222.11 523.936 221.882 524.296 220.97 524.296C220.022 524.296 219.506 523.828 219.206 523.132L217.55 524.092C218.018 525.328 219.146 526.168 220.91 526.168Z" fill="#001358"/>
<path d="M79.2994 343.6H77.3794L75.0994 347.332L72.8194 343.6H70.8994V352H72.8194V347.116L74.9914 350.68H75.2074L77.3794 347.116V352H79.2994V343.6Z" fill="#2E58DB"/>
<path d="M87.0832 352H89.1832L86.3272 343.6H83.8792L81.0232 352H83.1232L83.5432 350.68H86.6632L87.0832 352ZM84.1192 348.88L85.1032 345.796L86.0872 348.88H84.1192Z" fill="#2E58DB"/>
<path d="M95.5794 343.6V348.16L92.3394 343.6H90.8994V352H92.8194V347.44L96.0594 352H97.4994V343.6H95.5794Z" fill="#2E58DB"/>
<path d="M105.278 352H107.378L104.522 343.6H102.074L99.2185 352H101.318L101.738 350.68H104.858L105.278 352ZM102.314 348.88L103.298 345.796L104.282 348.88H102.314Z" fill="#2E58DB"/>
<path d="M117.106 347.32H112.894V349H115.138C114.838 349.804 114.106 350.296 112.99 350.296C111.358 350.296 110.35 349.252 110.35 347.824C110.35 346.348 111.406 345.304 112.822 345.304C113.77 345.304 114.526 345.736 114.874 346.288L116.506 345.352C115.798 344.224 114.442 343.432 112.834 343.432C110.362 343.432 108.43 345.376 108.43 347.812C108.43 350.224 110.326 352.168 112.966 352.168C115.318 352.168 117.106 350.608 117.106 348.04V347.32Z" fill="#2E58DB"/>
<path d="M121.108 350.152V348.664H124.108V346.84H121.108V345.448H124.408V343.6H119.188V352H124.468V350.152H121.108Z" fill="#2E58DB"/>
<path d="M134.952 343.6H133.032L130.752 347.332L128.472 343.6H126.552V352H128.472V347.116L130.644 350.68H130.86L133.032 347.116V352H134.952V343.6Z" fill="#2E58DB"/>
<path d="M139.316 350.152V348.664H142.316V346.84H139.316V345.448H142.616V343.6H137.396V352H142.676V350.152H139.316Z" fill="#2E58DB"/>
<path d="M149.439 343.6V348.16L146.199 343.6H144.759V352H146.679V347.44L149.919 352H151.359V343.6H149.439Z" fill="#2E58DB"/>
<path d="M159.438 343.6H153.198V345.448H155.358V352H157.278V345.448H159.438V343.6Z" fill="#2E58DB"/>
<path d="M169.286 352.168C171.698 352.168 173.654 350.272 173.654 347.8C173.654 345.328 171.698 343.432 169.286 343.432C166.874 343.432 164.918 345.328 164.918 347.8C164.918 350.272 166.874 352.168 169.286 352.168ZM169.286 350.296C167.918 350.296 166.838 349.3 166.838 347.8C166.838 346.3 167.918 345.304 169.286 345.304C170.654 345.304 171.734 346.3 171.734 347.8C171.734 349.3 170.654 350.296 169.286 350.296Z" fill="#2E58DB"/>
<path d="M180.835 345.448V343.6H175.735V352H177.655V348.916H180.775V347.068H177.655V345.448H180.835Z" fill="#2E58DB"/>
<path d="M192.31 352H194.41L191.554 343.6H189.106L186.25 352H188.35L188.77 350.68H191.89L192.31 352ZM189.346 348.88L190.33 345.796L191.314 348.88H189.346Z" fill="#2E58DB"/>
<path d="M198.89 352.168C200.714 352.168 202.01 351.208 202.01 349.588C202.01 347.812 200.582 347.368 199.31 346.984C198.002 346.588 197.798 346.324 197.798 345.94C197.798 345.604 198.098 345.304 198.698 345.304C199.466 345.304 199.862 345.676 200.15 346.276L201.77 345.328C201.158 344.092 200.078 343.432 198.698 343.432C197.246 343.432 195.878 344.368 195.878 345.988C195.878 347.596 197.102 348.196 198.35 348.544C199.61 348.892 200.09 349.096 200.09 349.612C200.09 349.936 199.862 350.296 198.95 350.296C198.002 350.296 197.486 349.828 197.186 349.132L195.53 350.092C195.998 351.328 197.126 352.168 198.89 352.168Z" fill="#2E58DB"/>
<path d="M206.675 352.168C208.499 352.168 209.795 351.208 209.795 349.588C209.795 347.812 208.367 347.368 207.095 346.984C205.787 346.588 205.583 346.324 205.583 345.94C205.583 345.604 205.883 345.304 206.483 345.304C207.251 345.304 207.647 345.676 207.935 346.276L209.555 345.328C208.943 344.092 207.863 343.432 206.483 343.432C205.031 343.432 203.663 344.368 203.663 345.988C203.663 347.596 204.887 348.196 206.135 348.544C207.395 348.892 207.875 349.096 207.875 349.612C207.875 349.936 207.647 350.296 206.735 350.296C205.787 350.296 205.271 349.828 204.971 349.132L203.315 350.092C203.783 351.328 204.911 352.168 206.675 352.168Z" fill="#2E58DB"/>
<path d="M213.616 350.152V348.664H216.616V346.84H213.616V345.448H216.916V343.6H211.696V352H216.976V350.152H213.616Z" fill="#2E58DB"/>
<path d="M224.7 343.6H218.46V345.448H220.62V352H222.54V345.448H224.7V343.6Z" fill="#2E58DB"/>
<path d="M58.0006 355.6H56.0806L53.8006 359.332L51.5206 355.6H49.6006V364H51.5206V359.116L53.6926 362.68H53.9086L56.0806 359.116V364H58.0006V355.6Z" fill="#2E58DB"/>
<path d="M65.7843 364H67.8843L65.0283 355.6H62.5803L59.7243 364H61.8243L62.2443 362.68H65.3643L65.7843 364ZM62.8203 360.88L63.8043 357.796L64.7883 360.88H62.8203Z" fill="#2E58DB"/>
<path d="M74.2806 355.6V360.16L71.0406 355.6H69.6006V364H71.5206V359.44L74.7606 364H76.2006V355.6H74.2806Z" fill="#2E58DB"/>
<path d="M83.9796 364H86.0796L83.2236 355.6H80.7756L77.9196 364H80.0196L80.4396 362.68H83.5596L83.9796 364ZM81.0156 360.88L81.9996 357.796L82.9836 360.88H81.0156Z" fill="#2E58DB"/>
<path d="M95.8072 359.32H91.5952V361H93.8392C93.5392 361.804 92.8072 362.296 91.6912 362.296C90.0592 362.296 89.0512 361.252 89.0512 359.824C89.0512 358.348 90.1072 357.304 91.5232 357.304C92.4712 357.304 93.2272 357.736 93.5752 358.288L95.2072 357.352C94.4992 356.224 93.1432 355.432 91.5352 355.432C89.0632 355.432 87.1312 357.376 87.1312 359.812C87.1312 362.224 89.0272 364.168 91.6672 364.168C94.0192 364.168 95.8072 362.608 95.8072 360.04V359.32Z" fill="#2E58DB"/>
<path d="M99.8096 362.152V360.664H102.81V358.84H99.8096V357.448H103.11V355.6H97.8896V364H103.17V362.152H99.8096Z" fill="#2E58DB"/>
<path d="M109.669 364H111.733L109.945 360.916C110.869 360.448 111.493 359.512 111.493 358.48C111.493 356.884 110.209 355.6 108.613 355.6H105.253V364H107.173V361.24H108.085L109.669 364ZM107.173 357.4H108.613C109.141 357.4 109.573 357.868 109.573 358.48C109.573 359.092 109.141 359.56 108.613 359.56H107.173V357.4Z" fill="#2E58DB"/>
<path d="M116.459 364.168C118.283 364.168 119.579 363.208 119.579 361.588C119.579 359.812 118.151 359.368 116.879 358.984C115.571 358.588 115.367 358.324 115.367 357.94C115.367 357.604 115.667 357.304 116.267 357.304C117.035 357.304 117.431 357.676 117.719 358.276L119.339 357.328C118.727 356.092 117.647 355.432 116.267 355.432C114.815 355.432 113.447 356.368 113.447 357.988C113.447 359.596 114.671 360.196 115.919 360.544C117.179 360.892 117.659 361.096 117.659 361.612C117.659 361.936 117.431 362.296 116.519 362.296C115.571 362.296 115.055 361.828 114.755 361.132L113.099 362.092C113.567 363.328 114.695 364.168 116.459 364.168Z" fill="#2E58DB"/>
<path d="M130.878 364H132.978L130.122 355.6H127.674L124.818 364H126.918L127.338 362.68H130.458L130.878 364ZM127.914 360.88L128.898 357.796L129.882 360.88H127.914Z" fill="#2E58DB"/>
<path d="M139.374 355.6V360.16L136.134 355.6H134.694V364H136.614V359.44L139.854 364H141.294V355.6H139.374Z" fill="#2E58DB"/>
<path d="M147.093 355.6H143.733V364H147.093C149.409 364 151.173 362.176 151.173 359.8C151.173 357.424 149.409 355.6 147.093 355.6ZM147.093 362.152H145.653V357.448H147.093C148.413 357.448 149.325 358.36 149.325 359.8C149.325 361.24 148.413 362.152 147.093 362.152Z" fill="#2E58DB"/>
<path d="M157.253 355.6V364H159.173V355.6H157.253Z" fill="#2E58DB"/>
<path d="M165.624 364.168C168.036 364.168 169.992 362.272 169.992 359.8C169.992 357.328 168.036 355.432 165.624 355.432C163.212 355.432 161.256 357.328 161.256 359.8C161.256 362.272 163.212 364.168 165.624 364.168ZM165.624 362.296C164.256 362.296 163.176 361.3 163.176 359.8C163.176 358.3 164.256 357.304 165.624 357.304C166.992 357.304 168.072 358.3 168.072 359.8C168.072 361.3 166.992 362.296 165.624 362.296Z" fill="#2E58DB"/>
<path d="M177.233 355.6H170.993V357.448H173.153V364H175.073V357.448H177.233V355.6Z" fill="#2E58DB"/>
<path d="M186.253 355.6H183.073V364H184.993V361.36H186.253C187.909 361.36 189.193 360.076 189.193 358.48C189.193 356.884 187.909 355.6 186.253 355.6ZM186.253 359.56H184.993V357.4H186.253C186.841 357.4 187.273 357.868 187.273 358.48C187.273 359.092 186.841 359.56 186.253 359.56Z" fill="#2E58DB"/>
<path d="M195.648 364H197.748L194.892 355.6H192.444L189.588 364H191.688L192.108 362.68H195.228L195.648 364ZM192.684 360.88L193.668 357.796L194.652 360.88H192.684Z" fill="#2E58DB"/>
<path d="M203.88 364H205.944L204.156 360.916C205.08 360.448 205.704 359.512 205.704 358.48C205.704 356.884 204.42 355.6 202.824 355.6H199.464V364H201.384V361.24H202.296L203.88 364ZM201.384 357.4H202.824C203.352 357.4 203.784 357.868 203.784 358.48C203.784 359.092 203.352 359.56 202.824 359.56H201.384V357.4Z" fill="#2E58DB"/>
<path d="M213.311 355.6H207.071V357.448H209.231V364H211.151V357.448H213.311V355.6Z" fill="#2E58DB"/>
<path d="M219.831 355.6V360.16L216.591 355.6H215.151V364H217.071V359.44L220.311 364H221.751V355.6H219.831Z" fill="#2E58DB"/>
<path d="M226.11 362.152V360.664H229.11V358.84H226.11V357.448H229.41V355.6H224.19V364H229.47V362.152H226.11Z" fill="#2E58DB"/>
<path d="M235.97 364H238.034L236.246 360.916C237.17 360.448 237.794 359.512 237.794 358.48C237.794 356.884 236.51 355.6 234.914 355.6H231.554V364H233.474V361.24H234.386L235.97 364ZM233.474 357.4H234.914C235.442 357.4 235.874 357.868 235.874 358.48C235.874 359.092 235.442 359.56 234.914 359.56H233.474V357.4Z" fill="#2E58DB"/>
<path d="M242.759 364.168C244.583 364.168 245.879 363.208 245.879 361.588C245.879 359.812 244.451 359.368 243.179 358.984C241.871 358.588 241.667 358.324 241.667 357.94C241.667 357.604 241.967 357.304 242.567 357.304C243.335 357.304 243.731 357.676 244.019 358.276L245.639 357.328C245.027 356.092 243.947 355.432 242.567 355.432C241.115 355.432 239.747 356.368 239.747 357.988C239.747 359.596 240.971 360.196 242.219 360.544C243.479 360.892 243.959 361.096 243.959 361.612C243.959 361.936 243.731 362.296 242.819 362.296C241.871 362.296 241.355 361.828 241.055 361.132L239.399 362.092C239.867 363.328 240.995 364.168 242.759 364.168Z" fill="#2E58DB"/>
<path d="M85.9277 409.644C86.3837 409.248 86.6597 408.696 86.6597 408C86.6597 406.548 85.4717 405.6 84.0077 405.6H80.7197V414H84.2477C85.7477 414 86.9597 413.028 86.9597 411.54C86.9597 410.688 86.5517 410.04 85.9277 409.644ZM84.0077 407.4C84.4517 407.4 84.7397 407.712 84.7397 408.144C84.7397 408.576 84.4397 408.888 84.0077 408.888H82.6397V407.4H84.0077ZM84.2477 412.2H82.6397V410.592H84.2477C84.7277 410.592 85.0397 410.928 85.0397 411.396C85.0397 411.864 84.7277 412.2 84.2477 412.2Z" fill="#1890FF"/>
<path d="M92.0364 414.168C93.8844 414.168 95.2764 413.088 95.2764 411.288V405.6H93.3564V411.12C93.3564 411.756 93.0564 412.296 92.0364 412.296C91.0164 412.296 90.7164 411.756 90.7164 411.12V405.6H88.7964V411.288C88.7964 413.088 90.1884 414.168 92.0364 414.168Z" fill="#1890FF"/>
<path d="M100.601 414.168C102.425 414.168 103.721 413.208 103.721 411.588C103.721 409.812 102.293 409.368 101.021 408.984C99.7131 408.588 99.5091 408.324 99.5091 407.94C99.5091 407.604 99.8091 407.304 100.409 407.304C101.177 407.304 101.573 407.676 101.861 408.276L103.481 407.328C102.869 406.092 101.789 405.432 100.409 405.432C98.9571 405.432 97.5891 406.368 97.5891 407.988C97.5891 409.596 98.8131 410.196 100.061 410.544C101.321 410.892 101.801 411.096 101.801 411.612C101.801 411.936 101.573 412.296 100.661 412.296C99.7131 412.296 99.1971 411.828 98.8971 411.132L97.2411 412.092C97.7091 413.328 98.8371 414.168 100.601 414.168Z" fill="#1890FF"/>
<path d="M105.622 405.6V414H107.542V405.6H105.622Z" fill="#1890FF"/>
<path d="M114.665 405.6V410.16L111.425 405.6H109.985V414H111.905V409.44L115.145 414H116.585V405.6H114.665Z" fill="#1890FF"/>
<path d="M120.944 412.152V410.664H123.944V408.84H120.944V407.448H124.244V405.6H119.024V414H124.304V412.152H120.944Z" fill="#1890FF"/>
<path d="M129.328 414.168C131.152 414.168 132.448 413.208 132.448 411.588C132.448 409.812 131.02 409.368 129.748 408.984C128.44 408.588 128.236 408.324 128.236 407.94C128.236 407.604 128.536 407.304 129.136 407.304C129.904 407.304 130.3 407.676 130.588 408.276L132.208 407.328C131.596 406.092 130.516 405.432 129.136 405.432C127.684 405.432 126.316 406.368 126.316 407.988C126.316 409.596 127.54 410.196 128.788 410.544C130.048 410.892 130.528 411.096 130.528 411.612C130.528 411.936 130.3 412.296 129.388 412.296C128.44 412.296 127.924 411.828 127.624 411.132L125.968 412.092C126.436 413.328 127.564 414.168 129.328 414.168Z" fill="#1890FF"/>
<path d="M137.113 414.168C138.937 414.168 140.233 413.208 140.233 411.588C140.233 409.812 138.805 409.368 137.533 408.984C136.225 408.588 136.021 408.324 136.021 407.94C136.021 407.604 136.321 407.304 136.921 407.304C137.689 407.304 138.085 407.676 138.373 408.276L139.993 407.328C139.381 406.092 138.301 405.432 136.921 405.432C135.469 405.432 134.101 406.368 134.101 407.988C134.101 409.596 135.325 410.196 136.573 410.544C137.833 410.892 138.313 411.096 138.313 411.612C138.313 411.936 138.085 412.296 137.173 412.296C136.225 412.296 135.709 411.828 135.409 411.132L133.753 412.092C134.221 413.328 135.349 414.168 137.113 414.168Z" fill="#1890FF"/>
<path d="M149.552 405.6H146.192V414H149.552C151.868 414 153.632 412.176 153.632 409.8C153.632 407.424 151.868 405.6 149.552 405.6ZM149.552 412.152H148.112V407.448H149.552C150.872 407.448 151.784 408.36 151.784 409.8C151.784 411.24 150.872 412.152 149.552 412.152Z" fill="#1890FF"/>
<path d="M157.632 412.152V410.664H160.632V408.84H157.632V407.448H160.932V405.6H155.712V414H160.992V412.152H157.632Z" fill="#1890FF"/>
<path d="M167.025 414.168C168.561 414.168 169.905 413.412 170.625 412.224L168.969 411.264C168.609 411.912 167.877 412.296 167.025 412.296C165.537 412.296 164.577 411.3 164.577 409.8C164.577 408.3 165.537 407.304 167.025 407.304C167.877 407.304 168.597 407.688 168.969 408.336L170.625 407.376C169.893 406.188 168.549 405.432 167.025 405.432C164.493 405.432 162.657 407.328 162.657 409.8C162.657 412.272 164.493 414.168 167.025 414.168Z" fill="#1890FF"/>
<path d="M172.524 405.6V414H174.444V405.6H172.524Z" fill="#1890FF"/>
<path d="M179.711 414.168C181.535 414.168 182.831 413.208 182.831 411.588C182.831 409.812 181.403 409.368 180.131 408.984C178.823 408.588 178.619 408.324 178.619 407.94C178.619 407.604 178.919 407.304 179.519 407.304C180.287 407.304 180.683 407.676 180.971 408.276L182.591 407.328C181.979 406.092 180.899 405.432 179.519 405.432C178.067 405.432 176.699 406.368 176.699 407.988C176.699 409.596 177.923 410.196 179.171 410.544C180.431 410.892 180.911 411.096 180.911 411.612C180.911 411.936 180.683 412.296 179.771 412.296C178.823 412.296 178.307 411.828 178.007 411.132L176.351 412.092C176.819 413.328 177.947 414.168 179.711 414.168Z" fill="#1890FF"/>
<path d="M184.731 405.6V414H186.651V405.6H184.731Z" fill="#1890FF"/>
<path d="M193.103 414.168C195.515 414.168 197.471 412.272 197.471 409.8C197.471 407.328 195.515 405.432 193.103 405.432C190.691 405.432 188.735 407.328 188.735 409.8C188.735 412.272 190.691 414.168 193.103 414.168ZM193.103 412.296C191.735 412.296 190.655 411.3 190.655 409.8C190.655 408.3 191.735 407.304 193.103 407.304C194.471 407.304 195.551 408.3 195.551 409.8C195.551 411.3 194.471 412.296 193.103 412.296Z" fill="#1890FF"/>
<path d="M204.232 405.6V410.16L200.992 405.6H199.552V414H201.472V409.44L204.712 414H206.152V405.6H204.232Z" fill="#1890FF"/>
<path d="M211.414 414.168C213.238 414.168 214.534 413.208 214.534 411.588C214.534 409.812 213.106 409.368 211.834 408.984C210.526 408.588 210.322 408.324 210.322 407.94C210.322 407.604 210.622 407.304 211.222 407.304C211.99 407.304 212.386 407.676 212.674 408.276L214.294 407.328C213.682 406.092 212.602 405.432 211.222 405.432C209.77 405.432 208.402 406.368 208.402 407.988C208.402 409.596 209.626 410.196 210.874 410.544C212.134 410.892 212.614 411.096 212.614 411.612C212.614 411.936 212.386 412.296 211.474 412.296C210.526 412.296 210.01 411.828 209.71 411.132L208.054 412.092C208.522 413.328 209.65 414.168 211.414 414.168Z" fill="#1890FF"/>
<path d="M104.4 462.6V467.16L101.16 462.6H99.7197V471H101.64V466.44L104.88 471H106.32V462.6H104.4Z" fill="#0B3F9C"/>
<path d="M110.679 469.152V467.664H113.679V465.84H110.679V464.448H113.979V462.6H108.759V471H114.039V469.152H110.679Z" fill="#0B3F9C"/>
<path d="M117.838 471H120.022L121.39 466.044L122.758 471H124.942L127.258 462.6H125.242L123.79 468.48L122.17 462.6H120.61L118.99 468.48L117.538 462.6H115.522L117.838 471Z" fill="#0B3F9C"/>
<path d="M138.199 464.448V462.6H133.099V471H135.019V467.916H138.139V466.068H135.019V464.448H138.199Z" fill="#0B3F9C"/>
<path d="M142.253 469.152V467.664H145.253V465.84H142.253V464.448H145.553V462.6H140.333V471H145.613V469.152H142.253Z" fill="#0B3F9C"/>
<path d="M153.153 471H155.253L152.397 462.6H149.949L147.093 471H149.193L149.613 469.68H152.733L153.153 471ZM150.189 467.88L151.173 464.796L152.157 467.88H150.189Z" fill="#0B3F9C"/>
<path d="M162.012 462.6H155.772V464.448H157.932V471H159.852V464.448H162.012V462.6Z" fill="#0B3F9C"/>
<path d="M167.033 471.168C168.881 471.168 170.273 470.088 170.273 468.288V462.6H168.353V468.12C168.353 468.756 168.053 469.296 167.033 469.296C166.013 469.296 165.713 468.756 165.713 468.12V462.6H163.793V468.288C163.793 470.088 165.185 471.168 167.033 471.168Z" fill="#0B3F9C"/>
<path d="M177.073 471H179.137L177.349 467.916C178.273 467.448 178.897 466.512 178.897 465.48C178.897 463.884 177.613 462.6 176.017 462.6H172.657V471H174.577V468.24H175.489L177.073 471ZM174.577 464.4H176.017C176.545 464.4 176.977 464.868 176.977 465.48C176.977 466.092 176.545 466.56 176.017 466.56H174.577V464.4Z" fill="#0B3F9C"/>
<path d="M182.96 469.152V467.664H185.96V465.84H182.96V464.448H186.26V462.6H181.04V471H186.32V469.152H182.96Z" fill="#0B3F9C"/>
<path d="M191.343 471.168C193.167 471.168 194.463 470.208 194.463 468.588C194.463 466.812 193.035 466.368 191.763 465.984C190.455 465.588 190.251 465.324 190.251 464.94C190.251 464.604 190.551 464.304 191.151 464.304C191.919 464.304 192.315 464.676 192.603 465.276L194.223 464.328C193.611 463.092 192.531 462.432 191.151 462.432C189.699 462.432 188.331 463.368 188.331 464.988C188.331 466.596 189.555 467.196 190.803 467.544C192.063 467.892 192.543 468.096 192.543 468.612C192.543 468.936 192.315 469.296 191.403 469.296C190.455 469.296 189.939 468.828 189.639 468.132L187.983 469.092C188.451 470.328 189.579 471.168 191.343 471.168Z" fill="#0B3F9C"/>
<g filter="url(#filter4_dd)">
<circle cx="148" cy="108" r="92" fill="#001358"/>
<circle cx="148" cy="108" r="88" stroke="white" stroke-width="8"/>
</g>
<path d="M100.573 153.294C103.261 153.294 105.613 151.971 106.873 149.892L103.975 148.212C103.345 149.346 102.064 150.018 100.573 150.018C97.9687 150.018 96.2887 148.275 96.2887 145.65C96.2887 143.025 97.9687 141.282 100.573 141.282C102.064 141.282 103.324 141.954 103.975 143.088L106.873 141.408C105.592 139.329 103.24 138.006 100.573 138.006C96.1417 138.006 92.9287 141.324 92.9287 145.65C92.9287 149.976 96.1417 153.294 100.573 153.294Z" fill="white"/>
<path d="M113.485 153.294C116.572 153.294 119.05 150.879 119.05 147.75C119.05 144.621 116.572 142.206 113.485 142.206C110.398 142.206 107.92 144.621 107.92 147.75C107.92 150.879 110.398 153.294 113.485 153.294ZM113.485 150.228C112.12 150.228 111.07 149.241 111.07 147.75C111.07 146.259 112.12 145.272 113.485 145.272C114.85 145.272 115.9 146.259 115.9 147.75C115.9 149.241 114.85 150.228 113.485 150.228Z" fill="white"/>
<path d="M132.592 142.206C131.101 142.206 130.135 142.752 129.547 143.592C128.959 142.71 128.035 142.206 126.796 142.206C125.389 142.206 124.465 142.752 123.982 143.466V142.5H120.832V153H123.982V147.078C123.982 145.839 124.57 145.104 125.62 145.104C126.628 145.104 127.132 145.776 127.132 146.826V153H130.282V147.078C130.282 145.839 130.87 145.104 131.92 145.104C132.928 145.104 133.432 145.776 133.432 146.826V153H136.582V146.553C136.582 143.928 135.007 142.206 132.592 142.206Z" fill="white"/>
<path d="M150.495 142.206C149.004 142.206 148.038 142.752 147.45 143.592C146.862 142.71 145.938 142.206 144.699 142.206C143.292 142.206 142.368 142.752 141.885 143.466V142.5H138.735V153H141.885V147.078C141.885 145.839 142.473 145.104 143.523 145.104C144.531 145.104 145.035 145.776 145.035 146.826V153H148.185V147.078C148.185 145.839 148.773 145.104 149.823 145.104C150.831 145.104 151.335 145.776 151.335 146.826V153H154.485V146.553C154.485 143.928 152.91 142.206 150.495 142.206Z" fill="white"/>
<path d="M163.421 142.5V148.233C163.421 149.724 162.623 150.396 161.468 150.396C160.46 150.396 159.641 149.787 159.641 148.485V142.5H156.491V148.947C156.491 151.782 158.297 153.294 160.418 153.294C161.804 153.294 162.854 152.79 163.421 152.013V153H166.571V142.5H163.421Z" fill="white"/>
<path d="M175.034 142.206C173.648 142.206 172.598 142.71 172.031 143.487V142.5H168.881V153H172.031V147.267C172.031 145.776 172.829 145.104 173.984 145.104C174.992 145.104 175.811 145.713 175.811 147.015V153H178.961V146.553C178.961 143.718 177.155 142.206 175.034 142.206Z" fill="white"/>
<path d="M182.7 141.576C183.729 141.576 184.59 140.715 184.59 139.686C184.59 138.657 183.729 137.796 182.7 137.796C181.671 137.796 180.81 138.657 180.81 139.686C180.81 140.715 181.671 141.576 182.7 141.576ZM181.125 153H184.275V142.5H181.125V153Z" fill="white"/>
<path d="M192.733 145.524V142.5H190.57V139.56L187.42 140.505V142.5H185.74V145.524H187.42V149.241C187.42 152.181 188.617 153.42 192.733 153V150.144C191.347 150.228 190.57 150.144 190.57 149.241V145.524H192.733Z" fill="white"/>
<path d="M201.336 142.5L199.362 148.926L197.031 142.5H193.566L197.745 152.517C197.283 153.798 196.59 154.26 195.12 154.26V157.2C198.06 157.347 199.929 156.024 201.105 152.685L204.696 142.5H201.336Z" fill="white"/>
<path fill-rule="evenodd" clip-rule="evenodd" d="M180 91.0119L168.014 103.024H167.991C162.861 97.9155 155.822 94.7397 148.023 94.7397C140.224 94.7397 133.162 97.9155 128.032 103.024H128.009L116 91.0115L148 59L180 91.0119ZM148 66.0723L172.934 91.0149L167.731 96.229C162.219 92.1639 155.412 89.7397 148.023 89.7397C140.634 89.7397 133.81 92.1637 128.289 96.2326L123.07 91.0115L148 66.0723Z" fill="white"/>
<path fill-rule="evenodd" clip-rule="evenodd" d="M151.289 99.9408C150.208 99.7797 149.127 99.7107 147.999 99.7107C143.388 99.7107 139.073 101.053 135.456 103.38C134.105 104.249 132.852 105.255 131.716 106.38C131.661 106.435 131.606 106.49 131.551 106.546L148.022 123L164.471 106.546C164.397 106.47 164.322 106.396 164.247 106.321C163.129 105.22 161.897 104.233 160.568 103.378C157.824 101.612 154.671 100.411 151.289 99.9408ZM156.927 107.02L148.02 115.93L139.1 107.02C141.727 105.548 144.766 104.711 147.999 104.711C148.919 104.711 149.751 104.767 150.552 104.886L150.576 104.89L150.6 104.893C152.873 105.209 155.011 105.946 156.927 107.02Z" fill="white"/>
<g filter="url(#filter5_dd)">
<circle cx="148" cy="798" r="92" fill="#2E58DB"/>
<circle cx="148" cy="798" r="88" stroke="white" stroke-width="8"/>
</g>
<path d="M129.629 815H165.699C171.031 815 175.327 810.664 175.327 805.28V755.935C175.327 750.551 171.031 746.215 165.699 746.215H153.996C154.663 745.093 155.033 743.822 155.033 742.477C155.033 738.364 151.7 735 147.627 735C143.553 735 140.22 738.364 140.22 742.477C140.22 743.822 140.59 745.093 141.257 746.215H129.629C124.296 746.215 120 750.551 120 755.935V805.355C120 810.664 124.296 815 129.629 815ZM147.627 739.486C149.256 739.486 150.589 740.832 150.589 742.477C150.589 744.121 149.256 745.467 147.627 745.467C145.997 745.467 144.664 744.121 144.664 742.477C144.664 740.832 145.997 739.486 147.627 739.486ZM124.444 755.935C124.444 753.019 126.74 750.701 129.629 750.701H165.699C168.587 750.701 170.883 753.019 170.883 755.935V805.355C170.883 808.271 168.587 810.589 165.699 810.589H129.629C126.74 810.589 124.444 808.271 124.444 805.355V755.935Z" fill="white"/>
<path d="M135.643 758.925H159.684C160.922 758.925 161.869 757.953 161.869 756.682C161.869 755.411 160.922 754.439 159.684 754.439H135.643C134.405 754.439 133.458 755.411 133.458 756.682C133.458 757.953 134.405 758.925 135.643 758.925Z" fill="white"/>
<path d="M164.112 783.599L157.947 789.77H157.94C156.592 788.419 154.991 787.347 153.229 786.615C151.466 785.883 149.576 785.507 147.668 785.507C145.759 785.507 143.869 785.883 142.107 786.615C140.344 787.347 138.743 788.419 137.395 789.77H137.384L131.215 783.599L147.666 767.149L164.112 783.599Z" fill="#1890FF"/>
<path d="M156.127 791.589L147.672 800.047L139.205 791.589C140.312 790.473 141.629 789.587 143.081 788.985C144.533 788.382 146.091 788.075 147.663 788.081C148.228 788.081 148.793 788.12 149.354 788.199C151.922 788.556 154.302 789.747 156.127 791.589Z" fill="white"/>
<path d="M100.14 828.3H89.2197V831.534H92.9997V843H96.3597V831.534H100.14V828.3Z" fill="white"/>
<path d="M107.242 832.5V833.487C106.549 832.689 105.52 832.206 104.113 832.206C101.362 832.206 99.0938 834.621 99.0938 837.75C99.0938 840.879 101.362 843.294 104.113 843.294C105.52 843.294 106.549 842.811 107.242 842.013V843H110.392V832.5H107.242ZM104.743 840.312C103.294 840.312 102.244 839.325 102.244 837.75C102.244 836.175 103.294 835.188 104.743 835.188C106.192 835.188 107.242 836.175 107.242 837.75C107.242 839.325 106.192 840.312 104.743 840.312Z" fill="white"/>
<path d="M115.582 835.566C115.582 835.188 115.918 834.978 116.464 834.978C117.157 834.978 117.577 835.356 117.871 835.902L120.559 834.453C119.677 832.962 118.165 832.206 116.464 832.206C114.28 832.206 112.348 833.361 112.348 835.65C112.348 839.283 117.514 838.674 117.514 839.829C117.514 840.249 117.136 840.48 116.38 840.48C115.456 840.48 114.868 840.039 114.595 839.241L111.865 840.795C112.684 842.496 114.28 843.294 116.38 843.294C118.648 843.294 120.748 842.265 120.748 839.85C120.748 835.965 115.582 836.763 115.582 835.566Z" fill="white"/>
<path d="M132.401 843L128.474 837.75L132.296 832.5H128.621L125.471 837.099V828.3H122.321V843H125.471V838.359L128.831 843H132.401Z" fill="white"/>
<path d="M135.344 843.294C136.436 843.294 137.339 842.391 137.339 841.299C137.339 840.207 136.436 839.304 135.344 839.304C134.252 839.304 133.349 840.207 133.349 841.299C133.349 842.391 134.252 843.294 135.344 843.294Z" fill="white"/>
<path d="M154.25 828.3H150.89L146.9 834.831L142.91 828.3H139.55V843H142.91V834.453L146.711 840.69H147.089L150.89 834.453V843H154.25V828.3Z" fill="white"/>
<path d="M164.295 832.5V833.487C163.602 832.689 162.573 832.206 161.166 832.206C158.415 832.206 156.147 834.621 156.147 837.75C156.147 840.879 158.415 843.294 161.166 843.294C162.573 843.294 163.602 842.811 164.295 842.013V843H167.445V832.5H164.295ZM161.796 840.312C160.347 840.312 159.297 839.325 159.297 837.75C159.297 836.175 160.347 835.188 161.796 835.188C163.245 835.188 164.295 836.175 164.295 837.75C164.295 839.325 163.245 840.312 161.796 840.312Z" fill="white"/>
<path d="M172.906 834.369V832.5H169.756V843H172.906V838.254C172.906 836.175 174.754 835.65 176.056 835.86V832.29C174.733 832.29 173.326 832.962 172.906 834.369Z" fill="white"/>
<path d="M187.608 843L183.681 837.75L187.503 832.5H183.828L180.678 837.099V828.3H177.528V843H180.678V838.359L184.038 843H187.608Z" fill="white"/>
<path d="M190.945 839.01H198.4C198.484 838.611 198.526 838.191 198.526 837.75C198.526 834.579 196.258 832.206 193.192 832.206C189.874 832.206 187.606 834.621 187.606 837.75C187.606 840.879 189.832 843.294 193.423 843.294C195.418 843.294 196.972 842.559 198.001 841.131L195.481 839.682C195.061 840.144 194.326 840.48 193.465 840.48C192.31 840.48 191.344 840.102 190.945 839.01ZM190.882 836.658C191.176 835.587 191.974 834.999 193.171 834.999C194.116 834.999 195.061 835.44 195.397 836.658H190.882Z" fill="white"/>
<path d="M206.158 835.524V832.5H203.995V829.56L200.845 830.505V832.5H199.165V835.524H200.845V839.241C200.845 842.181 202.042 843.42 206.158 843V840.144C204.772 840.228 203.995 840.144 203.995 839.241V835.524H206.158Z" fill="white"/>
<g opacity="0.5">
<path opacity="0.8" fill-rule="evenodd" clip-rule="evenodd" d="M157.414 288.586C158.195 289.367 158.195 290.633 157.414 291.414L148.414 300.414C147.633 301.195 146.367 301.195 145.586 300.414L136.586 291.414C135.805 290.633 135.805 289.367 136.586 288.586C137.367 287.805 138.633 287.805 139.414 288.586L147 296.172L154.586 288.586C155.367 287.805 156.633 287.805 157.414 288.586Z" fill="#1890FF"/>
<path fill-rule="evenodd" clip-rule="evenodd" d="M157.414 301.586C158.195 302.367 158.195 303.633 157.414 304.414L148.414 313.414C147.633 314.195 146.367 314.195 145.586 313.414L136.586 304.414C135.805 303.633 135.805 302.367 136.586 301.586C137.367 300.805 138.633 300.805 139.414 301.586L147 309.172L154.586 301.586C155.367 300.805 156.633 300.805 157.414 301.586Z" fill="#1890FF"/>
<path opacity="0.6" fill-rule="evenodd" clip-rule="evenodd" d="M157.414 275.586C158.195 276.367 158.195 277.633 157.414 278.414L148.414 287.414C147.633 288.195 146.367 288.195 145.586 287.414L136.586 278.414C135.805 277.633 135.805 276.367 136.586 275.586C137.367 274.805 138.633 274.805 139.414 275.586L147 283.172L154.586 275.586C155.367 274.805 156.633 274.805 157.414 275.586Z" fill="#1890FF"/>
</g>
<g opacity="0.5">
<path opacity="0.8" fill-rule="evenodd" clip-rule="evenodd" d="M157.414 592.586C158.195 593.367 158.195 594.633 157.414 595.414L148.414 604.414C147.633 605.195 146.367 605.195 145.586 604.414L136.586 595.414C135.805 594.633 135.805 593.367 136.586 592.586C137.367 591.805 138.633 591.805 139.414 592.586L147 600.172L154.586 592.586C155.367 591.805 156.633 591.805 157.414 592.586Z" fill="#1890FF"/>
<path fill-rule="evenodd" clip-rule="evenodd" d="M157.414 605.586C158.195 606.367 158.195 607.633 157.414 608.414L148.414 617.414C147.633 618.195 146.367 618.195 145.586 617.414L136.586 608.414C135.805 607.633 135.805 606.367 136.586 605.586C137.367 604.805 138.633 604.805 139.414 605.586L147 613.172L154.586 605.586C155.367 604.805 156.633 604.805 157.414 605.586Z" fill="#1890FF"/>
<path opacity="0.6" fill-rule="evenodd" clip-rule="evenodd" d="M157.414 579.586C158.195 580.367 158.195 581.633 157.414 582.414L148.414 591.414C147.633 592.195 146.367 592.195 145.586 591.414L136.586 582.414C135.805 581.633 135.805 580.367 136.586 579.586C137.367 578.805 138.633 578.805 139.414 579.586L147 587.172L154.586 579.586C155.367 578.805 156.633 578.805 157.414 579.586Z" fill="#1890FF"/>
</g>
<g opacity="0.5">
<path opacity="0.8" fill-rule="evenodd" clip-rule="evenodd" d="M157.414 664.586C158.195 665.367 158.195 666.633 157.414 667.414L148.414 676.414C147.633 677.195 146.367 677.195 145.586 676.414L136.586 667.414C135.805 666.633 135.805 665.367 136.586 664.586C137.367 663.805 138.633 663.805 139.414 664.586L147 672.172L154.586 664.586C155.367 663.805 156.633 663.805 157.414 664.586Z" fill="#1890FF"/>
<path fill-rule="evenodd" clip-rule="evenodd" d="M157.414 677.586C158.195 678.367 158.195 679.633 157.414 680.414L148.414 689.414C147.633 690.195 146.367 690.195 145.586 689.414L136.586 680.414C135.805 679.633 135.805 678.367 136.586 677.586C137.367 676.805 138.633 676.805 139.414 677.586L147 685.172L154.586 677.586C155.367 676.805 156.633 676.805 157.414 677.586Z" fill="#1890FF"/>
<path opacity="0.6" fill-rule="evenodd" clip-rule="evenodd" d="M157.414 651.586C158.195 652.367 158.195 653.633 157.414 654.414L148.414 663.414C147.633 664.195 146.367 664.195 145.586 663.414L136.586 654.414C135.805 653.633 135.805 652.367 136.586 651.586C137.367 650.805 138.633 650.805 139.414 651.586L147 659.172L154.586 651.586C155.367 650.805 156.633 650.805 157.414 651.586Z" fill="#1890FF"/>
</g>
<path d="M117.18 258.168H114V266.568H115.92V263.928H117.18C118.836 263.928 120.12 262.644 120.12 261.048C120.12 259.452 118.836 258.168 117.18 258.168ZM117.18 262.128H115.92V259.968H117.18C117.768 259.968 118.2 260.436 118.2 261.048C118.2 261.66 117.768 262.128 117.18 262.128Z" fill="#111111"/>
<path d="M126.494 266.568H128.558L126.77 263.484C127.694 263.016 128.318 262.08 128.318 261.048C128.318 259.452 127.034 258.168 125.438 258.168H122.078V266.568H123.998V263.808H124.91L126.494 266.568ZM123.998 259.968H125.438C125.966 259.968 126.398 260.436 126.398 261.048C126.398 261.66 125.966 262.128 125.438 262.128H123.998V259.968Z" fill="#111111"/>
<path d="M134.352 266.736C136.764 266.736 138.72 264.84 138.72 262.368C138.72 259.896 136.764 258 134.352 258C131.94 258 129.984 259.896 129.984 262.368C129.984 264.84 131.94 266.736 134.352 266.736ZM134.352 264.864C132.984 264.864 131.904 263.868 131.904 262.368C131.904 260.868 132.984 259.872 134.352 259.872C135.72 259.872 136.8 260.868 136.8 262.368C136.8 263.868 135.72 264.864 134.352 264.864Z" fill="#111111"/>
<path d="M143.981 258.168H140.801V266.568H142.721V263.928H143.981C145.637 263.928 146.921 262.644 146.921 261.048C146.921 259.452 145.637 258.168 143.981 258.168ZM143.981 262.128H142.721V259.968H143.981C144.569 259.968 145.001 260.436 145.001 261.048C145.001 261.66 144.569 262.128 143.981 262.128Z" fill="#111111"/>
<path d="M152.828 266.736C155.24 266.736 157.196 264.84 157.196 262.368C157.196 259.896 155.24 258 152.828 258C150.416 258 148.46 259.896 148.46 262.368C148.46 264.84 150.416 266.736 152.828 266.736ZM152.828 264.864C151.46 264.864 150.38 263.868 150.38 262.368C150.38 260.868 151.46 259.872 152.828 259.872C154.196 259.872 155.276 260.868 155.276 262.368C155.276 263.868 154.196 264.864 152.828 264.864Z" fill="#111111"/>
<path d="M161.913 266.736C163.737 266.736 165.033 265.776 165.033 264.156C165.033 262.38 163.605 261.936 162.333 261.552C161.025 261.156 160.821 260.892 160.821 260.508C160.821 260.172 161.121 259.872 161.721 259.872C162.489 259.872 162.885 260.244 163.173 260.844L164.793 259.896C164.181 258.66 163.101 258 161.721 258C160.269 258 158.901 258.936 158.901 260.556C158.901 262.164 160.125 262.764 161.373 263.112C162.633 263.46 163.113 263.664 163.113 264.18C163.113 264.504 162.885 264.864 161.973 264.864C161.025 264.864 160.509 264.396 160.209 263.7L158.553 264.66C159.021 265.896 160.149 266.736 161.913 266.736Z" fill="#111111"/>
<path d="M168.854 264.72V263.232H171.854V261.408H168.854V260.016H172.154V258.168H166.934V266.568H172.214V264.72H168.854Z" fill="#111111"/>
<path d="M177.657 258.168H174.297V266.568H177.657C179.973 266.568 181.737 264.744 181.737 262.368C181.737 259.992 179.973 258.168 177.657 258.168ZM177.657 264.72H176.217V260.016H177.657C178.977 260.016 179.889 260.928 179.889 262.368C179.889 263.808 178.977 264.72 177.657 264.72Z" fill="#111111"/>
<defs>
<filter id="filter0_dd" x="0" y="314" width="295" height="88" filterUnits="userSpaceOnUse" color-interpolation-filters="sRGB">
<feFlood flood-opacity="0" result="BackgroundImageFix"/>
<feColorMatrix in="SourceAlpha" type="matrix" values="0 0 0 0 0 0 0 0 0 0 0 0 0 0 0 0 0 0 127 0"/>
<feOffset dy="1"/>
<feGaussianBlur stdDeviation="1"/>
<feColorMatrix type="matrix" values="0 0 0 0 0 0 0 0 0 0 0 0 0 0 0 0 0 0 0.12 0"/>
<feBlend mode="normal" in2="BackgroundImageFix" result="effect1_dropShadow"/>
<feColorMatrix in="SourceAlpha" type="matrix" values="0 0 0 0 0 0 0 0 0 0 0 0 0 0 0 0 0 0 127 0"/>
<feOffset dy="4"/>
<feGaussianBlur stdDeviation="10"/>
<feColorMatrix type="matrix" values="0 0 0 0 0 0 0 0 0 0 0 0 0 0 0 0 0 0 0.12 0"/>
<feBlend mode="normal" in2="effect1_dropShadow" result="effect2_dropShadow"/>
<feBlend mode="normal" in="SourceGraphic" in2="effect2_dropShadow" result="shape"/>
</filter>
<filter id="filter1_dd" x="0" y="370" width="295" height="88" filterUnits="userSpaceOnUse" color-interpolation-filters="sRGB">
<feFlood flood-opacity="0" result="BackgroundImageFix"/>
<feColorMatrix in="SourceAlpha" type="matrix" values="0 0 0 0 0 0 0 0 0 0 0 0 0 0 0 0 0 0 127 0"/>
<feOffset dy="1"/>
<feGaussianBlur stdDeviation="1"/>
<feColorMatrix type="matrix" values="0 0 0 0 0 0 0 0 0 0 0 0 0 0 0 0 0 0 0.12 0"/>
<feBlend mode="normal" in2="BackgroundImageFix" result="effect1_dropShadow"/>
<feColorMatrix in="SourceAlpha" type="matrix" values="0 0 0 0 0 0 0 0 0 0 0 0 0 0 0 0 0 0 127 0"/>
<feOffset dy="4"/>
<feGaussianBlur stdDeviation="10"/>
<feColorMatrix type="matrix" values="0 0 0 0 0 0 0 0 0 0 0 0 0 0 0 0 0 0 0.12 0"/>
<feBlend mode="normal" in2="effect1_dropShadow" result="effect2_dropShadow"/>
<feBlend mode="normal" in="SourceGraphic" in2="effect2_dropShadow" result="shape"/>
</filter>
<filter id="filter2_dd" x="0" y="426" width="295" height="88" filterUnits="userSpaceOnUse" color-interpolation-filters="sRGB">
<feFlood flood-opacity="0" result="BackgroundImageFix"/>
<feColorMatrix in="SourceAlpha" type="matrix" values="0 0 0 0 0 0 0 0 0 0 0 0 0 0 0 0 0 0 127 0"/>
<feOffset dy="1"/>
<feGaussianBlur stdDeviation="1"/>
<feColorMatrix type="matrix" values="0 0 0 0 0 0 0 0 0 0 0 0 0 0 0 0 0 0 0.12 0"/>
<feBlend mode="normal" in2="BackgroundImageFix" result="effect1_dropShadow"/>
<feColorMatrix in="SourceAlpha" type="matrix" values="0 0 0 0 0 0 0 0 0 0 0 0 0 0 0 0 0 0 127 0"/>
<feOffset dy="4"/>
<feGaussianBlur stdDeviation="10"/>
<feColorMatrix type="matrix" values="0 0 0 0 0 0 0 0 0 0 0 0 0 0 0 0 0 0 0.12 0"/>
<feBlend mode="normal" in2="effect1_dropShadow" result="effect2_dropShadow"/>
<feBlend mode="normal" in="SourceGraphic" in2="effect2_dropShadow" result="shape"/>
</filter>
<filter id="filter3_dd" x="0" y="482" width="295" height="88" filterUnits="userSpaceOnUse" color-interpolation-filters="sRGB">
<feFlood flood-opacity="0" result="BackgroundImageFix"/>
<feColorMatrix in="SourceAlpha" type="matrix" values="0 0 0 0 0 0 0 0 0 0 0 0 0 0 0 0 0 0 127 0"/>
<feOffset dy="1"/>
<feGaussianBlur stdDeviation="1"/>
<feColorMatrix type="matrix" values="0 0 0 0 0 0 0 0 0 0 0 0 0 0 0 0 0 0 0.12 0"/>
<feBlend mode="normal" in2="BackgroundImageFix" result="effect1_dropShadow"/>
<feColorMatrix in="SourceAlpha" type="matrix" values="0 0 0 0 0 0 0 0 0 0 0 0 0 0 0 0 0 0 127 0"/>
<feOffset dy="4"/>
<feGaussianBlur stdDeviation="10"/>
<feColorMatrix type="matrix" values="0 0 0 0 0 0 0 0 0 0 0 0 0 0 0 0 0 0 0.12 0"/>
<feBlend mode="normal" in2="effect1_dropShadow" result="effect2_dropShadow"/>
<feBlend mode="normal" in="SourceGraphic" in2="effect2_dropShadow" result="shape"/>
</filter>
<filter id="filter4_dd" x="36" y="0" width="224" height="224" filterUnits="userSpaceOnUse" color-interpolation-filters="sRGB">
<feFlood flood-opacity="0" result="BackgroundImageFix"/>
<feColorMatrix in="SourceAlpha" type="matrix" values="0 0 0 0 0 0 0 0 0 0 0 0 0 0 0 0 0 0 127 0"/>
<feOffset dy="1"/>
<feGaussianBlur stdDeviation="1"/>
<feColorMatrix type="matrix" values="0 0 0 0 0 0 0 0 0 0 0 0 0 0 0 0 0 0 0.12 0"/>
<feBlend mode="normal" in2="BackgroundImageFix" result="effect1_dropShadow"/>
<feColorMatrix in="SourceAlpha" type="matrix" values="0 0 0 0 0 0 0 0 0 0 0 0 0 0 0 0 0 0 127 0"/>
<feOffset dy="4"/>
<feGaussianBlur stdDeviation="10"/>
<feColorMatrix type="matrix" values="0 0 0 0 0 0 0 0 0 0 0 0 0 0 0 0 0 0 0.12 0"/>
<feBlend mode="normal" in2="effect1_dropShadow" result="effect2_dropShadow"/>
<feBlend mode="normal" in="SourceGraphic" in2="effect2_dropShadow" result="shape"/>
</filter>
<filter id="filter5_dd" x="36" y="690" width="224" height="224" filterUnits="userSpaceOnUse" color-interpolation-filters="sRGB">
<feFlood flood-opacity="0" result="BackgroundImageFix"/>
<feColorMatrix in="SourceAlpha" type="matrix" values="0 0 0 0 0 0 0 0 0 0 0 0 0 0 0 0 0 0 127 0"/>
<feOffset dy="1"/>
<feGaussianBlur stdDeviation="1"/>
<feColorMatrix type="matrix" values="0 0 0 0 0 0 0 0 0 0 0 0 0 0 0 0 0 0 0.12 0"/>
<feBlend mode="normal" in2="BackgroundImageFix" result="effect1_dropShadow"/>
<feColorMatrix in="SourceAlpha" type="matrix" values="0 0 0 0 0 0 0 0 0 0 0 0 0 0 0 0 0 0 127 0"/>
<feOffset dy="4"/>
<feGaussianBlur stdDeviation="10"/>
<feColorMatrix type="matrix" values="0 0 0 0 0 0 0 0 0 0 0 0 0 0 0 0 0 0 0.12 0"/>
<feBlend mode="normal" in2="effect1_dropShadow" result="effect2_dropShadow"/>
<feBlend mode="normal" in="SourceGraphic" in2="effect2_dropShadow" result="shape"/>
</filter>
</defs>
</svg>
