<svg width="1087" height="256" viewBox="0 0 1087 256" fill="none" xmlns="http://www.w3.org/2000/svg">
<path d="M697.039 157H699.487L702.223 148.6H700.123L698.263 154.78L696.403 148.6H694.303L697.039 157Z" fill="#111111"/>
<path d="M707.589 157.168C710.001 157.168 711.957 155.272 711.957 152.8C711.957 150.328 710.001 148.432 707.589 148.432C705.177 148.432 703.221 150.328 703.221 152.8C703.221 155.272 705.177 157.168 707.589 157.168ZM707.589 155.296C706.221 155.296 705.141 154.3 705.141 152.8C705.141 151.3 706.221 150.304 707.589 150.304C708.957 150.304 710.037 151.3 710.037 152.8C710.037 154.3 708.957 155.296 707.589 155.296Z" fill="#111111"/>
<path d="M719.198 148.6H712.958V150.448H715.118V157H717.038V150.448H719.198V148.6Z" fill="#111111"/>
<path d="M722.958 155.152V153.664H725.958V151.84H722.958V150.448H726.258V148.6H721.038V157H726.318V155.152H722.958Z" fill="#111111"/>
<path d="M731.762 148.6H728.402V157H731.762C734.078 157 735.842 155.176 735.842 152.8C735.842 150.424 734.078 148.6 731.762 148.6ZM731.762 155.152H730.322V150.448H731.762C733.082 150.448 733.994 151.36 733.994 152.8C733.994 154.24 733.082 155.152 731.762 155.152Z" fill="#111111"/>
<path d="M745.929 157.168C748.341 157.168 750.297 155.272 750.297 152.8C750.297 150.328 748.341 148.432 745.929 148.432C743.517 148.432 741.561 150.328 741.561 152.8C741.561 155.272 743.517 157.168 745.929 157.168ZM745.929 155.296C744.561 155.296 743.481 154.3 743.481 152.8C743.481 151.3 744.561 150.304 745.929 150.304C747.297 150.304 748.377 151.3 748.377 152.8C748.377 154.3 747.297 155.296 745.929 155.296Z" fill="#111111"/>
<path d="M757.058 148.6V153.16L753.818 148.6H752.378V157H754.298V152.44L757.538 157H758.978V148.6H757.058Z" fill="#111111"/>
<path d="M786.208 148.6V157H788.128V148.6H786.208Z" fill="#111111"/>
<path d="M798.971 148.6H797.051L794.771 152.332L792.491 148.6H790.571V157H792.491V152.116L794.663 155.68H794.879L797.051 152.116V157H798.971V148.6Z" fill="#111111"/>
<path d="M804.595 148.6H801.415V157H803.335V154.36H804.595C806.251 154.36 807.535 153.076 807.535 151.48C807.535 149.884 806.251 148.6 804.595 148.6ZM804.595 152.56H803.335V150.4H804.595C805.183 150.4 805.615 150.868 805.615 151.48C805.615 152.092 805.183 152.56 804.595 152.56Z" fill="#111111"/>
<path d="M811.413 155.152V148.6H809.493V157H814.413V155.152H811.413Z" fill="#111111"/>
<path d="M818.179 155.152V153.664H821.179V151.84H818.179V150.448H821.479V148.6H816.259V157H821.539V155.152H818.179Z" fill="#111111"/>
<path d="M832.022 148.6H830.102L827.822 152.332L825.542 148.6H823.622V157H825.542V152.116L827.714 155.68H827.93L830.102 152.116V157H832.022V148.6Z" fill="#111111"/>
<path d="M836.386 155.152V153.664H839.386V151.84H836.386V150.448H839.686V148.6H834.466V157H839.746V155.152H836.386Z" fill="#111111"/>
<path d="M846.509 148.6V153.16L843.269 148.6H841.829V157H843.749V152.44L846.989 157H848.429V148.6H846.509Z" fill="#111111"/>
<path d="M856.508 148.6H850.268V150.448H852.428V157H854.348V150.448H856.508V148.6Z" fill="#111111"/>
<path d="M860.269 155.152V153.664H863.269V151.84H860.269V150.448H863.569V148.6H858.349V157H863.629V155.152H860.269Z" fill="#111111"/>
<path d="M869.072 148.6H865.712V157H869.072C871.388 157 873.152 155.176 873.152 152.8C873.152 150.424 871.388 148.6 869.072 148.6ZM869.072 155.152H867.632V150.448H869.072C870.392 150.448 871.304 151.36 871.304 152.8C871.304 154.24 870.392 155.152 869.072 155.152Z" fill="#111111"/>
<path d="M73.8742 230.568H75.9742L73.1182 222.168H70.6702L67.8142 230.568H69.9142L70.3342 229.248H73.4542L73.8742 230.568ZM70.9102 227.448L71.8942 224.364L72.8782 227.448H70.9102Z" fill="#BDBDBD"/>
<path d="M82.3704 222.168V226.728L79.1304 222.168H77.6904V230.568H79.6104V226.008L82.8504 230.568H84.2904V222.168H82.3704Z" fill="#BDBDBD"/>
<path d="M93.5695 222.168H91.3855L89.7895 225.408L88.1935 222.168H86.0095L88.8295 227.34V230.568H90.7495V227.34L93.5695 222.168Z" fill="#BDBDBD"/>
<path d="M98.6984 230.736C101.11 230.736 103.066 228.84 103.066 226.368C103.066 223.896 101.11 222 98.6984 222C96.2864 222 94.3304 223.896 94.3304 226.368C94.3304 228.84 96.2864 230.736 98.6984 230.736ZM98.6984 228.864C97.3304 228.864 96.2504 227.868 96.2504 226.368C96.2504 224.868 97.3304 223.872 98.6984 223.872C100.066 223.872 101.146 224.868 101.146 226.368C101.146 227.868 100.066 228.864 98.6984 228.864Z" fill="#BDBDBD"/>
<path d="M109.827 222.168V226.728L106.587 222.168H105.147V230.568H107.067V226.008L110.307 230.568H111.747V222.168H109.827Z" fill="#BDBDBD"/>
<path d="M116.107 228.72V227.232H119.107V225.408H116.107V224.016H119.407V222.168H114.187V230.568H119.467V228.72H116.107Z" fill="#BDBDBD"/>
<path d="M127.266 230.568H129.45L130.818 225.612L132.186 230.568H134.37L136.686 222.168H134.67L133.218 228.048L131.598 222.168H130.038L128.418 228.048L126.966 222.168H124.95L127.266 230.568Z" fill="#BDBDBD"/>
<path d="M143.086 222.168V225.384H140.446V222.168H138.526V230.568H140.446V227.232H143.086V230.568H145.006V222.168H143.086Z" fill="#BDBDBD"/>
<path d="M151.456 230.736C153.868 230.736 155.824 228.84 155.824 226.368C155.824 223.896 153.868 222 151.456 222C149.044 222 147.088 223.896 147.088 226.368C147.088 228.84 149.044 230.736 151.456 230.736ZM151.456 228.864C150.088 228.864 149.008 227.868 149.008 226.368C149.008 224.868 150.088 223.872 151.456 223.872C152.824 223.872 153.904 224.868 153.904 226.368C153.904 227.868 152.824 228.864 151.456 228.864Z" fill="#BDBDBD"/>
<path d="M60.4868 234.168V237.384H57.8468V234.168H55.9268V242.568H57.8468V239.232H60.4868V242.568H62.4068V234.168H60.4868Z" fill="#BDBDBD"/>
<path d="M68.8566 242.736C71.2686 242.736 73.2246 240.84 73.2246 238.368C73.2246 235.896 71.2686 234 68.8566 234C66.4446 234 64.4886 235.896 64.4886 238.368C64.4886 240.84 66.4446 242.736 68.8566 242.736ZM68.8566 240.864C67.4886 240.864 66.4086 239.868 66.4086 238.368C66.4086 236.868 67.4886 235.872 68.8566 235.872C70.2246 235.872 71.3046 236.868 71.3046 238.368C71.3046 239.868 70.2246 240.864 68.8566 240.864Z" fill="#BDBDBD"/>
<path d="M77.2257 240.72V234.168H75.3057V242.568H80.2257V240.72H77.2257Z" fill="#BDBDBD"/>
<path d="M85.4313 234.168H82.0713V242.568H85.4313C87.7473 242.568 89.5113 240.744 89.5113 238.368C89.5113 235.992 87.7473 234.168 85.4313 234.168ZM85.4313 240.72H83.9913V236.016H85.4313C86.7513 236.016 87.6633 236.928 87.6633 238.368C87.6633 239.808 86.7513 240.72 85.4313 240.72Z" fill="#BDBDBD"/>
<path d="M94.2261 242.736C96.0501 242.736 97.3461 241.776 97.3461 240.156C97.3461 238.38 95.9181 237.936 94.6461 237.552C93.3381 237.156 93.1341 236.892 93.1341 236.508C93.1341 236.172 93.4341 235.872 94.0341 235.872C94.8021 235.872 95.1981 236.244 95.4861 236.844L97.1061 235.896C96.4941 234.66 95.4141 234 94.0341 234C92.5821 234 91.2141 234.936 91.2141 236.556C91.2141 238.164 92.4381 238.764 93.6861 239.112C94.9461 239.46 95.4261 239.664 95.4261 240.18C95.4261 240.504 95.1981 240.864 94.2861 240.864C93.3381 240.864 92.8221 240.396 92.5221 239.7L90.8661 240.66C91.3341 241.896 92.4621 242.736 94.2261 242.736Z" fill="#BDBDBD"/>
<path d="M108.946 234.168H102.706V236.016H104.866V242.568H106.786V236.016H108.946V234.168Z" fill="#BDBDBD"/>
<path d="M115.346 234.168V237.384H112.706V234.168H110.786V242.568H112.706V239.232H115.346V242.568H117.266V234.168H115.346Z" fill="#BDBDBD"/>
<path d="M121.628 240.72V239.232H124.628V237.408H121.628V236.016H124.928V234.168H119.708V242.568H124.988V240.72H121.628Z" fill="#BDBDBD"/>
<path d="M139.471 234.168H137.551L135.271 237.9L132.991 234.168H131.071V242.568H132.991V237.684L135.163 241.248H135.379L137.551 237.684V242.568H139.471V234.168Z" fill="#BDBDBD"/>
<path d="M148.755 234.168H146.571L144.975 237.408L143.379 234.168H141.195L144.015 239.34V242.568H145.935V239.34L148.755 234.168Z" fill="#BDBDBD"/>
<path d="M155.682 238.212C156.138 237.816 156.414 237.264 156.414 236.568C156.414 235.116 155.226 234.168 153.762 234.168H150.474V242.568H154.002C155.502 242.568 156.714 241.596 156.714 240.108C156.714 239.256 156.306 238.608 155.682 238.212ZM153.762 235.968C154.206 235.968 154.494 236.28 154.494 236.712C154.494 237.144 154.194 237.456 153.762 237.456H152.394V235.968H153.762ZM154.002 240.768H152.394V239.16H154.002C154.482 239.16 154.794 239.496 154.794 239.964C154.794 240.432 154.482 240.768 154.002 240.768Z" fill="#BDBDBD"/>
<path d="M158.669 234.168V242.568H160.589V234.168H158.669Z" fill="#BDBDBD"/>
<path d="M168.672 234.168H162.432V236.016H164.592V242.568H166.512V236.016H168.672V234.168Z" fill="#BDBDBD"/>
<path d="M77.1488 246.168H70.9088V248.016H73.0688V254.568H74.9888V248.016H77.1488V246.168Z" fill="#BDBDBD"/>
<path d="M82.5168 254.736C84.9288 254.736 86.8848 252.84 86.8848 250.368C86.8848 247.896 84.9288 246 82.5168 246C80.1048 246 78.1488 247.896 78.1488 250.368C78.1488 252.84 80.1048 254.736 82.5168 254.736ZM82.5168 252.864C81.1488 252.864 80.0688 251.868 80.0688 250.368C80.0688 248.868 81.1488 247.872 82.5168 247.872C83.8848 247.872 84.9648 248.868 84.9648 250.368C84.9648 251.868 83.8848 252.864 82.5168 252.864Z" fill="#BDBDBD"/>
<path d="M95.7578 254.568L92.8058 250.26L95.6378 246.168H93.4538L90.8858 249.816V246.168H88.9658V254.568H90.8858V250.68L93.5738 254.568H95.7578Z" fill="#BDBDBD"/>
<path d="M99.3975 252.72V251.232H102.398V249.408H99.3975V248.016H102.698V246.168H97.4775V254.568H102.758V252.72H99.3975Z" fill="#BDBDBD"/>
<path d="M109.521 246.168V250.728L106.281 246.168H104.841V254.568H106.761V250.008L110.001 254.568H111.441V246.168H109.521Z" fill="#BDBDBD"/>
<path d="M119.08 255.768H120.88C120.04 254.088 119.56 252.288 119.56 250.368C119.56 248.448 120.04 246.648 120.88 244.968H119.08C118.24 246.648 117.76 248.448 117.76 250.368C117.76 252.288 118.24 254.088 119.08 255.768Z" fill="#BDBDBD"/>
<path d="M131.124 246.168H129.204L126.924 249.9L124.644 246.168H122.724V254.568H124.644V249.684L126.816 253.248H127.032L129.204 249.684V254.568H131.124V246.168Z" fill="#BDBDBD"/>
<path d="M140.407 246.168H138.223L136.627 249.408L135.031 246.168H132.847L135.667 251.34V254.568H137.587V251.34L140.407 246.168Z" fill="#BDBDBD"/>
<path d="M147.334 250.212C147.79 249.816 148.066 249.264 148.066 248.568C148.066 247.116 146.878 246.168 145.414 246.168H142.126V254.568H145.654C147.154 254.568 148.366 253.596 148.366 252.108C148.366 251.256 147.958 250.608 147.334 250.212ZM145.414 247.968C145.858 247.968 146.146 248.28 146.146 248.712C146.146 249.144 145.846 249.456 145.414 249.456H144.046V247.968H145.414ZM145.654 252.768H144.046V251.16H145.654C146.134 251.16 146.446 251.496 146.446 251.964C146.446 252.432 146.134 252.768 145.654 252.768Z" fill="#BDBDBD"/>
<path d="M151.287 255.768C152.127 254.088 152.607 252.288 152.607 250.368C152.607 248.448 152.127 246.648 151.287 244.968H149.487C150.327 246.648 150.807 248.448 150.807 250.368C150.807 252.288 150.327 254.088 149.487 255.768H151.287Z" fill="#BDBDBD"/>
<g filter="url(#filter0_dd)">
<rect x="417" y="16" width="255" height="48" rx="24" fill="white"/>
</g>
<g filter="url(#filter1_dd)">
<rect x="417" y="72" width="255" height="48" rx="24" fill="white"/>
</g>
<g filter="url(#filter2_dd)">
<rect x="417" y="128" width="255" height="48" rx="24" fill="white"/>
</g>
<g filter="url(#filter3_dd)">
<rect x="417" y="184" width="255" height="48" rx="24" fill="white"/>
</g>
<path d="M475.728 212.168C477.264 212.168 478.608 211.412 479.328 210.224L477.672 209.264C477.312 209.912 476.58 210.296 475.728 210.296C474.24 210.296 473.28 209.3 473.28 207.8C473.28 206.3 474.24 205.304 475.728 205.304C476.58 205.304 477.3 205.688 477.672 206.336L479.328 205.376C478.596 204.188 477.252 203.432 475.728 203.432C473.196 203.432 471.36 205.328 471.36 207.8C471.36 210.272 473.196 212.168 475.728 212.168Z" fill="#001358"/>
<path d="M485.119 212.168C487.531 212.168 489.487 210.272 489.487 207.8C489.487 205.328 487.531 203.432 485.119 203.432C482.707 203.432 480.751 205.328 480.751 207.8C480.751 210.272 482.707 212.168 485.119 212.168ZM485.119 210.296C483.751 210.296 482.671 209.3 482.671 207.8C482.671 206.3 483.751 205.304 485.119 205.304C486.487 205.304 487.567 206.3 487.567 207.8C487.567 209.3 486.487 210.296 485.119 210.296Z" fill="#001358"/>
<path d="M496.248 203.6V208.16L493.008 203.6H491.568V212H493.488V207.44L496.728 212H498.168V203.6H496.248Z" fill="#001358"/>
<path d="M506.247 203.6H500.007V205.448H502.167V212H504.087V205.448H506.247V203.6Z" fill="#001358"/>
<path d="M512.504 212H514.568L512.78 208.916C513.704 208.448 514.328 207.512 514.328 206.48C514.328 204.884 513.044 203.6 511.448 203.6H508.088V212H510.008V209.24H510.92L512.504 212ZM510.008 205.4H511.448C511.976 205.4 512.408 205.868 512.408 206.48C512.408 207.092 511.976 207.56 511.448 207.56H510.008V205.4Z" fill="#001358"/>
<path d="M520.361 212.168C522.773 212.168 524.729 210.272 524.729 207.8C524.729 205.328 522.773 203.432 520.361 203.432C517.949 203.432 515.993 205.328 515.993 207.8C515.993 210.272 517.949 212.168 520.361 212.168ZM520.361 210.296C518.993 210.296 517.913 209.3 517.913 207.8C517.913 206.3 518.993 205.304 520.361 205.304C521.729 205.304 522.809 206.3 522.809 207.8C522.809 209.3 521.729 210.296 520.361 210.296Z" fill="#001358"/>
<path d="M528.73 210.152V203.6H526.81V212H531.73V210.152H528.73Z" fill="#001358"/>
<path d="M541.584 212.168C543.996 212.168 545.952 210.272 545.952 207.8C545.952 205.328 543.996 203.432 541.584 203.432C539.172 203.432 537.216 205.328 537.216 207.8C537.216 210.272 539.172 212.168 541.584 212.168ZM541.584 210.296C540.216 210.296 539.136 209.3 539.136 207.8C539.136 206.3 540.216 205.304 541.584 205.304C542.952 205.304 544.032 206.3 544.032 207.8C544.032 209.3 542.952 210.296 541.584 210.296Z" fill="#001358"/>
<path d="M553.133 205.448V203.6H548.033V212H549.953V208.916H553.073V207.068H549.953V205.448H553.133Z" fill="#001358"/>
<path d="M564.367 205.448V203.6H559.267V212H561.187V208.916H564.307V207.068H561.187V205.448H564.367Z" fill="#001358"/>
<path d="M566.502 203.6V212H568.422V203.6H566.502Z" fill="#001358"/>
<path d="M575.545 203.6V208.16L572.305 203.6H570.865V212H572.785V207.44L576.025 212H577.465V203.6H575.545Z" fill="#001358"/>
<path d="M585.244 212H587.344L584.488 203.6H582.04L579.184 212H581.284L581.704 210.68H584.824L585.244 212ZM582.28 208.88L583.264 205.796L584.248 208.88H582.28Z" fill="#001358"/>
<path d="M593.74 203.6V208.16L590.5 203.6H589.06V212H590.98V207.44L594.22 212H595.66V203.6H593.74Z" fill="#001358"/>
<path d="M602.107 212.168C603.643 212.168 604.987 211.412 605.707 210.224L604.051 209.264C603.691 209.912 602.959 210.296 602.107 210.296C600.619 210.296 599.659 209.3 599.659 207.8C599.659 206.3 600.619 205.304 602.107 205.304C602.959 205.304 603.679 205.688 604.051 206.336L605.707 205.376C604.975 204.188 603.631 203.432 602.107 203.432C599.575 203.432 597.739 205.328 597.739 207.8C597.739 210.272 599.575 212.168 602.107 212.168Z" fill="#001358"/>
<path d="M609.527 210.152V208.664H612.527V206.84H609.527V205.448H612.827V203.6H607.607V212H612.887V210.152H609.527Z" fill="#001358"/>
<path d="M617.91 212.168C619.734 212.168 621.03 211.208 621.03 209.588C621.03 207.812 619.602 207.368 618.33 206.984C617.022 206.588 616.818 206.324 616.818 205.94C616.818 205.604 617.118 205.304 617.718 205.304C618.486 205.304 618.882 205.676 619.17 206.276L620.79 205.328C620.178 204.092 619.098 203.432 617.718 203.432C616.266 203.432 614.898 204.368 614.898 205.988C614.898 207.596 616.122 208.196 617.37 208.544C618.63 208.892 619.11 209.096 619.11 209.612C619.11 209.936 618.882 210.296 617.97 210.296C617.022 210.296 616.506 209.828 616.206 209.132L614.55 210.092C615.018 211.328 616.146 212.168 617.91 212.168Z" fill="#001358"/>
<path d="M476.299 29.5999H474.379L472.099 33.3319L469.819 29.5999H467.899V37.9999H469.819V33.1159L471.991 36.6799H472.207L474.379 33.1159V37.9999H476.299V29.5999Z" fill="#2E58DB"/>
<path d="M484.083 37.9999H486.183L483.327 29.5999H480.879L478.023 37.9999H480.123L480.543 36.6799H483.663L484.083 37.9999ZM481.119 34.8799L482.103 31.7959L483.087 34.8799H481.119Z" fill="#2E58DB"/>
<path d="M492.579 29.5999V34.1599L489.339 29.5999H487.899V37.9999H489.819V33.4399L493.059 37.9999H494.499V29.5999H492.579Z" fill="#2E58DB"/>
<path d="M502.278 37.9999H504.378L501.522 29.5999H499.074L496.218 37.9999H498.318L498.738 36.6799H501.858L502.278 37.9999ZM499.314 34.8799L500.298 31.7959L501.282 34.8799H499.314Z" fill="#2E58DB"/>
<path d="M514.106 33.3199H509.894V34.9999H512.138C511.838 35.8039 511.106 36.2959 509.99 36.2959C508.358 36.2959 507.35 35.2519 507.35 33.8239C507.35 32.3479 508.406 31.3039 509.822 31.3039C510.77 31.3039 511.526 31.7359 511.874 32.2879L513.506 31.3519C512.798 30.2239 511.442 29.4319 509.834 29.4319C507.362 29.4319 505.43 31.3759 505.43 33.8119C505.43 36.2239 507.326 38.1679 509.966 38.1679C512.318 38.1679 514.106 36.6079 514.106 34.0399V33.3199Z" fill="#2E58DB"/>
<path d="M518.108 36.1519V34.6639H521.108V32.8399H518.108V31.4479H521.408V29.5999H516.188V37.9999H521.468V36.1519H518.108Z" fill="#2E58DB"/>
<path d="M531.952 29.5999H530.032L527.752 33.3319L525.472 29.5999H523.552V37.9999H525.472V33.1159L527.644 36.6799H527.86L530.032 33.1159V37.9999H531.952V29.5999Z" fill="#2E58DB"/>
<path d="M536.316 36.1519V34.6639H539.316V32.8399H536.316V31.4479H539.616V29.5999H534.396V37.9999H539.676V36.1519H536.316Z" fill="#2E58DB"/>
<path d="M546.439 29.5999V34.1599L543.199 29.5999H541.759V37.9999H543.679V33.4399L546.919 37.9999H548.359V29.5999H546.439Z" fill="#2E58DB"/>
<path d="M556.438 29.5999H550.198V31.4479H552.358V37.9999H554.278V31.4479H556.438V29.5999Z" fill="#2E58DB"/>
<path d="M566.286 38.1679C568.698 38.1679 570.654 36.2719 570.654 33.7999C570.654 31.3279 568.698 29.4319 566.286 29.4319C563.874 29.4319 561.918 31.3279 561.918 33.7999C561.918 36.2719 563.874 38.1679 566.286 38.1679ZM566.286 36.2959C564.918 36.2959 563.838 35.2999 563.838 33.7999C563.838 32.2999 564.918 31.3039 566.286 31.3039C567.654 31.3039 568.734 32.2999 568.734 33.7999C568.734 35.2999 567.654 36.2959 566.286 36.2959Z" fill="#2E58DB"/>
<path d="M577.835 31.4479V29.5999H572.735V37.9999H574.655V34.9159H577.775V33.0679H574.655V31.4479H577.835Z" fill="#2E58DB"/>
<path d="M589.31 37.9999H591.41L588.554 29.5999H586.106L583.25 37.9999H585.35L585.77 36.6799H588.89L589.31 37.9999ZM586.346 34.8799L587.33 31.7959L588.314 34.8799H586.346Z" fill="#2E58DB"/>
<path d="M595.89 38.1679C597.714 38.1679 599.01 37.2079 599.01 35.5879C599.01 33.8119 597.582 33.3679 596.31 32.9839C595.002 32.5879 594.798 32.3239 594.798 31.9399C594.798 31.6039 595.098 31.3039 595.698 31.3039C596.466 31.3039 596.862 31.6759 597.15 32.2759L598.77 31.3279C598.158 30.0919 597.078 29.4319 595.698 29.4319C594.246 29.4319 592.878 30.3679 592.878 31.9879C592.878 33.5959 594.102 34.1959 595.35 34.5439C596.61 34.8919 597.09 35.0959 597.09 35.6119C597.09 35.9359 596.862 36.2959 595.95 36.2959C595.002 36.2959 594.486 35.8279 594.186 35.1319L592.53 36.0919C592.998 37.3279 594.126 38.1679 595.89 38.1679Z" fill="#2E58DB"/>
<path d="M603.675 38.1679C605.499 38.1679 606.795 37.2079 606.795 35.5879C606.795 33.8119 605.367 33.3679 604.095 32.9839C602.787 32.5879 602.583 32.3239 602.583 31.9399C602.583 31.6039 602.883 31.3039 603.483 31.3039C604.251 31.3039 604.647 31.6759 604.935 32.2759L606.555 31.3279C605.943 30.0919 604.863 29.4319 603.483 29.4319C602.031 29.4319 600.663 30.3679 600.663 31.9879C600.663 33.5959 601.887 34.1959 603.135 34.5439C604.395 34.8919 604.875 35.0959 604.875 35.6119C604.875 35.9359 604.647 36.2959 603.735 36.2959C602.787 36.2959 602.271 35.8279 601.971 35.1319L600.315 36.0919C600.783 37.3279 601.911 38.1679 603.675 38.1679Z" fill="#2E58DB"/>
<path d="M610.616 36.1519V34.6639H613.616V32.8399H610.616V31.4479H613.916V29.5999H608.696V37.9999H613.976V36.1519H610.616Z" fill="#2E58DB"/>
<path d="M621.7 29.5999H615.46V31.4479H617.62V37.9999H619.54V31.4479H621.7V29.5999Z" fill="#2E58DB"/>
<path d="M455.001 41.5999H453.081L450.801 45.3319L448.521 41.5999H446.601V49.9999H448.521V45.1159L450.693 48.6799H450.909L453.081 45.1159V49.9999H455.001V41.5999Z" fill="#2E58DB"/>
<path d="M462.784 49.9999H464.884L462.028 41.5999H459.58L456.724 49.9999H458.824L459.244 48.6799H462.364L462.784 49.9999ZM459.82 46.8799L460.804 43.7959L461.788 46.8799H459.82Z" fill="#2E58DB"/>
<path d="M471.281 41.5999V46.1599L468.041 41.5999H466.601V49.9999H468.521V45.4399L471.761 49.9999H473.201V41.5999H471.281Z" fill="#2E58DB"/>
<path d="M480.98 49.9999H483.08L480.224 41.5999H477.776L474.92 49.9999H477.02L477.44 48.6799H480.56L480.98 49.9999ZM478.016 46.8799L479 43.7959L479.984 46.8799H478.016Z" fill="#2E58DB"/>
<path d="M492.807 45.3199H488.595V46.9999H490.839C490.539 47.8039 489.807 48.2959 488.691 48.2959C487.059 48.2959 486.051 47.2519 486.051 45.8239C486.051 44.3479 487.107 43.3039 488.523 43.3039C489.471 43.3039 490.227 43.7359 490.575 44.2879L492.207 43.3519C491.499 42.2239 490.143 41.4319 488.535 41.4319C486.063 41.4319 484.131 43.3759 484.131 45.8119C484.131 48.2239 486.027 50.1679 488.667 50.1679C491.019 50.1679 492.807 48.6079 492.807 46.0399V45.3199Z" fill="#2E58DB"/>
<path d="M496.81 48.1519V46.6639H499.81V44.8399H496.81V43.4479H500.11V41.5999H494.89V49.9999H500.17V48.1519H496.81Z" fill="#2E58DB"/>
<path d="M506.669 49.9999H508.733L506.945 46.9159C507.869 46.4479 508.493 45.5119 508.493 44.4799C508.493 42.8839 507.209 41.5999 505.613 41.5999H502.253V49.9999H504.173V47.2399H505.085L506.669 49.9999ZM504.173 43.3999H505.613C506.141 43.3999 506.573 43.8679 506.573 44.4799C506.573 45.0919 506.141 45.5599 505.613 45.5599H504.173V43.3999Z" fill="#2E58DB"/>
<path d="M513.459 50.1679C515.283 50.1679 516.579 49.2079 516.579 47.5879C516.579 45.8119 515.151 45.3679 513.879 44.9839C512.571 44.5879 512.367 44.3239 512.367 43.9399C512.367 43.6039 512.667 43.3039 513.267 43.3039C514.035 43.3039 514.431 43.6759 514.719 44.2759L516.339 43.3279C515.727 42.0919 514.647 41.4319 513.267 41.4319C511.815 41.4319 510.447 42.3679 510.447 43.9879C510.447 45.5959 511.671 46.1959 512.919 46.5439C514.179 46.8919 514.659 47.0959 514.659 47.6119C514.659 47.9359 514.431 48.2959 513.519 48.2959C512.571 48.2959 512.055 47.8279 511.755 47.1319L510.099 48.0919C510.567 49.3279 511.695 50.1679 513.459 50.1679Z" fill="#2E58DB"/>
<path d="M527.878 49.9999H529.978L527.122 41.5999H524.674L521.818 49.9999H523.918L524.338 48.6799H527.458L527.878 49.9999ZM524.914 46.8799L525.898 43.7959L526.882 46.8799H524.914Z" fill="#2E58DB"/>
<path d="M536.374 41.5999V46.1599L533.134 41.5999H531.694V49.9999H533.614V45.4399L536.854 49.9999H538.294V41.5999H536.374Z" fill="#2E58DB"/>
<path d="M544.093 41.5999H540.733V49.9999H544.093C546.409 49.9999 548.173 48.1759 548.173 45.7999C548.173 43.4239 546.409 41.5999 544.093 41.5999ZM544.093 48.1519H542.653V43.4479H544.093C545.413 43.4479 546.325 44.3599 546.325 45.7999C546.325 47.2399 545.413 48.1519 544.093 48.1519Z" fill="#2E58DB"/>
<path d="M554.253 41.5999V49.9999H556.173V41.5999H554.253Z" fill="#2E58DB"/>
<path d="M562.624 50.1679C565.036 50.1679 566.992 48.2719 566.992 45.7999C566.992 43.3279 565.036 41.4319 562.624 41.4319C560.212 41.4319 558.256 43.3279 558.256 45.7999C558.256 48.2719 560.212 50.1679 562.624 50.1679ZM562.624 48.2959C561.256 48.2959 560.176 47.2999 560.176 45.7999C560.176 44.2999 561.256 43.3039 562.624 43.3039C563.992 43.3039 565.072 44.2999 565.072 45.7999C565.072 47.2999 563.992 48.2959 562.624 48.2959Z" fill="#2E58DB"/>
<path d="M574.233 41.5999H567.993V43.4479H570.153V49.9999H572.073V43.4479H574.233V41.5999Z" fill="#2E58DB"/>
<path d="M583.253 41.5999H580.073V49.9999H581.993V47.3599H583.253C584.909 47.3599 586.193 46.0759 586.193 44.4799C586.193 42.8839 584.909 41.5999 583.253 41.5999ZM583.253 45.5599H581.993V43.3999H583.253C583.841 43.3999 584.273 43.8679 584.273 44.4799C584.273 45.0919 583.841 45.5599 583.253 45.5599Z" fill="#2E58DB"/>
<path d="M592.648 49.9999H594.748L591.892 41.5999H589.444L586.588 49.9999H588.688L589.108 48.6799H592.228L592.648 49.9999ZM589.684 46.8799L590.668 43.7959L591.652 46.8799H589.684Z" fill="#2E58DB"/>
<path d="M600.88 49.9999H602.944L601.156 46.9159C602.08 46.4479 602.704 45.5119 602.704 44.4799C602.704 42.8839 601.42 41.5999 599.824 41.5999H596.464V49.9999H598.384V47.2399H599.296L600.88 49.9999ZM598.384 43.3999H599.824C600.352 43.3999 600.784 43.8679 600.784 44.4799C600.784 45.0919 600.352 45.5599 599.824 45.5599H598.384V43.3999Z" fill="#2E58DB"/>
<path d="M610.311 41.5999H604.071V43.4479H606.231V49.9999H608.151V43.4479H610.311V41.5999Z" fill="#2E58DB"/>
<path d="M616.831 41.5999V46.1599L613.591 41.5999H612.151V49.9999H614.071V45.4399L617.311 49.9999H618.751V41.5999H616.831Z" fill="#2E58DB"/>
<path d="M623.11 48.1519V46.6639H626.11V44.8399H623.11V43.4479H626.41V41.5999H621.19V49.9999H626.47V48.1519H623.11Z" fill="#2E58DB"/>
<path d="M632.97 49.9999H635.034L633.246 46.9159C634.17 46.4479 634.794 45.5119 634.794 44.4799C634.794 42.8839 633.51 41.5999 631.914 41.5999H628.554V49.9999H630.474V47.2399H631.386L632.97 49.9999ZM630.474 43.3999H631.914C632.442 43.3999 632.874 43.8679 632.874 44.4799C632.874 45.0919 632.442 45.5599 631.914 45.5599H630.474V43.3999Z" fill="#2E58DB"/>
<path d="M639.759 50.1679C641.583 50.1679 642.879 49.2079 642.879 47.5879C642.879 45.8119 641.451 45.3679 640.179 44.9839C638.871 44.5879 638.667 44.3239 638.667 43.9399C638.667 43.6039 638.967 43.3039 639.567 43.3039C640.335 43.3039 640.731 43.6759 641.019 44.2759L642.639 43.3279C642.027 42.0919 640.947 41.4319 639.567 41.4319C638.115 41.4319 636.747 42.3679 636.747 43.9879C636.747 45.5959 637.971 46.1959 639.219 46.5439C640.479 46.8919 640.959 47.0959 640.959 47.6119C640.959 47.9359 640.731 48.2959 639.819 48.2959C638.871 48.2959 638.355 47.8279 638.055 47.1319L636.399 48.0919C636.867 49.3279 637.995 50.1679 639.759 50.1679Z" fill="#2E58DB"/>
<path d="M482.928 95.6439C483.384 95.2479 483.66 94.6959 483.66 93.9999C483.66 92.5479 482.472 91.5999 481.008 91.5999H477.72V99.9999H481.248C482.748 99.9999 483.96 99.0279 483.96 97.5399C483.96 96.6879 483.552 96.0399 482.928 95.6439ZM481.008 93.3999C481.452 93.3999 481.74 93.7119 481.74 94.1439C481.74 94.5759 481.44 94.8879 481.008 94.8879H479.64V93.3999H481.008ZM481.248 98.1999H479.64V96.5919H481.248C481.728 96.5919 482.04 96.9279 482.04 97.3959C482.04 97.8639 481.728 98.1999 481.248 98.1999Z" fill="#1890FF"/>
<path d="M489.036 100.168C490.884 100.168 492.276 99.0879 492.276 97.2879V91.5999H490.356V97.1199C490.356 97.7559 490.056 98.2959 489.036 98.2959C488.016 98.2959 487.716 97.7559 487.716 97.1199V91.5999H485.796V97.2879C485.796 99.0879 487.188 100.168 489.036 100.168Z" fill="#1890FF"/>
<path d="M497.601 100.168C499.425 100.168 500.721 99.2079 500.721 97.5879C500.721 95.8119 499.293 95.3679 498.021 94.9839C496.713 94.5879 496.509 94.3239 496.509 93.9399C496.509 93.6039 496.809 93.3039 497.409 93.3039C498.177 93.3039 498.573 93.6759 498.861 94.2759L500.481 93.3279C499.869 92.0919 498.789 91.4319 497.409 91.4319C495.957 91.4319 494.589 92.3679 494.589 93.9879C494.589 95.5959 495.813 96.1959 497.061 96.5439C498.321 96.8919 498.801 97.0959 498.801 97.6119C498.801 97.9359 498.573 98.2959 497.661 98.2959C496.713 98.2959 496.197 97.8279 495.897 97.1319L494.241 98.0919C494.709 99.3279 495.837 100.168 497.601 100.168Z" fill="#1890FF"/>
<path d="M502.622 91.5999V99.9999H504.542V91.5999H502.622Z" fill="#1890FF"/>
<path d="M511.665 91.5999V96.1599L508.425 91.5999H506.985V99.9999H508.905V95.4399L512.145 99.9999H513.585V91.5999H511.665Z" fill="#1890FF"/>
<path d="M517.944 98.1519V96.6639H520.944V94.8399H517.944V93.4479H521.244V91.5999H516.024V99.9999H521.304V98.1519H517.944Z" fill="#1890FF"/>
<path d="M526.328 100.168C528.152 100.168 529.448 99.2079 529.448 97.5879C529.448 95.8119 528.02 95.3679 526.748 94.9839C525.44 94.5879 525.236 94.3239 525.236 93.9399C525.236 93.6039 525.536 93.3039 526.136 93.3039C526.904 93.3039 527.3 93.6759 527.588 94.2759L529.208 93.3279C528.596 92.0919 527.516 91.4319 526.136 91.4319C524.684 91.4319 523.316 92.3679 523.316 93.9879C523.316 95.5959 524.54 96.1959 525.788 96.5439C527.048 96.8919 527.528 97.0959 527.528 97.6119C527.528 97.9359 527.3 98.2959 526.388 98.2959C525.44 98.2959 524.924 97.8279 524.624 97.1319L522.968 98.0919C523.436 99.3279 524.564 100.168 526.328 100.168Z" fill="#1890FF"/>
<path d="M534.113 100.168C535.937 100.168 537.233 99.2079 537.233 97.5879C537.233 95.8119 535.805 95.3679 534.533 94.9839C533.225 94.5879 533.021 94.3239 533.021 93.9399C533.021 93.6039 533.321 93.3039 533.921 93.3039C534.689 93.3039 535.085 93.6759 535.373 94.2759L536.993 93.3279C536.381 92.0919 535.301 91.4319 533.921 91.4319C532.469 91.4319 531.101 92.3679 531.101 93.9879C531.101 95.5959 532.325 96.1959 533.573 96.5439C534.833 96.8919 535.313 97.0959 535.313 97.6119C535.313 97.9359 535.085 98.2959 534.173 98.2959C533.225 98.2959 532.709 97.8279 532.409 97.1319L530.753 98.0919C531.221 99.3279 532.349 100.168 534.113 100.168Z" fill="#1890FF"/>
<path d="M546.552 91.5999H543.192V99.9999H546.552C548.868 99.9999 550.632 98.1759 550.632 95.7999C550.632 93.4239 548.868 91.5999 546.552 91.5999ZM546.552 98.1519H545.112V93.4479H546.552C547.872 93.4479 548.784 94.3599 548.784 95.7999C548.784 97.2399 547.872 98.1519 546.552 98.1519Z" fill="#1890FF"/>
<path d="M554.632 98.1519V96.6639H557.632V94.8399H554.632V93.4479H557.932V91.5999H552.712V99.9999H557.992V98.1519H554.632Z" fill="#1890FF"/>
<path d="M564.025 100.168C565.561 100.168 566.905 99.4119 567.625 98.2239L565.969 97.2639C565.609 97.9119 564.877 98.2959 564.025 98.2959C562.537 98.2959 561.577 97.2999 561.577 95.7999C561.577 94.2999 562.537 93.3039 564.025 93.3039C564.877 93.3039 565.597 93.6879 565.969 94.3359L567.625 93.3759C566.893 92.1879 565.549 91.4319 564.025 91.4319C561.493 91.4319 559.657 93.3279 559.657 95.7999C559.657 98.2719 561.493 100.168 564.025 100.168Z" fill="#1890FF"/>
<path d="M569.524 91.5999V99.9999H571.444V91.5999H569.524Z" fill="#1890FF"/>
<path d="M576.711 100.168C578.535 100.168 579.831 99.2079 579.831 97.5879C579.831 95.8119 578.403 95.3679 577.131 94.9839C575.823 94.5879 575.619 94.3239 575.619 93.9399C575.619 93.6039 575.919 93.3039 576.519 93.3039C577.287 93.3039 577.683 93.6759 577.971 94.2759L579.591 93.3279C578.979 92.0919 577.899 91.4319 576.519 91.4319C575.067 91.4319 573.699 92.3679 573.699 93.9879C573.699 95.5959 574.923 96.1959 576.171 96.5439C577.431 96.8919 577.911 97.0959 577.911 97.6119C577.911 97.9359 577.683 98.2959 576.771 98.2959C575.823 98.2959 575.307 97.8279 575.007 97.1319L573.351 98.0919C573.819 99.3279 574.947 100.168 576.711 100.168Z" fill="#1890FF"/>
<path d="M581.731 91.5999V99.9999H583.651V91.5999H581.731Z" fill="#1890FF"/>
<path d="M590.103 100.168C592.515 100.168 594.471 98.2719 594.471 95.7999C594.471 93.3279 592.515 91.4319 590.103 91.4319C587.691 91.4319 585.735 93.3279 585.735 95.7999C585.735 98.2719 587.691 100.168 590.103 100.168ZM590.103 98.2959C588.735 98.2959 587.655 97.2999 587.655 95.7999C587.655 94.2999 588.735 93.3039 590.103 93.3039C591.471 93.3039 592.551 94.2999 592.551 95.7999C592.551 97.2999 591.471 98.2959 590.103 98.2959Z" fill="#1890FF"/>
<path d="M601.232 91.5999V96.1599L597.992 91.5999H596.552V99.9999H598.472V95.4399L601.712 99.9999H603.152V91.5999H601.232Z" fill="#1890FF"/>
<path d="M608.414 100.168C610.238 100.168 611.534 99.2079 611.534 97.5879C611.534 95.8119 610.106 95.3679 608.834 94.9839C607.526 94.5879 607.322 94.3239 607.322 93.9399C607.322 93.6039 607.622 93.3039 608.222 93.3039C608.99 93.3039 609.386 93.6759 609.674 94.2759L611.294 93.3279C610.682 92.0919 609.602 91.4319 608.222 91.4319C606.77 91.4319 605.402 92.3679 605.402 93.9879C605.402 95.5959 606.626 96.1959 607.874 96.5439C609.134 96.8919 609.614 97.0959 609.614 97.6119C609.614 97.9359 609.386 98.2959 608.474 98.2959C607.526 98.2959 607.01 97.8279 606.71 97.1319L605.054 98.0919C605.522 99.3279 606.65 100.168 608.414 100.168Z" fill="#1890FF"/>
<path d="M501.4 148.6V153.16L498.16 148.6H496.72V157H498.64V152.44L501.88 157H503.32V148.6H501.4Z" fill="#0B3F9C"/>
<path d="M507.679 155.152V153.664H510.679V151.84H507.679V150.448H510.979V148.6H505.759V157H511.039V155.152H507.679Z" fill="#0B3F9C"/>
<path d="M514.838 157H517.022L518.39 152.044L519.758 157H521.942L524.258 148.6H522.242L520.79 154.48L519.17 148.6H517.61L515.99 154.48L514.538 148.6H512.522L514.838 157Z" fill="#0B3F9C"/>
<path d="M535.199 150.448V148.6H530.099V157H532.019V153.916H535.139V152.068H532.019V150.448H535.199Z" fill="#0B3F9C"/>
<path d="M539.253 155.152V153.664H542.253V151.84H539.253V150.448H542.553V148.6H537.333V157H542.613V155.152H539.253Z" fill="#0B3F9C"/>
<path d="M550.153 157H552.253L549.397 148.6H546.949L544.093 157H546.193L546.613 155.68H549.733L550.153 157ZM547.189 153.88L548.173 150.796L549.157 153.88H547.189Z" fill="#0B3F9C"/>
<path d="M559.012 148.6H552.772V150.448H554.932V157H556.852V150.448H559.012V148.6Z" fill="#0B3F9C"/>
<path d="M564.033 157.168C565.881 157.168 567.273 156.088 567.273 154.288V148.6H565.353V154.12C565.353 154.756 565.053 155.296 564.033 155.296C563.013 155.296 562.713 154.756 562.713 154.12V148.6H560.793V154.288C560.793 156.088 562.185 157.168 564.033 157.168Z" fill="#0B3F9C"/>
<path d="M574.073 157H576.137L574.349 153.916C575.273 153.448 575.897 152.512 575.897 151.48C575.897 149.884 574.613 148.6 573.017 148.6H569.657V157H571.577V154.24H572.489L574.073 157ZM571.577 150.4H573.017C573.545 150.4 573.977 150.868 573.977 151.48C573.977 152.092 573.545 152.56 573.017 152.56H571.577V150.4Z" fill="#0B3F9C"/>
<path d="M579.96 155.152V153.664H582.96V151.84H579.96V150.448H583.26V148.6H578.04V157H583.32V155.152H579.96Z" fill="#0B3F9C"/>
<path d="M588.343 157.168C590.167 157.168 591.463 156.208 591.463 154.588C591.463 152.812 590.035 152.368 588.763 151.984C587.455 151.588 587.251 151.324 587.251 150.94C587.251 150.604 587.551 150.304 588.151 150.304C588.919 150.304 589.315 150.676 589.603 151.276L591.223 150.328C590.611 149.092 589.531 148.432 588.151 148.432C586.699 148.432 585.331 149.368 585.331 150.988C585.331 152.596 586.555 153.196 587.803 153.544C589.063 153.892 589.543 154.096 589.543 154.612C589.543 154.936 589.315 155.296 588.403 155.296C587.455 155.296 586.939 154.828 586.639 154.132L584.983 155.092C585.451 156.328 586.579 157.168 588.343 157.168Z" fill="#0B3F9C"/>
<g filter="url(#filter4_dd)">
<circle cx="112" cy="122" r="92" fill="#001358"/>
<circle cx="112" cy="122" r="88" stroke="white" stroke-width="8"/>
</g>
<path d="M64.5727 167.294C67.2607 167.294 69.6127 165.971 70.8727 163.892L67.9747 162.212C67.3447 163.346 66.0637 164.018 64.5727 164.018C61.9687 164.018 60.2887 162.275 60.2887 159.65C60.2887 157.025 61.9687 155.282 64.5727 155.282C66.0637 155.282 67.3237 155.954 67.9747 157.088L70.8727 155.408C69.5917 153.329 67.2397 152.006 64.5727 152.006C60.1417 152.006 56.9287 155.324 56.9287 159.65C56.9287 163.976 60.1417 167.294 64.5727 167.294Z" fill="white"/>
<path d="M77.4849 167.294C80.5719 167.294 83.0499 164.879 83.0499 161.75C83.0499 158.621 80.5719 156.206 77.4849 156.206C74.3979 156.206 71.9199 158.621 71.9199 161.75C71.9199 164.879 74.3979 167.294 77.4849 167.294ZM77.4849 164.228C76.1199 164.228 75.0699 163.241 75.0699 161.75C75.0699 160.259 76.1199 159.272 77.4849 159.272C78.8499 159.272 79.8999 160.259 79.8999 161.75C79.8999 163.241 78.8499 164.228 77.4849 164.228Z" fill="white"/>
<path d="M96.5916 156.206C95.1006 156.206 94.1346 156.752 93.5466 157.592C92.9586 156.71 92.0346 156.206 90.7956 156.206C89.3886 156.206 88.4646 156.752 87.9816 157.466V156.5H84.8316V167H87.9816V161.078C87.9816 159.839 88.5696 159.104 89.6196 159.104C90.6276 159.104 91.1316 159.776 91.1316 160.826V167H94.2816V161.078C94.2816 159.839 94.8696 159.104 95.9196 159.104C96.9276 159.104 97.4316 159.776 97.4316 160.826V167H100.582V160.553C100.582 157.928 99.0066 156.206 96.5916 156.206Z" fill="white"/>
<path d="M114.495 156.206C113.004 156.206 112.038 156.752 111.45 157.592C110.862 156.71 109.938 156.206 108.699 156.206C107.292 156.206 106.368 156.752 105.885 157.466V156.5H102.735V167H105.885V161.078C105.885 159.839 106.473 159.104 107.523 159.104C108.531 159.104 109.035 159.776 109.035 160.826V167H112.185V161.078C112.185 159.839 112.773 159.104 113.823 159.104C114.831 159.104 115.335 159.776 115.335 160.826V167H118.485V160.553C118.485 157.928 116.91 156.206 114.495 156.206Z" fill="white"/>
<path d="M127.421 156.5V162.233C127.421 163.724 126.623 164.396 125.468 164.396C124.46 164.396 123.641 163.787 123.641 162.485V156.5H120.491V162.947C120.491 165.782 122.297 167.294 124.418 167.294C125.804 167.294 126.854 166.79 127.421 166.013V167H130.571V156.5H127.421Z" fill="white"/>
<path d="M139.034 156.206C137.648 156.206 136.598 156.71 136.031 157.487V156.5H132.881V167H136.031V161.267C136.031 159.776 136.829 159.104 137.984 159.104C138.992 159.104 139.811 159.713 139.811 161.015V167H142.961V160.553C142.961 157.718 141.155 156.206 139.034 156.206Z" fill="white"/>
<path d="M146.7 155.576C147.729 155.576 148.59 154.715 148.59 153.686C148.59 152.657 147.729 151.796 146.7 151.796C145.671 151.796 144.81 152.657 144.81 153.686C144.81 154.715 145.671 155.576 146.7 155.576ZM145.125 167H148.275V156.5H145.125V167Z" fill="white"/>
<path d="M156.733 159.524V156.5H154.57V153.56L151.42 154.505V156.5H149.74V159.524H151.42V163.241C151.42 166.181 152.617 167.42 156.733 167V164.144C155.347 164.228 154.57 164.144 154.57 163.241V159.524H156.733Z" fill="white"/>
<path d="M165.336 156.5L163.362 162.926L161.031 156.5H157.566L161.745 166.517C161.283 167.798 160.59 168.26 159.12 168.26V171.2C162.06 171.347 163.929 170.024 165.105 166.685L168.696 156.5H165.336Z" fill="white"/>
<path fill-rule="evenodd" clip-rule="evenodd" d="M144 105.012L132.014 117.024H131.991C126.861 111.916 119.822 108.74 112.023 108.74C104.224 108.74 97.1618 111.916 92.0316 117.024H92.0086L80 105.012L112 73L144 105.012ZM112 80.0723L136.934 105.015L131.731 110.229C126.219 106.164 119.412 103.74 112.023 103.74C104.634 103.74 97.8097 106.164 92.289 110.233L87.0698 105.012L112 80.0723Z" fill="white"/>
<path fill-rule="evenodd" clip-rule="evenodd" d="M115.289 113.941C114.208 113.78 113.127 113.711 111.999 113.711C107.388 113.711 103.073 115.053 99.4562 117.38C98.1053 118.249 96.8518 119.255 95.7165 120.38C95.661 120.435 95.6057 120.49 95.5508 120.546L112.022 137L128.471 120.546C128.397 120.47 128.322 120.396 128.247 120.321C127.129 119.22 125.897 118.233 124.568 117.378C121.824 115.612 118.671 114.411 115.289 113.941ZM120.927 121.02L112.02 129.93L103.1 121.02C105.727 119.548 108.766 118.711 111.999 118.711C112.919 118.711 113.751 118.767 114.552 118.886L114.576 118.89L114.6 118.893C116.873 119.209 119.011 119.946 120.927 121.02Z" fill="white"/>
<g filter="url(#filter5_dd)">
<circle cx="975" cy="122" r="92" fill="#2E58DB"/>
<circle cx="975" cy="122" r="88" stroke="white" stroke-width="8"/>
</g>
<path d="M956.629 139H992.699C998.031 139 1002.33 134.664 1002.33 129.28V79.9346C1002.33 74.5514 998.031 70.215 992.699 70.215H980.996C981.663 69.0935 982.033 67.8224 982.033 66.4766C982.033 62.3645 978.7 59 974.627 59C970.553 59 967.22 62.3645 967.22 66.4766C967.22 67.8224 967.59 69.0935 968.257 70.215H956.629C951.296 70.215 947 74.5514 947 79.9346V129.355C947 134.664 951.296 139 956.629 139ZM974.627 63.486C976.256 63.486 977.589 64.8318 977.589 66.4766C977.589 68.1215 976.256 69.4673 974.627 69.4673C972.997 69.4673 971.664 68.1215 971.664 66.4766C971.664 64.8318 972.997 63.486 974.627 63.486ZM951.444 79.9346C951.444 77.0187 953.74 74.7009 956.629 74.7009H992.699C995.587 74.7009 997.883 77.0187 997.883 79.9346V129.355C997.883 132.271 995.587 134.589 992.699 134.589H956.629C953.74 134.589 951.444 132.271 951.444 129.355V79.9346Z" fill="white"/>
<path d="M962.643 82.9252H986.684C987.922 82.9252 988.869 81.9532 988.869 80.6822C988.869 79.4112 987.922 78.4392 986.684 78.4392H962.643C961.405 78.4392 960.458 79.4112 960.458 80.6822C960.458 81.9532 961.405 82.9252 962.643 82.9252Z" fill="white"/>
<path d="M991.112 107.599L984.947 113.77H984.94C983.592 112.419 981.991 111.347 980.229 110.615C978.466 109.883 976.576 109.507 974.668 109.507C972.759 109.507 970.869 109.883 969.107 110.615C967.344 111.347 965.743 112.419 964.395 113.77H964.384L958.215 107.599L974.666 91.1494L991.112 107.599Z" fill="#1890FF"/>
<path d="M983.127 115.589L974.672 124.047L966.205 115.589C967.312 114.473 968.629 113.587 970.081 112.985C971.533 112.382 973.091 112.075 974.663 112.081C975.228 112.081 975.793 112.12 976.354 112.199C978.922 112.556 981.302 113.747 983.127 115.589Z" fill="white"/>
<path d="M927.14 152.3H916.22V155.534H920V167H923.36V155.534H927.14V152.3Z" fill="white"/>
<path d="M934.242 156.5V157.487C933.549 156.689 932.52 156.206 931.113 156.206C928.362 156.206 926.094 158.621 926.094 161.75C926.094 164.879 928.362 167.294 931.113 167.294C932.52 167.294 933.549 166.811 934.242 166.013V167H937.392V156.5H934.242ZM931.743 164.312C930.294 164.312 929.244 163.325 929.244 161.75C929.244 160.175 930.294 159.188 931.743 159.188C933.192 159.188 934.242 160.175 934.242 161.75C934.242 163.325 933.192 164.312 931.743 164.312Z" fill="white"/>
<path d="M942.582 159.566C942.582 159.188 942.918 158.978 943.464 158.978C944.157 158.978 944.577 159.356 944.871 159.902L947.559 158.453C946.677 156.962 945.165 156.206 943.464 156.206C941.28 156.206 939.348 157.361 939.348 159.65C939.348 163.283 944.514 162.674 944.514 163.829C944.514 164.249 944.136 164.48 943.38 164.48C942.456 164.48 941.868 164.039 941.595 163.241L938.865 164.795C939.684 166.496 941.28 167.294 943.38 167.294C945.648 167.294 947.748 166.265 947.748 163.85C947.748 159.965 942.582 160.763 942.582 159.566Z" fill="white"/>
<path d="M959.401 167L955.474 161.75L959.296 156.5H955.621L952.471 161.099V152.3H949.321V167H952.471V162.359L955.831 167H959.401Z" fill="white"/>
<path d="M962.344 167.294C963.436 167.294 964.339 166.391 964.339 165.299C964.339 164.207 963.436 163.304 962.344 163.304C961.252 163.304 960.349 164.207 960.349 165.299C960.349 166.391 961.252 167.294 962.344 167.294Z" fill="white"/>
<path d="M981.25 152.3H977.89L973.9 158.831L969.91 152.3H966.55V167H969.91V158.453L973.711 164.69H974.089L977.89 158.453V167H981.25V152.3Z" fill="white"/>
<path d="M991.295 156.5V157.487C990.602 156.689 989.573 156.206 988.166 156.206C985.415 156.206 983.147 158.621 983.147 161.75C983.147 164.879 985.415 167.294 988.166 167.294C989.573 167.294 990.602 166.811 991.295 166.013V167H994.445V156.5H991.295ZM988.796 164.312C987.347 164.312 986.297 163.325 986.297 161.75C986.297 160.175 987.347 159.188 988.796 159.188C990.245 159.188 991.295 160.175 991.295 161.75C991.295 163.325 990.245 164.312 988.796 164.312Z" fill="white"/>
<path d="M999.906 158.369V156.5H996.756V167H999.906V162.254C999.906 160.175 1001.75 159.65 1003.06 159.86V156.29C1001.73 156.29 1000.33 156.962 999.906 158.369Z" fill="white"/>
<path d="M1014.61 167L1010.68 161.75L1014.5 156.5H1010.83L1007.68 161.099V152.3H1004.53V167H1007.68V162.359L1011.04 167H1014.61Z" fill="white"/>
<path d="M1017.94 163.01H1025.4C1025.48 162.611 1025.53 162.191 1025.53 161.75C1025.53 158.579 1023.26 156.206 1020.19 156.206C1016.87 156.206 1014.61 158.621 1014.61 161.75C1014.61 164.879 1016.83 167.294 1020.42 167.294C1022.42 167.294 1023.97 166.559 1025 165.131L1022.48 163.682C1022.06 164.144 1021.33 164.48 1020.46 164.48C1019.31 164.48 1018.34 164.102 1017.94 163.01ZM1017.88 160.658C1018.18 159.587 1018.97 158.999 1020.17 158.999C1021.12 158.999 1022.06 159.44 1022.4 160.658H1017.88Z" fill="white"/>
<path d="M1033.16 159.524V156.5H1030.99V153.56L1027.84 154.505V156.5H1026.16V159.524H1027.84V163.241C1027.84 166.181 1029.04 167.42 1033.16 167V164.144C1031.77 164.228 1030.99 164.144 1030.99 163.241V159.524H1033.16Z" fill="white"/>
<g opacity="0.5">
<path opacity="0.8" fill-rule="evenodd" clip-rule="evenodd" d="M306.586 113.586C307.367 112.805 308.633 112.805 309.414 113.586L318.414 122.586C319.195 123.367 319.195 124.633 318.414 125.414L309.414 134.414C308.633 135.195 307.367 135.195 306.586 134.414C305.805 133.633 305.805 132.367 306.586 131.586L314.172 124L306.586 116.414C305.805 115.633 305.805 114.367 306.586 113.586Z" fill="#1890FF"/>
<path fill-rule="evenodd" clip-rule="evenodd" d="M319.586 113.586C320.367 112.805 321.633 112.805 322.414 113.586L331.414 122.586C332.195 123.367 332.195 124.633 331.414 125.414L322.414 134.414C321.633 135.195 320.367 135.195 319.586 134.414C318.805 133.633 318.805 132.367 319.586 131.586L327.172 124L319.586 116.414C318.805 115.633 318.805 114.367 319.586 113.586Z" fill="#1890FF"/>
<path opacity="0.6" fill-rule="evenodd" clip-rule="evenodd" d="M293.586 113.586C294.367 112.805 295.633 112.805 296.414 113.586L305.414 122.586C306.195 123.367 306.195 124.633 305.414 125.414L296.414 134.414C295.633 135.195 294.367 135.195 293.586 134.414C292.805 133.633 292.805 132.367 293.586 131.586L301.172 124L293.586 116.414C292.805 115.633 292.805 114.367 293.586 113.586Z" fill="#1890FF"/>
</g>
<g opacity="0.5">
<path opacity="0.8" fill-rule="evenodd" clip-rule="evenodd" d="M723.586 113.586C724.367 112.805 725.633 112.805 726.414 113.586L735.414 122.586C736.195 123.367 736.195 124.633 735.414 125.414L726.414 134.414C725.633 135.195 724.367 135.195 723.586 134.414C722.805 133.633 722.805 132.367 723.586 131.586L731.172 124L723.586 116.414C722.805 115.633 722.805 114.367 723.586 113.586Z" fill="#1890FF"/>
<path fill-rule="evenodd" clip-rule="evenodd" d="M736.586 113.586C737.367 112.805 738.633 112.805 739.414 113.586L748.414 122.586C749.195 123.367 749.195 124.633 748.414 125.414L739.414 134.414C738.633 135.195 737.367 135.195 736.586 134.414C735.805 133.633 735.805 132.367 736.586 131.586L744.172 124L736.586 116.414C735.805 115.633 735.805 114.367 736.586 113.586Z" fill="#1890FF"/>
<path opacity="0.6" fill-rule="evenodd" clip-rule="evenodd" d="M710.586 113.586C711.367 112.805 712.633 112.805 713.414 113.586L722.414 122.586C723.195 123.367 723.195 124.633 722.414 125.414L713.414 134.414C712.633 135.195 711.367 135.195 710.586 134.414C709.805 133.633 709.805 132.367 710.586 131.586L718.172 124L710.586 116.414C709.805 115.633 709.805 114.367 710.586 113.586Z" fill="#1890FF"/>
</g>
<g opacity="0.5">
<path opacity="0.8" fill-rule="evenodd" clip-rule="evenodd" d="M818.586 113.586C819.367 112.805 820.633 112.805 821.414 113.586L830.414 122.586C831.195 123.367 831.195 124.633 830.414 125.414L821.414 134.414C820.633 135.195 819.367 135.195 818.586 134.414C817.805 133.633 817.805 132.367 818.586 131.586L826.172 124L818.586 116.414C817.805 115.633 817.805 114.367 818.586 113.586Z" fill="#1890FF"/>
<path fill-rule="evenodd" clip-rule="evenodd" d="M831.586 113.586C832.367 112.805 833.633 112.805 834.414 113.586L843.414 122.586C844.195 123.367 844.195 124.633 843.414 125.414L834.414 134.414C833.633 135.195 832.367 135.195 831.586 134.414C830.805 133.633 830.805 132.367 831.586 131.586L839.172 124L831.586 116.414C830.805 115.633 830.805 114.367 831.586 113.586Z" fill="#1890FF"/>
<path opacity="0.6" fill-rule="evenodd" clip-rule="evenodd" d="M805.586 113.586C806.367 112.805 807.633 112.805 808.414 113.586L817.414 122.586C818.195 123.367 818.195 124.633 817.414 125.414L808.414 134.414C807.633 135.195 806.367 135.195 805.586 134.414C804.805 133.633 804.805 132.367 805.586 131.586L813.172 124L805.586 116.414C804.805 115.633 804.805 114.367 805.586 113.586Z" fill="#1890FF"/>
</g>
<path d="M278.992 148.6H275.812V157H277.732V154.36H278.992C280.648 154.36 281.932 153.076 281.932 151.48C281.932 149.884 280.648 148.6 278.992 148.6ZM278.992 152.56H277.732V150.4H278.992C279.58 150.4 280.012 150.868 280.012 151.48C280.012 152.092 279.58 152.56 278.992 152.56ZM288.306 157H290.37L288.582 153.916C289.506 153.448 290.13 152.512 290.13 151.48C290.13 149.884 288.846 148.6 287.25 148.6H283.89V157H285.81V154.24H286.722L288.306 157ZM285.81 150.4H287.25C287.778 150.4 288.21 150.868 288.21 151.48C288.21 152.092 287.778 152.56 287.25 152.56H285.81V150.4ZM296.164 157.168C298.576 157.168 300.532 155.272 300.532 152.8C300.532 150.328 298.576 148.432 296.164 148.432C293.752 148.432 291.796 150.328 291.796 152.8C291.796 155.272 293.752 157.168 296.164 157.168ZM296.164 155.296C294.796 155.296 293.716 154.3 293.716 152.8C293.716 151.3 294.796 150.304 296.164 150.304C297.532 150.304 298.612 151.3 298.612 152.8C298.612 154.3 297.532 155.296 296.164 155.296ZM305.793 148.6H302.613V157H304.533V154.36H305.793C307.449 154.36 308.733 153.076 308.733 151.48C308.733 149.884 307.449 148.6 305.793 148.6ZM305.793 152.56H304.533V150.4H305.793C306.381 150.4 306.813 150.868 306.813 151.48C306.813 152.092 306.381 152.56 305.793 152.56ZM314.64 157.168C317.052 157.168 319.008 155.272 319.008 152.8C319.008 150.328 317.052 148.432 314.64 148.432C312.228 148.432 310.272 150.328 310.272 152.8C310.272 155.272 312.228 157.168 314.64 157.168ZM314.64 155.296C313.272 155.296 312.192 154.3 312.192 152.8C312.192 151.3 313.272 150.304 314.64 150.304C316.008 150.304 317.088 151.3 317.088 152.8C317.088 154.3 316.008 155.296 314.64 155.296ZM323.724 157.168C325.548 157.168 326.844 156.208 326.844 154.588C326.844 152.812 325.416 152.368 324.144 151.984C322.836 151.588 322.632 151.324 322.632 150.94C322.632 150.604 322.932 150.304 323.532 150.304C324.3 150.304 324.696 150.676 324.984 151.276L326.604 150.328C325.992 149.092 324.912 148.432 323.532 148.432C322.08 148.432 320.712 149.368 320.712 150.988C320.712 152.596 321.936 153.196 323.184 153.544C324.444 153.892 324.924 154.096 324.924 154.612C324.924 154.936 324.696 155.296 323.784 155.296C322.836 155.296 322.32 154.828 322.02 154.132L320.364 155.092C320.832 156.328 321.96 157.168 323.724 157.168ZM330.665 155.152V153.664H333.665V151.84H330.665V150.448H333.965V148.6H328.745V157H334.025V155.152H330.665ZM339.469 148.6H336.109V157H339.469C341.785 157 343.549 155.176 343.549 152.8C343.549 150.424 341.785 148.6 339.469 148.6ZM339.469 155.152H338.029V150.448H339.469C340.789 150.448 341.701 151.36 341.701 152.8C341.701 154.24 340.789 155.152 339.469 155.152Z" fill="#111111"/>
<g opacity="0.5">
<path opacity="0.8" fill-rule="evenodd" clip-rule="evenodd" d="M304.586 113.586C305.367 112.805 306.633 112.805 307.414 113.586L316.414 122.586C317.195 123.367 317.195 124.633 316.414 125.414L307.414 134.414C306.633 135.195 305.367 135.195 304.586 134.414C303.805 133.633 303.805 132.367 304.586 131.586L312.172 124L304.586 116.414C303.805 115.633 303.805 114.367 304.586 113.586Z" fill="#1890FF"/>
<path fill-rule="evenodd" clip-rule="evenodd" d="M317.586 113.586C318.367 112.805 319.633 112.805 320.414 113.586L329.414 122.586C330.195 123.367 330.195 124.633 329.414 125.414L320.414 134.414C319.633 135.195 318.367 135.195 317.586 134.414C316.805 133.633 316.805 132.367 317.586 131.586L325.172 124L317.586 116.414C316.805 115.633 316.805 114.367 317.586 113.586Z" fill="#1890FF"/>
<path opacity="0.6" fill-rule="evenodd" clip-rule="evenodd" d="M291.586 113.586C292.367 112.805 293.633 112.805 294.414 113.586L303.414 122.586C304.195 123.367 304.195 124.633 303.414 125.414L294.414 134.414C293.633 135.195 292.367 135.195 291.586 134.414C290.805 133.633 290.805 132.367 291.586 131.586L299.172 124L291.586 116.414C290.805 115.633 290.805 114.367 291.586 113.586Z" fill="#1890FF"/>
</g>
<path d="M278.992 148.6H275.812V157H277.732V154.36H278.992C280.648 154.36 281.932 153.076 281.932 151.48C281.932 149.884 280.648 148.6 278.992 148.6ZM278.992 152.56H277.732V150.4H278.992C279.58 150.4 280.012 150.868 280.012 151.48C280.012 152.092 279.58 152.56 278.992 152.56Z" fill="#111111"/>
<path d="M288.306 157H290.37L288.582 153.916C289.506 153.448 290.13 152.512 290.13 151.48C290.13 149.884 288.846 148.6 287.25 148.6H283.89V157H285.81V154.24H286.722L288.306 157ZM285.81 150.4H287.25C287.778 150.4 288.21 150.868 288.21 151.48C288.21 152.092 287.778 152.56 287.25 152.56H285.81V150.4Z" fill="#111111"/>
<path d="M296.163 157.168C298.575 157.168 300.531 155.272 300.531 152.8C300.531 150.328 298.575 148.432 296.163 148.432C293.751 148.432 291.795 150.328 291.795 152.8C291.795 155.272 293.751 157.168 296.163 157.168ZM296.163 155.296C294.795 155.296 293.715 154.3 293.715 152.8C293.715 151.3 294.795 150.304 296.163 150.304C297.531 150.304 298.611 151.3 298.611 152.8C298.611 154.3 297.531 155.296 296.163 155.296Z" fill="#111111"/>
<path d="M305.792 148.6H302.612V157H304.532V154.36H305.792C307.448 154.36 308.732 153.076 308.732 151.48C308.732 149.884 307.448 148.6 305.792 148.6ZM305.792 152.56H304.532V150.4H305.792C306.38 150.4 306.812 150.868 306.812 151.48C306.812 152.092 306.38 152.56 305.792 152.56Z" fill="#111111"/>
<path d="M314.64 157.168C317.052 157.168 319.008 155.272 319.008 152.8C319.008 150.328 317.052 148.432 314.64 148.432C312.228 148.432 310.272 150.328 310.272 152.8C310.272 155.272 312.228 157.168 314.64 157.168ZM314.64 155.296C313.272 155.296 312.192 154.3 312.192 152.8C312.192 151.3 313.272 150.304 314.64 150.304C316.008 150.304 317.088 151.3 317.088 152.8C317.088 154.3 316.008 155.296 314.64 155.296Z" fill="#111111"/>
<path d="M323.724 157.168C325.548 157.168 326.844 156.208 326.844 154.588C326.844 152.812 325.416 152.368 324.144 151.984C322.836 151.588 322.632 151.324 322.632 150.94C322.632 150.604 322.932 150.304 323.532 150.304C324.3 150.304 324.696 150.676 324.984 151.276L326.604 150.328C325.992 149.092 324.912 148.432 323.532 148.432C322.08 148.432 320.712 149.368 320.712 150.988C320.712 152.596 321.936 153.196 323.184 153.544C324.444 153.892 324.924 154.096 324.924 154.612C324.924 154.936 324.696 155.296 323.784 155.296C322.836 155.296 322.32 154.828 322.02 154.132L320.364 155.092C320.832 156.328 321.96 157.168 323.724 157.168Z" fill="#111111"/>
<path d="M330.665 155.152V153.664H333.665V151.84H330.665V150.448H333.965V148.6H328.745V157H334.025V155.152H330.665Z" fill="#111111"/>
<path d="M339.468 148.6H336.108V157H339.468C341.784 157 343.548 155.176 343.548 152.8C343.548 150.424 341.784 148.6 339.468 148.6ZM339.468 155.152H338.028V150.448H339.468C340.788 150.448 341.7 151.36 341.7 152.8C341.7 154.24 340.788 155.152 339.468 155.152Z" fill="#111111"/>
<defs>
<filter id="filter0_dd" x="397" y="0" width="295" height="88" filterUnits="userSpaceOnUse" color-interpolation-filters="sRGB">
<feFlood flood-opacity="0" result="BackgroundImageFix"/>
<feColorMatrix in="SourceAlpha" type="matrix" values="0 0 0 0 0 0 0 0 0 0 0 0 0 0 0 0 0 0 127 0"/>
<feOffset dy="1"/>
<feGaussianBlur stdDeviation="1"/>
<feColorMatrix type="matrix" values="0 0 0 0 0 0 0 0 0 0 0 0 0 0 0 0 0 0 0.12 0"/>
<feBlend mode="normal" in2="BackgroundImageFix" result="effect1_dropShadow"/>
<feColorMatrix in="SourceAlpha" type="matrix" values="0 0 0 0 0 0 0 0 0 0 0 0 0 0 0 0 0 0 127 0"/>
<feOffset dy="4"/>
<feGaussianBlur stdDeviation="10"/>
<feColorMatrix type="matrix" values="0 0 0 0 0 0 0 0 0 0 0 0 0 0 0 0 0 0 0.12 0"/>
<feBlend mode="normal" in2="effect1_dropShadow" result="effect2_dropShadow"/>
<feBlend mode="normal" in="SourceGraphic" in2="effect2_dropShadow" result="shape"/>
</filter>
<filter id="filter1_dd" x="397" y="56" width="295" height="88" filterUnits="userSpaceOnUse" color-interpolation-filters="sRGB">
<feFlood flood-opacity="0" result="BackgroundImageFix"/>
<feColorMatrix in="SourceAlpha" type="matrix" values="0 0 0 0 0 0 0 0 0 0 0 0 0 0 0 0 0 0 127 0"/>
<feOffset dy="1"/>
<feGaussianBlur stdDeviation="1"/>
<feColorMatrix type="matrix" values="0 0 0 0 0 0 0 0 0 0 0 0 0 0 0 0 0 0 0.12 0"/>
<feBlend mode="normal" in2="BackgroundImageFix" result="effect1_dropShadow"/>
<feColorMatrix in="SourceAlpha" type="matrix" values="0 0 0 0 0 0 0 0 0 0 0 0 0 0 0 0 0 0 127 0"/>
<feOffset dy="4"/>
<feGaussianBlur stdDeviation="10"/>
<feColorMatrix type="matrix" values="0 0 0 0 0 0 0 0 0 0 0 0 0 0 0 0 0 0 0.12 0"/>
<feBlend mode="normal" in2="effect1_dropShadow" result="effect2_dropShadow"/>
<feBlend mode="normal" in="SourceGraphic" in2="effect2_dropShadow" result="shape"/>
</filter>
<filter id="filter2_dd" x="397" y="112" width="295" height="88" filterUnits="userSpaceOnUse" color-interpolation-filters="sRGB">
<feFlood flood-opacity="0" result="BackgroundImageFix"/>
<feColorMatrix in="SourceAlpha" type="matrix" values="0 0 0 0 0 0 0 0 0 0 0 0 0 0 0 0 0 0 127 0"/>
<feOffset dy="1"/>
<feGaussianBlur stdDeviation="1"/>
<feColorMatrix type="matrix" values="0 0 0 0 0 0 0 0 0 0 0 0 0 0 0 0 0 0 0.12 0"/>
<feBlend mode="normal" in2="BackgroundImageFix" result="effect1_dropShadow"/>
<feColorMatrix in="SourceAlpha" type="matrix" values="0 0 0 0 0 0 0 0 0 0 0 0 0 0 0 0 0 0 127 0"/>
<feOffset dy="4"/>
<feGaussianBlur stdDeviation="10"/>
<feColorMatrix type="matrix" values="0 0 0 0 0 0 0 0 0 0 0 0 0 0 0 0 0 0 0.12 0"/>
<feBlend mode="normal" in2="effect1_dropShadow" result="effect2_dropShadow"/>
<feBlend mode="normal" in="SourceGraphic" in2="effect2_dropShadow" result="shape"/>
</filter>
<filter id="filter3_dd" x="397" y="168" width="295" height="88" filterUnits="userSpaceOnUse" color-interpolation-filters="sRGB">
<feFlood flood-opacity="0" result="BackgroundImageFix"/>
<feColorMatrix in="SourceAlpha" type="matrix" values="0 0 0 0 0 0 0 0 0 0 0 0 0 0 0 0 0 0 127 0"/>
<feOffset dy="1"/>
<feGaussianBlur stdDeviation="1"/>
<feColorMatrix type="matrix" values="0 0 0 0 0 0 0 0 0 0 0 0 0 0 0 0 0 0 0.12 0"/>
<feBlend mode="normal" in2="BackgroundImageFix" result="effect1_dropShadow"/>
<feColorMatrix in="SourceAlpha" type="matrix" values="0 0 0 0 0 0 0 0 0 0 0 0 0 0 0 0 0 0 127 0"/>
<feOffset dy="4"/>
<feGaussianBlur stdDeviation="10"/>
<feColorMatrix type="matrix" values="0 0 0 0 0 0 0 0 0 0 0 0 0 0 0 0 0 0 0.12 0"/>
<feBlend mode="normal" in2="effect1_dropShadow" result="effect2_dropShadow"/>
<feBlend mode="normal" in="SourceGraphic" in2="effect2_dropShadow" result="shape"/>
</filter>
<filter id="filter4_dd" x="0" y="14" width="224" height="224" filterUnits="userSpaceOnUse" color-interpolation-filters="sRGB">
<feFlood flood-opacity="0" result="BackgroundImageFix"/>
<feColorMatrix in="SourceAlpha" type="matrix" values="0 0 0 0 0 0 0 0 0 0 0 0 0 0 0 0 0 0 127 0"/>
<feOffset dy="1"/>
<feGaussianBlur stdDeviation="1"/>
<feColorMatrix type="matrix" values="0 0 0 0 0 0 0 0 0 0 0 0 0 0 0 0 0 0 0.12 0"/>
<feBlend mode="normal" in2="BackgroundImageFix" result="effect1_dropShadow"/>
<feColorMatrix in="SourceAlpha" type="matrix" values="0 0 0 0 0 0 0 0 0 0 0 0 0 0 0 0 0 0 127 0"/>
<feOffset dy="4"/>
<feGaussianBlur stdDeviation="10"/>
<feColorMatrix type="matrix" values="0 0 0 0 0 0 0 0 0 0 0 0 0 0 0 0 0 0 0.12 0"/>
<feBlend mode="normal" in2="effect1_dropShadow" result="effect2_dropShadow"/>
<feBlend mode="normal" in="SourceGraphic" in2="effect2_dropShadow" result="shape"/>
</filter>
<filter id="filter5_dd" x="863" y="14" width="224" height="224" filterUnits="userSpaceOnUse" color-interpolation-filters="sRGB">
<feFlood flood-opacity="0" result="BackgroundImageFix"/>
<feColorMatrix in="SourceAlpha" type="matrix" values="0 0 0 0 0 0 0 0 0 0 0 0 0 0 0 0 0 0 127 0"/>
<feOffset dy="1"/>
<feGaussianBlur stdDeviation="1"/>
<feColorMatrix type="matrix" values="0 0 0 0 0 0 0 0 0 0 0 0 0 0 0 0 0 0 0.12 0"/>
<feBlend mode="normal" in2="BackgroundImageFix" result="effect1_dropShadow"/>
<feColorMatrix in="SourceAlpha" type="matrix" values="0 0 0 0 0 0 0 0 0 0 0 0 0 0 0 0 0 0 127 0"/>
<feOffset dy="4"/>
<feGaussianBlur stdDeviation="10"/>
<feColorMatrix type="matrix" values="0 0 0 0 0 0 0 0 0 0 0 0 0 0 0 0 0 0 0.12 0"/>
<feBlend mode="normal" in2="effect1_dropShadow" result="effect2_dropShadow"/>
<feBlend mode="normal" in="SourceGraphic" in2="effect2_dropShadow" result="shape"/>
</filter>
</defs>
</svg>
