<svg width="399" height="200" viewBox="0 0 399 200" fill="none" xmlns="http://www.w3.org/2000/svg">
<g opacity="0.8" filter="url(#filter0_dd)">
<rect x="20" y="16" width="359" height="160" rx="40" fill="#1890FF"/>
</g>
<path d="M19 56C19 33.9086 36.9086 16 59 16H91V176H59C36.9086 176 19 158.091 19 136V56Z" fill="#1890FF"/>
<path d="M46.0487 107.296C51.8407 107.296 55.1687 102.56 55.1687 95.648C55.1687 88.736 51.8407 84 46.0487 84C40.2567 84 36.9287 88.736 36.9287 95.648C36.9287 102.56 40.2567 107.296 46.0487 107.296ZM46.0487 102.304C43.3607 102.304 42.0487 99.968 42.0487 95.648C42.0487 91.328 43.3607 88.992 46.0487 88.992C48.7367 88.992 50.0487 91.328 50.0487 95.648C50.0487 99.968 48.7367 102.304 46.0487 102.304Z" fill="white"/>
<path d="M65.949 91.52L70.813 84.448H64.925L58.077 94.848C57.245 96.096 56.765 97.664 56.765 99.392C56.765 104.032 60.125 107.296 65.085 107.296C70.013 107.296 73.405 104.032 73.405 99.392C73.405 95.04 70.397 91.872 65.949 91.52ZM65.085 102.496C63.357 102.496 61.885 101.376 61.885 99.392C61.885 97.408 63.357 96.288 65.085 96.288C66.781 96.288 68.285 97.44 68.285 99.392C68.285 101.344 66.781 102.496 65.085 102.496Z" fill="white"/>
<path d="M245.23 83.6894C245.134 83.5392 245.001 83.4157 244.844 83.3302C244.688 83.2446 244.512 83.1998 244.333 83.1998H233.067V77.0667C233.067 76.7838 232.954 76.5125 232.754 76.3124C232.554 76.1124 232.283 76 232 76H192.067C191.784 76 191.512 76.1124 191.312 76.3124C191.112 76.5125 191 76.7838 191 77.0667V110.933C191 111.216 191.112 111.487 191.312 111.687C191.512 111.887 191.784 112 192.067 112H199.629C199.88 113.49 200.651 114.844 201.805 115.82C202.959 116.796 204.422 117.332 205.933 117.332C207.445 117.332 208.908 116.796 210.062 115.82C211.216 114.844 211.987 113.49 212.237 112H235.896C236.147 113.49 236.918 114.844 238.072 115.82C239.226 116.796 240.688 117.332 242.2 117.332C243.712 117.332 245.174 116.796 246.328 115.82C247.482 114.844 248.253 113.49 248.504 112H253.933C254.216 112 254.488 111.887 254.688 111.687C254.888 111.487 255 111.216 255 110.933V99.1998C255 98.9951 254.941 98.7948 254.83 98.6227L245.23 83.6894ZM246.467 89.5571L251.293 97.0664H237.933V89.5998H246.467V89.5571ZM205.933 115.2C205.089 115.2 204.265 114.95 203.563 114.481C202.861 114.012 202.314 113.346 201.991 112.566C201.669 111.786 201.584 110.928 201.749 110.101C201.913 109.273 202.32 108.513 202.916 107.916C203.513 107.319 204.273 106.913 205.101 106.748C205.929 106.584 206.786 106.668 207.566 106.991C208.346 107.314 209.012 107.861 209.481 108.563C209.95 109.264 210.2 110.089 210.2 110.933C210.2 112.065 209.75 113.15 208.95 113.95C208.15 114.75 207.065 115.2 205.933 115.2ZM205.933 104.533C204.422 104.536 202.961 105.073 201.807 106.049C201.186 106.574 200.675 107.209 200.297 107.916C199 108 197.922 107.954 195 108V80H229V105.6V108C225 108 214 108 211.614 108C211.231 107.26 210.705 106.595 210.059 106.049C208.906 105.073 207.444 104.536 205.933 104.533ZM242.2 115.2C241.356 115.2 240.531 114.95 239.83 114.481C239.128 114.012 238.581 113.346 238.258 112.566C237.935 111.786 237.851 110.928 238.015 110.101C238.18 109.273 238.586 108.513 239.183 107.916C239.78 107.319 240.54 106.913 241.368 106.748C242.195 106.584 243.053 106.668 243.833 106.991C244.612 107.314 245.279 107.861 245.748 108.563C246.216 109.264 246.467 110.089 246.467 110.933C246.467 112.065 246.017 113.15 245.217 113.95C244.417 114.75 243.332 115.2 242.2 115.2ZM248.504 109.866C248.253 108.376 247.482 107.022 246.328 106.046C245.174 105.07 243.712 104.534 242.2 104.534C240.688 104.534 239.226 105.07 238.072 106.046C236.918 107.022 236.147 108.376 235.896 109.866H233.667V85.3331H243.751L245.123 87.4664H236.867C236.584 87.4664 236.312 87.5788 236.112 87.7789C235.912 87.9789 235.8 88.2502 235.8 88.5331V98.1331C235.8 98.416 235.912 98.6873 236.112 98.8874C236.312 99.0874 236.584 99.1998 236.867 99.1998H252.665L252.867 99.5134V105.6H249.667V107.733H252.867V109.866H248.504Z" fill="white"/>
<defs>
<filter id="filter0_dd" x="0" y="0" width="399" height="200" filterUnits="userSpaceOnUse" color-interpolation-filters="sRGB">
<feFlood flood-opacity="0" result="BackgroundImageFix"/>
<feColorMatrix in="SourceAlpha" type="matrix" values="0 0 0 0 0 0 0 0 0 0 0 0 0 0 0 0 0 0 127 0"/>
<feOffset dy="1"/>
<feGaussianBlur stdDeviation="1"/>
<feColorMatrix type="matrix" values="0 0 0 0 0 0 0 0 0 0 0 0 0 0 0 0 0 0 0.12 0"/>
<feBlend mode="normal" in2="BackgroundImageFix" result="effect1_dropShadow"/>
<feColorMatrix in="SourceAlpha" type="matrix" values="0 0 0 0 0 0 0 0 0 0 0 0 0 0 0 0 0 0 127 0"/>
<feOffset dy="4"/>
<feGaussianBlur stdDeviation="10"/>
<feColorMatrix type="matrix" values="0 0 0 0 0 0 0 0 0 0 0 0 0 0 0 0 0 0 0.12 0"/>
<feBlend mode="normal" in2="effect1_dropShadow" result="effect2_dropShadow"/>
<feBlend mode="normal" in="SourceGraphic" in2="effect2_dropShadow" result="shape"/>
</filter>
</defs>
</svg>
