<svg width="399" height="200" viewBox="0 0 399 200" fill="none" xmlns="http://www.w3.org/2000/svg">
<g opacity="0.8" filter="url(#filter0_dd)">
<rect x="20" y="16" width="359" height="160" rx="40" fill="#2E58DB"/>
</g>
<path d="M19 56C19 33.9086 36.9086 16 59 16H91V176H59C36.9086 176 19 158.091 19 136V56Z" fill="#2E58DB"/>
<path d="M47.4706 107.448C53.2626 107.448 56.5906 102.712 56.5906 95.7999C56.5906 88.8879 53.2626 84.1519 47.4706 84.1519C41.6786 84.1519 38.3506 88.8879 38.3506 95.7999C38.3506 102.712 41.6786 107.448 47.4706 107.448ZM47.4706 102.456C44.7826 102.456 43.4706 100.12 43.4706 95.7999C43.4706 91.4799 44.7826 89.1439 47.4706 89.1439C50.1586 89.1439 51.4706 91.4799 51.4706 95.7999C51.4706 100.12 50.1586 102.456 47.4706 102.456Z" fill="white"/>
<path d="M57.2418 84.5999V89.5279H66.2658L59.2258 107H64.6658L71.9618 88.8879V84.5999H57.2418Z" fill="white"/>
<path d="M219 89.5196C214.361 89.5196 210.6 94.2328 210.6 100.047C210.6 105.86 214.36 110.574 219 110.574C223.638 110.574 227.4 105.862 227.4 100.047C227.4 94.2328 223.639 89.5196 219 89.5196ZM223.2 104.975C223.2 105.678 222.857 106.063 222.187 106.063H216.299C215.629 106.063 215.287 105.678 215.287 104.975V104.138C215.287 103.436 215.629 103.051 216.299 103.051H217.623V99.3023C217.623 98.817 217.67 98.3151 217.67 98.3151H217.639C217.639 98.3151 217.483 98.566 217.39 98.6664C217 99.068 216.471 99.0848 216.019 98.566L215.536 97.9803C215.069 97.4783 215.1 96.9261 215.583 96.4408L217.483 94.5666C217.873 94.1817 218.215 94.0311 218.745 94.0311H219.804C220.474 94.0311 220.832 94.3992 220.832 95.1189V103.051H222.188C222.857 103.051 223.2 103.435 223.2 104.138V104.975H223.2ZM244.9 82H193.1C191.94 82 191 83.01 191 84.2559V115.744C191 116.99 191.94 118 193.1 118H244.9C246.06 118 247 116.99 247 115.744V84.2559C247 83.01 246.06 82 244.9 82ZM235.8 113.582H202.2C202.2 109.429 199.066 106.063 195.2 106.063V94.0313C199.066 94.0313 202.2 90.6647 202.2 86.5117H235.8C235.8 90.6647 238.934 94.0313 242.8 94.0313V106.063C238.934 106.063 235.8 109.429 235.8 113.582Z" fill="white"/>
<path d="M203 74C201.895 74 201 74.8954 201 76V78H251V108H253C254.105 108 255 107.105 255 106V76C255 74.8954 254.105 74 253 74H203Z" fill="white"/>
<defs>
<filter id="filter0_dd" x="0" y="0" width="399" height="200" filterUnits="userSpaceOnUse" color-interpolation-filters="sRGB">
<feFlood flood-opacity="0" result="BackgroundImageFix"/>
<feColorMatrix in="SourceAlpha" type="matrix" values="0 0 0 0 0 0 0 0 0 0 0 0 0 0 0 0 0 0 127 0"/>
<feOffset dy="1"/>
<feGaussianBlur stdDeviation="1"/>
<feColorMatrix type="matrix" values="0 0 0 0 0 0 0 0 0 0 0 0 0 0 0 0 0 0 0.12 0"/>
<feBlend mode="normal" in2="BackgroundImageFix" result="effect1_dropShadow"/>
<feColorMatrix in="SourceAlpha" type="matrix" values="0 0 0 0 0 0 0 0 0 0 0 0 0 0 0 0 0 0 127 0"/>
<feOffset dy="4"/>
<feGaussianBlur stdDeviation="10"/>
<feColorMatrix type="matrix" values="0 0 0 0 0 0 0 0 0 0 0 0 0 0 0 0 0 0 0.12 0"/>
<feBlend mode="normal" in2="effect1_dropShadow" result="effect2_dropShadow"/>
<feBlend mode="normal" in="SourceGraphic" in2="effect2_dropShadow" result="shape"/>
</filter>
</defs>
</svg>
