<svg width="399" height="200" viewBox="0 0 399 200" fill="none" xmlns="http://www.w3.org/2000/svg">
<g opacity="0.8" filter="url(#filter0_dd)">
<rect x="20" y="16" width="359" height="160" rx="40" fill="#2E58DB"/>
</g>
<path d="M19 56C19 33.9086 36.9086 16 59 16H91V176H59C36.9086 176 19 158.091 19 136V56Z" fill="#2E58DB"/>
<path d="M46.7831 107.448C52.5751 107.448 55.9031 102.712 55.9031 95.7999C55.9031 88.8879 52.5751 84.1519 46.7831 84.1519C40.9911 84.1519 37.6631 88.8879 37.6631 95.7999C37.6631 102.712 40.9911 107.448 46.7831 107.448ZM46.7831 102.456C44.0951 102.456 42.7831 100.12 42.7831 95.7999C42.7831 91.4799 44.0951 89.1439 46.7831 89.1439C49.4711 89.1439 50.7831 91.4799 50.7831 95.7999C50.7831 100.12 49.4711 102.456 46.7831 102.456Z" fill="white"/>
<path d="M56.9383 107H72.1703V102.072H64.6503L68.3623 98.3279C70.4103 96.2799 71.8503 93.9759 71.8503 91.2879C71.8503 86.7759 68.2663 84.1519 64.2663 84.1519C61.1623 84.1519 58.1543 85.7199 56.7143 89.0479L61.0343 91.5759C61.6423 90.1679 62.7623 89.1439 64.3303 89.1439C65.8343 89.1439 66.7303 90.1039 66.7303 91.5119C66.7303 92.8239 65.7703 94.1359 64.4583 95.4799L56.9383 103.288V107Z" fill="white"/>
<path d="M293.838 88.545L279.728 102.643L272.237 95.2304C271.509 94.5038 270.273 94.5038 269.545 95.2304C268.818 95.9571 268.818 97.1925 269.545 97.9191L278.346 106.712C278.71 107.075 279.219 107.293 279.655 107.293C280.092 107.293 280.601 107.075 280.964 106.712L296.456 91.2337C297.184 90.507 297.184 89.2717 296.456 88.545C295.802 87.8183 294.565 87.8183 293.838 88.545Z" fill="white"/>
<path fill-rule="evenodd" clip-rule="evenodd" d="M309.735 127.664L298.824 122.683C293.907 125.645 288.316 127.192 282.591 127.192C265.145 127.192 251 113.06 251 95.6299C251 78.1998 265.145 64 282.591 64C300.036 64 314.181 78.1998 314.181 95.5626C314.181 101.283 312.632 106.869 309.668 111.781L314.653 122.751C315.326 124.164 314.989 125.779 313.912 126.923C313.171 127.596 312.228 128 311.285 128C310.746 128 310.207 127.865 309.735 127.664ZM306.66 119.664L298.438 115.912L295.728 117.544C291.748 119.941 287.228 121.192 282.591 121.192C268.454 121.192 257 109.741 257 95.6299C257 81.5019 268.47 70 282.591 70C296.719 70 308.181 81.5102 308.181 95.5626C308.181 100.192 306.929 104.706 304.531 108.682L302.899 111.387L306.66 119.664Z" fill="white"/>
<path d="M155 64V128H219V64H155ZM159.571 68.5715H214.429V123.429H159.571V68.5715ZM164.143 73.1427V77.7142H168.714V73.1427H164.143ZM173.286 73.1427V96H200.714V73.1427H173.286ZM205.286 73.1427V77.7142H209.857V73.1427H205.286ZM177.857 77.7142H196.143V91.4285H177.857V77.7142ZM164.143 82.2858V86.8573H168.714V82.2858H164.143ZM205.286 82.2858V86.8573H209.857V82.2858H205.286ZM164.143 91.4285V96H168.714V91.4285H164.143ZM205.286 91.4285V96H209.857V91.4285H205.286ZM164.143 100.572V114.286H187V100.572H164.143ZM191.571 100.572V105.143H193.857V118.857H207.571V105.143H209.857V100.572H191.571ZM168.714 105.143H182.429V109.714H168.714V105.143ZM198.429 105.143H203V114.286H198.429V105.143Z" fill="white"/>
<path d="M293.838 88.545L279.728 102.643L272.237 95.2304C271.509 94.5038 270.273 94.5038 269.545 95.2304C268.818 95.9571 268.818 97.1925 269.545 97.9191L278.346 106.712C278.71 107.075 279.219 107.293 279.655 107.293C280.092 107.293 280.601 107.075 280.964 106.712L296.456 91.2337C297.184 90.507 297.184 89.2717 296.456 88.545C295.802 87.8183 294.565 87.8183 293.838 88.545Z" fill="white"/>
<path fill-rule="evenodd" clip-rule="evenodd" d="M309.735 127.664L298.824 122.683C293.907 125.645 288.316 127.192 282.591 127.192C265.145 127.192 251 113.06 251 95.6299C251 78.1998 265.145 64 282.591 64C300.036 64 314.181 78.1998 314.181 95.5626C314.181 101.283 312.632 106.869 309.668 111.781L314.653 122.751C315.326 124.164 314.989 125.779 313.912 126.923C313.171 127.596 312.228 128 311.285 128C310.746 128 310.207 127.865 309.735 127.664ZM306.66 119.664L298.438 115.912L295.728 117.544C291.748 119.941 287.228 121.192 282.591 121.192C268.454 121.192 257 109.741 257 95.6299C257 81.5019 268.47 70 282.591 70C296.719 70 308.181 81.5102 308.181 95.5626C308.181 100.192 306.929 104.706 304.531 108.682L302.899 111.387L306.66 119.664Z" fill="white"/>
<path d="M155 64V128H219V64H155ZM159.571 68.5715H214.429V123.429H159.571V68.5715ZM164.143 73.1427V77.7142H168.714V73.1427H164.143ZM173.286 73.1427V96H200.714V73.1427H173.286ZM205.286 73.1427V77.7142H209.857V73.1427H205.286ZM177.857 77.7142H196.143V91.4285H177.857V77.7142ZM164.143 82.2858V86.8573H168.714V82.2858H164.143ZM205.286 82.2858V86.8573H209.857V82.2858H205.286ZM164.143 91.4285V96H168.714V91.4285H164.143ZM205.286 91.4285V96H209.857V91.4285H205.286ZM164.143 100.572V114.286H187V100.572H164.143ZM191.571 100.572V105.143H193.857V118.857H207.571V105.143H209.857V100.572H191.571ZM168.714 105.143H182.429V109.714H168.714V105.143ZM198.429 105.143H203V114.286H198.429V105.143Z" fill="white"/>
<defs>
<filter id="filter0_dd" x="0" y="0" width="399" height="200" filterUnits="userSpaceOnUse" color-interpolation-filters="sRGB">
<feFlood flood-opacity="0" result="BackgroundImageFix"/>
<feColorMatrix in="SourceAlpha" type="matrix" values="0 0 0 0 0 0 0 0 0 0 0 0 0 0 0 0 0 0 127 0"/>
<feOffset dy="1"/>
<feGaussianBlur stdDeviation="1"/>
<feColorMatrix type="matrix" values="0 0 0 0 0 0 0 0 0 0 0 0 0 0 0 0 0 0 0.12 0"/>
<feBlend mode="normal" in2="BackgroundImageFix" result="effect1_dropShadow"/>
<feColorMatrix in="SourceAlpha" type="matrix" values="0 0 0 0 0 0 0 0 0 0 0 0 0 0 0 0 0 0 127 0"/>
<feOffset dy="4"/>
<feGaussianBlur stdDeviation="10"/>
<feColorMatrix type="matrix" values="0 0 0 0 0 0 0 0 0 0 0 0 0 0 0 0 0 0 0.12 0"/>
<feBlend mode="normal" in2="effect1_dropShadow" result="effect2_dropShadow"/>
<feBlend mode="normal" in="SourceGraphic" in2="effect2_dropShadow" result="shape"/>
</filter>
</defs>
</svg>
