<svg width="399" height="200" viewBox="0 0 399 200" fill="none" xmlns="http://www.w3.org/2000/svg">
<g opacity="0.8" filter="url(#filter0_dd)">
<rect x="20" y="16" width="359" height="160" rx="40" fill="#1890FF"/>
</g>
<path d="M19 56C19 33.9086 36.9086 16 59 16H91V176H59C36.9086 176 19 158.091 19 136V56Z" fill="#1890FF"/>
<path d="M48.8613 107.448C54.6533 107.448 57.9813 102.712 57.9813 95.8C57.9813 88.888 54.6533 84.152 48.8613 84.152C43.0693 84.152 39.7413 88.888 39.7413 95.8C39.7413 102.712 43.0693 107.448 48.8613 107.448ZM48.8613 102.456C46.1733 102.456 44.8613 100.12 44.8613 95.8C44.8613 91.48 46.1733 89.144 48.8613 89.144C51.5493 89.144 52.8613 91.48 52.8613 95.8C52.8613 100.12 51.5493 102.456 48.8613 102.456ZM64.4885 84.6L58.6325 86.712L59.8805 91.096L63.8485 90.008V107H68.9685V84.6H64.4885Z" fill="white"/>
<path d="M215.918 84.1456L211.995 70.1686C211.586 67.7982 209.461 66 207.009 66H161.073C158.621 66 156.577 67.7165 156.087 70.1686L152.163 84.1456C152.163 84.3091 152.082 84.4725 152.082 84.5543L152 92.3193C152 95.0983 153.962 97.387 156.659 97.9591V121.745C156.659 124.524 158.948 126.812 161.727 126.812H206.273C209.052 126.812 211.341 124.524 211.341 121.745V97.9591C214.038 97.387 216 95.0983 216 92.3193L215.918 84.5543C216 84.3908 215.918 84.2273 215.918 84.1456ZM206.273 123.461H161.727C160.828 123.461 160.01 122.725 160.01 121.745V98.0409H161.645C161.972 98.0409 162.299 98.0409 162.626 97.9591V117.413C162.626 118.066 163.116 118.557 163.77 118.557H204.066C204.72 118.557 205.211 118.066 205.211 117.413V97.9591C205.619 98.0409 206.028 98.1226 206.437 98.1226H207.99V121.826C207.99 122.725 207.254 123.461 206.273 123.461ZM164.914 97.1418C165.241 96.8965 165.568 96.6513 165.814 96.4061C166.876 97.4687 168.347 98.1226 169.982 98.1226H173.742C175.377 98.1226 176.848 97.4687 177.911 96.4061C178.973 97.4687 180.444 98.1226 182.079 98.1226H185.839C187.474 98.1226 188.945 97.4687 190.008 96.4061C191.07 97.4687 192.542 98.1226 194.176 98.1226H197.936C199.571 98.1226 201.042 97.4687 202.105 96.4061C202.35 96.6513 202.595 96.8148 202.84 96.9783V116.35H164.914V97.1418ZM210.197 94.7714H206.437C205.047 94.7714 203.985 93.7088 203.985 92.401C203.985 91.5019 203.249 90.6845 202.268 90.6845C201.287 90.6845 200.552 91.4202 200.552 92.401C200.552 93.7088 199.407 94.7714 198.1 94.7714H194.34C192.95 94.7714 191.888 93.7088 191.888 92.401C191.888 91.5019 191.152 90.6845 190.171 90.6845C189.19 90.6845 188.455 91.4202 188.455 92.401C188.455 93.7088 187.31 94.7714 186.003 94.7714H182.243C180.853 94.7714 179.791 93.7088 179.791 92.401C179.791 91.5019 179.055 90.6845 178.074 90.6845C177.093 90.6845 176.358 91.4202 176.358 92.401C176.358 93.7088 175.213 94.7714 173.905 94.7714H169.982C168.593 94.7714 167.53 93.7088 167.53 92.401C167.53 91.5019 166.794 90.6845 165.814 90.6845C164.833 90.6845 164.097 91.4202 164.097 92.401C164.097 93.7088 162.953 94.7714 161.645 94.7714H157.885C156.496 94.7714 155.433 93.7088 155.433 92.401L155.515 84.8812L159.356 70.986C159.356 70.9042 159.356 70.8225 159.356 70.8225C159.52 70.0051 160.174 69.433 160.991 69.433H206.927C207.745 69.433 208.48 70.0051 208.562 70.8225C208.562 70.9042 208.562 70.986 208.562 70.986L212.485 84.7995L212.567 92.3193C212.649 93.6271 211.586 94.7714 210.197 94.7714Z" fill="white"/>
<path d="M190.089 101.882C189.68 101.474 188.945 101.474 188.536 101.882C188.127 102.291 188.127 103.027 188.536 103.435L197.936 112.835C198.181 113.08 198.426 113.162 198.753 113.162C199.08 113.162 199.325 113.08 199.57 112.835C199.979 112.427 199.979 111.691 199.57 111.282L190.089 101.882Z" fill="white"/>
<path d="M189.19 107.195C188.781 106.787 188.045 106.787 187.637 107.195C187.228 107.604 187.228 108.34 187.637 108.748L191.723 112.835C191.969 113.08 192.214 113.162 192.541 113.162C192.868 113.162 193.113 113.08 193.358 112.835C193.767 112.427 193.767 111.691 193.358 111.282L189.19 107.195Z" fill="white"/>
<path d="M206.519 83.0012H161.155C160.501 83.0012 160.011 83.4916 160.011 84.1455C160.011 84.7994 160.501 85.2899 161.155 85.2899H206.437C207.091 85.2899 207.582 84.7994 207.582 84.1455C207.582 83.4916 207.091 83.0012 206.519 83.0012Z" fill="white"/>
<path d="M302.526 85.4737C305.053 84.0421 305.474 81.6842 305.474 80.4211C305.474 78.8211 304.884 75.4527 300 74.4421V71.1579C300 70.4842 299.41 69.8948 298.737 69.8948C298.063 69.8948 297.474 70.4842 297.474 71.1579V74.1053C297.221 74.1053 296.968 74.1053 296.716 74.1053H295.789V71.1579C295.789 70.4842 295.2 69.8948 294.526 69.8948C293.853 69.8948 293.263 70.4842 293.263 71.1579V74.1053H290.737C290.063 74.1053 289.474 74.6948 289.474 75.3685C289.474 76.0421 290.063 76.6316 290.737 76.6316H291.158V94.3158H290.737C290.063 94.3158 289.474 94.9053 289.474 95.579C289.474 96.2527 290.063 96.8421 290.737 96.8421H293.263V99.7895C293.263 100.463 293.853 101.053 294.526 101.053C295.2 101.053 295.789 100.463 295.789 99.7895V96.8421H296.716C296.968 96.8421 297.221 96.8421 297.474 96.8421V99.7895C297.474 100.463 298.063 101.053 298.737 101.053C299.41 101.053 300 100.463 300 99.7895V96.5053C304.884 95.4948 305.474 92.1264 305.474 90.5264C305.474 89.2632 305.053 86.9053 302.526 85.4737ZM296.716 76.6316C300.842 76.6316 302.947 77.8948 302.947 80.4211C302.947 82.9474 300.842 84.2106 296.716 84.2106H293.684V76.6316H296.716ZM296.716 94.3158H293.684V86.7369H296.716C300.842 86.7369 302.947 88 302.947 90.5264C302.947 93.0527 300.842 94.3158 296.716 94.3158Z" fill="white"/>
<path d="M307.747 118.905C306.232 118.568 304.295 118.232 302.105 118.063C308 110.653 318.947 95.4947 318.947 85.4737C318.947 73.6 309.347 64 297.474 64C285.6 64 276 73.6 276 85.4737C276 95.4947 286.947 110.653 292.842 118.063C290.737 118.232 288.716 118.484 287.2 118.821C285.853 119.158 282.316 120 282.316 122.947C282.316 126.063 286.442 126.905 288.042 127.242C290.568 127.747 293.937 128 297.474 128C301.011 128 304.379 127.747 306.905 127.242C308.505 126.905 312.632 126.063 312.632 122.947C312.632 120 308.926 119.158 307.747 118.905ZM297.474 66.5263C307.916 66.5263 316.421 75.0316 316.421 85.4737C316.421 96.4211 301.432 115.032 297.474 119.747C293.516 115.032 278.526 96.4211 278.526 85.4737C278.526 75.0316 287.032 66.5263 297.474 66.5263ZM297.474 125.474C290.484 125.474 284.842 124.379 284.842 122.947C284.842 121.768 289.137 120.758 294.779 120.505C295.705 121.684 296.379 122.358 296.463 122.526C296.716 122.779 297.053 122.947 297.389 122.947C297.726 122.947 298.063 122.779 298.316 122.526C298.484 122.358 299.074 121.684 300 120.505C305.811 120.758 310.105 121.768 310.105 122.947C310.105 124.379 304.463 125.474 297.474 125.474Z" fill="white"/>
<path fill-rule="evenodd" clip-rule="evenodd" d="M249.25 93.75C248.698 93.75 248.25 93.3023 248.25 92.75V85C248.25 84.4477 247.802 84 247.25 84H244.75C244.198 84 243.75 84.4477 243.75 85V92.75C243.75 93.3023 243.302 93.75 242.75 93.75H235C234.448 93.75 234 94.1977 234 94.75V97.25C234 97.8023 234.448 98.25 235 98.25H242.75C243.302 98.25 243.75 98.6977 243.75 99.25V107C243.75 107.552 244.198 108 244.75 108H247.25C247.802 108 248.25 107.552 248.25 107V99.25C248.25 98.6977 248.698 98.25 249.25 98.25H257C257.552 98.25 258 97.8023 258 97.25V94.75C258 94.1977 257.552 93.75 257 93.75H249.25Z" fill="white"/>
<defs>
<filter id="filter0_dd" x="0" y="0" width="399" height="200" filterUnits="userSpaceOnUse" color-interpolation-filters="sRGB">
<feFlood flood-opacity="0" result="BackgroundImageFix"/>
<feColorMatrix in="SourceAlpha" type="matrix" values="0 0 0 0 0 0 0 0 0 0 0 0 0 0 0 0 0 0 127 0"/>
<feOffset dy="1"/>
<feGaussianBlur stdDeviation="1"/>
<feColorMatrix type="matrix" values="0 0 0 0 0 0 0 0 0 0 0 0 0 0 0 0 0 0 0.12 0"/>
<feBlend mode="normal" in2="BackgroundImageFix" result="effect1_dropShadow"/>
<feColorMatrix in="SourceAlpha" type="matrix" values="0 0 0 0 0 0 0 0 0 0 0 0 0 0 0 0 0 0 127 0"/>
<feOffset dy="4"/>
<feGaussianBlur stdDeviation="10"/>
<feColorMatrix type="matrix" values="0 0 0 0 0 0 0 0 0 0 0 0 0 0 0 0 0 0 0.12 0"/>
<feBlend mode="normal" in2="effect1_dropShadow" result="effect2_dropShadow"/>
<feBlend mode="normal" in="SourceGraphic" in2="effect2_dropShadow" result="shape"/>
</filter>
</defs>
</svg>
