<svg width="399" height="200" viewBox="0 0 399 200" fill="none" xmlns="http://www.w3.org/2000/svg">
<g opacity="0.8" filter="url(#filter0_dd)">
<rect x="20" y="16" width="359" height="160" rx="40" fill="#0B3F9C"/>
</g>
<path d="M19 56C19 33.9086 36.9086 16 59 16H91V176H59C36.9086 176 19 158.091 19 136V56Z" fill="#0B3F9C"/>
<path d="M45.8143 107.296C51.6063 107.296 54.9343 102.56 54.9343 95.648C54.9343 88.736 51.6063 84 45.8143 84C40.0223 84 36.6943 88.736 36.6943 95.648C36.6943 102.56 40.0223 107.296 45.8143 107.296ZM45.8143 102.304C43.1263 102.304 41.8143 99.968 41.8143 95.648C41.8143 91.328 43.1263 88.992 45.8143 88.992C48.5023 88.992 49.8143 91.328 49.8143 95.648C49.8143 99.968 48.5023 102.304 45.8143 102.304Z" fill="white"/>
<path d="M70.3866 95.168C71.6986 94.144 72.5306 92.672 72.5306 90.656C72.5306 86.304 69.2026 84 65.0746 84C60.9466 84 57.6186 86.304 57.6186 90.656C57.6186 92.672 58.4506 94.144 59.7626 95.168C57.8746 96.384 56.8506 98.336 56.8506 100.544C56.8506 104.64 59.7946 107.296 65.0746 107.296C70.3546 107.296 73.2986 104.64 73.2986 100.544C73.2986 98.336 72.2746 96.384 70.3866 95.168ZM65.0746 88.8C66.5146 88.8 67.4106 89.728 67.4106 90.976C67.4106 92.224 66.5146 93.152 65.0746 93.152C63.6346 93.152 62.7386 92.224 62.7386 90.976C62.7386 89.728 63.6346 88.8 65.0746 88.8ZM65.0746 102.496C63.2826 102.496 61.9706 101.504 61.9706 99.808C61.9706 98.112 63.2826 97.12 65.0746 97.12C66.8666 97.12 68.1786 98.112 68.1786 99.808C68.1786 101.504 66.8666 102.496 65.0746 102.496Z" fill="white"/>
<path d="M250.684 90.7694C249.95 86.8828 248.429 83.2739 246.274 80.1234C247.671 78.0498 247.46 75.2074 245.628 73.3742C243.858 71.6032 240.935 71.3913 238.884 72.7315C235.732 70.5732 232.12 69.0487 228.23 68.3153C227.754 65.8617 225.592 64 223 64C220.407 64 218.246 65.8617 217.769 68.3153C213.879 69.0494 210.268 70.5718 207.117 72.7301C205.065 71.3906 202.14 71.6059 200.374 73.3749C198.54 75.2068 198.328 78.0504 199.727 80.1241C197.57 83.2739 196.049 86.8828 195.315 90.7701C192.862 91.2455 191 93.4072 191 95.9997C191 98.5921 192.862 100.754 195.315 101.23C196.049 105.119 197.57 108.727 199.727 111.879C198.328 113.953 198.542 116.797 200.375 118.629C201.381 119.637 202.721 120.19 204.144 120.19C205.224 120.19 206.253 119.869 207.127 119.277C210.276 121.431 213.885 122.951 217.769 123.685C218.246 126.138 220.407 128 223 128C225.592 128 227.754 126.138 228.23 123.685C232.116 122.951 235.724 121.431 238.873 119.277C239.747 119.869 240.777 120.19 241.855 120.19C243.28 120.19 244.619 119.638 245.628 118.629C247.46 116.797 247.672 113.951 246.273 111.878C248.429 108.728 249.95 105.117 250.684 101.23C253.138 100.754 254.999 98.5921 254.999 95.9997C254.999 93.4072 253.138 91.2455 250.684 90.7694ZM251.101 97.7354C250.705 98.0625 250.217 98.2846 249.665 98.2846C249.04 98.2846 248.474 98.03 248.06 97.6216C247.642 97.2072 247.381 96.6349 247.381 95.9997C247.381 95.3644 247.642 94.7928 248.06 94.3777C248.474 93.9687 249.04 93.7147 249.665 93.7147C250.217 93.7147 250.705 93.9362 251.101 94.2639C251.608 94.6825 251.95 95.2926 251.95 95.9997C251.95 96.7067 251.608 97.3169 251.101 97.7354ZM247.649 91.1548C246.172 91.7589 245.046 92.6135 244.58 94.6452H232.004C231.77 92.6135 231.227 91.895 230.443 90.7931L239.335 81.8619C240.104 82.2784 240.958 82.4985 241.856 82.4985C242.575 82.4985 243.27 82.3888 243.912 82.1206C245.705 84.8031 246.997 87.8811 247.649 91.1548ZM223 124.95C222.292 124.95 221.682 124.608 221.264 124.101C220.937 123.705 220.715 123.217 220.715 122.665C220.715 122.04 220.969 121.474 221.378 121.06C221.792 120.642 222.364 120.381 223 120.381C223.635 120.381 224.206 120.642 224.622 121.06C225.031 121.474 225.285 122.04 225.285 122.665C225.285 123.217 225.063 123.705 224.735 124.101C224.317 124.608 223.707 124.95 223 124.95ZM223 67.0489C223.707 67.0489 224.317 67.3909 224.735 67.8988C225.062 68.2943 225.285 68.7819 225.285 69.3338C225.285 69.9589 225.03 70.5258 224.622 70.9395C224.207 71.3574 223.635 71.6188 223 71.6188C222.364 71.6188 221.793 71.3574 221.378 70.9395C220.969 70.5258 220.715 69.9589 220.715 69.3338C220.715 68.7819 220.936 68.2943 221.264 67.8988C221.682 67.3909 222.292 67.0489 223 67.0489ZM229.094 95.9997C229.094 96.5286 229.005 97.0345 228.879 97.5241C228.734 98.076 228.516 98.5955 228.231 99.075C227.706 99.9662 226.968 100.705 226.078 101.231C225.595 101.516 225.077 101.734 224.524 101.879C224.032 102.005 223.529 102.094 223 102.094C222.471 102.094 221.967 102.005 221.475 101.879C220.923 101.734 220.404 101.516 219.923 101.231C219.032 100.706 218.294 99.9682 217.768 99.0763C217.484 98.5955 217.266 98.076 217.12 97.5241C216.994 97.0345 216.905 96.5286 216.905 95.9997C216.905 95.4707 216.995 94.9669 217.12 94.4773C217.266 93.9233 217.484 93.4038 217.768 92.921C218.294 92.0318 219.032 91.2943 219.924 90.7681C220.404 90.4836 220.923 90.2656 221.475 90.12C221.967 89.994 222.471 89.9053 223 89.9053C223.529 89.9053 224.032 89.9947 224.524 90.12C225.076 90.2656 225.595 90.4836 226.076 90.7681C226.968 91.2936 227.705 92.0311 228.231 92.923C228.516 93.4039 228.734 93.9233 228.879 94.4773C229.005 94.9669 229.094 95.4707 229.094 95.9997ZM241.634 74.904C241.711 74.8959 241.779 74.86 241.858 74.86C242.467 74.86 243.042 75.0984 243.472 75.5298C243.977 76.0336 244.164 76.7095 244.097 77.3698C244.048 77.8757 243.86 78.3748 243.472 78.7622C243.035 79.199 242.437 79.4103 241.839 79.4069C241.254 79.4035 240.668 79.1902 240.242 78.7622C239.796 78.3159 239.573 77.7287 239.574 77.1416C239.574 76.5578 239.796 75.9741 240.242 75.5311C240.617 75.1539 241.111 74.9569 241.634 74.904ZM237.182 79.6609L228.204 88.5563C227.104 87.7727 226.386 87.2289 224.354 86.9952V74.4185C226.386 73.9532 227.24 72.827 227.845 71.3499C231.122 72.0048 234.214 73.2956 236.899 75.0909C236.284 76.5626 236.422 78.2434 237.182 79.6609ZM217.816 71.3499C218.42 72.827 219.614 73.9532 220.968 74.4185V86.9952C219.614 87.2289 218.558 87.772 217.459 88.5563L208.689 79.6609C209.453 78.2434 209.484 76.5626 208.869 75.0909C211.554 73.2956 214.538 72.0041 217.816 71.3499ZM202.528 75.5291C202.961 75.097 203.533 74.8593 204.145 74.8593C204.223 74.8593 204.291 74.8959 204.366 74.902C204.889 74.9548 205.383 75.1519 205.76 75.5291C206.205 75.9734 206.427 76.7122 206.428 77.296C206.429 77.8818 206.208 78.3918 205.764 79.069H205.762C205.759 79.069 205.758 78.9166 205.758 78.9186C205.331 79.3433 204.746 79.4774 204.161 79.4828C203.563 79.4868 202.964 79.2369 202.528 78.8001C202.141 78.4134 201.952 77.894 201.903 77.3847C201.838 76.7271 202.025 76.0323 202.528 75.5291ZM202.088 82.0684C202.73 82.3366 203.427 82.4781 204.144 82.4781C205.044 82.4781 205.897 82.2337 206.666 81.8185L215.556 90.7931C214.773 91.895 214.229 92.6135 213.995 94.6452H201.42C200.954 92.6135 199.827 91.7589 198.35 91.1548C199.002 87.8811 200.294 84.7502 202.088 82.0684ZM194.049 95.9997C194.049 95.292 194.391 94.6825 194.899 94.2639C195.294 93.9368 195.782 93.7147 196.334 93.7147C196.959 93.7147 197.526 93.9693 197.94 94.3777C198.357 94.7922 198.619 95.3644 198.619 95.9997C198.619 96.6349 198.357 97.2065 197.94 97.6216C197.526 98.0307 196.959 98.2846 196.334 98.2846C195.782 98.2846 195.294 98.0632 194.899 97.7354C194.391 97.3169 194.049 96.7074 194.049 95.9997ZM198.35 101.183C199.827 100.579 200.953 99.3858 201.418 98.0313H213.995C214.23 99.3858 214.772 100.443 215.556 101.543L206.649 110.323C205.25 109.605 203.562 109.575 202.104 110.15C200.302 107.462 199.006 104.469 198.35 101.183ZM204.353 117.084C203.691 117.14 203.013 116.958 202.53 116.474C202.025 115.97 201.84 115.292 201.904 114.634C201.956 114.128 202.141 113.807 202.53 113.42C202.961 112.99 203.533 112.93 204.141 112.93C204.143 112.93 204.144 112.93 204.146 112.93C204.756 112.93 205.331 112.989 205.762 113.421C206.208 113.868 206.429 114.363 206.429 114.951C206.429 115.533 206.206 116.073 205.762 116.517C205.382 116.898 204.872 117.037 204.353 117.084ZM208.817 112.336L217.457 103.443C218.556 104.227 219.614 104.77 220.968 105.004V117.581C219.614 118.046 218.42 119.172 217.816 120.649C214.538 119.997 211.62 118.704 208.938 116.908C209.549 115.437 209.581 113.756 208.817 112.336ZM227.845 120.649C227.24 119.172 226.386 118.046 224.354 117.581V105.004C226.386 104.769 227.104 104.227 228.206 103.443L237.141 112.335C236.724 113.104 236.501 113.958 236.501 114.856C236.501 115.575 236.611 116.27 236.881 116.912C234.196 118.705 231.118 119.997 227.845 120.649ZM243.472 116.472C242.989 116.954 242.309 117.137 241.65 117.08C241.128 117.036 240.8 116.851 240.419 116.472C239.989 116.042 239.93 115.47 239.93 114.86C239.93 114.858 239.93 114.858 239.93 114.856C239.93 114.247 239.989 113.853 240.419 113.421C240.851 112.989 241.245 112.93 241.855 112.93C241.856 112.93 241.858 112.93 241.858 112.93C242.467 112.93 243.04 112.989 243.472 113.421C243.859 113.809 244.046 114.217 244.097 114.723C244.162 115.381 243.975 115.969 243.472 116.472ZM243.895 109.959C242.437 109.384 240.748 109.478 239.351 110.196L230.443 101.541C231.227 100.442 231.769 99.3858 232.004 98.0313H244.581C245.046 99.3858 246.172 100.579 247.649 101.183C246.994 104.469 245.698 107.269 243.895 109.959Z" fill="white"/>
<defs>
<filter id="filter0_dd" x="0" y="0" width="399" height="200" filterUnits="userSpaceOnUse" color-interpolation-filters="sRGB">
<feFlood flood-opacity="0" result="BackgroundImageFix"/>
<feColorMatrix in="SourceAlpha" type="matrix" values="0 0 0 0 0 0 0 0 0 0 0 0 0 0 0 0 0 0 127 0"/>
<feOffset dy="1"/>
<feGaussianBlur stdDeviation="1"/>
<feColorMatrix type="matrix" values="0 0 0 0 0 0 0 0 0 0 0 0 0 0 0 0 0 0 0.12 0"/>
<feBlend mode="normal" in2="BackgroundImageFix" result="effect1_dropShadow"/>
<feColorMatrix in="SourceAlpha" type="matrix" values="0 0 0 0 0 0 0 0 0 0 0 0 0 0 0 0 0 0 127 0"/>
<feOffset dy="4"/>
<feGaussianBlur stdDeviation="10"/>
<feColorMatrix type="matrix" values="0 0 0 0 0 0 0 0 0 0 0 0 0 0 0 0 0 0 0.12 0"/>
<feBlend mode="normal" in2="effect1_dropShadow" result="effect2_dropShadow"/>
<feBlend mode="normal" in="SourceGraphic" in2="effect2_dropShadow" result="shape"/>
</filter>
</defs>
</svg>
