<svg width="399" height="200" viewBox="0 0 399 200" fill="none" xmlns="http://www.w3.org/2000/svg">
<g opacity="0.8" filter="url(#filter0_dd)">
<rect x="20" y="16" width="359" height="160" rx="40" fill="#0B3F9C"/>
</g>
<path d="M19 56C19 33.9086 36.9086 16 59 16H91V176H59C36.9086 176 19 158.091 19 136V56Z" fill="#0B3F9C"/>
<path d="M46.6893 107.448C52.4813 107.448 55.8093 102.712 55.8093 95.7999C55.8093 88.8879 52.4813 84.1519 46.6893 84.1519C40.8973 84.1519 37.5693 88.8879 37.5693 95.7999C37.5693 102.712 40.8973 107.448 46.6893 107.448ZM46.6893 102.456C44.0013 102.456 42.6893 100.12 42.6893 95.7999C42.6893 91.4799 44.0013 89.1439 46.6893 89.1439C49.3773 89.1439 50.6893 91.4799 50.6893 95.7999C50.6893 100.12 49.3773 102.456 46.6893 102.456Z" fill="white"/>
<path d="M67.6688 93.6879L71.5408 88.7599V84.5999H57.1408V89.3999H65.3328L61.2688 94.5519L63.2208 97.4639H64.2768C66.3888 97.4639 67.3168 98.5839 67.3168 99.9599C67.3168 101.336 66.3888 102.456 64.2768 102.456C62.3248 102.456 61.3648 101.56 60.8528 100.088L56.4368 102.648C57.8128 105.944 60.8848 107.448 64.2768 107.448C68.5968 107.448 72.4368 104.888 72.4368 99.9599C72.4368 96.8559 70.4208 94.6479 67.6688 93.6879Z" fill="white"/>
<path d="M231.995 104.9V109.1H229.295C228.395 109.1 227.595 109.9 227.595 110.8V126.3C227.595 127.2 228.395 128 229.295 128H253.295C254.195 128 254.995 127.2 254.995 126.3V110.8C254.995 109.9 254.195 109.1 253.295 109.1H250.595V104.9C250.595 99.7999 246.395 95.5999 241.295 95.5999C236.195 95.5999 231.995 99.7999 231.995 104.9ZM251.595 112.6V124.7H230.995V112.6H251.595ZM247.195 104.9V109.1H235.395V104.9C235.395 101.7 237.995 98.9999 241.295 98.9999C244.495 98.9999 247.195 101.7 247.195 104.9ZM232.895 81.3998H239.595V90.8999C239.595 91.7999 240.395 92.5999 241.295 92.5999C242.195 92.5999 242.995 91.7999 242.995 90.8999V79.6998C242.995 79.5998 242.995 79.4998 242.995 79.2998C242.995 79.1998 242.895 78.9998 242.795 78.8998V78.7998C242.695 78.6998 242.595 78.4998 242.495 78.3998L228.095 64.4997C227.995 64.3997 227.895 64.2997 227.795 64.2997H227.695C227.595 64.1997 227.395 64.1997 227.295 64.1997C227.295 64.1997 227.295 64.1997 227.195 64.1997C227.095 64.1997 226.995 64.1997 226.895 64.1997H200.495C196.195 64.1997 192.795 67.6997 192.795 71.8997V119.7C192.795 124 196.295 127.4 200.495 127.4H222.695C223.595 127.4 224.395 126.6 224.395 125.7C224.395 124.8 223.595 124 222.695 124H200.495C198.095 124 196.195 122.1 196.195 119.7V71.8997C196.195 69.4997 198.095 67.5997 200.495 67.5997H225.195V73.6998C225.195 77.8998 228.595 81.3998 232.895 81.3998ZM228.595 69.8997L236.995 77.9998H232.895C230.495 77.9998 228.595 76.0998 228.595 73.6998V69.8997Z" fill="white"/>
<defs>
<filter id="filter0_dd" x="0" y="0" width="399" height="200" filterUnits="userSpaceOnUse" color-interpolation-filters="sRGB">
<feFlood flood-opacity="0" result="BackgroundImageFix"/>
<feColorMatrix in="SourceAlpha" type="matrix" values="0 0 0 0 0 0 0 0 0 0 0 0 0 0 0 0 0 0 127 0"/>
<feOffset dy="1"/>
<feGaussianBlur stdDeviation="1"/>
<feColorMatrix type="matrix" values="0 0 0 0 0 0 0 0 0 0 0 0 0 0 0 0 0 0 0.12 0"/>
<feBlend mode="normal" in2="BackgroundImageFix" result="effect1_dropShadow"/>
<feColorMatrix in="SourceAlpha" type="matrix" values="0 0 0 0 0 0 0 0 0 0 0 0 0 0 0 0 0 0 127 0"/>
<feOffset dy="4"/>
<feGaussianBlur stdDeviation="10"/>
<feColorMatrix type="matrix" values="0 0 0 0 0 0 0 0 0 0 0 0 0 0 0 0 0 0 0.12 0"/>
<feBlend mode="normal" in2="effect1_dropShadow" result="effect2_dropShadow"/>
<feBlend mode="normal" in="SourceGraphic" in2="effect2_dropShadow" result="shape"/>
</filter>
</defs>
</svg>
