<svg width="131" height="107" viewBox="0 0 131 107" fill="none" xmlns="http://www.w3.org/2000/svg">
<g clip-path="url(#clip0)">
<path opacity="0.1" d="M128.123 106.601C129.23 105.492 127.949 102.413 125.261 99.7224C122.574 97.0319 119.498 95.7492 118.391 96.8575C117.284 97.9657 118.565 101.045 121.252 103.736C123.94 106.426 127.016 107.709 128.123 106.601Z" fill="#1990F2"/>
<path d="M123.744 102.179C124.584 102.179 125.265 101.286 125.265 100.184C125.265 99.0827 124.584 98.1897 123.744 98.1897C122.903 98.1897 122.222 99.0827 122.222 100.184C122.222 101.286 122.903 102.179 123.744 102.179Z" fill="#3F3D56"/>
<path d="M123.744 99.7414C124.584 99.7414 125.265 98.8484 125.265 97.7468C125.265 96.6452 124.584 95.7522 123.744 95.7522C122.903 95.7522 122.222 96.6452 122.222 97.7468C122.222 98.8484 122.903 99.7414 123.744 99.7414Z" fill="#3F3D56"/>
<path d="M123.744 97.3038C124.584 97.3038 125.265 96.4108 125.265 95.3092C125.265 94.2076 124.584 93.3146 123.744 93.3146C122.903 93.3146 122.222 94.2076 122.222 95.3092C122.222 96.4108 122.903 97.3038 123.744 97.3038Z" fill="#3F3D56"/>
<path d="M123.744 94.8663C124.584 94.8663 125.265 93.9733 125.265 92.8717C125.265 91.7701 124.584 90.8771 123.744 90.8771C122.903 90.8771 122.222 91.7701 122.222 92.8717C122.222 93.9733 122.903 94.8663 123.744 94.8663Z" fill="#3F3D56"/>
<path d="M123.744 92.4288C124.584 92.4288 125.265 91.5358 125.265 90.4342C125.265 89.3326 124.584 88.4396 123.744 88.4396C122.903 88.4396 122.222 89.3326 122.222 90.4342C122.222 91.5358 122.903 92.4288 123.744 92.4288Z" fill="#3F3D56"/>
<path d="M123.744 89.9912C124.584 89.9912 125.265 89.0982 125.265 87.9966C125.265 86.895 124.584 86.002 123.744 86.002C122.903 86.002 122.222 86.895 122.222 87.9966C122.222 89.0982 122.903 89.9912 123.744 89.9912Z" fill="#3F3D56"/>
<path d="M123.744 87.5536C124.584 87.5536 125.265 86.6606 125.265 85.5591C125.265 84.4575 124.584 83.5645 123.744 83.5645C122.903 83.5645 122.222 84.4575 122.222 85.5591C122.222 86.6606 122.903 87.5536 123.744 87.5536Z" fill="#3F3D56"/>
<path d="M129.44 68.8783C129.649 68.6135 129.838 68.3346 130.008 68.0435L126.009 67.3862L130.334 67.4174C130.749 66.5139 130.975 65.5351 131 64.541C131.024 63.5468 130.846 62.5581 130.476 61.6352L124.674 64.6491L130.022 60.711C129.521 59.843 128.847 59.0876 128.041 58.4918C127.236 57.8961 126.317 57.4729 125.341 57.2486C124.365 57.0242 123.353 57.0036 122.369 57.1879C121.384 57.3722 120.449 57.7576 119.62 58.32C118.791 58.8823 118.086 59.6096 117.55 60.4565C117.015 61.3034 116.659 62.2517 116.505 63.2423C116.352 64.2329 116.404 65.2446 116.658 66.2143C116.912 67.1839 117.363 68.0908 117.982 68.8783C117.658 69.2903 117.38 69.7363 117.151 70.2085L122.342 72.9058L116.811 71.046C116.423 72.1961 116.327 73.4249 116.532 74.6214C116.737 75.8178 117.237 76.9442 117.987 77.8987C117.141 78.975 116.615 80.2678 116.469 81.6294C116.322 82.9909 116.562 84.3662 117.159 85.598C117.757 86.8298 118.689 87.8683 119.848 88.5949C121.008 89.3216 122.348 89.7069 123.716 89.7069C125.084 89.7069 126.424 89.3216 127.583 88.5949C128.743 87.8683 129.674 86.8298 130.272 85.598C130.87 84.3662 131.109 82.9909 130.963 81.6294C130.816 80.2678 130.29 78.975 129.445 77.8987C130.455 76.6124 131.004 75.0235 131.004 73.387C131.004 71.7506 130.455 70.1617 129.445 68.8754L129.44 68.8783Z" fill="#1990F2"/>
<path opacity="0.1" d="M116.422 73.3899C116.42 75.0268 116.969 76.6166 117.982 77.9015C117.137 78.9778 116.611 80.2707 116.464 81.6322C116.318 82.9938 116.557 84.369 117.155 85.6008C117.752 86.8326 118.684 87.8712 119.844 88.5978C121.003 89.3244 122.343 89.7097 123.711 89.7097C125.079 89.7097 126.419 89.3244 127.579 88.5978C128.738 87.8712 129.67 86.8326 130.268 85.6008C130.865 84.369 131.104 82.9938 130.958 81.6322C130.812 80.2707 130.286 78.9778 129.44 77.9015C130.417 76.6607 116.422 72.5707 116.422 73.3899Z" fill="black"/>
<path d="M120.105 0V102.214L85.5047 97.3876L43.4437 105.978L43.1048 106.047L9.63867 96.8197V7.95001L44.381 0L82.3849 7.95001L83.8299 7.64478L120.105 0Z" fill="#444053"/>
<path d="M114.291 5.58203V97.0369L83.3335 92.7184L45.6998 100.404L45.3963 100.465L15.4526 92.2102V12.6944L46.5393 5.58203L80.5414 12.6944L81.8347 12.4219L114.291 5.58203Z" fill="white"/>
<path opacity="0.1" d="M85.5048 97.3876L43.4438 105.978L44.3812 0L82.3851 7.95001L83.8301 7.64478L85.5048 97.3876Z" fill="black"/>
<g opacity="0.3">
<path opacity="0.3" d="M81.3042 19.5911L81.3212 49.3326H93.6583V37.1237H114.787L117.269 33.938" stroke="#444053" stroke-width="3" stroke-miterlimit="10"/>
<path opacity="0.3" d="M12.6162 29.0317H58.4903L61.3264 27.754H62.4609V56.4308H82.3137L83.1645 58.9862V71.905H98.4795V87.876" stroke="#444053" stroke-width="3" stroke-miterlimit="10"/>
<path opacity="0.3" d="M68.5205 87.876V56.4309" stroke="#444053" stroke-width="3" stroke-miterlimit="10"/>
<path opacity="0.3" d="M117.269 79.4518H68.5205" stroke="#444053" stroke-width="3" stroke-miterlimit="10"/>
<path opacity="0.3" d="M105.06 19.5911V87.8759" stroke="#444053" stroke-width="3" stroke-miterlimit="10"/>
<path opacity="0.3" d="M12.4746 73.4154H117.269" stroke="#444053" stroke-width="3" stroke-miterlimit="10"/>
<path opacity="0.3" d="M25.2285 87.8759V19.5911" stroke="#444053" stroke-width="3" stroke-miterlimit="10"/>
<path opacity="0.3" d="M49.5879 19.5911V87.8759" stroke="#444053" stroke-width="3" stroke-miterlimit="10"/>
<path opacity="0.3" d="M12.6162 36.8397L93.6581 37.1233" stroke="#444053" stroke-width="3" stroke-miterlimit="10"/>
<path opacity="0.3" d="M36.2031 19.7144V87.8757" stroke="#444053" stroke-width="3" stroke-miterlimit="10"/>
<path opacity="0.3" d="M12.4746 52.6432H49.588L68.5204 73.4154" stroke="#444053" stroke-width="3" stroke-miterlimit="10"/>
<path opacity="0.3" d="M72.6216 19.5911V56.4308" stroke="#444053" stroke-width="3" stroke-miterlimit="10"/>
<path opacity="0.3" d="M68.5205 63.0293H117.269" stroke="#444053" stroke-width="3" stroke-miterlimit="10"/>
</g>
<path d="M83.0938 62.7483H68.7715V56.5019L82.3139 56.4309L83.1647 58.8443L83.0938 62.7483Z" fill="#1990F2"/>
<path d="M76.0036 30.3804C73.9245 30.3804 71.9306 31.2072 70.4605 32.6789C68.9904 34.1507 68.1646 36.1468 68.1646 38.2282C68.1646 42.5623 76.0036 56.6438 76.0036 56.6438C76.0036 56.6438 83.8426 42.568 83.8426 38.2282C83.8426 36.1468 83.0167 34.1507 81.5466 32.6789C80.0765 31.2072 78.0826 30.3804 76.0036 30.3804ZM76.0036 41.5757C75.3215 41.5757 74.6547 41.3732 74.0876 40.9938C73.5204 40.6144 73.0784 40.0752 72.8174 39.4443C72.5563 38.8135 72.488 38.1193 72.6211 37.4495C72.7542 36.7798 73.0826 36.1646 73.565 35.6818C74.0473 35.1989 74.6618 34.8701 75.3307 34.7369C75.9997 34.6037 76.6932 34.672 77.3233 34.9333C77.9535 35.1947 78.4921 35.6372 78.8711 36.205C79.25 36.7727 79.4523 37.4403 79.4523 38.1231C79.4519 39.0385 79.0884 39.9163 78.4417 40.5635C77.795 41.2107 76.918 41.5743 76.0036 41.5743V41.5757Z" fill="#1990F2"/>
<path opacity="0.1" d="M76.0036 30.3804C73.9245 30.3804 71.9306 31.2072 70.4605 32.6789C68.9904 34.1507 68.1646 36.1468 68.1646 38.2282C68.1646 42.5623 76.0036 56.6438 76.0036 56.6438C76.0036 56.6438 83.8426 42.568 83.8426 38.2282C83.8426 36.1468 83.0167 34.1507 81.5466 32.6789C80.0765 31.2072 78.0826 30.3804 76.0036 30.3804ZM76.0036 41.5757C75.3215 41.5757 74.6547 41.3732 74.0876 40.9938C73.5204 40.6144 73.0784 40.0752 72.8174 39.4443C72.5563 38.8135 72.488 38.1193 72.6211 37.4495C72.7542 36.7798 73.0826 36.1646 73.565 35.6818C74.0473 35.1989 74.6618 34.8701 75.3307 34.7369C75.9997 34.6037 76.6932 34.672 77.3233 34.9333C77.9535 35.1947 78.4921 35.6372 78.8711 36.205C79.25 36.7727 79.4523 37.4403 79.4523 38.1231C79.4519 39.0385 79.0884 39.9163 78.4417 40.5635C77.795 41.2107 76.918 41.5743 76.0036 41.5743V41.5757Z" fill="black"/>
<path d="M76.0036 31.5161C73.9245 31.5161 71.9306 32.3429 70.4605 33.8147C68.9904 35.2864 68.1646 37.2825 68.1646 39.3639C68.1646 43.6981 76.0036 57.7795 76.0036 57.7795C76.0036 57.7795 83.8426 43.7038 83.8426 39.3639C83.8426 37.2825 83.0167 35.2864 81.5466 33.8147C80.0765 32.3429 78.0826 31.5161 76.0036 31.5161ZM76.0036 42.7114C75.3215 42.7114 74.6547 42.5089 74.0876 42.1296C73.5204 41.7502 73.0784 41.211 72.8174 40.5801C72.5563 39.9492 72.488 39.255 72.6211 38.5853C72.7542 37.9156 73.0826 37.3004 73.565 36.8175C74.0473 36.3347 74.6618 36.0058 75.3307 35.8726C75.9997 35.7394 76.6932 35.8078 77.3233 36.0691C77.9535 36.3304 78.4921 36.7729 78.8711 37.3407C79.25 37.9085 79.4523 38.576 79.4523 39.2589C79.4519 40.1743 79.0884 41.0521 78.4417 41.6993C77.795 42.3465 76.918 42.71 76.0036 42.71V42.7114Z" fill="#1990F2"/>
<path opacity="0.1" d="M73.3467 105.916C75.7528 104.879 77.3572 103.233 76.9304 102.241C76.5035 101.249 74.2069 101.285 71.8009 102.323C69.3948 103.36 67.7904 105.005 68.2173 105.998C68.6441 106.99 70.9407 106.953 73.3467 105.916Z" fill="#1990F2"/>
<path d="M72.5173 104.72C73.0967 104.72 73.5664 104.105 73.5664 103.346C73.5664 102.587 73.0967 101.972 72.5173 101.972C71.9379 101.972 71.4683 102.587 71.4683 103.346C71.4683 104.105 71.9379 104.72 72.5173 104.72Z" fill="#3F3D56"/>
<path d="M72.5173 103.039C73.0967 103.039 73.5664 102.424 73.5664 101.665C73.5664 100.906 73.0967 100.291 72.5173 100.291C71.9379 100.291 71.4683 100.906 71.4683 101.665C71.4683 102.424 71.9379 103.039 72.5173 103.039Z" fill="#3F3D56"/>
<path d="M72.5173 101.36C73.0967 101.36 73.5664 100.745 73.5664 99.9856C73.5664 99.2266 73.0967 98.6113 72.5173 98.6113C71.9379 98.6113 71.4683 99.2266 71.4683 99.9856C71.4683 100.745 71.9379 101.36 72.5173 101.36Z" fill="#3F3D56"/>
<path d="M72.5173 99.6803C73.0967 99.6803 73.5664 99.0651 73.5664 98.3061C73.5664 97.5471 73.0967 96.9319 72.5173 96.9319C71.9379 96.9319 71.4683 97.5471 71.4683 98.3061C71.4683 99.0651 71.9379 99.6803 72.5173 99.6803Z" fill="#3F3D56"/>
<path d="M72.5173 97.9994C73.0967 97.9994 73.5664 97.3841 73.5664 96.6252C73.5664 95.8662 73.0967 95.251 72.5173 95.251C71.9379 95.251 71.4683 95.8662 71.4683 96.6252C71.4683 97.3841 71.9379 97.9994 72.5173 97.9994Z" fill="#3F3D56"/>
<path d="M72.5173 96.32C73.0967 96.32 73.5664 95.7047 73.5664 94.9458C73.5664 94.1868 73.0967 93.5715 72.5173 93.5715C71.9379 93.5715 71.4683 94.1868 71.4683 94.9458C71.4683 95.7047 71.9379 96.32 72.5173 96.32Z" fill="#3F3D56"/>
<path d="M72.5173 94.6405C73.0967 94.6405 73.5664 94.0253 73.5664 93.2663C73.5664 92.5073 73.0967 91.8921 72.5173 91.8921C71.9379 91.8921 71.4683 92.5073 71.4683 93.2663C71.4683 94.0253 71.9379 94.6405 72.5173 94.6405Z" fill="#3F3D56"/>
<path d="M68.5912 81.7687C68.4482 81.5885 68.3174 81.3987 68.1998 81.2009L70.9565 80.7466L67.9786 80.7693C67.6931 80.1465 67.5372 79.4719 67.5207 78.7868C67.5041 78.1016 67.6271 77.4203 67.8822 76.7844L71.8811 78.8542L68.1942 76.1398C68.5395 75.5418 69.0041 75.0214 69.5592 74.611C70.1142 74.2006 70.7478 73.9091 71.4203 73.7546C72.0928 73.6001 72.7899 73.586 73.4681 73.713C74.1464 73.8401 74.7912 74.1057 75.3624 74.4932C75.9336 74.8807 76.4189 75.3819 76.7882 75.9654C77.1574 76.549 77.4026 77.2024 77.5085 77.885C77.6144 78.5676 77.5788 79.2647 77.4037 79.9329C77.2287 80.6011 76.9181 81.226 76.4912 81.7687C76.7124 82.0533 76.9026 82.3607 77.0584 82.6858L73.4835 84.547L77.2981 83.2693C77.5659 84.0619 77.6322 84.9089 77.4908 85.7335C77.3494 86.5582 77.0049 87.3346 76.4883 87.9924C77.0714 88.7343 77.4341 89.6255 77.5351 90.564C77.636 91.5026 77.4711 92.4506 77.0592 93.2998C76.6473 94.1489 76.005 94.8649 75.2058 95.3658C74.4066 95.8667 73.4827 96.1323 72.5398 96.1323C71.5969 96.1323 70.673 95.8667 69.8738 95.3658C69.0746 94.8649 68.4323 94.1489 68.0204 93.2998C67.6085 92.4506 67.4436 91.5026 67.5445 90.564C67.6455 89.6255 68.0082 88.7343 68.5912 87.9924C67.8949 87.1058 67.5163 86.0106 67.5163 84.8827C67.5163 83.7548 67.8949 82.6596 68.5912 81.773V81.7687Z" fill="#1990F2"/>
<path opacity="0.1" d="M77.5632 84.8734C77.5652 86.0018 77.1864 87.0978 76.4884 87.9838C77.0714 88.7257 77.4341 89.6169 77.5351 90.5554C77.636 91.494 77.4711 92.442 77.0592 93.2912C76.6473 94.1403 76.005 94.8563 75.2058 95.3572C74.4066 95.8581 73.4827 96.1237 72.5398 96.1237C71.5969 96.1237 70.673 95.8581 69.8738 95.3572C69.0746 94.8563 68.4323 94.1403 68.0204 93.2912C67.6085 92.442 67.4436 91.494 67.5445 90.5554C67.6455 89.6169 68.0082 88.7257 68.5912 87.9838C67.9176 87.132 77.5632 84.3141 77.5632 84.8734Z" fill="black"/>
<path opacity="0.1" d="M11.6985 103.478C12.8053 102.37 11.5243 99.2899 8.83713 96.599C6.15 93.9081 3.07437 92.6252 1.96752 93.7336C0.860662 94.842 2.14172 97.922 4.82885 100.613C7.51598 103.304 10.5916 104.587 11.6985 103.478Z" fill="#1990F2"/>
<path d="M7.32138 99.0556C8.16172 99.0556 8.84295 98.1626 8.84295 97.061C8.84295 95.9594 8.16172 95.0664 7.32138 95.0664C6.48104 95.0664 5.7998 95.9594 5.7998 97.061C5.7998 98.1626 6.48104 99.0556 7.32138 99.0556Z" fill="#3F3D56"/>
<path d="M7.32138 96.6181C8.16172 96.6181 8.84295 95.7251 8.84295 94.6235C8.84295 93.5219 8.16172 92.6289 7.32138 92.6289C6.48104 92.6289 5.7998 93.5219 5.7998 94.6235C5.7998 95.7251 6.48104 96.6181 7.32138 96.6181Z" fill="#3F3D56"/>
<path d="M7.32138 94.1806C8.16172 94.1806 8.84295 93.2876 8.84295 92.186C8.84295 91.0844 8.16172 90.1914 7.32138 90.1914C6.48104 90.1914 5.7998 91.0844 5.7998 92.186C5.7998 93.2876 6.48104 94.1806 7.32138 94.1806Z" fill="#3F3D56"/>
<path d="M7.32138 91.7431C8.16172 91.7431 8.84295 90.8501 8.84295 89.7485C8.84295 88.6469 8.16172 87.7539 7.32138 87.7539C6.48104 87.7539 5.7998 88.6469 5.7998 89.7485C5.7998 90.8501 6.48104 91.7431 7.32138 91.7431Z" fill="#3F3D56"/>
<path d="M7.32138 89.3055C8.16172 89.3055 8.84295 88.4125 8.84295 87.3109C8.84295 86.2093 8.16172 85.3163 7.32138 85.3163C6.48104 85.3163 5.7998 86.2093 5.7998 87.3109C5.7998 88.4125 6.48104 89.3055 7.32138 89.3055Z" fill="#3F3D56"/>
<path d="M7.32138 86.868C8.16172 86.868 8.84295 85.975 8.84295 84.8734C8.84295 83.7718 8.16172 82.8788 7.32138 82.8788C6.48104 82.8788 5.7998 83.7718 5.7998 84.8734C5.7998 85.975 6.48104 86.868 7.32138 86.868Z" fill="#3F3D56"/>
<path d="M7.32138 84.4305C8.16172 84.4305 8.84295 83.5375 8.84295 82.4359C8.84295 81.3343 8.16172 80.4413 7.32138 80.4413C6.48104 80.4413 5.7998 81.3343 5.7998 82.4359C5.7998 83.5375 6.48104 84.4305 7.32138 84.4305Z" fill="#3F3D56"/>
<path d="M13.018 65.7551C13.2262 65.4904 13.4157 65.2114 13.5852 64.9203L9.58628 64.263L13.9114 64.2943C14.3263 63.3907 14.5528 62.412 14.5772 61.4178C14.6016 60.4236 14.4233 59.4349 14.0532 58.5121L8.25189 61.526L13.5994 57.5879C13.0985 56.7198 12.4243 55.9644 11.6189 55.3687C10.8135 54.773 9.89421 54.3497 8.91824 54.1254C7.94228 53.9011 6.93061 53.8804 5.94632 54.0647C4.96204 54.2491 4.02623 54.6344 3.19727 55.1968C2.3683 55.7591 1.66394 56.4864 1.12811 57.3333C0.592282 58.1802 0.23647 59.1285 0.0828643 60.1192C-0.0707416 61.1098 -0.0188478 62.1215 0.235307 63.0911C0.489462 64.0608 0.94043 64.9676 1.56009 65.7551C1.23593 66.1672 0.957313 66.6132 0.72911 67.0853L5.91919 69.7826L0.388775 67.9229C0.000451684 69.0729 -0.0954179 70.3017 0.109836 71.4982C0.31509 72.6947 0.814994 73.8211 1.56434 74.7755C0.718684 75.8518 0.192621 77.1447 0.0463029 78.5062C-0.100015 79.8678 0.139316 81.243 0.736934 82.4748C1.33455 83.7066 2.26634 84.7452 3.42575 85.4718C4.58517 86.1984 5.92543 86.5837 7.29329 86.5837C8.66115 86.5837 10.0014 86.1984 11.1608 85.4718C12.3202 84.7452 13.252 83.7066 13.8496 82.4748C14.4473 81.243 14.6866 79.8678 14.5403 78.5062C14.394 77.1447 13.8679 75.8518 13.0222 74.7755C14.0327 73.4892 14.582 71.9003 14.582 70.2639C14.582 68.6275 14.0327 67.0385 13.0222 65.7522L13.018 65.7551Z" fill="#1990F2"/>
<path opacity="0.1" d="M1.01973e-05 70.2667C-0.00273019 71.9036 0.546936 73.4934 1.55987 74.7783C0.714211 75.8547 0.188148 77.1475 0.0418296 78.509C-0.104488 79.8706 0.134843 81.2459 0.732461 82.4776C1.33008 83.7094 2.26186 84.748 3.42128 85.4746C4.5807 86.2012 5.92096 86.5866 7.28882 86.5866C8.65668 86.5866 9.99693 86.2012 11.1564 85.4746C12.3158 84.748 13.2476 83.7094 13.8452 82.4776C14.4428 81.2459 14.6821 79.8706 14.5358 78.509C14.3895 77.1475 13.8634 75.8547 13.0178 74.7783C13.9948 73.5376 1.01973e-05 69.4476 1.01973e-05 70.2667Z" fill="black"/>
</g>
<defs>
<clipPath id="clip0">
<rect width="131" height="107" fill="white"/>
</clipPath>
</defs>
</svg>
