<?xml version="1.0" encoding="utf-8"?>
<!-- Generator: Adobe Illustrator 16.0.0, SVG Export Plug-In . SVG Version: 6.00 Build 0)  -->
<!DOCTYPE svg PUBLIC "-//W3C//DTD SVG 1.1//EN" "http://www.w3.org/Graphics/SVG/1.1/DTD/svg11.dtd">
<svg version="1.1" id="Layer_1" xmlns="http://www.w3.org/2000/svg" xmlns:xlink="http://www.w3.org/1999/xlink" x="0px" y="0px"
	 viewBox="47.913 42.923 493.941 322.667"
	 enable-background="new 47.913 42.923 493.941 322.667" xml:space="preserve">
<path fill="#595AA0" d="M497.434,252.2c-0.244,0-0.49-0.032-0.731-0.099c-0.817-0.222-1.489-0.805-1.826-1.582l-10.652-24.567
	c-0.519-1.196-0.14-2.593,0.914-3.362l21.632-15.785c0.685-0.498,1.56-0.66,2.375-0.437c0.817,0.222,1.488,0.804,1.826,1.581
	l10.652,24.568c0.519,1.194,0.14,2.592-0.914,3.36l-21.632,15.785C498.595,252.018,498.018,252.2,497.434,252.2z M490.227,225.779
	l8.379,19.326l17.014-12.416l-8.379-19.324L490.227,225.779z"/>
<path fill="#595AA0" d="M439.213,85.818c-0.849,0-1.649-0.385-2.179-1.046l-9.062-11.327c-0.814-1.019-0.814-2.466,0-3.483
	l9.062-11.327c1.058-1.321,3.297-1.321,4.354,0l9.062,11.327c0.815,1.018,0.815,2.465,0,3.483l-9.062,11.327
	C440.859,85.434,440.058,85.818,439.213,85.818z M433.721,71.704l5.49,6.863l5.489-6.863l-5.489-6.863L433.721,71.704z"/>
<path fill="#3DCFAD" d="M324.066,310.389c-1.541,0-2.789-1.248-2.789-2.788v-16.729c0-1.54,1.248-2.788,2.789-2.788
	c1.539,0,2.787,1.248,2.787,2.788v16.729C326.854,309.141,325.605,310.389,324.066,310.389z"/>
<path fill="#3DCFAD" d="M332.43,302.023h-16.729c-1.539,0-2.788-1.248-2.788-2.787c0-1.541,1.249-2.788,2.788-2.788h16.729
	c1.541,0,2.789,1.247,2.789,2.788C335.219,300.775,333.971,302.023,332.43,302.023z"/>
<path fill="#3DCFAD" d="M324.066,304.813c-3.076,0-5.576-2.502-5.576-5.576c0-3.073,2.5-5.575,5.576-5.575
	c3.074,0,5.574,2.502,5.574,5.575C329.641,302.311,327.141,304.813,324.066,304.813z"/>
<path fill="#595AA0" d="M229.252,262.371c-0.846,0-1.648-0.385-2.176-1.045l-9.063-11.327c-0.814-1.019-0.814-2.466,0-3.483
	l9.063-11.326c1.057-1.322,3.297-1.322,4.354,0l9.062,11.326c0.815,1.019,0.815,2.465,0,3.483l-9.062,11.327
	C230.901,261.986,230.1,262.371,229.252,262.371z M223.762,248.257l5.49,6.863l5.491-6.863l-5.491-6.862L223.762,248.257z"/>
<path fill="#3DCFAD" d="M156.254,307.541c-1.54,0-2.789-1.248-2.789-2.787v-16.729c0-1.541,1.249-2.789,2.789-2.789
	s2.788,1.248,2.788,2.789v16.729C159.042,306.293,157.794,307.541,156.254,307.541z"/>
<path fill="#3DCFAD" d="M164.618,299.178H147.89c-1.54,0-2.789-1.248-2.789-2.789c0-1.539,1.249-2.787,2.789-2.787h16.729
	c1.539,0,2.787,1.248,2.787,2.787C167.405,297.93,166.157,299.178,164.618,299.178z"/>
<path fill="#3DCFAD" d="M156.254,301.965c-3.075,0-5.577-2.502-5.577-5.576s2.502-5.576,5.577-5.576
	c3.075,0,5.575,2.502,5.575,5.576S159.329,301.965,156.254,301.965z"/>
<path fill="#3DCFAD" d="M162.576,106.437c-1.54,0-2.789-1.248-2.789-2.788V86.92c0-1.539,1.249-2.788,2.789-2.788
	c1.538,0,2.787,1.249,2.787,2.788v16.729C165.363,105.188,164.114,106.437,162.576,106.437z"/>
<path fill="#3DCFAD" d="M170.939,98.072H154.21c-1.538,0-2.787-1.248-2.787-2.788s1.249-2.788,2.787-2.788h16.729
	c1.539,0,2.788,1.248,2.788,2.788S172.479,98.072,170.939,98.072z"/>
<path fill="#3DCFAD" d="M162.576,100.861c-3.076,0-5.577-2.502-5.577-5.577c0-3.075,2.501-5.576,5.577-5.576
	c3.074,0,5.575,2.501,5.575,5.576C168.151,98.359,165.65,100.861,162.576,100.861z"/>
<path fill="#3DCFAD" d="M338.184,132.354c-0.715,0-1.428-0.272-1.973-0.817c-1.089-1.088-1.089-2.854,0-3.942l11.828-11.828
	c1.088-1.089,2.854-1.089,3.943,0c1.088,1.089,1.088,2.854,0,3.942l-11.828,11.828C339.609,132.082,338.896,132.354,338.184,132.354
	z"/>
<path fill="#3DCFAD" d="M350.01,132.355c-0.713,0-1.426-0.273-1.971-0.817l-11.828-11.829c-1.089-1.088-1.089-2.854,0-3.941
	c1.09-1.09,2.854-1.09,3.943,0l11.828,11.828c1.088,1.088,1.088,2.854,0,3.942C351.438,132.082,350.725,132.355,350.01,132.355z"/>
<path fill="#3DCFAD" d="M344.096,129.229c-1.488,0-2.889-0.579-3.941-1.633c-2.174-2.177-2.174-5.715,0-7.888
	c2.106-2.106,5.777-2.107,7.886,0c2.168,2.174,2.169,5.709,0.004,7.885C346.984,128.65,345.586,129.229,344.096,129.229z"/>
<g>
	<path fill="#3DCFAD" d="M249.77,128.834c0,2.311-1.872,4.183-4.184,4.183c-2.31,0-4.182-1.872-4.182-4.183
		c0-2.31,1.872-4.182,4.182-4.182C247.897,124.652,249.77,126.524,249.77,128.834"/>
	<path fill="#3DCFAD" d="M245.586,133.713c-2.689,0-4.879-2.188-4.879-4.879c0-2.689,2.189-4.879,4.879-4.879
		s4.879,2.189,4.879,4.879S248.276,133.713,245.586,133.713z M245.586,125.35c-1.922,0-3.484,1.563-3.484,3.484
		c0,1.922,1.563,3.486,3.484,3.486c1.923,0,3.486-1.564,3.486-3.486C249.072,126.913,247.509,125.35,245.586,125.35z"/>
</g>
<path fill="#3DCFAD" d="M481.975,166.211c-1.479,0.426-3.024-0.428-3.45-1.908l-4.63-16.074c-0.428-1.48,0.427-3.025,1.906-3.451
	c1.479-0.426,3.024,0.428,3.451,1.907l4.63,16.075C484.309,164.239,483.454,165.785,481.975,166.211z"/>
<path fill="#3DCFAD" d="M487.696,155.857l-16.075,4.631c-1.479,0.426-3.024-0.428-3.45-1.907c-0.427-1.479,0.428-3.024,1.907-3.451
	l16.075-4.63c1.479-0.426,3.023,0.428,3.45,1.907C490.03,153.887,489.177,155.432,487.696,155.857z"/>
<path fill="#3DCFAD" d="M480.431,160.853c-2.955,0.851-6.05-0.86-6.899-3.815c-0.853-2.955,0.857-6.051,3.813-6.901
	c2.955-0.85,6.051,0.86,6.902,3.815C485.097,156.905,483.386,160.002,480.431,160.853z"/>
<g>
	<path fill="#3DCFAD" d="M249.768,310.389c0,2.312-1.871,4.183-4.183,4.183c-2.309,0-4.182-1.871-4.182-4.183
		c0-2.311,1.873-4.182,4.182-4.182C247.896,306.207,249.768,308.078,249.768,310.389"/>
	<path fill="#3DCFAD" d="M245.585,315.268c-2.689,0-4.879-2.188-4.879-4.879c0-2.689,2.189-4.879,4.879-4.879s4.88,2.189,4.88,4.879
		C250.465,313.079,248.275,315.268,245.585,315.268z M245.585,306.903c-1.922,0-3.484,1.563-3.484,3.484s1.563,3.485,3.484,3.485
		s3.485-1.563,3.485-3.485S247.507,306.903,245.585,306.903z"/>
</g>
<line fill="none" stroke="#3DCFAD" stroke-width="5" stroke-linecap="round" stroke-linejoin="round" stroke-miterlimit="10" x1="223" y1="196.5" x2="254" y2="196.5"/>
<line fill="none" stroke="#595AA0" stroke-width="5" stroke-linecap="round" stroke-linejoin="round" stroke-miterlimit="10" x1="175" y1="196.5" x2="118" y2="196.5"/>
<path fill="#595AA0" d="M84.681,207.973c-0.191,0-0.386-0.027-0.578-0.084c-1.058-0.32-1.657-1.437-1.338-2.492
	c1.243-4.127,4.388-6.85,8.626-7.466c1.376-0.199,2.248-0.159,3.472-0.008c3.6,0.45,7.688,2.98,8.706,7.621
	c0.237,1.079-0.445,2.146-1.524,2.383c-1.076,0.235-2.146-0.445-2.382-1.523c-0.687-3.123-3.651-4.305-5.295-4.51
	c-0.965-0.119-1.471-0.14-2.4-0.004c-1.893,0.275-4.361,1.309-5.372,4.661C86.334,207.415,85.539,207.973,84.681,207.973z"/>
<path fill="#595AA0" d="M93.147,199.794c-3.972,0-7.204-3.233-7.204-7.206c0-3.971,3.232-7.203,7.204-7.203
	c3.973,0,7.204,3.232,7.204,7.203C100.352,196.561,97.12,199.794,93.147,199.794z M93.147,189.385c-1.767,0-3.204,1.438-3.204,3.203
	c0,1.768,1.438,3.205,3.204,3.205s3.204-1.438,3.204-3.205C96.352,190.822,94.914,189.385,93.147,189.385z"/>
<circle fill="none" stroke="#595AA0" stroke-width="5" stroke-miterlimit="10" cx="93.147" cy="196.679" r="22.895"/>
<line fill="none" stroke="#595AA0" stroke-width="5" stroke-linecap="round" stroke-linejoin="round" stroke-miterlimit="10" x1="198.5" y1="221" x2="198.5" y2="296"/>
<path fill="#595AA0" d="M206.219,330.577c0.191,0,0.386-0.027,0.578-0.085c1.058-0.319,1.657-1.437,1.338-2.492
	c-1.243-4.127-4.388-6.848-8.626-7.466c-1.376-0.2-2.248-0.159-3.472-0.008c-3.6,0.449-7.688,2.98-8.706,7.621
	c-0.237,1.078,0.445,2.146,1.524,2.383c1.076,0.234,2.146-0.446,2.382-1.524c0.687-3.123,3.651-4.305,5.295-4.51
	c0.965-0.119,1.471-0.139,2.4-0.004c1.893,0.275,4.361,1.309,5.372,4.662C204.565,330.02,205.36,330.577,206.219,330.577z"/>
<path fill="#595AA0" d="M190.548,315.193c0-3.974,3.231-7.203,7.204-7.203c3.972,0,7.204,3.229,7.204,7.203
	c0,3.973-3.232,7.205-7.204,7.205C193.779,322.398,190.548,319.166,190.548,315.193z M194.548,315.193
	c0,1.767,1.438,3.205,3.204,3.205s3.204-1.438,3.204-3.205c0-1.768-1.438-3.203-3.204-3.203S194.548,313.427,194.548,315.193z"/>
<circle fill="none" stroke="#595AA0" stroke-width="5" stroke-miterlimit="10" cx="197.752" cy="319.283" r="22.895"/>
<line fill="none" stroke="#595AA0" stroke-width="5" stroke-linecap="round" stroke-linejoin="round" stroke-miterlimit="10" x1="198.5" y1="173" x2="198.5" y2="142"/>
<path fill="#595AA0" d="M189.285,129.473c-0.191,0-0.386-0.027-0.578-0.085c-1.058-0.319-1.657-1.436-1.338-2.492
	c1.243-4.127,4.388-6.848,8.626-7.466c1.376-0.2,2.248-0.159,3.472-0.008c3.6,0.45,7.688,2.981,8.706,7.621
	c0.237,1.079-0.445,2.146-1.524,2.383c-1.076,0.235-2.146-0.446-2.382-1.524c-0.687-3.123-3.651-4.305-5.295-4.51
	c-0.965-0.119-1.471-0.139-2.4-0.004c-1.893,0.276-4.361,1.309-5.372,4.662C190.938,128.915,190.144,129.473,189.285,129.473z"/>
<path fill="#595AA0" d="M197.752,121.294c-3.972,0-7.204-3.232-7.204-7.205c0-3.973,3.232-7.203,7.204-7.203
	c3.973,0,7.204,3.23,7.204,7.203C204.956,118.062,201.725,121.294,197.752,121.294z M197.752,110.886
	c-1.767,0-3.204,1.438-3.204,3.203c0,1.766,1.438,3.205,3.204,3.205s3.204-1.438,3.204-3.205
	C200.956,112.322,199.519,110.886,197.752,110.886z"/>
<circle fill="none" stroke="#595AA0" stroke-width="5" stroke-miterlimit="10" cx="197.752" cy="118.179" r="22.895"/>
<line fill="none" stroke="#595AA0" stroke-width="5" stroke-linecap="round" stroke-linejoin="round" stroke-miterlimit="10" x1="182.677" y1="216.034" x2="168.298" y2="230.234"/>
<path fill="#595AA0" d="M160.573,260.132c0.191,0,0.385-0.026,0.578-0.084c1.057-0.319,1.658-1.437,1.338-2.491
	c-1.244-4.128-4.389-6.849-8.627-7.466c-1.375-0.2-2.248-0.159-3.471-0.008c-3.6,0.449-7.689,2.979-8.707,7.619
	c-0.236,1.079,0.445,2.146,1.525,2.385c1.076,0.233,2.145-0.446,2.381-1.524c0.688-3.123,3.652-4.304,5.297-4.511
	c0.963-0.116,1.471-0.139,2.398-0.004c1.893,0.275,4.361,1.31,5.373,4.664C158.919,259.575,159.714,260.134,160.573,260.132z"/>
<path fill="#595AA0" d="M144.901,244.749c0.002-3.974,3.232-7.203,7.205-7.201c3.971-0.002,7.203,3.229,7.203,7.201
	s-3.232,7.205-7.203,7.205C148.134,251.954,144.901,248.723,144.901,244.749z M148.901,244.749c0,1.767,1.438,3.205,3.205,3.205
	c1.766,0,3.203-1.438,3.203-3.205c0-1.769-1.438-3.203-3.203-3.203C150.339,241.546,148.901,242.98,148.901,244.749z"/>
<circle fill="none" stroke="#595AA0" stroke-width="5" stroke-miterlimit="10" cx="152.106" cy="248.839" r="22.896"/>
<line fill="none" stroke="#595AA0" stroke-width="5" stroke-linecap="round" stroke-linejoin="round" stroke-miterlimit="10" x1="182.677" y1="179.863" x2="127.956" y2="124.832"/>
<line fill="none" stroke="#3DCFAD" stroke-width="5" stroke-linecap="round" stroke-linejoin="round" stroke-miterlimit="10" x1="341" y1="196.5" x2="428" y2="196.5"/>
<line fill="none" stroke="#3DCFAD" stroke-width="5" stroke-linecap="round" stroke-linejoin="round" stroke-miterlimit="10" x1="382.5" y1="198" x2="382.5" y2="109"/>
<line fill="none" stroke="#3DCFAD" stroke-width="5" stroke-linecap="round" stroke-linejoin="round" stroke-miterlimit="10" x1="382.5" y1="196" x2="382.5" y2="247"/>
<line fill="none" stroke="#3DCFAD" stroke-width="5" stroke-linecap="round" stroke-linejoin="round" stroke-miterlimit="10" x1="382.529" y1="195.971" x2="435.948" y2="138.96"/>
<line fill="none" stroke="#3DCFAD" stroke-width="5" stroke-linecap="round" stroke-linejoin="round" stroke-miterlimit="10" x1="383.068" y1="198.443" x2="449.021" y2="264.707"/>
<path fill="#595AA0" d="M103.595,118.11c-0.192,0-0.386-0.027-0.578-0.083c-1.058-0.321-1.658-1.436-1.339-2.493
	c1.243-4.127,4.389-6.848,8.626-7.466c1.377-0.199,2.249-0.159,3.472-0.008c3.599,0.45,7.688,2.981,8.707,7.62
	c0.237,1.08-0.445,2.146-1.524,2.384c-1.077,0.235-2.146-0.445-2.382-1.524c-0.688-3.122-3.652-4.304-5.296-4.509
	c-0.965-0.119-1.472-0.14-2.399-0.004c-1.893,0.274-4.362,1.308-5.372,4.662C105.247,117.554,104.452,118.111,103.595,118.11z"/>
<path fill="#595AA0" d="M112.06,109.934c-3.971-0.001-7.202-3.232-7.202-7.206c-0.001-3.973,3.232-7.203,7.204-7.202
	c3.972,0,7.202,3.229,7.204,7.202C119.266,106.7,116.033,109.933,112.06,109.934z M112.061,99.524
	c-1.767,0.001-3.203,1.437-3.204,3.203c0.001,1.766,1.438,3.205,3.203,3.205c1.768,0,3.206-1.439,3.205-3.205
	C115.266,100.961,113.827,99.524,112.061,99.524z"/>
<circle fill="none" stroke="#595AA0" stroke-width="5" stroke-miterlimit="10" cx="112.061" cy="106.818" r="22.895"/>
<circle fill="none" stroke="#3DCFAD" stroke-width="5" stroke-miterlimit="10" cx="198.061" cy="196.818" r="22.895"/>
<g>
	<path fill="#3DCFAD" d="M201.334,191.947c0-0.765-0.166-1.406-0.499-1.922c-0.516-0.89-1.434-1.334-2.76-1.334
		c-1.283,0-2.201,0.444-2.76,1.334c-0.352,0.6-0.526,1.229-0.526,1.892c0,0.765,0.164,1.406,0.493,1.923
		c0.561,0.911,1.49,1.365,2.793,1.365c2.174,0,3.857,0.755,5.057,2.265c0.971,1.22,1.459,2.646,1.459,4.279
		c0,1.345-0.363,2.595-1.087,3.753c-0.891,1.364-2.159,2.223-3.817,2.575v1.798c0,0.455-0.152,0.839-0.463,1.148
		c-0.31,0.31-0.69,0.465-1.148,0.465c-0.435,0-0.815-0.155-1.146-0.465c-0.33-0.311-0.497-0.693-0.497-1.148v-1.798
		c-1.634-0.353-2.896-1.211-3.783-2.575c-0.745-1.137-1.116-2.388-1.116-3.753c0-0.454,0.16-0.843,0.479-1.163
		c0.319-0.32,0.708-0.48,1.163-0.48c0.455,0,0.84,0.156,1.149,0.465c0.308,0.311,0.465,0.702,0.465,1.179
		c0,0.744,0.164,1.376,0.493,1.893c0.561,0.912,1.49,1.364,2.793,1.364c0.995,0,1.785-0.295,2.372-0.885
		c0.593-0.588,0.887-1.379,0.887-2.372c0-0.766-0.166-1.406-0.499-1.923c-0.557-0.909-1.479-1.365-2.76-1.365
		c-2.17,0-3.857-0.754-5.056-2.265c-0.993-1.24-1.487-2.655-1.487-4.249c0-1.344,0.361-2.595,1.085-3.752
		c0.889-1.386,2.161-2.255,3.814-2.605v-1.8c0-0.454,0.16-0.843,0.483-1.163c0.32-0.321,0.706-0.48,1.16-0.48
		c0.458,0,0.839,0.154,1.148,0.467c0.311,0.31,0.463,0.702,0.463,1.177v1.8c1.635,0.351,2.897,1.22,3.787,2.605
		c0.742,1.157,1.117,2.408,1.117,3.752c0,0.456-0.157,0.838-0.465,1.149c-0.311,0.308-0.705,0.463-1.18,0.463
		c-0.458,0-0.838-0.155-1.148-0.463C201.488,192.785,201.334,192.403,201.334,191.947z"/>
</g>
<circle fill="none" stroke="#3DCFAD" stroke-width="5" stroke-miterlimit="10" cx="382.061" cy="85.818" r="22.895"/>
<g>
	<path fill="#3DCFAD" d="M385.334,80.947c0-0.765-0.166-1.406-0.499-1.922c-0.517-0.89-1.435-1.334-2.76-1.334
		c-1.283,0-2.201,0.444-2.761,1.334c-0.352,0.6-0.525,1.229-0.525,1.892c0,0.765,0.164,1.406,0.493,1.923
		c0.561,0.911,1.489,1.365,2.793,1.365c2.174,0,3.856,0.755,5.057,2.265c0.972,1.22,1.459,2.646,1.459,4.279
		c0,1.345-0.362,2.595-1.087,3.753c-0.891,1.364-2.158,2.223-3.816,2.575v1.798c0,0.455-0.152,0.839-0.463,1.148
		c-0.311,0.31-0.69,0.465-1.148,0.465c-0.436,0-0.814-0.155-1.146-0.465c-0.33-0.31-0.496-0.693-0.496-1.148v-1.798
		c-1.635-0.353-2.896-1.211-3.783-2.575c-0.745-1.137-1.116-2.388-1.116-3.753c0-0.454,0.159-0.843,0.479-1.163
		c0.318-0.32,0.707-0.48,1.162-0.48s0.84,0.156,1.149,0.465c0.308,0.311,0.465,0.703,0.465,1.179c0,0.744,0.164,1.376,0.493,1.892
		c0.561,0.912,1.49,1.365,2.793,1.365c0.994,0,1.785-0.295,2.372-0.885c0.593-0.588,0.887-1.379,0.887-2.372
		c0-0.765-0.166-1.406-0.499-1.923c-0.557-0.909-1.479-1.365-2.76-1.365c-2.17,0-3.857-0.754-5.057-2.265
		c-0.992-1.24-1.486-2.655-1.486-4.249c0-1.344,0.361-2.595,1.085-3.752c0.889-1.386,2.161-2.255,3.813-2.605v-1.8
		c0-0.454,0.16-0.843,0.483-1.163c0.319-0.321,0.706-0.48,1.16-0.48c0.458,0,0.839,0.154,1.147,0.467
		c0.312,0.31,0.463,0.702,0.463,1.177v1.8c1.636,0.351,2.897,1.22,3.787,2.605c0.742,1.157,1.117,2.408,1.117,3.752
		c0,0.456-0.156,0.838-0.465,1.149c-0.311,0.308-0.705,0.463-1.18,0.463c-0.459,0-0.838-0.155-1.148-0.463
		C385.488,81.785,385.334,81.403,385.334,80.947z"/>
</g>
<circle fill="none" stroke="#3DCFAD" stroke-width="5" stroke-miterlimit="10" cx="451.061" cy="195.818" r="22.895"/>
<g>
	<path fill="#3DCFAD" d="M454.334,190.947c0-0.765-0.166-1.406-0.499-1.922c-0.516-0.89-1.434-1.334-2.76-1.334
		c-1.283,0-2.201,0.444-2.76,1.334c-0.353,0.6-0.526,1.229-0.526,1.892c0,0.765,0.164,1.406,0.493,1.923
		c0.561,0.911,1.489,1.365,2.793,1.365c2.174,0,3.856,0.755,5.057,2.265c0.972,1.22,1.459,2.646,1.459,4.279
		c0,1.345-0.362,2.595-1.087,3.753c-0.891,1.364-2.159,2.223-3.816,2.575v1.798c0,0.455-0.152,0.839-0.464,1.148
		c-0.31,0.31-0.689,0.465-1.147,0.465c-0.436,0-0.815-0.155-1.146-0.465c-0.33-0.311-0.497-0.693-0.497-1.148v-1.798
		c-1.634-0.353-2.896-1.211-3.782-2.575c-0.745-1.137-1.116-2.388-1.116-3.753c0-0.454,0.16-0.843,0.479-1.163
		c0.319-0.32,0.708-0.48,1.163-0.48s0.84,0.156,1.149,0.465c0.308,0.311,0.465,0.703,0.465,1.179c0,0.744,0.164,1.376,0.493,1.893
		c0.561,0.912,1.49,1.364,2.793,1.364c0.995,0,1.785-0.295,2.372-0.885c0.593-0.588,0.887-1.379,0.887-2.372
		c0-0.765-0.166-1.406-0.499-1.923c-0.557-0.909-1.479-1.365-2.76-1.365c-2.17,0-3.857-0.754-5.057-2.265
		c-0.992-1.24-1.486-2.655-1.486-4.249c0-1.344,0.361-2.595,1.085-3.752c0.889-1.386,2.161-2.255,3.813-2.605v-1.8
		c0-0.454,0.16-0.843,0.483-1.163c0.32-0.321,0.706-0.48,1.16-0.48c0.458,0,0.839,0.154,1.147,0.467
		c0.312,0.31,0.463,0.702,0.463,1.177v1.8c1.636,0.351,2.897,1.22,3.787,2.605c0.742,1.157,1.117,2.408,1.117,3.752
		c0,0.456-0.157,0.838-0.465,1.149c-0.311,0.308-0.705,0.463-1.18,0.463c-0.458,0-0.838-0.155-1.148-0.463
		C454.488,191.785,454.334,191.403,454.334,190.947z"/>
</g>
<circle fill="none" stroke="#3DCFAD" stroke-width="5" stroke-miterlimit="10" cx="450.435" cy="120.258" r="22.895"/>
<g>
	<path fill="#3DCFAD" d="M453.552,115.285c-0.022-0.764-0.211-1.399-0.56-1.904c-0.544-0.873-1.477-1.288-2.801-1.246
		c-1.282,0.041-2.187,0.514-2.717,1.421c-0.332,0.61-0.486,1.244-0.467,1.907c0.024,0.765,0.209,1.4,0.555,1.906
		c0.59,0.893,1.532,1.318,2.834,1.276c2.174-0.069,3.881,0.632,5.127,2.103c1.009,1.188,1.542,2.6,1.594,4.231
		c0.043,1.344-0.28,2.605-0.968,3.786c-0.848,1.391-2.087,2.289-3.733,2.694l0.057,1.798c0.016,0.453-0.126,0.842-0.426,1.161
		s-0.676,0.487-1.134,0.501c-0.435,0.014-0.819-0.129-1.16-0.429c-0.34-0.298-0.519-0.677-0.533-1.131l-0.057-1.798
		c-1.646-0.3-2.933-1.118-3.863-2.453c-0.78-1.113-1.19-2.352-1.233-3.717c-0.016-0.454,0.134-0.848,0.441-1.178
		c0.311-0.329,0.692-0.502,1.147-0.517c0.455-0.015,0.844,0.129,1.163,0.429c0.316,0.3,0.486,0.688,0.502,1.163
		c0.023,0.743,0.208,1.37,0.554,1.875c0.589,0.894,1.532,1.317,2.834,1.276c0.995-0.031,1.775-0.352,2.344-0.959
		c0.573-0.607,0.843-1.407,0.812-2.4c-0.024-0.764-0.211-1.4-0.561-1.905c-0.585-0.892-1.521-1.317-2.802-1.277
		c-2.169,0.069-3.879-0.632-5.125-2.104c-1.031-1.208-1.57-2.606-1.621-4.2c-0.043-1.343,0.279-2.604,0.966-3.784
		c0.846-1.413,2.089-2.321,3.729-2.726l-0.058-1.798c-0.014-0.454,0.134-0.848,0.446-1.178c0.311-0.331,0.69-0.503,1.146-0.518
		c0.458-0.015,0.843,0.128,1.162,0.431c0.319,0.299,0.484,0.688,0.5,1.161l0.058,1.799c1.645,0.299,2.935,1.128,3.867,2.484
		c0.778,1.134,1.192,2.372,1.235,3.715c0.015,0.456-0.131,0.843-0.429,1.163c-0.301,0.318-0.69,0.485-1.165,0.5
		c-0.457,0.016-0.842-0.128-1.162-0.426C453.732,116.118,453.566,115.742,453.552,115.285z"/>
</g>
<circle fill="none" stroke="#3DCFAD" stroke-width="5" stroke-miterlimit="10" cx="382.061" cy="271.818" r="22.895"/>
<g>
	<path fill="#3DCFAD" d="M385.334,266.947c0-0.766-0.166-1.406-0.499-1.922c-0.517-0.891-1.435-1.334-2.76-1.334
		c-1.283,0-2.201,0.443-2.761,1.334c-0.352,0.6-0.525,1.229-0.525,1.892c0,0.767,0.164,1.406,0.493,1.923
		c0.561,0.911,1.489,1.366,2.793,1.366c2.174,0,3.856,0.754,5.057,2.265c0.972,1.219,1.459,2.646,1.459,4.278
		c0,1.345-0.362,2.597-1.087,3.753c-0.891,1.364-2.158,2.225-3.816,2.575v1.799c0,0.454-0.152,0.838-0.463,1.146
		c-0.311,0.312-0.69,0.467-1.148,0.467c-0.436,0-0.814-0.155-1.146-0.467c-0.33-0.309-0.496-0.691-0.496-1.146v-1.799
		c-1.635-0.353-2.896-1.211-3.783-2.575c-0.745-1.137-1.116-2.389-1.116-3.753c0-0.455,0.159-0.843,0.479-1.163
		c0.318-0.318,0.707-0.48,1.162-0.48s0.84,0.155,1.149,0.465c0.308,0.311,0.465,0.705,0.465,1.18c0,0.744,0.164,1.376,0.493,1.893
		c0.561,0.91,1.49,1.365,2.793,1.365c0.994,0,1.785-0.296,2.372-0.885c0.593-0.59,0.887-1.38,0.887-2.373
		c0-0.766-0.166-1.406-0.499-1.922c-0.557-0.91-1.479-1.366-2.76-1.366c-2.17,0-3.857-0.755-5.057-2.265
		c-0.992-1.24-1.486-2.655-1.486-4.25c0-1.344,0.361-2.594,1.085-3.752c0.889-1.385,2.161-2.254,3.813-2.605v-1.799
		c0-0.453,0.16-0.844,0.483-1.163c0.319-0.321,0.706-0.481,1.16-0.481c0.458,0,0.839,0.155,1.147,0.469
		c0.312,0.31,0.463,0.701,0.463,1.177v1.799c1.636,0.353,2.897,1.222,3.787,2.606c0.742,1.156,1.117,2.408,1.117,3.752
		c0,0.455-0.156,0.838-0.465,1.148c-0.311,0.309-0.705,0.463-1.18,0.463c-0.459,0-0.838-0.154-1.148-0.463
		C385.488,267.785,385.334,267.402,385.334,266.947z"/>
</g>
<circle fill="none" stroke="#3DCFAD" stroke-width="5" stroke-miterlimit="10" cx="468.061" cy="279.818" r="22.895"/>
<g>
	<path fill="#3DCFAD" d="M470.334,274.947c0-0.766-0.166-1.406-0.499-1.922c-0.516-0.891-1.434-1.334-2.76-1.334
		c-1.283,0-2.201,0.443-2.76,1.334c-0.353,0.6-0.526,1.229-0.526,1.892c0,0.767,0.164,1.406,0.493,1.923
		c0.561,0.911,1.489,1.366,2.793,1.366c2.174,0,3.856,0.754,5.057,2.265c0.972,1.219,1.459,2.646,1.459,4.278
		c0,1.345-0.362,2.597-1.087,3.753c-0.891,1.364-2.159,2.225-3.816,2.575v1.799c0,0.454-0.152,0.838-0.464,1.146
		c-0.31,0.312-0.689,0.467-1.147,0.467c-0.436,0-0.815-0.155-1.146-0.467c-0.33-0.309-0.497-0.691-0.497-1.146v-1.799
		c-1.634-0.353-2.896-1.211-3.782-2.575c-0.745-1.137-1.116-2.389-1.116-3.753c0-0.455,0.16-0.843,0.479-1.163
		c0.319-0.318,0.708-0.48,1.163-0.48s0.84,0.155,1.149,0.465c0.308,0.311,0.465,0.705,0.465,1.18c0,0.744,0.164,1.376,0.493,1.893
		c0.561,0.91,1.49,1.365,2.793,1.365c0.995,0,1.785-0.296,2.372-0.885c0.593-0.59,0.887-1.38,0.887-2.373
		c0-0.766-0.166-1.406-0.499-1.922c-0.557-0.91-1.479-1.366-2.76-1.366c-2.17,0-3.857-0.755-5.057-2.265
		c-0.992-1.24-1.486-2.655-1.486-4.25c0-1.344,0.361-2.594,1.085-3.752c0.889-1.385,2.161-2.254,3.813-2.605v-1.799
		c0-0.453,0.16-0.844,0.483-1.163c0.32-0.321,0.706-0.481,1.16-0.481c0.458,0,0.839,0.155,1.147,0.469
		c0.312,0.31,0.463,0.701,0.463,1.177v1.799c1.636,0.353,2.897,1.222,3.787,2.606c0.742,1.156,1.117,2.408,1.117,3.752
		c0,0.455-0.157,0.838-0.465,1.148c-0.311,0.309-0.705,0.463-1.18,0.463c-0.458,0-0.838-0.154-1.148-0.463
		C470.488,275.785,470.334,275.402,470.334,274.947z"/>
</g>
<g>
	<g>
		<g>
			<path fill="#595AA0" d="M338.378,148.033h-82.742c-1.33,0-2.407,1.078-2.407,2.408v116.034c0,1.328,1.077,2.406,2.407,2.406
				h62.916c0.64,0,1.253-0.254,1.703-0.705l19.826-19.826c0.451-0.451,0.705-1.063,0.705-1.701v-96.208
				C340.786,149.111,339.707,148.033,338.378,148.033z M320.955,260.667l-0.012-11.626l11.627,0.01L320.955,260.667z
				 M335.971,244.24l-17.433-0.018h-0.002c-0.64,0-1.252,0.254-1.703,0.705c-0.452,0.452-0.705,1.065-0.705,1.704l0.017,17.435
				h-58.102V152.848h77.928V244.24L335.971,244.24z"/>
		</g>
	</g>
	<g>
		<g>
			<path fill="#595AA0" d="M277.894,234.889c-6.054,0-10.979,4.924-10.979,10.979c0,6.054,4.926,10.979,10.979,10.979
				c6.054,0,10.979-4.925,10.979-10.979C288.873,239.813,283.948,234.889,277.894,234.889z M277.894,252.029
				c-3.398,0-6.164-2.766-6.164-6.163c0-3.398,2.766-6.164,6.164-6.164s6.164,2.766,6.164,6.164
				C284.058,249.264,281.293,252.029,277.894,252.029z"/>
		</g>
	</g>
	<g>
		<g>
			<path fill="#595AA0" d="M309.284,243.846h-13.24c-1.33,0-2.407,1.078-2.407,2.407s1.077,2.407,2.407,2.407h13.24
				c1.329,0,2.407-1.078,2.407-2.407S310.614,243.846,309.284,243.846z"/>
		</g>
	</g>
	<g>
		<g>
			<path fill="#595AA0" d="M277.026,162.478h-6.981c-1.329,0-2.407,1.077-2.407,2.407c0,1.33,1.078,2.407,2.407,2.407h6.981
				c1.329,0,2.406-1.077,2.406-2.407C279.432,163.555,278.355,162.478,277.026,162.478z"/>
		</g>
	</g>
	<g>
		<g>
			<path fill="#595AA0" d="M324.934,162.478h-20.944c-1.329,0-2.407,1.077-2.407,2.407c0,1.33,1.078,2.407,2.407,2.407h20.944
				c1.328,0,2.405-1.077,2.405-2.407C327.339,163.555,326.261,162.478,324.934,162.478z"/>
		</g>
	</g>
	<g>
		<g>
			<path fill="#595AA0" d="M324.934,172.829h-35.629c-1.33,0-2.407,1.078-2.407,2.407c0,1.33,1.077,2.408,2.407,2.408h35.629
				c1.328,0,2.405-1.078,2.405-2.408C327.339,173.907,326.261,172.829,324.934,172.829z"/>
		</g>
	</g>
	<g>
		<g>
			<path fill="#595AA0" d="M325.052,191.848h-56.091c-1.329,0-2.407,1.077-2.407,2.406c0,1.33,1.078,2.408,2.407,2.408h56.091
				c1.33,0,2.407-1.078,2.407-2.408C327.459,192.925,326.382,191.848,325.052,191.848z"/>
		</g>
	</g>
	<g>
		<g>
			<path fill="#595AA0" d="M325.052,200.032h-56.091c-1.329,0-2.407,1.077-2.407,2.407s1.078,2.406,2.407,2.406h56.091
				c1.33,0,2.407-1.076,2.407-2.406C327.46,201.109,326.382,200.032,325.052,200.032z"/>
		</g>
	</g>
	<g>
		<g>
			<path fill="#595AA0" d="M325.052,208.939h-56.091c-1.329,0-2.407,1.078-2.407,2.406c0,1.329,1.078,2.407,2.407,2.407h56.091
				c1.33,0,2.407-1.078,2.407-2.407C327.46,210.018,326.382,208.939,325.052,208.939z"/>
		</g>
	</g>
	<g>
		<g>
			<path fill="#595AA0" d="M325.052,217.124h-9.389c-1.329,0-2.406,1.077-2.406,2.407s1.077,2.406,2.406,2.406h9.389
				c1.33,0,2.408-1.076,2.408-2.406S326.382,217.124,325.052,217.124z"/>
		</g>
	</g>
	<g>
		<g>
			<path fill="#595AA0" d="M297.008,217.124h-28.047c-1.329,0-2.407,1.077-2.407,2.407s1.078,2.406,2.407,2.406h28.047
				c1.329,0,2.407-1.076,2.407-2.406S298.337,217.124,297.008,217.124z"/>
		</g>
	</g>
</g>
</svg>
