<?xml version="1.0" encoding="utf-8"?>
<!-- Generator: Adobe Illustrator 16.0.0, SVG Export Plug-In . SVG Version: 6.00 Build 0)  -->
<!DOCTYPE svg PUBLIC "-//W3C//DTD SVG 1.1//EN" "http://www.w3.org/Graphics/SVG/1.1/DTD/svg11.dtd">
<svg version="1.1" id="Layer_1" xmlns="http://www.w3.org/2000/svg" xmlns:xlink="http://www.w3.org/1999/xlink" x="0px" y="0px"
	 viewBox="0 0 593 400" enable-background="new 0 0 593 400" xml:space="preserve">
<g>
	
		<polygon fill="none" stroke="#595AA0" stroke-width="5" stroke-linecap="round" stroke-linejoin="round" stroke-miterlimit="10" points="
		188.191,158.5 155.25,158.5 148.672,142.5 179.572,142.5 	"/>
	
		<polygon fill="none" stroke="#595AA0" stroke-width="5" stroke-linecap="round" stroke-linejoin="round" stroke-miterlimit="10" points="
		203.541,185.5 166.727,185.5 159.275,166.5 193.576,166.5 	"/>
	
		<polygon fill="none" stroke="#595AA0" stroke-width="5" stroke-linecap="round" stroke-linejoin="round" stroke-miterlimit="10" points="
		221.313,217.5 180.016,217.5 170.352,194.5 208.387,194.5 	"/>
	
		<polygon fill="none" stroke="#595AA0" stroke-width="5" stroke-linecap="round" stroke-linejoin="round" stroke-miterlimit="10" points="
		99.32,158.5 65.463,158.5 65.676,142.5 96.406,142.5 	"/>
	
		<polygon fill="none" stroke="#595AA0" stroke-width="5" stroke-linecap="round" stroke-linejoin="round" stroke-miterlimit="10" points="
		103.777,185.5 64.93,185.5 65.131,166.5 100.77,166.5 	"/>
	
		<polygon fill="none" stroke="#595AA0" stroke-width="5" stroke-linecap="round" stroke-linejoin="round" stroke-miterlimit="10" points="
		109.139,217.5 64.221,217.5 64.705,194.5 105.135,194.5 	"/>
	
		<polygon fill="none" stroke="#595AA0" stroke-width="5" stroke-linecap="round" stroke-linejoin="round" stroke-miterlimit="10" points="
		143.842,158.5 110.41,158.5 107.137,142.5 137.846,142.5 	"/>
	
		<polygon fill="none" stroke="#595AA0" stroke-width="5" stroke-linecap="round" stroke-linejoin="round" stroke-miterlimit="10" points="
		154.135,185.5 115.832,185.5 112.283,166.5 147.451,166.5 	"/>
	
		<polygon fill="none" stroke="#595AA0" stroke-width="5" stroke-linecap="round" stroke-linejoin="round" stroke-miterlimit="10" points="
		166.053,216.613 122.16,216.975 117.84,193.375 157.279,193.367 	"/>
</g>
<polygon fill="none" stroke="#595AA0" stroke-width="5" stroke-linejoin="round" stroke-miterlimit="10" points="391.434,146.4 
	401.014,168.497 381.561,182.693 371.979,160.598 "/>
<polygon fill="none" stroke="#595AA0" stroke-width="5" stroke-linejoin="round" stroke-miterlimit="10" points="252.553,149.637 
	254.07,162.594 241.764,166.92 240.244,153.963 "/>
<polygon fill="none" stroke="#595AA0" stroke-width="5" stroke-linejoin="round" stroke-miterlimit="10" points="149.902,85.07 
	161.547,90.95 158.365,103.603 146.723,97.722 "/>
<polygon fill="none" stroke="#595AA0" stroke-width="5" stroke-linejoin="round" stroke-miterlimit="10" points="159.275,245.258 
	167.426,255.444 159.275,265.631 151.127,255.444 "/>
<g>
	
		<line fill="none" stroke="#3DCFAD" stroke-width="5" stroke-linecap="round" stroke-linejoin="round" stroke-miterlimit="10" x1="196.029" y1="113.43" x2="196.029" y2="128.475"/>
	
		<line fill="none" stroke="#3DCFAD" stroke-width="5" stroke-linecap="round" stroke-linejoin="round" stroke-miterlimit="10" x1="203.551" y1="120.951" x2="188.506" y2="120.951"/>
	
		<circle fill="none" stroke="#3DCFAD" stroke-width="5" stroke-linecap="round" stroke-linejoin="round" stroke-miterlimit="10" cx="196.028" cy="120.951" r="2.507"/>
</g>
<g>
	
		<line fill="none" stroke="#3DCFAD" stroke-width="5" stroke-linecap="round" stroke-linejoin="round" stroke-miterlimit="10" x1="269.275" y1="88.354" x2="269.275" y2="103.398"/>
	
		<line fill="none" stroke="#3DCFAD" stroke-width="5" stroke-linecap="round" stroke-linejoin="round" stroke-miterlimit="10" x1="276.797" y1="95.875" x2="261.752" y2="95.875"/>
	
		<circle fill="none" stroke="#3DCFAD" stroke-width="4" stroke-linecap="round" stroke-linejoin="round" stroke-miterlimit="10" cx="269.275" cy="95.875" r="2.508"/>
</g>
<g>
	
		<line fill="none" stroke="#3DCFAD" stroke-width="5" stroke-linecap="round" stroke-linejoin="round" stroke-miterlimit="10" x1="236.971" y1="49.182" x2="226.334" y2="59.82"/>
	
		<line fill="none" stroke="#3DCFAD" stroke-width="5" stroke-linecap="round" stroke-linejoin="round" stroke-miterlimit="10" x1="236.971" y1="59.82" x2="226.334" y2="49.183"/>
	
		<circle fill="none" stroke="#3DCFAD" stroke-width="4" stroke-linecap="round" stroke-linejoin="round" stroke-miterlimit="10" cx="231.651" cy="54.502" r="2.507"/>
</g>
<g>
	
		<line fill="none" stroke="#3DCFAD" stroke-width="5" stroke-linecap="round" stroke-linejoin="round" stroke-miterlimit="10" x1="254.68" y1="267.965" x2="254.68" y2="283.01"/>
	
		<line fill="none" stroke="#3DCFAD" stroke-width="5" stroke-linecap="round" stroke-linejoin="round" stroke-miterlimit="10" x1="262.203" y1="275.488" x2="247.156" y2="275.488"/>
	
		<circle fill="#3DCFAD" stroke="#3DCFAD" stroke-width="5" stroke-linecap="round" stroke-linejoin="round" stroke-miterlimit="10" cx="254.68" cy="275.488" r="2.508"/>
</g>
<g>
	
		<line fill="none" stroke="#3DCFAD" stroke-width="5" stroke-linecap="round" stroke-linejoin="round" stroke-miterlimit="10" x1="222.375" y1="228.795" x2="211.738" y2="239.432"/>
	
		<line fill="none" stroke="#3DCFAD" stroke-width="5" stroke-linecap="round" stroke-linejoin="round" stroke-miterlimit="10" x1="222.375" y1="239.433" x2="211.738" y2="228.795"/>
	
		<circle fill="none" stroke="#3DCFAD" stroke-width="5" stroke-linecap="round" stroke-linejoin="round" stroke-miterlimit="10" cx="217.058" cy="234.114" r="2.508"/>
</g>
<g>
	
		<line fill="none" stroke="#3DCFAD" stroke-width="5" stroke-linecap="round" stroke-linejoin="round" stroke-miterlimit="10" x1="431.631" y1="231.721" x2="431.631" y2="246.766"/>
	
		<line fill="none" stroke="#3DCFAD" stroke-width="5" stroke-linecap="round" stroke-linejoin="round" stroke-miterlimit="10" x1="439.154" y1="239.243" x2="424.109" y2="239.243"/>
	
		<circle fill="none" stroke="#3DCFAD" stroke-width="5" stroke-linecap="round" stroke-linejoin="round" stroke-miterlimit="10" cx="431.632" cy="239.243" r="2.507"/>
</g>
<g>
	
		<line fill="none" stroke="#3DCFAD" stroke-width="5" stroke-linecap="round" stroke-linejoin="round" stroke-miterlimit="10" x1="365.695" y1="113.465" x2="355.059" y2="124.104"/>
	
		<line fill="none" stroke="#3DCFAD" stroke-width="5" stroke-linecap="round" stroke-linejoin="round" stroke-miterlimit="10" x1="365.695" y1="124.104" x2="355.059" y2="113.467"/>
	
		<circle fill="none" stroke="#3DCFAD" stroke-width="5" stroke-linecap="round" stroke-linejoin="round" stroke-miterlimit="10" cx="360.376" cy="118.785" r="2.507"/>
</g>
<g>
	
		<line fill="none" stroke="#3DCFAD" stroke-width="5" stroke-linecap="round" stroke-linejoin="round" stroke-miterlimit="10" x1="535.264" y1="47.303" x2="524.625" y2="57.94"/>
	
		<line fill="none" stroke="#3DCFAD" stroke-width="5" stroke-linecap="round" stroke-linejoin="round" stroke-miterlimit="10" x1="535.264" y1="57.941" x2="524.625" y2="47.303"/>
	
		<circle fill="none" stroke="#3DCFAD" stroke-width="5" stroke-linecap="round" stroke-linejoin="round" stroke-miterlimit="10" cx="529.944" cy="52.623" r="2.507"/>
</g>
<path fill="#3DCFAD" stroke="#3DCFAD" stroke-miterlimit="10" d="M316.75,113.77c0,2.078-1.684,3.762-3.762,3.762
	s-3.762-1.684-3.762-3.762s1.684-3.762,3.762-3.762S316.75,111.691,316.75,113.77"/>
<path fill="#3DCFAD" stroke="#3DCFAD" stroke-miterlimit="10" d="M176.496,58.262c0,2.078-1.684,3.762-3.762,3.762
	s-3.762-1.684-3.762-3.762c0-2.077,1.684-3.76,3.762-3.76S176.496,56.185,176.496,58.262"/>
<g>
	
		<line fill="none" stroke="#3DCFAD" stroke-width="4" stroke-linecap="round" stroke-linejoin="round" stroke-miterlimit="10" x1="112.283" y1="294.312" x2="112.283" y2="309.356"/>
	
		<line fill="none" stroke="#3DCFAD" stroke-width="4" stroke-linecap="round" stroke-linejoin="round" stroke-miterlimit="10" x1="119.805" y1="301.834" x2="104.76" y2="301.834"/>
	
		<circle fill="none" stroke="#3DCFAD" stroke-width="4" stroke-linecap="round" stroke-linejoin="round" stroke-miterlimit="10" cx="112.282" cy="301.834" r="2.507"/>
</g>
<g>
	
		<line fill="#3DCFAD" stroke="#3DCFAD" stroke-width="4" stroke-linecap="round" stroke-linejoin="round" stroke-miterlimit="10" x1="133.32" y1="231.416" x2="122.682" y2="242.054"/>
	
		<line fill="#3DCFAD" stroke="#3DCFAD" stroke-width="4" stroke-linecap="round" stroke-linejoin="round" stroke-miterlimit="10" x1="133.32" y1="242.055" x2="122.682" y2="231.416"/>
	
		<circle fill="#3DCFAD" stroke="#3DCFAD" stroke-width="4" stroke-linecap="round" stroke-linejoin="round" stroke-miterlimit="10" cx="128.001" cy="236.736" r="2.507"/>
</g>
<path fill="#3DCFAD" stroke="#3DCFAD" stroke-miterlimit="10" d="M72.846,240.496c0,2.078-1.684,3.762-3.762,3.762
	s-3.762-1.684-3.762-3.762s1.684-3.761,3.762-3.761S72.846,238.418,72.846,240.496"/>
<polygon fill="none" stroke="#595AA0" stroke-width="4" stroke-linejoin="round" stroke-miterlimit="10" points="501.363,243.92 
	505.797,256.188 494.801,263.208 490.365,250.939 "/>
<g>
	
		<line fill="none" stroke="#3DCFAD" stroke-width="5" stroke-linecap="round" stroke-linejoin="round" stroke-miterlimit="10" x1="274.289" y1="328.627" x2="274.289" y2="343.672"/>
	
		<line fill="none" stroke="#3DCFAD" stroke-width="5" stroke-linecap="round" stroke-linejoin="round" stroke-miterlimit="10" x1="281.813" y1="336.15" x2="266.768" y2="336.15"/>
	
		<circle fill="none" stroke="#3DCFAD" stroke-width="5" stroke-linecap="round" stroke-linejoin="round" stroke-miterlimit="10" cx="274.29" cy="336.15" r="2.507"/>
</g>
<line fill="none" stroke="#3DCFAD" stroke-width="5" stroke-linecap="round" stroke-linejoin="round" stroke-miterlimit="10" x1="396.199" y1="313.033" x2="385.561" y2="323.672"/>
<line fill="none" stroke="#3DCFAD" stroke-width="5" stroke-linecap="round" stroke-linejoin="round" stroke-miterlimit="10" x1="396.199" y1="323.672" x2="385.561" y2="313.033"/>
<circle fill="none" stroke="#3DCFAD" stroke-width="5" stroke-linecap="round" stroke-linejoin="round" stroke-miterlimit="10" cx="390.88" cy="318.354" r="2.507"/>
<path fill="#3DCFAD" stroke="#3DCFAD" stroke-miterlimit="10" d="M315.006,288.291c1.854,0.938,2.598,3.199,1.658,5.054
	c-0.938,1.853-3.199,2.597-5.053,1.659c-1.855-0.938-2.596-3.202-1.66-5.055C310.891,288.094,313.15,287.353,315.006,288.291"/>
<path fill="#231F20" stroke="#595AA0" stroke-width="5" stroke-miterlimit="10" d="M326.307,181.068"/>
<g>
	
		<polygon fill="none" stroke="#595AA0" stroke-width="5" stroke-linecap="round" stroke-linejoin="round" stroke-miterlimit="10" points="
		239.5,370.5 239.5,299.953 195.361,255.902 149.5,301.006 149.5,370.5 	"/>
	
		<circle fill="none" stroke="#595AA0" stroke-width="5" stroke-linecap="round" stroke-linejoin="round" stroke-miterlimit="10" cx="194.547" cy="336.15" r="23.688"/>
	<path fill="none" stroke="#595AA0" stroke-width="5" stroke-linecap="round" stroke-linejoin="round" stroke-miterlimit="10" d="
		M189.52,339.004c-1.965-1.374-2.824-3.383-2.824-5.961c0-4.196,3.402-7.598,7.596-7.598c4.197,0,7.598,3.401,7.598,7.598
		c0,2.85-0.58,4.941-2.9,6.241"/>
	<path fill="none" stroke="#595AA0" stroke-width="5" stroke-linecap="round" stroke-linejoin="round" stroke-miterlimit="10" d="
		M189.5,339v6.643c0,2.504,1.996,4.479,4.5,4.479c2.502,0,4.5-2.085,4.5-4.015V339"/>
	<path fill="none" stroke="#595AA0" stroke-width="5" stroke-linecap="round" stroke-miterlimit="10" d="M178.5,316v-14.154
		c0,0,3.434-10.198,15.146-10.198s15.854,9.138,15.854,9.138V306"/>
</g>
<g>
	<path fill="none" stroke="#595AA0" stroke-width="5" stroke-linecap="round" stroke-linejoin="round" stroke-miterlimit="10" d="
		M358.914,74.276c-7.23,0.001-21.02-1.504-21.469,9.274c-0.299,7.18-0.037,19.771-0.037,19.771"/>
	<path fill="none" stroke="#595AA0" stroke-width="5" stroke-linecap="round" stroke-linejoin="round" stroke-miterlimit="10" d="
		M391.512,74.276c5.309-0.001,11.447-0.896,16.314,1.802c5.863,3.249,4.43,10.9,4.555,16.396c0.133,5.979,0.047-0.57,0.008,5.41
		c-0.008,1.395-0.082,2.789-0.051,4.184"/>
	
		<line fill="none" stroke="#595AA0" stroke-width="5" stroke-linecap="round" stroke-linejoin="round" stroke-miterlimit="10" x1="323" y1="40.5" x2="355" y2="40.5"/>
	
		<line fill="none" stroke="#595AA0" stroke-width="5" stroke-linecap="round" stroke-linejoin="round" stroke-miterlimit="10" x1="337.5" y1="37" x2="337.5" y2="51"/>
	
		<line fill="none" stroke="#595AA0" stroke-width="5" stroke-linecap="round" stroke-linejoin="round" stroke-miterlimit="10" x1="394" y1="40.5" x2="427" y2="40.5"/>
	
		<line fill="none" stroke="#595AA0" stroke-width="5" stroke-linecap="round" stroke-linejoin="round" stroke-miterlimit="10" x1="408.5" y1="37" x2="408.5" y2="51"/>
	<path fill="none" stroke="#595AA0" stroke-width="5" stroke-linecap="round" stroke-linejoin="round" stroke-miterlimit="10" d="
		M335.432,53.555c2.885-1.637,8.809-0.603,11.104-0.691c6.242-0.241,12.648,0.008,18.898,0.129
		c12.906,0.251,25.83-0.195,38.74-0.043c2.883,0.033,5.771,0.014,8.652,0.014c2.313,0,4.115,3.512,3.221,5.428
		c-1,2.152-4.883,2.919-6.982,3.139c-3.309,0.347-6.629,0.732-9.908,1.287c-2.15,0.363-4.742,0.299-6.646,1.502
		c-2.646,1.674-2.342,4.545-2.461,7.324c0,0-1.045,8.857-4.807,8.857c-3.754,0-21.246,0-21.314,0c-2.363,0-4.129-4.836-4.475-6.449
		c-0.576-2.67,0.42-5.825-1.191-8.271c-1.594-2.416-4.84-2.311-7.404-2.674c-4.705-0.668-9.383-1.531-14.09-2.205
		c-1.988-0.288-3.152-3.374-2.932-5.059C333.977,54.771,334.568,54.045,335.432,53.555z"/>
</g>
<g>
	<path fill="none" stroke="#595AA0" stroke-width="5" stroke-linecap="round" stroke-linejoin="round" stroke-miterlimit="10" d="
		M299.988,179.5h56.418c0,0,5.434,1.092,7.521,6.732c2.09,5.643,6.27,19.456,6.27,19.456l1.047,3.356c0,0,7.441-0.621,7.441,5.856
		s-7.186,5.647-7.186,5.647V257.5h-90v-36.533c0,0-5.881,0.053-5.881-5.588c0-5.643,5.535-6.74,5.535-6.74l5.343,0.208l7.164-23.659
		C293.661,185.188,295.18,179.5,299.988,179.5z"/>
	
		<circle fill="none" stroke="#595AA0" stroke-width="5" stroke-linecap="round" stroke-linejoin="round" stroke-miterlimit="10" cx="297.113" cy="227.757" r="5.693"/>
	<path fill="none" stroke="#595AA0" stroke-width="5" stroke-linecap="round" stroke-linejoin="round" stroke-miterlimit="10" d="
		M365.494,227.757c0,3.144-2.551,5.692-5.695,5.692c-3.141,0-5.691-2.549-5.691-5.692c0-3.145,2.551-5.694,5.691-5.694
		C362.943,222.063,365.494,224.612,365.494,227.757z"/>
	<path fill="none" stroke="#595AA0" stroke-width="5" stroke-linecap="round" stroke-linejoin="round" stroke-miterlimit="10" d="
		M349.904,255.436c0,0-2.438-16.936-5.781-16.936c-3.342,0-12.791,0-12.791,0h-3.762c0,0-11.492,0-14.836,0
		s-6.016,16.931-6.016,16.931"/>
	<path fill="none" stroke="#595AA0" stroke-width="5" stroke-linecap="round" stroke-linejoin="round" stroke-miterlimit="10" d="
		M304.5,260v0.668c0,4.387-3.055,8.832-7.439,8.832h-4.178c-4.385,0-8.383-4.445-8.383-8.832V260"/>
	<path fill="none" stroke="#595AA0" stroke-width="5" stroke-linecap="round" stroke-linejoin="round" stroke-miterlimit="10" d="
		M370.5,260v0.668c0,4.387-2.605,8.832-6.99,8.832h-4.178c-4.385,0-8.832-4.445-8.832-8.832V260"/>
	
		<polyline fill="none" stroke="#595AA0" stroke-width="5" stroke-linecap="round" stroke-linejoin="round" stroke-miterlimit="10" points="
		304.658,188.694 299.047,207.5 327,207.5 	"/>
</g>
<g>
	<path fill="none" stroke="#595AA0" stroke-width="5" stroke-linecap="round" stroke-linejoin="round" stroke-miterlimit="10" d="
		M444,363.5h-19.891l0.18-67.98c0,0-0.314-7.02,6.861-7.02s78.504,0,78.504,0s6.846,0.284,6.846,7.304c0,4.497,0,67.696,0,67.696
		H469"/>
	
		<rect x="430.5" y="297.5" fill="none" stroke="#595AA0" stroke-width="5" stroke-linecap="round" stroke-linejoin="round" stroke-miterlimit="10" width="77" height="38"/>
	
		<rect x="491.5" y="343.5" fill="none" stroke="#595AA0" stroke-width="5" stroke-linecap="round" stroke-linejoin="round" stroke-miterlimit="10" width="16" height="8"/>
	
		<polyline fill="none" stroke="#595AA0" stroke-width="5" stroke-linecap="round" stroke-linejoin="round" stroke-miterlimit="10" points="
		444.5,352 444.5,374.5 467.5,374.5 467.5,352 	"/>
	
		<polyline fill="none" stroke="#595AA0" stroke-width="5" stroke-linecap="round" stroke-linejoin="round" stroke-miterlimit="10" points="
		444,351.5 430.5,351.5 430.5,343.5 481.5,343.5 481.5,351.5 468,351.5 	"/>
	
		<line fill="none" stroke="#595AA0" stroke-width="5" stroke-linecap="round" stroke-linejoin="round" stroke-miterlimit="10" x1="437" y1="307.5" x2="483" y2="307.5"/>
	
		<line fill="none" stroke="#595AA0" stroke-width="5" stroke-linecap="round" stroke-linejoin="round" stroke-miterlimit="10" x1="437" y1="315.5" x2="459" y2="315.5"/>
</g>
<g>
	
		<rect x="49.5" y="333.5" fill="none" stroke="#595AA0" stroke-width="5" stroke-linecap="round" stroke-linejoin="round" stroke-miterlimit="10" width="63" height="15"/>
	<path fill="none" stroke="#595AA0" stroke-width="5" stroke-linecap="round" stroke-linejoin="round" stroke-miterlimit="10" d="
		M67.1,333.648c0-7.791,6.316-14.105,14.105-14.105c7.791,0,14.105,6.314,14.105,14.105"/>
	<path fill="none" stroke="#595AA0" stroke-width="5" stroke-linecap="round" stroke-linejoin="round" stroke-miterlimit="10" d="
		M69.891,324.709l-12.107-23.908c-1.816-3.591-0.379-7.977,3.211-9.794l0.418-0.213c3.592-1.817,7.975-0.38,9.795,3.21
		l12.105,23.908"/>
	<path fill="none" stroke="#595AA0" stroke-width="5" stroke-linecap="round" stroke-linejoin="round" stroke-miterlimit="10" d="
		M60.994,291.007l18.424-20.206c2.195-2.648,6.125-3.014,8.771-0.818l0.311,0.256c2.648,2.197,3.012,6.124,0.816,8.771
		l-14.375,17.332"/>
	<path fill="none" stroke="#595AA0" stroke-width="5" stroke-linecap="round" stroke-linejoin="round" stroke-miterlimit="10" d="
		M87.039,266.381c0.877-4.285,4.666-6.548,9.211-6.548l0,0c5.193,0,9.404,4.21,9.404,9.403l0,0c0,5.193-4.211,9.403-9.404,9.403l0,0
		c-2.016,0-3.121-0.151-4.652-1.231"/>
	<path fill="none" stroke="#595AA0" stroke-width="5" stroke-linecap="round" stroke-linejoin="round" stroke-miterlimit="10" d="
		M104.461,261.314c1.324-4.022,5.658-6.213,9.682-4.889"/>
	<path fill="none" stroke="#595AA0" stroke-width="5" stroke-linecap="round" stroke-linejoin="round" stroke-miterlimit="10" d="
		M117.527,263.581c-1.609,3.918-6.092,5.787-10.01,4.177"/>
</g>
<g>
	
		<polygon fill="none" stroke="#595AA0" stroke-width="5" stroke-linecap="round" stroke-linejoin="round" stroke-miterlimit="10" points="
		74.074,50.758 66.955,84.039 88.082,86.111 101.943,70.178 	"/>
	
		<polygon fill="none" stroke="#595AA0" stroke-width="5" stroke-linecap="round" stroke-linejoin="round" stroke-miterlimit="10" points="
		71.551,95.639 99.955,116.254 106.721,82.241 92.547,97.553 	"/>
</g>
<polygon fill="none" stroke="#595AA0" stroke-width="5" stroke-linecap="round" stroke-linejoin="round" stroke-miterlimit="10" points="
	348.807,290.084 323.652,313.01 339.627,326.986 360.172,322.093 "/>
<polygon fill="none" stroke="#595AA0" stroke-width="5" stroke-linecap="round" stroke-linejoin="round" stroke-miterlimit="10" points="
	320.641,325.118 331.748,358.411 357.039,334.684 336.604,338.891 "/>
<g>
	
		<polygon fill="none" stroke="#595AA0" stroke-width="5" stroke-linecap="round" stroke-linejoin="round" stroke-miterlimit="10" points="
		466.641,34.791 456.898,67.4 477.793,71.146 492.877,56.364 	"/>
	
		<polygon fill="none" stroke="#595AA0" stroke-width="5" stroke-linecap="round" stroke-linejoin="round" stroke-miterlimit="10" points="
		460.557,79.329 487.232,102.137 496.68,68.77 481.334,82.905 	"/>
</g>
<g>
	
		<rect x="434.5" y="119.5" fill="none" stroke="#595AA0" stroke-width="5" stroke-linecap="round" stroke-linejoin="round" stroke-miterlimit="10" width="103" height="102"/>
	
		<line fill="none" stroke="#595AA0" stroke-width="5" stroke-linecap="round" stroke-linejoin="round" stroke-miterlimit="10" x1="436" y1="147.5" x2="537" y2="147.5"/>
	
		<line fill="none" stroke="#595AA0" stroke-width="5" stroke-linecap="round" stroke-linejoin="round" stroke-miterlimit="10" x1="463" y1="206.5" x2="510" y2="206.5"/>
	
		<line fill="none" stroke="#595AA0" stroke-width="5" stroke-linecap="round" stroke-linejoin="round" stroke-miterlimit="10" x1="486.5" y1="209" x2="486.5" y2="219"/>
	
		<rect x="473.5" y="173.5" fill="none" stroke="#595AA0" stroke-width="5" stroke-linecap="round" stroke-linejoin="round" stroke-miterlimit="10" width="27" height="22"/>
	
		<rect x="479.5" y="142.5" fill="#595AA0" stroke="#595AA0" stroke-width="5" stroke-linecap="round" stroke-linejoin="round" stroke-miterlimit="10" width="13" height="10"/>
	
		<line fill="none" stroke="#595AA0" stroke-width="5" stroke-linecap="round" stroke-linejoin="round" stroke-miterlimit="10" x1="485.5" y1="151" x2="485.5" y2="159"/>
</g>
</svg>
