<svg xmlns="http://www.w3.org/2000/svg" xmlns:xlink="http://www.w3.org/1999/xlink" viewBox="0 0 202 89">
    <defs>
        <path id="a" d="M0 0h201.42v89H0z"/>
        <path id="c" d="M0 0h201.42v89H0z"/>
        <path id="e" d="M0 .601h48.753v87.797H0z"/>
        <path id="g" d="M0 11.897L24.377.192V49.26z"/>
        <path id="i" d="M.956 49.26V.193l24.376 11.704z"/>
        <path id="k" d="M0 .601h48.753v87.797H0z"/>
        <path id="m" d="M0 .601h48.753v87.797H0z"/>
        <path id="o" d="M0 .601h48.753v87.797H0z"/>
        <path id="q" d="M.007 38.092l24.37 12.859V.716z"/>
        <path id="s" d="M0 .601h48.753v87.797H0z"/>
        <path id="u" d="M.956.717V50.95l24.37-12.86z"/>
        <path id="w" d="M0 .601h48.753v87.797H0z"/>
    </defs>
    <g fill="none" fill-rule="evenodd">
        <mask id="b" fill="#fff">
            <use xlink:href="#a"/>
        </mask>
        <g fill="#FFF" fill-rule="nonzero" mask="url(#b)">
            <path d="M149.83 75.77h-7.784a.505.505 0 0 1-.5-.512V13.742c0-.284.223-.512.5-.512h7.785c.276 0 .499.228.499.512v61.516a.503.503 0 0 1-.5.512zM181.697 75.77h-7.785a.505.505 0 0 1-.499-.512V21.273h-18.725a.505.505 0 0 1-.499-.512v-7.019c0-.284.223-.512.5-.512h46.234c.274 0 .497.228.497.512v7.019a.505.505 0 0 1-.499.512h-18.725v53.985a.506.506 0 0 1-.499.512zM89.88 42.135h-6.708a.51.51 0 0 1-.503-.517V26.811l-4.366 14.951a.506.506 0 0 1-.482.373h-5.776a.506.506 0 0 1-.482-.373l-4.366-14.951v14.807a.51.51 0 0 1-.504.517h-6.707a.51.51 0 0 1-.504-.517V13.747a.51.51 0 0 1 .504-.517h10.886c.234 0 .435.163.49.397l3.552 15.445 3.588-15.445a.513.513 0 0 1 .494-.397h10.887a.51.51 0 0 1 .503.517v27.871a.513.513 0 0 1-.506.517zM78.308 75.255H71a.51.51 0 0 1-.504-.517v-9.035L60.96 47.105a.523.523 0 0 1 .016-.505.498.498 0 0 1 .429-.248h8.72c.196 0 .377.118.456.303l4.085 9.15.44-.924 3.682-8.23c.082-.184.26-.301.457-.301h8.72c.175 0 .337.093.428.247a.524.524 0 0 1 .016.505l-9.6 18.599v9.035a.51.51 0 0 1-.501.52zM128.026 44.2s7.79-4.819 7.539-14.453c-.25-9.636-6.115-15.399-15.329-16.43l-24.793-.087v62.453l23.285.087s19.097-.258 19.097-17.55c.002-8.43-4.857-12.214-9.8-14.02zm-23.913-22.713h14.406s8.21-.344 8.294 9.206c.084 9.55-7.622 10.064-7.622 10.064h-15.076v-19.27h-.002zm15.076 46.025h-15.076V48.5h14.406s10.722.214 10.722 9.205c0 8.946-10.052 9.807-10.052 9.807z"/>
        </g>
        <g>
            <mask id="d" fill="#fff">
                <use xlink:href="#c"/>
            </mask>
            <g mask="url(#d)">
                <path fill="#DD464C" fill-rule="nonzero" d="M48.753 38.092l-.012-.005L24.377.717.012 38.087 0 38.092l13.673 6.14L0 50.384 24.377 88.28v.003l24.376-37.9-13.66-6.15z"/>
                <mask id="f" fill="#fff">
                    <use xlink:href="#e"/>
                </mask>
                <g mask="url(#f)">
                    <g transform="translate(0 38.486)">
                        <mask id="h" fill="#fff">
                            <use xlink:href="#g"/>
                        </mask>
                        <path fill="#DD464C" fill-rule="nonzero" d="M12.034 5.364L0 11.897l24.377 12.6V11.649z" mask="url(#h)"/>
                    </g>
                    <g transform="translate(23.42 38.486)">
                        <mask id="j" fill="#fff">
                            <use xlink:href="#i"/>
                        </mask>
                        <path fill="#C23D43" fill-rule="nonzero" d="M.956 11.65v12.847l24.376-12.6-12.02-6.533z" mask="url(#j)"/>
                    </g>
                </g>
                <mask id="l" fill="#fff">
                    <use xlink:href="#k"/>
                </mask>
                <g fill="#FDCC59" fill-rule="nonzero" mask="url(#l)">
                    <path d="M24.377 50.951V38.328l-12.175 6.198zM.012 38.087L24.377 25.48V.717z"/>
                </g>
                <g>
                    <mask id="n" fill="#fff">
                        <use xlink:href="#m"/>
                    </mask>
                    <path fill="#FD8B19" fill-rule="nonzero" d="M24.377.717V50.95l24.369-12.86z" mask="url(#n)"/>
                </g>
                <g>
                    <mask id="p" fill="#fff">
                        <use xlink:href="#o"/>
                    </mask>
                    <g mask="url(#p)">
                        <mask id="r" fill="#fff">
                            <use xlink:href="#q"/>
                        </mask>
                        <path fill="#DD464C" fill-rule="nonzero" d="M12.034 44.613L0 38.092 24.377 25.48v12.848z" mask="url(#r)"/>
                    </g>
                </g>
                <g>
                    <mask id="t" fill="#fff">
                        <use xlink:href="#s"/>
                    </mask>
                    <g mask="url(#t)">
                        <g transform="translate(23.42)">
                            <mask id="v" fill="#fff">
                                <use xlink:href="#u"/>
                            </mask>
                            <path fill="#C23D43" fill-rule="nonzero" d="M.956 38.328V25.48l24.376 12.612-12.02 6.52z" mask="url(#v)"/>
                        </g>
                    </g>
                </g>
                <g>
                    <mask id="x" fill="#fff">
                        <use xlink:href="#w"/>
                    </mask>
                    <g fill-rule="nonzero" mask="url(#x)">
                        <path fill="#FDCC59" d="M0 50.383l24.377 37.9v-25.3z"/>
                        <path fill="#FD8B19" d="M24.377 62.983v25.3l24.376-37.9z"/>
                    </g>
                </g>
            </g>
        </g>
    </g>
</svg>
