<?xml version="1.0" encoding="UTF-8" standalone="no"?><!DOCTYPE svg PUBLIC "-//W3C//DTD SVG 1.1//EN" "http://www.w3.org/Graphics/SVG/1.1/DTD/svg11.dtd"><svg width="100%" height="100%" viewBox="0 0 1077 728" version="1.1" xmlns="http://www.w3.org/2000/svg" xmlns:xlink="http://www.w3.org/1999/xlink" xml:space="preserve" xmlns:serif="http://www.serif.com/" style="fill-rule:evenodd;clip-rule:evenodd;stroke-linejoin:round;stroke-miterlimit:1.41421;"><path d="M64.873,0.007l949.829,-0.007c0,0 38.291,15.571 39.313,38.787c0.017,0.402 0.064,1.465 0.064,2.164c0.001,2.172 0.072,621.517 0.072,621.517c5.452,0.041 21.908,0.001 22.472,0.001c0.034,0 0.002,31.367 0.002,31.478c0.036,20.218 -8.604,33.49 -22.35,33.521c-0.875,0.002 -1029.63,-0.026 -1030.17,-0.026c-16.853,0 -24.022,-15.753 -24,-31.555c0,-0.197 0.009,-0.002 0,0c-0.184,0.042 -0.07,-33.231 -0.07,-33.386c0,-0.015 21.116,-0.039 22.082,-0.041c0,0 -0.081,-620 -0.042,-620.22c6.231,-35.235 42.798,-42.233 42.798,-42.233Z" style="fill:url(#_Linear1);"/><path d="M59.196,41.292l956.289,-1.313l1.28,594.12l-955.24,0.245l-2.329,-593.052Z" style="fill:url(#_Radial2);"/><path d="M620.496,666.961c0,-2.108 -1.711,-3.819 -3.819,-3.819l-138.05,0c-2.108,0 -3.82,1.711 -3.82,3.819l0,7.638c0,2.108 1.712,3.819 3.82,3.819l138.05,0c2.108,0 3.819,-1.711 3.819,-3.819l0,-7.638Z" style="fill:url(#_Linear3);"/><defs><linearGradient id="_Linear1" x1="0" y1="0" x2="1" y2="0" gradientUnits="userSpaceOnUse" gradientTransform="matrix(-571.379,-334.9,334.9,-571.379,1131.34,749.906)"><stop offset="0" style="stop-color:#3554d1;stop-opacity:1"/><stop offset="1" style="stop-color:#1d3181;stop-opacity:1"/></linearGradient><radialGradient id="_Radial2" cx="0" cy="0" r="1" gradientUnits="userSpaceOnUse" gradientTransform="matrix(781.35,-486.974,1295.94,326.536,204.325,564.563)"><stop offset="0" style="stop-color:#3069ed;stop-opacity:1"/><stop offset="1" style="stop-color:#77ccef;stop-opacity:1"/></radialGradient><linearGradient id="_Linear3" x1="0" y1="0" x2="1" y2="0" gradientUnits="userSpaceOnUse" gradientTransform="matrix(145.689,0,0,15.2762,474.807,670.78)"><stop offset="0" style="stop-color:#49a438;stop-opacity:1"/><stop offset="1" style="stop-color:#6fea83;stop-opacity:1"/></linearGradient></defs></svg>