<svg width="103" height="135" viewBox="0 0 103 135" version="1.1" xmlns="http://www.w3.org/2000/svg" xmlns:xlink="http://www.w3.org/1999/xlink">
<g id="Canvas" fill="none">
<g id="access 4">
<path id="Oval" d="M 51.5 102.6C 79.9427 102.6 103 79.6322 103 51.3C 103 22.9678 79.9427 0 51.5 0C 23.0573 0 0 22.9678 0 51.3C 0 79.6322 23.0573 102.6 51.5 102.6Z" fill="url(#paint0_radial)"/>
<path id="Shape" d="M 66.8483 33.6794C 67.0804 24.9136 63.7537 16.529 57.6419 10.2024C 50.8338 3.18975 41.2406 -0.54523 31.338 0.0645623C 14.0857 1.1317 0.314864 15.3094 0.00540631 32.3073C -0.149323 40.6157 3.02262 48.543 8.82495 54.5647C 11.2232 57.0039 13.931 59.062 17.0256 60.8151L 16.7935 67.4466C 16.7935 67.9802 16.9482 68.5137 17.335 68.8186L 22.8279 74.4592L 18.5729 78.4991C 17.7992 79.2613 17.7219 80.4809 18.4955 81.2432L 22.5958 85.4355L 18.3408 89.4754C 17.5671 90.2376 17.4898 91.4572 18.2634 92.2194L 23.6789 97.86L 17.954 103.196C 17.1803 103.958 17.1029 105.178 17.8766 105.94L 20.5843 108.76L 18.0313 111.123C 16.6388 112.419 16.0198 113.257 15.9425 115.315C 15.9425 116.84 16.4067 118.364 17.4898 119.584L 28.3208 130.789C 29.0944 131.551 30.3323 131.627 31.1059 130.865L 43.871 118.822C 44.2579 118.44 44.49 117.907 44.49 117.45L 44.49 61.7298C 58.2608 57.0801 66.5388 46.7137 66.8483 33.6794Z" transform="translate(17.1665 3.59998)" fill="url(#paint1_linear)"/>
<path id="Shape_2" d="M 13.8886 64.7929C 14.262 64.4109 14.486 63.876 14.486 63.4176L 14.486 7.56426C 15.6807 7.10582 16.8755 6.64738 18.0702 6.11254L 0 0L 0.373351 77.4C 0.821372 77.4 1.26939 77.2472 1.64274 76.8652L 13.8886 64.7929Z" transform="translate(47.8857 57.6)" fill="url(#paint2_linear)"/>
<g id="Group">
<path id="Shape_3" d="M 36.2721 18.0656L 29.4807 24.8306C 26.5481 21.9094 22.535 20.1413 18.1361 20.1413C 13.7371 20.1413 9.72401 21.9094 6.79137 24.8306L 0 18.0656L 18.1361 0L 36.2721 18.0656Z" transform="translate(32.6807 17.4844)" fill="url(#paint3_linear)"/>
<path id="Shape_4" d="M 18.6763 3.84375L 9.33814 13.1456L 0 3.84375C 2.39242 1.46062 5.71093 0 9.33814 0C 12.9654 0 16.2839 1.5375 18.6763 3.84375Z" transform="translate(41.4785 40.47)" fill="url(#paint4_linear)"/>
</g>
</g>
</g>
<defs>
<radialGradient id="paint0_radial" cx="0.5" cy="0.5" r="0.5" gradientUnits="userSpaceOnUse" gradientTransform="translate(0.0248276 -0.0142947) scale(103 102.6)">
<stop stop-color="#2AFF91"/>
<stop offset="1" stop-color="white" stop-opacity="0.01"/>
</radialGradient>
<linearGradient id="paint1_linear" x2="1" gradientUnits="userSpaceOnUse" gradientTransform="matrix(92.604 -122.488 62.325 181.996 -35.7358 140.912)">
<stop stop-color="#21EA79"/>
<stop offset="1" stop-color="#355CD3"/>
</linearGradient>
<linearGradient id="paint2_linear" x2="1" gradientUnits="userSpaceOnUse" gradientTransform="matrix(38.3004 41.0817 -9.59114 164.052 -15.5289 15.1681)">
<stop stop-color="#196CF2"/>
<stop offset="1" stop-color="#59CEF1"/>
</linearGradient>
<linearGradient id="paint3_linear" x2="1" gradientUnits="userSpaceOnUse" gradientTransform="matrix(20.1308 -14.5753 21.2914 13.7808 6.83483 24.7337)">
<stop stop-color="#00A022"/>
<stop offset="1" stop-color="#2AFF91"/>
</linearGradient>
<linearGradient id="paint4_linear" x2="1" gradientUnits="userSpaceOnUse" gradientTransform="translate(0.0164382 6.58373) scale(18.6791 13.1476)">
<stop stop-color="#00A022"/>
<stop offset="1" stop-color="#2AFF91"/>
</linearGradient>
</defs>
</svg>
