<svg width="119" height="95" viewBox="0 0 119 95" version="1.1" xmlns="http://www.w3.org/2000/svg" xmlns:xlink="http://www.w3.org/1999/xlink">
<g id="Canvas" fill="none">
<g id="MyBit - asset manager-02">
<g id="Group">
<path id="Rectangle-path" d="M 0 0L 11.6 0L 11.6 15.3L 0 15.3L 0 0Z" transform="translate(83.5 6.19995)" fill="url(#paint0_linear)"/>
<path id="Rectangle-path_2" d="M 0 0L 11.6 0L 11.6 15.3L 0 15.3L 0 0Z" transform="translate(13.3999 6.19995)" fill="url(#paint1_linear)"/>
</g>
<path id="Shape" d="M 102.7 39.2L 0 39.2L 0 4.1C 0 1.8 1.9 0 4.1 0L 98.5 0C 100.8 0 102.6 1.9 102.6 4.1L 102.6 39.2L 102.7 39.2Z" transform="translate(3 10)" fill="url(#paint2_linear)"/>
<path id="Rectangle-path_3" d="M 0 0L 102.8 0L 102.8 50.6L 0 50.6L 0 0Z" transform="translate(2.7998 15.4)" fill="url(#paint3_linear)"/>
<path id="Shape_2" fill-rule="evenodd" clip-rule="evenodd" d="M 10.377 0.900024C 10.1768 0.5 10.4771 0 10.9771 0C 14.0767 0.199951 17.0767 1.90002 18.9771 4.80005C 20.7769 7.59998 21.0767 10.9 19.9771 13.8C 19.4771 15 19.6768 16.5 20.377 17.6L 38.0767 45.2C 39.377 47.3 38.7769 50.2 36.6768 51.5C 34.4771 52.8 31.6768 52.2 30.377 50.1L 12.6768 22.4C 11.9771 21.3 10.7769 20.5 9.37695 20.4C 6.27686 20.1 3.37695 18.5 1.57666 15.7C -0.223145 12.9 -0.42334 9.40002 0.676758 6.5C 0.876953 6 1.47705 6 1.77686 6.40002L 4.17676 10.1C 5.27686 11.9 7.57666 12.4 9.37695 11.3L 11.5767 9.80005C 13.377 8.69995 13.877 6.40002 12.7769 4.59998L 10.377 0.900024ZM 34.6768 48.4C 35.2769 48 35.4771 47.2 35.0771 46.6L 16.9771 18.3C 16.5771 17.7 15.7769 17.5 15.1768 17.9C 14.5771 18.3 14.377 19.1 14.7769 19.7L 32.877 48C 33.2769 48.6 34.0771 48.8 34.6768 48.4Z" transform="translate(9.62305 16.9)" fill="url(#paint4_linear)"/>
<path id="Shape_3" fill-rule="evenodd" clip-rule="evenodd" d="M 28.6006 28.9515L 30.001 32.5515C 30.3008 33.3514 30.001 34.1515 29.2007 34.7515L 27.2007 35.9515C 26.501 36.3514 25.6006 36.1515 25.1006 35.5515L 22.6006 32.6515C 21.2007 33.0515 19.7007 33.2515 18.3008 33.2515L 16.7007 36.8514C 16.4009 37.5515 15.6006 37.9515 14.8008 37.7515L 12.6006 37.1515C 11.9009 36.9515 11.3008 36.1515 11.4009 35.3514L 11.7007 31.4515C 10.501 30.7515 9.30078 29.8514 8.30078 28.8514L 4.70068 30.2515C 4.00098 30.5515 3.10059 30.2515 2.70068 29.5515L 1.50098 27.5515C 1.10059 26.8514 1.30078 25.9515 1.90088 25.4515L 4.90088 22.9515C 4.40088 21.2515 4.20068 19.5515 4.30078 17.8514L 0.900879 16.0515C 0.200684 15.6515 -0.199219 14.8514 0.100586 14.0515L 0.900879 11.7515C 1.10059 11.0515 1.90088 10.5515 2.70068 10.6515L 6.50098 11.2515C 7.10059 10.2515 7.80078 9.25146 8.70068 8.45154L 7.30078 4.85144C 7.00098 4.15149 7.30078 3.25146 8.00098 2.85144L 10.001 1.65149C 10.7007 1.25146 11.6006 1.45154 12.1006 2.05151L 14.6006 5.05151C 16.001 4.65149 17.501 4.45154 18.9009 4.45154L 20.4009 0.951538C 20.7007 0.251465 21.501 -0.14856 22.3008 0.0515137L 24.501 0.551514C 25.2007 0.751465 25.8008 1.55151 25.7007 2.35144L 25.4009 6.15149C 26.7007 6.85144 27.9009 7.65149 28.9009 8.75146L 32.501 7.35144C 33.2007 7.05151 34.1006 7.35144 34.501 8.05151L 35.7007 10.0515C 36.1006 10.7515 35.9009 11.6515 35.3008 12.1515L 32.3008 14.6515C 32.8008 16.3514 33.001 18.1515 32.9009 19.8514L 36.2007 21.5515C 36.9009 21.9515 37.3008 22.7515 37.001 23.5515L 36.3008 25.7515C 36.1006 26.4515 35.3008 26.9515 34.501 26.8514L 30.7007 26.2515C 30.2007 27.2515 29.4009 28.1515 28.6006 28.9515ZM 14.4009 11.4514C 10.4009 13.8514 9.00098 19.0515 11.4009 23.0515C 13.7007 27.0515 18.9009 28.3514 23.001 26.0515C 27.001 23.6515 28.4009 18.4514 26.001 14.4514C 23.6011 10.4514 18.4009 9.05151 14.4009 11.4514Z" transform="translate(33.0991 38.9485)" fill="url(#paint5_linear)"/>
<g id="Group_2">
<path id="Shape_4" d="M 35.5 12.7837C 23.2 3.18367 9.7 -1.41633 0 0.383673C 9.7 2.78367 20.5 8.78367 30.9 17.3837L 35.5 12.7837Z" transform="translate(56 0.116333)" fill="url(#paint6_linear)"/>
<path id="Shape_5" d="M 0.975 59.2C -0.325 60.5 -0.325 62.6 0.975 64C 2.275 65.3 4.375 65.3 5.775 64L 64.975 4.8L 60.175 0L 0.975 59.2Z" transform="translate(25.8252 27.9)" fill="url(#paint7_linear)"/>
<path id="Shape_6" d="M 4.6 0L 0 4.6C 8.7 14.9 14.7 25.8 17 35.5C 18.8 25.8 14.2 12.3 4.6 0Z" transform="translate(101.1 27.1)" fill="url(#paint8_linear)"/>
<path id="Shape_7" d="M 19.5 7.625L 12.4 0.525C 11.7 -0.175 10.7 -0.175 10 0.525L 0.5 10.025C 0.2 10.325 0 10.725 0 11.225C 0 11.625 0.2 12.125 0.5 12.425L 7.6 19.525C 8.3 20.125 9.3 20.125 10 19.525L 19.5 10.025C 20.2 9.325 20.2 8.325 19.5 7.625Z" transform="translate(86.6001 11.975)" fill="url(#paint9_linear)"/>
</g>
<path id="Shape_8" d="M 104.5 44.9L 3.2 44.9C 1.4 44.9 0 43.5 0 41.7L 0 0L 107.8 0L 107.8 41.6C 107.8 43.4 106.3 44.9 104.5 44.9Z" transform="translate(0.399902 49.2)" fill="url(#paint10_linear)"/>
<g id="Group_3">
<path id="Rectangle-path_4" d="M 0 0L 11.6 0L 11.6 15.3L 0 15.3L 0 0Z" transform="translate(83.5 49.2)" fill="url(#paint11_linear)"/>
<path id="Rectangle-path_5" d="M 0 0L 11.6 0L 11.6 15.3L 0 15.3L 0 0Z" transform="translate(13.3999 49.2)" fill="url(#paint12_linear)"/>
</g>
</g>
</g>
<defs>
<linearGradient id="paint0_linear" x2="1" gradientUnits="userSpaceOnUse" gradientTransform="matrix(0 -12.706 9.63331 0 5.7644 15.1333)">
<stop stop-color="#273469"/>
<stop offset="0.176" stop-color="#283877"/>
<stop offset="0.5068" stop-color="#2A449B"/>
<stop offset="0.9539" stop-color="#2E56D5"/>
<stop offset="0.9987" stop-color="#2E58DB"/>
</linearGradient>
<linearGradient id="paint1_linear" x2="1" gradientUnits="userSpaceOnUse" gradientTransform="matrix(0 -12.706 9.63331 0 5.8462 15.1333)">
<stop stop-color="#273469"/>
<stop offset="0.176" stop-color="#283877"/>
<stop offset="0.5068" stop-color="#2A449B"/>
<stop offset="0.9539" stop-color="#2E56D5"/>
<stop offset="0.9987" stop-color="#2E58DB"/>
</linearGradient>
<linearGradient id="paint2_linear" x2="1" gradientUnits="userSpaceOnUse" gradientTransform="matrix(0 38.851 -101.786 0 51.3308 0.6372)">
<stop stop-color="#1990F2"/>
<stop offset="1" stop-color="#59CEF1"/>
</linearGradient>
<linearGradient id="paint3_linear" x2="1" gradientUnits="userSpaceOnUse" gradientTransform="matrix(-0.186 50.4041 -102.402 -0.0915525 51.5484 -0.0226)">
<stop stop-color="white" stop-opacity="0.01"/>
<stop offset="0.1063" stop-color="#F9FFFC" stop-opacity="0.1063"/>
<stop offset="0.2455" stop-color="#E9FFF4" stop-opacity="0.2455"/>
<stop offset="0.403" stop-color="#CEFFE6" stop-opacity="0.403"/>
<stop offset="0.5739" stop-color="#A8FFD2" stop-opacity="0.5739"/>
<stop offset="0.7557" stop-color="#77FFB9" stop-opacity="0.7557"/>
<stop offset="0.9438" stop-color="#3DFF9B" stop-opacity="0.9438"/>
<stop offset="1" stop-color="#2AFF91"/>
</linearGradient>
<linearGradient id="paint4_linear" x2="1" gradientUnits="userSpaceOnUse" gradientTransform="matrix(42.6955 4.9641 -3.6872 57.4812 -1.5909 23.3454)">
<stop stop-color="#273469"/>
<stop offset="0.176" stop-color="#283877"/>
<stop offset="0.5068" stop-color="#2A449B"/>
<stop offset="0.9539" stop-color="#2E56D5"/>
<stop offset="0.9987" stop-color="#2E58DB"/>
</linearGradient>
<linearGradient id="paint5_linear" x2="1" gradientUnits="userSpaceOnUse" gradientTransform="matrix(24.2627 -23.7387 23.2982 24.7214 6.13262 30.9592)">
<stop stop-color="#273469"/>
<stop offset="0.176" stop-color="#283877"/>
<stop offset="0.5068" stop-color="#2A449B"/>
<stop offset="0.9539" stop-color="#2E56D5"/>
<stop offset="0.9987" stop-color="#2E58DB"/>
</linearGradient>
<linearGradient id="paint6_linear" x2="1" gradientUnits="userSpaceOnUse" gradientTransform="matrix(9.3333 -15.3333 31.3128 4.57034 -6.0413 45.7015)">
<stop stop-color="#29235C"/>
<stop offset="1" stop-color="#2AFF91"/>
</linearGradient>
<linearGradient id="paint7_linear" x2="1" gradientUnits="userSpaceOnUse" gradientTransform="matrix(9.3333 -15.3333 15.3333 9.3333 36.7508 25.5978)">
<stop stop-color="#29235C"/>
<stop offset="1" stop-color="#2AFF91"/>
</linearGradient>
<linearGradient id="paint8_linear" x2="1" gradientUnits="userSpaceOnUse" gradientTransform="matrix(9.3333 -15.3333 7.50842 19.06 -7.0475 45.5575)">
<stop stop-color="#29235C"/>
<stop offset="1" stop-color="#2AFF91"/>
</linearGradient>
<linearGradient id="paint9_linear" x2="1" gradientUnits="userSpaceOnUse" gradientTransform="matrix(9.3333 -15.3334 15.3718 9.31 -13.1677 48.1311)">
<stop stop-color="#29235C"/>
<stop offset="1" stop-color="#2AFF91"/>
</linearGradient>
<linearGradient id="paint10_linear" x2="1" gradientUnits="userSpaceOnUse" gradientTransform="matrix(0 37.51 -90.0574 0 53.8553 -8.0947)">
<stop stop-color="#273469"/>
<stop offset="0.176" stop-color="#283877"/>
<stop offset="0.5068" stop-color="#2A449B"/>
<stop offset="0.9539" stop-color="#2E56D5"/>
<stop offset="0.9987" stop-color="#2E58DB"/>
</linearGradient>
<linearGradient id="paint11_linear" x2="1" gradientUnits="userSpaceOnUse" gradientTransform="matrix(14.6262 -5.6667 4.29632 19.2915 -1.6276 10.5581)">
<stop stop-color="#00A022"/>
<stop offset="1" stop-color="#2AFF91"/>
</linearGradient>
<linearGradient id="paint12_linear" x2="1" gradientUnits="userSpaceOnUse" gradientTransform="matrix(14.6263 -5.6667 4.29632 19.2916 -1.5459 10.5581)">
<stop stop-color="#00A022"/>
<stop offset="1" stop-color="#2AFF91"/>
</linearGradient>
</defs>
</svg>
