<svg xmlns="http://www.w3.org/2000/svg" xmlns:xlink="http://www.w3.org/1999/xlink" viewBox="0 0 283.46 283.46"><defs><style>.a{fill:url(#a);}.b{fill:url(#b);}.c{fill:url(#c);}.d{fill:url(#d);}.e{fill:url(#e);}.f{fill:url(#f);}.g{fill:url(#g);}.h{fill:url(#h);}.i{fill:url(#i);}.j{fill:url(#j);}.k{fill:url(#k);}.l{fill:url(#l);}.m{fill:url(#m);}</style><linearGradient id="a" x1="1.13" y1="276.23" x2="282.56" y2="7.01" gradientUnits="userSpaceOnUse"><stop offset="0" stop-color="#196cf2"/><stop offset="1" stop-color="#59cef1"/></linearGradient><linearGradient id="b" x1="74.49" y1="185.38" x2="209.94" y2="12.03" gradientUnits="userSpaceOnUse"><stop offset="0" stop-color="#273469"/><stop offset="0.18" stop-color="#283877"/><stop offset="0.51" stop-color="#2a449b"/><stop offset="0.95" stop-color="#2e56d5"/><stop offset="1" stop-color="#2e58db"/></linearGradient><linearGradient id="c" x1="66.56" y1="211.38" x2="111.3" y2="154.12" xlink:href="#b"/><linearGradient id="d" x1="175.89" y1="203.31" x2="190.47" y2="184.66" gradientUnits="userSpaceOnUse"><stop offset="0" stop-color="#00a022"/><stop offset="1" stop-color="#2aff91"/></linearGradient><linearGradient id="e" x1="175.89" y1="250.69" x2="190.47" y2="232.04" xlink:href="#d"/><linearGradient id="f" x1="223.13" y1="203.31" x2="237.7" y2="184.66" xlink:href="#d"/><linearGradient id="g" x1="223.13" y1="250.69" x2="237.7" y2="232.04" xlink:href="#d"/><linearGradient id="h" x1="-2.6" y1="270.67" x2="278.13" y2="2.11" xlink:href="#a"/><linearGradient id="i" x1="55.16" y1="269.32" x2="120.26" y2="186.01" xlink:href="#d"/><linearGradient id="j" x1="123.22" y1="268.61" x2="62.65" y2="188.5" xlink:href="#d"/><linearGradient id="k" x1="65.27" y1="107.45" x2="215.23" y2="73.57" xlink:href="#d"/><linearGradient id="l" x1="66.78" y1="114.14" x2="216.74" y2="80.26" xlink:href="#d"/><linearGradient id="m" x1="69.52" y1="126.25" x2="219.48" y2="92.37" xlink:href="#d"/></defs><title>MyBit-Icon-Set</title><rect class="a" x="0.09" y="5.45" width="283.29" height="272.57" rx="6.51" ry="6.51"/><rect class="b" x="26.26" y="41.18" width="230.95" height="116.28" rx="3.33" ry="3.33"/><rect class="c" x="36.14" y="176.66" width="105.6" height="12.17" rx="2.39" ry="2.39"/><circle class="d" cx="183.13" cy="194.05" r="12.44"/><circle class="e" cx="183.13" cy="241.43" r="12.44"/><circle class="f" cx="230.36" cy="194.05" r="12.44"/><circle class="g" cx="230.36" cy="241.43" r="12.44"/><rect class="h" x="45.73" y="181.48" width="86.41" height="3.25" rx="0.86" ry="0.86"/><path class="i" d="M118.19,181.48H54.55L44.32,262.31a3.89,3.89,0,0,0,3.86,4.38h76.38a3.89,3.89,0,0,0,3.86-4.38Z"/><path class="j" d="M127,181.48H63.32L53.09,266a4,4,0,0,0,3.86,4.58h76.38a4,4,0,0,0,3.86-4.58Z"/><path class="k" d="M104.62,119.62l-2.44-7.31H86l-2.44,7.31H74.93L89.14,79h9.92l14.27,40.6ZM88.56,104.84H99.69L94.13,88.25Z"/><path class="l" d="M152.75,79v7.65h-11v32.94h-8V86.68h-10.9V79Z"/><path class="m" d="M208.53,79v40.6h-7.95V93.29l-11.42,18.85h-.93L176.81,93.35v26.27h-8V79H177l11.66,19.2L200.3,79Z"/></svg>