<svg xmlns="http://www.w3.org/2000/svg" xmlns:xlink="http://www.w3.org/1999/xlink" viewBox="0 0 512 512"><defs><style>.a{fill:#fff;}</style></defs><title>Discrod-icon</title><path class="a" d="M327.07,242.4c0,15.37-11.34,28-25.7,28-14.11,0-25.7-12.6-25.7-28s11.34-28,25.7-28S327.07,227,327.07,242.4Zm-117.68-28c-14.36,0-25.7,12.6-25.7,28s11.59,28,25.7,28c14.36,0,25.7-12.6,25.7-28C235.34,227,223.75,214.43,209.39,214.43ZM475.5,54.91V507C412,450.9,432.32,469.47,358.57,400.91l13.36,46.62H86.16A51.78,51.78,0,0,1,34.5,395.62V54.91A51.78,51.78,0,0,1,86.16,3H423.84A51.78,51.78,0,0,1,475.5,54.91Zm-71.82,238.9c0-81.14-36.29-146.92-36.29-146.92-36.29-27.22-70.81-26.46-70.81-26.46l-3.53,4c42.84,13.1,62.75,32,62.75,32-59.86-32.81-130.18-32.81-188.24-7.31-9.32,4.28-14.87,7.31-14.87,7.31s20.92-19.91,66.28-33l-2.52-3s-34.52-.76-70.81,26.46c0,0-36.29,65.77-36.29,146.92,0,0,21.17,36.54,76.86,38.3,0,0,9.32-11.34,16.88-20.92-32-9.58-44.1-29.74-44.1-29.74,3.71,2.59,9.82,6,10.33,6.3,42.53,23.82,103,31.62,157.25,8.82a144.21,144.21,0,0,0,29-14.87s-12.6,20.66-45.61,30c7.56,9.58,16.63,20.41,16.63,20.41C382.26,330.35,403.68,293.81,403.68,293.81Z"/></svg>