<svg xmlns="http://www.w3.org/2000/svg" xmlns:xlink="http://www.w3.org/1999/xlink" viewBox="0 0 283.46 283.46"><defs><style>.a{fill:url(#a);}.b{fill:url(#b);}.c{fill:url(#c);}.d{fill:url(#d);}.e{fill:url(#e);}.f{fill:url(#f);}.g{fill:url(#g);}.h{fill:url(#h);}.i{fill:url(#i);}</style><linearGradient id="a" x1="35.95" y1="269.52" x2="167.68" y2="96.38" gradientUnits="userSpaceOnUse"><stop offset="0" stop-color="#196cf2"/><stop offset="1" stop-color="#59cef1"/></linearGradient><linearGradient id="b" y1="182.95" x2="203.62" y2="182.95" gradientUnits="userSpaceOnUse"><stop offset="0" stop-color="#273469"/><stop offset="0.18" stop-color="#283877"/><stop offset="0.51" stop-color="#2a449b"/><stop offset="0.95" stop-color="#2e56d5"/><stop offset="1" stop-color="#2e58db"/></linearGradient><linearGradient id="c" x1="165.06" y1="145.23" x2="195.88" y2="104.72" gradientUnits="userSpaceOnUse"><stop offset="0" stop-color="#00a022"/><stop offset="1" stop-color="#2aff91"/></linearGradient><linearGradient id="d" x1="176.29" y1="137.02" x2="229.83" y2="66.66" xlink:href="#a"/><linearGradient id="e" x1="192.86" y1="45.37" x2="205.28" y2="29.03" xlink:href="#a"/><linearGradient id="f" x1="892.3" y1="3250.37" x2="904.73" y2="3234.04" gradientTransform="translate(3513.41 -791.48) rotate(90)" xlink:href="#a"/><linearGradient id="g" x1="-133.26" y1="1814.07" x2="-120.84" y2="1797.74" gradientTransform="translate(1616.3 -1129.82) rotate(45)" xlink:href="#a"/><linearGradient id="h" x1="1589.25" y1="-774.34" x2="1601.67" y2="-790.67" gradientTransform="translate(-426.69 1737.75) rotate(-45)" xlink:href="#a"/><linearGradient id="i" x1="1589.25" y1="-631.02" x2="1601.67" y2="-647.35" gradientTransform="translate(-426.69 1737.75) rotate(-45)" xlink:href="#a"/></defs><title>MyBit-Icon-Set</title><rect class="a" x="9.12" y="113.19" width="185.38" height="139.51" rx="7.14" ry="7.14"/><path class="b" d="M199.52,152.15a45.79,45.79,0,0,1-5-.28v2H128v-40.7H116.9v40.7H51.68v-40.7H40.54v40.7H9.12V165H40.54v39.71H9.12v11.14H40.54v36.83h-21A10.37,10.37,0,0,1,9.12,242.33V123.57a10.37,10.37,0,0,1,10.37-10.37H154.64a45.67,45.67,0,0,1-.46-6.38c0-.92,0-1.83.08-2.74H11.57A11.57,11.57,0,0,0,0,115.64V250.27a11.56,11.56,0,0,0,11.57,11.56H192.06a11.55,11.55,0,0,0,11.56-11.56V152C202.27,152.08,200.91,152.15,199.52,152.15ZM116.9,252.71H51.68V215.88H116.9Zm0-48H51.68V165H116.9Zm77.6,37.59a10.37,10.37,0,0,1-10.37,10.37H128V215.88H194.5Zm0-37.59H128V165H194.5Z"/><path class="c" d="M203.62,117.05v40.76c-1.51.14-3,.21-4.59.21a50.87,50.87,0,0,1-50.87-50.87c0-1,0-2.05.09-3.07h42.4A13,13,0,0,1,203.62,117.05Z"/><path class="d" d="M249.89,107.15a50.88,50.88,0,0,1-46.28,50.66V117.05a13,13,0,0,0-13-13h-42.4a50.87,50.87,0,0,1,101.65,3.07Z"/><path class="e" d="M199.07,49.46A2.48,2.48,0,0,1,196.59,47V27.42a2.48,2.48,0,0,1,5,0V47A2.48,2.48,0,0,1,199.07,49.46Z"/><path class="f" d="M281,109.52H261.43a2.48,2.48,0,1,1,0-5H281a2.48,2.48,0,1,1,0,5Z"/><path class="g" d="M242.58,66.71a2.48,2.48,0,0,1-1.75-4.23l13.83-13.83a2.48,2.48,0,0,1,3.5,3.51L244.33,66A2.47,2.47,0,0,1,242.58,66.71Z"/><path class="h" d="M155.07,65.67a2.47,2.47,0,0,1-1.75-.73L139.49,51.11a2.48,2.48,0,0,1,3.5-3.5l13.83,13.83a2.48,2.48,0,0,1-1.75,4.23Z"/><path class="i" d="M256.41,167a2.47,2.47,0,0,1-1.75-.73l-13.83-13.83a2.48,2.48,0,0,1,3.5-3.5l13.83,13.83a2.48,2.48,0,0,1-1.75,4.23Z"/></svg>