<?xml version="1.0" encoding="UTF-8" standalone="no"?><!DOCTYPE svg PUBLIC "-//W3C//DTD SVG 1.1//EN" "http://www.w3.org/Graphics/SVG/1.1/DTD/svg11.dtd"><svg width="100%" height="100%" viewBox="0 0 95 138" version="1.1" xmlns="http://www.w3.org/2000/svg" xmlns:xlink="http://www.w3.org/1999/xlink" xml:space="preserve" xmlns:serif="http://www.serif.com/" style="fill-rule:evenodd;clip-rule:evenodd;stroke-linejoin:round;stroke-miterlimit:1.41421;"><path d="M31.017,100.286l-31.017,-15.801l0,37.506l31.017,15.222l0,-36.927Z" style="fill:url(#_Linear1);"/><path d="M62.979,67.25l-18.361,8.977l18.342,8.747l0.019,-17.724Z" style="fill:url(#_Linear2);"/><path d="M62.91,84.537l-31.892,15.753l-0.002,36.906l31.91,-15.706l-0.016,-36.953Z" style="fill:url(#_Linear3);"/><path d="M94.067,69.514l-31.159,15.024l-0.002,36.905l31.158,-15.066l0.003,-36.863Z" style="fill:url(#_Linear4);"/><path d="M94.024,32.586l-31.116,15.1l-0.002,36.906l31.158,-15.066l-0.04,-36.94Z" style="fill:url(#_Linear5);"/><path d="M31,69.817l-31,14.668l31.022,15.846l31.912,-15.757l-31.934,-14.757Z" style="fill:url(#_Linear6);"/><path d="M62.892,17.666l-31.818,14.478l31.835,15.968l31.066,-15.51l-31.083,-14.936Z" style="fill:url(#_Linear7);"/><rect x="0.056" y="0" width="62.861" height="31.133" style="fill:url(#_Linear8);"/><path d="M31.025,46.573l-31.007,-15.543l-0.018,37.552l31.052,14.496l-0.027,-36.505Z" style="fill:url(#_Linear9);"/><path d="M62.912,30.69l-31.892,15.882l0.032,36.506l31.876,-15.394l-0.016,-36.994Z" style="fill:url(#_Linear10);"/><path d="M31.038,16.152l-31.008,14.907l30.993,15.522l31.912,-15.846l-31.897,-14.583Z" style="fill:url(#_Linear11);"/><defs><linearGradient id="_Linear1" x1="0" y1="0" x2="1" y2="0" gradientUnits="userSpaceOnUse" gradientTransform="matrix(21.2158,-23.3588,23.3588,21.2158,-5.10374,117.864)"><stop offset="0" style="stop-color:#2a3775;stop-opacity:0.878431"/><stop offset="1" style="stop-color:#3554d1;stop-opacity:0.878431"/></linearGradient><linearGradient id="_Linear2" x1="0" y1="0" x2="1" y2="0" gradientUnits="userSpaceOnUse" gradientTransform="matrix(0.0975565,-24.5296,24.5296,0.0975565,56.5095,79.027)"><stop offset="0" style="stop-color:#29356a;stop-opacity:1"/><stop offset="1" style="stop-color:#3553cd;stop-opacity:1"/></linearGradient><linearGradient id="_Linear3" x1="0" y1="0" x2="1" y2="0" gradientUnits="userSpaceOnUse" gradientTransform="matrix(20.3941,-23.2389,22.9483,20.6524,35.1478,125.608)"><stop offset="0" style="stop-color:#29356a;stop-opacity:1"/><stop offset="1" style="stop-color:#3553cd;stop-opacity:1"/></linearGradient><linearGradient id="_Linear4" x1="0" y1="0" x2="1" y2="0" gradientUnits="userSpaceOnUse" gradientTransform="matrix(20.3941,-23.2389,22.9483,20.6524,67.0378,109.856)"><stop offset="0" style="stop-color:#29356a;stop-opacity:1"/><stop offset="1" style="stop-color:#3553cd;stop-opacity:1"/></linearGradient><linearGradient id="_Linear5" x1="0" y1="0" x2="1" y2="0" gradientUnits="userSpaceOnUse" gradientTransform="matrix(20.3941,-23.2389,22.9483,20.6524,67.0378,73.0046)"><stop offset="0" style="stop-color:#29356a;stop-opacity:1"/><stop offset="1" style="stop-color:#3553cd;stop-opacity:1"/></linearGradient><linearGradient id="_Linear6" x1="0" y1="0" x2="1" y2="0" gradientUnits="userSpaceOnUse" gradientTransform="matrix(20.6384,-23.2233,23.2233,20.6384,35.0808,87.8957)"><stop offset="0" style="stop-color:#29356a;stop-opacity:1"/><stop offset="1" style="stop-color:#3553cd;stop-opacity:1"/></linearGradient><linearGradient id="_Linear7" x1="0" y1="0" x2="1" y2="0" gradientUnits="userSpaceOnUse" gradientTransform="matrix(20.6384,-23.2233,23.2233,20.6384,66.9726,35.7441)"><stop offset="0" style="stop-color:#29356a;stop-opacity:1"/><stop offset="1" style="stop-color:#3553cd;stop-opacity:1"/></linearGradient><linearGradient id="_Linear8" x1="0" y1="0" x2="1" y2="0" gradientUnits="userSpaceOnUse" gradientTransform="matrix(1.42452,-29.8217,29.1451,1.4576,32.6881,33.0759)"><stop offset="0" style="stop-color:#70ec86;stop-opacity:1"/><stop offset="1" style="stop-color:#b2fdcd;stop-opacity:0"/></linearGradient><linearGradient id="_Linear9" x1="0" y1="0" x2="1" y2="0" gradientUnits="userSpaceOnUse" gradientTransform="matrix(21.2158,-23.3588,23.3588,21.2158,-5.01484,64.111)"><stop offset="0" style="stop-color:#469e32;stop-opacity:1"/><stop offset="1" style="stop-color:#78fb96;stop-opacity:1"/></linearGradient><linearGradient id="_Linear10" x1="0" y1="0" x2="1" y2="0" gradientUnits="userSpaceOnUse" gradientTransform="matrix(20.3941,-23.2389,22.9483,20.6524,35.1837,71.4904)"><stop offset="0" style="stop-color:#469e32;stop-opacity:1"/><stop offset="1" style="stop-color:#75f691;stop-opacity:1"/></linearGradient><linearGradient id="_Linear11" x1="0" y1="0" x2="1" y2="0" gradientUnits="userSpaceOnUse" gradientTransform="matrix(1.42542,-29.1635,29.1635,1.42542,31.8724,48.4974)"><stop offset="0" style="stop-color:#469e32;stop-opacity:1"/><stop offset="1" style="stop-color:#75f691;stop-opacity:1"/></linearGradient></defs></svg>