<svg width="177" height="139" viewBox="0 0 177 139" version="1.1" xmlns="http://www.w3.org/2000/svg" xmlns:xlink="http://www.w3.org/1999/xlink">
<g id="Canvas" fill="none">
<g id="Logistics2">
<path id="Oval" d="M 67 134C 104.003 134 134 104.003 134 67C 134 29.9969 104.003 0 67 0C 29.9969 0 0 29.9969 0 67C 0 104.003 29.9969 134 67 134Z" transform="translate(0.5 0.799988)" fill="url(#paint0_radial)"/>
<g id="Group">
<path id="Shape" fill-rule="evenodd" clip-rule="evenodd" d="M 0 13.7C 0 6.10001 6.1001 0 13.7002 0C 21.2998 0 27.3999 6.10001 27.3999 13.7C 27.3999 21.3 21.2998 27.4 13.7002 27.4C 6.1001 27.4 0 21.3 0 13.7ZM 6.8999 13.7C 6.8999 17.4 9.8999 20.5 13.6997 20.5C 17.5 20.5 20.6001 17.5 20.5 13.7C 20.5 10 17.3999 6.89999 13.6997 6.89999C 10 6.89999 6.8999 9.89999 6.8999 13.7Z" transform="translate(53.6001 111.5)" fill="url(#paint1_linear)"/>
<path id="Shape_2" fill-rule="evenodd" clip-rule="evenodd" d="M 0 13.7C 0 6.10001 6.1001 0 13.7002 0C 21.2998 0 27.3999 6.10001 27.3999 13.7C 27.3999 21.3 21.2998 27.4 13.7002 27.4C 6.1001 27.4 0 21.3 0 13.7ZM 6.8999 13.7C 6.8999 17.4 9.8999 20.5 13.6997 20.5C 17.5 20.5 20.5 17.5 20.5 13.7C 20.5 10 17.5 6.89999 13.6997 6.89999C 10 6.89999 6.8999 9.89999 6.8999 13.7Z" transform="translate(125.2 111.5)" fill="url(#paint2_linear)"/>
<path id="Shape_3" fill-rule="evenodd" clip-rule="evenodd" d="M 90.2002 67.2L 95.6001 67.2C 96.7998 67.2 97.7998 68.2 97.7998 69.5L 97.7998 76.2C 97.7998 77.4 96.7998 78.4 95.6001 78.4L 77.7998 78.4C 76.5 69.6 69 62.9 59.8999 62.9C 50.7998 62.9 43.2998 69.7 42 78.4L 6.1001 78.4C 5.3999 74 3.2002 70.1 0 67.3L 34 67.3L 34 4.40002C 34 2 36 0 38.3999 0L 59.2002 0C 65.1001 0 70.5 2.90002 73.7998 7.70001L 87.2002 27.5C 89.2002 30.4 90.2002 33.8 90.2002 37.3L 90.2002 67.2ZM 46.3003 31.5L 73.7002 31.5C 75.3999 31.5 76.5 29.5 75.5 28L 64.8003 12.8C 64.3999 12.2 63.7002 11.9 63 11.9L 46.3003 11.9C 45.1001 11.9 44.1001 12.9 44.1001 14.1L 44.1001 29.3C 44.1001 30.5 45.1001 31.5 46.3003 31.5Z" transform="translate(79 44.3)" fill="url(#paint3_linear)"/>
<path id="Shape_4" d="M 32.9 0C 29.7 2.8 27.5 6.7 26.8 11.1L 2.2 11.1C 1 11.1 0 10.1 0 8.9L 0 2.2C 0 1 1 0 2.2 0L 32.9 0Z" transform="translate(22.7002 111.5)" fill="url(#paint4_linear)"/>
<path id="Shape_5" d="M 78.7 6.6L 78.7 72.1C 78.7 73.3 77.7 74.3 76.5 74.3L 2.2 74.3C 1 74.3 0 73.3 0 72.1L 0 6.6C 0 3 3 0 6.6 0L 72.1 0C 75.8 0 78.7 2.9 78.7 6.6Z" transform="translate(28.1001 30.6)" fill="url(#paint5_linear)"/>
</g>
</g>
</g>
<defs>
<radialGradient id="paint0_radial" cx="0.5" cy="0.5" r="0.5" gradientUnits="userSpaceOnUse" gradientTransform="scale(134)">
<stop stop-color="#2AFF91"/>
<stop offset="1" stop-color="white" stop-opacity="0.01"/>
</radialGradient>
<linearGradient id="paint1_linear" x2="1" gradientUnits="userSpaceOnUse" gradientTransform="matrix(17.3894 -20.8672 20.8672 17.3894 4.4111 24.8466)">
<stop stop-color="#196CF2"/>
<stop offset="1" stop-color="#59CEF1"/>
</linearGradient>
<linearGradient id="paint2_linear" x2="1" gradientUnits="userSpaceOnUse" gradientTransform="matrix(17.7371 -19.4761 19.4761 17.7371 4.6756 23.6091)">
<stop stop-color="#196CF2"/>
<stop offset="1" stop-color="#59CEF1"/>
</linearGradient>
<linearGradient id="paint3_linear" x2="1" gradientUnits="userSpaceOnUse" gradientTransform="matrix(134.246 -54.9505 68.548 107.616 -49.0579 86.619)">
<stop stop-color="#273469"/>
<stop offset="0.176" stop-color="#283877"/>
<stop offset="0.5068" stop-color="#2A449B"/>
<stop offset="0.9539" stop-color="#2E56D5"/>
<stop offset="0.9987" stop-color="#2E58DB"/>
</linearGradient>
<linearGradient id="paint4_linear" x2="1" gradientUnits="userSpaceOnUse" gradientTransform="matrix(134.246 -54.9506 162.872 45.2928 3.391 10.0106)">
<stop stop-color="#273469"/>
<stop offset="0.176" stop-color="#283877"/>
<stop offset="0.5068" stop-color="#2A449B"/>
<stop offset="0.9539" stop-color="#2E56D5"/>
<stop offset="0.9987" stop-color="#2E58DB"/>
</linearGradient>
<linearGradient id="paint5_linear" x2="1" gradientUnits="userSpaceOnUse" gradientTransform="matrix(74.4266 -71.2965 75.5186 70.2655 2.7639 73.4693)">
<stop stop-color="#00A022"/>
<stop offset="1" stop-color="#2AFF91"/>
</linearGradient>
</defs>
</svg>
