<svg xmlns="http://www.w3.org/2000/svg" xmlns:xlink="http://www.w3.org/1999/xlink" viewBox="0 0 283.46 283.46"><defs><style>.a{fill:url(#a);}.b{fill:url(#b);}.c{fill:url(#c);}.d{fill:url(#d);}.e{fill:url(#e);}.f{fill:url(#f);}.g{fill:url(#g);}.h{fill:url(#h);}.i{fill:url(#i);}</style><linearGradient id="a" x1="52.98" y1="206.57" x2="144.58" y2="206.57" gradientUnits="userSpaceOnUse"><stop offset="0" stop-color="#273469"/><stop offset="0.18" stop-color="#283877"/><stop offset="0.51" stop-color="#2a449b"/><stop offset="0.95" stop-color="#2e56d5"/><stop offset="1" stop-color="#2e58db"/></linearGradient><linearGradient id="b" x1="1922.44" y1="2597.94" x2="2039.08" y2="2597.94" gradientTransform="matrix(0.65, -0.45, 0.7, 1.02, -3039.52, -1653.28)" xlink:href="#a"/><linearGradient id="c" x1="-1084.78" y1="4158.98" x2="-992.94" y2="4158.98" gradientTransform="matrix(-0.09, -0.78, 2.4, -0.29, -9921.2, 446.59)" xlink:href="#a"/><linearGradient id="d" x1="52.98" y1="160.77" x2="144.58" y2="160.77" gradientUnits="userSpaceOnUse"><stop offset="0" stop-color="#00a022"/><stop offset="1" stop-color="#2aff91"/></linearGradient><linearGradient id="e" x1="0" y1="69.43" x2="72.13" y2="69.43" xlink:href="#d"/><linearGradient id="f" x1="223.55" y1="72.39" x2="252.83" y2="72.39" xlink:href="#a"/><linearGradient id="g" x1="208.81" y1="42.92" x2="267.88" y2="42.92" xlink:href="#d"/><linearGradient id="h" x1="193.24" y1="114.89" x2="283.46" y2="114.89" xlink:href="#a"/><linearGradient id="i" x1="42.12" y1="259.96" x2="155.44" y2="259.96" gradientUnits="userSpaceOnUse"><stop offset="0" stop-color="#196cf2"/><stop offset="1" stop-color="#59cef1"/></linearGradient></defs><title>MyBit-Icon-Set</title><rect class="a" x="52.98" y="160.77" width="91.6" height="91.6"/><polygon class="b" points="134.8 132.5 61.28 187.05 7.43 91.19 66.58 50.4 134.8 132.5"/><polygon class="c" points="237.15 20.81 242.51 65.38 42.81 104.86 32.47 33.55 237.15 20.81"/><circle class="d" cx="98.78" cy="160.77" r="45.8"/><circle class="e" cx="36.07" cy="69.43" r="36.07"/><rect class="f" x="223.55" y="67.44" width="29.28" height="9.9"/><circle class="g" cx="238.34" cy="42.92" r="29.53"/><path class="h" d="M283,109.27l-19.08-30.5-.05-.07,0,0a3.06,3.06,0,0,0-.33-.41v0l-.06-.05a3,3,0,0,0-.37-.3l-.1-.06a3,3,0,0,0-.4-.21l-.13-.05a3,3,0,0,0-.4-.12l-.19,0-.37,0H215.25l-.34,0-.22,0a3.06,3.06,0,0,0-.41.13l-.12,0a3,3,0,0,0-.47.25l0,0a3,3,0,0,0-.9.91L193.87,109l-.07.11-.08.12h0a3,3,0,0,0,0,3.23l24.11,38.52a3,3,0,0,0,4.18,1l4.26-2.66a3,3,0,0,0,1-4.18l-21.42-34.24,14-22.39h37.08l14,22.44-21.43,34.25a3,3,0,0,0,1,4.18l4.26,2.66a3,3,0,0,0,4.18-1L283,112.49h0a3,3,0,0,0,.39-.87A3,3,0,0,0,283,109.27Z"/><rect class="i" x="42.12" y="249.84" width="113.33" height="20.24"/></svg>