<svg xmlns="http://www.w3.org/2000/svg" viewBox="0 0 650 500"><defs><style>.a{fill:#fff;}</style></defs><title>MyBit-logo-FINAL</title><path class="a" d="M207,391.51v61.1l-29.13-.14q0-29.79,0-59.59l-.23-8.33c0-12-7.29-21.05-18.38-21.94a20,20,0,0,0-7.25.72,18.54,18.54,0,0,0-9.76,5.93,16.49,16.49,0,0,0-2.21,3.5,27.23,27.23,0,0,0-2.29,9.78c-.07.94-.12,1.88-.15,2.83,0,1.32,0,2.63,0,3.91q0,31.59,0,63.17h-29q0-31.58.05-63.17c0-1.28,0-2.59-.05-3.91,0-.94-.07-1.88-.15-2.81a27.47,27.47,0,0,0-2.28-9.8,16.9,16.9,0,0,0-2.22-3.5,18.58,18.58,0,0,0-9.75-5.93,20,20,0,0,0-7.26-.72c-11.09.88-18.37,9.93-18.38,21.94l-.23,8.33q0,29.8,0,59.59l-29.12.14v-61.1c0-2.91.05-5.84.2-8.77,0-.65.07-1.27.11-1.91,1.06-16,7.41-29.65,21.43-38,12.14-7.25,28-9.51,41.61-5.3,8.69,2.7,14.37,7.91,20.28,14.59l.32.38.31-.38c5.91-6.68,11.59-11.89,20.29-14.59,13.56-4.21,29.46-1.95,41.61,5.3,14,8.36,20.37,22,21.44,38,0,.64.07,1.27.1,1.91C206.95,385.67,207,388.6,207,391.51Z"/><path class="a" d="M137.75,392.92q0,29.78,0,59.55h-.21q0-31.58,0-63.17c0-1.28,0-2.59,0-3.91,0-.95.07-1.89.15-2.83l.07.15Z"/><path class="a" d="M585.21,368.09v47.27c0,12.27,8.86,12.48,25.68,11.59v26.58c-40.21,4.55-55-7-55-38.16V368.09H536.14V339.93H555.9V326.09l29.31-29.38v43.22h25.68v28.15Z"/><path class="a" d="M303.37,339.81l-25.13,76.1-29.41-76.1H216.91l46.43,109.59c-5.43,15.41-14,21.94-29.67,21.73V498.3c29,1.57,48-12.69,59.76-45.29l41.21-113.2Z"/><rect class="a" x="490.21" y="339.81" width="29.2" height="113.2"/><path class="a" d="M453.24,354.07c-10.65-11.55-23.77-17.44-39-17.44-15.83,0-28.1,5.43-36.67,16.51V294.48h-.81v0l-28.4,28.4V453.06h29.2V439.69c8.62,11.08,20.84,16.51,36.67,16.51,15.15,0,28.31-5.65,39-17.19,10.87-11.55,16.3-25.81,16.3-42.57S464.11,365.62,453.24,354.07ZM431.3,419.48q-8.85,8.85-22.41,8.83c-9,0-16.51-2.93-22.41-8.83q-8.85-9.17-8.83-23.09c0-9.3,2.93-17,8.83-22.88,5.9-6.11,13.37-9,22.41-9s16.51,2.93,22.41,9c6.11,5.9,9,13.58,9,22.88S437.41,413.37,431.3,419.48Z"/><rect class="a" x="489.49" y="289.3" width="30.39" height="30.43" transform="translate(-67.69 445.33) rotate(-44.93)"/><path class="a" d="M464.19,140.65l-52.13,52.17H412a122.71,122.71,0,0,0-173.74,0h-.09L186,140.65,325.12,1.58Z"/><path class="a" d="M396.67,208.2l-71.5,71.5,0,0L253.57,208.2a100.16,100.16,0,0,1,71.52-29.66h0a102,102,0,0,1,14.3,1A100,100,0,0,1,396.67,208.2Z"/></svg>