<?xml version="1.0" encoding="UTF-8"?>
<svg width="100px" height="101px" viewBox="0 0 100 101" version="1.1" xmlns="http://www.w3.org/2000/svg" xmlns:xlink="http://www.w3.org/1999/xlink">
    <!-- Generator: Sketch 51.3 (57544) - http://www.bohemiancoding.com/sketch -->
    <title>MyBit-GO-01</title>
    <desc>Created with Sketch.</desc>
    <defs>
        <linearGradient x1="-0.00416822975%" y1="50%" x2="100%" y2="50%" id="linearGradient-1">
            <stop stop-color="#001358" offset="0%"></stop>
            <stop stop-color="#125AC4" offset="100%"></stop>
        </linearGradient>
    </defs>
    <g id="Page-1" stroke="none" stroke-width="1" fill="none" fill-rule="evenodd">
        <g id="Old-Landing-Page-Content-Change-0.2" transform="translate(-37.000000, -35.000000)" fill-rule="nonzero">
            <g id="MyBit-GO-01" transform="translate(37.000000, 35.000000)">
                <path d="M29.2874494,67.98512 L29.2874494,78.63052 L24.2064777,78.61234 L24.2064777,68.23156 L24.1659919,66.7812 C24.1659919,64.6905 22.8947368,63.11288 20.9574899,62.95734 C20.5315171,62.9227255 20.1027885,62.9658497 19.6923077,63.0846 C19.0290978,63.2402366 18.4323797,63.6016102 17.9878543,64.11682 C17.834392,64.3017104 17.7051475,64.5053481 17.6032389,64.72282 C17.3630579,65.2602824 17.2257438,65.8378341 17.1983806,66.42568 C17.1862348,66.5893 17.1781377,66.75292 17.1720648,66.91856 L17.1720648,78.60426 L12.111336,78.60426 C12.111336,74.9386333 12.111336,71.2703133 12.111336,67.5993 C12.111336,67.3771 12.111336,67.14884 12.111336,66.91856 C12.111336,66.75494 12.0991903,66.59132 12.0850202,66.42972 C12.0565641,65.840728 11.9193079,65.2620503 11.6801619,64.72282 C11.5754237,64.506001 11.444932,64.3025398 11.291498,64.11682 C10.8467811,63.6028241 10.2511223,63.2416632 9.58906883,63.0846 C9.17791675,62.965738 8.7485042,62.922614 8.32186235,62.95734 C6.38663968,63.11086 5.11538462,64.68848 5.11336032,66.7812 L5.07287449,68.23156 L5.07287449,78.61234 L0,78.63658 L0,67.98512 C0,67.4781 0,66.97512 0.0344129555,66.458 C0.0344129555,66.34488 0.0465587045,66.2358 0.0546558704,66.1247 C0.238866397,63.3371 1.34817814,60.95956 3.79554656,59.50516 C5.91497976,58.24266 8.68421053,57.84876 11.0587045,58.58202 C12.5769231,59.05268 13.5688259,59.95966 14.5991903,61.12318 L14.6558704,61.18984 L14.7105263,61.12318 C15.7408907,59.95966 16.7348178,59.05268 18.2510121,58.58202 C20.6194332,57.84876 23.3947368,58.24266 25.5161943,59.50516 C27.9595142,60.96158 29.0728745,63.34316 29.2591093,66.1247 C29.2591093,66.2358 29.2712551,66.3469 29.2753036,66.458 C29.2793522,66.97108 29.2874494,67.48214 29.2874494,67.98512 Z" id="Shape" fill="#0B3F9C"></path>
                <path d="M95.3137652,63.90876 L95.3137652,72.1443 C95.3137652,74.28146 96.8603239,74.31782 99.7975709,74.1643 L99.7975709,78.78 C92.7773279,79.57386 90.1963563,77.568 90.1963563,72.13218 L90.1963563,63.90876 L86.7550607,63.90876 L86.7550607,59.0042 L90.1963563,59.0042 L90.1963563,56.59232 L95.3117409,51.47364 L95.3117409,59.0042 L99.7975709,59.0042 L99.7975709,63.90876 L95.3137652,63.90876 Z" id="Shape" fill="#0B3F9C"></path>
                <path d="M46.111336,58.984 L41.7246964,72.24126 L36.5910931,58.984 L31.0182186,58.984 L39.1153846,78.07502 C38.1680162,80.7596 36.6720648,81.89888 33.937247,81.8605 L33.937247,86.59336 C38.9979757,86.86606 42.3157895,84.38146 44.3684211,78.70324 L51.5708502,58.984 L46.111336,58.984 Z" id="Shape" fill="#0B3F9C"></path>
                <rect id="Rectangle-path" fill="#0B3F9C" x="78.7307692" y="58.98198" width="5.09716599" height="19.71924"></rect>
                <path d="M72.2672065,61.46658 C70.4089069,59.44658 68.1174089,58.43658 65.4595142,58.43658 C62.6963563,58.43658 60.5546559,59.38194 59.0566802,61.31306 L59.0566802,51.08782 L58.917004,51.08782 L53.9574899,56.0348 L53.9574899,78.71132 L59.0566802,78.71132 L59.0566802,76.38226 C60.5607287,78.31338 62.7004049,79.25874 65.4574899,79.25874 C68.1032389,79.25874 70.3987854,78.275 72.2651822,76.26308 C74.1639676,74.24308 75.111336,71.76858 75.111336,68.84766 C75.111336,65.92674 74.1740891,63.4785 72.2672065,61.46658 Z M68.437247,72.86342 C67.4062078,73.8922733 66.1025641,74.4053533 64.5263158,74.40266 C62.9534413,74.40266 61.6437247,73.8916 60.6133603,72.86342 C59.5823212,71.7995533 59.0681511,70.4589467 59.0708502,68.8416 C59.0708502,67.2256 59.582996,65.88028 60.6133603,64.85614 C61.6437247,63.7916 62.9473684,63.2866 64.5263158,63.2866 C66.1052632,63.2866 67.4068826,63.79766 68.437247,64.85614 C69.5040486,65.8823 70.0080972,67.22156 70.0080972,68.8416 C70.0080972,70.46164 69.5121457,71.79686 68.4453441,72.86342 L68.437247,72.86342 Z" id="Shape" fill="#0B3F9C"></path>
                <rect id="Rectangle-path" fill="#24F281" transform="translate(81.255291, 52.827882) rotate(-44.930000) translate(-81.255291, -52.827882) " x="78.6024574" y="50.1776421" width="5.30566802" height="5.30048"></rect>
                <path d="M74.1882591,24.28848 L65.0789474,33.37848 C61.0662211,29.3647235 55.6199122,27.1061643 49.9383018,27.0997242 C44.2566914,27.0932841 38.8052546,29.3394907 34.7834008,33.34414 L34.7469636,33.37848 L34.7327935,33.37848 L25.6234818,24.28848 L49.9089069,0.0606 L74.1882591,24.28848 Z" id="Shape" fill="url(#linearGradient-1)"></path>
                <path d="M62.4008097,36.05498 L49.917004,48.51232 L37.4230769,36.05296 C40.7206546,32.7288524 45.2175891,30.8650454 49.9048583,30.87974 C50.7405383,30.8800051 51.5751957,30.9380508 52.402834,31.05346 C56.1944643,31.583037 59.7069895,33.3401892 62.4008097,36.05498 Z" id="Shape" fill="#24F281"></path>
                <path d="M84.2773279,91.8393 C84.2773279,97.45692 80.3582996,100.8687 75.2024291,100.8687 C69.4149798,100.8687 65.2591093,96.6166 65.2591093,91.34036 C65.2453876,88.786239 66.2598519,86.3335541 68.0748818,84.5326262 C69.8899116,82.7316983 72.3535274,81.7333264 74.9129555,81.76152 C78.437247,81.76152 81.4109312,83.49266 82.9615385,85.9611 L79.3846154,88.00736 C78.6214575,86.79536 76.9554656,85.85606 74.8866397,85.85606 C71.7834008,85.85606 69.4676113,88.13866 69.4676113,91.36662 C69.4676113,94.49156 71.6781377,96.77416 75.2550607,96.77416 C77.7024291,96.77416 79.3036437,95.6975 79.9635628,93.94616 L75.0445344,93.94616 L75.0445344,90.26572 L84.2773279,90.26572 L84.2773279,91.8393 Z" id="Shape" fill="#24F281"></path>
                <path d="M85.8562753,93.9401 C85.8448023,91.1237595 87.5360993,88.5783621 90.1403008,87.4926531 C92.7445024,86.4069441 95.747774,86.9951445 97.7475353,88.9825543 C99.7472965,90.9699642 100.348975,93.9644482 99.271576,96.5675297 C98.1941772,99.1706111 95.6502824,100.868677 92.8279352,100.8687 C90.9775925,100.889348 89.1965961,100.166924 87.8854622,98.8638879 C86.5743283,97.5608521 85.8431206,95.7865888 85.8562753,93.9401 Z M95.8522267,93.9401 C95.8522267,92.07564 94.5364372,90.84142 92.8279352,90.84142 C91.1194332,90.84142 89.8016194,92.07564 89.8016194,93.9401 C89.8016194,95.80456 91.1174089,97.03676 92.8279352,97.03676 C94.5384615,97.03676 95.8522267,95.80254 95.8522267,93.9401 Z" id="Shape" fill="#24F281"></path>
            </g>
        </g>
    </g>
</svg>