<svg width="130" height="130" viewBox="0 0 130 130" version="1.1" xmlns="http://www.w3.org/2000/svg" xmlns:xlink="http://www.w3.org/1999/xlink">
<g id="Canvas" fill="none">
<g id="MyBit - Products-01">
<path id="Shape" d="M 32 6.50538L 16 22L 0 6.50538C 4 2.48387 9.69697 0 16 0C 17.0909 0 18.1818 0.11828 19.1515 0.236559C 24.1212 0.946237 28.6061 3.19355 32 6.50538Z" transform="translate(49 39)" fill="url(#paint0_linear)"/>
<path id="Shape_2" d="M 0 16.2353L 16 0L 32 16.2353C 28 20.4171 22.303 23 16 23C 14.9091 23 13.8182 22.877 12.8485 22.754C 7.87879 22.016 3.39394 19.6791 0 16.2353Z" transform="translate(49 68)" fill="url(#paint1_linear)"/>
<path id="Shape_3" d="M 6.47059 0L 22 16.0608L 6.47059 32C 2.47059 27.9848 0 22.2662 0 15.9392C 0 14.8441 0.117647 13.749 0.235294 12.7757C 0.941176 7.78707 3.17647 3.40684 6.47059 0Z" transform="translate(40 49)" fill="url(#paint2_linear)"/>
<g id="Group">
<path id="Shape_4" d="M 61.5339 30.8148L 49.9963 42.3704C 45.0688 37.4352 38.3385 34.4259 30.767 34.4259C 23.3156 34.4259 16.4651 37.4352 11.5376 42.3704L 0 30.8148L 30.767 0L 61.5339 30.8148Z" transform="translate(34.3726 0)" fill="url(#paint3_linear)"/>
<path id="Shape_5" d="M 61.5339 11.5556L 30.767 42.3704L 0 11.5556L 11.5376 0C 16.4651 4.93518 23.1954 7.94444 30.767 7.94444C 38.2183 7.94444 45.0688 4.93518 49.9963 0L 61.5339 11.5556Z" transform="translate(34.3726 87.1482)" fill="url(#paint4_linear)"/>
<path id="Shape_6" d="M 34.3725 30.8148C 34.3725 38.2778 37.3771 45.1389 42.3046 50.0741L 30.767 61.6296L 0 30.8148L 30.767 0L 42.3046 11.5556C 37.3771 16.4907 34.3725 23.2315 34.3725 30.8148Z" transform="translate(0.480957 33.9443)" fill="url(#paint5_linear)"/>
<path id="Shape_7" d="M 42.3046 30.8148L 11.5376 61.6296L 0 50.0741C 4.92752 45.1389 7.93211 38.3981 7.93211 30.8148C 7.93211 23.3519 4.92752 16.4907 0 11.5556L 11.5376 0L 42.3046 30.8148Z" transform="translate(87.4937 33.9443)" fill="url(#paint6_linear)"/>
</g>
<path id="Shape_8" d="M 15.5294 32L 0 16.0608L 15.5294 0C 19.5294 4.01521 22 9.73384 22 16.0608C 22 17.1559 21.8824 18.2509 21.7647 19.2243C 21.0588 24.2129 18.8235 28.7148 15.5294 32Z" transform="translate(68 49)" fill="url(#paint7_linear)"/>
</g>
</g>
<defs>
<linearGradient id="paint0_linear" x2="1" gradientUnits="userSpaceOnUse" gradientTransform="translate(0.0593939 11.0535) scale(31.9087 21.9373)">
<stop stop-color="#00A022"/>
<stop offset="1" stop-color="#2AFF91"/>
</linearGradient>
<linearGradient id="paint1_linear" x2="1" gradientUnits="userSpaceOnUse" gradientTransform="translate(31.9672 11.5576) scale(-31.9088 -22.9345)">
<stop stop-color="#00A022"/>
<stop offset="1" stop-color="#2AFF91"/>
</linearGradient>
<linearGradient id="paint2_linear" x2="1" gradientUnits="userSpaceOnUse" gradientTransform="matrix(5.12068e-06 -32.0301 22.0207 7.44826e-06 11.0416 32.0402)">
<stop stop-color="#00A022"/>
<stop offset="1" stop-color="#2AFF91"/>
</linearGradient>
<linearGradient id="paint3_linear" x2="1" gradientUnits="userSpaceOnUse" gradientTransform="matrix(-56.8956 -40.5901 58.9484 -39.1765 52.5555 32.9718)">
<stop stop-color="#4BB0FF"/>
<stop offset="1" stop-color="#003C93"/>
</linearGradient>
<linearGradient id="paint4_linear" x2="1" gradientUnits="userSpaceOnUse" gradientTransform="matrix(-56.8956 -40.5901 58.9484 -39.1765 52.5555 32.9718)">
<stop stop-color="#4BB0FF"/>
<stop offset="1" stop-color="#003C93"/>
</linearGradient>
<linearGradient id="paint5_linear" x2="1" gradientUnits="userSpaceOnUse" gradientTransform="matrix(-39.1157 -59.0401 40.527 -56.9841 36.1319 47.959)">
<stop stop-color="#4BB0FF"/>
<stop offset="1" stop-color="#003C93"/>
</linearGradient>
<linearGradient id="paint6_linear" x2="1" gradientUnits="userSpaceOnUse" gradientTransform="matrix(-39.1157 -59.0401 40.527 -56.9841 36.1319 47.959)">
<stop stop-color="#4BB0FF"/>
<stop offset="1" stop-color="#003C93"/>
</linearGradient>
<linearGradient id="paint7_linear" x2="1" gradientUnits="userSpaceOnUse" gradientTransform="matrix(-5.1207e-06 32.0302 -22.0207 -7.44829e-06 10.9846 0.0108668)">
<stop stop-color="#00A022"/>
<stop offset="1" stop-color="#2AFF91"/>
</linearGradient>
</defs>
</svg>
