<svg xmlns="http://www.w3.org/2000/svg" xmlns:xlink="http://www.w3.org/1999/xlink" viewBox="0 0 283.46 283.46"><defs><style>.a{fill:url(#a);}.b{fill:url(#b);}.c{fill:url(#c);}.d{fill:url(#d);}.e{fill:url(#e);}.f{fill:url(#f);}.g{fill:url(#g);}.h{fill:url(#h);}.i{fill:url(#i);}</style><linearGradient id="a" x1="-20.4" y1="176.76" x2="250.44" y2="20.4" gradientUnits="userSpaceOnUse"><stop offset="0" stop-color="#273469"/><stop offset="0.18" stop-color="#283877"/><stop offset="0.51" stop-color="#2a449b"/><stop offset="0.95" stop-color="#2e56d5"/><stop offset="1" stop-color="#2e58db"/></linearGradient><linearGradient id="b" x1="-6052.4" y1="-1030.73" x2="-6052.4" y2="-1234.12" gradientTransform="translate(-979.99 6205.67) rotate(90)" xlink:href="#a"/><linearGradient id="c" x1="-6166.88" y1="-1141.37" x2="-6214.51" y2="-1141.37" gradientTransform="translate(6295.62 1208.04)" gradientUnits="userSpaceOnUse"><stop offset="0" stop-color="#196cf2"/><stop offset="1" stop-color="#59cef1"/></linearGradient><linearGradient id="d" x1="-6166.88" y1="-1237.06" x2="-6214.51" y2="-1237.06" gradientTransform="translate(6391.31 1303.73)" xlink:href="#c"/><linearGradient id="e" x1="-6097.76" y1="-1141.37" x2="-6145.39" y2="-1141.37" gradientTransform="translate(6226.5 1277.16)" xlink:href="#c"/><linearGradient id="f" x1="-6097.76" y1="-1237.06" x2="-6145.39" y2="-1237.06" gradientTransform="translate(6322.19 1372.85)" xlink:href="#c"/><linearGradient id="g" x1="-6028.64" y1="-1141.37" x2="-6076.27" y2="-1141.37" gradientTransform="translate(6157.37 1346.29)" xlink:href="#c"/><linearGradient id="h" x1="-5986.31" y1="-1169.62" x2="-6009.89" y2="-1210.47" gradientTransform="translate(6151.64 1449.08)" gradientUnits="userSpaceOnUse"><stop offset="0" stop-color="#00a022"/><stop offset="1" stop-color="#2aff91"/></linearGradient><linearGradient id="i" x1="-6028.64" y1="-1237.06" x2="-6076.27" y2="-1237.06" gradientTransform="translate(6253.06 1441.98)" xlink:href="#c"/></defs><title>MyBit-Icon-Set</title><path class="a" d="M63.76,38,50,283.46l-23.39-23L26.95,5a5,5,0,0,1,5-5h185A21.5,21.5,0,0,1,229.2,3.84l27.68,19.23L62.37,30.59Z"/><path class="b" d="M50,283.46V38.19A15.11,15.11,0,0,1,65.08,23.08H256.88V283.46Z"/><rect class="c" x="80.81" y="42.39" width="48.56" height="48.56" rx="0.13" ry="0.13" transform="translate(171.77 -38.42) rotate(90)"/><rect class="d" x="176.5" y="42.39" width="48.56" height="48.56" transform="translate(267.46 -134.11) rotate(90)"/><rect class="e" x="80.81" y="111.51" width="48.56" height="48.56" rx="0.13" ry="0.13" transform="translate(240.89 30.7) rotate(90)"/><rect class="f" x="176.5" y="111.51" width="48.56" height="48.56" transform="translate(336.58 -64.99) rotate(90)"/><rect class="g" x="80.81" y="180.64" width="48.56" height="48.56" rx="0.13" ry="0.13" transform="translate(310.01 99.82) rotate(90)"/><rect class="h" x="129.34" y="245.38" width="48.56" height="27.6" rx="0.13" ry="0.13" transform="translate(412.81 105.56) rotate(90)"/><rect class="i" x="176.5" y="180.64" width="48.56" height="48.56" transform="translate(405.71 4.13) rotate(90)"/></svg>