<svg xmlns="http://www.w3.org/2000/svg" xmlns:xlink="http://www.w3.org/1999/xlink" viewBox="0 0 283.46 283.46"><defs><style>.a{fill:url(#a);}.b{fill:url(#b);}.c{fill:url(#c);}.d{fill:url(#d);}.e{fill:url(#e);}.f{fill:url(#f);}.g{fill:url(#g);}.h{fill:url(#h);}.i{fill:url(#i);}.j{fill:url(#j);}</style><linearGradient id="a" x1="43.59" y1="266.79" x2="240.74" y2="7.68" gradientUnits="userSpaceOnUse"><stop offset="0" stop-color="#196cf2"/><stop offset="1" stop-color="#59cef1"/></linearGradient><linearGradient id="b" x1="113.9" y1="277.37" x2="169.56" y2="204.23" gradientUnits="userSpaceOnUse"><stop offset="0" stop-color="#273469"/><stop offset="0.18" stop-color="#283877"/><stop offset="0.51" stop-color="#2a449b"/><stop offset="0.95" stop-color="#2e56d5"/><stop offset="1" stop-color="#2e58db"/></linearGradient><linearGradient id="c" x1="53.31" y1="206.27" x2="182.07" y2="37.03" xlink:href="#b"/><linearGradient id="d" x1="169.38" y1="139.46" x2="240.24" y2="46.34" gradientUnits="userSpaceOnUse"><stop offset="0" stop-color="#00a022"/><stop offset="1" stop-color="#2aff91"/></linearGradient><linearGradient id="e" x1="196.18" y1="62.68" x2="213.44" y2="39.98" xlink:href="#a"/><linearGradient id="f" x1="202.67" y1="84.17" x2="206.95" y2="78.55" xlink:href="#a"/><linearGradient id="g" x1="202.67" y1="101.12" x2="206.95" y2="95.49" xlink:href="#a"/><linearGradient id="h" x1="202.67" y1="118.06" x2="206.95" y2="112.44" xlink:href="#a"/><linearGradient id="i" x1="202.67" y1="135.01" x2="206.95" y2="129.38" xlink:href="#a"/><linearGradient id="j" x1="102.68" y1="327.11" x2="180.78" y2="224.46" xlink:href="#d"/></defs><title>MyBit-Icon-Set</title><path class="a" d="M56.63,0h170.2a11.31,11.31,0,0,1,11.31,11.31v256.8a0,0,0,0,1,0,0H45.32a0,0,0,0,1,0,0V11.31A11.31,11.31,0,0,1,56.63,0Z"/><rect class="b" x="80.02" y="227.71" width="123.43" height="26.19" rx="4.57" ry="4.57"/><rect class="c" x="60.63" y="31.46" width="114.13" height="180.38"/><rect class="d" x="186.78" y="31.46" width="36.06" height="122.87" rx="3.25" ry="3.25"/><rect class="e" x="194.64" y="41.16" width="20.35" height="20.35"/><circle class="f" cx="204.81" cy="81.36" r="3.53"/><circle class="g" cx="204.81" cy="98.3" r="3.53"/><circle class="h" cx="204.81" cy="115.25" r="3.53"/><circle class="i" cx="204.81" cy="132.19" r="3.53"/><rect class="j" x="45.32" y="268.11" width="192.82" height="15.36"/></svg>