<?xml version="1.0" encoding="UTF-8"?>
<svg viewBox="0 0 139 50" version="1.1" xmlns="http://www.w3.org/2000/svg" xmlns:xlink="http://www.w3.org/1999/xlink">
    <!-- Generator: Sketch 47.1 (45422) - http://www.bohemiancoding.com/sketch -->
    <title>Group 2</title>
    <desc>Created with Sketch.</desc>
    <defs></defs>
    <g id="Symbols" stroke="none" stroke-width="1" fill="none" fill-rule="evenodd">
        <g id="Slack">
            <g id="Group-2">
                <rect id="Rectangle-4" fill="#3FD0AE" x="0" y="0" width="139" height="50" rx="8"></rect>
                <g id="Slack" transform="translate(12.000000, 11.000000)" fill-rule="nonzero" fill="#FFFFFF">
                    <path d="M15.7893962,0.00478052193 C15.4877882,-0.0171409225 15.1477919,0.0376633901 14.8461825,0.141790602 C13.6232961,0.547336622 12.9871752,1.85166327 13.3929758,3.06830273 L14.3690929,5.92905193 L8.84690559,7.78141328 L7.93659403,5.01931129 C7.5307935,3.80267182 6.2256483,3.16694993 5.00824532,3.57249595 C3.79084093,3.97804338 3.11633453,5.28236862 3.52761851,6.49900949 L4.43793007,9.22822862 L1.56990211,10.2037336 C0.352499128,10.6092796 -0.283621718,11.9519677 0.12217881,13.1686086 C0.527980741,14.3852481 1.83312453,15.02097 3.05052892,14.6154239 L5.91307203,13.6728018 L7.76659727,19.1586429 L5.00276187,20.0683836 C3.78535748,20.4739296 3.14923663,21.7782563 3.55503856,22.9948957 C3.96632254,24.2115366 5.27146773,24.88562 6.48887072,24.4745939 L9.21980402,23.5703333 L10.1959198,26.4310825 C10.6017217,27.6477219 11.939769,28.2834438 13.157172,27.8778978 C14.3800598,27.4723504 15.0106972,26.1680252 14.6103802,24.9513843 L13.6616816,22.0906365 L19.1564503,20.2382737 L20.0667605,23.0003757 C20.4725624,24.2170166 21.7777062,24.8527385 22.9951106,24.4471911 C24.2125136,24.041645 24.881538,22.7318384 24.475736,21.5206789 L23.5654259,18.7914584 L26.427969,17.8159548 C27.6453734,17.4049274 28.2869777,16.0677193 27.8756923,14.8510798 C27.4698917,13.6344389 26.1647466,12.9987171 24.9473436,13.4042645 L22.0847991,14.3468866 L20.2312752,8.86104407 L22.9951106,7.95130483 C24.2125136,7.54575741 24.8541193,6.24143216 24.4428339,5.0247913 C24.037032,3.80815183 22.7318882,3.13406707 21.5144838,3.53961449 L18.7835519,4.44935373 L17.8074347,1.58860593 C17.5003419,0.673385279 16.6887395,0.0760262686 15.7893962,0.00478052193 Z M15.8222997,10.3407423 L17.6758235,15.8265834 L12.1810562,17.6789461 L10.327531,12.1931036 L15.8222997,10.3407423 Z" id="Shape"></path>
                </g>
                <text id="Slack" font-family="Montserrat-Regular, Montserrat" font-size="15" font-weight="normal" letter-spacing="1.16666663" fill="#FFFFFF">
                    <tspan x="60.8004428" y="29">Slack</tspan>
                </text>
            </g>
        </g>
    </g>
</svg>