<svg width="116" height="131" viewBox="0 0 116 131" version="1.1" xmlns="http://www.w3.org/2000/svg" xmlns:xlink="http://www.w3.org/1999/xlink">
<g id="Canvas" fill="none">
<g id="Staking">
<path id="Shape" d="M 10.2147 11.6644L 0 0L 10.2147 0L 21.5814 11.6644L 10.2147 11.6644Z" transform="translate(33.2715 5.38354)" fill="url(#paint0_linear)"/>
<path id="Shape_2" d="M 16.6916 16.1507L 0 0L 18.0301 0L 34.1705 16.1507L 16.6916 16.1507Z" transform="translate(37.7676 0)" fill="url(#paint1_linear)"/>
<path id="Shape_3" d="M 0 0L 8.96648 0L 26.9767 20.637L 3.55567 20.637L 0 0Z" transform="translate(72.8374 22.4315)" fill="url(#paint2_linear)"/>
<path id="Shape_4" d="M 0 0L 8.99225 0L 26.9767 20.637L 3.48837 20.637L 0 0Z" transform="translate(79.1318 40.3767)" fill="url(#paint3_linear)"/>
<path id="Shape_5" d="M 0 0L 8.96648 0L 26.9767 19.7397L 3.55567 19.7397L 0 0Z" transform="translate(84.5273 59.2192)" fill="url(#paint4_linear)"/>
<path id="Shape_6" d="M 0 0L 8.96648 0L 26.9767 20.637L 3.55567 20.637L 0 0Z" transform="translate(86.3257 76.2671)" fill="url(#paint5_linear)"/>
<path id="Shape_7" d="M 0 0L 8.99225 0L 26.9767 20.637L 3.48837 20.637L 0 0Z" transform="translate(89.0234 94.2123)" fill="url(#paint6_linear)"/>
<path id="Shape_8" d="M 0 0L 8.96648 0L 26.9767 20.637L 3.55567 20.637L 0 0Z" transform="translate(88.124 110.363)" fill="url(#paint7_linear)"/>
<path id="Shape_9" d="M 92.9771 64.859C 89.0157 40.8979 71.2281 0 71.2281 0L 42.4883 0L 4.03911 47.9223C 3.49538 48.5467 2.95166 49.1711 2.56328 49.7955C 0.932102 52.215 0 55.1028 0 58.2248C 0 61.659 1.16513 64.781 3.02933 67.3566C 5.74796 70.9469 10.0978 73.2883 14.9913 73.2883C 15.1467 73.2883 15.302 73.2883 15.3797 73.2883L 51.9647 73.2883C 53.8289 97.9519 41.0902 113.952 41.0902 113.952L 94.5306 113.952C 99.1912 101.152 96.8609 88.8202 92.9771 64.859Z" transform="translate(0 16.1507)" fill="white"/>
<g id="Group">
<path id="Shape_10" d="M 13.396 0L 26.7919 13.3667L 21.7587 18.3889C 19.5906 16.2255 16.6481 14.912 13.396 14.912C 10.1438 14.912 7.20129 16.2255 5.03316 18.3889L 0 13.3667L 13.396 0Z" transform="translate(15.6738 28.4332)" fill="url(#paint8_linear)"/>
<path id="Shape_11" d="M 13.7831 2.85877L 6.89156 9.73527L 0 2.85877C 1.78096 1.0817 4.1814 0 6.89156 0C 7.35616 0 7.82076 0 8.28536 0.0772641C 10.3761 0.38632 12.3119 1.39075 13.7831 2.85877Z" transform="translate(22.1782 45.4313)" fill="url(#paint9_linear)"/>
</g>
<path id="Shape_12" d="M 2.39646 7.96741L 15.693 0C 15.693 0 18.3214 9.09411 11.4412 12.3937C 4.63832 15.7739 0.695748 13.7619 0.695748 13.7619L 0 8.7722L 2.39646 7.96741Z" transform="translate(69.2402 8.9726)" fill="white"/>
<g id="Group_2">
<path id="Shape_13" d="M 13.3342 0L 26.6684 13.3667L 21.6585 18.3889C 19.5003 16.2255 16.5714 14.912 13.3342 14.912C 10.097 14.912 7.16811 16.2255 5.00997 18.3889L 0 13.3667L 13.3342 0Z" transform="translate(43.2397 28.4332)" fill="url(#paint10_linear)"/>
<path id="Shape_14" d="M 13.7196 2.85877L 6.8598 9.73527L 0 2.85877C 1.77276 1.0817 4.16213 0 6.8598 0C 7.32226 0 7.78472 0 8.24718 0.0772641C 10.3282 0.38632 12.2551 1.39075 13.7196 2.85877Z" transform="translate(49.7139 45.4313)" fill="url(#paint11_linear)"/>
</g>
<path id="Shape_15" d="M 19.7652 30.5068L 0 0L 27.876 20.5439L 19.7652 30.5068Z" transform="translate(19.7827 0.897278)" fill="url(#paint12_linear)"/>
</g>
</g>
<defs>
<linearGradient id="paint0_linear" x2="1" gradientUnits="userSpaceOnUse" gradientTransform="translate(0 5.83219) scale(21.6196 11.6851)">
<stop stop-color="#196CF2"/>
<stop offset="1" stop-color="#59CEF1"/>
</linearGradient>
<linearGradient id="paint1_linear" x2="1" gradientUnits="userSpaceOnUse" gradientTransform="translate(0 8.07534) scale(34.1146 16.1242)">
<stop stop-color="#00A022"/>
<stop offset="1" stop-color="#2AFF91"/>
</linearGradient>
<linearGradient id="paint2_linear" x2="1" gradientUnits="userSpaceOnUse" gradientTransform="translate(0 10.3185) scale(26.9767 20.637)">
<stop stop-color="#196CF2"/>
<stop offset="1" stop-color="#59CEF1"/>
</linearGradient>
<linearGradient id="paint3_linear" x2="1" gradientUnits="userSpaceOnUse" gradientTransform="translate(-0.0354264 10.3185) scale(27.0337 20.6806)">
<stop stop-color="#00A022"/>
<stop offset="1" stop-color="#2AFF91"/>
</linearGradient>
<linearGradient id="paint4_linear" x2="1" gradientUnits="userSpaceOnUse" gradientTransform="translate(0 9.86986) scale(26.9767 19.7397)">
<stop stop-color="#196CF2"/>
<stop offset="1" stop-color="#59CEF1"/>
</linearGradient>
<linearGradient id="paint5_linear" x2="1" gradientUnits="userSpaceOnUse" gradientTransform="translate(0 10.3185) scale(26.9767 20.637)">
<stop stop-color="#00A022"/>
<stop offset="1" stop-color="#2AFF91"/>
</linearGradient>
<linearGradient id="paint6_linear" x2="1" gradientUnits="userSpaceOnUse" gradientTransform="translate(-0.0324806 10.3185) scale(27.0337 20.6806)">
<stop stop-color="#196CF2"/>
<stop offset="1" stop-color="#59CEF1"/>
</linearGradient>
<linearGradient id="paint7_linear" x2="1" gradientUnits="userSpaceOnUse" gradientTransform="translate(0 10.3185) scale(26.9767 20.637)">
<stop stop-color="#00A022"/>
<stop offset="1" stop-color="#2AFF91"/>
</linearGradient>
<linearGradient id="paint8_linear" x2="1" gradientUnits="userSpaceOnUse" gradientTransform="matrix(-12.7842 -13.9159 20.2749 -8.77451 19.8171 20.3564)">
<stop stop-color="#273469"/>
<stop offset="0.176" stop-color="#283E77"/>
<stop offset="0.5068" stop-color="#2A579B"/>
<stop offset="0.9539" stop-color="#2E81D5"/>
<stop offset="0.9987" stop-color="#2E85DB"/>
</linearGradient>
<linearGradient id="paint9_linear" x2="1" gradientUnits="userSpaceOnUse" gradientTransform="matrix(-12.7842 -13.9159 19.702 -9.02969 10.0728 6.32167)">
<stop stop-color="#273469"/>
<stop offset="0.176" stop-color="#283E77"/>
<stop offset="0.5068" stop-color="#2A579B"/>
<stop offset="0.9539" stop-color="#2E81D5"/>
<stop offset="0.9987" stop-color="#2E85DB"/>
</linearGradient>
<linearGradient id="paint10_linear" x2="1" gradientUnits="userSpaceOnUse" gradientTransform="matrix(-12.7252 -13.9159 20.1815 -8.77451 19.7249 20.3553)">
<stop stop-color="#273469"/>
<stop offset="0.176" stop-color="#283E77"/>
<stop offset="0.5068" stop-color="#2A579B"/>
<stop offset="0.9539" stop-color="#2E81D5"/>
<stop offset="0.9987" stop-color="#2E85DB"/>
</linearGradient>
<linearGradient id="paint11_linear" x2="1" gradientUnits="userSpaceOnUse" gradientTransform="matrix(-12.7253 -13.9159 19.6112 -9.02974 10.0255 6.32059)">
<stop stop-color="#273469"/>
<stop offset="0.176" stop-color="#283E77"/>
<stop offset="0.5068" stop-color="#2A579B"/>
<stop offset="0.9539" stop-color="#2E81D5"/>
<stop offset="0.9987" stop-color="#2E85DB"/>
</linearGradient>
<linearGradient id="paint12_linear" x2="1" gradientUnits="userSpaceOnUse" gradientTransform="translate(-0.035593 15.2534) scale(27.9456 30.583)">
<stop stop-color="#00A022"/>
<stop offset="1" stop-color="#2AFF91"/>
</linearGradient>
</defs>
</svg>
