<svg xmlns="http://www.w3.org/2000/svg" xmlns:xlink="http://www.w3.org/1999/xlink" viewBox="0 0 283.46 283.46"><defs><style>.a{fill:url(#a);}.b{fill:url(#b);}.c{fill:url(#c);}.d{fill:url(#d);}.e{fill:url(#e);}.f{fill:url(#f);}.g{fill:url(#g);}.h{fill:url(#h);}.i{fill:url(#i);}.j{fill:url(#j);}.k{fill:url(#k);}.l{fill:url(#l);}.m{fill:url(#m);}.n{fill:url(#n);}</style><linearGradient id="a" x1="70.77" y1="211.86" x2="199.39" y2="84.76" gradientUnits="userSpaceOnUse"><stop offset="0" stop-color="#273469"/><stop offset="0.18" stop-color="#283877"/><stop offset="0.51" stop-color="#2a449b"/><stop offset="0.95" stop-color="#2e56d5"/><stop offset="1" stop-color="#2e58db"/></linearGradient><radialGradient id="b" cx="46.9" cy="46.9" r="46.9" gradientUnits="userSpaceOnUse"><stop offset="0" stop-color="#2aff91"/><stop offset="1" stop-color="#fff" stop-opacity="0"/></radialGradient><radialGradient id="c" cx="236.57" cy="46.9" r="46.9" xlink:href="#b"/><radialGradient id="d" cx="46.9" cy="236.57" r="46.9" xlink:href="#b"/><radialGradient id="e" cx="236.57" cy="236.57" r="46.9" xlink:href="#b"/><linearGradient id="f" x1="41.65" y1="46.9" x2="52.14" y2="46.9" gradientUnits="userSpaceOnUse"><stop offset="0" stop-color="#196cf2"/><stop offset="1" stop-color="#59cef1"/></linearGradient><linearGradient id="g" x1="-1313.21" y1="2092.73" x2="-1302.72" y2="2092.73" gradientTransform="translate(1544.54 -1856.16)" xlink:href="#f"/><linearGradient id="h" x1="-943.82" y1="661.67" x2="-933.34" y2="661.67" gradientTransform="translate(1175.15 -614.77)" xlink:href="#f"/><linearGradient id="i" x1="39.48" y1="54.76" x2="54.17" y2="39.18" xlink:href="#a"/><linearGradient id="j" x1="229.66" y1="54.52" x2="243.77" y2="38.95" xlink:href="#a"/><linearGradient id="k" x1="229.88" y1="246.14" x2="242.81" y2="227.63" xlink:href="#a"/><linearGradient id="l" x1="-457.06" y1="3332.73" x2="-446.58" y2="3332.73" gradientTransform="translate(498.71 -3096.16)" xlink:href="#f"/><linearGradient id="m" x1="39.84" y1="244.37" x2="53.65" y2="229.09" xlink:href="#a"/><linearGradient id="n" x1="130.83" y1="157.35" x2="151.91" y2="127.16" gradientUnits="userSpaceOnUse"><stop offset="0" stop-color="#00a022"/><stop offset="1" stop-color="#2aff91"/></linearGradient></defs><title>MyBit-Icon-Set</title><path class="a" d="M237.42,238.73s-47.75-34.95-95.69-34.95S46,238.73,46,238.73,81,189.67,81,141.73,46,44.73,46,44.73s47.75,36.11,95.69,36.11,95.69-36.11,95.69-36.11-34.95,49.06-34.95,97S237.42,238.73,237.42,238.73Z"/><circle class="b" cx="46.9" cy="46.9" r="46.9"/><circle class="c" cx="236.57" cy="46.9" r="46.9"/><circle class="d" cx="46.9" cy="236.57" r="46.9"/><circle class="e" cx="236.57" cy="236.57" r="46.9"/><rect class="f" x="41.65" y="10.73" width="10.49" height="72.34" rx="2.72" ry="2.72"/><rect class="g" x="231.33" y="200.4" width="10.49" height="72.34" rx="2.72" ry="2.72" transform="translate(473.14 0) rotate(90)"/><rect class="h" x="231.33" y="10.73" width="10.49" height="72.34" rx="2.72" ry="2.72" transform="translate(102.45 -153.54) rotate(45)"/><circle class="i" cx="46.9" cy="46.9" r="11.68"/><circle class="j" cx="236.57" cy="46.9" r="11.68"/><circle class="k" cx="236.57" cy="236.57" r="11.68"/><rect class="l" x="41.65" y="200.4" width="10.49" height="72.34" rx="2.72" ry="2.72" transform="translate(247.34 370.69) rotate(135)"/><circle class="m" cx="46.9" cy="236.57" r="11.68"/><rect class="n" x="134.02" y="122.86" width="15.42" height="37.74" rx="2.14" ry="2.14"/></svg>