<?xml version="1.0" encoding="UTF-8"?>
<svg viewBox="0 0 32 26" version="1.1" xmlns="http://www.w3.org/2000/svg" xmlns:xlink="http://www.w3.org/1999/xlink">
    <!-- Generator: Sketch 47.1 (45422) - http://www.bohemiancoding.com/sketch -->
    <title>Icon/Twitter</title>
    <desc>Created with Sketch.</desc>
    <defs></defs>
    <g id="MyBit-HomePage" stroke="none" stroke-width="1" fill="none" fill-rule="evenodd">
        <g id="MyBit-WebDesign-V1" transform="translate(-1186.000000, -5352.000000)" fill="#FFFFFF">
            <g id="Social" transform="translate(956.000000, 5348.000000)">
                <g id="Icon/Twitter" transform="translate(230.000000, 0.000000)">
                    <path d="M28.7419637,11.3153423 C28.7419637,19.9950025 22.1391703,30 10.0636231,30 C6.48484068,29.9981115 2.98545513,28.9724842 0,27.0504748 C0.519693164,27.1071315 1.04205465,27.1374905 1.56497811,27.1414293 C4.5349446,27.1414821 7.41440508,26.1458394 9.71940796,24.3218391 C6.8806506,24.2537545 4.40667459,22.4205045 3.5822389,19.7741129 C3.9899937,19.8526163 4.40470091,19.8917862 4.82034605,19.8910545 C5.40691315,19.8930802 5.99082925,19.8143402 6.55476339,19.6571714 C3.4545593,19.0011743 1.2535932,16.3149798 1.284803,13.2253873 C2.19667428,13.6453982 3.21669727,13.9259202 4.26133,13.966017 C1.36670359,11.9878246 0.487408402,8.19245072 2.22939337,5.1954023 C5.51353137,9.27484704 10.4456031,11.7755131 15.760517,12.055972 C15.647391,11.5655359 15.5905627,11.0643776 15.5910778,10.5617191 C15.5436129,6.9840915 18.4830238,4.04634501 22.1565145,4 C23.9806051,4.00083298 25.7197153,4.75097893 26.9461747,6.06596702 C28.4222409,5.78235265 29.834835,5.24561093 31.1181155,4.48075962 C30.6377908,5.99030095 29.6108573,7.27856254 28.2283094,8.10594703 C29.5320984,7.95392246 30.804167,7.60772186 32,7.07946027 C31.123343,8.3897015 30.0147918,9.53795484 28.7259537,10.4707646 C28.7379612,10.7566217 28.7419637,11.0424788 28.7419637,11.3153423 Z" id="Twitter-Icon"></path>
                </g>
            </g>
        </g>
    </g>
</svg>