<?xml version="1.0" encoding="UTF-8"?>
<svg viewBox="0 0 44 32" version="1.1" xmlns="http://www.w3.org/2000/svg" xmlns:xlink="http://www.w3.org/1999/xlink">
    <!-- Generator: Sketch 47.1 (45422) - http://www.bohemiancoding.com/sketch -->
    <title>Youtube</title>
    <desc>Created with Sketch.</desc>
    <defs></defs>
    <g id="MyBit-HomePage" stroke="none" stroke-width="1" fill="none" fill-rule="evenodd">
        <g id="MyBit-WebDesign-V1" transform="translate(-956.000000, -5349.000000)" fill="#FFFFFF">
            <g id="Social" transform="translate(956.000000, 5348.000000)">
                <g id="Youtube" transform="translate(0.000000, 1.000000)">
                    <g id="icons8-Play-Button-Filled">
                        <path d="M41.898438,5.5 C41.5,3.300781 39.601563,1.699219 37.398438,1.199219 C34.101563,0.5 28,0 21.398438,0 C14.800781,0 8.601563,0.5 5.300781,1.199219 C3.101563,1.699219 1.199219,3.199219 0.800781,5.5 C0.398438,8 0,11.5 0,16 C0,20.5 0.398438,24 0.898438,26.5 C1.300781,28.699219 3.199219,30.300781 5.398438,30.800781 C8.898438,31.5 14.898438,32 21.5,32 C28.101563,32 34.101563,31.5 37.601563,30.800781 C39.800781,30.300781 41.699219,28.800781 42.101563,26.5 C42.5,24 43,20.398438 43.101563,16 C42.898438,11.5 42.398438,8 41.898438,5.5 Z M16,23 L16,9 L28.199219,16 L16,23 Z" id="Shape" fill-rule="nonzero"></path>
                    </g>
                </g>
            </g>
        </g>
    </g>
</svg>