<?xml version="1.0" encoding="UTF-8" standalone="no"?><!DOCTYPE svg PUBLIC "-//W3C//DTD SVG 1.1//EN" "http://www.w3.org/Graphics/SVG/1.1/DTD/svg11.dtd"><svg width="100%" height="100%" viewBox="0 0 54 66" version="1.1" xmlns="http://www.w3.org/2000/svg" xmlns:xlink="http://www.w3.org/1999/xlink" xml:space="preserve" xmlns:serif="http://www.serif.com/" style="fill-rule:evenodd;clip-rule:evenodd;stroke-linejoin:round;stroke-miterlimit:1.41421;"><g><clipPath id="_clip1"><rect id="path188" x="0" y="-0.001" width="53.281" height="65.434"/></clipPath><g clip-path="url(#_clip1)"><path d="M44.496,34.763c-0.074,-8.281 6.763,-12.256 7.073,-12.45c-3.848,-5.629 -9.836,-6.4 -11.972,-6.491c-5.093,-0.516 -9.943,2.998 -12.524,2.998c-2.582,0 -6.574,-2.924 -10.796,-2.841c-5.559,0.082 -10.677,3.229 -13.539,8.202c-5.769,10.009 -1.472,24.842 4.144,32.966c2.751,3.972 6.025,8.446 10.331,8.281c4.148,-0.165 5.715,-2.681 10.722,-2.681c5.006,0 6.417,2.681 10.8,2.603c4.458,-0.087 7.287,-4.058 10.017,-8.042c3.151,-4.61 4.454,-9.072 4.528,-9.307c-0.099,-0.042 -8.693,-3.337 -8.784,-13.238" style="fill:url(#_Linear2);fill-rule:nonzero;"/></g><path id="path190" d="M36.259,10.45c2.285,-2.767 3.827,-6.615 3.403,-10.45c-3.292,0.132 -7.275,2.194 -9.638,4.961c-2.116,2.446 -3.971,6.363 -3.468,10.12c3.67,0.285 7.418,-1.868 9.703,-4.631" style="fill:url(#_Linear3);fill-rule:nonzero;"/></g><defs><linearGradient id="_Linear2" x1="0" y1="0" x2="1" y2="0" gradientUnits="userSpaceOnUse" gradientTransform="matrix(31.7219,-35.2857,35.2857,31.7219,14.2642,56.4871)"><stop offset="0" style="stop-color:#00a022;stop-opacity:1"/><stop offset="1" style="stop-color:#24f281;stop-opacity:1"/></linearGradient><linearGradient id="_Linear3" x1="0" y1="0" x2="1" y2="0" gradientUnits="userSpaceOnUse" gradientTransform="matrix(25.3702,-27.936,27.936,25.3702,14.3618,35.4892)"><stop offset="0" style="stop-color:#00a022;stop-opacity:1"/><stop offset="1" style="stop-color:#24f281;stop-opacity:1"/></linearGradient></defs></svg>