<svg xmlns="http://www.w3.org/2000/svg" xmlns:xlink="http://www.w3.org/1999/xlink" viewBox="0 0 208.52 208.52"><defs><style>.a{opacity:0.3;fill:url(#a);}.b{fill:url(#b);}.c{fill:url(#c);}.d{fill:url(#d);}.e{fill:url(#e);}.f{fill:url(#f);}.g{fill:url(#g);}.h{fill:url(#h);}.i{fill:url(#i);}.j{fill:url(#j);}.k{fill:url(#k);}.l{fill:url(#l);}.m{fill:url(#m);}.n{fill:url(#n);}.o{fill:url(#o);}.p{fill:url(#p);}.q{fill:url(#q);}.r{fill:url(#r);}.s{fill:url(#s);}.t{fill:url(#t);}.u{fill:url(#u);}.v{fill:url(#v);}</style><radialGradient id="a" cx="104.48" cy="85.74" r="67" gradientUnits="userSpaceOnUse"><stop offset="0" stop-color="#2aff91"/><stop offset="1" stop-color="#fff" stop-opacity="0"/></radialGradient><linearGradient id="b" x1="943.27" y1="-1042.67" x2="962.5" y2="-1067.28" gradientTransform="translate(143.69 1535.79) rotate(-45)" gradientUnits="userSpaceOnUse"><stop offset="0" stop-color="#196cf2"/><stop offset="1" stop-color="#59cef1"/></linearGradient><linearGradient id="c" x1="69.32" y1="167.9" x2="106.95" y2="119.75" gradientTransform="matrix(1, 0, 0, 1, 0, 0)" xlink:href="#b"/><linearGradient id="d" x1="43.94" y1="158.2" x2="66.3" y2="129.58" gradientTransform="matrix(1, 0, 0, 1, 0, 0)" xlink:href="#b"/><linearGradient id="e" x1="989.89" y1="-996.05" x2="1009.12" y2="-1020.66" gradientTransform="translate(143.69 1535.79) rotate(-45)" gradientUnits="userSpaceOnUse"><stop offset="0" stop-color="#273469"/><stop offset="0.18" stop-color="#283877"/><stop offset="0.51" stop-color="#2a449b"/><stop offset="0.95" stop-color="#2e56d5"/><stop offset="1" stop-color="#2e58db"/></linearGradient><linearGradient id="f" x1="135.25" y1="167.9" x2="172.88" y2="119.75" gradientTransform="matrix(1, 0, 0, 1, 0, 0)" xlink:href="#e"/><linearGradient id="g" x1="109.86" y1="158.2" x2="132.22" y2="129.58" gradientTransform="matrix(1, 0, 0, 1, 0, 0)" xlink:href="#e"/><linearGradient id="h" x1="954.9" y1="-1007.67" x2="974.12" y2="-1032.28" xlink:href="#b"/><linearGradient id="i" x1="102.29" y1="184.43" x2="139.91" y2="136.27" gradientTransform="matrix(1, 0, 0, 1, 0, 0)" xlink:href="#b"/><linearGradient id="j" x1="76.9" y1="174.73" x2="99.26" y2="146.11" gradientTransform="matrix(1, 0, 0, 1, 0, 0)" xlink:href="#b"/><linearGradient id="k" x1="1005.99" y1="-1058.77" x2="1025.22" y2="-1083.37" xlink:href="#e"/><linearGradient id="l" x1="102.29" y1="112.17" x2="139.91" y2="64.02" gradientTransform="matrix(1, 0, 0, 1, 0, 0)" xlink:href="#e"/><linearGradient id="m" x1="76.9" y1="102.47" x2="99.26" y2="73.85" gradientTransform="matrix(1, 0, 0, 1, 0, 0)" xlink:href="#e"/><linearGradient id="n" x1="970.99" y1="-1070.39" x2="990.22" y2="-1095" xlink:href="#b"/><linearGradient id="o" x1="69.32" y1="128.7" x2="106.95" y2="80.54" gradientTransform="matrix(1, 0, 0, 1, 0, 0)" xlink:href="#b"/><linearGradient id="p" x1="43.94" y1="119" x2="66.3" y2="90.38" gradientTransform="matrix(1, 0, 0, 1, 0, 0)" xlink:href="#b"/><linearGradient id="q" x1="1017.61" y1="-1023.77" x2="1036.84" y2="-1048.38" xlink:href="#e"/><linearGradient id="r" x1="135.25" y1="128.7" x2="172.88" y2="80.54" gradientTransform="matrix(1, 0, 0, 1, 0, 0)" xlink:href="#e"/><linearGradient id="s" x1="109.86" y1="119" x2="132.22" y2="90.38" gradientTransform="matrix(1, 0, 0, 1, 0, 0)" xlink:href="#e"/><linearGradient id="t" x1="982.62" y1="-1035.39" x2="1001.84" y2="-1060" gradientTransform="translate(143.69 1535.79) rotate(-45)" gradientUnits="userSpaceOnUse"><stop offset="0" stop-color="#00a022"/><stop offset="1" stop-color="#2aff91"/></linearGradient><linearGradient id="u" x1="102.29" y1="145.23" x2="139.91" y2="97.07" gradientTransform="matrix(1, 0, 0, 1, 0, 0)" xlink:href="#t"/><linearGradient id="v" x1="76.9" y1="135.53" x2="99.26" y2="106.91" gradientTransform="matrix(1, 0, 0, 1, 0, 0)" xlink:href="#t"/></defs><title>1</title><circle class="a" cx="104.48" cy="85.74" r="67"/><polygon class="b" points="104.48 116.13 71.52 132.66 38.56 116.13 71.52 99.6 104.48 116.13"/><polygon class="c" points="104.48 116.13 71.52 132.66 71.52 171.86 104.48 155.33 104.48 116.13"/><polygon class="d" points="71.52 171.86 38.56 155.33 38.56 116.13 71.52 132.66 71.52 171.86"/><polygon class="e" points="170.41 116.13 137.45 132.66 104.48 116.13 137.45 99.6 170.41 116.13"/><polygon class="f" points="170.41 116.13 137.45 132.66 137.45 171.86 170.41 155.33 170.41 116.13"/><polygon class="g" points="137.45 171.86 104.48 155.33 104.48 116.13 137.45 132.66 137.45 171.86"/><polygon class="h" points="137.45 132.66 104.48 149.19 71.52 132.66 104.48 116.13 137.45 132.66"/><polygon class="i" points="137.45 132.66 104.48 149.19 104.48 188.39 137.45 171.86 137.45 132.66"/><polygon class="j" points="104.48 188.39 71.52 171.86 71.52 132.66 104.48 149.19 104.48 188.39"/><polygon class="k" points="137.45 60.4 104.48 76.93 71.52 60.4 104.48 43.87 137.45 60.4"/><polygon class="l" points="137.45 60.4 104.48 76.93 104.48 116.13 137.45 99.6 137.45 60.4"/><polygon class="m" points="104.48 116.13 71.52 99.6 71.52 60.4 104.48 76.93 104.48 116.13"/><polygon class="n" points="104.48 76.93 71.52 93.46 38.56 76.93 71.52 60.4 104.48 76.93"/><polygon class="o" points="104.48 76.93 71.52 93.46 71.52 132.66 104.48 116.13 104.48 76.93"/><polygon class="p" points="71.52 132.66 38.56 116.13 38.56 76.93 71.52 93.46 71.52 132.66"/><polygon class="q" points="170.41 76.93 137.45 93.46 104.48 76.93 137.45 60.4 170.41 76.93"/><polygon class="r" points="170.41 76.93 137.45 93.46 137.45 132.66 170.41 116.13 170.41 76.93"/><polygon class="s" points="137.45 132.66 104.48 116.13 104.48 76.93 137.45 93.46 137.45 132.66"/><polygon class="t" points="137.45 93.46 104.48 109.99 71.52 93.46 104.48 76.93 137.45 93.46"/><polygon class="u" points="137.45 93.46 104.48 109.99 104.48 149.19 137.45 132.66 137.45 93.46"/><polygon class="v" points="104.48 149.19 71.52 132.66 71.52 93.46 104.48 109.99 104.48 149.19"/></svg>