<?xml version="1.0" encoding="UTF-8"?>
<svg width="1440px" height="661px" viewBox="0 0 1440 661" version="1.1" xmlns="http://www.w3.org/2000/svg" xmlns:xlink="http://www.w3.org/1999/xlink">
    <!-- Generator: Sketch 50.2 (55047) - http://www.bohemiancoding.com/sketch -->
    <title>Twitter Copy 43</title>
    <desc>Created with Sketch.</desc>
    <defs>
        <linearGradient x1="0%" y1="6.123234e-15%" x2="100%" y2="100%" id="linearGradient-1">
            <stop stop-color="#001358" offset="0%"></stop>
            <stop stop-color="#125AC4" offset="100%"></stop>
        </linearGradient>
        <polygon id="path-2" points="0 0 13 0 13 8 0 8"></polygon>
        <linearGradient x1="100%" y1="1.73457102e-30%" x2="3.33066907e-14%" y2="100%" id="linearGradient-4">
            <stop stop-color="#001358" offset="0%"></stop>
            <stop stop-color="#125AC4" offset="100%"></stop>
        </linearGradient>
    </defs>
    <g id="Twitter-Copy-43" stroke="none" stroke-width="1" fill="none" fill-rule="evenodd">
        <g id="Group-5" transform="translate(-151.000000, 0.000000)"></g>
        <polygon id="Rectangle-5" fill="url(#linearGradient-1)" points="-0.402977566 26 1577 130 1499.51547 130 -18 42.7068949"></polygon>
        <path d="M-23.9503627,39.0061653 L1467.16093,127 C1467.16093,483 1467.16093,661 1467.16093,661 C1467.16093,661 970.123832,667.878502 -23.9503627,681.635507 L-23.9503627,39.0061653 Z" id="Path" fill="url(#linearGradient-1)"></path>
        <g id="Page-1-Copy-6" style="mix-blend-mode: overlay;" transform="translate(96.979589, 371.154367) rotate(-85.000000) translate(-96.979589, -371.154367) translate(-232.520411, 177.154367)">
            <path d="M244,281.725379 L240.252925,285 L240.247194,285 C238.640623,283.604806 236.441855,282.738853 234.000478,282.738853 C231.5591,282.738853 229.359377,283.604806 227.753761,285 L227.747075,285 L224,281.725379 L234.000478,273 L244,281.725379 Z" id="Fill-3" fill="#FFFFFF"></path>
            <path d="M473,303.725379 L469.252925,307 L469.247194,307 C467.641578,305.604806 465.441855,304.738853 463.000478,304.738853 C460.5591,304.738853 458.359377,305.604806 456.753761,307 L456.747075,307 L453,303.725379 L463.000478,295 L473,303.725379 Z" id="Fill-5" fill="#FFFFFF"></path>
            <path d="M331.547507,231 L328,227.440279 L328,227.434835 C329.51146,225.908592 330.449576,223.819762 330.449576,221.500454 C330.449576,219.181145 329.51146,217.091408 328,215.566073 L328,215.559721 L331.547507,212 L341,221.500454 L331.547507,231 Z" id="Fill-7" fill="#0B3E9A"></path>
            <path d="M636.995274,238 L637,243.247991 L636.995274,243.252718 C634.752211,243.257444 632.518601,244.102491 630.810546,245.810546 C629.102491,247.518601 628.257444,249.752211 628.252718,251.995274 L628.247991,252 L623,251.995274 L623,238 L636.995274,238 Z" id="Fill-9" fill="#FFFFFF"></path>
            <path d="M576.179297,307 L580,310.933924 L580,310.941076 C578.372214,312.627299 577.362432,314.936691 577.362432,317.5 C577.362432,320.063309 578.372214,322.373595 580,324.059818 L580,324.066076 L576.179297,328 L566,317.5 L576.179297,307 Z" id="Fill-13" fill="#FFFFFF"></path>
            <path d="M179.841023,213 L165,197.5 L179.841023,182 C183.645251,185.933978 186,191.441911 186,197.5 C186,203.558089 183.645251,209.066022 179.841023,213" id="Fill-17" fill="#0B3E9A"></path>
            <path d="M487,216.158977 L471,231 L455,216.158977 C459.06088,212.354749 464.746489,210 471,210 C477.253511,210 482.93912,212.354749 487,216.158977" id="Fill-19" fill="#56C1ED"></path>
            <path d="M168,355.947168 L172.5,351 L177,355.947168 C175.858097,357.215391 174.258765,358 172.5,358 C170.741235,358 169.141903,357.215391 168,355.947168" id="Fill-23" fill="#56C1ED"></path>
            <path d="M328,150.999909 L328,144 L334.999909,144 C335.009091,145.784867 334.320485,147.584424 332.952454,148.952454 C331.584424,150.320485 329.785785,151.009091 328,150.999909" id="Fill-25" fill="#0B3E9A"></path>
            <path d="M38,273.360717 L44.5,267 L51,273.360717 C49.3502355,274.990992 47.0403851,276 44.5,276 C41.9596149,276 39.6497645,274.990992 38,273.360717" id="Fill-27" fill="#56C1ED"></path>
            <path d="M384.639283,358 L391,364 L384.639283,370 C383.009008,368.47714 382,366.344971 382,364 C382,361.655029 383.009008,359.52286 384.639283,358" id="Fill-29" fill="#56C1ED"></path>
            <path d="M383,107.360498 L389.5,101 L396,107.360498 C394.350164,108.990549 392.040393,110 389.5,110 C386.959607,110 384.649836,108.990549 383,107.360498" id="Fill-31" fill="#FB3448"></path>
            <g id="Group-35" transform="translate(646.000000, 380.000000)">
                <mask id="mask-3" fill="white">
                    <use xlink:href="#path-2"></use>
                </mask>
                <g id="Clip-34"></g>
                <path d="M6.5,0 L13,5.65377568 C11.3501638,7.10271 9.04039301,8 6.5,8 C3.95960699,8 1.64983624,7.10271 0,5.65377568 L6.5,0 Z" id="Fill-33" fill="#FB3448" mask="url(#mask-3)"></path>
            </g>
        </g>
        <g id="Page-1-Copy-7" style="mix-blend-mode: overlay;" transform="translate(1298.979589, 475.154367) rotate(-85.000000) translate(-1298.979589, -475.154367) translate(969.479589, 281.154367)">
            <path d="M272,88.8152876 L266.941675,94 L266.93344,94 C264.765717,91.7910896 261.795506,90.4202356 258.499542,90.4202356 C255.204494,90.4202356 252.234283,91.7910896 250.06656,94 L250.058325,94 L245,88.8152876 L258.499542,75 L272,88.8152876 Z" id="Fill-1" fill="#FFFFFF"></path>
            <path d="M244,281.725379 L240.252925,285 L240.247194,285 C238.640623,283.604806 236.441855,282.738853 234.000478,282.738853 C231.5591,282.738853 229.359377,283.604806 227.753761,285 L227.747075,285 L224,281.725379 L234.000478,273 L244,281.725379 Z" id="Fill-3" fill="#FFFFFF"></path>
            <path d="M473,303.725379 L469.252925,307 L469.247194,307 C467.641578,305.604806 465.441855,304.738853 463.000478,304.738853 C460.5591,304.738853 458.359377,305.604806 456.753761,307 L456.747075,307 L453,303.725379 L463.000478,295 L473,303.725379 Z" id="Fill-5" fill="#FFFFFF"></path>
            <path d="M331.547507,231 L328,227.440279 L328,227.434835 C329.51146,225.908592 330.449576,223.819762 330.449576,221.500454 C330.449576,219.181145 329.51146,217.091408 328,215.566073 L328,215.559721 L331.547507,212 L341,221.500454 L331.547507,231 Z" id="Fill-7" fill="#0B3E9A"></path>
            <path d="M636.995274,238 L637,243.247991 L636.995274,243.252718 C634.752211,243.257444 632.518601,244.102491 630.810546,245.810546 C629.102491,247.518601 628.257444,249.752211 628.252718,251.995274 L628.247991,252 L623,251.995274 L623,238 L636.995274,238 Z" id="Fill-9" fill="#FFFFFF"></path>
            <path d="M576.179297,307 L580,310.933924 L580,310.941076 C578.372214,312.627299 577.362432,314.936691 577.362432,317.5 C577.362432,320.063309 578.372214,322.373595 580,324.059818 L580,324.066076 L576.179297,328 L566,317.5 L576.179297,307 Z" id="Fill-13" fill="#FFFFFF"></path>
            <path d="M179.841023,213 L165,197.5 L179.841023,182 C183.645251,185.933978 186,191.441911 186,197.5 C186,203.558089 183.645251,209.066022 179.841023,213" id="Fill-17" fill="#0B3E9A"></path>
            <path d="M487,216.158977 L471,231 L455,216.158977 C459.06088,212.354749 464.746489,210 471,210 C477.253511,210 482.93912,212.354749 487,216.158977" id="Fill-19" fill="#56C1ED"></path>
            <path d="M296,14.8410233 L312,0 L328,14.8410233 C323.93912,18.645251 318.253511,21 312,21 C305.746489,21 300.06088,18.645251 296,14.8410233" id="Fill-21" fill="#56C1ED"></path>
            <path d="M328,150.999909 L328,144 L334.999909,144 C335.009091,145.784867 334.320485,147.584424 332.952454,148.952454 C331.584424,150.320485 329.785785,151.009091 328,150.999909" id="Fill-25" fill="#0B3E9A"></path>
            <path d="M383,107.360498 L389.5,101 L396,107.360498 C394.350164,108.990549 392.040393,110 389.5,110 C386.959607,110 384.649836,108.990549 383,107.360498" id="Fill-31" fill="#FB3448"></path>
        </g>
        <polygon id="Rectangle-5-Copy" fill="url(#linearGradient-4)" points="-34.4040532 8 1544 124 1466.52021 124 -52 24.7161024"></polygon>
    </g>
</svg>