<svg viewBox="0 0 500 500" version="1.1" xmlns="http://www.w3.org/2000/svg" xmlns:xlink="http://www.w3.org/1999/xlink" id="Hyqpanyzm">
    <!-- Generator: Sketch 50.2 (55047) - http://www.bohemiancoding.com/sketch -->
    <title>Artboard Copy 2</title>
    <desc>Created with Sketch.</desc>
    <defs>
        <linearGradient x1="0.986140725%" y1="98.7396122%" x2="99.1004797%" y2="1.18421053%" id="escrowLinearGradient-1">
            <stop stop-color="#196CF2" offset="0%"/>
            <stop stop-color="#59CEF1" offset="100%"/>
        </linearGradient>
        <linearGradient x1="21.1833933%" y1="123.24298%" x2="79.225237%" y2="-24.2817724%" id="escrowLinearGradient-2">
            <stop stop-color="#273469" offset="0%"/>
            <stop stop-color="#283877" offset="18%"/>
            <stop stop-color="#2A449B" offset="51%"/>
            <stop stop-color="#2E56D5" offset="95%"/>
            <stop stop-color="#2E58DB" offset="100%"/>
        </linearGradient>
        <linearGradient x1="29.3171255%" y1="279.534884%" x2="70.6828745%" y2="-179.689922%" id="escrowLinearGradient-3">
            <stop stop-color="#273469" offset="0%"/>
            <stop stop-color="#283877" offset="18%"/>
            <stop stop-color="#2A449B" offset="51%"/>
            <stop stop-color="#2E56D5" offset="95%"/>
            <stop stop-color="#2E58DB" offset="100%"/>
        </linearGradient>
        <linearGradient x1="20.8649469%" y1="87.2534143%" x2="79.5144158%" y2="12.215478%" id="escrowLinearGradient-4">
            <stop stop-color="#00A022" offset="0%"/>
            <stop stop-color="#2AFF91" offset="100%"/>
        </linearGradient>
        <linearGradient x1="20.8649469%" y1="87.2534143%" x2="79.5144158%" y2="12.2913505%" id="escrowLinearGradient-5">
            <stop stop-color="#00A022" offset="0%"/>
            <stop stop-color="#2AFF91" offset="100%"/>
        </linearGradient>
        <linearGradient x1="20.9408194%" y1="87.2534143%" x2="79.5144158%" y2="12.215478%" id="escrowLinearGradient-6">
            <stop stop-color="#00A022" offset="0%"/>
            <stop stop-color="#2AFF91" offset="100%"/>
        </linearGradient>
        <linearGradient x1="20.9408194%" y1="87.2534143%" x2="79.5144158%" y2="12.2913505%" id="escrowLinearGradient-7">
            <stop stop-color="#00A022" offset="0%"/>
            <stop stop-color="#2AFF91" offset="100%"/>
        </linearGradient>
        <linearGradient x1="-54.8711228%" y1="2720.34884%" x2="266.797728%" y2="-5469.76744%" id="escrowLinearGradient-8">
            <stop stop-color="#196CF2" offset="0%"/>
            <stop stop-color="#59CEF1" offset="100%"/>
        </linearGradient>
        <linearGradient x1="12.9426071%" y1="103.078627%" x2="90.353711%" y2="5.31561462%" id="escrowLinearGradient-9">
            <stop stop-color="#00A022" offset="0%"/>
            <stop stop-color="#2AFF91" offset="100%"/>
        </linearGradient>
        <linearGradient x1="83.4541853%" y1="97.838067%" x2="11.4277714%" y2="7.88469691%" id="escrowLinearGradient-10">
            <stop stop-color="#00A022" offset="0%"/>
            <stop stop-color="#2AFF91" offset="100%"/>
        </linearGradient>
        <linearGradient x1="-25.1229105%" y1="69.920967%" x2="365.437561%" y2="-13.5285914%" id="escrowLinearGradient-11">
            <stop stop-color="#00A022" offset="0%"/>
            <stop stop-color="#2AFF91" offset="100%"/>
        </linearGradient>
        <linearGradient x1="-187.863464%" y1="86.3910822%" x2="314.285714%" y2="3.0190432%" id="escrowLinearGradient-12">
            <stop stop-color="#00A022" offset="0%"/>
            <stop stop-color="#2AFF91" offset="100%"/>
        </linearGradient>
        <linearGradient x1="-249.881235%" y1="116.20994%" x2="127.505938%" y2="32.8379006%" id="escrowLinearGradient-13">
            <stop stop-color="#00A022" offset="0%"/>
            <stop stop-color="#2AFF91" offset="100%"/>
        </linearGradient>
        <linearGradient x1="19.711875%" y1="89.2175%" x2="79.2275%" y2="12.366875%" id="escrowLinearGradient-14">
            <stop stop-color="#00A022" offset="0%"/>
            <stop stop-color="#2AFF91" offset="100%"/>
        </linearGradient>
    </defs>
    <g id="SJe56a3yfX" fill-rule="evenodd">
        <g id="r1Wc662JGQ" fill-rule="nonzero">
            <path d="M7,0 L357.49,0 C361.085374,3.12728741e-14 364,2.91462628 364,6.51 L364,340.49 C364,344.085374 361.085374,347 357.49,347 L6.51,347 C2.91462628,347 -7.55329949e-15,344.085374 -7.99360578e-15,340.49 L-8.8817842e-16,7 C-1.36162605e-15,3.13400675 3.13400675,-1.78006981e-16 7,-8.8817842e-16 Z" id="H1fqpa3kM7"/>
            <rect id="SJX9p63yGQ" x="35.5789474" y="46.4488189" width="295.578947" height="144.811024" rx="3.33"/>
            <rect id="HJE56a3yf7" x="46.5263158" y="218.582677" width="134.105263" height="16.3937008" rx="2.39"/>
            <ellipse id="SkScp63yzm" cx="234" cy="239.074803" rx="15.0526316" ry="15.0275591"/>
            <ellipse id="HyLcp621zQ" cx="234" cy="299.185039" rx="15.0526316" ry="15.0275591"/>
            <ellipse id="rJDcpphkG7" cx="296.947368" cy="239.074803" rx="15.0526316" ry="15.0275591"/>
            <ellipse id="SJd5T6nkMX" cx="296.947368" cy="299.185039" rx="15.0526316" ry="15.0275591"/>
            <rect id="BJFc6T21fQ" x="62.9473684" y="224.047244" width="109.473684" height="5.46456693" rx="0.86"/>
            <path d="M153.684429,224.047244 L70.8561665,224.047244 L57.5142067,327.69852 C57.3331517,329.103564 57.7641292,330.518466 58.7005103,331.593165 C59.6368915,332.667864 60.9912029,333.301964 62.4283724,333.338583 L161.989369,333.338583 C163.429267,333.309537 164.788425,332.67758 165.726467,331.600975 C166.664509,330.52437 167.092601,329.105073 166.903535,327.69852 L153.684429,224.047244 Z" id="Hycqap2kzm"/>
            <path d="M164.646583,224.047244 L81.7914578,224.047244 L68.4737005,332.916984 C68.2625189,334.37661 68.6926952,335.855901 69.6555127,336.981 C70.6183302,338.106099 72.0216656,338.769356 73.5108596,338.80315 L172.927181,338.80315 C174.394618,338.735697 175.765069,338.058042 176.700902,336.937137 C177.636735,335.816232 178.050944,334.356288 177.841482,332.916984 L164.646583,224.047244 Z" id="H1scTphJz7"/>
            <path d="M134.507582,144.811024 L131.556798,135.470958 L111.953527,135.470958 L109.002743,144.811024 L98.5263158,144.811024 L115.75066,92.8976378 L127.782539,92.8976378 L145.052632,144.811024 L134.507582,144.811024 Z M115.041557,125.889548 L128.537391,125.889548 L121.789474,104.699426 L115.041557,125.889548 Z" id="rkn56p21fm"/>
            <polygon id="rkpqa6hkfQ" points="191.578947 92.8976378 191.578947 102.687157 178.534833 102.687157 178.534833 144.811024 168.999135 144.811024 168.999135 102.687157 156 102.687157 156 92.8976378"/>
            <polygon id="SkR5pa2yfX" points="270.947368 92.8976378 270.947368 144.811024 260.547368 144.811024 260.547368 111.054061 245.577297 135.166177 244.366846 135.166177 229.544993 111.054061 229.544993 144.811024 218.947368 144.811024 218.947368 92.8976378 229.717915 92.8976378 244.984423 117.41966 260.152119 92.8976378"/>
        </g>
        <g id="Skyg5pa3JzX" fill-rule="nonzero">
            <path d="M7,-5.68434189e-14 L159.413985,-5.68434189e-14 L159.413985,128.223713 L-2.84217094e-13,128.223713 L-2.83328916e-13,7 C-2.83802364e-13,3.13400675 3.13400675,-5.5245069e-14 7,-5.59552404e-14 Z" id="S1xe9aThyfX"/>
            <path d="M38.9089474,45.4488189 L159.562445,45.4488189 L159.562445,128.354797 L35.5789474,128.354797 L35.5789474,48.7788189 C35.5789474,46.9397107 37.0698392,45.4488189 38.9089474,45.4488189 Z" id="BkWx5aphJf7"/>
            <path d="M131.409476,128.382516 L112.575253,128.382516 L103.841215,128.382516 L115.75066,91.8976378 L127.782539,91.8976378 L139.698502,128.382516 L131.409476,128.382516 Z M115.041557,124.889548 L128.537391,124.889548 L121.789474,103.699426 L115.041557,124.889548 Z" id="Byzecp63kz7"/>
        </g>
    </g>
<script>(function(){var a=document.querySelector('#Hyqpanyzm'),b=a.querySelectorAll('style'),c=function(d){b.forEach(function(f){var g=f.textContent;g&amp;&amp;(f.textContent=g.replace(/transform-box:[^;\r\n]*/gi,'transform-box: '+d))})};c('initial'),window.requestAnimationFrame(function(){return c('fill-box')})})();</script></svg>