<svg viewBox="0 0 500 500" version="1.1" xmlns="http://www.w3.org/2000/svg" xmlns:xlink="http://www.w3.org/1999/xlink" id="SJJWLayGX">    <!-- Generator: Sketch 50.2 (55047) - http://www.bohemiancoding.com/sketch -->
    <title>Artboard Copy 3</title>
    <desc>Created with Sketch.</desc>
    <defs>
        <radialGradient cx="50%" cy="50%" fx="50%" fy="50%" r="50%" gradientTransform="translate(0.500000,0.500000),scale(1.000000,0.976837),translate(-0.500000,-0.500000)" id="fundStartradialGradient-1">
            <stop stop-color="#2AFF91" offset="0%"/>
            <stop stop-color="#FFFFFF" stop-opacity="0" offset="100%"/>
        </radialGradient>
        <linearGradient x1="7.5809125%" y1="122.985744%" x2="85.4313879%" y2="20.1185328%" id="fundStartslinearGradient-2">
            <stop stop-color="#273469" offset="0%"/>
            <stop stop-color="#2E58DB" offset="100%"/>
        </linearGradient>
        <linearGradient x1="-1.6997674%" y1="50.0285563%" x2="98.944355%" y2="50.0285563%" id="fundStartslinearGradient-3">
            <stop stop-color="#00A022" offset="0%"/>
            <stop stop-color="#2AFF91" offset="100%"/>
        </linearGradient>
        <linearGradient x1="10.2642181%" y1="106.432727%" x2="85.6996913%" y2="22.1841598%" id="fundStartslinearGradient-4">
            <stop stop-color="#196CF2" offset="0%"/>
            <stop stop-color="#59CEF1" offset="100%"/>
        </linearGradient>
        <radialGradient cx="50%" cy="50%" fx="50%" fy="50%" r="50%" gradientTransform="translate(0.500000,0.500000),scale(1.000000,0.971858),translate(-0.500000,-0.500000)" id="fundStartradialGradient-5">
            <stop stop-color="#2AFF91" offset="0%"/>
            <stop stop-color="#FFFFFF" stop-opacity="0" offset="100%"/>
        </radialGradient>
        <linearGradient x1="7.56846473%" y1="122.977297%" x2="85.4273859%" y2="20.0975164%" id="fundStartslinearGradient-6">
            <stop stop-color="#196CF2" offset="0%"/>
            <stop stop-color="#59CEF1" offset="100%"/>
        </linearGradient>
        <linearGradient x1="-1.70183799%" y1="49.9813788%" x2="98.9278421%" y2="49.9813788%" id="fundStartslinearGradient-7">
            <stop stop-color="#00A022" offset="0%"/>
            <stop stop-color="#2AFF91" offset="100%"/>
        </linearGradient>
        <linearGradient x1="10.2733951%" y1="106.431039%" x2="85.7082821%" y2="22.2175424%" id="fundStartslinearGradient-8">
            <stop stop-color="#273469" offset="0%"/>
            <stop stop-color="#2E58DB" offset="100%"/>
        </linearGradient>
        <linearGradient x1="-6.72097264%" y1="92.8701975%" x2="107.644073%" y2="6.41346499%" id="fundStartslinearGradient-9">
            <stop stop-color="#00A022" offset="0%"/>
            <stop stop-color="#2AFF91" offset="100%"/>
        </linearGradient>
        <linearGradient x1="19.711875%" y1="89.2175%" x2="79.2275%" y2="12.366875%" id="fundStartslinearGradient-10">
            <stop stop-color="#00A022" offset="0%"/>
            <stop stop-color="#2AFF91" offset="100%"/>
        </linearGradient>
        <linearGradient x1="0.986140725%" y1="98.7396122%" x2="99.1004797%" y2="1.18421053%" id="fundStartslinearGradient-11">
            <stop stop-color="#196CF2" offset="0%"/>
            <stop stop-color="#59CEF1" offset="100%"/>
        </linearGradient>
        <linearGradient x1="21.1833933%" y1="123.24298%" x2="79.225237%" y2="-24.2817724%" id="fundStartslinearGradient-12">
            <stop stop-color="#273469" offset="0%"/>
            <stop stop-color="#283877" offset="18%"/>
            <stop stop-color="#2A449B" offset="51%"/>
            <stop stop-color="#2E56D5" offset="95%"/>
            <stop stop-color="#2E58DB" offset="100%"/>
        </linearGradient>
        <linearGradient x1="-187.863464%" y1="86.3910822%" x2="314.285714%" y2="3.0190432%" id="fundStartslinearGradient-13">
            <stop stop-color="#00A022" offset="0%"/>
            <stop stop-color="#2AFF91" offset="100%"/>
        </linearGradient>
        <linearGradient x1="-249.881235%" y1="116.20994%" x2="127.505938%" y2="32.8379006%" id="fundStartslinearGradient-14">
            <stop stop-color="#00A022" offset="0%"/>
            <stop stop-color="#2AFF91" offset="100%"/>
        </linearGradient>
        <linearGradient x1="29.3171255%" y1="279.534884%" x2="70.6828745%" y2="-179.689922%" id="fundStartslinearGradient-15">
            <stop stop-color="#273469" offset="0%"/>
            <stop stop-color="#283877" offset="18%"/>
            <stop stop-color="#2A449B" offset="51%"/>
            <stop stop-color="#2E56D5" offset="95%"/>
            <stop stop-color="#2E58DB" offset="100%"/>
        </linearGradient>
        <linearGradient x1="-54.8711228%" y1="2720.34884%" x2="266.797728%" y2="-5469.76744%" id="fundStartslinearGradient-16">
            <stop stop-color="#196CF2" offset="0%"/>
            <stop stop-color="#59CEF1" offset="100%"/>
        </linearGradient>
        <linearGradient x1="12.9426071%" y1="103.078627%" x2="90.353711%" y2="5.31561462%" id="fundStartslinearGradient-17">
            <stop stop-color="#00A022" offset="0%"/>
            <stop stop-color="#2AFF91" offset="100%"/>
        </linearGradient>
        <linearGradient x1="83.4541853%" y1="97.838067%" x2="11.4277714%" y2="7.88469691%" id="fundStartslinearGradient-18">
            <stop stop-color="#00A022" offset="0%"/>
            <stop stop-color="#2AFF91" offset="100%"/>
        </linearGradient>
        <linearGradient x1="-25.1229105%" y1="69.920967%" x2="365.437561%" y2="-13.5285914%" id="fundStartslinearGradient-19">
            <stop stop-color="#00A022" offset="0%"/>
            <stop stop-color="#2AFF91" offset="100%"/>
        </linearGradient>
        <linearGradient x1="20.8649469%" y1="87.2534143%" x2="79.5144158%" y2="12.215478%" id="fundStartslinearGradient-20">
            <stop stop-color="#00A022" offset="0%"/>
            <stop stop-color="#2AFF91" offset="100%"/>
        </linearGradient>
        <linearGradient x1="20.8649469%" y1="87.2534143%" x2="79.5144158%" y2="12.2913505%" id="fundStartslinearGradient-21">
            <stop stop-color="#00A022" offset="0%"/>
            <stop stop-color="#2AFF91" offset="100%"/>
        </linearGradient>
        <linearGradient x1="20.9408194%" y1="87.2534143%" x2="79.5144158%" y2="12.215478%" id="fundStartslinearGradient-22">
            <stop stop-color="#00A022" offset="0%"/>
            <stop stop-color="#2AFF91" offset="100%"/>
        </linearGradient>
        <linearGradient x1="20.9408194%" y1="87.2534143%" x2="79.5144158%" y2="12.2913505%" id="fundStartslinearGradient-23">
            <stop stop-color="#00A022" offset="0%"/>
            <stop stop-color="#2AFF91" offset="100%"/>
        </linearGradient>
    </defs>
    <g id="rkeyZL61zQ" fill-rule="evenodd">
        <g id="H1byZLpJM7" fill-rule="nonzero">
            <ellipse id="S1Gy-UpyMm" cx="31.7592593" cy="28.53125" rx="27.8703704" ry="28.53125"/>
            <path d="M70,83 L0,83 C0,66.2795981 7.23632557,51.7154613 17.9350955,44.09375 C21.8859809,49.6960268 28.2365049,53.0165541 35,53.0165541 C41.7634951,53.0165541 48.1140191,49.6960268 52.0649045,44.09375 C62.769781,51.7154613 70,66.2795981 70,83 Z" id="H1XJbUp1fm"/>
            <path d="M51.8518519,44.4390162 C47.9502927,49.9220338 41.6790539,53.171875 35,53.171875 C28.3209461,53.171875 22.0497073,49.9220338 18.1481481,44.4390162 C28.1989373,37.0619946 41.8010627,37.0619946 51.8518519,44.4390162 Z" id="Hy4JZL6yz7"/>
            <path d="M55.7407038,32.9511153 C55.7489431,37.4177722 54.3786236,41.7723995 51.8262237,45.390625 C41.7889127,37.916516 28.2050279,37.916516 18.1677169,45.390625 C12.924543,37.9176243 12.9596728,27.8321996 18.2547722,20.3978488 C23.5498717,12.9634979 32.9037924,9.86664036 41.4348023,12.7234999 C49.9658122,15.5803595 55.738724,23.7428817 55.7407038,32.9511153 Z" id="H1BJW8Tyz7"/>
        </g>
        <g id="H181bU6yzm" fill-rule="nonzero">
            <ellipse id="rkvy-ITJMm" cx="28.0816327" cy="26.2068966" rx="25.4693878" ry="26.2068966"/>
            <path d="M64,76 L0,76 C0,60.7953404 6.61606909,47.5514756 16.3978016,40.6206897 C20.0100397,45.7151074 25.816233,48.7346214 32,48.7346214 C38.183767,48.7346214 43.9899603,45.7151074 47.6021984,40.6206897 C57.3895141,47.5514756 64,60.7953404 64,76 Z" id="B1_yWLTyGX"/>
            <path d="M48.3265306,41.7716839 C44.6977918,46.8080168 38.8650757,49.7931034 32.6530612,49.7931034 C26.4410468,49.7931034 20.6083306,46.8080168 16.9795918,41.7716839 C26.3275696,34.9956456 38.9785529,34.9956456 48.3265306,41.7716839 Z" id="BJFkZIpJGX"/>
            <path d="M50.9387418,30.3291473 C50.9462652,34.495039 49.6949998,38.5564446 47.3643535,41.9310345 C38.1990888,34.9601996 25.7953782,34.9601996 16.6301135,41.9310345 C11.842469,34.9612332 11.8745467,25.5549172 16.7096054,18.6211632 C21.5446642,11.6874092 30.0859119,8.79908064 37.8757437,11.4635717 C45.6655755,14.1280627 50.936934,21.7409562 50.9387418,30.3291473 Z" id="ry9JW8Tkf7"/>
        </g>
        <g id="ByokbIayG7" fill-rule="nonzero">
            <path d="M57,59 L0,59 C0,45.4745594 5.88921162,33.6943369 14.6024066,27.5333333 C17.8202415,32.0643762 22.9919938,34.7498974 28.5,34.7498974 C34.0080062,34.7498974 39.1797585,32.0643762 42.3975934,27.5333333 C51.1107884,33.6943369 57,45.4745594 57,59 Z" id="ryn1-La1M7"/>
            <path d="M41.4545455,28.1783754 C38.3050889,32.7125956 33.2432351,35.4 27.8522727,35.4 C22.4613103,35.4 17.3994566,32.7125956 14.25,28.1783754 C22.3615741,22.0738749 33.3429714,22.0738749 41.4545455,28.1783754 Z" id="BypybL6yfX"/>
            <path d="M45.3408754,17.3747201 C45.3479693,21.0220034 44.2360152,24.5780221 42.1643138,27.5333333 C34.0157322,21.4279782 22.9842342,21.4279782 14.8356526,27.5333333 C10.5760505,21.432788 10.6026789,13.1976402 14.901638,7.12655463 C19.200597,1.05546901 26.7964705,-1.47405 33.7242886,0.858381184 C40.6521067,3.19081237 45.3399759,9.85597467 45.3408754,17.3747201 Z" id="BkRyW8p1zX"/>
        </g>
        <g id="Byylk-86JM7_Sktm8ayG7" data-animator-group="true" data-animator-type="0"><g id="Byylk-86JM7">
            <path d="M14.1438703,26.0525762 C14.1438703,24.9603871 13.8365448,24.0913106 13.2218845,23.4453207 C12.6072242,22.7993308 11.5636683,22.2032975 10.0911854,21.6572029 C8.61870253,21.1111084 7.34887396,20.5683518 6.2816616,20.0289169 C5.21444924,19.4894821 4.29922705,18.8701402 3.53596758,18.1708728 C2.77270811,17.4716053 2.17832026,16.649146 1.75278622,15.70347 C1.32725218,14.7577941 1.11448835,13.6323234 1.11448835,12.3270242 C1.11448835,10.076049 1.84396434,8.23134263 3.3029382,6.79284963 C4.76191206,5.35435664 6.70042695,4.51524831 9.11854103,4.27549947 L9.11854103,0 L12.360689,0 L12.360689,4.33543638 C14.751785,4.66842087 16.6227558,5.65071038 17.9736575,7.28233438 C19.3245593,8.91395839 20,11.0283782 20,13.6256572 L14.1438703,13.6256572 C14.1438703,12.0273317 13.8095272,10.8319353 13.1408308,10.0394322 C12.4721344,9.24692909 11.5771755,8.85068349 10.4559271,8.85068349 C9.34818764,8.85068349 8.49037791,9.16035442 7.88247214,9.77970557 C7.27456636,10.3990567 6.97061803,11.254814 6.97061803,12.3470032 C6.97061803,13.359276 7.26781196,14.171746 7.86220871,14.7844374 C8.45660547,15.3971289 9.56095106,16.0231303 11.1752786,16.6624606 C12.7896062,17.3017908 14.1168472,17.9044837 15.1570415,18.4705573 C16.1972359,19.0366309 17.0753088,19.6759516 17.7912867,20.3885384 C18.5072646,21.1011252 19.0543716,21.9135952 19.4326241,22.8259727 C19.8108766,23.7383502 20,24.8005548 20,26.0126183 C20,28.2769128 19.2840328,30.1149596 17.852077,31.5268139 C16.4201212,32.9386681 14.4478342,33.7711169 11.935157,34.0241851 L11.935157,38 L8.71327254,38 L8.71327254,34.044164 C5.94392401,33.7511377 3.7993997,32.7821674 2.27963526,31.137224 C0.759870821,29.4922806 0,27.3046053 0,24.5741325 L5.85612969,24.5741325 C5.85612969,26.1591387 6.2377537,27.3745138 7.00101317,28.2202944 C7.76427264,29.066075 8.86186383,29.488959 10.2938197,29.488959 C11.4826132,29.488959 12.4214758,29.1792881 13.1104357,28.5599369 C13.7993955,27.9405858 14.1438703,27.1048072 14.1438703,26.0525762 Z" id="rkexyZ8pyzQ"/>
        </g></g>
        <g id="HJblybL6Jz7_SJ6XIpyzX" data-animator-group="true" data-animator-type="0"><g id="HJblybL6Jz7">
            <path d="M14.1438703,26.0525762 C14.1438703,24.9603871 13.8365448,24.0913106 13.2218845,23.4453207 C12.6072242,22.7993308 11.5636683,22.2032975 10.0911854,21.6572029 C8.61870253,21.1111084 7.34887396,20.5683518 6.2816616,20.0289169 C5.21444924,19.4894821 4.29922705,18.8701402 3.53596758,18.1708728 C2.77270811,17.4716053 2.17832026,16.649146 1.75278622,15.70347 C1.32725218,14.7577941 1.11448835,13.6323234 1.11448835,12.3270242 C1.11448835,10.076049 1.84396434,8.23134263 3.3029382,6.79284963 C4.76191206,5.35435664 6.70042695,4.51524831 9.11854103,4.27549947 L9.11854103,0 L12.360689,0 L12.360689,4.33543638 C14.751785,4.66842087 16.6227558,5.65071038 17.9736575,7.28233438 C19.3245593,8.91395839 20,11.0283782 20,13.6256572 L14.1438703,13.6256572 C14.1438703,12.0273317 13.8095272,10.8319353 13.1408308,10.0394322 C12.4721344,9.24692909 11.5771755,8.85068349 10.4559271,8.85068349 C9.34818764,8.85068349 8.49037791,9.16035442 7.88247214,9.77970557 C7.27456636,10.3990567 6.97061803,11.254814 6.97061803,12.3470032 C6.97061803,13.359276 7.26781196,14.171746 7.86220871,14.7844374 C8.45660547,15.3971289 9.56095106,16.0231303 11.1752786,16.6624606 C12.7896062,17.3017908 14.1168472,17.9044837 15.1570415,18.4705573 C16.1972359,19.0366309 17.0753088,19.6759516 17.7912867,20.3885384 C18.5072646,21.1011252 19.0543716,21.9135952 19.4326241,22.8259727 C19.8108766,23.7383502 20,24.8005548 20,26.0126183 C20,28.2769128 19.2840328,30.1149596 17.852077,31.5268139 C16.4201212,32.9386681 14.4478342,33.7711169 11.935157,34.0241851 L11.935157,38 L8.71327254,38 L8.71327254,34.044164 C5.94392401,33.7511377 3.7993997,32.7821674 2.27963526,31.137224 C0.759870821,29.4922806 0,27.3046053 0,24.5741325 L5.85612969,24.5741325 C5.85612969,26.1591387 6.2377537,27.3745138 7.00101317,28.2202944 C7.76427264,29.066075 8.86186383,29.488959 10.2938197,29.488959 C11.4826132,29.488959 12.4214758,29.1792881 13.1104357,28.5599369 C13.7993955,27.9405858 14.1438703,27.1048072 14.1438703,26.0525762 Z" id="rkflJZIpJG7"/>
        </g></g>
        <g id="SkmxkZLTJMQ_ryM48ayMQ" data-animator-group="true" data-animator-type="0"><g id="SkmxkZLTJMQ">
            <path d="M14.1438703,26.0525762 C14.1438703,24.9603871 13.8365448,24.0913106 13.2218845,23.4453207 C12.6072242,22.7993308 11.5636683,22.2032975 10.0911854,21.6572029 C8.61870253,21.1111084 7.34887396,20.5683518 6.2816616,20.0289169 C5.21444924,19.4894821 4.29922705,18.8701402 3.53596758,18.1708728 C2.77270811,17.4716053 2.17832026,16.649146 1.75278622,15.70347 C1.32725218,14.7577941 1.11448835,13.6323234 1.11448835,12.3270242 C1.11448835,10.076049 1.84396434,8.23134263 3.3029382,6.79284963 C4.76191206,5.35435664 6.70042695,4.51524831 9.11854103,4.27549947 L9.11854103,0 L12.360689,0 L12.360689,4.33543638 C14.751785,4.66842087 16.6227558,5.65071038 17.9736575,7.28233438 C19.3245593,8.91395839 20,11.0283782 20,13.6256572 L14.1438703,13.6256572 C14.1438703,12.0273317 13.8095272,10.8319353 13.1408308,10.0394322 C12.4721344,9.24692909 11.5771755,8.85068349 10.4559271,8.85068349 C9.34818764,8.85068349 8.49037791,9.16035442 7.88247214,9.77970557 C7.27456636,10.3990567 6.97061803,11.254814 6.97061803,12.3470032 C6.97061803,13.359276 7.26781196,14.171746 7.86220871,14.7844374 C8.45660547,15.3971289 9.56095106,16.0231303 11.1752786,16.6624606 C12.7896062,17.3017908 14.1168472,17.9044837 15.1570415,18.4705573 C16.1972359,19.0366309 17.0753088,19.6759516 17.7912867,20.3885384 C18.5072646,21.1011252 19.0543716,21.9135952 19.4326241,22.8259727 C19.8108766,23.7383502 20,24.8005548 20,26.0126183 C20,28.2769128 19.2840328,30.1149596 17.852077,31.5268139 C16.4201212,32.9386681 14.4478342,33.7711169 11.935157,34.0241851 L11.935157,38 L8.71327254,38 L8.71327254,34.044164 C5.94392401,33.7511377 3.7993997,32.7821674 2.27963526,31.137224 C0.759870821,29.4922806 0,27.3046053 0,24.5741325 L5.85612969,24.5741325 C5.85612969,26.1591387 6.2377537,27.3745138 7.00101317,28.2202944 C7.76427264,29.066075 8.86186383,29.488959 10.2938197,29.488959 C11.4826132,29.488959 12.4214758,29.1792881 13.1104357,28.5599369 C13.7993955,27.9405858 14.1438703,27.1048072 14.1438703,26.0525762 Z" id="ry4x1bUpkfX"/>
        </g></g>
        <g id="ByHxJZUTkMm_By8NU6kG7" data-animator-group="true" data-animator-type="0"><g id="ByHxJZUTkMm">
            <path d="M14.1438703,26.0525762 C14.1438703,24.9603871 13.8365448,24.0913106 13.2218845,23.4453207 C12.6072242,22.7993308 11.5636683,22.2032975 10.0911854,21.6572029 C8.61870253,21.1111084 7.34887396,20.5683518 6.2816616,20.0289169 C5.21444924,19.4894821 4.29922705,18.8701402 3.53596758,18.1708728 C2.77270811,17.4716053 2.17832026,16.649146 1.75278622,15.70347 C1.32725218,14.7577941 1.11448835,13.6323234 1.11448835,12.3270242 C1.11448835,10.076049 1.84396434,8.23134263 3.3029382,6.79284963 C4.76191206,5.35435664 6.70042695,4.51524831 9.11854103,4.27549947 L9.11854103,0 L12.360689,0 L12.360689,4.33543638 C14.751785,4.66842087 16.6227558,5.65071038 17.9736575,7.28233438 C19.3245593,8.91395839 20,11.0283782 20,13.6256572 L14.1438703,13.6256572 C14.1438703,12.0273317 13.8095272,10.8319353 13.1408308,10.0394322 C12.4721344,9.24692909 11.5771755,8.85068349 10.4559271,8.85068349 C9.34818764,8.85068349 8.49037791,9.16035442 7.88247214,9.77970557 C7.27456636,10.3990567 6.97061803,11.254814 6.97061803,12.3470032 C6.97061803,13.359276 7.26781196,14.171746 7.86220871,14.7844374 C8.45660547,15.3971289 9.56095106,16.0231303 11.1752786,16.6624606 C12.7896062,17.3017908 14.1168472,17.9044837 15.1570415,18.4705573 C16.1972359,19.0366309 17.0753088,19.6759516 17.7912867,20.3885384 C18.5072646,21.1011252 19.0543716,21.9135952 19.4326241,22.8259727 C19.8108766,23.7383502 20,24.8005548 20,26.0126183 C20,28.2769128 19.2840328,30.1149596 17.852077,31.5268139 C16.4201212,32.9386681 14.4478342,33.7711169 11.935157,34.0241851 L11.935157,38 L8.71327254,38 L8.71327254,34.044164 C5.94392401,33.7511377 3.7993997,32.7821674 2.27963526,31.137224 C0.759870821,29.4922806 0,27.3046053 0,24.5741325 L5.85612969,24.5741325 C5.85612969,26.1591387 6.2377537,27.3745138 7.00101317,28.2202944 C7.76427264,29.066075 8.86186383,29.488959 10.2938197,29.488959 C11.4826132,29.488959 12.4214758,29.1792881 13.1104357,28.5599369 C13.7993955,27.9405858 14.1438703,27.1048072 14.1438703,26.0525762 Z" id="HyLg1-UpJMQ"/>
        </g></g>
        <g id="BJDg1bI6yzm_B1KNLp1f7" data-animator-group="true" data-animator-type="0"><g id="BJDg1bI6yzm">
            <path d="M14.1438703,26.0525762 C14.1438703,24.9603871 13.8365448,24.0913106 13.2218845,23.4453207 C12.6072242,22.7993308 11.5636683,22.2032975 10.0911854,21.6572029 C8.61870253,21.1111084 7.34887396,20.5683518 6.2816616,20.0289169 C5.21444924,19.4894821 4.29922705,18.8701402 3.53596758,18.1708728 C2.77270811,17.4716053 2.17832026,16.649146 1.75278622,15.70347 C1.32725218,14.7577941 1.11448835,13.6323234 1.11448835,12.3270242 C1.11448835,10.076049 1.84396434,8.23134263 3.3029382,6.79284963 C4.76191206,5.35435664 6.70042695,4.51524831 9.11854103,4.27549947 L9.11854103,0 L12.360689,0 L12.360689,4.33543638 C14.751785,4.66842087 16.6227558,5.65071038 17.9736575,7.28233438 C19.3245593,8.91395839 20,11.0283782 20,13.6256572 L14.1438703,13.6256572 C14.1438703,12.0273317 13.8095272,10.8319353 13.1408308,10.0394322 C12.4721344,9.24692909 11.5771755,8.85068349 10.4559271,8.85068349 C9.34818764,8.85068349 8.49037791,9.16035442 7.88247214,9.77970557 C7.27456636,10.3990567 6.97061803,11.254814 6.97061803,12.3470032 C6.97061803,13.359276 7.26781196,14.171746 7.86220871,14.7844374 C8.45660547,15.3971289 9.56095106,16.0231303 11.1752786,16.6624606 C12.7896062,17.3017908 14.1168472,17.9044837 15.1570415,18.4705573 C16.1972359,19.0366309 17.0753088,19.6759516 17.7912867,20.3885384 C18.5072646,21.1011252 19.0543716,21.9135952 19.4326241,22.8259727 C19.8108766,23.7383502 20,24.8005548 20,26.0126183 C20,28.2769128 19.2840328,30.1149596 17.852077,31.5268139 C16.4201212,32.9386681 14.4478342,33.7711169 11.935157,34.0241851 L11.935157,38 L8.71327254,38 L8.71327254,34.044164 C5.94392401,33.7511377 3.7993997,32.7821674 2.27963526,31.137224 C0.759870821,29.4922806 0,27.3046053 0,24.5741325 L5.85612969,24.5741325 C5.85612969,26.1591387 6.2377537,27.3745138 7.00101317,28.2202944 C7.76427264,29.066075 8.86186383,29.488959 10.2938197,29.488959 C11.4826132,29.488959 12.4214758,29.1792881 13.1104357,28.5599369 C13.7993955,27.9405858 14.1438703,27.1048072 14.1438703,26.0525762 Z" id="SJdlyZI61fQ"/>
        </g></g>
        <g id="Skte1-Uayz7_HkhVL6yfQ" data-animator-group="true" data-animator-type="0"><g id="Skte1-Uayz7">
            <path d="M7.77912867,13.7118822 C7.77912867,13.1370458 7.61009963,12.6796372 7.27203647,12.3396425 C6.93397332,11.9996478 6.36001756,11.6859461 5.55015198,11.3985279 C4.74028639,11.1111097 4.04188068,10.8254483 3.45491388,10.5415352 C2.86794708,10.2576221 2.36457488,9.93165273 1.94478217,9.56361725 C1.52498946,9.19558176 1.19807614,8.76270841 0.964032421,8.26498423 C0.729988698,7.76726004 0.612968592,7.17490705 0.612968592,6.48790747 C0.612968592,5.3031837 1.01418039,4.33228559 1.81661601,3.57518402 C2.61905163,2.81808244 3.68523482,2.37644648 5.01519757,2.25026288 L5.01519757,0 L6.79837893,0 L6.79837893,2.28180862 C8.11348175,2.45706362 9.1425157,2.9740581 9.88551165,3.83280757 C10.6285076,4.69155705 11,5.80440957 11,7.17139853 L7.77912867,7.17139853 C7.77912867,6.33017455 7.59523993,5.70101856 7.22745694,5.28391167 C6.85967395,4.86680478 6.36744651,4.65825447 5.75075988,4.65825447 C5.1415032,4.65825447 4.66970785,4.82123917 4.33535968,5.14721346 C4.0010115,5.47318775 3.83383992,5.92358633 3.83383992,6.49842271 C3.83383992,7.0311979 3.99729658,7.45881367 4.32421479,7.78128286 C4.65113301,8.10375205 5.25852309,8.4332265 6.14640324,8.76971609 C7.0342834,9.10620568 7.76426597,9.42341246 8.33637285,9.72134595 C8.90847973,10.0192794 9.39141985,10.355764 9.7852077,10.7308097 C10.1789956,11.1058554 10.4799044,11.5334711 10.6879433,12.0136698 C10.8959821,12.4938685 11,13.0529236 11,13.6908517 C11,14.8825857 10.6062181,15.8499788 9.81864235,16.5930599 C9.03106665,17.3361411 7.94630883,17.774272 6.56433637,17.9074658 L6.56433637,20 L4.7922999,20 L4.7922999,17.9179811 C3.26915821,17.7637567 2.08966983,17.2537723 1.25379939,16.3880126 C0.417928951,15.5222529 0,14.3708449 0,12.9337539 L3.22087133,12.9337539 C3.22087133,13.7679677 3.43076453,14.4076389 3.85055724,14.8527865 C4.27034995,15.2979342 4.87402511,15.5205047 5.66160081,15.5205047 C6.31543724,15.5205047 6.83181168,15.35752 7.21073961,15.0315457 C7.58966755,14.7055715 7.77912867,14.265688 7.77912867,13.7118822 Z" id="rJqx1WLpJMX"/>
        </g></g>
        <g id="SksekbLayfm_H1JB8p1zm" data-animator-group="true" data-animator-type="0"><g id="SksekbLayfm">
            <path d="M7.77912867,13.7118822 C7.77912867,13.1370458 7.61009963,12.6796372 7.27203647,12.3396425 C6.93397332,11.9996478 6.36001756,11.6859461 5.55015198,11.3985279 C4.74028639,11.1111097 4.04188068,10.8254483 3.45491388,10.5415352 C2.86794708,10.2576221 2.36457488,9.93165273 1.94478217,9.56361725 C1.52498946,9.19558176 1.19807614,8.76270841 0.964032421,8.26498423 C0.729988698,7.76726004 0.612968592,7.17490705 0.612968592,6.48790747 C0.612968592,5.3031837 1.01418039,4.33228559 1.81661601,3.57518402 C2.61905163,2.81808244 3.68523482,2.37644648 5.01519757,2.25026288 L5.01519757,0 L6.79837893,0 L6.79837893,2.28180862 C8.11348175,2.45706362 9.1425157,2.9740581 9.88551165,3.83280757 C10.6285076,4.69155705 11,5.80440957 11,7.17139853 L7.77912867,7.17139853 C7.77912867,6.33017455 7.59523993,5.70101856 7.22745694,5.28391167 C6.85967395,4.86680478 6.36744651,4.65825447 5.75075988,4.65825447 C5.1415032,4.65825447 4.66970785,4.82123917 4.33535968,5.14721346 C4.0010115,5.47318775 3.83383992,5.92358633 3.83383992,6.49842271 C3.83383992,7.0311979 3.99729658,7.45881367 4.32421479,7.78128286 C4.65113301,8.10375205 5.25852309,8.4332265 6.14640324,8.76971609 C7.0342834,9.10620568 7.76426597,9.42341246 8.33637285,9.72134595 C8.90847973,10.0192794 9.39141985,10.355764 9.7852077,10.7308097 C10.1789956,11.1058554 10.4799044,11.5334711 10.6879433,12.0136698 C10.8959821,12.4938685 11,13.0529236 11,13.6908517 C11,14.8825857 10.6062181,15.8499788 9.81864235,16.5930599 C9.03106665,17.3361411 7.94630883,17.774272 6.56433637,17.9074658 L6.56433637,20 L4.7922999,20 L4.7922999,17.9179811 C3.26915821,17.7637567 2.08966983,17.2537723 1.25379939,16.3880126 C0.417928951,15.5222529 0,14.3708449 0,12.9337539 L3.22087133,12.9337539 C3.22087133,13.7679677 3.43076453,14.4076389 3.85055724,14.8527865 C4.27034995,15.2979342 4.87402511,15.5205047 5.66160081,15.5205047 C6.31543724,15.5205047 6.83181168,15.35752 7.21073961,15.0315457 C7.58966755,14.7055715 7.77912867,14.265688 7.77912867,13.7118822 Z" id="S1neJWU6yfQ"/>
        </g></g>
        <g id="rkTxy-Ia1MQ" fill-rule="nonzero">
            <path d="M7,-5.68434189e-14 L101.626416,-5.68434189e-14 L101.626416,81.506546 L-2.84217094e-13,81.506546 L-2.84217094e-13,7 C-2.84690542e-13,3.13400675 3.13400675,-5.70214258e-14 7,-5.77315973e-14 Z" id="B10lkbU6yM7"/>
            <path d="M26.0115789,28.8899469 L101.721058,28.8899469 L101.721058,81.5898713 L22.6815789,81.5898713 L22.6815789,32.2199469 C22.6815789,30.3808387 24.1724707,28.8899469 26.0115789,28.8899469 Z" id="B11b1W8ayM7"/>
            <path d="M83.7735411,81.6074906 L71.7667238,81.6074906 L66.1987745,81.6074906 L73.7910456,58.4155527 L81.4613686,58.4155527 L89.0577949,81.6074906 L83.7735411,81.6074906 Z M73.3389924,79.3871544 L81.9425866,79.3871544 L77.6407895,65.9174644 L73.3389924,79.3871544 Z" id="SJe-1-LakM7"/>
        </g>
        <g id="HJbbkZ8akzX" fill-rule="nonzero">
            <path d="M0,-3.48165941e-13 L122.49,-3.49054119e-13 C126.085374,-3.43327912e-13 129,2.91462628 129,6.51 L129,68 L0,68 L0,-3.48165941e-13 Z" id="Syz-1WI6JfX"/>
            <path d="M0,29.2455526 L105.003504,29.2455526 C106.842613,29.2455526 108.333504,30.7364444 108.333504,32.5755526 L108.333504,68 L0,68 L0,29.2455526 Z" id="rkXZkZUpJGQ"/>
            <polygon id="Hy4-y-U6kz7" points="20.5008986 58.4911053 20.5008986 64.6548766 12.2926508 64.6548766 12.2926508 68 6.29213861 68 6.29213861 64.6548766 0 64.6548766 0 58.4911053"/>
            <polygon id="BkrZybIpkzQ" points="70.4449294 58.4911053 70.4449294 68 63.9005392 68 63.5371343 68 44.3917274 68 37.7229782 68 37.7229782 58.4911053 44.5005415 58.4911053 52.2999748 68 56.2058306 68 63.6518212 58.4911053"/>
        </g>
        <g id="rkIZyb8TyMQ" fill-rule="nonzero">
            <path d="M0,-3.48165941e-13 L122.49,-3.49054119e-13 C126.085374,-3.43327912e-13 129,2.91462628 129,6.51 L129,68 L0,68 L0,-3.48165941e-13 Z" id="BywbJb8akfm"/>
            <path d="M0,29.2455526 L105.003504,29.2455526 C106.842613,29.2455526 108.333504,30.7364444 108.333504,32.5755526 L108.333504,68 L0,68 L0,29.2455526 Z" id="HkdZJbUpyMX"/>
            <polygon id="SkK-yZLpkGQ" points="20.5008986 58.4911053 20.5008986 64.6548766 12.2926508 64.6548766 12.2926508 68 6.29213861 68 6.29213861 64.6548766 0 64.6548766 0 58.4911053"/>
            <polygon id="B15W1-Lpkfm" points="70.4449294 58.4911053 70.4449294 68 63.9005392 68 63.5371343 68 44.3917274 68 37.7229782 68 37.7229782 58.4911053 44.5005415 58.4911053 52.2999748 68 56.2058306 68 63.6518212 58.4911053"/>
        </g>
        <g id="HkjZy-8pkfX" fill-rule="nonzero">
            <path d="M-1.56319402e-13,0.0405652782 L100.935566,0.0405652782 L100.935566,139 L6.51,139 C2.91462628,139 -1.34583358e-13,136.085374 -1.50990331e-13,132.49 L-1.56319402e-13,0.0405652782 Z" id="Skh-y-LTyf7"/>
            <path d="M22.5047559,0.144500567 L100.93426,0.144500567 L100.93426,40.1512242 L25.8347559,40.1512242 C23.9956476,40.1512242 22.5047559,38.6603325 22.5047559,36.8212242 L22.5047559,0.144500567 Z" id="rJpZyWUTJzX"/>
            <path d="M31.8192961,57.4931147 L101.031352,57.4931147 L101.031352,67.898249 L31.8192961,67.898249 C30.4993356,67.898249 29.4292961,66.8282096 29.4292961,65.508249 L29.4292961,59.8831147 C29.4292961,58.5631542 30.4993356,57.4931147 31.8192961,57.4931147 Z" id="BJ0ZJ-L6yGX"/>
            <path d="M40.6761065,60.9614928 L100.927689,60.9614928 L100.927689,64.4298709 L40.6761065,64.4298709 C40.2011416,64.4298709 39.8161065,64.0448358 39.8161065,63.5698709 L39.8161065,61.8214928 C39.8161065,61.3465279 40.2011416,60.9614928 40.6761065,60.9614928 Z" id="rJJz1b8TJG7"/>
            <path d="M97.2100306,60.9614928 L44.8186596,60.9614928 L36.3794681,126.749289 C36.2649453,127.641075 36.5375516,128.539118 37.1298409,129.221233 C37.7221301,129.903347 38.5787729,130.305813 39.4878259,130.329055 L100.744812,130.329055 C101.351998,130.316764 100.173738,107.194244 97.2100306,60.9614928 Z" id="rylz1WUpJGQ"/>
            <path d="M101.014545,60.9614928 L51.7355606,60.9614928 L43.311678,130.061465 C43.1780993,130.987894 43.4501988,131.926805 44.0592098,132.640909 C44.6682209,133.355013 45.5558728,133.775984 46.4978329,133.797433 C95.0128049,133.797433 113.205919,133.797433 101.077176,133.797433 C101.056778,133.797433 101.035901,109.518786 101.014545,60.9614928 Z" id="SJWMJ-8p1fQ"/>
            <polygon id="HJfGkb8TkGm" points="85.0800968 10.6700104 83.213637 4.74184117 70.8139778 4.74184117 68.9475181 10.6700104 62.3208624 10.6700104 65.7203864 0.187865455 88.3541239 0.187865455 91.7501585 10.6700104"/>
        </g>
        <g id="HJXMJZIpJzX" fill-rule="nonzero">
            <path d="M-1.56319402e-13,0.0405652782 L100.935566,0.0405652782 L100.935566,139 L6.51,139 C2.91462628,139 -1.34583358e-13,136.085374 -1.50990331e-13,132.49 L-1.56319402e-13,0.0405652782 Z" id="BJVfkZLpkzm"/>
            <path d="M22.5047559,0.144500567 L100.93426,0.144500567 L100.93426,40.1512242 L25.8347559,40.1512242 C23.9956476,40.1512242 22.5047559,38.6603325 22.5047559,36.8212242 L22.5047559,0.144500567 Z" id="HkBM1Z8akGQ"/>
            <path d="M31.8192961,57.4931147 L101.031352,57.4931147 L101.031352,67.898249 L31.8192961,67.898249 C30.4993356,67.898249 29.4292961,66.8282096 29.4292961,65.508249 L29.4292961,59.8831147 C29.4292961,58.5631542 30.4993356,57.4931147 31.8192961,57.4931147 Z" id="BJ8M1-IaJfX"/>
            <path d="M40.6761065,60.9614928 L100.927689,60.9614928 L100.927689,64.4298709 L40.6761065,64.4298709 C40.2011416,64.4298709 39.8161065,64.0448358 39.8161065,63.5698709 L39.8161065,61.8214928 C39.8161065,61.3465279 40.2011416,60.9614928 40.6761065,60.9614928 Z" id="S1PzkWUTkGm"/>
            <path d="M97.2100306,60.9614928 L44.8186596,60.9614928 L36.3794681,126.749289 C36.2649453,127.641075 36.5375516,128.539118 37.1298409,129.221233 C37.7221301,129.903347 38.5787729,130.305813 39.4878259,130.329055 L100.744812,130.329055 C101.351998,130.316764 100.173738,107.194244 97.2100306,60.9614928 Z" id="HJ_fJ-U6Jzm"/>
            <path d="M101.014545,60.9614928 L51.7355606,60.9614928 L43.311678,130.061465 C43.1780993,130.987894 43.4501988,131.926805 44.0592098,132.640909 C44.6682209,133.355013 45.5558728,133.775984 46.4978329,133.797433 C95.0128049,133.797433 113.205919,133.797433 101.077176,133.797433 C101.056778,133.797433 101.035901,109.518786 101.014545,60.9614928 Z" id="rkYGkZ8p1G7"/>
            <polygon id="S1czJbI6yzm" points="85.0800968 10.6700104 83.213637 4.74184117 70.8139778 4.74184117 68.9475181 10.6700104 62.3208624 10.6700104 65.7203864 0.187865455 88.3541239 0.187865455 91.7501585 10.6700104"/>
        </g>
        <g id="rkjGkWUakzQ" fill-rule="nonzero">
            <path d="M0.631067961,0 L130,0 L130,145.49 C130,149.085374 127.085374,152 123.49,152 L0.631067961,152 L0.631067961,0 Z" id="Sy3Gkb8TkMm"/>
            <path d="M0.631067961,0 L109.2744,0 L109.2744,49.6218664 C109.2744,51.4609746 107.783508,52.9518664 105.9444,52.9518664 L0.631067961,52.9518664 L0.631067961,0 Z" id="rkpf1-Ip1zQ"/>
            <path d="M0.631067961,70.3287319 L11.8920644,70.3287319 C13.2120249,70.3287319 14.2820644,71.3987714 14.2820644,72.7187319 L14.2820644,78.3648513 C14.2820644,79.6848118 13.2120249,80.7548513 11.8920644,80.7548513 L0.631067961,80.7548513 L0.631067961,70.3287319 Z" id="r1AG1bIpyMX"/>
            <ellipse id="H1kQkWIpJGm" cx="47.961165" cy="83.3613811" rx="9.49923352" ry="9.55727605"/>
            <ellipse id="rylXkWUpJzm" cx="47.961165" cy="121.590485" rx="9.49923352" ry="9.55727605"/>
            <ellipse id="BJ-QkZLp1G7" cx="87.6852325" cy="83.3613811" rx="9.49923352" ry="9.55727605"/>
            <ellipse id="HyG71-LTJM7" cx="87.6852325" cy="121.590485" rx="9.49923352" ry="9.55727605"/>
            <path d="M0.631067961,73.804105 L8.24066428,73.804105 C8.71562917,73.804105 9.10066428,74.1891401 9.10066428,74.664105 L9.10066428,76.4194781 C9.10066428,76.894443 8.71562917,77.2794781 8.24066428,77.2794781 L0.631067961,77.2794781 L0.631067961,73.804105 Z" id="rJQXJbUayz7"/>
            <path d="M4.19444527,73.804105 L0.750721859,73.804105 C0.84077474,122.459329 0.842206793,146.78694 0.755018017,146.78694 C-1.17053679,146.78694 1.71781236,146.78694 9.42006547,146.78694 C10.3461184,146.744041 11.2109659,146.313065 11.80154,145.600188 C12.3921141,144.887311 12.6535081,143.958811 12.5213238,143.043438 L4.19444527,73.804105 Z" id="ByN71bIa1zX"/>
            <polygon id="HySXkWUpkGX" points="12.958875 0.0171047284 12.958875 23.4111949 6.9412017 23.4111949 6.9412017 0.0195546831"/>
            <polygon id="r1UmJZU6kfm" points="71.2774655 0.045050322 71.2774655 23.4111949 64.7143587 23.4111949 64.7143587 1.94233179 55.2672264 17.277234 54.5033493 17.277234 45.1497529 1.94233179 45.1497529 23.4111949 38.4619315 23.4111949 38.4619315 0.118322774 51.2468561 0.0883309037 54.8930825 5.99074598 58.5513274 0.0302967906"/>
        </g>
        <g id="HJPmkWITJfm" fill-rule="nonzero">
            <path d="M0.631067961,0 L130,0 L130,145.49 C130,149.085374 127.085374,152 123.49,152 L0.631067961,152 L0.631067961,0 Z" id="Bku7y-Lp1GQ"/>
            <path d="M0.631067961,0 L109.2744,0 L109.2744,49.6218664 C109.2744,51.4609746 107.783508,52.9518664 105.9444,52.9518664 L0.631067961,52.9518664 L0.631067961,0 Z" id="ryKX1-LTJGm"/>
            <path d="M0.631067961,70.3287319 L11.8920644,70.3287319 C13.2120249,70.3287319 14.2820644,71.3987714 14.2820644,72.7187319 L14.2820644,78.3648513 C14.2820644,79.6848118 13.2120249,80.7548513 11.8920644,80.7548513 L0.631067961,80.7548513 L0.631067961,70.3287319 Z" id="B1q7yWIT1GQ"/>
            <ellipse id="HJsmybUTJfQ" cx="47.961165" cy="83.3613811" rx="9.49923352" ry="9.55727605"/>
            <ellipse id="Sy3mkb861z7" cx="47.961165" cy="121.590485" rx="9.49923352" ry="9.55727605"/>
            <ellipse id="HkaXyWIpkzQ" cx="87.6852325" cy="83.3613811" rx="9.49923352" ry="9.55727605"/>
            <ellipse id="HkRQ1Z86JGQ" cx="87.6852325" cy="121.590485" rx="9.49923352" ry="9.55727605"/>
            <path d="M0.631067961,73.804105 L8.24066428,73.804105 C8.71562917,73.804105 9.10066428,74.1891401 9.10066428,74.664105 L9.10066428,76.4194781 C9.10066428,76.894443 8.71562917,77.2794781 8.24066428,77.2794781 L0.631067961,77.2794781 L0.631067961,73.804105 Z" id="HyJ4yWUaJfm"/>
            <path d="M4.19444527,73.804105 L0.750721859,73.804105 C0.84077474,122.459329 0.842206793,146.78694 0.755018017,146.78694 C-1.17053679,146.78694 1.71781236,146.78694 9.42006547,146.78694 C10.3461184,146.744041 11.2109659,146.313065 11.80154,145.600188 C12.3921141,144.887311 12.6535081,143.958811 12.5213238,143.043438 L4.19444527,73.804105 Z" id="H1eN1ZUTJz7"/>
            <polygon id="SJbNJZU6JG7" points="12.958875 0.0171047284 12.958875 23.4111949 6.9412017 23.4111949 6.9412017 0.0195546831"/>
            <polygon id="ryGNybLaJGQ" points="71.2774655 0.045050322 71.2774655 23.4111949 64.7143587 23.4111949 64.7143587 1.94233179 55.2672264 17.277234 54.5033493 17.277234 45.1497529 1.94233179 45.1497529 23.4111949 38.4619315 23.4111949 38.4619315 0.118322774 51.2468561 0.0883309037 54.8930825 5.99074598 58.5513274 0.0302967906"/>
        </g>
    </g>
<script>(function(){var a=document.querySelector('#SJJWLayGX'),b=a.querySelectorAll('style'),c=function(d){b.forEach(function(f){var g=f.textContent;g&amp;&amp;(f.textContent=g.replace(/transform-box:[^;\r\n]*/gi,'transform-box: '+d))})};c('initial'),window.requestAnimationFrame(function(){return c('fill-box')})})();</script></svg>