<svg viewBox="0 0 500 500" version="1.1" xmlns="http://www.w3.org/2000/svg" xmlns:xlink="http://www.w3.org/1999/xlink" id="SyZbvC1GX"><style>@-webkit-keyframes ry5WZDCJzX_SJsrDAyfm_Animation{31.11%{-webkit-transform: translate(-200px, 0px);transform: translate(-200px, 0px);}92.22%{-webkit-transform: translate(200px, 0px);transform: translate(200px, 0px);}0%{-webkit-transform: translate(-200px, 0px);transform: translate(-200px, 0px);}100%{-webkit-transform: translate(200px, 0px);transform: translate(200px, 0px);}}@keyframes ry5WZDCJzX_SJsrDAyfm_Animation{31.11%{-webkit-transform: translate(-200px, 0px);transform: translate(-200px, 0px);}92.22%{-webkit-transform: translate(200px, 0px);transform: translate(200px, 0px);}0%{-webkit-transform: translate(-200px, 0px);transform: translate(-200px, 0px);}100%{-webkit-transform: translate(200px, 0px);transform: translate(200px, 0px);}}@-webkit-keyframes S1IW-D0yfm_Animation{4.44%{opacity: 0;}6.67%{opacity: 1;}0%{opacity: 0;}100%{opacity: 1;}}@keyframes S1IW-D0yfm_Animation{4.44%{opacity: 0;}6.67%{opacity: 1;}0%{opacity: 0;}100%{opacity: 1;}}@-webkit-keyframes S1IW-D0yfm_HJwHwCyfm_Animation{4.44%{-webkit-transform: translate(-100px, 0px);transform: translate(-100px, 0px);}64.44%{-webkit-transform: translate(300px, 0px);transform: translate(300px, 0px);}0%{-webkit-transform: translate(-100px, 0px);transform: translate(-100px, 0px);}100%{-webkit-transform: translate(300px, 0px);transform: translate(300px, 0px);}}@keyframes S1IW-D0yfm_HJwHwCyfm_Animation{4.44%{-webkit-transform: translate(-100px, 0px);transform: translate(-100px, 0px);}64.44%{-webkit-transform: translate(300px, 0px);transform: translate(300px, 0px);}0%{-webkit-transform: translate(-100px, 0px);transform: translate(-100px, 0px);}100%{-webkit-transform: translate(300px, 0px);transform: translate(300px, 0px);}}@-webkit-keyframes ByMWWv0kGm_BJHSPA1fm_Animation{0%{-webkit-transform: translate(0px, 0px);transform: translate(0px, 0px);}53.33%{-webkit-transform: translate(300px, 0px);transform: translate(300px, 0px);}100%{-webkit-transform: translate(300px, 0px);transform: translate(300px, 0px);}}@keyframes ByMWWv0kGm_BJHSPA1fm_Animation{0%{-webkit-transform: translate(0px, 0px);transform: translate(0px, 0px);}53.33%{-webkit-transform: translate(300px, 0px);transform: translate(300px, 0px);}100%{-webkit-transform: translate(300px, 0px);transform: translate(300px, 0px);}}@-webkit-keyframes HJGeZbvAkGX_ByW8wCkGQ_Animation{0%{-webkit-transform: translate(-200px, 0px);transform: translate(-200px, 0px);}26.67%{-webkit-transform: translate(-200px, 0px);transform: translate(-200px, 0px);}81.11%{-webkit-transform: translate(250px, 0px);transform: translate(250px, 0px);}100%{-webkit-transform: translate(250px, 0px);transform: translate(250px, 0px);}}@keyframes HJGeZbvAkGX_ByW8wCkGQ_Animation{0%{-webkit-transform: translate(-200px, 0px);transform: translate(-200px, 0px);}26.67%{-webkit-transform: translate(-200px, 0px);transform: translate(-200px, 0px);}81.11%{-webkit-transform: translate(250px, 0px);transform: translate(250px, 0px);}100%{-webkit-transform: translate(250px, 0px);transform: translate(250px, 0px);}}@-webkit-keyframes HJGeZbvAkGX_Animation{0%{opacity: 0;}26.67%{opacity: 0;}36.67%{opacity: 1;}100%{opacity: 1;}}@keyframes HJGeZbvAkGX_Animation{0%{opacity: 0;}26.67%{opacity: 0;}36.67%{opacity: 1;}100%{opacity: 1;}}@-webkit-keyframes r1A-ZDC1MQ_SJRBPCyMQ_Animation{0%{-webkit-transform: translate(-100px, 0px);transform: translate(-100px, 0px);}18.89%{-webkit-transform: translate(-100px, 0px);transform: translate(-100px, 0px);}73.33%{-webkit-transform: translate(250px, 0px);transform: translate(250px, 0px);}100%{-webkit-transform: translate(250px, 0px);transform: translate(250px, 0px);}}@keyframes r1A-ZDC1MQ_SJRBPCyMQ_Animation{0%{-webkit-transform: translate(-100px, 0px);transform: translate(-100px, 0px);}18.89%{-webkit-transform: translate(-100px, 0px);transform: translate(-100px, 0px);}73.33%{-webkit-transform: translate(250px, 0px);transform: translate(250px, 0px);}100%{-webkit-transform: translate(250px, 0px);transform: translate(250px, 0px);}}@-webkit-keyframes r1A-ZDC1MQ_Animation{0%{opacity: 0;}18.89%{opacity: 0;}25.56%{opacity: 1;}100%{opacity: 1;}}@keyframes r1A-ZDC1MQ_Animation{0%{opacity: 0;}18.89%{opacity: 0;}25.56%{opacity: 1;}100%{opacity: 1;}}@-webkit-keyframes ry5WZDCJzX_Animation{0%{opacity: 0;}31.11%{opacity: 0;}37.78%{opacity: 1;}100%{opacity: 1;}}@keyframes ry5WZDCJzX_Animation{0%{opacity: 0;}31.11%{opacity: 0;}37.78%{opacity: 1;}100%{opacity: 1;}}@-webkit-keyframes ByMWWv0kGm_Animation{0%{opacity: 0;}5.56%{opacity: 1;}100%{opacity: 1;}}@keyframes ByMWWv0kGm_Animation{0%{opacity: 0;}5.56%{opacity: 1;}100%{opacity: 1;}}#SyZbvC1GX *{-webkit-animation-duration: 3s;animation-duration: 3s;-webkit-animation-iteration-count: infinite;animation-iteration-count: infinite;-webkit-animation-timing-function: cubic-bezier(0, 0, 1, 1);animation-timing-function: cubic-bezier(0, 0, 1, 1);}#HJgW-w0yfQ{stroke: none;stroke-width: 1;fill: none;}#HkbZ-D0JzX{-webkit-transform:  translate(3.000000px, 168.000000px);transform:  translate(3.000000px, 168.000000px);}#ByMWWv0kGm{-webkit-transform:  translate(0.000000px, 98.000000px);transform:  translate(0.000000px, 98.000000px);-webkit-animation-name: ByMWWv0kGm_Animation;animation-name: ByMWWv0kGm_Animation;-webkit-transform-origin: 50% 50%;transform-origin: 50% 50%;transform-box: fill-box;opacity: 0;}#HymWZD0yz7{fill: url(#revenuelinearGradient-1);}#BkE--v0JfQ{fill: url(#revenuelinearGradient-2);}#HJBW-vA1GX{fill: url(#revenuelinearGradient-3);}#S1IW-D0yfm{-webkit-transform:  translate(89.000000px, 0.000000px);transform:  translate(89.000000px, 0.000000px);-webkit-transform-origin: 50% 50%;transform-origin: 50% 50%;transform-box: fill-box;-webkit-animation-name: S1IW-D0yfm_Animation;animation-name: S1IW-D0yfm_Animation;opacity: 0;}#SJv-bDC1GX{fill: url(#revenuelinearGradient-4);}#ByOZbPRyfX{fill: url(#revenuelinearGradient-5);}#HkKbZvRyM7{fill: url(#revenuelinearGradient-3);}#ry5WZDCJzX{-webkit-transform:  translate(149.000000px, 30.000000px);transform:  translate(149.000000px, 30.000000px);-webkit-animation-name: ry5WZDCJzX_Animation;animation-name: ry5WZDCJzX_Animation;-webkit-transform-origin: 50% 50%;transform-origin: 50% 50%;transform-box: fill-box;opacity: 0;}#SyjWZDAyzm{fill: url(#revenuelinearGradient-6);}#rk3-WvAJzX{fill: url(#revenuelinearGradient-7);}#SkpZ-vAyMQ{fill: url(#revenuelinearGradient-3);}#r1A-ZDC1MQ{-webkit-transform:  translate(64.000000px, 60.000000px);transform:  translate(64.000000px, 60.000000px);-webkit-animation-name: r1A-ZDC1MQ_Animation;animation-name: r1A-ZDC1MQ_Animation;-webkit-transform-origin: 50% 50%;transform-origin: 50% 50%;transform-box: fill-box;opacity: 0;}#BJ1ebbwA1Mm{fill: url(#revenuelinearGradient-8);}#Skxg--wCJz7{fill: url(#revenuelinearGradient-2);}#HJ-gWbvC1zQ{fill: url(#revenuelinearGradient-3);}#HJGeZbvAkGX{-webkit-transform:  translate(121.000000px, 98.000000px);transform:  translate(121.000000px, 98.000000px);-webkit-animation-name: HJGeZbvAkGX_Animation;animation-name: HJGeZbvAkGX_Animation;-webkit-transform-origin: 50% 50%;transform-origin: 50% 50%;transform-box: fill-box;opacity: 0;}#Bymg-WwRyMm{fill: url(#revenuelinearGradient-9);}#rJ4eb-vA1GQ{fill: url(#revenuelinearGradient-10);}#HJHxWbDAJGQ{fill: url(#revenuelinearGradient-3);}#ryIebZwC1Mm{-webkit-transform:  translate(269.000000px, 154.000000px);transform:  translate(269.000000px, 154.000000px);}#B1DlbWvRyzX{fill: url(#revenuelinearGradient-11);}#HJ_l--DR1zX{fill: url(#revenuelinearGradient-12);}#Sytl-bv0yf7{fill: url(#revenuelinearGradient-13);}#rk5eWZwAJfX{fill: url(#revenuelinearGradient-14);}#BksgWZD01f7{fill: url(#revenuelinearGradient-15);}#H13eWZvRJfQ{fill: url(#revenuelinearGradient-16);}#BJaxWZwRJGQ{fill: url(#revenuelinearGradient-17);}#BJRgbZPAyfX{fill: url(#revenuelinearGradient-18);}#SyJ-bZw0kfQ{fill: url(#revenuelinearGradient-19);}#SJxWWZDCkGm{fill: url(#revenuelinearGradient-20);}#r1WZbWDAyfm{fill: url(#revenuelinearGradient-21);}#S1zZWZPCyMm{fill: url(#revenuelinearGradient-22);}#SkmWbZDRyGm{fill: url(#revenuelinearGradient-23);}#ByMWWv0kGm_BJHSPA1fm{-webkit-transform-origin: 50% 50%;transform-origin: 50% 50%;transform-box: fill-box;-webkit-transform: translate(0px, 0px);transform: translate(0px, 0px);-webkit-animation-name: ByMWWv0kGm_BJHSPA1fm_Animation;animation-name: ByMWWv0kGm_BJHSPA1fm_Animation;}#S1IW-D0yfm_HJwHwCyfm{-webkit-transform-origin: 50% 50%;transform-origin: 50% 50%;transform-box: fill-box;-webkit-transform: translate(-100px, 0px);transform: translate(-100px, 0px);-webkit-animation-name: S1IW-D0yfm_HJwHwCyfm_Animation;animation-name: S1IW-D0yfm_HJwHwCyfm_Animation;}#ry5WZDCJzX_SJsrDAyfm{-webkit-transform-origin: 50% 50%;transform-origin: 50% 50%;transform-box: fill-box;-webkit-transform: translate(-200px, 0px);transform: translate(-200px, 0px);-webkit-animation-name: ry5WZDCJzX_SJsrDAyfm_Animation;animation-name: ry5WZDCJzX_SJsrDAyfm_Animation;}#r1A-ZDC1MQ_SJRBPCyMQ{-webkit-animation-name: r1A-ZDC1MQ_SJRBPCyMQ_Animation;animation-name: r1A-ZDC1MQ_SJRBPCyMQ_Animation;-webkit-transform-origin: 50% 50%;transform-origin: 50% 50%;transform-box: fill-box;-webkit-transform: translate(-100px, 0px);transform: translate(-100px, 0px);}#HJGeZbvAkGX_ByW8wCkGQ{-webkit-animation-name: HJGeZbvAkGX_ByW8wCkGQ_Animation;animation-name: HJGeZbvAkGX_ByW8wCkGQ_Animation;-webkit-transform-origin: 50% 50%;transform-origin: 50% 50%;transform-box: fill-box;-webkit-transform: translate(-200px, 0px);transform: translate(-200px, 0px);}</style>
    <!-- Generator: Sketch 50.2 (55047) - http://www.bohemiancoding.com/sketch -->
    <title>Artboard Copy 8</title>
    <desc>Created with Sketch.</desc>
    <defs>
        <linearGradient x1="142.397265%" y1="336.109766%" x2="5.66392551%" y2="85.075517%" id="revenuelinearGradient-1">
            <stop stop-color="#00A022" offset="0%"/>
            <stop stop-color="#2AFF91" stop-opacity="0" offset="100%"/>
        </linearGradient>
        <linearGradient x1="91.7937097%" y1="85.0755155%" x2="5.66392551%" y2="85.075517%" id="revenuelinearGradient-2">
            <stop stop-color="#00A022" offset="0%"/>
            <stop stop-color="#2AFF91" stop-opacity="0" offset="100%"/>
        </linearGradient>
        <linearGradient x1="-6.72097264%" y1="92.8701975%" x2="107.644073%" y2="6.41346499%" id="revenuelinearGradient-3">
            <stop stop-color="#00A022" offset="0%"/>
            <stop stop-color="#2AFF91" offset="100%"/>
        </linearGradient>
        <linearGradient x1="117.724817%" y1="216.224523%" x2="5.66392551%" y2="85.075517%" id="revenuelinearGradient-4">
            <stop stop-color="#00A022" offset="0%"/>
            <stop stop-color="#2AFF91" stop-opacity="0" offset="100%"/>
        </linearGradient>
        <linearGradient x1="167.389684%" y1="266.175775%" x2="5.66392551%" y2="85.075517%" id="revenuelinearGradient-5">
            <stop stop-color="#00A022" offset="0%"/>
            <stop stop-color="#2AFF91" stop-opacity="0" offset="100%"/>
        </linearGradient>
        <linearGradient x1="161.906436%" y1="450.553851%" x2="5.66392551%" y2="85.075517%" id="revenuelinearGradient-6">
            <stop stop-color="#00A022" offset="0%"/>
            <stop stop-color="#2AFF91" stop-opacity="0" offset="100%"/>
        </linearGradient>
        <linearGradient x1="139.322297%" y1="306.279351%" x2="5.66392551%" y2="85.075517%" id="revenuelinearGradient-7">
            <stop stop-color="#00A022" offset="0%"/>
            <stop stop-color="#2AFF91" stop-opacity="0" offset="100%"/>
        </linearGradient>
        <linearGradient x1="132.023017%" y1="344.431236%" x2="5.66392551%" y2="85.075517%" id="revenuelinearGradient-8">
            <stop stop-color="#00A022" offset="0%"/>
            <stop stop-color="#2AFF91" stop-opacity="0" offset="100%"/>
        </linearGradient>
        <linearGradient x1="163.318098%" y1="204.902771%" x2="5.66392551%" y2="85.075517%" id="revenuelinearGradient-9">
            <stop stop-color="#00A022" offset="0%"/>
            <stop stop-color="#2AFF91" stop-opacity="0" offset="100%"/>
        </linearGradient>
        <linearGradient x1="188.429038%" y1="178.747481%" x2="5.66392551%" y2="85.075517%" id="revenuelinearGradient-10">
            <stop stop-color="#00A022" offset="0%"/>
            <stop stop-color="#2AFF91" stop-opacity="0" offset="100%"/>
        </linearGradient>
        <linearGradient x1="0.986140725%" y1="98.7396122%" x2="99.1004797%" y2="1.18421053%" id="revenuelinearGradient-11">
            <stop stop-color="#196CF2" offset="0%"/>
            <stop stop-color="#59CEF1" offset="100%"/>
        </linearGradient>
        <linearGradient x1="21.1833933%" y1="123.24298%" x2="79.225237%" y2="-24.2817724%" id="revenuelinearGradient-12">
            <stop stop-color="#273469" offset="0%"/>
            <stop stop-color="#283877" offset="18%"/>
            <stop stop-color="#2A449B" offset="51%"/>
            <stop stop-color="#2E56D5" offset="95%"/>
            <stop stop-color="#2E58DB" offset="100%"/>
        </linearGradient>
        <linearGradient x1="29.3171255%" y1="279.534884%" x2="70.6828745%" y2="-179.689922%" id="revenuelinearGradient-13">
            <stop stop-color="#273469" offset="0%"/>
            <stop stop-color="#283877" offset="18%"/>
            <stop stop-color="#2A449B" offset="51%"/>
            <stop stop-color="#2E56D5" offset="95%"/>
            <stop stop-color="#2E58DB" offset="100%"/>
        </linearGradient>
        <linearGradient x1="20.8649469%" y1="87.2534143%" x2="79.5144158%" y2="12.215478%" id="revenuelinearGradient-14">
            <stop stop-color="#00A022" offset="0%"/>
            <stop stop-color="#2AFF91" offset="100%"/>
        </linearGradient>
        <linearGradient x1="20.8649469%" y1="87.2534143%" x2="79.5144158%" y2="12.2913505%" id="revenuelinearGradient-15">
            <stop stop-color="#00A022" offset="0%"/>
            <stop stop-color="#2AFF91" offset="100%"/>
        </linearGradient>
        <linearGradient x1="20.9408194%" y1="87.2534143%" x2="79.5144158%" y2="12.215478%" id="revenuelinearGradient-16">
            <stop stop-color="#00A022" offset="0%"/>
            <stop stop-color="#2AFF91" offset="100%"/>
        </linearGradient>
        <linearGradient x1="20.9408194%" y1="87.2534143%" x2="79.5144158%" y2="12.2913505%" id="revenuelinearGradient-17">
            <stop stop-color="#00A022" offset="0%"/>
            <stop stop-color="#2AFF91" offset="100%"/>
        </linearGradient>
        <linearGradient x1="-54.8711228%" y1="2720.34884%" x2="266.797728%" y2="-5469.76744%" id="revenuelinearGradient-18">
            <stop stop-color="#196CF2" offset="0%"/>
            <stop stop-color="#59CEF1" offset="100%"/>
        </linearGradient>
        <linearGradient x1="12.9426071%" y1="103.078627%" x2="90.353711%" y2="5.31561462%" id="revenuelinearGradient-19">
            <stop stop-color="#00A022" offset="0%"/>
            <stop stop-color="#2AFF91" offset="100%"/>
        </linearGradient>
        <linearGradient x1="83.4541853%" y1="97.838067%" x2="11.4277714%" y2="7.88469691%" id="revenuelinearGradient-20">
            <stop stop-color="#00A022" offset="0%"/>
            <stop stop-color="#2AFF91" offset="100%"/>
        </linearGradient>
        <linearGradient x1="-25.1229105%" y1="69.920967%" x2="365.437561%" y2="-13.5285914%" id="revenuelinearGradient-21">
            <stop stop-color="#00A022" offset="0%"/>
            <stop stop-color="#2AFF91" offset="100%"/>
        </linearGradient>
        <linearGradient x1="-187.863464%" y1="86.3910822%" x2="314.285714%" y2="3.0190432%" id="revenuelinearGradient-22">
            <stop stop-color="#00A022" offset="0%"/>
            <stop stop-color="#2AFF91" offset="100%"/>
        </linearGradient>
        <linearGradient x1="-249.881235%" y1="116.20994%" x2="127.505938%" y2="32.8379006%" id="revenuelinearGradient-23">
            <stop stop-color="#00A022" offset="0%"/>
            <stop stop-color="#2AFF91" offset="100%"/>
        </linearGradient>
    </defs>
    <g id="HJgW-w0yfQ" fill-rule="evenodd">
        <g id="HkbZ-D0JzX">
            <g id="ByMWWv0kGm_BJHSPA1fm" data-animator-group="true" data-animator-type="0"><g id="ByMWWv0kGm">
                <rect id="HymWZD0yz7" x="0" y="13.762963" width="30.4347826" height="3.64444444"/>
                <rect id="BkE--v0JfQ" x="7.30434783" y="52.637037" width="30.4347826" height="2.42962963"/>
                <path d="M43.5843355,45.3749737 C43.5843355,43.4895104 43.0605459,41.9892099 42.012951,40.8740273 C40.9653561,39.7588448 39.1867738,38.7299031 36.6771508,37.7871714 C34.1675278,36.8444397 32.0032982,35.9074705 30.1843972,34.9762355 C28.3654961,34.0450006 26.8056391,32.975821 25.5047795,31.7686646 C24.2039199,30.5615082 23.1908763,29.1416836 22.4656183,27.5091483 C21.7403602,25.8766129 21.3777367,23.9336951 21.3777367,21.6803365 C21.3777367,17.7944425 22.6210175,14.6098967 25.1076164,12.1266036 C27.5942153,9.6433104 30.898119,8.19474445 35.0194265,7.78086225 L35.0194265,0.4 L40.5451742,0.4 L40.5451742,7.88433228 C44.6204336,8.45916866 47.8092186,10.1549106 50.111625,12.9716088 C52.4140315,15.7883071 53.5652174,19.4384634 53.5652174,23.9221872 L43.5843355,23.9221872 C43.5843355,21.1629725 43.0144985,19.0993409 41.8748073,17.7312303 C40.7351161,16.3631197 39.2097947,15.6790747 37.2987974,15.6790747 C35.4108242,15.6790747 33.948818,16.2136645 32.9127351,17.2828601 C31.8766522,18.3520558 31.3586186,19.8293632 31.3586186,21.7148265 C31.3586186,23.4623291 31.8651404,24.8649088 32.8781992,25.9226078 C33.891258,26.9803067 35.773447,28.0609829 38.5248227,29.1646688 C41.2761984,30.2683546 43.5382787,31.3087929 45.3111317,32.2860147 C47.0839846,33.2632366 48.5805263,34.3669059 49.8008017,35.5970557 C51.0210771,36.8272056 51.9535377,38.2297853 52.5982115,39.804837 C53.2428853,41.3798887 53.5652174,43.2135893 53.5652174,45.3059937 C53.5652174,49.2148811 52.3449603,52.3879303 49.9044095,54.8252366 C47.4638587,57.2625429 44.1023958,58.6996123 39.8199198,59.1364879 L39.8199198,66 L34.328708,66 L34.328708,59.1709779 C29.6087748,58.6651219 25.9537595,56.9923731 23.3635523,54.1526814 C20.7733451,51.3129897 19.4782609,47.5363713 19.4782609,42.8227129 L29.4591428,42.8227129 C29.4591428,45.5589341 30.1095628,47.6570554 31.4104224,49.1171399 C32.7112821,50.5772243 34.5819592,51.3072555 37.02251,51.3072555 C39.0486277,51.3072555 40.6487761,50.7726657 41.8230034,49.70347 C42.9972307,48.6342744 43.5843355,47.1914567 43.5843355,45.3749737 Z" id="HJBW-vA1GX"/>
            </g></g>
            <g id="S1IW-D0yfm_HJwHwCyfm" data-animator-group="true" data-animator-type="0"><g id="S1IW-D0yfm">
                <rect id="SJv-bDC1GX" x="0.304347826" y="7.28888889" width="58.4347826" height="6.07407407"/>
                <rect id="ByOZbPRyfX" x="32.7391304" y="24.2962963" width="30.4347826" height="3.64444444"/>
                <path d="M66.7927845,37.4791448 C66.7927845,35.9079253 66.3438219,34.6576749 65.4458834,33.7283561 C64.5479449,32.7990373 63.0234458,31.9415859 60.8723404,31.1559762 C58.721235,30.3703664 56.8661811,29.5895587 55.307123,28.8135296 C53.748065,28.0375005 52.4110447,27.1465175 51.2960222,26.1405538 C50.1809997,25.1345901 49.3126766,23.951403 48.6910268,22.5909569 C48.0693771,21.2305108 47.7585569,19.6114126 47.7585569,17.7336137 C47.7585569,14.4953688 48.8242262,11.8415806 50.9555967,9.77216965 C53.0869672,7.70275867 55.9188846,6.49562037 59.4514339,6.15071854 L59.4514339,0 L64.1877891,0 L64.1877891,6.23694357 C67.6808685,6.71597389 70.4141129,8.12909213 72.3876041,10.4763407 C74.3610953,12.8235893 75.3478261,15.8653862 75.3478261,19.6018226 L66.7927845,19.6018226 C66.7927845,17.3024771 66.3043527,15.5827841 65.3274746,14.4426919 C64.3505964,13.3025997 63.0431781,12.7325622 61.4051804,12.7325622 C59.7869176,12.7325622 58.5337695,13.1780537 57.6456984,14.0690501 C56.7576274,14.9600465 56.3135985,16.191136 56.3135985,17.7623554 C56.3135985,19.2186076 56.7477601,20.387424 57.6160962,21.2688398 C58.4844323,22.1502556 60.0977372,23.0508191 62.4560592,23.9705573 C64.8143812,24.8902955 66.7533072,25.7573274 68.2728955,26.5716789 C69.7924837,27.3860305 71.0752337,28.3057549 72.1211841,29.3308798 C73.1671344,30.3560047 73.9663864,31.5248211 74.5189639,32.8373642 C75.0715415,34.1499073 75.3478261,35.677991 75.3478261,37.4216614 C75.3478261,40.6790676 74.3018914,43.3232753 72.2099907,45.3543638 C70.1180901,47.3854524 67.2368361,48.5830102 63.5661425,48.9470733 L63.5661425,54.6666667 L58.8593895,54.6666667 L58.8593895,48.9758149 C54.8137325,48.5542683 51.6808622,47.1603109 49.4606846,44.7939012 C47.2405069,42.4274914 46.1304348,39.2803094 46.1304348,35.3522608 L54.6854764,35.3522608 C54.6854764,37.6324451 55.2429793,39.3808795 56.3580019,40.5976165 C57.4730244,41.8143536 59.0764619,42.4227129 61.1683626,42.4227129 C62.9050349,42.4227129 64.2765907,41.9772214 65.2830712,41.086225 C66.2895517,40.1952286 66.7927845,38.9928806 66.7927845,37.4791448 Z" id="HkKbZvRyM7"/>
            </g></g>
            <g id="ry5WZDCJzX_SJsrDAyfm" data-animator-group="true" data-animator-type="0"><g id="ry5WZDCJzX">
                <rect id="SyjWZDAyzm" x="16.5652174" y="11.3037037" width="36.5217391" height="6.07407407"/>
                <rect id="rk3-WvAJzX" x="0.739130435" y="56.2518519" width="45.0434783" height="6.07407407"/>
                <path d="M63.2368178,52.841173 C63.2368178,50.6414658 62.6194943,48.8911153 61.3848289,47.5900689 C60.1501634,46.2890226 58.0539772,45.0885906 55.0962072,43.988737 C52.1384373,42.8888834 49.5877381,41.7957526 47.4440333,40.7093118 C45.3003285,39.6228711 43.4619256,38.3754948 41.9287697,36.9671457 C40.3956137,35.5587966 39.2016694,33.9023346 38.346901,31.99771 C37.4921326,30.0930855 37.0647549,27.826348 37.0647549,25.1974296 C37.0647549,20.6638867 38.5300501,16.9485832 41.4606846,14.0514079 C44.391319,11.1542325 48.2852054,9.46423889 53.1424607,8.98137633 L53.1424607,0.37037037 L59.6549491,0.37037037 L59.6549491,9.10209137 C64.4579334,9.77273381 68.2161443,11.7510994 70.9296947,15.0372473 C73.6432451,18.3233953 75,22.581911 75,27.8129221 L63.2368178,27.8129221 C63.2368178,24.5938383 62.5652241,22.1862681 61.2220167,20.590139 C59.8788092,18.99401 58.081109,18.1959575 55.8288622,18.1959575 C53.6037508,18.1959575 51.8806722,18.8196456 50.6595745,20.0670405 C49.4384768,21.3144355 48.8279371,23.0379607 48.8279371,25.237668 C48.8279371,27.276421 49.4249092,28.912764 50.6188714,30.1467461 C51.8128336,31.3807282 54.0311278,32.6415171 57.2738205,33.9291506 C60.5165133,35.2167841 63.1825366,36.4306287 65.2719704,37.5707209 C67.3614042,38.710813 69.1251855,39.9984272 70.5633673,41.4336021 C72.001549,42.8687769 73.1005204,44.5051199 73.8603145,46.3426802 C74.6201086,48.1802405 75,50.3195578 75,52.7606963 C75,57.321065 73.5618399,61.0229558 70.6854764,63.8664797 C67.809113,66.7100037 63.8473888,68.3865847 58.800185,68.8962729 L58.800185,76.9037037 L52.3283996,76.9037037 L52.3283996,68.9365113 C46.7656213,68.3463459 42.4579246,66.3948057 39.4051804,63.081832 C36.3524362,59.7688583 34.826087,55.3628035 34.826087,49.8635355 L46.5892692,49.8635355 C46.5892692,53.0557935 47.3558357,55.5036017 48.8889917,57.2070335 C50.4221477,58.9104653 52.6268743,59.7621685 55.5032377,59.7621685 C57.8911621,59.7621685 59.7770514,59.1384804 61.1609621,57.8910854 C62.5448728,56.6436905 63.2368178,54.9604032 63.2368178,52.841173 Z" id="SkpZ-vAyMQ"/>
            </g></g>
            <g id="r1A-ZDC1MQ_SJRBPCyMQ" data-animator-group="true" data-animator-type="0"><g id="r1A-ZDC1MQ">
                <rect id="BJ1ebbwA1Mm" x="0.52173913" y="8.02962963" width="21.9130435" height="2.42962963"/>
                <polygon id="Skxg--wCJz7" points="10.2608696 29.8962963 27.3043478 29.8962963 27.3043478 32.3259259 10.2608696 32.3259259"/>
                <path d="M28.9053346,25.7268372 C28.9053346,24.6793576 28.6060262,23.8458574 28.0074006,23.2263115 C27.4087749,22.6067656 26.3924422,22.0351313 24.9583719,21.5113915 C23.5243016,20.9876517 22.287599,20.4671132 21.248227,19.9497605 C20.2088549,19.4324077 19.3175081,18.8384191 18.5741597,18.1677766 C17.8308114,17.4971342 17.2519293,16.7083427 16.8374961,15.8013787 C16.423063,14.8944146 16.2158495,13.8150158 16.2158495,12.5631499 C16.2158495,10.4043199 16.9262957,8.63512782 18.3472094,7.2555205 C19.768123,5.87591319 21.656068,5.07115432 24.0111008,4.84121977 L24.0111008,0.740740741 L27.168671,0.740740741 L27.168671,4.89870312 C29.4973906,5.21805667 31.3195535,6.16013549 32.6352143,7.72496787 C33.9508751,9.28980025 34.6086957,11.3176648 34.6086957,13.8086225 L28.9053346,13.8086225 C28.9053346,12.2757255 28.5797134,11.1292634 27.9284613,10.369202 C27.2772092,9.60914057 26.405597,9.22911555 25.3135985,9.22911555 C24.2347567,9.22911555 23.3993246,9.52610989 22.8072772,10.1201075 C22.2152298,10.7141051 21.9192106,11.5348314 21.9192106,12.582311 C21.9192106,13.5531458 22.2086516,14.3323568 22.7875424,14.9199673 C23.3664332,15.5075778 24.4419697,16.1079535 26.0141844,16.7211123 C27.5863991,17.3342711 28.8790164,17.9122923 29.8920752,18.4551934 C30.9051341,18.9980944 31.7603008,19.611244 32.457601,20.2946606 C33.1549012,20.9780772 33.6877358,21.7572881 34.0561209,22.6323169 C34.4245059,23.5073456 34.6086957,24.5260681 34.6086957,25.688515 C34.6086957,27.8601191 33.9114059,29.6229243 32.5168054,30.9769833 C31.122205,32.3310423 29.201369,33.1294142 26.7542399,33.3721229 L26.7542399,37.1851852 L23.6164046,37.1851852 L23.6164046,33.391284 C20.9192999,33.1102529 18.8307197,32.180948 17.3506013,30.6033415 C15.8704829,29.025735 15.1304348,26.9276137 15.1304348,24.3089146 L20.8337959,24.3089146 C20.8337959,25.8290375 21.2054645,26.9946604 21.9488128,27.8058184 C22.6921612,28.6169764 23.7611196,29.0225494 25.15572,29.0225494 C26.3135015,29.0225494 27.2278721,28.725555 27.8988591,28.1315574 C28.5698461,27.5375598 28.9053346,26.7359945 28.9053346,25.7268372 Z" id="HJ-gWbvC1zQ"/>
            </g></g>
            <g id="HJGeZbvAkGX_ByW8wCkGQ" data-animator-group="true" data-animator-type="0"><g id="HJGeZbvAkGX">
                <rect id="Bymg-WwRyMm" x="0.739130435" y="24.6962963" width="28" height="3.64444444"/>
                <polygon id="rJ4eb-vA1GQ" points="11.6956522 11.3333333 28.7391304 11.3333333 28.7391304 14.9777778 11.6956522 14.9777778"/>
                <path d="M34.7052112,22.054617 C34.7052112,21.1468013 34.4433164,20.4244344 33.919519,19.8874946 C33.3957215,19.3505549 32.5064304,18.8551385 31.2516189,18.4012307 C29.9968074,17.9473228 28.9146926,17.4961895 28.0052421,17.0478171 C27.0957915,16.5994447 26.3158631,16.0846545 25.6654332,15.5034311 C25.0150034,14.9222076 24.5084816,14.2385884 24.1458526,13.4525529 C23.7832236,12.6665173 23.6019118,11.7310384 23.6019118,10.6460879 C23.6019118,8.77510196 24.2235522,7.24180214 25.4668517,6.04614246 C26.7101511,4.85048279 28.362103,4.1530251 30.4227567,3.95374849 L30.4227567,0.4 L33.1856306,0.4 L33.1856306,4.00356739 C35.2232603,4.28034047 36.8176528,5.09680879 37.968856,6.45299685 C39.1200592,7.8091849 39.6956522,9.56666756 39.6956522,11.7254975 L34.7052112,11.7254975 C34.7052112,10.3969868 34.4202927,9.40338635 33.8504471,8.74466643 C33.2806015,8.08594652 32.5179408,7.7565915 31.5624422,7.7565915 C30.6184556,7.7565915 29.8874525,8.0139866 29.369411,8.52878452 C28.8513696,9.04358243 28.5923528,9.75487856 28.5923528,10.6626942 C28.5923528,11.5040844 28.8456137,12.1794006 29.3521431,12.688663 C29.8586725,13.1979255 30.799767,13.718251 32.1754548,14.2496553 C33.5511427,14.7810596 34.6821828,15.2820114 35.5686093,15.7525256 C36.4550358,16.2230398 37.2033066,16.7544362 37.8134443,17.3467305 C38.423582,17.9390249 38.8898123,18.6143411 39.2121492,19.3726993 C39.5344861,20.1310575 39.6956522,21.0139504 39.6956522,22.0214044 C39.6956522,23.9034613 39.0855236,25.4312257 37.8652482,26.6047435 C36.6449728,27.7782614 34.9642414,28.4701837 32.8230034,28.6805312 L32.8230034,31.9851852 L30.0773975,31.9851852 L30.0773975,28.6971375 C27.7174309,28.4535772 25.8899232,27.6481796 24.5948196,26.2809207 C23.299716,24.9136617 22.6521739,23.0952899 22.6521739,20.8257507 L27.6426149,20.8257507 C27.6426149,22.1431905 27.9678249,23.1533971 28.6182547,23.8564007 C29.2686845,24.5594043 30.2040231,24.9109008 31.4242985,24.9109008 C32.4373573,24.9109008 33.2374315,24.6535057 33.8245452,24.1387078 C34.4116588,23.6239099 34.7052112,22.9292199 34.7052112,22.054617 Z" id="HJHxWbDAJGQ"/>
            </g></g>
        </g>
        <g id="ryIebZwC1Mm" fill-rule="nonzero">
            <path d="M7,0 L221.49,0 C225.085374,-6.60459438e-16 228,2.91462628 228,6.51 L228,211.49 C228,215.085374 225.085374,218 221.49,218 L6.51,218 C2.91462628,218 -9.32965632e-15,215.085374 -9.76996262e-15,211.49 L0,7 C-4.73447626e-16,3.13400675 3.13400675,-1.78006981e-16 7,-8.8817842e-16 Z" id="B1DlbWvRyzX"/>
            <rect id="HJ_l--DR1zX" x="21.9465241" y="29.2290503" width="185.326203" height="91.3407821" rx="3.33"/>
            <rect id="Sytl-bv0yf7" x="29.2620321" y="137.620112" width="84.1283422" height="9.74301676" rx="2.39"/>
            <ellipse id="rk5eWZwAJfX" cx="145.700535" cy="151.01676" rx="9.14438503" ry="9.74301676"/>
            <ellipse id="BksgWZD01f7" cx="145.700535" cy="188.77095" rx="9.14438503" ry="9.74301676"/>
            <ellipse id="H13eWZvRJfQ" cx="185.935829" cy="151.01676" rx="9.14438503" ry="9.74301676"/>
            <ellipse id="BJaxWZwRJGQ" cx="185.935829" cy="188.77095" rx="9.14438503" ry="9.74301676"/>
            <rect id="BJRgbZPAyfX" x="39.0160428" y="141.273743" width="68.2780749" height="3.65363128" rx="0.86"/>
            <path d="M96.5836001,141.273743 L44.9241134,141.273743 L36.6028137,205.95529 C36.4898908,206.83208 36.7586889,207.715022 37.3427041,208.385667 C37.9267194,209.056311 38.7713952,209.452009 39.6677491,209.47486 L101.763341,209.47486 C102.661397,209.456735 103.509095,209.062375 104.094146,208.39054 C104.679197,207.718706 104.946196,206.833022 104.828276,205.95529 L96.5836001,141.273743 Z" id="SyJ-bZw0kfQ"/>
            <path d="M102.689078,141.273743 L51.0128376,141.273743 L42.7066329,209.442852 C42.5749202,210.356801 42.8432186,211.283063 43.4437221,211.987547 C44.0442255,212.692031 44.9194773,213.107332 45.8482786,213.128492 L107.853637,213.128492 C108.768869,213.086256 109.623611,212.661941 110.207284,211.960082 C110.790957,211.258224 111.049297,210.344076 110.918657,209.442852 L102.689078,141.273743 Z" id="SJxWWZDCkGm"/>
            <path d="M84.8116985,91.3407821 L82.9558469,85.4246511 L70.6266622,85.4246511 L68.7708107,91.3407821 L62.1818182,91.3407821 L73.0148124,58.4581006 L80.5820832,58.4581006 L91.4438503,91.3407821 L84.8116985,91.3407821 Z M72.5688325,79.3556485 L81.0568359,79.3556485 L76.8128342,65.9335219 L72.5688325,79.3556485 Z" id="r1WZbWDAyfm"/>
            <polygon id="S1zZWZPCyMm" points="119.486631 58.4581006 119.486631 64.6589221 111.440497 64.6589221 111.440497 91.3407821 105.558496 91.3407821 105.558496 64.6589221 97.540107 64.6589221 97.540107 58.4581006"/>
            <polygon id="SkmWbZDRyGm" points="169.475936 58.4581006 169.475936 91.3407821 162.891979 91.3407821 162.891979 69.958639 153.414834 85.2315984 152.64853 85.2315984 143.265218 69.958639 143.265218 91.3407821 136.55615 91.3407821 136.55615 58.4581006 143.37469 58.4581006 153.039501 73.9907003 162.641757 58.4581006"/>
        </g>
    </g>
<script>(function(){var a=document.querySelector('#SyZbvC1GX'),b=a.querySelectorAll('style'),c=function(d){b.forEach(function(f){var g=f.textContent;g&amp;&amp;(f.textContent=g.replace(/transform-box:[^;\r\n]*/gi,'transform-box: '+d))})};c('initial'),window.requestAnimationFrame(function(){return c('fill-box')})})();</script></svg>