<svg viewBox="0 0 500 500" version="1.1" xmlns="http://www.w3.org/2000/svg" xmlns:xlink="http://www.w3.org/1999/xlink" id="BkEUr0T1GQ"><style>@-webkit-keyframes SkEl8HAakGX_SkxIRTJGm_Animation{0%{-webkit-transform: translate(0px, 0px);transform: translate(0px, 0px);}43.33%{-webkit-transform: translate(-280px, 0px);transform: translate(-280px, 0px);}100%{-webkit-transform: translate(0px, 0px);transform: translate(0px, 0px);}}@keyframes SkEl8HAakGX_SkxIRTJGm_Animation{0%{-webkit-transform: translate(0px, 0px);transform: translate(0px, 0px);}43.33%{-webkit-transform: translate(-280px, 0px);transform: translate(-280px, 0px);}100%{-webkit-transform: translate(0px, 0px);transform: translate(0px, 0px);}}#BkEUr0T1GQ *{-webkit-animation-duration: 3s;animation-duration: 3s;-webkit-animation-iteration-count: infinite;animation-iteration-count: infinite;-webkit-animation-timing-function: cubic-bezier(0, 0, 1, 1);animation-timing-function: cubic-bezier(0, 0, 1, 1);}#r1BUBAakGQ{stroke: none;stroke-width: 1;fill: none;}#By8UrCT1G7{-webkit-transform:  translate(2.000000px, 84.000000px);transform:  translate(2.000000px, 84.000000px);}#BJPIHAakfQ{fill: url(#assetLinearGradient-1);}#SkdIr0akf7{fill: url(#assetLinearGradient-2);}#ByYLrC6yz7{fill: url(#assetLinearGradient-3);}#ry9UBApJfQ{fill: url(#assetLinearGradient-4);}#ryiIrA61zm{fill: url(#assetLinearGradient-5);}#ByhUBRayf7{fill: url(#assetLinearGradient-4);}#By6IrCT1z7{fill: url(#assetLinearGradient-5);}#S1AUB0pJGX{fill: url(#assetLinearGradient-6);}#Bkyg8HR6yfQ{fill: url(#assetLinearGradient-7);}#SkggISCTJfm{fill: url(#assetLinearGradient-8);}#HyZx8r0TkM7{fill: url(#assetLinearGradient-9);}#Byfx8H0T1f7{fill: url(#assetLinearGradient-10);}#rJ7xUSAa1fX{fill: url(#assetLinearGradient-11);-webkit-transform:  translate(72.683646px, 170.232478px) rotate(-14.310000deg) translate(-72.683646px, -170.232478px);transform:  translate(72.683646px, 170.232478px) rotate(-14.310000deg) translate(-72.683646px, -170.232478px);}#SkEl8HAakGX{-webkit-transform:  translate(339.000000px, 229.000000px);transform:  translate(339.000000px, 229.000000px);}#HySeLBCTJfQ{fill: url(#asserRadialGradient-12);opacity: 0.3;}#HJIxISA6yz7{fill: url(#assetLinearGradient-13);}#B1wxIH0p1Gm{fill: url(#assetLinearGradient-14);}#H1Ox8rRT1GQ{fill: url(#assetLinearGradient-15);}#SkEl8HAakGX_SkxIRTJGm{-webkit-animation-name: SkEl8HAakGX_SkxIRTJGm_Animation;animation-name: SkEl8HAakGX_SkxIRTJGm_Animation;-webkit-transform-origin: 50% 50%;transform-origin: 50% 50%;transform-box: fill-box;-webkit-transform: translate(0px, 0px);transform: translate(0px, 0px);}</style>
    <!-- Generator: Sketch 50.2 (55047) - http://www.bohemiancoding.com/sketch -->
    <title>Artboard</title>
    <desc>Created with Sketch.</desc>
    <defs>
        <linearGradient x1="6.51013489%" y1="107.777086%" x2="92.6494987%" y2="-6.66538885%" id="assetLinearGradient-1">
            <stop stop-color="#273469" offset="0%"/>
            <stop stop-color="#283877" offset="18%"/>
            <stop stop-color="#2A449B" offset="51%"/>
            <stop stop-color="#2E56D5" offset="95%"/>
            <stop stop-color="#2E58DB" offset="100%"/>
        </linearGradient>
        <linearGradient x1="-23.8109049%" y1="74.0922875%" x2="124.898492%" y2="25.5634784%" id="assetLinearGradient-2">
            <stop stop-color="#00A022" offset="0%"/>
            <stop stop-color="#2AFF91" offset="100%"/>
        </linearGradient>
        <linearGradient x1="-16.5909091%" y1="10.0452105%" x2="117.585227%" y2="76.787228%" id="assetLinearGradient-3">
            <stop stop-color="#00A022" offset="0%"/>
            <stop stop-color="#2AFF91" offset="100%"/>
        </linearGradient>
        <linearGradient x1="-18.5564081%" y1="64.7499294%" x2="125.859619%" y2="23.2975417%" id="assetLinearGradient-4">
            <stop stop-color="#00A022" offset="0%"/>
            <stop stop-color="#2AFF91" offset="100%"/>
        </linearGradient>
        <linearGradient x1="-16.6240409%" y1="10.0452105%" x2="117.590224%" y2="76.787228%" id="assetLinearGradient-5">
            <stop stop-color="#00A022" offset="0%"/>
            <stop stop-color="#2AFF91" offset="100%"/>
        </linearGradient>
        <linearGradient x1="-18.4143223%" y1="64.7499294%" x2="126.001705%" y2="23.2975417%" id="assetLinearGradient-6">
            <stop stop-color="#00A022" offset="0%"/>
            <stop stop-color="#2AFF91" offset="100%"/>
        </linearGradient>
        <linearGradient x1="-16.4819551%" y1="10.0452105%" x2="117.73231%" y2="76.787228%" id="assetLinearGradient-7">
            <stop stop-color="#00A022" offset="0%"/>
            <stop stop-color="#2AFF91" offset="100%"/>
        </linearGradient>
        <linearGradient x1="-18.5564081%" y1="64.7499294%" x2="125.888036%" y2="23.2975417%" id="assetLinearGradient-8">
            <stop stop-color="#00A022" offset="0%"/>
            <stop stop-color="#2AFF91" offset="100%"/>
        </linearGradient>
        <linearGradient x1="49.9968191%" y1="98.6974063%" x2="49.9968191%" y2="0.599423631%" id="assetLinearGradient-9">
            <stop stop-color="#196CF2" offset="0%"/>
            <stop stop-color="#59CEF1" offset="100%"/>
        </linearGradient>
        <linearGradient x1="22.9721992%" y1="352.99572%" x2="76.5061391%" y2="-247.146933%" id="assetLinearGradient-10">
            <stop stop-color="#273469" offset="0%"/>
            <stop stop-color="#283877" offset="18%"/>
            <stop stop-color="#2A449B" offset="51%"/>
            <stop stop-color="#2E56D5" offset="95%"/>
            <stop stop-color="#2E58DB" offset="100%"/>
        </linearGradient>
        <linearGradient x1="14.5393721%" y1="132.672673%" x2="84.7400926%" y2="-31.1711712%" id="assetLinearGradient-11">
            <stop stop-color="#273469" offset="0%"/>
            <stop stop-color="#283877" offset="18%"/>
            <stop stop-color="#2A449B" offset="51%"/>
            <stop stop-color="#2E56D5" offset="95%"/>
            <stop stop-color="#2E58DB" offset="100%"/>
        </linearGradient>
        <radialGradient cx="50%" cy="50%" fx="50%" fy="50%" r="50%" gradientTransform="translate(0.500000,0.500000),scale(1.000000,0.998140),translate(-0.500000,-0.500000)" id="asserRadialGradient-12">
            <stop stop-color="#2AFF91" offset="0%"/>
            <stop stop-color="#FFFFFF" stop-opacity="0" offset="100%"/>
        </radialGradient>
        <linearGradient x1="7.5809125%" y1="122.985744%" x2="85.4313879%" y2="20.1185328%" id="assetLinearGradient-13">
            <stop stop-color="#273469" offset="0%"/>
            <stop stop-color="#2E58DB" offset="100%"/>
        </linearGradient>
        <linearGradient x1="-1.6997674%" y1="50.0285563%" x2="98.944355%" y2="50.0285563%" id="assetLinearGradient-14">
            <stop stop-color="#00A022" offset="0%"/>
            <stop stop-color="#2AFF91" offset="100%"/>
        </linearGradient>
        <linearGradient x1="10.2642181%" y1="106.432727%" x2="85.6996913%" y2="22.1841598%" id="assetLinearGradient-15">
            <stop stop-color="#196CF2" offset="0%"/>
            <stop stop-color="#59CEF1" offset="100%"/>
        </linearGradient>
    </defs>
    <g id="r1BUBAakGQ" fill-rule="evenodd">
        <g id="By8UrCT1G7" fill-rule="nonzero">
            <rect id="BJPIHAakfQ" x="2.72180212" y="0.566190476" width="383.06947" height="288.190952"/>
            <rect id="SkdIr0akf7" x="26.3614134" y="121.178571" width="95.2768905" height="168.49"/>
            <path d="M1.2434629,0.566190476 L49.8766784,0.566190476 L49.8766784,75.5380952 C49.8766784,88.114671 39.6763803,98.31 27.0936749,98.31 L24.0264664,98.31 C17.9840382,98.31 12.1890921,95.9108241 7.91645014,91.6402635 C3.64380816,87.369703 1.2434629,81.5775799 1.2434629,75.5380952 L1.2434629,0.566190476 Z" id="ByYLrC6yz7"/>
            <path d="M49.8766784,0.566190476 L98.4960777,0.566190476 L98.4960777,75.5380952 C98.4960777,81.5775799 96.0957325,87.369703 91.8230905,91.6402635 C87.5504485,95.9108241 81.7555024,98.31 75.7130742,98.31 L72.6458657,98.31 C60.0685562,98.3023765 49.8766761,88.10928 49.8766784,75.5380952 L49.8766784,0.566190476 Z" id="ry9UBApJfQ"/>
            <path d="M98.4960777,0.566190476 L147.115477,0.566190476 L147.115477,75.5380952 C147.115479,88.10928 136.923599,98.3023765 124.34629,98.31 L121.265265,98.31 C108.687956,98.3023765 98.4960754,88.10928 98.4960777,75.5380952 L98.4960777,0.566190476 Z" id="ryiIrA61zm"/>
            <path d="M147.115477,0.566190476 L195.734876,0.566190476 L195.734876,75.5380952 C195.734876,88.114671 185.534578,98.31 172.951873,98.31 L169.939929,98.31 C157.357224,98.31 147.156926,88.114671 147.156926,75.5380952 L147.156926,0.566190476 L147.115477,0.566190476 Z" id="ByhUBRayf7"/>
            <path d="M195.734876,0.566190476 L244.354276,0.566190476 L244.354276,75.5380952 C244.354276,81.5775799 241.95393,87.369703 237.681288,91.6402635 C233.408646,95.9108241 227.6137,98.31 221.571272,98.31 L218.51788,98.31 C212.475452,98.31 206.680506,95.9108241 202.407864,91.6402635 C198.135222,87.369703 195.734876,81.5775799 195.734876,75.5380952 L195.734876,0.566190476 Z" id="By6IrCT1z7"/>
            <path d="M244.354276,0.566190476 L292.904594,0.566190476 L292.904594,75.5380952 C292.904594,88.114671 282.704296,98.31 270.12159,98.31 L267.068198,98.31 C254.485492,98.31 244.285194,88.114671 244.285194,75.5380952 L244.285194,0.566190476 L244.354276,0.566190476 Z" id="S1AUB0pJGX"/>
            <path d="M292.904594,0.566190476 L341.523993,0.566190476 L341.523993,75.5380952 C341.523993,88.114671 331.323695,98.31 318.740989,98.31 L315.687597,98.31 C303.104892,98.31 292.904594,88.114671 292.904594,75.5380952 L292.904594,0.566190476 Z" id="Bkyg8HR6yfQ"/>
            <path d="M341.593074,0.566190476 L390.212473,0.566190476 L390.212473,75.5380952 C390.212473,88.114671 380.012175,98.31 367.42947,98.31 L364.376078,98.31 C351.793372,98.31 341.593074,88.114671 341.593074,75.5380952 L341.593074,0.566190476 Z" id="SkggISCTJfm"/>
            <rect id="HyZx8r0TkM7" x="145.195018" y="121.178571" width="217.177703" height="119.797619"/>
            <rect id="Byfx8H0T1f7" x="145.195018" y="221.629048" width="217.177703" height="19.3609524"/>
            <rect id="rJ7xUSAa1fX" x="45.838664" y="158.736049" width="53.6899647" height="22.9928571"/>
        </g>
        <g id="SkEl8HAakGX_SkxIRTJGm" data-animator-group="true" data-animator-type="0"><g id="SkEl8HAakGX" fill-rule="nonzero">
            <ellipse id="HySeLBCTJfQ" cx="71.9094783" cy="64.8820741" rx="63.8903478" ry="64.0094074"/>
            <path d="M159,186.376667 L0.511565217,186.376667 C0.511565217,149.212148 16.8954783,116.84037 41.1187826,99.8995556 C50.0640631,112.351763 64.4424147,119.732316 79.7557826,119.732316 C95.0691505,119.732316 109.447502,112.351763 118.392783,99.8995556 C142.629913,116.84037 159,149.212148 159,186.376667 Z" id="HJIxISA6yz7"/>
            <path d="M118.392783,99.8995556 C109.447502,112.351763 95.0691505,119.732316 79.7557826,119.732316 C64.4424147,119.732316 50.0640631,112.351763 41.1187826,99.8995556 C64.1626797,83.1459697 95.3488855,83.1459697 118.392783,99.8995556 Z" id="B1wxIH0p1Gm"/>
            <path d="M127.379739,72.0296296 C127.398655,82.0418625 124.252643,91.8029755 118.392783,99.9134074 C95.3488855,83.1598216 64.1626797,83.1598216 41.1187826,99.9134074 C29.0813793,83.1623058 29.162031,60.5553262 41.3186462,43.8908601 C53.4752614,27.226394 74.950215,20.2846343 94.5359104,26.6884266 C114.121606,33.092219 127.375194,51.3889173 127.379739,72.0296296 Z" id="H1Ox8rRT1GQ"/>
        </g></g>
    </g>
<script>(function(){var a=document.querySelector('#BkEUr0T1GQ'),b=a.querySelectorAll('style'),c=function(d){b.forEach(function(f){var g=f.textContent;g&amp;&amp;(f.textContent=g.replace(/transform-box:[^;\r\n]*/gi,'transform-box: '+d))})};c('initial'),window.requestAnimationFrame(function(){return c('fill-box')})})();</script></svg>