<svg viewBox="0 0 500 500" version="1.1" xmlns="http://www.w3.org/2000/svg" xmlns:xlink="http://www.w3.org/1999/xlink" id="rkccDUfMQ"><style>@-webkit-keyframes BJ0l9cD8GfX_Sk30lwzz7_Animation{33.33%{-webkit-transform: translate(-120px, 0px);transform: translate(-120px, 0px);}52.22%{-webkit-transform: translate(0px, 0px);transform: translate(0px, 0px);}0%{-webkit-transform: translate(-120px, 0px);transform: translate(-120px, 0px);}100%{-webkit-transform: translate(0px, 0px);transform: translate(0px, 0px);}}@keyframes BJ0l9cD8GfX_Sk30lwzz7_Animation{33.33%{-webkit-transform: translate(-120px, 0px);transform: translate(-120px, 0px);}52.22%{-webkit-transform: translate(0px, 0px);transform: translate(0px, 0px);}0%{-webkit-transform: translate(-120px, 0px);transform: translate(-120px, 0px);}100%{-webkit-transform: translate(0px, 0px);transform: translate(0px, 0px);}}@-webkit-keyframes rkhxc9wLfMQ_H1lhxPMzm_Animation{26.67%{-webkit-transform: translate(-25px, -100px);transform: translate(-25px, -100px);}43.33%{-webkit-transform: translate(0px, 0px);transform: translate(0px, 0px);}0%{-webkit-transform: translate(-25px, -100px);transform: translate(-25px, -100px);}100%{-webkit-transform: translate(0px, 0px);transform: translate(0px, 0px);}}@keyframes rkhxc9wLfMQ_H1lhxPMzm_Animation{26.67%{-webkit-transform: translate(-25px, -100px);transform: translate(-25px, -100px);}43.33%{-webkit-transform: translate(0px, 0px);transform: translate(0px, 0px);}0%{-webkit-transform: translate(-25px, -100px);transform: translate(-25px, -100px);}100%{-webkit-transform: translate(0px, 0px);transform: translate(0px, 0px);}}@-webkit-keyframes H1x-c5wUGMm_BJKwToIfz7_Animation{33.33%{-webkit-transform: translate(0px, -120px);transform: translate(0px, -120px);}46.67%{-webkit-transform: translate(0px, 0px);transform: translate(0px, 0px);}0%{-webkit-transform: translate(0px, -120px);transform: translate(0px, -120px);}100%{-webkit-transform: translate(0px, 0px);transform: translate(0px, 0px);}}@keyframes H1x-c5wUGMm_BJKwToIfz7_Animation{33.33%{-webkit-transform: translate(0px, -120px);transform: translate(0px, -120px);}46.67%{-webkit-transform: translate(0px, 0px);transform: translate(0px, 0px);}0%{-webkit-transform: translate(0px, -120px);transform: translate(0px, -120px);}100%{-webkit-transform: translate(0px, 0px);transform: translate(0px, 0px);}}@-webkit-keyframes Sy9x95wUffX_By8lO8fzm_Animation{40%{-webkit-transform: translate(100px, -60px);transform: translate(100px, -60px);}54.44%{-webkit-transform: translate(0px, 0px);transform: translate(0px, 0px);}0%{-webkit-transform: translate(100px, -60px);transform: translate(100px, -60px);}100%{-webkit-transform: translate(0px, 0px);transform: translate(0px, 0px);}}@keyframes Sy9x95wUffX_By8lO8fzm_Animation{40%{-webkit-transform: translate(100px, -60px);transform: translate(100px, -60px);}54.44%{-webkit-transform: translate(0px, 0px);transform: translate(0px, 0px);}0%{-webkit-transform: translate(100px, -60px);transform: translate(100px, -60px);}100%{-webkit-transform: translate(0px, 0px);transform: translate(0px, 0px);}}@-webkit-keyframes Sy95qPIMz7_HyiowUGzX_Animation{50%{-webkit-transform: translate(120px, -50px);transform: translate(120px, -50px);}65.56%{-webkit-transform: translate(0px, 0px);transform: translate(0px, 0px);}0%{-webkit-transform: translate(120px, -50px);transform: translate(120px, -50px);}100%{-webkit-transform: translate(0px, 0px);transform: translate(0px, 0px);}}@keyframes Sy95qPIMz7_HyiowUGzX_Animation{50%{-webkit-transform: translate(120px, -50px);transform: translate(120px, -50px);}65.56%{-webkit-transform: translate(0px, 0px);transform: translate(0px, 0px);}0%{-webkit-transform: translate(120px, -50px);transform: translate(120px, -50px);}100%{-webkit-transform: translate(0px, 0px);transform: translate(0px, 0px);}}#rkccDUfMQ *{-webkit-animation-duration: 3s;animation-duration: 3s;-webkit-animation-iteration-count: infinite;animation-iteration-count: infinite;-webkit-animation-timing-function: cubic-bezier(0, 0, 1, 1);animation-timing-function: cubic-bezier(0, 0, 1, 1);}#Ske99w8fz7{stroke: none;stroke-width: 1;fill: none;}#HJbc9DLGz7{-webkit-transform:  translate(4.000000px, 209.000000px);transform:  translate(4.000000px, 209.000000px);}#HyM5qwIzGX{fill: url(#uniqueradialGradient-1);opacity: 0.3;}#By755PUMMm{fill: url(#uniquelinearGradient-2);}#HkV5cDUMGm{fill: url(#uniquelinearGradient-3);}#Hkr9qwLzGX{fill: url(#uniquelinearGradient-4);}#r1L9qwIMfQ{-webkit-transform:  translate(180.000000px, 356.000000px);transform:  translate(180.000000px, 356.000000px);}#S1D9cDIGMQ{fill: url(#uniquelinearGradient-5);}#SJ_9qPLMz7{fill: url(#uniquelinearGradient-6);}#Bkt5qPLzzQ{fill: url(#uniquelinearGradient-7);}#Sy95qPIMz7{-webkit-transform:  translate(31.000000px, 155.000000px);transform:  translate(31.000000px, 155.000000px);fill: url(#uniquelinearGradient-8);}#H1hqcPUffm{-webkit-transform:  translate(337.000000px, 297.000000px);transform:  translate(337.000000px, 297.000000px);}#ryT5cwIzfQ{fill: url(#uniqueradialGradient-9);opacity: 0.3;}#rJC9cP8zG7{fill: url(#uniquelinearGradient-2);}#Hkkg95wIMzm{fill: url(#uniquelinearGradient-3);}#S1glc9P8MfX{fill: url(#uniquelinearGradient-4);}#BJWl9qDLzfm{-webkit-transform:  translate(421.000000px, 178.000000px);transform:  translate(421.000000px, 178.000000px);}#Syflc5DLGMQ{fill: url(#uniqueradialGradient-10);opacity: 0.3;}#Hkmgq9vIzzm{fill: url(#uniquelinearGradient-2);}#r1EeqcDUzGm{fill: url(#uniquelinearGradient-3);}#BkHlq5DUMf7{fill: url(#uniquelinearGradient-4);}#BJIeqcvIzzQ{-webkit-transform:  translate(102.000000px, 305.000000px);transform:  translate(102.000000px, 305.000000px);}#BJPl5qDUGfQ{fill: url(#uniquelinearGradient-5);}#SJuxqcPIzz7{fill: url(#uniquelinearGradient-6);}#SyYec5wLGGm{fill: url(#uniquelinearGradient-7);}#Sy9x95wUffX{-webkit-transform:  translate(126.000000px, 269.000000px);transform:  translate(126.000000px, 269.000000px);fill: url(#uniquelinearGradient-8);}#rkhxc9wLfMQ{-webkit-transform:  translate(369.000000px, 258.000000px);transform:  translate(369.000000px, 258.000000px);fill: url(#uniquelinearGradient-8);}#BJ0l9cD8GfX{-webkit-transform:  translate(446.000000px, 139.000000px);transform:  translate(446.000000px, 139.000000px);fill: url(#uniquelinearGradient-8);}#H1x-c5wUGMm{-webkit-transform:  translate(226.000000px, 283.000000px);transform:  translate(226.000000px, 283.000000px);fill: url(#uniquelinearGradient-8);}#ryMW5qPIGMX{-webkit-transform:  translate(141.000000px, 19.000000px);transform:  translate(141.000000px, 19.000000px);}#SJQb95vUMG7{fill: url(#uniquelinearGradient-11);}#r1Vb9qPIzGm{fill: url(#uniquelinearGradient-12);}#SyHW55vUMMQ{fill: url(#uniquelinearGradient-13);}#rkLWqqPLff7{fill: url(#uniquelinearGradient-14);}#H1w-5cvLMzQ{fill: url(#uniquelinearGradient-15);}#HkuZ59D8zz7{fill: url(#uniquelinearGradient-16);}#S1Fbc9wUfzQ{fill: url(#uniquelinearGradient-17);}#Syq-q9PIfGm{fill: url(#uniquelinearGradient-18);}#BJoWcqvIMMQ{fill: url(#uniquelinearGradient-19);}#S1nW59w8GMX{fill: url(#uniquelinearGradient-20);}#Hyp-5cv8MMX{fill: url(#uniquelinearGradient-21);}#BkRZc9PLGzX{fill: url(#uniquelinearGradient-22);}#HykfccPUGGX{fill: url(#uniquelinearGradient-23);}#Sy95qPIMz7_HyiowUGzX{-webkit-animation-name: Sy95qPIMz7_HyiowUGzX_Animation;animation-name: Sy95qPIMz7_HyiowUGzX_Animation;-webkit-transform-origin: 50% 50%;transform-origin: 50% 50%;transform-box: fill-box;-webkit-transform: translate(120px, -50px);transform: translate(120px, -50px);}#Sy9x95wUffX_By8lO8fzm{-webkit-animation-name: Sy9x95wUffX_By8lO8fzm_Animation;animation-name: Sy9x95wUffX_By8lO8fzm_Animation;-webkit-transform-origin: 50% 50%;transform-origin: 50% 50%;transform-box: fill-box;-webkit-transform: translate(100px, -60px);transform: translate(100px, -60px);}#H1x-c5wUGMm_BJKwToIfz7{-webkit-animation-name: H1x-c5wUGMm_BJKwToIfz7_Animation;animation-name: H1x-c5wUGMm_BJKwToIfz7_Animation;-webkit-transform-origin: 50% 50%;transform-origin: 50% 50%;transform-box: fill-box;-webkit-transform: translate(0px, -120px);transform: translate(0px, -120px);}#rkhxc9wLfMQ_H1lhxPMzm{-webkit-animation-name: rkhxc9wLfMQ_H1lhxPMzm_Animation;animation-name: rkhxc9wLfMQ_H1lhxPMzm_Animation;-webkit-transform-origin: 50% 50%;transform-origin: 50% 50%;transform-box: fill-box;-webkit-transform: translate(-25px, -100px);transform: translate(-25px, -100px);}#BJ0l9cD8GfX_Sk30lwzz7{-webkit-transform-origin: 50% 50%;transform-origin: 50% 50%;transform-box: fill-box;-webkit-transform: translate(-120px, 0px);transform: translate(-120px, 0px);-webkit-animation-name: BJ0l9cD8GfX_Sk30lwzz7_Animation;animation-name: BJ0l9cD8GfX_Sk30lwzz7_Animation;}</style>
    <!-- Generator: Sketch 50.2 (55047) - http://www.bohemiancoding.com/sketch -->
    <title>Artboard Copy 9</title>
    <desc>Created with Sketch.</desc>
    <defs>
        <radialGradient cx="50%" cy="50%" fx="50%" fy="50%" r="50.310559%" gradientTransform="translate(0.500000,0.500000),scale(0.993827,1.000000),translate(-0.500000,-0.500000)" id="uniqueradialGradient-1">
            <stop stop-color="#2AFF91" offset="0%"/>
            <stop stop-color="#FFFFFF" stop-opacity="0" offset="100%"/>
        </radialGradient>
        <linearGradient x1="7.5809125%" y1="122.985744%" x2="85.4313879%" y2="20.1185328%" id="uniquelinearGradient-2">
            <stop stop-color="#273469" offset="0%"/>
            <stop stop-color="#2E58DB" offset="100%"/>
        </linearGradient>
        <linearGradient x1="-1.6997674%" y1="50.0285563%" x2="98.944355%" y2="50.0285563%" id="uniquelinearGradient-3">
            <stop stop-color="#00A022" offset="0%"/>
            <stop stop-color="#2AFF91" offset="100%"/>
        </linearGradient>
        <linearGradient x1="10.2642181%" y1="106.432727%" x2="85.6996913%" y2="22.1841598%" id="uniquelinearGradient-4">
            <stop stop-color="#196CF2" offset="0%"/>
            <stop stop-color="#59CEF1" offset="100%"/>
        </linearGradient>
        <linearGradient x1="7.56846473%" y1="122.977297%" x2="85.4273859%" y2="20.0975164%" id="uniquelinearGradient-5">
            <stop stop-color="#196CF2" offset="0%"/>
            <stop stop-color="#59CEF1" offset="100%"/>
        </linearGradient>
        <linearGradient x1="-1.70183799%" y1="49.9813788%" x2="98.9278421%" y2="49.9813788%" id="uniquelinearGradient-6">
            <stop stop-color="#00A022" offset="0%"/>
            <stop stop-color="#2AFF91" offset="100%"/>
        </linearGradient>
        <linearGradient x1="10.2733951%" y1="106.431039%" x2="85.7082821%" y2="22.2175424%" id="uniquelinearGradient-7">
            <stop stop-color="#273469" offset="0%"/>
            <stop stop-color="#2E58DB" offset="100%"/>
        </linearGradient>
        <linearGradient x1="-6.72097264%" y1="92.8701975%" x2="107.644073%" y2="6.41346499%" id="uniquelinearGradient-8">
            <stop stop-color="#00A022" offset="0%"/>
            <stop stop-color="#2AFF91" offset="100%"/>
        </linearGradient>
        <radialGradient cx="50%" cy="50%" fx="50%" fy="50%" r="50.4201681%" gradientTransform="translate(0.500000,0.500000),scale(0.991667,1.000000),translate(-0.500000,-0.500000)" id="uniqueradialGradient-9">
            <stop stop-color="#2AFF91" offset="0%"/>
            <stop stop-color="#FFFFFF" stop-opacity="0" offset="100%"/>
        </radialGradient>
        <radialGradient cx="50%" cy="50%" fx="50%" fy="50%" r="50%" gradientTransform="translate(0.500000,0.500000),scale(1.000000,0.993895),translate(-0.500000,-0.500000)" id="uniqueradialGradient-10">
            <stop stop-color="#2AFF91" offset="0%"/>
            <stop stop-color="#FFFFFF" stop-opacity="0" offset="100%"/>
        </radialGradient>
        <linearGradient x1="0.986140725%" y1="98.7396122%" x2="99.1004797%" y2="1.18421053%" id="uniquelinearGradient-11">
            <stop stop-color="#196CF2" offset="0%"/>
            <stop stop-color="#59CEF1" offset="100%"/>
        </linearGradient>
        <linearGradient x1="21.1833933%" y1="123.24298%" x2="79.225237%" y2="-24.2817724%" id="uniquelinearGradient-12">
            <stop stop-color="#273469" offset="0%"/>
            <stop stop-color="#283877" offset="18%"/>
            <stop stop-color="#2A449B" offset="51%"/>
            <stop stop-color="#2E56D5" offset="95%"/>
            <stop stop-color="#2E58DB" offset="100%"/>
        </linearGradient>
        <linearGradient x1="29.3171255%" y1="279.534884%" x2="70.6828745%" y2="-179.689922%" id="uniquelinearGradient-13">
            <stop stop-color="#273469" offset="0%"/>
            <stop stop-color="#283877" offset="18%"/>
            <stop stop-color="#2A449B" offset="51%"/>
            <stop stop-color="#2E56D5" offset="95%"/>
            <stop stop-color="#2E58DB" offset="100%"/>
        </linearGradient>
        <linearGradient x1="20.8649469%" y1="87.2534143%" x2="79.5144158%" y2="12.215478%" id="uniquelinearGradient-14">
            <stop stop-color="#00A022" offset="0%"/>
            <stop stop-color="#2AFF91" offset="100%"/>
        </linearGradient>
        <linearGradient x1="20.8649469%" y1="87.2534143%" x2="79.5144158%" y2="12.2913505%" id="uniquelinearGradient-15">
            <stop stop-color="#00A022" offset="0%"/>
            <stop stop-color="#2AFF91" offset="100%"/>
        </linearGradient>
        <linearGradient x1="20.9408194%" y1="87.2534143%" x2="79.5144158%" y2="12.215478%" id="uniquelinearGradient-16">
            <stop stop-color="#00A022" offset="0%"/>
            <stop stop-color="#2AFF91" offset="100%"/>
        </linearGradient>
        <linearGradient x1="20.9408194%" y1="87.2534143%" x2="79.5144158%" y2="12.2913505%" id="uniquelinearGradient-17">
            <stop stop-color="#00A022" offset="0%"/>
            <stop stop-color="#2AFF91" offset="100%"/>
        </linearGradient>
        <linearGradient x1="-54.8711228%" y1="2720.34884%" x2="266.797728%" y2="-5469.76744%" id="uniquelinearGradient-18">
            <stop stop-color="#196CF2" offset="0%"/>
            <stop stop-color="#59CEF1" offset="100%"/>
        </linearGradient>
        <linearGradient x1="12.9426071%" y1="103.078627%" x2="90.353711%" y2="5.31561462%" id="uniquelinearGradient-19">
            <stop stop-color="#00A022" offset="0%"/>
            <stop stop-color="#2AFF91" offset="100%"/>
        </linearGradient>
        <linearGradient x1="83.4541853%" y1="97.838067%" x2="11.4277714%" y2="7.88469691%" id="uniquelinearGradient-20">
            <stop stop-color="#00A022" offset="0%"/>
            <stop stop-color="#2AFF91" offset="100%"/>
        </linearGradient>
        <linearGradient x1="-25.1229105%" y1="69.920967%" x2="365.437561%" y2="-13.5285914%" id="uniquelinearGradient-21">
            <stop stop-color="#00A022" offset="0%"/>
            <stop stop-color="#2AFF91" offset="100%"/>
        </linearGradient>
        <linearGradient x1="-187.863464%" y1="86.3910822%" x2="314.285714%" y2="3.0190432%" id="uniquelinearGradient-22">
            <stop stop-color="#00A022" offset="0%"/>
            <stop stop-color="#2AFF91" offset="100%"/>
        </linearGradient>
        <linearGradient x1="-249.881235%" y1="116.20994%" x2="127.505938%" y2="32.8379006%" id="uniquelinearGradient-23">
            <stop stop-color="#00A022" offset="0%"/>
            <stop stop-color="#2AFF91" offset="100%"/>
        </linearGradient>
    </defs>
    <g id="Ske99w8fz7" fill-rule="evenodd">
        <g id="HJbc9DLGz7" fill-rule="nonzero">
            <ellipse id="HyM5qwIzGX" cx="37.989913" cy="34.0023704" rx="33.7533913" ry="33.545037"/>
            <path d="M84,97.6733333 L0.27026087,97.6733333 C0.27026087,78.1967407 8.92591304,61.2318519 21.7231304,52.3537778 C26.448939,58.8795338 34.0450493,62.7474168 42.1351304,62.7474168 C50.2252116,62.7474168 57.8213219,58.8795338 62.5471304,52.3537778 C75.3516522,61.2318519 84,78.1967407 84,97.6733333 Z" id="By755PUMMm"/>
            <path d="M62.5471304,52.3537778 C57.8213219,58.8795338 50.2252116,62.7474168 42.1351304,62.7474168 C34.0450493,62.7474168 26.448939,58.8795338 21.7231304,52.3537778 C33.8972647,43.5738237 50.3729961,43.5738237 62.5471304,52.3537778 Z" id="HkV5cDUMGm"/>
            <path d="M67.2949565,37.7481481 C67.3049498,42.9952007 65.6429058,48.1106503 62.5471304,52.361037 C50.3729961,43.581083 33.8972647,43.581083 21.7231304,52.361037 C15.3637476,43.5823848 15.406356,31.7348769 21.8287188,23.0016272 C28.2510815,14.2683776 39.59634,10.6304501 49.9434998,13.9864482 C60.2906596,17.3424463 67.2925552,26.9310904 67.2949565,37.7481481 Z" id="Hkr9qwLzGX"/>
        </g>
        <g id="r1L9qwIMfQ" fill-rule="nonzero">
            <path d="M124.961337,128.675089 L0.454630299,128.675089 C0.454630299,99.4015059 13.3186013,73.9051597 32.3510788,60.5706848 C39.3798861,70.3773789 50.6766905,76.1897461 62.7079838,76.1897461 C74.7392771,76.1897461 86.0360815,70.3773789 93.0648888,60.5706848 C112.097366,73.9051597 124.961337,99.4015059 124.961337,128.675089 Z" id="S1D9cDIGMQ"/>
            <path d="M93.0648888,60.5706848 C86.0360815,70.3773789 74.7392771,76.1897461 62.7079838,76.1897461 C50.6766905,76.1897461 39.3798861,70.3773789 32.3510788,60.5706848 C50.4541038,47.3677598 74.9618637,47.3677598 93.0648888,60.5706848 Z" id="SJ_9qPLMz7"/>
            <path d="M100.121991,38.6025266 C100.137751,46.4898331 97.6674151,54.1797786 93.0648888,60.5706848 C74.9618637,47.3677598 50.4541038,47.3677598 32.3510788,60.5706848 C22.8878759,47.3781612 22.9470339,29.5695267 32.4976731,16.4407101 C42.0483122,3.31189347 58.9234316,-2.15823053 74.3143879,2.88568799 C89.7053442,7.92960652 100.119993,22.3431231 100.121991,38.6025266 Z" id="Bkt5qPLzzQ"/>
        </g>
        <g id="Sy95qPIMz7_HyiowUGzX" data-animator-group="true" data-animator-type="0"><g id="Sy95qPIMz7">
            <path d="M22.6301925,41.1356467 C22.6301925,39.4111375 22.1384717,38.0389115 21.1550152,37.0189274 C20.1715587,35.9989434 18.5018693,35.0578382 16.1458967,34.1955836 C13.7899241,33.333329 11.7581983,32.476345 10.0506586,31.6246057 C8.34311878,30.7728664 6.87876328,29.7949582 5.65754813,28.6908517 C4.43633297,27.5867453 3.48531242,26.2881252 2.80445795,24.7949527 C2.12360349,23.3017801 1.78318136,21.5247211 1.78318136,19.4637224 C1.78318136,15.9095511 2.95034294,12.9968568 5.28470111,10.7255521 C7.61905929,8.45424732 10.7206831,7.12933943 14.5896657,6.75078864 L14.5896657,0 L19.7771023,0 L19.7771023,6.84542587 C23.602856,7.37119085 26.5964093,8.92217429 28.7578521,11.4984227 C30.9192948,14.0746711 32,17.4132287 32,21.5141956 L22.6301925,21.5141956 C22.6301925,18.9905237 22.0952434,17.1030557 21.0253293,15.851735 C19.9554151,14.6004144 18.5234808,13.9747634 16.7294833,13.9747634 C14.9571002,13.9747634 13.5846047,14.4637175 12.6119554,15.4416404 C11.6393062,16.4195632 11.1529889,17.770759 11.1529889,19.4952681 C11.1529889,21.0935937 11.6284991,22.376441 12.5795339,23.3438486 C13.5305688,24.3112562 15.2975217,25.2996795 17.8804458,26.3091483 C20.4633699,27.318617 22.5869555,28.2702374 24.2512665,29.1640379 C25.9155774,30.0578383 27.3204941,31.067292 28.4660588,32.192429 C29.6116234,33.3175661 30.4869946,34.6004134 31.0921986,36.0410095 C31.6974026,37.4816055 32,39.1587707 32,41.0725552 C32,44.6477571 30.8544525,47.5499363 28.5633232,49.7791798 C26.2721939,52.0084233 23.1165348,53.3228161 19.0962513,53.7223975 L19.0962513,60 L13.9412361,60 L13.9412361,53.7539432 C9.51027842,53.29127 6.07903951,51.7613169 3.64741641,49.1640379 C1.21579331,46.5667588 0,43.1125347 0,38.8012618 L9.3698075,38.8012618 C9.3698075,41.3039032 9.98040592,43.2229166 11.2016211,44.5583596 C12.4228362,45.8938027 14.1789821,46.5615142 16.4701114,46.5615142 C18.3721811,46.5615142 19.8743613,46.0725601 20.9766971,45.0946372 C22.0790329,44.1167144 22.6301925,42.797064 22.6301925,41.1356467 Z" id="ryjq9vIMfQ"/>
        </g></g>
        <g id="H1hqcPUffm" fill-rule="nonzero">
            <ellipse id="ryT5cwIzfQ" cx="37.6764706" cy="33.6875" rx="33.9705882" ry="33.6875"/>
            <path d="M84,98 L0,98 C0,78.5210676 8.68359068,61.5541406 21.5221146,52.675 C26.263177,59.20154 33.8838059,63.0698876 42,63.0698876 C50.1161941,63.0698876 57.736823,59.20154 62.4778854,52.675 C75.3237372,61.5541406 84,78.5210676 84,98 Z" id="rJC9cP8zG7"/>
            <path d="M62.5372149,52.7774871 C57.7288442,59.4940335 50.0000262,63.475 41.7686074,63.475 C33.5371887,63.475 25.8083707,59.4940335 21,52.7774871 C33.3868223,43.7408376 50.1503926,43.7408376 62.5372149,52.7774871 Z" id="Hkkg95wIMzm"/>
            <path d="M67.6470128,38.2267954 C67.6572712,43.5220708 65.9511372,48.6845339 62.7732384,52.9739837 C50.2761536,44.1133377 33.3633609,44.1133377 20.8662761,52.9739837 C14.3381942,44.1146515 14.3819329,32.1582592 20.9746655,23.3447469 C27.567398,14.5312345 39.2136188,10.8598726 49.8352638,14.246714 C60.4569088,17.6335553 67.6445478,27.3103236 67.6470128,38.2267954 Z" id="S1glc9P8MfX"/>
        </g>
        <g id="BJWl9qDLzfm" fill-rule="nonzero">
            <ellipse id="Syflc5DLGMQ" cx="34.8333333" cy="31.3581081" rx="31.1666667" ry="31.3581081"/>
            <path d="M77,91 L0,91 C0,73.0313302 7.95995813,57.3799022 19.7286051,49.1891892 C24.074579,55.2097061 31.0601554,58.7781286 38.5,58.7781286 C45.9398446,58.7781286 52.925421,55.2097061 57.2713949,49.1891892 C69.0467591,57.3799022 77,73.0313302 77,91 Z" id="Hkmgq9vIzzm"/>
            <path d="M57.4444444,49.240724 C53.0584059,55.3851577 46.008431,59.027027 38.5,59.027027 C30.991569,59.027027 23.9415941,55.3851577 19.5555556,49.240724 C30.8544097,40.9738127 46.1455903,40.9738127 57.4444444,49.240724 Z" id="r1EeqcDUzGm"/>
            <path d="M61.4444031,36.2817478 C61.4536281,41.1687446 59.9193597,45.9331691 57.0615834,49.8918919 C45.8233799,41.7144233 30.6142802,41.7144233 19.3760767,49.8918919 C13.5055945,41.7156358 13.5449273,30.6811106 19.4735476,22.5471416 C25.4021678,14.4131725 35.8752183,11.0248817 45.4269027,14.1505893 C54.978587,17.2762969 61.4421864,26.2069627 61.4444031,36.2817478 Z" id="BkHlq5DUMf7"/>
        </g>
        <g id="BJIeqcvIzzQ" fill-rule="nonzero">
            <path d="M60,63 L0,63 C0,48.6637746 6.19917012,36.1773848 15.3709544,29.6470588 C18.7581489,34.4497158 24.2020987,37.296221 30,37.296221 C35.7979013,37.296221 41.2418511,34.4497158 44.6290456,29.6470588 C53.8008299,36.1773848 60,48.6637746 60,63 Z" id="BJPl5qDUGfQ"/>
            <path d="M45,29.6354149 C41.5269151,34.4809954 35.9449209,37.3529412 30,37.3529412 C24.0550791,37.3529412 18.4730849,34.4809954 15,29.6354149 C23.9450942,23.1117244 36.0549058,23.1117244 45,29.6354149 Z" id="SJuxqcPIzz7"/>
            <path d="M47.9999635,19.1500629 C48.0076378,23.0455547 46.804715,26.8435711 44.5635284,30 C35.7483137,23.4791572 23.8143322,23.4791572 14.9991174,30 C10.3910386,23.4842944 10.4198455,14.6887202 15.0705011,8.20447911 C19.7211567,1.720238 27.9384464,-0.981422322 35.4330272,1.50973776 C42.9276081,4.00089785 47.9989904,11.1196443 47.9999635,19.1500629 Z" id="SyYec5wLGGm"/>
        </g>
        <g id="Sy9x95wUffX_By8lO8fzm" data-animator-group="true" data-animator-type="0"><g id="Sy9x95wUffX">
            <path d="M9.1935157,17.1398528 C9.1935157,16.4213073 8.99375411,15.8495465 8.59422492,15.4245531 C8.19469574,14.9995597 7.51638439,14.6074326 6.55927052,14.2481598 C5.60215665,13.8888871 4.77676807,13.5318104 4.08308004,13.176919 C3.38939201,12.8220277 2.79449758,12.4145659 2.29837893,11.9545216 C1.80226027,11.4944772 1.41590817,10.9533855 1.13931104,10.3312303 C0.862713916,9.70907505 0.724417427,8.96863381 0.724417427,8.10988433 C0.724417427,6.62897963 1.19857682,5.41535699 2.14690983,4.46898002 C3.09524284,3.52260305 4.35527752,2.9705581 5.92705167,2.8128286 L5.92705167,0 L8.03444782,0 L8.03444782,2.85226078 C9.58866025,3.07132952 10.8047913,3.71757262 11.6828774,4.79100946 C12.5609635,5.86444631 13,7.25551196 13,8.96424816 L9.1935157,8.96424816 C9.1935157,7.91271819 8.97619265,7.1262732 8.54154002,6.60488959 C8.10688739,6.08350598 7.52516406,5.82281809 6.79635258,5.82281809 C6.07632197,5.82281809 5.51874564,6.02654896 5.12360689,6.43401682 C4.72846814,6.84148469 4.53090172,7.40448291 4.53090172,8.12302839 C4.53090172,8.78899737 4.72407777,9.32351709 5.11043566,9.72660358 C5.49679356,10.1296901 6.21461819,10.5415331 7.2639311,10.9621451 C8.31324402,11.3827571 9.17595069,11.7792656 9.852077,12.1516824 C10.5282033,12.5240993 11.0989507,12.944705 11.5643364,13.4135121 C12.029722,13.8823192 12.3853416,14.4168389 12.6312057,15.0170873 C12.8770698,15.6173356 13,16.3161544 13,17.1135647 C13,18.6032321 12.5346213,19.8124734 11.6038501,20.7413249 C10.6730788,21.6701764 9.39109226,22.21784 7.75785208,22.3843323 L7.75785208,25 L5.66362715,25 L5.66362715,22.3974763 C3.86355061,22.2046958 2.4696098,21.5672154 1.48176292,20.4850158 C0.493916033,19.4028162 0,17.9635561 0,16.1671924 L3.8064843,16.1671924 C3.8064843,17.2099596 4.0545399,18.0095486 4.55065856,18.5659832 C5.04677722,19.1224178 5.76021149,19.4006309 6.69098278,19.4006309 C7.46369856,19.4006309 8.07395926,19.1969 8.52178318,18.7894322 C8.9696071,18.3819643 9.1935157,17.83211 9.1935157,17.1398528 Z" id="SJsxqqvIGMX"/>
        </g></g>
        <g id="rkhxc9wLfMQ_H1lhxPMzm" data-animator-group="true" data-animator-type="0"><g id="rkhxc9wLfMQ">
            <path d="M15.5582573,29.4805468 C15.5582573,28.2446486 15.2201993,27.2612199 14.5440729,26.5302313 C13.8679466,25.7992428 12.7200351,25.124784 11.100304,24.5068349 C9.48057279,23.8888858 8.08376136,23.2747139 6.90982776,22.6643007 C5.73589416,22.0538876 4.72914976,21.3530534 3.88956434,20.5617771 C3.04997892,19.7705008 2.39615229,18.8398231 1.92806484,17.7697161 C1.4599774,16.6996091 1.22593718,15.4260501 1.22593718,13.9490011 C1.22593718,11.401845 2.02836077,9.31441403 3.63323202,7.68664564 C5.23810326,6.05887725 7.37046965,5.10935993 10.0303951,4.83806519 L10.0303951,0 L13.5967579,0 L13.5967579,4.90588854 C16.2269635,5.28268678 18.2850314,6.39422491 19.7710233,8.24053628 C21.2570152,10.0868476 22,12.4794806 22,15.4185068 L15.5582573,15.4185068 C15.5582573,13.6098753 15.1904799,12.2571899 14.4549139,11.3604101 C13.7193479,10.4636303 12.734893,10.0152471 11.5015198,10.0152471 C10.2830064,10.0152471 9.3394157,10.3656642 8.67071935,11.0665089 C8.002023,11.7673537 7.66767984,12.7357106 7.66767984,13.9716088 C7.66767984,15.1170755 7.99459315,16.0364494 8.64842958,16.7297581 C9.30226602,17.4230669 10.5170462,18.131437 12.2928065,18.8548896 C14.0685668,19.5783422 15.5285319,20.2603368 16.6727457,20.9008938 C17.8169595,21.5414508 18.7828397,22.2648926 19.5704154,23.0712408 C20.3579911,23.877589 20.9598088,24.7969629 21.3758865,25.8293901 C21.7919643,26.8618173 22,28.0637856 22,29.4353312 C22,31.9975593 21.2124361,34.0774543 19.6372847,35.6750789 C18.0621333,37.2727034 15.8926177,38.2146849 13.1286727,38.5010515 L13.1286727,43 L9.5845998,43 L9.5845998,38.5236593 C6.53831641,38.1920769 4.17933967,37.0956104 2.50759878,35.2342271 C0.835857903,33.3728438 0,30.8973165 0,27.807571 L6.44174265,27.807571 C6.44174265,29.6011306 6.86152907,30.9764235 7.70111449,31.9334911 C8.54069991,32.8905586 9.74805021,33.3690852 11.3232016,33.3690852 C12.6308745,33.3690852 13.6636234,33.0186681 14.4214792,32.3178233 C15.1793351,31.6169786 15.5582573,30.6712292 15.5582573,29.4805468 Z" id="SypeqcwIMfm"/>
        </g></g>
        <g id="BJ0l9cD8GfX_Sk30lwzz7" data-animator-group="true" data-animator-type="0"><g id="BJ0l9cD8GfX">
            <path d="M15.5582573,29.4805468 C15.5582573,28.2446486 15.2201993,27.2612199 14.5440729,26.5302313 C13.8679466,25.7992428 12.7200351,25.124784 11.100304,24.5068349 C9.48057279,23.8888858 8.08376136,23.2747139 6.90982776,22.6643007 C5.73589416,22.0538876 4.72914976,21.3530534 3.88956434,20.5617771 C3.04997892,19.7705008 2.39615229,18.8398231 1.92806484,17.7697161 C1.4599774,16.6996091 1.22593718,15.4260501 1.22593718,13.9490011 C1.22593718,11.401845 2.02836077,9.31441403 3.63323202,7.68664564 C5.23810326,6.05887725 7.37046965,5.10935993 10.0303951,4.83806519 L10.0303951,0 L13.5967579,0 L13.5967579,4.90588854 C16.2269635,5.28268678 18.2850314,6.39422491 19.7710233,8.24053628 C21.2570152,10.0868476 22,12.4794806 22,15.4185068 L15.5582573,15.4185068 C15.5582573,13.6098753 15.1904799,12.2571899 14.4549139,11.3604101 C13.7193479,10.4636303 12.734893,10.0152471 11.5015198,10.0152471 C10.2830064,10.0152471 9.3394157,10.3656642 8.67071935,11.0665089 C8.002023,11.7673537 7.66767984,12.7357106 7.66767984,13.9716088 C7.66767984,15.1170755 7.99459315,16.0364494 8.64842958,16.7297581 C9.30226602,17.4230669 10.5170462,18.131437 12.2928065,18.8548896 C14.0685668,19.5783422 15.5285319,20.2603368 16.6727457,20.9008938 C17.8169595,21.5414508 18.7828397,22.2648926 19.5704154,23.0712408 C20.3579911,23.877589 20.9598088,24.7969629 21.3758865,25.8293901 C21.7919643,26.8618173 22,28.0637856 22,29.4353312 C22,31.9975593 21.2124361,34.0774543 19.6372847,35.6750789 C18.0621333,37.2727034 15.8926177,38.2146849 13.1286727,38.5010515 L13.1286727,43 L9.5845998,43 L9.5845998,38.5236593 C6.53831641,38.1920769 4.17933967,37.0956104 2.50759878,35.2342271 C0.835857903,33.3728438 0,30.8973165 0,27.807571 L6.44174265,27.807571 C6.44174265,29.6011306 6.86152907,30.9764235 7.70111449,31.9334911 C8.54069991,32.8905586 9.74805021,33.3690852 11.3232016,33.3690852 C12.6308745,33.3690852 13.6636234,33.0186681 14.4214792,32.3178233 C15.1793351,31.6169786 15.5582573,30.6712292 15.5582573,29.4805468 Z" id="r1kb59DLzzX"/>
        </g></g>
        <g id="H1x-c5wUGMm_BJKwToIfz7" data-animator-group="true" data-animator-type="0"><g id="H1x-c5wUGMm">
            <path d="M23.337386,44.5636172 C23.337386,42.695399 22.8302989,41.2088208 21.8161094,40.1038381 C20.80192,38.9988553 19.0800527,37.9793247 16.6504559,37.0452156 C14.2208592,36.1111064 12.125642,35.182707 10.3647416,34.2599895 C8.60384125,33.3372719 7.09372464,32.2778714 5.8343465,31.081756 C4.57496837,29.8856407 3.59422843,28.4788023 2.89209726,26.8611987 C2.18996609,25.2435951 1.83890578,23.3184479 1.83890578,21.0856993 C1.83890578,17.235347 3.04254116,14.0799282 5.44984802,11.6193481 C7.85715489,9.15876793 11.0557045,7.72345105 15.0455927,7.31335436 L15.0455927,0 L20.3951368,0 L20.3951368,7.41587802 C24.3404453,7.98545676 27.4275471,9.66568881 29.656535,12.4566246 C31.8855228,15.2475604 33,18.8643311 33,23.3070452 L23.337386,23.3070452 C23.337386,20.5730673 22.7857198,18.5283103 21.6823708,17.1727129 C20.5790218,15.8171155 19.1023395,15.139327 17.2522796,15.139327 C15.4245096,15.139327 14.0091236,15.6690273 13.006079,16.7284437 C12.0030345,17.7878602 11.5015198,19.2516556 11.5015198,21.1198738 C11.5015198,22.8513932 11.9918897,24.2411444 12.9726444,25.2891693 C13.953399,26.3371942 15.7755693,27.4079861 18.4392097,28.5015773 C21.1028502,29.5951685 23.2927979,30.6260905 25.0091185,31.5943743 C26.7254392,32.5626582 28.1742595,33.656233 29.3556231,34.8751314 C30.5369867,36.0940299 31.4397132,37.4837812 32.0638298,39.0444269 C32.6879464,40.6050726 33,42.4220016 33,44.4952681 C33,48.3684035 31.8186542,51.512431 29.4559271,53.9274448 C27.0931999,56.3424586 23.8389265,57.7663841 19.6930091,58.1992639 L19.6930091,65 L14.3768997,65 L14.3768997,58.2334385 C9.80747462,57.7322092 6.2690095,56.07476 3.76139818,53.261041 C1.25378685,50.4473221 0,46.7052459 0,42.0347003 L9.66261398,42.0347003 C9.66261398,44.7458951 10.2922936,46.8248263 11.5516717,48.2715563 C12.8110499,49.7182862 14.6220753,50.4416404 16.9848024,50.4416404 C18.9463117,50.4416404 20.495435,49.9119401 21.6322188,48.8525237 C22.7690026,47.7931072 23.337386,46.363486 23.337386,44.5636172 Z" id="BJZW95wLGMQ"/>
        </g></g>
        <g id="ryMW5qPIGMX" fill-rule="nonzero">
            <path d="M7,0 L223.49,8.8817842e-16 C227.085374,2.27718982e-16 230,2.91462628 230,6.51 L230,213.49 C230,217.085374 227.085374,220 223.49,220 L6.51,220 C2.91462628,220 2.17360436e-14,217.085374 5.32907052e-15,213.49 L0,7 C-4.73447626e-16,3.13400675 3.13400675,7.10171439e-16 7,0 Z" id="SJQb95vUMG7"/>
            <rect id="r1Vb9qPIzGm" x="22.1390374" y="29.4972067" width="186.951872" height="92.1787709" rx="3.33"/>
            <rect id="SyHW55vUMMQ" x="29.5187166" y="138.882682" width="84.8663102" height="9.83240223" rx="2.39"/>
            <ellipse id="rkLWqqPLff7" cx="146.97861" cy="152.402235" rx="9.22459893" ry="9.83240223"/>
            <ellipse id="H1w-5cvLMzQ" cx="146.97861" cy="190.502793" rx="9.22459893" ry="9.83240223"/>
            <ellipse id="HkuZ59D8zz7" cx="187.566845" cy="152.402235" rx="9.22459893" ry="9.83240223"/>
            <ellipse id="S1Fbc9wUfzQ" cx="187.566845" cy="190.502793" rx="9.22459893" ry="9.83240223"/>
            <rect id="Syq-q9PIfGm" x="39.3582888" y="142.569832" width="68.8770053" height="3.68715084" rx="0.86"/>
            <path d="M97.4308246,142.569832 L45.3181846,142.569832 L36.923891,207.844788 C36.8099776,208.729622 37.0811335,209.620664 37.6702717,210.297462 C38.2594099,210.974259 39.1114952,211.373587 40.0157119,211.396648 L102.656002,211.396648 C103.561935,211.378356 104.41707,210.980378 105.007253,210.30238 C105.597436,209.624382 105.866776,208.730572 105.747823,207.844788 L97.4308246,142.569832 Z" id="BJoWcqvIMMQ"/>
            <path d="M103.589859,142.569832 L51.4603187,142.569832 L43.0812525,211.364346 C42.9483844,212.28668 43.2190363,213.22144 43.8248073,213.932387 C44.4305784,214.643334 45.3135078,215.062445 46.2504565,215.083799 L108.799721,215.083799 C109.722982,215.041175 110.585221,214.612967 111.174015,213.90467 C111.762808,213.196373 112.023414,212.273838 111.891628,211.364346 L103.589859,142.569832 Z" id="S1nW59w8GMX"/>
            <path d="M85.5556607,92.1787709 L83.6835297,86.2083635 L71.2461944,86.2083635 L69.3740634,92.1787709 L62.7272727,92.1787709 L73.6552932,58.9944134 L81.2889436,58.9944134 L92.2459893,92.1787709 L85.5556607,92.1787709 Z M73.2054012,80.083682 L81.7678608,80.083682 L77.486631,66.5384166 L73.2054012,80.083682 Z" id="Hyp-5cv8MMX"/>
            <polygon id="BkRZc9PLGzX" points="120.534759 58.9944134 120.534759 65.2521232 112.418045 65.2521232 112.418045 92.1787709 106.484447 92.1787709 106.484447 65.2521232 98.3957219 65.2521232 98.3957219 58.9944134"/>
            <polygon id="HykfccPUGGX" points="170.962567 58.9944134 170.962567 92.1787709 164.320856 92.1787709 164.320856 70.6004614 154.760578 86.0135396 153.987552 86.0135396 144.52193 70.6004614 144.52193 92.1787709 137.754011 92.1787709 137.754011 58.9944134 144.632362 58.9944134 154.381953 74.669514 164.068439 58.9944134"/>
        </g>
    </g>
<script>(function(){var a=document.querySelector('#rkccDUfMQ'),b=a.querySelectorAll('style'),c=function(d){b.forEach(function(f){var g=f.textContent;g&amp;&amp;(f.textContent=g.replace(/transform-box:[^;\r\n]*/gi,'transform-box: '+d))})};c('initial'),window.requestAnimationFrame(function(){return c('fill-box')})})();</script></svg>