<?xml version="1.0" encoding="UTF-8"?>
<svg width="1440px" height="714px" viewBox="0 0 1440 714" version="1.1" xmlns="http://www.w3.org/2000/svg" xmlns:xlink="http://www.w3.org/1999/xlink">
    <!-- Generator: Sketch 50.2 (55047) - http://www.bohemiancoding.com/sketch -->
    <title>How it Works V10 Copy</title>
    <desc>Created with Sketch.</desc>
    <defs>
        <linearGradient x1="0%" y1="98.3831526%" x2="100%" y2="0%" id="linearGradient-1">
            <stop stop-color="#001358" offset="0%"></stop>
            <stop stop-color="#125AC4" offset="100%"></stop>
        </linearGradient>
        <polygon id="path-2" points="9.09494702e-13 0 13.020934 0 13.020934 8.02061856 9.09494702e-13 8.02061856"></polygon>
    </defs>
    <g id="How-it-Works-V10-Copy" stroke="none" stroke-width="1" fill="none" fill-rule="evenodd">
        <g id="Group-4" transform="translate(-1.000000, -3.000000)">
            <rect id="Rectangle-3" fill="url(#linearGradient-1)" x="1" y="2" width="1443" height="717"></rect>
            <g id="Page-1" style="mix-blend-mode: overlay;" transform="translate(183.000000, 333.000000) rotate(-85.000000) translate(-183.000000, -333.000000) translate(-136.000000, 178.000000)">
                <path d="M272.427002,13.8152876 L267.360736,19 L267.352487,19 C265.181361,16.7910896 262.206488,15.4202356 258.90535,15.4202356 C255.605129,15.4202356 252.630256,16.7910896 250.45913,19 L250.450881,19 L245.384615,13.8152876 L258.90535,-1.13686838e-13 L272.427002,13.8152876 Z" id="Fill-1" fill="#FFFFFF"></path>
                <path d="M244.383046,206.725379 L240.630088,210 L240.624348,210 C239.015255,208.604806 236.813035,207.738853 234.367825,207.738853 C231.922615,207.738853 229.719439,208.604806 228.111302,210 L228.104606,210 L224.351648,206.725379 L234.367825,198 L244.383046,206.725379 Z" id="Fill-3" fill="#FFFFFF"></path>
                <path d="M473.742543,228.725379 L469.989586,232 L469.983846,232 C468.375709,230.604806 466.172533,229.738853 463.727323,229.738853 C461.282113,229.738853 459.078937,230.604806 457.4708,232 L457.464103,232 L453.711146,228.725379 L463.727323,220 L473.742543,228.725379 Z" id="Fill-5" fill="#FFFFFF"></path>
                <path d="M332.067989,156 L328.514914,152.440279 L328.514914,152.434835 C330.028746,150.908592 330.968335,148.819762 330.968335,146.500454 C330.968335,144.181145 330.028746,142.091408 328.514914,140.566073 L328.514914,140.559721 L332.067989,137 L341.535322,146.500454 L332.067989,156 Z" id="Fill-7" fill="#0B3E9A"></path>
                <path d="M637.995266,163 L638,168.247991 L637.995266,168.252718 C635.748682,168.257444 633.511566,169.102491 631.80083,170.810546 C630.090093,172.518601 629.243719,174.752211 629.238986,176.995274 L629.234252,177 L623.978022,176.995274 L623.978022,163 L637.995266,163 Z" id="Fill-9" fill="#FFFFFF"></path>
                <path d="M1.91316568,310 L0,307.751581 L0,307.748092 C0.815058963,306.784359 1.32113648,305.464787 1.32113648,303.999564 C1.32113648,302.535213 0.815058963,301.215641 0,300.251908 L0,300.247547 L1.91316568,298 L7.01098901,303.999564 L1.91316568,310 Z" id="Fill-11" fill="#FFFFFF"></path>
                <path d="M577.083817,232 L580.910518,235.933924 L580.910518,235.941076 C579.280177,237.627299 578.268809,239.936691 578.268809,242.5 C578.268809,245.063309 579.280177,247.373595 580.910518,249.059818 L580.910518,249.066076 L577.083817,253 L566.88854,242.5 L577.083817,232 Z" id="Fill-13" fill="#FFFFFF"></path>
                <path d="M180.123348,138 L165.259027,122.5 L180.123348,107 C183.933548,110.933978 186.291994,116.441911 186.291994,122.5 C186.291994,128.558089 183.933548,134.066022 180.123348,138" id="Fill-17" fill="#0B3E9A"></path>
                <path d="M487.764521,141.158977 L471.739403,156 L455.714286,141.158977 C459.781541,137.354749 465.476075,135 471.739403,135 C478.002732,135 483.697266,137.354749 487.764521,141.158977" id="Fill-19" fill="#56C1ED"></path>
                <path d="M168.263736,280.947168 L172.770801,276 L177.277865,280.947168 C176.134169,282.215391 174.532326,283 172.770801,283 C171.009275,283 169.407432,282.215391 168.263736,280.947168" id="Fill-23" fill="#56C1ED"></path>
                <path d="M328.514914,75.9999094 L328.514914,69 L335.525812,69 C335.535008,70.7848667 334.845321,72.5844237 333.475143,73.9524543 C332.104964,75.3204848 330.303502,76.0090908 328.514914,75.9999094" id="Fill-25" fill="#0B3E9A"></path>
                <path d="M38.0596546,198.360717 L44.5698587,192 L51.0800628,198.360717 C49.4277084,199.990992 47.1142319,201 44.5698587,201 C42.0254855,201 39.712009,199.990992 38.0596546,198.360717" id="Fill-27" fill="#56C1ED"></path>
                <path d="M385.243113,283 L391.613815,289 L385.243113,295 C383.610278,293.47714 382.599686,291.344971 382.599686,289 C382.599686,286.655029 383.610278,284.52286 385.243113,283" id="Fill-29" fill="#56C1ED"></path>
                <path d="M383.601256,32.3604976 L390.11146,26 L396.621664,32.3604976 C394.969238,33.9905488 392.655841,35 390.11146,35 C387.567079,35 385.253682,33.9905488 383.601256,32.3604976" id="Fill-31" fill="#FB3448"></path>
            </g>
            <g id="Page-1-Copy" style="mix-blend-mode: overlay;" transform="translate(1137.183013, 367.816987) rotate(-120.000000) translate(-1137.183013, -367.816987) translate(825.683013, 172.816987)">
                <path d="M234.376812,89.0441929 L229.310341,94.242268 L229.302092,94.242268 C227.130879,92.0276646 224.155885,90.6532774 220.854614,90.6532774 C217.55426,90.6532774 214.579266,92.0276646 212.408053,94.242268 L212.399804,94.242268 L207.333333,89.0441929 L220.854614,75.193299 L234.376812,89.0441929 Z" id="Fill-1" fill="#FFFFFF"></path>
                <path d="M206.331723,282.451475 L202.578614,285.734536 L202.572874,285.734536 C200.963716,284.335746 198.761407,283.467561 196.316098,283.467561 C193.87079,283.467561 191.667524,284.335746 190.059323,285.734536 L190.052626,285.734536 L186.299517,282.451475 L196.316098,273.703608 L206.331723,282.451475 Z" id="Fill-3" fill="#FFFFFF"></path>
                <path d="M435.700483,304.508176 L431.947374,307.791237 L431.941634,307.791237 C430.333432,306.392447 428.130167,305.524262 425.684858,305.524262 C423.23955,305.524262 421.036284,306.392447 419.428083,307.791237 L419.421386,307.791237 L415.668277,304.508176 L425.684858,295.760309 L435.700483,304.508176 Z" id="Fill-5" fill="#FFFFFF"></path>
                <path d="M294.020208,231.595361 L290.466989,228.026465 L290.466989,228.021007 C291.980883,226.49083 292.92051,224.396617 292.92051,222.071331 C292.92051,219.746045 291.980883,217.650922 290.466989,216.121656 L290.466989,216.115287 L294.020208,212.546392 L303.487923,222.071331 L294.020208,231.595361 Z" id="Fill-7" fill="#0B3E9A"></path>
                <path d="M142.069431,213.548969 L127.204509,198.009021 L142.069431,182.469072 C145.879784,186.413189 148.238325,191.935318 148.238325,198.009021 C148.238325,204.082723 145.879784,209.604852 142.069431,213.548969" id="Fill-17" fill="#0B3E9A"></path>
                <path d="M449.723027,216.716087 L433.697262,231.595361 L417.671498,216.716087 C421.738917,212.902055 427.433681,210.541237 433.697262,210.541237 C439.960844,210.541237 445.655608,212.902055 449.723027,216.716087" id="Fill-19" fill="#56C1ED"></path>
                <path d="M258.415459,14.8792734 L274.441224,0 L290.466989,14.8792734 C286.399569,18.6933058 280.704805,21.0541237 274.441224,21.0541237 C268.177643,21.0541237 262.482878,18.6933058 258.415459,14.8792734" id="Fill-21" fill="#56C1ED"></path>
                <path d="M130.20934,356.864558 L134.716586,351.904639 L139.223833,356.864558 C138.080091,358.136049 136.478183,358.92268 134.716586,358.92268 C132.954989,358.92268 131.353082,358.136049 130.20934,356.864558" id="Fill-23" fill="#56C1ED"></path>
                <path d="M290.466989,151.389084 L290.466989,144.371134 L297.47817,144.371134 C297.487366,146.160601 296.797651,147.964796 295.427418,149.336352 C294.057184,150.707909 292.255649,151.398289 290.466989,151.389084" id="Fill-25" fill="#0B3E9A"></path>
                <path d="M1.13686838e-13,274.065255 L6.51046699,267.688144 L13.020934,274.065255 C11.3685129,275.699732 9.05494293,276.71134 6.51046699,276.71134 C3.96599104,276.71134 1.6524211,275.699732 1.13686838e-13,274.065255" id="Fill-27" fill="#56C1ED"></path>
                <path d="M347.197479,358.92268 L353.568438,364.938144 L347.197479,370.953608 C345.564578,369.426824 344.553945,367.289159 344.553945,364.938144 C344.553945,362.58713 345.564578,360.449465 347.197479,358.92268" id="Fill-29" fill="#56C1ED"></path>
                <path d="M345.555556,107.6372 L352.066023,101.260309 L358.57649,107.6372 C356.923997,109.271452 354.610506,110.283505 352.066023,110.283505 C349.521539,110.283505 347.208049,109.271452 345.555556,107.6372" id="Fill-31" fill="#FB3448"></path>
                <g id="Group-35" transform="translate(608.979066, 380.979381)">
                    <mask id="mask-3" fill="white">
                        <use xlink:href="#path-2"></use>
                    </mask>
                    <g id="Clip-34"></g>
                </g>
            </g>
            <g id="Page-1-Copy-2" style="mix-blend-mode: overlay;" transform="translate(871.500000, 270.000000) rotate(-120.000000) translate(-871.500000, -270.000000) translate(673.000000, 77.000000)">
                <path d="M272.686869,89.0459766 L267.61577,94.2441558 L267.607514,94.2441558 C265.434317,92.0295081 262.456606,90.6550933 259.152319,90.6550933 C255.84895,90.6550933 252.871239,92.0295081 250.698042,94.2441558 L250.689786,94.2441558 L245.618687,89.0459766 L259.152319,75.1948052 L272.686869,89.0459766 Z" id="Fill-1" fill="#FFFFFF"></path>
                <path d="M244.616162,282.457133 L240.859624,285.74026 L240.853879,285.74026 C239.243251,284.341442 237.03893,283.473239 234.591388,283.473239 C232.143845,283.473239 229.938568,284.341442 228.328897,285.74026 L228.322194,285.74026 L224.565657,282.457133 L234.591388,273.709091 L244.616162,282.457133 Z" id="Fill-3" fill="#FFFFFF"></path>
                <path d="M332.384748,231.6 L328.828283,228.031033 L328.828283,228.025574 C330.34356,226.495367 331.284045,224.401112 331.284045,222.07578 C331.284045,219.750447 330.34356,217.655282 328.828283,216.125985 L328.828283,216.119616 L332.384748,212.550649 L341.861111,222.07578 L332.384748,231.6 Z" id="Fill-7" fill="#0B3E9A"></path>
                <path d="M1.91499064,386 L0,383.745741 L0,383.742243 C0.815836445,382.776007 1.32239671,381.453007 1.32239671,379.983978 C1.32239671,378.515824 0.815836445,377.192824 0,376.226588 L0,376.222216 L1.91499064,373.968831 L7.01767677,379.983978 L1.91499064,386 Z" id="Fill-11" fill="#FFFFFF"></path>
                <path d="M180.295167,213.553247 L165.416667,198.012987 L180.295167,182.472727 C184.109002,186.416923 186.469697,191.939163 186.469697,198.012987 C186.469697,204.086811 184.109002,209.609051 180.295167,213.553247" id="Fill-17" fill="#0B3E9A"></path>
                <path d="M296.747475,14.8795714 L312.787879,0 L328.828283,14.8795714 C324.757148,18.6936803 319.057182,21.0545455 312.787879,21.0545455 C306.518576,21.0545455 300.81861,18.6936803 296.747475,14.8795714" id="Fill-21" fill="#56C1ED"></path>
                <path d="M168.424242,356.871706 L172.935606,351.911688 L177.44697,356.871706 C176.302183,358.143223 174.698812,358.92987 172.935606,358.92987 C171.1724,358.92987 169.569029,358.143223 168.424242,356.871706" id="Fill-23" fill="#56C1ED"></path>
                <path d="M328.828283,151.392117 L328.828283,144.374026 L335.845869,144.374026 C335.855073,146.163529 335.164728,147.96776 333.793243,149.339344 C332.421758,150.710928 330.618577,151.401322 328.828283,151.392117" id="Fill-25" fill="#0B3E9A"></path>
                <path d="M38.0959596,274.070745 L44.6123737,267.693506 L51.1287879,274.070745 C49.4748573,275.705254 47.159174,276.716883 44.6123737,276.716883 C42.0655735,276.716883 39.7498901,275.705254 38.0959596,274.070745" id="Fill-27" fill="#56C1ED"></path>
                <path d="M383.967172,107.639356 L390.483586,101.262338 L397,107.639356 C395.345998,109.273641 393.030394,110.285714 390.483586,110.285714 C387.936778,110.285714 385.621174,109.273641 383.967172,107.639356" id="Fill-31" fill="#FB3448"></path>
            </g>
        </g>
    </g>
</svg>