<svg viewBox="0 0 500 500" version="1.1" xmlns="http://www.w3.org/2000/svg" xmlns:xlink="http://www.w3.org/1999/xlink" id="By8K-RyGm">
    <!-- Generator: Sketch 50.2 (55047) - http://www.bohemiancoding.com/sketch -->
    <title>Artboard Copy 6</title>
    <desc>Created with Sketch.</desc>
    <defs>
        <linearGradient x1="19.711875%" y1="89.2175%" x2="79.2275%" y2="12.366875%" id="EndslinearGradient-1">
            <stop stop-color="#00A022" offset="0%"/>
            <stop stop-color="#2AFF91" offset="100%"/>
        </linearGradient>
    </defs>
    <g id="r1lIY-0kfQ" fill-rule="evenodd">
        <g id="BybUFbC1zQ_r1M5b0JzX" data-animator-group="true" data-animator-type="0"><g id="BybUFbC1zQ" fill-rule="nonzero">
            <path d="M0,-3.48165941e-13 L198.49,-3.49054119e-13 C202.085374,-3.33747912e-13 205,2.91462628 205,6.51 L205,108 L0,108 L0,-3.48165941e-13 Z" id="H1GUKZAJMQ"/>
            <path d="M0,46.4488189 L168.827895,46.4488189 C170.667003,46.4488189 172.157895,47.9397107 172.157895,49.7788189 L172.157895,108 L0,108 L0,46.4488189 Z" id="rJQIY-0JzQ"/>
            <polygon id="SJEItZAJMm" points="32.5789474 92.8976378 32.5789474 102.687157 19.5348327 102.687157 19.5348327 108 9.99913501 108 9.99913501 102.687157 0 102.687157 0 92.8976378"/>
            <polygon id="SyrIKW0yfQ" points="111.947368 92.8976378 111.947368 108 101.547368 108 100.969865 108 70.5449931 108 59.9473684 108 59.9473684 92.8976378 70.7179147 92.8976378 83.1123631 108 89.3193432 108 101.152119 92.8976378"/>
        </g></g>
        <g id="B1ULtZRyfm_ByL5b01fX" data-animator-group="true" data-animator-type="0"><g id="B1ULtZRyfm" fill-rule="nonzero">
            <path d="M-1.56319402e-13,0.0639122009 L159.574323,0.0639122009 L159.574323,219 L6.51,219 C2.91462628,219 -1.6476088e-13,216.085374 -1.65201186e-13,212.49 L-1.56319402e-13,0.0639122009 Z" id="SkwItWCJMm"/>
            <path d="M35.5789474,0.227666361 L159.572259,0.227666361 L159.572259,63.2598425 L38.9089474,63.2598425 C37.0698392,63.2598425 35.5789474,61.7689507 35.5789474,59.9298425 L35.5789474,0.227666361 Z" id="r1_IF-01Mm"/>
            <path d="M48.9163158,90.5826772 L159.725757,90.5826772 L159.725757,106.976378 L48.9163158,106.976378 C47.5963552,106.976378 46.5263158,105.906339 46.5263158,104.586378 L46.5263158,92.9726772 C46.5263158,91.6527166 47.5963552,90.5826772 48.9163158,90.5826772 Z" id="r1KUKWRkGm"/>
            <path d="M63.8073684,96.0472441 L159.561871,96.0472441 L159.561871,101.511811 L63.8073684,101.511811 C63.3324035,101.511811 62.9473684,101.126776 62.9473684,100.651811 L62.9473684,96.9072441 C62.9473684,96.4322792 63.3324035,96.0472441 63.8073684,96.0472441 Z" id="SkcIYZAyfX"/>
            <path d="M153.684429,96.0472441 L70.8561665,96.0472441 L57.5142067,199.69852 C57.3331517,201.103564 57.7641292,202.518466 58.7005103,203.593165 C59.6368915,204.667864 60.9912029,205.301964 62.4283724,205.338583 L159.272751,205.338583 C160.232683,205.319219 158.369909,168.888772 153.684429,96.0472441 Z" id="BJi8KW0yz7"/>
            <path d="M159.699186,96.0472441 L81.7914578,96.0472441 L68.4737005,204.916984 C68.2625189,206.37661 68.6926952,207.855901 69.6555127,208.981 C70.6183302,210.106099 72.0216656,210.769356 73.5108596,210.80315 C150.21072,210.80315 178.973168,210.80315 159.798203,210.80315 C159.765954,210.80315 159.732948,172.551181 159.699186,96.0472441 Z" id="ry2IF-AyGm"/>
            <polygon id="BJ6UKb0kfQ" points="134.507582 16.8110236 131.556798 7.47095839 111.953527 7.47095839 109.002743 16.8110236 98.5263158 16.8110236 103.900801 0.295989459 139.683663 0.295989459 145.052632 16.8110236"/>
        </g></g>
        <g id="HJCUKWAyMX_H1d9WCkzm" data-animator-group="true" data-animator-type="0"><g id="HJCUKWAyMX" fill-rule="nonzero">
            <path d="M7,-5.68434189e-14 L159.413985,-5.68434189e-14 L159.413985,128.223713 L-2.84217094e-13,128.223713 L-2.83328916e-13,7 C-2.83802364e-13,3.13400675 3.13400675,-5.5245069e-14 7,-5.59552404e-14 Z" id="Hk1e8YWR1f7"/>
            <path d="M38.9089474,45.4488189 L159.562445,45.4488189 L159.562445,128.354797 L35.5789474,128.354797 L35.5789474,48.7788189 C35.5789474,46.9397107 37.0698392,45.4488189 38.9089474,45.4488189 Z" id="rJexLt-R1MX"/>
            <path d="M131.409476,128.382516 L112.575253,128.382516 L103.841215,128.382516 L115.75066,91.8976378 L127.782539,91.8976378 L139.698502,128.382516 L131.409476,128.382516 Z M115.041557,124.889548 L128.537391,124.889548 L121.789474,103.699426 L115.041557,124.889548 Z" id="HJWx8tb0yMQ"/>
        </g></g>
        <g id="Hyfx8FWAyfQ_HJ59Z0yfX" data-animator-group="true" data-animator-type="0"><g id="Hyfx8FWAyfQ" fill-rule="nonzero">
            <path d="M1,0 L206,0 L206,232.49 C206,236.085374 203.085374,239 199.49,239 L1,239 L1,0 Z" id="Sk7lIF-RkfQ"/>
            <path d="M1,0 L173.157895,0 L173.157895,79.9298425 C173.157895,81.7689507 171.667003,83.2598425 169.827895,83.2598425 L1,83.2598425 L1,0 Z" id="SkNx8K-Rkfm"/>
            <path d="M1,110.582677 L20.2415789,110.582677 C21.5615395,110.582677 22.6315789,111.652717 22.6315789,112.972677 L22.6315789,124.586378 C22.6315789,125.906339 21.5615395,126.976378 20.2415789,126.976378 L1,126.976378 L1,110.582677 Z" id="B1SxLFbAkzm"/>
            <ellipse id="r1UeIF-01zX" cx="76" cy="131.074803" rx="15.0526316" ry="15.0275591"/>
            <ellipse id="H1wlUYWCkzX" cx="76" cy="191.185039" rx="15.0526316" ry="15.0275591"/>
            <ellipse id="BJdxIYbRkzQ" cx="138.947368" cy="131.074803" rx="15.0526316" ry="15.0275591"/>
            <ellipse id="SJKeLYbAyfm" cx="138.947368" cy="191.185039" rx="15.0526316" ry="15.0275591"/>
            <path d="M1,116.047244 L13.5610526,116.047244 C14.0360175,116.047244 14.4210526,116.432279 14.4210526,116.907244 L14.4210526,120.651811 C14.4210526,121.126776 14.0360175,121.511811 13.5610526,121.511811 L1,121.511811 L1,116.047244 Z" id="SkqeUtWRJf7"/>
            <path d="M6.6465825,116.047244 L1.18960541,116.047244 C1.33230459,192.551181 1.33457384,230.80315 1.19641317,230.80315 C-1.85485061,230.80315 2.7220719,230.80315 14.9271807,230.80315 C16.3946184,230.735697 17.765069,230.058042 18.7009018,228.937137 C19.6367346,227.816232 20.0509436,226.356288 19.8414823,224.916984 L6.6465825,116.047244 Z" id="B1ilLtW0yfQ"/>
            <polygon id="Bkhe8Yb0yGQ" points="20.5348327 0.0268949348 20.5348327 36.8110236 10.999135 36.8110236 10.999135 0.0307471663"/>
            <polygon id="SyalUKZA1fX" points="112.947368 0.0708357036 112.947368 36.8110236 102.547368 36.8110236 102.547368 3.05406117 87.5772972 27.1661772 86.3668459 27.1661772 71.5449931 3.05406117 71.5449931 36.8110236 60.9473684 36.8110236 60.9473684 0.186046994 81.2065566 0.138888724 86.9844231 9.4196598 92.7813342 0.0476377169"/>
        </g></g>
    </g>
<script>(function(){var a=document.querySelector('#By8K-RyGm'),b=a.querySelectorAll('style'),c=function(d){b.forEach(function(f){var g=f.textContent;g&amp;&amp;(f.textContent=g.replace(/transform-box:[^;\r\n]*/gi,'transform-box: '+d))})};c('initial'),window.requestAnimationFrame(function(){return c('fill-box')})})();</script></svg>