<svg xmlns="http://www.w3.org/2000/svg" xmlns:xlink="http://www.w3.org/1999/xlink" viewBox="0 0 208.52 208.52"><defs><style>.a{opacity:0.3;fill:url(#a);}.b{fill:url(#b);}.c{fill:url(#c);}.d{fill:url(#d);}.e{fill:url(#e);}</style><radialGradient id="a" cx="49.8" cy="296.65" r="67" gradientTransform="translate(54.73 -213.88)" gradientUnits="userSpaceOnUse"><stop offset="0" stop-color="#2aff91"/><stop offset="1" stop-color="#fff" stop-opacity="0"/></radialGradient><linearGradient id="b" x1="1.89" y1="264.1" x2="94.45" y2="361.13" gradientTransform="translate(54.73 -213.88)" gradientUnits="userSpaceOnUse"><stop offset="0" stop-color="#273469"/><stop offset="0.18" stop-color="#283877"/><stop offset="0.51" stop-color="#2a449b"/><stop offset="0.95" stop-color="#2e56d5"/><stop offset="1" stop-color="#2e58db"/></linearGradient><linearGradient id="c" x1="1771.96" y1="2740.64" x2="1844.1" y2="2740.64" gradientTransform="matrix(0.69, 0.72, -0.72, 0.69, 842.12, -3062.44)" gradientUnits="userSpaceOnUse"><stop offset="0" stop-color="#196cf2"/><stop offset="1" stop-color="#59cef1"/></linearGradient><linearGradient id="d" x1="-32.08" y1="190.84" x2="-6.99" y2="172.6" gradientTransform="translate(122.51 -121.62)" gradientUnits="userSpaceOnUse"><stop offset="0" stop-color="#00a022"/><stop offset="1" stop-color="#2aff91"/></linearGradient><linearGradient id="e" x1="-29.62" y1="196.91" x2="-6.33" y2="196.91" xlink:href="#d"/></defs><title>1</title><circle class="a" cx="104.53" cy="82.77" r="67"/><path class="b" d="M147.7,65.14A43.17,43.17,0,0,0,101.82,21,43.34,43.34,0,0,0,61.36,63.38,41,41,0,0,0,72.75,92.58a45.29,45.29,0,0,0,10.58,8.18L83,109.43a2.58,2.58,0,0,0,.71,1.84l7.05,7.39-5.52,5.26a2.55,2.55,0,0,0-.08,3.6l5.26,5.52L85,138.31a2.54,2.54,0,0,0-.09,3.59l7,7.36-7.35,7a2.54,2.54,0,0,0-.09,3.59L88,163.53l-3.26,3.11c-1.78,1.69-2.62,2.79-2.68,5.53a8.48,8.48,0,0,0,2,5.64l14,14.71a2.54,2.54,0,0,0,3.59.08l16.54-15.78A2.58,2.58,0,0,0,119,175l0-73.15C136.59,95.83,147.31,82.24,147.7,65.14Z"/><path class="c" d="M118.18,176.82A2.58,2.58,0,0,0,119,175l0-73.15q2.47-.84,4.75-1.87l-19.15-9.82v99.7l1.88-1.8Z"/><path class="d" d="M127.17,60.89l-8.48,8.49h0a20,20,0,0,0-28.28,0h0L81.9,60.89l22.63-22.63Z"/><path class="e" d="M116.18,71.88,104.53,83.53,92.89,71.88a16.44,16.44,0,0,1,23.28,0Z"/></svg>