<?xml version="1.0" encoding="UTF-8" standalone="no"?><!DOCTYPE svg PUBLIC "-//W3C//DTD SVG 1.1//EN" "http://www.w3.org/Graphics/SVG/1.1/DTD/svg11.dtd"><svg width="100%" height="100%" viewBox="0 0 173 172" version="1.1" xmlns="http://www.w3.org/2000/svg" xmlns:xlink="http://www.w3.org/1999/xlink" xml:space="preserve" xmlns:serif="http://www.serif.com/" style="fill-rule:evenodd;clip-rule:evenodd;stroke-linejoin:round;stroke-miterlimit:1.41421;"><path d="M107.989,48.721l-6.822,5.931l-15.042,-9.374l-14.197,8.758l-8.403,-4.837l18.579,-11.298l0.009,-3.451c0,0 0.085,0.016 0,0c-7.066,-1.288 -13.33,-8.532 -13.33,-16.97c0,-9.647 7.833,-17.48 17.481,-17.48c9.647,0 17.48,7.833 17.48,17.48c0,1.411 -0.145,4.747 -4.104,4.72c-4.499,-0.03 -4.829,-4.357 -4.829,-4.908c0,-4.821 -3.914,-8.735 -8.735,-8.735c-4.821,0 -8.736,3.914 -8.736,8.735c0,4.822 3.81,9.098 8.631,9.098c2.678,0 4.586,2.126 4.666,4.378l-0.023,7.016l17.375,10.937Z" style="fill:url(#_Linear1);"/><path d="M60.939,39.92l-60.939,26.236l13.275,35.821l32.101,-11.896l-0.36,81.656l82.652,0l-0.415,-81.879l31.992,12.111l13.345,-35.822l-61.021,-26.391c0,0 -4.947,16.86 -25.784,17.09c-19.631,0.218 -24.846,-16.926 -24.846,-16.926" style="fill:url(#_Linear2);"/><g><path d="M86.485,75.422c0.024,-0.004 23.512,23.707 23.512,23.707l-8.653,8.908c0,0 -14.08,-13.706 -29.791,0.268l-8.966,-9.163c0,0 23.888,-23.719 23.898,-23.72Z" style="fill:url(#_Linear3);"/><path d="M86.433,122.988l-12.278,-12.386c0,0 11.063,-11.972 24.516,0.004l-12.238,12.382Z" style="fill:url(#_Linear4);"/></g><defs><linearGradient id="_Linear1" x1="0" y1="0" x2="1" y2="0" gradientUnits="userSpaceOnUse" gradientTransform="matrix(40.7832,0,0,53.2047,65.8614,26.6023)"><stop offset="0" style="stop-color:#4ba73c;stop-opacity:1"/><stop offset="1" style="stop-color:#74f38e;stop-opacity:1"/></linearGradient><linearGradient id="_Linear2" x1="0" y1="0" x2="1" y2="0" gradientUnits="userSpaceOnUse" gradientTransform="matrix(112.306,-107.699,107.699,112.306,39.6364,174.75)"><stop offset="0" style="stop-color:#29356b;stop-opacity:1"/><stop offset="1" style="stop-color:#324fc0;stop-opacity:1"/></linearGradient><linearGradient id="_Linear3" x1="0" y1="0" x2="1" y2="0" gradientUnits="userSpaceOnUse" gradientTransform="matrix(30.5426,-14.7292,14.7292,30.5426,62.4354,101.079)"><stop offset="0" style="stop-color:#3069ed;stop-opacity:1"/><stop offset="1" style="stop-color:#77ccef;stop-opacity:1"/></linearGradient><linearGradient id="_Linear4" x1="0" y1="0" x2="1" y2="0" gradientUnits="userSpaceOnUse" gradientTransform="matrix(22.4681,1.46077,-1.46077,22.4681,71.6111,111.011)"><stop offset="0" style="stop-color:#47a134;stop-opacity:1"/><stop offset="1" style="stop-color:#78fa95;stop-opacity:1"/></linearGradient></defs></svg>