<?xml version="1.0" encoding="UTF-8"?>
<svg width="375px" height="667px" viewBox="0 0 375 667" version="1.1" xmlns="http://www.w3.org/2000/svg" xmlns:xlink="http://www.w3.org/1999/xlink">
    <!-- Generator: Sketch 50.2 (55047) - http://www.bohemiancoding.com/sketch -->
    <title>Mobile-bg</title>
    <desc>Created with Sketch.</desc>
    <defs>
        <linearGradient x1="0%" y1="98.3831526%" x2="100%" y2="0%" id="linearGradient-1">
            <stop stop-color="#001358" offset="0%"></stop>
            <stop stop-color="#125AC4" offset="100%"></stop>
        </linearGradient>
        <polygon id="path-2" points="0 0 5.9046029 0 5.9046029 3.63360179 0 3.63360179"></polygon>
        <polygon id="path-4" points="0 0 5.9046029 0 5.9046029 3.63360179 0 3.63360179"></polygon>
        <polygon id="path-6" points="0 0 5.9046029 0 5.9046029 3.63360179 0 3.63360179"></polygon>
        <polygon id="path-8" points="0 0 5.9046029 0 5.9046029 3.63360179 0 3.63360179"></polygon>
    </defs>
    <g id="Page-1" stroke="none" stroke-width="1" fill="none" fill-rule="evenodd">
        <g id="iPhone-8">
            <g id="Mobile-bg" transform="translate(0.000000, -4.000000)">
                <rect id="Rectangle-3" fill="url(#linearGradient-1)" x="0" y="4" width="375" height="667"></rect>
                <g id="Page-1-Copy-5" style="mix-blend-mode: overlay;" transform="translate(275.968252, 119.785187) rotate(-85.000000) translate(-275.968252, -119.785187) translate(163.468252, 31.285187)">
                    <path d="M48.5994239,40.3399235 L46.3019315,42.694821 L46.298191,42.694821 C45.3136108,41.6915334 43.9645405,41.0688912 42.4675131,41.0688912 C40.9709013,41.0688912 39.621831,41.6915334 38.6372508,42.694821 L38.6335103,42.694821 L36.3360179,40.3399235 L42.4675131,34.0650168 L48.5994239,40.3399235 Z" id="Fill-1" fill="#FFFFFF"></path>
                    <path d="M35.8818177,127.95973 L34.1798954,129.447064 L34.1772924,129.447064 C33.4475873,128.813366 32.4489065,128.42005 31.3400323,128.42005 C30.2311582,128.42005 29.2320435,128.813366 28.5027722,129.447064 L28.4997354,129.447064 L26.7978132,127.95973 L31.3400323,123.996661 L35.8818177,127.95973 Z" id="Fill-3" fill="#FFFFFF"></path>
                    <path d="M75.6459147,104.920252 L74.0346364,103.303425 L74.0346364,103.300953 C74.7211419,102.607733 75.1472345,101.658986 75.1472345,100.605556 C75.1472345,99.5521251 74.7211419,98.6029662 74.0346364,97.9101585 L74.0346364,97.9072735 L75.6459147,96.2904474 L79.9392393,100.605556 L75.6459147,104.920252 Z" id="Fill-7" fill="#0B3E9A"></path>
                    <path d="M214.380359,108.099653 L214.382505,110.483292 L214.380359,110.485439 C213.361559,110.487585 212.347053,110.871406 211.571254,111.647205 C210.795455,112.423004 210.411634,113.43751 210.409488,114.45631 L210.407341,114.458456 L208.023702,114.45631 L208.023702,108.099653 L214.380359,108.099653 Z" id="Fill-9" fill="#FFFFFF"></path>
                    <path d="M6.7407961,96.7446476 L0,89.7045441 L6.7407961,82.6644407 C8.46867719,84.4512543 9.53820469,86.9529588 9.53820469,89.7045441 C9.53820469,92.4561295 8.46867719,94.957834 6.7407961,96.7446476" id="Fill-17" fill="#0B3E9A"></path>
                    <path d="M146.252472,98.1794555 L138.985268,104.920252 L131.718065,98.1794555 C133.562518,96.4515744 136.144922,95.3820469 138.985268,95.3820469 C141.825615,95.3820469 144.408019,96.4515744 146.252472,98.1794555" id="Fill-19" fill="#56C1ED"></path>
                    <path d="M59.5002293,6.7407961 L66.7674328,0 L74.0346364,6.7407961 C72.1901837,8.46867719 69.607779,9.53820469 66.7674328,9.53820469 C63.9270867,9.53820469 61.344682,8.46867719 59.5002293,6.7407961" id="Fill-21" fill="#56C1ED"></path>
                    <path d="M74.0346364,68.5841926 L74.0346364,65.4048322 L77.2139968,65.4048322 C77.218167,66.215519 76.905402,67.0328782 76.2840423,67.654238 C75.6626825,68.2755978 74.8457403,68.5883628 74.0346364,68.5841926" id="Fill-25" fill="#0B3E9A"></path>
                    <path d="M99.0156487,48.763162 L101.96795,45.8742226 L104.920252,48.763162 C104.170896,49.5035316 103.121797,49.9620246 101.96795,49.9620246 C100.814103,49.9620246 99.7650047,49.5035316 99.0156487,48.763162" id="Fill-31" fill="#FB3448"></path>
                    <g id="Group-35" transform="translate(218.470307, 172.596085)">
                        <mask id="mask-3" fill="white">
                            <use xlink:href="#path-2"></use>
                        </mask>
                        <g id="Clip-34"></g>
                        <path d="M2.95230145,0 L5.9046029,2.56794618 C5.15524691,3.22605247 4.10614853,3.63360179 2.95230145,3.63360179 C1.79845438,3.63360179 0.749355991,3.22605247 0,2.56794618 L2.95230145,0 Z" id="Fill-33" fill="#FB3448" mask="url(#mask-3)"></path>
                    </g>
                </g>
                <g id="Page-1-Copy-6" style="mix-blend-mode: overlay;" transform="translate(88.500000, 116.500000) rotate(-270.000000) translate(-88.500000, -116.500000) translate(-24.000000, 28.000000)">
                    <path d="M48.5994239,40.3399235 L46.3019315,42.694821 L46.298191,42.694821 C45.3136108,41.6915334 43.9645405,41.0688912 42.4675131,41.0688912 C40.9709013,41.0688912 39.621831,41.6915334 38.6372508,42.694821 L38.6335103,42.694821 L36.3360179,40.3399235 L42.4675131,34.0650168 L48.5994239,40.3399235 Z" id="Fill-1" fill="#FFFFFF"></path>
                    <path d="M35.8818177,127.95973 L34.1798954,129.447064 L34.1772924,129.447064 C33.4475873,128.813366 32.4489065,128.42005 31.3400323,128.42005 C30.2311582,128.42005 29.2320435,128.813366 28.5027722,129.447064 L28.4997354,129.447064 L26.7978132,127.95973 L31.3400323,123.996661 L35.8818177,127.95973 Z" id="Fill-3" fill="#FFFFFF"></path>
                    <path d="M75.6459147,104.920252 L74.0346364,103.303425 L74.0346364,103.300953 C74.7211419,102.607733 75.1472345,101.658986 75.1472345,100.605556 C75.1472345,99.5521251 74.7211419,98.6029662 74.0346364,97.9101585 L74.0346364,97.9072735 L75.6459147,96.2904474 L79.9392393,100.605556 L75.6459147,104.920252 Z" id="Fill-7" fill="#0B3E9A"></path>
                    <path d="M214.380359,108.099653 L214.382505,110.483292 L214.380359,110.485439 C213.361559,110.487585 212.347053,110.871406 211.571254,111.647205 C210.795455,112.423004 210.411634,113.43751 210.409488,114.45631 L210.407341,114.458456 L208.023702,114.45631 L208.023702,108.099653 L214.380359,108.099653 Z" id="Fill-9" fill="#FFFFFF"></path>
                    <path d="M6.7407961,96.7446476 L0,89.7045441 L6.7407961,82.6644407 C8.46867719,84.4512543 9.53820469,86.9529588 9.53820469,89.7045441 C9.53820469,92.4561295 8.46867719,94.957834 6.7407961,96.7446476" id="Fill-17" fill="#0B3E9A"></path>
                    <path d="M146.252472,98.1794555 L138.985268,104.920252 L131.718065,98.1794555 C133.562518,96.4515744 136.144922,95.3820469 138.985268,95.3820469 C141.825615,95.3820469 144.408019,96.4515744 146.252472,98.1794555" id="Fill-19" fill="#56C1ED"></path>
                    <path d="M59.5002293,6.7407961 L66.7674328,0 L74.0346364,6.7407961 C72.1901837,8.46867719 69.607779,9.53820469 66.7674328,9.53820469 C63.9270867,9.53820469 61.344682,8.46867719 59.5002293,6.7407961" id="Fill-21" fill="#56C1ED"></path>
                    <path d="M74.0346364,68.5841926 L74.0346364,65.4048322 L77.2139968,65.4048322 C77.218167,66.215519 76.905402,67.0328782 76.2840423,67.654238 C75.6626825,68.2755978 74.8457403,68.5883628 74.0346364,68.5841926" id="Fill-25" fill="#0B3E9A"></path>
                    <path d="M99.0156487,48.763162 L101.96795,45.8742226 L104.920252,48.763162 C104.170896,49.5035316 103.121797,49.9620246 101.96795,49.9620246 C100.814103,49.9620246 99.7650047,49.5035316 99.0156487,48.763162" id="Fill-31" fill="#FB3448"></path>
                    <g id="Group-35" transform="translate(218.470307, 172.596085)">
                        <mask id="mask-5" fill="white">
                            <use xlink:href="#path-4"></use>
                        </mask>
                        <g id="Clip-34"></g>
                        <path d="M2.95230145,0 L5.9046029,2.56794618 C5.15524691,3.22605247 4.10614853,3.63360179 2.95230145,3.63360179 C1.79845438,3.63360179 0.749355991,3.22605247 0,2.56794618 L2.95230145,0 Z" id="Fill-33" fill="#FB3448" mask="url(#mask-5)"></path>
                    </g>
                </g>
                <g id="Page-1-Copy-7" style="mix-blend-mode: overlay;" transform="translate(0.000000, 494.000000)">
                    <path d="M48.5994239,40.3399235 L46.3019315,42.694821 L46.298191,42.694821 C45.3136108,41.6915334 43.9645405,41.0688912 42.4675131,41.0688912 C40.9709013,41.0688912 39.621831,41.6915334 38.6372508,42.694821 L38.6335103,42.694821 L36.3360179,40.3399235 L42.4675131,34.0650168 L48.5994239,40.3399235 Z" id="Fill-1" fill="#FFFFFF"></path>
                    <path d="M35.8818177,127.95973 L34.1798954,129.447064 L34.1772924,129.447064 C33.4475873,128.813366 32.4489065,128.42005 31.3400323,128.42005 C30.2311582,128.42005 29.2320435,128.813366 28.5027722,129.447064 L28.4997354,129.447064 L26.7978132,127.95973 L31.3400323,123.996661 L35.8818177,127.95973 Z" id="Fill-3" fill="#FFFFFF"></path>
                    <path d="M75.6459147,104.920252 L74.0346364,103.303425 L74.0346364,103.300953 C74.7211419,102.607733 75.1472345,101.658986 75.1472345,100.605556 C75.1472345,99.5521251 74.7211419,98.6029662 74.0346364,97.9101585 L74.0346364,97.9072735 L75.6459147,96.2904474 L79.9392393,100.605556 L75.6459147,104.920252 Z" id="Fill-7" fill="#0B3E9A"></path>
                    <path d="M214.380359,108.099653 L214.382505,110.483292 L214.380359,110.485439 C213.361559,110.487585 212.347053,110.871406 211.571254,111.647205 C210.795455,112.423004 210.411634,113.43751 210.409488,114.45631 L210.407341,114.458456 L208.023702,114.45631 L208.023702,108.099653 L214.380359,108.099653 Z" id="Fill-9" fill="#FFFFFF"></path>
                    <path d="M6.7407961,96.7446476 L0,89.7045441 L6.7407961,82.6644407 C8.46867719,84.4512543 9.53820469,86.9529588 9.53820469,89.7045441 C9.53820469,92.4561295 8.46867719,94.957834 6.7407961,96.7446476" id="Fill-17" fill="#0B3E9A"></path>
                    <path d="M146.252472,98.1794555 L138.985268,104.920252 L131.718065,98.1794555 C133.562518,96.4515744 136.144922,95.3820469 138.985268,95.3820469 C141.825615,95.3820469 144.408019,96.4515744 146.252472,98.1794555" id="Fill-19" fill="#56C1ED"></path>
                    <path d="M59.5002293,6.7407961 L66.7674328,0 L74.0346364,6.7407961 C72.1901837,8.46867719 69.607779,9.53820469 66.7674328,9.53820469 C63.9270867,9.53820469 61.344682,8.46867719 59.5002293,6.7407961" id="Fill-21" fill="#56C1ED"></path>
                    <path d="M74.0346364,68.5841926 L74.0346364,65.4048322 L77.2139968,65.4048322 C77.218167,66.215519 76.905402,67.0328782 76.2840423,67.654238 C75.6626825,68.2755978 74.8457403,68.5883628 74.0346364,68.5841926" id="Fill-25" fill="#0B3E9A"></path>
                    <path d="M99.0156487,48.763162 L101.96795,45.8742226 L104.920252,48.763162 C104.170896,49.5035316 103.121797,49.9620246 101.96795,49.9620246 C100.814103,49.9620246 99.7650047,49.5035316 99.0156487,48.763162" id="Fill-31" fill="#FB3448"></path>
                    <g id="Group-35" transform="translate(218.470307, 172.596085)">
                        <mask id="mask-7" fill="white">
                            <use xlink:href="#path-6"></use>
                        </mask>
                        <g id="Clip-34"></g>
                        <path d="M2.95230145,0 L5.9046029,2.56794618 C5.15524691,3.22605247 4.10614853,3.63360179 2.95230145,3.63360179 C1.79845438,3.63360179 0.749355991,3.22605247 0,2.56794618 L2.95230145,0 Z" id="Fill-33" fill="#FB3448" mask="url(#mask-7)"></path>
                    </g>
                </g>
                <g id="Page-1-Copy-8" style="mix-blend-mode: overlay;" transform="translate(286.500000, 558.500000) rotate(-270.000000) translate(-286.500000, -558.500000) translate(174.000000, 470.000000)">
                    <path d="M48.5994239,40.3399235 L46.3019315,42.694821 L46.298191,42.694821 C45.3136108,41.6915334 43.9645405,41.0688912 42.4675131,41.0688912 C40.9709013,41.0688912 39.621831,41.6915334 38.6372508,42.694821 L38.6335103,42.694821 L36.3360179,40.3399235 L42.4675131,34.0650168 L48.5994239,40.3399235 Z" id="Fill-1" fill="#FFFFFF"></path>
                    <path d="M35.8818177,127.95973 L34.1798954,129.447064 L34.1772924,129.447064 C33.4475873,128.813366 32.4489065,128.42005 31.3400323,128.42005 C30.2311582,128.42005 29.2320435,128.813366 28.5027722,129.447064 L28.4997354,129.447064 L26.7978132,127.95973 L31.3400323,123.996661 L35.8818177,127.95973 Z" id="Fill-3" fill="#FFFFFF"></path>
                    <path d="M75.6459147,104.920252 L74.0346364,103.303425 L74.0346364,103.300953 C74.7211419,102.607733 75.1472345,101.658986 75.1472345,100.605556 C75.1472345,99.5521251 74.7211419,98.6029662 74.0346364,97.9101585 L74.0346364,97.9072735 L75.6459147,96.2904474 L79.9392393,100.605556 L75.6459147,104.920252 Z" id="Fill-7" fill="#0B3E9A"></path>
                    <path d="M214.380359,108.099653 L214.382505,110.483292 L214.380359,110.485439 C213.361559,110.487585 212.347053,110.871406 211.571254,111.647205 C210.795455,112.423004 210.411634,113.43751 210.409488,114.45631 L210.407341,114.458456 L208.023702,114.45631 L208.023702,108.099653 L214.380359,108.099653 Z" id="Fill-9" fill="#FFFFFF"></path>
                    <path d="M6.7407961,96.7446476 L0,89.7045441 L6.7407961,82.6644407 C8.46867719,84.4512543 9.53820469,86.9529588 9.53820469,89.7045441 C9.53820469,92.4561295 8.46867719,94.957834 6.7407961,96.7446476" id="Fill-17" fill="#0B3E9A"></path>
                    <path d="M146.252472,98.1794555 L138.985268,104.920252 L131.718065,98.1794555 C133.562518,96.4515744 136.144922,95.3820469 138.985268,95.3820469 C141.825615,95.3820469 144.408019,96.4515744 146.252472,98.1794555" id="Fill-19" fill="#56C1ED"></path>
                    <path d="M59.5002293,6.7407961 L66.7674328,0 L74.0346364,6.7407961 C72.1901837,8.46867719 69.607779,9.53820469 66.7674328,9.53820469 C63.9270867,9.53820469 61.344682,8.46867719 59.5002293,6.7407961" id="Fill-21" fill="#56C1ED"></path>
                    <path d="M74.0346364,68.5841926 L74.0346364,65.4048322 L77.2139968,65.4048322 C77.218167,66.215519 76.905402,67.0328782 76.2840423,67.654238 C75.6626825,68.2755978 74.8457403,68.5883628 74.0346364,68.5841926" id="Fill-25" fill="#0B3E9A"></path>
                    <path d="M99.0156487,48.763162 L101.96795,45.8742226 L104.920252,48.763162 C104.170896,49.5035316 103.121797,49.9620246 101.96795,49.9620246 C100.814103,49.9620246 99.7650047,49.5035316 99.0156487,48.763162" id="Fill-31" fill="#FB3448"></path>
                    <g id="Group-35" transform="translate(218.470307, 172.596085)">
                        <mask id="mask-9" fill="white">
                            <use xlink:href="#path-8"></use>
                        </mask>
                        <g id="Clip-34"></g>
                        <path d="M2.95230145,0 L5.9046029,2.56794618 C5.15524691,3.22605247 4.10614853,3.63360179 2.95230145,3.63360179 C1.79845438,3.63360179 0.749355991,3.22605247 0,2.56794618 L2.95230145,0 Z" id="Fill-33" fill="#FB3448" mask="url(#mask-9)"></path>
                    </g>
                </g>
            </g>
        </g>
    </g>
</svg>