<?xml version="1.0" encoding="UTF-8" standalone="no"?><!DOCTYPE svg PUBLIC "-//W3C//DTD SVG 1.1//EN" "http://www.w3.org/Graphics/SVG/1.1/DTD/svg11.dtd"><svg width="100%" height="100%" viewBox="0 0 199 353" version="1.1" xmlns="http://www.w3.org/2000/svg" xmlns:xlink="http://www.w3.org/1999/xlink" xml:space="preserve" xmlns:serif="http://www.serif.com/" style="fill-rule:evenodd;clip-rule:evenodd;stroke-linejoin:round;stroke-miterlimit:1.41421;"><path d="M12.427,0l173.148,0.04c0,0 12.208,3.349 12.435,13.629c0.011,0.497 -0.011,325.828 -0.011,325.828c0,0 -1.205,12.763 -12.367,12.678c-0.203,-0.002 -174.736,0.026 -174.869,-0.004c-9.796,-2.235 -10.719,-12.904 -10.719,-12.904c0,0 -0.062,-327.438 -0.039,-327.547c1.927,-8.954 12.422,-11.72 12.422,-11.72Z" style="fill:url(#_Linear1);"/><circle cx="99.096" cy="331.35" r="15.613" style="fill:url(#_Radial2);"/><path d="M10.196,23.78l177.526,-0.439l0.262,286.128l-177.565,0.248l-0.223,-285.937Z" style="fill:url(#_Radial3);"/><path d="M123.33,10.537c0,-0.662 -0.538,-1.2 -1.201,-1.2l-47.242,0c-0.663,0 -1.201,0.538 -1.201,1.2l0,2.401c0,0.662 0.538,1.2 1.201,1.2l47.242,0c0.663,0 1.201,-0.538 1.201,-1.2l0,-2.401Z" style="fill:url(#_Linear4);"/><defs><linearGradient id="_Linear1" x1="0" y1="0" x2="1" y2="0" gradientUnits="userSpaceOnUse" gradientTransform="matrix(-85.9546,199.813,-199.813,-85.9546,142.367,28.6037)"><stop offset="0" style="stop-color:#3554d1;stop-opacity:1"/><stop offset="1" style="stop-color:#1d3181;stop-opacity:1"/></linearGradient><radialGradient id="_Radial2" cx="0" cy="0" r="1" gradientUnits="userSpaceOnUse" gradientTransform="matrix(31.226,0,0,31.226,83.4829,331.35)"><stop offset="0" style="stop-color:#49a438;stop-opacity:1"/><stop offset="1" style="stop-color:#6fea83;stop-opacity:1"/></radialGradient><radialGradient id="_Radial3" cx="0" cy="0" r="1" gradientUnits="userSpaceOnUse" gradientTransform="matrix(149.902,-235.757,248.626,158.085,34.8913,273.271)"><stop offset="0" style="stop-color:#3069ed;stop-opacity:1"/><stop offset="1" style="stop-color:#77ccef;stop-opacity:1"/></radialGradient><linearGradient id="_Linear4" x1="0" y1="0" x2="1" y2="0" gradientUnits="userSpaceOnUse" gradientTransform="matrix(49.6433,0,0,4.80098,73.6863,11.7376)"><stop offset="0" style="stop-color:#49a438;stop-opacity:1"/><stop offset="1" style="stop-color:#6fea83;stop-opacity:1"/></linearGradient></defs></svg>