<?xml version="1.0" encoding="UTF-8" standalone="no"?>
<!DOCTYPE svg PUBLIC "-//W3C//DTD SVG 1.1//EN" "http://www.w3.org/Graphics/SVG/1.1/DTD/svg11.dtd">
<svg width="100%" height="100%" viewBox="0 0 487 333" version="1.1" xmlns="http://www.w3.org/2000/svg" xmlns:xlink="http://www.w3.org/1999/xlink" xml:space="preserve" xmlns:serif="http://www.serif.com/" style="fill-rule:evenodd;clip-rule:evenodd;stroke-linejoin:round;stroke-miterlimit:1.41421;">
  <path d="M196.475,235.071c0.008,-0.001 7.999,8.065 7.999,8.065l-2.944,3.03c0,0 -4.79,-4.662 -10.135,0.092l-3.05,-3.118c0,0 8.127,-8.069 8.13,-8.069Z" style="fill:#2e60f8;"/>
  <path d="M388.59,255.151c0.008,-0.001 7.999,8.065 7.999,8.065l-2.944,3.03c0,0 -4.79,-4.662 -10.135,0.092l-3.05,-3.118c0,0 8.127,-8.069 8.13,-8.069Z" style="fill:#3973fa;"/>
  <path d="M475.121,274.186c-0.001,-0.008 8.055,-8.008 8.055,-8.008l3.034,2.94c0,0 -4.657,4.795 0.104,10.134l-3.114,3.054c0,0 -8.079,-8.117 -8.079,-8.12Z" style="fill:#3973fa;"/>
  <path d="M6.884,327.603c0.001,0.005 -4.956,4.923 -4.956,4.923l-1.865,-1.809c0,0 2.865,-2.948 -0.061,-6.233l1.915,-1.877c0,0 4.967,4.994 4.967,4.996Z" style="fill:#204be4;"/>
  <path d="M217.95,65.176c0.011,-0.001 11.121,11.214 11.121,11.214l-4.093,4.214c0,0 -6.66,-6.483 -14.092,0.127l-4.241,-4.335c0,0 11.3,-11.219 11.305,-11.22Z" style="fill:#2956ea;"/>
  <path d="M286.336,191.306c0.001,0.008 -8.114,7.735 -8.114,7.735l-2.933,-2.964c0,0 4.695,-4.635 0.108,-10.002l3.136,-2.948c0,0 7.803,8.176 7.803,8.179Z" style="fill:#0c239e;"/>
  <path d="M261.959,0.018l12.52,12.666c0,0 -11.315,12.21 -25.036,-0.04l12.516,-12.626Z" style="fill:#1e45dd;"/>
  <path d="M395.282,199.392l-12.563,-12.623c0,0 11.273,-12.249 25.035,-0.046l-12.472,12.669Z" style="fill:#2958eb;"/>
  <path d="M37.65,231.018l5.257,5.29c0,0 -4.724,5.126 -10.484,0.012l5.227,-5.302Z" style="fill:#1b40d1;"/>
  <path d="M145.473,303.093l4.07,4.095c0,0 -3.657,3.968 -8.115,0.009l4.045,-4.104Z" style="fill:#204be4;"/>
  <path d="M138.988,170.557l12.741,-12.628c0,0 12.314,11.379 -0.005,25.216l-12.736,-12.588Z" style="fill:#0d2093;"/>
  <path d="M86.231,182.751l-11.357,-11.456c0,0 10.233,-11.074 22.677,0.004l-11.32,11.452Z" style="fill:#151d49;"/>
</svg>