<?xml version="1.0" encoding="UTF-8"?>
<svg width="360px" height="466px" viewBox="0 0 360 466" version="1.1" xmlns="http://www.w3.org/2000/svg" xmlns:xlink="http://www.w3.org/1999/xlink">
    <!-- Generator: Sketch 50.2 (55047) - http://www.bohemiancoding.com/sketch -->
    <title>Group 2</title>
    <desc>Created with Sketch.</desc>
    <defs>
        <linearGradient x1="0%" y1="6.123234e-15%" x2="100%" y2="100%" id="linearGradient-1">
            <stop stop-color="#001358" offset="0%"></stop>
            <stop stop-color="#125AC4" offset="100%"></stop>
        </linearGradient>
        <polygon id="path-2" points="0.508985054 0.30136216 8.19541984 0.30136216 8.19541984 5.25270758 0.508985054 5.25270758"></polygon>
    </defs>
    <g id="Page-1" stroke="none" stroke-width="1" fill="none" fill-rule="evenodd">
        <g id="Token-Section-Update-Copy" transform="translate(-262.000000, -415.000000)">
            <g id="Group" transform="translate(262.000000, 415.000000)">
                <g id="Group-2">
                    <rect id="Rectangle" fill="url(#linearGradient-1)" x="0" y="0" width="360" height="466"></rect>
                    <g id="Page-1" style="mix-blend-mode: overlay;" transform="translate(234.500000, 195.500000) rotate(-270.000000) translate(-234.500000, -195.500000) translate(41.000000, 77.000000)">
                        <path d="M159.434783,53.575857 L156.487147,56.7292419 L156.482349,56.7292419 C155.219152,55.3857644 153.488323,54.5519996 151.567668,54.5519996 C149.647546,54.5519996 147.916717,55.3857644 146.653521,56.7292419 L146.648722,56.7292419 L143.701087,53.575857 L151.567668,45.1732852 L159.434783,53.575857 Z" id="Fill-1" fill="#FFFFFF"></path>
                        <path d="M142.652174,170.282069 L140.490478,172.288809 L140.487172,172.288809 C139.560338,171.433812 138.291864,170.903142 136.883428,170.903142 C135.474992,170.903142 134.205967,171.433812 133.279683,172.288809 L133.275826,172.288809 L131.11413,170.282069 L136.883428,164.935018 L142.652174,170.282069 Z" id="Fill-3" fill="#FFFFFF"></path>
                        <path d="M276.913043,183.939108 L274.751348,185.945848 L274.748042,185.945848 C273.821758,185.090851 272.552733,184.560181 271.144297,184.560181 C269.735861,184.560181 268.466836,185.090851 267.540553,185.945848 L267.536696,185.945848 L265.375,183.939108 L271.144297,178.592058 L276.913043,183.939108 Z" id="Fill-5" fill="#FFFFFF"></path>
                        <path d="M193.954716,139.722022 L191.951087,137.55697 L191.951087,137.553659 C192.804759,136.625385 193.334606,135.354942 193.334606,133.944319 C193.334606,132.533697 192.804759,131.262702 191.951087,130.33498 L191.951087,130.331117 L193.954716,128.166065 L199.293478,133.944319 L193.954716,139.722022 Z" id="Fill-7" fill="#0B3E9A"></path>
                        <path d="M373.410211,143.924188 L373.413043,147.074606 L373.410211,147.077444 C372.065766,147.080281 370.726988,147.587571 369.703216,148.612932 C368.679444,149.638294 368.17294,150.979151 368.170107,152.325683 L368.167274,152.32852 L365.021739,152.325683 L365.021739,143.924188 L373.410211,143.924188 Z" id="Fill-9" fill="#FFFFFF"></path>
                        <path d="M1.14491375,233.220217 L0,231.84235 L0,231.840212 C0.487763411,231.249621 0.790620146,230.440966 0.790620146,229.543054 C0.790620146,228.645677 0.487763411,227.837022 0,227.246431 L0,227.243759 L1.14491375,225.866426 L4.19565217,229.543054 L1.14491375,233.220217 Z" id="Fill-11" fill="#FFFFFF"></path>
                        <path d="M337.557777,185.945848 L339.847826,188.30742 L339.847826,188.311714 C338.872166,189.323969 338.266923,190.710319 338.266923,192.249097 C338.266923,193.787876 338.872166,195.174763 339.847826,196.187018 L339.847826,196.190775 L337.557777,198.552347 L331.456522,192.249097 L337.557777,185.945848 Z" id="Fill-13" fill="#FFFFFF"></path>
                        <path d="M59.7877705,128.166065 L51.3967391,119.999105 C53.5265728,117.905557 56.5081215,116.610108 59.7877705,116.610108 C63.0679655,116.610108 66.0495142,117.905557 68.1793478,119.999105 L59.7877705,128.166065 Z" id="Fill-15" fill="#FB3448"></path>
                        <path d="M105.395396,129.216606 L96.5,119.761733 L105.395396,110.306859 C107.67557,112.706554 109.086957,116.066348 109.086957,119.761733 C109.086957,123.457118 107.67557,126.816912 105.395396,129.216606" id="Fill-17" fill="#0B3E9A"></path>
                        <path d="M285.304348,130.812815 L275.86413,139.722022 L266.423913,130.812815 C268.819888,128.529101 272.174474,127.115523 275.86413,127.115523 C279.553787,127.115523 282.908373,128.529101 285.304348,130.812815" id="Fill-19" fill="#56C1ED"></path>
                        <path d="M173.070652,8.90920635 L182.51087,0 L191.951087,8.90920635 C189.555112,11.1929202 186.200526,12.6064982 182.51087,12.6064982 C178.821213,12.6064982 175.466627,11.1929202 173.070652,8.90920635" id="Fill-21" fill="#56C1ED"></path>
                        <path d="M98.5978261,215.179218 L101.220109,212.209386 L103.842391,215.179218 C103.176971,215.940544 102.244993,216.411552 101.220109,216.411552 C100.195225,216.411552 99.2632467,215.940544 98.5978261,215.179218" id="Fill-23" fill="#56C1ED"></path>
                        <path d="M191.951087,91.3970575 L191.951087,87.1949458 L196.146685,87.1949458 C196.152188,88.2664182 195.739452,89.3467092 194.919483,90.1679509 C194.099515,90.9891925 193.021449,91.4025692 191.951087,91.3970575" id="Fill-25" fill="#0B3E9A"></path>
                        <path d="M22.0271739,165.495725 L25.6983696,161.783394 L29.3695652,165.495725 C28.4377793,166.447209 27.1331774,167.036101 25.6983696,167.036101 C24.2635617,167.036101 22.9589598,166.447209 22.0271739,165.495725" id="Fill-27" fill="#56C1ED"></path>
                        <path d="M224.956466,216.411552 L228.663043,220.088448 L224.956466,223.765343 C224.006457,222.83211 223.418478,221.525483 223.418478,220.088448 C223.418478,218.651412 224.006457,217.344785 224.956466,216.411552" id="Fill-29" fill="#56C1ED"></path>
                        <path d="M224.467391,64.6436117 L228.138587,60.9314079 L231.809783,64.6436117 C230.877956,65.5949653 229.573399,66.1841155 228.138587,66.1841155 C226.703775,66.1841155 225.399218,65.5949653 224.467391,64.6436117" id="Fill-31" fill="#FB3448"></path>
                        <g id="Group-35" transform="translate(377.608696, 230.068592)">
                            <mask id="mask-3" fill="white">
                                <use xlink:href="#path-2"></use>
                            </mask>
                            <g id="Clip-34"></g>
                            <path d="M4.35220245,0.30136216 L8.19541984,3.80062045 C7.21993071,4.69740089 5.85424592,5.25275533 4.35220245,5.25275533 C2.85015897,5.25275533 1.48447418,4.69740089 0.508985054,3.80062045 L4.35220245,0.30136216 Z" id="Fill-33" fill="#FB3448" mask="url(#mask-3)"></path>
                        </g>
                    </g>
                </g>
            </g>
        </g>
    </g>
</svg>