<?xml version="1.0" encoding="UTF-8" standalone="no"?><!DOCTYPE svg PUBLIC "-//W3C//DTD SVG 1.1//EN" "http://www.w3.org/Graphics/SVG/1.1/DTD/svg11.dtd"><svg width="100%" height="100%" viewBox="0 0 197 202" version="1.1" xmlns="http://www.w3.org/2000/svg" xmlns:xlink="http://www.w3.org/1999/xlink" xml:space="preserve" xmlns:serif="http://www.serif.com/" style="fill-rule:evenodd;clip-rule:evenodd;stroke-linejoin:round;stroke-miterlimit:1.41421;"><path d="M98.634,79.473c46.319,0.866 71.581,31.146 84.826,61.249c13.612,30.938 13.359,60.382 13.339,60.382l-196.653,0.004c0,0 -1.618,-19.022 5.917,-42.394c11.238,-34.861 39.07,-80.241 92.571,-79.241Z" style="fill:url(#_Linear1);"/><path d="M98.801,0c32.779,0 59.391,26.645 59.391,59.465c0,31.975 -24.513,58.09 -56.126,59.413c-0.835,0.035 -2.421,0.053 -3.265,0.053c-32.779,0 -59.391,-26.646 -59.391,-59.466c0,-32.82 26.612,-59.465 59.391,-59.465Z" style="fill:url(#_Linear2);"/><path d="M50.395,93.887c0,0 20.308,-15.497 47.213,-15.461c27.653,0.036 49.568,15.905 49.568,15.905c0,0 -14.603,24.547 -49.611,24.698c-31.041,0.133 -47.17,-25.142 -47.17,-25.142Z" style="fill:url(#_Linear3);"/><defs><linearGradient id="_Linear1" x1="0" y1="0" x2="1" y2="0" gradientUnits="userSpaceOnUse" gradientTransform="matrix(124.871,-84.9611,84.9611,124.871,2.87719,192.872)"><stop offset="0" style="stop-color:#2a3671;stop-opacity:1"/><stop offset="1" style="stop-color:#3351c9;stop-opacity:1"/></linearGradient><linearGradient id="_Linear2" x1="0" y1="0" x2="1" y2="0" gradientUnits="userSpaceOnUse" gradientTransform="matrix(95.2907,-62.23,62.23,95.2907,51.6876,101.692)"><stop offset="0" style="stop-color:#3774ed;stop-opacity:1"/><stop offset="1" style="stop-color:#72c4ee;stop-opacity:1"/></linearGradient><linearGradient id="_Linear3" x1="0" y1="0" x2="1" y2="0" gradientUnits="userSpaceOnUse" gradientTransform="matrix(64.2399,2.45689,-2.45689,64.2399,52.0397,94.305)"><stop offset="0" style="stop-color:#47a236;stop-opacity:1"/><stop offset="1" style="stop-color:#77f995;stop-opacity:1"/></linearGradient></defs></svg>