<svg xmlns="http://www.w3.org/2000/svg" xmlns:xlink="http://www.w3.org/1999/xlink" viewBox="0 0 208.52 208.52"><defs><style>.a{fill:url(#a);}.b{fill:url(#b);}.c{fill:url(#c);}.d{fill:url(#d);}.e{fill:url(#e);}.f{fill:url(#f);}.g{fill:url(#g);}.h{fill:url(#h);}.i{fill:url(#i);}.j{fill:url(#j);}</style><linearGradient id="a" x1="2919.18" y1="1949.07" x2="2919.64" y2="1823.38" gradientTransform="translate(3023.24 1959.74) rotate(180)" gradientUnits="userSpaceOnUse"><stop offset="0" stop-color="#fff" stop-opacity="0"/><stop offset="0.1" stop-color="#fafffd" stop-opacity="0.02"/><stop offset="0.22" stop-color="#ecfff5" stop-opacity="0.09"/><stop offset="0.36" stop-color="#d6ffea" stop-opacity="0.19"/><stop offset="0.51" stop-color="#b6ffd9" stop-opacity="0.34"/><stop offset="0.68" stop-color="#8effc4" stop-opacity="0.53"/><stop offset="0.84" stop-color="#5dffab" stop-opacity="0.76"/><stop offset="1" stop-color="#2aff91"/></linearGradient><linearGradient id="b" x1="1016.78" y1="-1171.59" x2="1053.63" y2="-1218.75" gradientTransform="translate(216.91 1712.57) rotate(-45)" gradientUnits="userSpaceOnUse"><stop offset="0" stop-color="#273469"/><stop offset="0.18" stop-color="#283877"/><stop offset="0.51" stop-color="#2a449b"/><stop offset="0.95" stop-color="#2e56d5"/><stop offset="1" stop-color="#2e58db"/></linearGradient><linearGradient id="c" x1="110.02" y1="198.87" x2="161.17" y2="133.41" gradientTransform="matrix(1, 0, 0, 1, 0, 0)" xlink:href="#b"/><linearGradient id="d" x1="61.37" y1="180.28" x2="83.27" y2="152.26" gradientTransform="matrix(1, 0, 0, 1, 0, 0)" xlink:href="#b"/><linearGradient id="e" x1="1038.82" y1="-1193.63" x2="1075.67" y2="-1240.79" gradientTransform="translate(216.91 1712.57) rotate(-45)" gradientUnits="userSpaceOnUse"><stop offset="0" stop-color="#196cf2"/><stop offset="1" stop-color="#59cef1"/></linearGradient><linearGradient id="f" x1="113.49" y1="155.68" x2="157.65" y2="99.17" gradientTransform="matrix(1, 0, 0, 1, 0, 0)" xlink:href="#e"/><linearGradient id="g" x1="64.84" y1="137.1" x2="79.75" y2="118.02" gradientTransform="matrix(1, 0, 0, 1, 0, 0)" xlink:href="#e"/><linearGradient id="h" x1="1061.18" y1="-1215.99" x2="1098.03" y2="-1263.15" gradientTransform="translate(216.91 1712.57) rotate(-45)" gradientUnits="userSpaceOnUse"><stop offset="0" stop-color="#00a022"/><stop offset="1" stop-color="#2aff91"/></linearGradient><linearGradient id="i" x1="113.49" y1="124.06" x2="157.65" y2="67.55" gradientTransform="matrix(1, 0, 0, 1, 0, 0)" xlink:href="#h"/><linearGradient id="j" x1="64.84" y1="105.48" x2="79.75" y2="86.4" gradientTransform="matrix(1, 0, 0, 1, 0, 0)" xlink:href="#h"/></defs><title>1</title><rect class="a" x="40.66" y="10.38" width="126.34" height="126.61"/><polygon class="b" points="167 135.67 103.83 167.34 40.66 135.67 103.83 103.99 167 135.67"/><polygon class="c" points="167 135.67 103.83 167.34 103.83 197.07 167 165.4 167 135.67"/><polygon class="d" points="103.83 197.07 40.66 165.4 40.66 135.67 103.83 167.34 103.83 197.07"/><polygon class="e" points="167 104.49 103.83 136.17 40.66 104.49 103.83 72.82 167 104.49"/><polygon class="f" points="167 104.49 103.83 136.17 103.83 150.76 167 119.09 167 104.49"/><polygon class="g" points="103.83 150.76 40.66 119.09 40.66 104.49 103.83 136.17 103.83 150.76"/><polygon class="h" points="167 72.87 103.83 104.55 40.66 72.87 103.83 41.2 167 72.87"/><polygon class="i" points="167 72.87 103.83 104.55 103.83 119.14 167 87.47 167 72.87"/><polygon class="j" points="103.83 119.14 40.66 87.47 40.66 72.87 103.83 104.55 103.83 119.14"/></svg>