<svg xmlns="http://www.w3.org/2000/svg" xmlns:xlink="http://www.w3.org/1999/xlink" viewBox="0 0 208.52 208.52"><defs><style>.a{fill:url(#a);}.b{fill:url(#b);}.c{fill:url(#c);}.d{fill:url(#d);}.e{fill:url(#e);}.f{fill:url(#f);}.g{fill:url(#g);}.h{fill:url(#h);}.i{fill:url(#i);}.j{fill:url(#j);}.k{fill:url(#k);}</style><linearGradient id="a" x1="127.43" y1="71.49" x2="142.06" y2="65.82" gradientUnits="userSpaceOnUse"><stop offset="0" stop-color="#00a022"/><stop offset="1" stop-color="#2aff91"/></linearGradient><linearGradient id="b" x1="57.41" y1="71.49" x2="72.04" y2="65.82" xlink:href="#a"/><linearGradient id="c" x1="100.02" y1="102.69" x2="99.75" y2="68.23" gradientUnits="userSpaceOnUse"><stop offset="0" stop-color="#1990f2"/><stop offset="1" stop-color="#59cef1"/></linearGradient><linearGradient id="d" x1="3845.33" y1="1889.59" x2="3845.51" y2="1839.18" gradientTransform="translate(3945.24 1959.74) rotate(180)" gradientUnits="userSpaceOnUse"><stop offset="0" stop-color="#fff" stop-opacity="0"/><stop offset="0.1" stop-color="#fafffd" stop-opacity="0.02"/><stop offset="0.22" stop-color="#ecfff5" stop-opacity="0.09"/><stop offset="0.36" stop-color="#d6ffea" stop-opacity="0.19"/><stop offset="0.51" stop-color="#b6ffd9" stop-opacity="0.34"/><stop offset="0.68" stop-color="#8effc4" stop-opacity="0.53"/><stop offset="0.84" stop-color="#5dffab" stop-opacity="0.76"/><stop offset="1" stop-color="#2aff91"/></linearGradient><linearGradient id="e" x1="108.58" y1="114.67" x2="133.48" y2="87.99" gradientUnits="userSpaceOnUse"><stop offset="0" stop-color="#273469"/><stop offset="0.18" stop-color="#283877"/><stop offset="0.51" stop-color="#2a449b"/><stop offset="0.95" stop-color="#2e56d5"/><stop offset="1" stop-color="#2e58db"/></linearGradient><linearGradient id="f" x1="-421.38" y1="-49.25" x2="-366.56" y2="-49.25" gradientTransform="translate(530.33 119.26) rotate(-2.39)" xlink:href="#e"/><linearGradient id="g" x1="-393.85" y1="-58.4" x2="-375.78" y2="-58.4" gradientTransform="translate(374.23 390.33) rotate(45)" xlink:href="#a"/><linearGradient id="h" x1="1774.01" y1="3966.72" x2="1808.22" y2="3933.24" gradientTransform="translate(2569.23 -3454.35) rotate(59.46)" xlink:href="#a"/><linearGradient id="i" x1="51.07" y1="106.45" x2="152.02" y2="146.76" xlink:href="#e"/><linearGradient id="j" x1="127.43" y1="114.54" x2="142.06" y2="108.87" xlink:href="#a"/><linearGradient id="k" x1="57.41" y1="114.54" x2="72.04" y2="108.87" xlink:href="#a"/></defs><title>1</title><rect class="a" x="129.01" y="60.96" width="11.62" height="15.33"/><rect class="b" x="59" y="60.96" width="11.62" height="15.33"/><path class="c" d="M52.68,64.78h94.43a4.13,4.13,0,0,1,4.13,4.13V104a0,0,0,0,1,0,0H48.54a0,0,0,0,1,0,0V68.91A4.13,4.13,0,0,1,52.68,64.78Z"/><rect class="d" x="48.39" y="70.14" width="102.85" height="50.58"/><path class="e" d="M90.6,134.33h0a4,4,0,0,0,5.61-.34l46.57-50.62L137,78.1,90.47,128.71a4,4,0,0,0,.13,5.62Z"/><path class="f" d="M141.05,69.89c-12.79-9.63-26.91-12.74-34.84-7.62,8.33.33,19.24,5.07,29.61,13.3l9.57,8.8c9.07,9.65,14.69,20.13,15.72,28.4,4.45-8.33.17-22.13-10.49-34.08Z"/><rect class="g" x="135.62" y="70.43" width="15.6" height="13" rx="2.6" ry="2.6" transform="translate(-10.3 130.39) rotate(-47.39)"/><path class="h" d="M93.66,114.56l-1.92-5a19.78,19.78,0,0,0,3-3.7l5.31.78a2.32,2.32,0,0,0,2.56-1.59l1-3a2.32,2.32,0,0,0-1.15-2.78L97.7,96.85a19.85,19.85,0,0,0-.79-7.25L101,86.15a2.33,2.33,0,0,0,.51-3l-1.6-2.72a2.32,2.32,0,0,0-2.84-1l-5,1.93a19.65,19.65,0,0,0-4.84-3.63l.46-5.24A2.33,2.33,0,0,0,86,70.09L82.9,69.3a2.33,2.33,0,0,0-2.7,1.31l-2.14,4.82a19.94,19.94,0,0,0-5.95.83l-3.47-4.13a2.32,2.32,0,0,0-3-.51L63,73.22a2.32,2.32,0,0,0-1,2.84l1.94,5A20,20,0,0,0,60.81,85l-5.28-.78A2.33,2.33,0,0,0,53,85.78l-1,3a2.33,2.33,0,0,0,1.15,2.78L57.95,94a19.85,19.85,0,0,0,.81,7l-4.11,3.45a2.32,2.32,0,0,0-.51,3l1.6,2.72a2.33,2.33,0,0,0,2.84,1l5-1.93a19.67,19.67,0,0,0,4.78,3.6l-.48,5.46a2.32,2.32,0,0,0,1.74,2.45l3.05.79a2.31,2.31,0,0,0,2.7-1.31l2.22-5a19.67,19.67,0,0,0,6-.84L87,118.49a2.32,2.32,0,0,0,3,.51l2.72-1.6A2.32,2.32,0,0,0,93.66,114.56Zm-26-13.27a11.78,11.78,0,1,1,16.13,4.16A11.78,11.78,0,0,1,67.67,101.29Z"/><path class="i" d="M45.92,104h107.8a0,0,0,0,1,0,0v41.62a3.24,3.24,0,0,1-3.24,3.24H49.15a3.24,3.24,0,0,1-3.24-3.24V104A0,0,0,0,1,45.92,104Z"/><rect class="j" x="129.01" y="104.01" width="11.62" height="15.33"/><rect class="k" x="59" y="104.01" width="11.62" height="15.33"/></svg>