<svg xmlns="http://www.w3.org/2000/svg" xmlns:xlink="http://www.w3.org/1999/xlink" viewBox="0 0 208.52 208.52"><defs><style>.a{opacity:0.3;fill:url(#a);}.b{fill:url(#b);}.c{fill:url(#c);}.d{fill:url(#d);}</style><radialGradient id="a" cx="92.98" cy="76.29" r="46.23" gradientUnits="userSpaceOnUse"><stop offset="0" stop-color="#2aff91"/><stop offset="1" stop-color="#fff" stop-opacity="0"/></radialGradient><linearGradient id="b" x1="50" y1="178.4" x2="139.29" y2="114.14" gradientUnits="userSpaceOnUse"><stop offset="0" stop-color="#273469"/><stop offset="1" stop-color="#2e58db"/></linearGradient><linearGradient id="c" x1="69.74" y1="104.2" x2="126.02" y2="104.2" gradientUnits="userSpaceOnUse"><stop offset="0" stop-color="#00a022"/><stop offset="1" stop-color="#2aff91"/></linearGradient><linearGradient id="d" x1="71.28" y1="105.1" x2="123.27" y2="59.11" gradientUnits="userSpaceOnUse"><stop offset="0" stop-color="#196cf2"/><stop offset="1" stop-color="#59cef1"/></linearGradient></defs><title>1</title><circle class="a" cx="92.98" cy="76.29" r="46.23"/><path class="b" d="M156,164H41.31c0-26.84,11.85-50.23,29.38-62.46a34.46,34.46,0,0,0,55.92,0C144.15,113.81,156,137.2,156,164Z"/><path class="c" d="M126.62,101.58a34.46,34.46,0,0,1-55.92,0,47.62,47.62,0,0,1,55.92,0Z"/><path class="d" d="M133.12,81.44a34.3,34.3,0,0,1-6.5,20.14,47.62,47.62,0,0,0-55.92,0,34.46,34.46,0,1,1,62.42-20.14Z"/></svg>