<svg xmlns="http://www.w3.org/2000/svg" xmlns:xlink="http://www.w3.org/1999/xlink" viewBox="0 0 283.46 283.46"><defs><style>.a{fill:url(#a);}.b{fill:url(#b);}.c{fill:url(#c);}.d{fill:url(#d);}.e{fill:url(#e);}.f{fill:url(#f);}.g{fill:url(#g);}.h{fill:url(#h);}.i{fill:url(#i);}</style><linearGradient id="a" x1="134.7" y1="228.36" x2="260.01" y2="138.18" gradientUnits="userSpaceOnUse"><stop offset="0" stop-color="#196cf2"/><stop offset="1" stop-color="#59cef1"/></linearGradient><linearGradient id="b" x1="162.41" y1="124.23" x2="241.39" y2="124.23" gradientUnits="userSpaceOnUse"><stop offset="0" stop-color="#00a022"/><stop offset="1" stop-color="#2aff91"/></linearGradient><linearGradient id="c" x1="164.56" y1="125.49" x2="237.52" y2="60.94" gradientUnits="userSpaceOnUse"><stop offset="0" stop-color="#273469"/><stop offset="1" stop-color="#2e58db"/></linearGradient><linearGradient id="d" x1="12.19" y1="228.36" x2="137.5" y2="138.18" xlink:href="#a"/><linearGradient id="e" x1="39.9" y1="124.23" x2="118.88" y2="124.23" xlink:href="#b"/><linearGradient id="f" x1="42.05" y1="125.49" x2="115.01" y2="60.94" xlink:href="#c"/><linearGradient id="g" x1="62.65" y1="262.87" x2="207.77" y2="158.42" xlink:href="#c"/><linearGradient id="h" x1="94.74" y1="142.27" x2="186.21" y2="142.27" xlink:href="#b"/><linearGradient id="i" x1="97.23" y1="143.73" x2="181.73" y2="68.97" xlink:href="#a"/></defs><title>MyBit-Icon-Set</title><path class="a" d="M283.46,208.22h-161c0-37.67,16.64-70.5,41.23-87.66a48.36,48.36,0,0,0,78.49,0C266.84,137.72,283.46,170.54,283.46,208.22Z"/><path class="b" d="M242.23,120.55a48.36,48.36,0,0,1-78.49,0,66.83,66.83,0,0,1,78.49,0Z"/><path class="c" d="M251.35,92.29a48.13,48.13,0,0,1-9.12,28.27,66.83,66.83,0,0,0-78.49,0,48.36,48.36,0,1,1,87.6-28.27Z"/><path class="d" d="M161,208.22H0c0-37.67,16.64-70.5,41.23-87.66a48.36,48.36,0,0,0,78.49,0C144.33,137.72,161,170.54,161,208.22Z"/><path class="e" d="M119.72,120.55a48.36,48.36,0,0,1-78.49,0,66.83,66.83,0,0,1,78.49,0Z"/><path class="f" d="M128.84,92.29a48.13,48.13,0,0,1-9.12,28.27,66.83,66.83,0,0,0-78.49,0,48.36,48.36,0,1,1,87.6-28.27Z"/><path class="g" d="M234.94,239.53H48.53c0-43.63,19.27-81.65,47.75-101.52a56,56,0,0,0,90.9,0C215.68,157.89,234.94,195.9,234.94,239.53Z"/><path class="h" d="M187.18,138a56,56,0,0,1-90.9,0c13.44-9.4,28.94-14.75,45.44-14.75A78.82,78.82,0,0,1,187.18,138Z"/><path class="i" d="M197.74,105.27A55.74,55.74,0,0,1,187.18,138a78.82,78.82,0,0,0-45.45-14.75c-16.51,0-32,5.35-45.44,14.75a56,56,0,1,1,101.46-32.74Z"/></svg>