<svg width="47" height="39" viewBox="0 0 47 39" version="1.1" xmlns="http://www.w3.org/2000/svg" xmlns:xlink="http://www.w3.org/1999/xlink">
<g id="Canvas" fill="none">
<g id="medium">
<mask id="mask0" mask-type="alpha" maskUnits="userSpaceOnUse" x="0" y="-1" width="47" height="40">
<path id="Clip 2" fill-rule="evenodd" clip-rule="evenodd" d="M 0 0L 47 0L 47 40L 0 40L 0 0Z" transform="translate(0 -1)" fill="white"/>
</mask>
<g mask="url(#mask0)">
<path id="Fill 1" fill-rule="evenodd" clip-rule="evenodd" d="M 0.577979 32.052L 6.22999e-06 0.987491C -0.00254669 0.261979 0.779984 -0.216087 1.45553 0.098309L 14.9329 6.81352C 15.2846 6.97719 15.5083 7.32159 15.5083 7.69929L 16.467 38.2053C 16.4669 38.7797 15.8472 39.1568 15.3126 38.9079L 0.577979 32.052Z" transform="translate(30.5332 0.0141144)" fill="url(#paint0_linear)"/>
<path id="Fill 3" fill-rule="evenodd" clip-rule="evenodd" d="M 0 25.4317L 14.6678 0.482123C 14.9269 0.0413824 15.4676 -0.12433 15.9174 0.0990999L 29.45 6.82229C 29.9673 7.07932 30.1568 7.74157 29.8577 8.24771L 15 33.0248L 0 25.4317Z" transform="translate(16 0)" fill="url(#paint1_linear)"/>
<path id="Fill 4" fill-rule="evenodd" clip-rule="evenodd" d="M 14.4082 25.2532L 0.116798 1.2043C -0.281377 0.53429 0.411447 -0.259036 1.09714 0.0816803L 14.4082 6.69617L 30 33L 14.4082 25.2532Z" transform="translate(1 0)" fill="url(#paint2_linear)"/>
<path id="Fill 5" fill-rule="evenodd" clip-rule="evenodd" d="M 0.456205 32.2304C 0.177305 32.1009 0 31.8288 0 31.5303L 0.93415 0.753226C 0.93415 0.199093 1.53412 -0.164975 2.05182 0.0752746L 15.394 6.68707L 16 38.2066C 16 38.7789 15.3805 39.1547 14.846 38.9067L 0.456205 32.2304Z" transform="translate(0 0.0155792)" fill="url(#paint3_linear)"/>
</g>
</g>
</g>
<defs>
<linearGradient id="paint0_linear" x2="1" gradientUnits="userSpaceOnUse" gradientTransform="matrix(-32.7384 -65.1137 27.5029 -77.5088 28.356 62.893)">
<stop stop-color="#001358"/>
<stop offset="1" stop-color="#4B88E2"/>
</linearGradient>
<linearGradient id="paint1_linear" x2="1" gradientUnits="userSpaceOnUse" gradientTransform="matrix(59.6437 55.1575 -50.1056 65.6574 -7.98395 -1.88109)">
<stop stop-color="#001358"/>
<stop offset="1" stop-color="#125AC4"/>
</linearGradient>
<linearGradient id="paint2_linear" x2="1" gradientUnits="userSpaceOnUse" gradientTransform="matrix(-59.6437 -55.1161 50.1056 -65.6081 51.6598 53.2365)">
<stop stop-color="#001358"/>
<stop offset="1" stop-color="#4B88E2"/>
</linearGradient>
<linearGradient id="paint3_linear" x2="1" gradientUnits="userSpaceOnUse" gradientTransform="matrix(31.81 65.1112 -26.723 77.5059 -4.25811 -2.22056)">
<stop stop-color="#001358"/>
<stop offset="1" stop-color="#125AC4"/>
</linearGradient>
</defs>
</svg>
