<?xml version="1.0" encoding="UTF-8"?>
<svg width="1080px" height="538px" viewBox="0 0 1080 538" version="1.1" xmlns="http://www.w3.org/2000/svg" xmlns:xlink="http://www.w3.org/1999/xlink">
    <!-- Generator: Sketch 50.2 (55047) - http://www.bohemiancoding.com/sketch -->
    <title>Twitter Copy 45</title>
    <desc>Created with Sketch.</desc>
    <defs>
        <linearGradient x1="0%" y1="89.4896425%" x2="84.4704796%" y2="10.4480625%" id="linearGradient-1">
            <stop stop-color="#001358" offset="0%"></stop>
            <stop stop-color="#125AC4" offset="100%"></stop>
        </linearGradient>
        <polygon id="path-2" points="0.859013895 0 12.0261945 0 12.0261945 6.87211116 0.859013895 6.87211116"></polygon>
        <linearGradient x1="0%" y1="100%" x2="100%" y2="0%" id="linearGradient-4">
            <stop stop-color="#001358" offset="0%"></stop>
            <stop stop-color="#125AC4" offset="100%"></stop>
        </linearGradient>
        <linearGradient x1="75.8418077%" y1="166.010877%" x2="71.9565267%" y2="-87.6924733%" id="linearGradient-5">
            <stop stop-color="#001358" offset="0%"></stop>
            <stop stop-color="#125AC4" offset="100%"></stop>
        </linearGradient>
        <linearGradient x1="-52.9525079%" y1="41.1018424%" x2="200.750842%" y2="37.2165613%" id="linearGradient-6">
            <stop stop-color="#001358" offset="0%"></stop>
            <stop stop-color="#125AC4" offset="100%"></stop>
        </linearGradient>
    </defs>
    <g id="Twitter-Copy-45" stroke="none" stroke-width="1" fill="none" fill-rule="evenodd">
        <g id="Group-3" transform="translate(-99.000000, -115.000000)">
            <g id="Group" transform="translate(99.000000, 145.000000)" fill="url(#linearGradient-1)">
                <polygon id="Rectangle-3-Copy" points="0 80 1094 0 1094 412 0 492"></polygon>
            </g>
            <g id="Page-1" style="mix-blend-mode: overlay;" transform="translate(191.602046, 477.967838) rotate(-85.000000) translate(-191.602046, -477.967838) translate(-92.397954, 310.967838)">
                <path d="M233.651779,76.2935661 L229.306608,80.7473061 L229.299533,80.7473061 C227.437429,78.8498214 224.885977,77.6722387 222.054699,77.6722387 C219.224206,77.6722387 216.672754,78.8498214 214.81065,80.7473061 L214.803576,80.7473061 L210.458404,76.2935661 L222.054699,64.4260421 L233.651779,76.2935661 Z" id="Fill-1" fill="#FFFFFF"></path>
                <path d="M209.59939,242.006015 L206.380601,244.81896 L206.375678,244.81896 C204.995611,243.620469 203.106839,242.876603 201.009662,242.876603 C198.912485,242.876603 197.022892,243.620469 195.643645,244.81896 L195.637902,244.81896 L192.419112,242.006015 L201.009662,234.510793 L209.59939,242.006015 Z" id="Fill-3" fill="#FFFFFF"></path>
                <path d="M406.313572,260.90432 L403.094783,263.717266 L403.08986,263.717266 C401.710613,262.518775 399.82102,261.774909 397.723843,261.774909 C395.626666,261.774909 393.737074,262.518775 392.357827,263.717266 L392.352084,263.717266 L389.133294,260.90432 L397.723843,253.409099 L406.313572,260.90432 Z" id="Fill-5" fill="#FFFFFF"></path>
                <path d="M284.803915,198.43221 L281.756557,195.37436 L281.756557,195.369683 C283.054922,194.058619 283.860778,192.264286 283.860778,190.271967 C283.860778,188.279649 283.054922,186.484536 281.756557,185.174252 L281.756557,185.168796 L284.803915,182.110946 L292.923738,190.271967 L284.803915,198.43221 Z" id="Fill-7" fill="#0B3E9A"></path>
                <path d="M547.187791,204.445307 L547.191851,208.953404 L547.187791,208.957464 C545.260969,208.961524 543.342267,209.687432 541.875024,211.154675 C540.407781,212.621917 539.681874,214.54062 539.677814,216.467442 L539.673754,216.471501 L535.165656,216.467442 L535.165656,204.445307 L547.187791,204.445307 Z" id="Fill-9" fill="#FFFFFF"></path>
                <path d="M494.946022,263.717266 L498.228059,267.096561 L498.228059,267.102705 C496.829768,268.551194 495.962351,270.534994 495.962351,272.736912 C495.962351,274.93883 496.829768,276.923397 498.228059,278.371886 L498.228059,278.377262 L494.946022,281.756557 L486.201864,272.736912 L494.946022,263.717266 Z" id="Fill-13" fill="#FFFFFF"></path>
                <path d="M154.485938,182.96996 L141.737293,169.655244 L154.485938,156.340529 C157.753822,159.71987 159.776584,164.451262 159.776584,169.655244 C159.776584,174.859227 157.753822,179.590618 154.485938,182.96996" id="Fill-17" fill="#0B3E9A"></path>
                <path d="M418.339767,185.683564 L404.595544,198.43221 L390.851322,185.683564 C394.339675,182.41568 399.223691,180.392918 404.595544,180.392918 C409.967397,180.392918 414.851414,182.41568 418.339767,185.683564" id="Fill-19" fill="#56C1ED"></path>
                <path d="M168.223007,303.671825 L172.08857,299.422139 L175.954132,303.671825 C174.973221,304.761246 173.599373,305.435236 172.08857,305.435236 C170.577766,305.435236 169.203918,304.761246 168.223007,303.671825" id="Fill-23" fill="#56C1ED"></path>
                <path d="M281.756557,129.71102 L281.756557,123.698001 L287.769577,123.698001 C287.777464,125.231226 287.185942,126.777071 286.010784,127.952228 C284.835627,129.127385 283.290571,129.718907 281.756557,129.71102" id="Fill-25" fill="#0B3E9A"></path>
                <path d="M330.410489,307.526974 L335.874433,312.681058 L330.410489,317.835141 C329.01006,316.526983 328.143308,314.69542 328.143308,312.681058 C328.143308,310.666695 329.01006,308.835132 330.410489,307.526974" id="Fill-29" fill="#56C1ED"></path>
                <path d="M329.002322,92.2241592 L334.585912,86.7604033 L340.169502,92.2241592 C338.75227,93.6243958 336.768145,94.4915284 334.585912,94.4915284 C332.403679,94.4915284 330.419554,93.6243958 329.002322,92.2241592" id="Fill-31" fill="#FB3448"></path>
                <g id="Group-35" transform="translate(554.063962, 326.425280)">
                    <mask id="mask-3" fill="white">
                        <use xlink:href="#path-2"></use>
                    </mask>
                    <g id="Clip-34"></g>
                    <path d="M6.44260421,0 L12.0261945,4.85667186 C10.6089623,6.10132658 8.62483711,6.87211116 6.44260421,6.87211116 C4.26037131,6.87211116 2.27624615,6.10132658 0.859013895,4.85667186 L6.44260421,0 Z" id="Fill-33" fill="#FB3448" mask="url(#mask-3)"></path>
                </g>
            </g>
            <g id="Page-1-Copy-2" style="mix-blend-mode: overlay;" transform="translate(954.191941, 383.105371) rotate(-120.000000) translate(-954.191941, -383.105371) translate(624.691941, 188.605371)">
                <path d="M272,88.8152876 L266.941675,94 L266.93344,94 C264.765717,91.7910896 261.795506,90.4202356 258.499542,90.4202356 C255.204494,90.4202356 252.234283,91.7910896 250.06656,94 L250.058325,94 L245,88.8152876 L258.499542,75 L272,88.8152876 Z" id="Fill-1" fill="#FFFFFF"></path>
                <path d="M244,281.725379 L240.252925,285 L240.247194,285 C238.640623,283.604806 236.441855,282.738853 234.000478,282.738853 C231.5591,282.738853 229.359377,283.604806 227.753761,285 L227.747075,285 L224,281.725379 L234.000478,273 L244,281.725379 Z" id="Fill-3" fill="#FFFFFF"></path>
                <path d="M473,303.725379 L469.252925,307 L469.247194,307 C467.641578,305.604806 465.441855,304.738853 463.000478,304.738853 C460.5591,304.738853 458.359377,305.604806 456.753761,307 L456.747075,307 L453,303.725379 L463.000478,295 L473,303.725379 Z" id="Fill-5" fill="#FFFFFF"></path>
                <path d="M331.547507,231 L328,227.440279 L328,227.434835 C329.51146,225.908592 330.449576,223.819762 330.449576,221.500454 C330.449576,219.181145 329.51146,217.091408 328,215.566073 L328,215.559721 L331.547507,212 L341,221.500454 L331.547507,231 Z" id="Fill-7" fill="#0B3E9A"></path>
                <path d="M576.179297,307 L580,310.933924 L580,310.941076 C578.372214,312.627299 577.362432,314.936691 577.362432,317.5 C577.362432,320.063309 578.372214,322.373595 580,324.059818 L580,324.066076 L576.179297,328 L566,317.5 L576.179297,307 Z" id="Fill-13" fill="#FFFFFF"></path>
                <path d="M179.841023,213 L165,197.5 L179.841023,182 C183.645251,185.933978 186,191.441911 186,197.5 C186,203.558089 183.645251,209.066022 179.841023,213" id="Fill-17" fill="#0B3E9A"></path>
                <path d="M487,216.158977 L471,231 L455,216.158977 C459.06088,212.354749 464.746489,210 471,210 C477.253511,210 482.93912,212.354749 487,216.158977" id="Fill-19" fill="#56C1ED"></path>
                <path d="M296,14.8410233 L312,0 L328,14.8410233 C323.93912,18.645251 318.253511,21 312,21 C305.746489,21 300.06088,18.645251 296,14.8410233" id="Fill-21" fill="#56C1ED"></path>
                <path d="M168,355.947168 L172.5,351 L177,355.947168 C175.858097,357.215391 174.258765,358 172.5,358 C170.741235,358 169.141903,357.215391 168,355.947168" id="Fill-23" fill="#56C1ED"></path>
                <path d="M328,150.999909 L328,144 L334.999909,144 C335.009091,145.784867 334.320485,147.584424 332.952454,148.952454 C331.584424,150.320485 329.785785,151.009091 328,150.999909" id="Fill-25" fill="#0B3E9A"></path>
                <path d="M384.639283,358 L391,364 L384.639283,370 C383.009008,368.47714 382,366.344971 382,364 C382,361.655029 383.009008,359.52286 384.639283,358" id="Fill-29" fill="#56C1ED"></path>
                <path d="M383,107.360498 L389.5,101 L396,107.360498 C394.350164,108.990549 392.040393,110 389.5,110 C386.959607,110 384.649836,108.990549 383,107.360498" id="Fill-31" fill="#FB3448"></path>
            </g>
        </g>
        <polygon id="Rectangle-4" fill="url(#linearGradient-4)" points="-7 104.598084 1080 29 1080 34.3001232 0.0513947622 112"></polygon>
        <polygon id="Rectangle-4-Copy-2" fill="url(#linearGradient-4)" points="-7 515.598084 1080 440 1080 445.300123 0.0513947622 523"></polygon>
        <polygon id="Rectangle-4-Copy" fill="url(#linearGradient-5)" points="-7 109.598084 1080 34 1080 39.3001232 0.0513947622 117"></polygon>
        <polygon id="Rectangle-4-Copy-3" fill="url(#linearGradient-5)" points="-7 518.598084 1080 443 1080 448.300123 0.0513947622 526"></polygon>
        <polygon id="Rectangle-4-Copy-4" fill="url(#linearGradient-6)" points="0 515.687044 1080 435 1080 443.79698 0 520"></polygon>
    </g>
</svg>