<svg id="Layer_1" data-name="Layer 1" xmlns="http://www.w3.org/2000/svg" viewBox="0 0 50 50"><title>Untitled-1</title><g id="Page-2"><g id="Token-"><g id="facebook"><path id="_004-facebook-logo" data-name=" 004-facebook-logo" d="M38.13,0H31.08C23.21,0,18.13,4.83,18.13,12.31V18H11a1,1,0,0,0-1,1v8.22a1,1,0,0,0,1,1h7.09V49a1,1,0,0,0,.32.73,1.1,1.1,0,0,0,.78.27h9.19a1.09,1.09,0,0,0,.77-.27,1,1,0,0,0,.33-.73V28.24h8.23a1,1,0,0,0,1-1V19a1,1,0,0,0-.32-.72,1.17,1.17,0,0,0-.78-.3H29.46V13.17c0-2.31.59-3.49,3.84-3.49h4.83a1,1,0,0,0,1-1V1A1,1,0,0,0,38.13,0Z" fill="#1890ff"/></g></g></g></svg>