<svg id="Layer_1" data-name="Layer 1" xmlns="http://www.w3.org/2000/svg" viewBox="0 0 50 50"><title>medium</title><g id="Page-2"><g id="Token-"><g id="medium"><g id="Shape"><path d="M5.93,12.93a1.48,1.48,0,0,0-.63-1.32L.63,7.08V6.4h14.5l11.2,19.83L36.19,6.4H50v.68l-4,3.09a.84.84,0,0,0-.45.89V33.74a.83.83,0,0,0,.45.89l3.9,3.09v.68H30.31v-.68l4-3.17c.4-.32.4-.41.4-.89V15.36l-11.26,23H22l-13-23V30.78a1.92,1.92,0,0,0,.71,1.77l5.25,5.15v.68H0V37.7l5.25-5.15a1.85,1.85,0,0,0,.68-1.77Z" fill="#fff"/></g></g></g></g></svg>