<svg id="Layer_1" data-name="Layer 1" xmlns="http://www.w3.org/2000/svg" viewBox="0 0 50 50"><title>medium</title><g id="Page-2"><g id="Token-"><g id="reddit"><path id="Fill_4" data-name="Fill 4" d="M32.63,31.06a3.18,3.18,0,0,1-3-1.92,3.23,3.23,0,0,1,.64-3.5,3.17,3.17,0,0,1,3.44-.74,3.21,3.21,0,0,1,2,2.93A3.14,3.14,0,0,1,32.65,31ZM32,38.44a11.94,11.94,0,0,1-14.36,0,1.63,1.63,0,0,1-.36-2.25,1.54,1.54,0,0,1,2.16-.36,8.94,8.94,0,0,0,10.72,0,1.54,1.54,0,0,1,1.13-.32,1.51,1.51,0,0,1,1,.57l.07.1A1.63,1.63,0,0,1,32,38.44ZM14,27.87a3.12,3.12,0,1,1,3.11,3.19A3.18,3.18,0,0,1,14,27.87ZM42,7.17a1.54,1.54,0,0,1,1.51,1.26,1.56,1.56,0,0,1-.92,1.75,1.54,1.54,0,0,1-1.88-.56A1.56,1.56,0,0,1,42,7.17Zm8,15.92a6.31,6.31,0,0,0-6.23-6.37A6,6,0,0,0,40,18,25.64,25.64,0,0,0,27.11,13.7l2.6-6.28,7.6,1.82a4.71,4.71,0,1,0,6.52-4.86A4.69,4.69,0,0,0,38,6.21L29.15,4a1.56,1.56,0,0,0-1.79,1l-3.59,8.66A26.29,26.29,0,0,0,9.84,18,6,6,0,0,0,6.2,16.74a6.31,6.31,0,0,0-6,4.75,6.4,6.4,0,0,0,2.91,7.12v.86c0,8.77,9.76,15.93,21.77,15.93s21.77-7.16,21.77-15.93v-.75A6.31,6.31,0,0,0,50,23.09Z" fill="#fff"/></g></g></g></svg>