<svg id="Layer_1" data-name="Layer 1" xmlns="http://www.w3.org/2000/svg" viewBox="0 0 50 50"><title>Untitled-1</title><g id="Page-2"><g id="Token-"><g id="twitter"><path id="Shape" d="M44.87,14.94v1.31C44.87,29.61,34.55,45,15.69,45A29.38,29.38,0,0,1,0,40.51a22.57,22.57,0,0,0,2.47.12,20.73,20.73,0,0,0,12.74-4.32,10.25,10.25,0,0,1-9.59-7,15.53,15.53,0,0,0,1.93.15,11.16,11.16,0,0,0,2.7-.34A10.15,10.15,0,0,1,2,19.19v-.11a10.74,10.74,0,0,0,4.64,1.28A10.08,10.08,0,0,1,2.06,12a9.92,9.92,0,0,1,1.4-5.09A29.32,29.32,0,0,0,24.61,17.41a11.2,11.2,0,0,1-.26-2.31A10.29,10.29,0,0,1,42.1,8.19a20.51,20.51,0,0,0,6.51-2.44,10.11,10.11,0,0,1-4.51,5.57A20.85,20.85,0,0,0,50,9.75,22,22,0,0,1,44.87,14.94Z" fill="#1890ff"/></g></g></g></svg>