<?xml version="1.0" encoding="UTF-8" standalone="no"?><!DOCTYPE svg PUBLIC "-//W3C//DTD SVG 1.1//EN" "http://www.w3.org/Graphics/SVG/1.1/DTD/svg11.dtd"><svg width="100%" height="100%" viewBox="0 0 57 66" version="1.1" xmlns="http://www.w3.org/2000/svg" xmlns:xlink="http://www.w3.org/1999/xlink" xml:space="preserve" xmlns:serif="http://www.serif.com/" style="fill-rule:evenodd;clip-rule:evenodd;stroke-linejoin:round;stroke-miterlimit:1.41421;"><path id="c" d="M26.255,52.104l0,8.883c0,2.615 -2.123,4.738 -4.738,4.738c-2.615,0 -4.738,-2.123 -4.738,-4.738l0,-8.883l-2.171,0c-2.397,0 -4.343,-1.946 -4.343,-4.343l0,-25.964l36.064,0.005l-0.137,25.959c0,2.397 -1.946,4.343 -4.343,4.343l-2.171,0l0,8.883c0,2.615 -2.123,4.738 -4.738,4.738c-2.614,0 -4.737,-2.123 -4.737,-4.738l0,-8.883l-3.948,0Zm-16.78,-27.044c0,-2.615 -2.123,-4.738 -4.737,-4.738c-2.615,0 -4.738,2.123 -4.738,4.738l0,16.779c0,2.615 2.123,4.738 4.738,4.738c2.614,0 4.737,-2.123 4.737,-4.738l0,-16.779Zm37.507,0c0,-2.615 2.123,-4.738 4.738,-4.738c2.614,0 4.737,2.123 4.737,4.738l0,16.779c0,2.615 -2.123,4.738 -4.737,4.738c-2.615,0 -4.738,-2.123 -4.738,-4.738l0,-16.779Zm-27.786,-19.289l-3.073,-5.196c-0.107,-0.181 -0.047,-0.415 0.134,-0.522c0.181,-0.107 0.415,-0.047 0.522,0.134l3.102,5.244c2.228,-1.038 4.971,-1.686 8.348,-1.691c3.121,-0.003 5.701,0.539 7.833,1.431l2.675,-4.827c0.102,-0.184 0.334,-0.25 0.518,-0.148c0.184,0.102 0.251,0.334 0.149,0.517l-2.644,4.769c8.963,4.262 9.432,14.867 9.432,14.867l-35.927,0.001c0,0 0.516,-10.147 8.931,-14.579Zm0.847,4.938c0.774,0 1.403,0.628 1.403,1.403c0,0.774 -0.629,1.402 -1.403,1.402c-0.774,0 -1.403,-0.628 -1.403,-1.402c0,-0.775 0.629,-1.403 1.403,-1.403Zm16.412,0c0.774,0 1.402,0.628 1.402,1.403c0,0.774 -0.628,1.402 -1.402,1.402c-0.775,0 -1.403,-0.628 -1.403,-1.402c0,-0.775 0.628,-1.403 1.403,-1.403Z" style="fill:url(#_Linear1);"/><defs><linearGradient id="_Linear1" x1="0" y1="0" x2="1" y2="0" gradientUnits="userSpaceOnUse" gradientTransform="matrix(51.7287,-49.0213,49.0213,51.7287,6.97135,56.3202)"><stop offset="0" style="stop-color:#00a022;stop-opacity:1"/><stop offset="1" style="stop-color:#24f281;stop-opacity:1"/></linearGradient></defs></svg>