<?xml version="1.0" encoding="UTF-8" standalone="no"?><!DOCTYPE svg PUBLIC "-//W3C//DTD SVG 1.1//EN" "http://www.w3.org/Graphics/SVG/1.1/DTD/svg11.dtd"><svg width="100%" height="100%" viewBox="0 0 66 66" version="1.1" xmlns="http://www.w3.org/2000/svg" xmlns:xlink="http://www.w3.org/1999/xlink" xml:space="preserve" xmlns:serif="http://www.serif.com/" style="fill-rule:evenodd;clip-rule:evenodd;stroke-linejoin:round;stroke-miterlimit:1.41421;"><path d="M2.236,21.021l14.381,6.685c-0.685,1.88 -1.059,3.908 -1.059,6.024c0,9.715 7.888,17.603 17.604,17.603c1.441,0 2.842,-0.173 4.184,-0.501l7.327,12.97c-3.638,1.383 -7.582,2.14 -11.702,2.14c-18.197,0 -32.971,-14.774 -32.971,-32.971c0,-4.214 0.792,-8.244 2.236,-11.95Zm17.59,-18.292c4.028,-1.755 8.474,-2.729 13.145,-2.729c18.197,0 32.971,14.774 32.971,32.971c0,4.675 -0.975,9.124 -2.732,13.154l-13.845,-5.509c-2.665,-1.158 -22.127,-9.608 -22.127,-9.608c0,0 23.357,0.206 23.326,0.055c-1.713,-8.376 -8.593,-14.937 -17.402,-14.937c-2.044,0 -4.007,0.349 -5.833,0.991l-7.503,-14.388Z" style="fill:url(#_Linear1);"/><defs><linearGradient id="_Linear1" x1="0" y1="0" x2="1" y2="0" gradientUnits="userSpaceOnUse" gradientTransform="matrix(44.5471,-36.582,36.582,44.5471,6.11822,59.3328)"><stop offset="0" style="stop-color:#00a022;stop-opacity:1"/><stop offset="1" style="stop-color:#24f281;stop-opacity:1"/></linearGradient></defs></svg>