<svg xmlns="http://www.w3.org/2000/svg" viewBox="0 0 360 360"><defs><style>.a-security{fill:#595aa0;}.b-security{fill:none;stroke:#3dcfad;stroke-linecap:round;stroke-linejoin:round;stroke-width:6px;}</style></defs><title>OfferIcons</title><path class="a-security" d="M223.29,256.41V244.26h12.16Zm-70.8-78.29v84.36A2.52,2.52,0,0,0,155,265h65.77a2.52,2.52,0,0,0,1.78-.74l20.73-20.73a2.52,2.52,0,0,0,.74-1.78V141.18a2.52,2.52,0,0,0-2.52-2.52h-51.4l-.29,5H239v95.54l-18.22,0h0a2.52,2.52,0,0,0-2.52,2.52l0,18.23H157.52V178.12"/><path class="a-security" d="M178.28,229.46a11.48,11.48,0,1,0,11.48,11.48A11.49,11.49,0,0,0,178.28,229.46Zm0,17.92a6.44,6.44,0,1,1,6.44-6.44A6.45,6.45,0,0,1,178.28,247.38Z"/><path class="a-security" d="M211.09,238.83H197.25a2.52,2.52,0,1,0,0,5h13.84a2.52,2.52,0,0,0,0-5Z"/><path class="a-security" d="M227.45,153.76h-21.9a2.52,2.52,0,0,0,0,5h21.9a2.52,2.52,0,0,0,0-5Z"/><path class="a-security" d="M227.45,164.59H190.21a2.52,2.52,0,1,0,0,5h37.25a2.52,2.52,0,0,0,0-5Z"/><path class="a-security" d="M227.58,184.47H168.94a2.52,2.52,0,0,0,0,5h58.64a2.52,2.52,0,0,0,0-5Z"/><path class="a-security" d="M227.58,193H168.94a2.52,2.52,0,0,0,0,5h58.64a2.52,2.52,0,0,0,0-5Z"/><path class="a-security" d="M227.58,202.34H168.94a2.52,2.52,0,0,0,0,5h58.64a2.52,2.52,0,0,0,0-5Z"/><path class="a-security" d="M227.58,210.89h-9.82a2.52,2.52,0,0,0,0,5h9.82a2.52,2.52,0,1,0,0-5Z"/><path class="a-security" d="M198.26,210.89H168.94a2.52,2.52,0,0,0,0,5h29.32a2.52,2.52,0,1,0,0-5Z"/><rect class="b-security" x="116" y="123.04" width="74.3" height="56.65"/><path class="b-security" d="M158,153.74a8.82,8.82,0,1,0-10.28.3l-2,9.87h13.93Z"/><path class="b-security" d="M177.3,120.26V104.47s0-23.22-24.15-23.22h-.93c-24.15,0-24.15,23.22-24.15,23.22v15.79"/></svg>