<svg xmlns="http://www.w3.org/2000/svg" viewBox="0 0 373.47 373.47"><defs><style>.a-fees{fill:none;stroke:#595aa0;stroke-miterlimit:10;stroke-width:6px;}.b-fees{fill:#595aa0;}</style></defs><title>OfferIcons</title><circle class="a-fees" cx="169.22" cy="198.9" r="46.26"/><path class="a-fees" d="M208.43,174.33a25.58,25.58,0,1,1,4.12,50.83,24.75,24.75,0,0,1-4.9-.48"/><path class="a-fees" d="M232.72,183.86A16.81,16.81,0,0,1,238,183a17.08,17.08,0,0,1,0,34.16,16.91,16.91,0,0,1-6-1.08"/><path class="b-fees" d="M158.52,199.43a6.89,6.89,0,0,1,2.23,5.32,8.44,8.44,0,0,1-1.41,4.81,9.23,9.23,0,0,1-4,3.27,14.73,14.73,0,0,1-6.08,1.17,20,20,0,0,1-6-.92,16.64,16.64,0,0,1-5-2.44l2.5-4.79a13.21,13.21,0,0,0,3.81,2.25,11.66,11.66,0,0,0,4.18.78,7,7,0,0,0,4.18-1.08,3.53,3.53,0,0,0,1.47-3,3.32,3.32,0,0,0-1.47-2.93,7.47,7.47,0,0,0-4.22-1h-4.63v-3.68l7.16-6.92h-11.5l0-5.24h19.61v3.89L151,196.68l1.47.21A10.66,10.66,0,0,1,158.52,199.43Z"/><path class="b-fees" d="M177.08,187.25a9,9,0,0,1,2.09,6.28,9.17,9.17,0,0,1-2.09,6.34,8.23,8.23,0,0,1-11.48,0,9.11,9.11,0,0,1-2.11-6.34,9,9,0,0,1,2.11-6.3,7.43,7.43,0,0,1,5.75-2.29A7.33,7.33,0,0,1,177.08,187.25Zm-8.54,2.56a6.13,6.13,0,0,0-1,3.73,6.3,6.3,0,0,0,1,3.79,3.55,3.55,0,0,0,5.61,0,6.3,6.3,0,0,0,1-3.79,6,6,0,0,0-1-3.73,3.57,3.57,0,0,0-5.59,0Zm21.88-4.75h4.5L174.3,213.71h-4.59Zm8.92,13.82a9,9,0,0,1,2.09,6.28,9.17,9.17,0,0,1-2.09,6.35,8.23,8.23,0,0,1-11.48,0,9.11,9.11,0,0,1-2.11-6.35,9,9,0,0,1,2.11-6.3,7.43,7.43,0,0,1,5.75-2.29A7.33,7.33,0,0,1,199.35,198.87Zm-8.54,2.56a6.13,6.13,0,0,0-1,3.72,6.3,6.3,0,0,0,1,3.79,3.55,3.55,0,0,0,5.61,0,6.31,6.31,0,0,0,1-3.79,6,6,0,0,0-1-3.72,3.56,3.56,0,0,0-5.59,0Z"/></svg>