<svg xmlns="http://www.w3.org/2000/svg" viewBox="0 0 360 360"><defs><style>.a-availability{fill:#3dcfad;}</style></defs><title>OfferIcons</title><path class="a-availability" d="M259,166.78a80.43,80.43,0,1,0-77.5,82.06A80.53,80.53,0,0,0,259,166.78Zm-29.24-44.05a3.19,3.19,0,0,0,2.55-4.09c0-.1.08-.22.18-.5,1.08,1.21,2.11,2.32,3.07,3.48.46.56-.73,2.48-1.57,2.51-1.31.05-2.63,0-3.94,0a1.15,1.15,0,0,1-.78-.64C229.18,123.3,229.51,122.79,229.74,122.72Zm-94.46-10.25,4-.8c.39,1.68-.08,2.31-1.49,2.34-.82,0-1.64,0-2.54,0Zm4,3.34c.48,1.26.15,1.83-1,1.7-1-.11-2.07.59-3.16-.73ZM116,129.42c.48,1.47-.74,2-1.58,2.75ZM248.4,148c-1.62,0-3.26.1-4.87-.05a3.42,3.42,0,0,1-1.89-1.08c-1.67-1.73-3.63-1.64-5.84-1.09V148a6.19,6.19,0,0,1-1.37-.09c-2.16-.69-4.28-1.48-6.45-2.1-.94-.27-1.45-.58-1.32-1.66a28.32,28.32,0,0,0,0-3c-3.56.72-7.11-.08-10.4,1.75-1.06.59-2.67.42-4,.27-2.14-.24-3.47,1.25-5.09,2.11-.23.12-.31.82-.24,1.21.4,2.24-.48,3.69-2.45,4.79a39.58,39.58,0,0,0-4.4,3.14c-.57.44-1.48.67-1.12,1.8s.51,2,2,1.68c-.16,1.11.2,2.26-1.17,2.74-.14.05-.21.35-.26.55s0,.35,0,.52a8.85,8.85,0,0,0,3.17,9,22.93,22.93,0,0,1,2.45,2.75c1.61,1.83,2.37,1.88,4.76,1.18a12.74,12.74,0,0,1,3.93-.12,3,3,0,0,0,2.47-.92c.72-.76,3.43-.94,4-.17,1.16,1.49,2.75,1.52,4.36,1.64.51,0,1,.12,1.67.19-.17,1.81-.37,3.51-.46,5.21a3.43,3.43,0,0,0,.33,1.73c1.36,2.51,2.83,5,4.17,7.49a2.4,2.4,0,0,1,.05,1.77,29.74,29.74,0,0,1-1.6,3.17c-1,1.93-.85,3.27.76,4.8a2.5,2.5,0,0,1,.95,2.3c0,.3,0,.62,0,.92a7.55,7.55,0,0,0,2.06,6.5,4.1,4.1,0,0,1,.74,2.26,33,33,0,0,1,0,3.48l2.43.16c-13.37,15.74-29.94,25.23-50.27,26.81-30.21,2.34-54-9.6-70-35.26-13.07-20.93-14-43.38-5.35-66.27l.45,0c0,.8.05,1.61,0,2.4a1.29,1.29,0,0,0,1,1.56,2.45,2.45,0,0,1,2,3.18c-.65,3.21,1,5.71,2.68,8.1.44.62,1.61.72,2.44,1.06l.5-.4a7.45,7.45,0,0,0-.67-2.43c-1.59-2.24-2.8-4.55-2.51-7.51h1.35c0,.07.16.18.16.29,0,3.48,2,6.1,3.93,8.69.63.82.9,1.5.21,2.44a1.78,1.78,0,0,0,0,1.37c1.33,3.77,4.76,4.06,8,4.71.16,0,.45,0,.49,0,.68-1.5,1.71-.22,2.66-.5,0,.67-.08,1.18-.13,1.81,1.09.27,2.17.6,3.27.8a4.45,4.45,0,0,1,3.12,2c1.78,2.7,4.09,4.35,7.52,3.89,1-.13,1.18.46,1.45,1.37.77,2.61-.11,4.26-2.48,5.32a2,2,0,0,0-1.11,2c-.06,1.48-.36,3-.45,4.44a2.71,2.71,0,0,0,.45,1.65c1.17,1.59,2.52,3.06,3.65,4.67a32.9,32.9,0,0,1,1.56,3.09c.22.4.59.93,1,1,2.27.49,3.81,2.12,5.58,3.39.29.21.38.85.38,1.3q0,5.21,0,10.42c0,.73.05,1.28.93,1.46.21,0,.45.55.47.86a3.61,3.61,0,0,1-.23,1.29c-.81,2.51-.6,4.76,1.44,6.69a2.06,2.06,0,0,1,.37,1.68c-.79,3.32.25,6.1,2,8.91a17.22,17.22,0,0,0,5.28,5.23c1.06.71,2.88.36,4.35.32.56,0,.66-1.26.14-1.73a11.23,11.23,0,0,0-1.62-1.35c-1.17-.73-1.17-1.68-.77-2.84a23.81,23.81,0,0,0,.61-2.73c-1.42-.13-2.78,0-3.17-1.48l2.21-2.91a11.43,11.43,0,0,1-1.59-.6c-.28-.17-.72-.59-.66-.71a1.62,1.62,0,0,1,.8-.81c1.87-.71,3.77-1.33,5.64-2.05a2.6,2.6,0,0,0,1.08-.88c1.78-2.45,3.55-4.9,5.26-7.4a2.58,2.58,0,0,0,.35-1.53,6.61,6.61,0,0,0-.49-2.18c-.65-1.47.11-2.58.9-3.61a1.93,1.93,0,0,1,1.53-.36,5.28,5.28,0,0,0,5.09-1.71,2.76,2.76,0,0,0,.7-1.32c.3-2.35.45-4.72.79-7.07a5.48,5.48,0,0,1,1-2.09c1-1.48,2.48-2.62,2.67-4.59.06-.61.06-1.06-.65-1.16a4.14,4.14,0,0,1-3.35-2.79,1.66,1.66,0,0,0-1.9-1,17.85,17.85,0,0,1-9.35-1.59c-.71-.35-1.12-.66-1.1-1.51a7.84,7.84,0,0,0-1.36-4.71c-.46-.67-.9-1-1.68-.9-2.67.52-4.3-.59-5.48-3-.5-1-1.73-1.69-2.63-2.52l-.24.67a16.9,16.9,0,0,1-1.69.72c-.37.12-.79,0-1.18.11a2.52,2.52,0,0,1-3-1.27c-.41-.6-1.41-.84-2.18-1.16-2-.83-3.63-.47-4.73,1.53s-2.62,2.24-4.74,1.78c-3-.66-3-.5-3.23-3.57-.08-1.18-.17-2.36-.27-3.62l-4.2-.81a15.62,15.62,0,0,0,1.18-2.39,12.69,12.69,0,0,0,.27-2.43l-.43-.17c-1.52,1-3.06,2-4.55,3s-3,.42-4.42.06c-.76-.19-1.42-2.88-1-3.93.64-1.62,1.42-3.19,2.17-4.77a1.25,1.25,0,0,1,.52-.56c2.18-1.07,4.21-2.51,6.89-2.18,1.65.2,3.34,0,5,.07.34,0,1,.51.94.67-.49,2.44,1.43,2.58,3,3.27a33.09,33.09,0,0,1,0-3.33,3,3,0,0,1,.7-1.81c1.63-1.38,3.41-2.6,5.09-3.94a4.85,4.85,0,0,0,1-1.39,17.28,17.28,0,0,1,1.23-2.34,22.75,22.75,0,0,1,7.33-5.88c1.14-.59,1.85-2,2.81-2.91,1.22-1.2,1.34-1.18,2.85-.09l1.18-1.32a7.51,7.51,0,0,1-1.64-.48c-.34-.2-.79-.66-.74-.95s.46-1.05.81-1.13c.93-.19,1.92-.27,2.53.84a1.33,1.33,0,0,0,1.11.52c1-.17,2.27.21,2.83-1.16a1.59,1.59,0,0,1,1,.11,1.74,1.74,0,0,1-.07,1.3c-1.24,1.59-1.19,1.83.79,2.43,1.11.34,2.22.63,3.31.94.56-1.41.23-2.18-1-2.54a1.15,1.15,0,0,1-.36-.16l-1.67-1.26c.59-.31,1.2-.59,1.76-.94.32-.21.8-.54.8-.82,0-.78,0-2.08-.37-2.24-2.43-1-2.6-2.9-2.46-5a4.44,4.44,0,0,0-.06-.66L172,120.6c.11-1.08.12-1.68.23-2.25.21-1,0-1.66-1.21-1.8a13.65,13.65,0,0,1-2.82-.64,2.12,2.12,0,0,0-2,.42,2.47,2.47,0,0,0-1.24,2.52c.09,1.08.35,2.45-.17,3.21s-1.89.92-2.92,1.22c-1.31.38-1.38,1.62-1.85,2.55a1.68,1.68,0,0,1-2.21,1.06V123c-.8-.13-1.56-.3-2.32-.36-1.88-.15-3.41-1-3.72-3.33,0-.31,0-.84.14-.93,3-1.66,5.71-4,9.34-4.55l.52,2c.81,0,1.63.3,2-.94.09-.31,1.07-.38,1.63-.56l-1.1-1.81c2,.26,3-.66,4.12-1.63.74-.62,2-.55,3.07-.85a3.41,3.41,0,0,1,4.09,1.63l-5.38,2.94,6.89,1.64c.14-.13.24-.18.26-.25.38-1.74,1.39-2.41,3.19-2.14,1.38.21,1.25-1.19,1.85-2l-2.24-.7c1-2.59-.93-3.11-2.69-3.78a16.71,16.71,0,0,1-1.8-.8c-3-1.56-5.82-.92-8.69.32a1.6,1.6,0,0,0-1.11,2,15.35,15.35,0,0,1,.13,1.93,8.64,8.64,0,0,1-1.79-.2c-.43-.14-1-.47-1.12-.82a2.42,2.42,0,0,1,.28-1.73,10.91,10.91,0,0,1,1.79-1.68L165,106c-1.65,0-3.29-.06-4.94,0-1.08.06-1.37.9-1.45,1.9l1.49.38c.22,1.32-.21,2-1.58,1.92-.84,0-1.8-.15-2.16,1-.06.17-.51.28-.79.31-.52.05-1.05,0-1.58,0-2.27,0-2.27,0-2.41-2.38a11.24,11.24,0,0,0,3.45-.37,10.38,10.38,0,0,0,2.51-2.28c-1.16-1-1.16-1-2.13-.11A3.36,3.36,0,0,1,150,106c-.37-.5-.89-1.22-1.37-1.24a10.88,10.88,0,0,0-4.22.38,10.26,10.26,0,0,0-3.39,2.77,20.22,20.22,0,0,1,2.08,0c.51.06,1.27.12,1.45.45s-.09,1-.2,1.78c.85,0,1.81.05,2.77,0s1.5.45,1.64,1.45c-1.5,0-2.92,0-4.34,0-.15,0-.4-.13-.42-.23-.22-1.33-1.35-1.15-2.23-1.38L136,108.42c22.61-17.4,62.14-20.9,91.23,4.65a2.93,2.93,0,0,1-1.94,2.07,10.56,10.56,0,0,0-3,1.74c-1.14,1-.7,2.2.72,2.62a2.3,2.3,0,0,1,1,1,11.11,11.11,0,0,1,.72,1.7l3-1.13.53,3.45c-.86-.06-1.55,0-2.22-.15-2.24-.35-4.21-.1-5.32,2.23a3.54,3.54,0,0,1-3.55,2.19c-1.43-.05-1.81.73-1.88,1.93,0,.47-.13.94-.21,1.49l1.49.54-.38,2a11.42,11.42,0,0,0-2.23-.4,16.18,16.18,0,0,0-4.5.43c-.59.18-1,1.5-1.16,2.35a8.88,8.88,0,0,0,.39,3c.31,1.32,1.55,1.51,2.57,1.6a23,23,0,0,0,4.47-.17,2,2,0,0,0,1.12-.85c1.26-1.73,2.44-3.52,3.72-5.24a1.27,1.27,0,0,1,1.14-.26,2.39,2.39,0,0,0,2.87-.92,2.59,2.59,0,0,1,.59-.48c1.06.94,2,1.83,2.94,2.58,1.14.87,2.37,1.64,3.54,2.44-.53,1.67-1.85.65-2.73,1a1.78,1.78,0,0,0,2.19,1.56c.91-.22,2-.37,1.84-1.87a6.32,6.32,0,0,1,.42-1.89c-1.48-1.6-5-1.65-4.87-5.22,1.54-.17,3.12-.42,4.27,1.18a4.64,4.64,0,0,0,1.19,1,2.69,2.69,0,0,1,1.3,2.66c-.18,2.08,1.79,2.74,2.86,4.4.32-1.25.65-2.19.8-3.16.19-1.23,1.11-1.57,2.24-2a7.51,7.51,0,0,1,.18,1.4,3.76,3.76,0,0,0,1.76,3.47,4,4,0,0,0,2.45.44c1.38-.14,2.09.28,2.39,1.68a27.17,27.17,0,0,0,1.18,3.49C249.43,147.71,249.18,148,248.4,148ZM141.89,124.28l3.58-.54c0,2.42-.16,2.62-2.25,3.22-.18-.35-.39-.71-.58-1.09S142.27,125.09,141.89,124.28Zm10,10.21v-2.14h2.21C154.37,133.92,153.9,134.38,151.94,134.49Zm-1.48,3c.19-1.53,1.31-2.3,3.16-2.18C153.88,137.33,153,137.94,150.46,137.5Zm1.66-6.14h-5.94c.65-1.72,2.82-2.54,4.84-2.16C151.71,129.33,152.23,130.39,152.12,131.35Zm-2,1.09-2.85,4c-1.62-.15-1.4-1.16-1.13-2.1C146.61,132.75,148.16,132,150.14,132.44ZM155,134c2.21.07,2.83.5,2.72,1.94C155.45,136.42,154.59,135.7,155,134Z"/><path class="a-availability" d="M146.18,131.35c.65-1.72,2.82-2.54,4.84-2.16.69.13,1.2,1.19,1.1,2.16Z"/><path class="a-availability" d="M150.14,132.44l-2.85,4c-1.62-.15-1.4-1.16-1.13-2.1C146.61,132.75,148.16,132,150.14,132.44Z"/><path class="a-availability" d="M135.28,114v-1.54l4-.8c.39,1.67-.08,2.31-1.48,2.34C137,114,136.17,114,135.28,114Z"/><path class="a-availability" d="M141.89,124.28l3.58-.54c0,2.42-.16,2.62-2.25,3.22-.19-.35-.39-.71-.58-1.09S142.27,125.09,141.89,124.28Z"/><path class="a-availability" d="M150.46,137.5c.19-1.53,1.31-2.3,3.16-2.18C153.88,137.33,153,137.94,150.46,137.5Z"/><path class="a-availability" d="M135.15,116.78l4.16-1c.48,1.26.15,1.83-1,1.7C137.35,117.4,136.24,118.1,135.15,116.78Z"/><path class="a-availability" d="M157.75,135.94c-2.31.48-3.17-.24-2.72-1.94C157.24,134.08,157.86,134.5,157.75,135.94Z"/><path class="a-availability" d="M154.14,132.34c.23,1.58-.24,2-2.21,2.15v-2.15Z"/><path class="a-availability" d="M114.39,132.17l1.58-2.75C116.45,130.89,115.23,131.42,114.39,132.17Z"/><path class="a-availability" d="M219.68,125.85c-.79,1.92-2.52,2.47-6.06,1.92-.14-2.26-.14-2.26,1.79-2.84.17-1.61-1.36-1.66-2.06-2.43-.37-.4-.82-1-.74-1.45a2.52,2.52,0,0,1,1.16-1.36,5.9,5.9,0,0,1,1.79-.39C216.19,122,216.8,124.67,219.68,125.85Z"/><path class="a-availability" d="M213.23,124.65c-.4,1-3.28,2.35-4.57,2.18-.49-1.62.51-2.73,1.42-3.63.47-.47,1.62-.44,2.43-.36C213.68,123,213.53,123.91,213.23,124.65Z"/><path class="a-availability" d="M174.07,131.92a16.91,16.91,0,0,1-2,2,2.05,2.05,0,0,1-1.57.09c-.27-.08-.38-.68-.56-1a3,3,0,0,1,.89-.33c.67,0,1.21,0,1.6-.78.15-.29,1-.22,1.57-.31Z"/><path class="a-availability" d="M168.43,134c-.16.32-.79.42-1.22.62l-.34-.27.58-1.6H168C168.18,133.21,168.57,133.75,168.43,134Z"/></svg>