<?xml version="1.0" encoding="utf-8"?>
<!-- Generator: Adobe Illustrator 16.0.0, SVG Export Plug-In . SVG Version: 6.00 Build 0)  -->
<!DOCTYPE svg PUBLIC "-//W3C//DTD SVG 1.1//EN" "http://www.w3.org/Graphics/SVG/1.1/DTD/svg11.dtd">
<svg version="1.1" id="Layer_1" xmlns="http://www.w3.org/2000/svg" xmlns:xlink="http://www.w3.org/1999/xlink" x="0px" y="0px"
	 viewBox="80.667 75.19 428.273 273.566"
	 enable-background="new 80.667 75.19 428.273 273.566" xml:space="preserve">
<path fill="#595AA0" d="M461.627,243.159c-0.245,0-0.491-0.031-0.732-0.099c-0.816-0.222-1.488-0.805-1.825-1.582l-10.652-24.567
	c-0.519-1.195-0.14-2.593,0.914-3.361l21.631-15.785c0.686-0.499,1.561-0.66,2.376-0.438c0.817,0.223,1.488,0.804,1.826,1.582
	l10.652,24.567c0.519,1.195,0.14,2.592-0.914,3.361l-21.633,15.785C462.788,242.977,462.211,243.159,461.627,243.159z
	 M454.42,216.739l8.379,19.325l17.014-12.416l-8.38-19.324L454.42,216.739z"/>
<path fill="#595AA0" d="M162.419,134.296c-0.846,0-1.648-0.386-2.176-1.047l-9.063-11.326c-0.814-1.019-0.814-2.466,0-3.484
	l9.063-11.326c1.057-1.322,3.297-1.322,4.354,0l9.062,11.326c0.815,1.019,0.815,2.466,0,3.484l-9.062,11.326
	C164.068,133.91,163.267,134.296,162.419,134.296z M156.929,120.181l5.49,6.863l5.491-6.863l-5.491-6.863L156.929,120.181z"/>
<path fill="#595AA0" d="M254.949,324.241c-0.846,0-1.648-0.386-2.176-1.047l-9.063-11.326c-0.814-1.02-0.814-2.466,0-3.484
	l9.063-11.325c1.057-1.322,3.297-1.322,4.354,0l9.062,11.325c0.815,1.02,0.815,2.466,0,3.484l-9.062,11.326
	C256.599,323.855,255.797,324.241,254.949,324.241z M249.459,310.126l5.49,6.863l5.491-6.863l-5.491-6.862L249.459,310.126z"/>
<path fill="#3DCFAD" d="M209.002,160.927c-1.54,0-2.789-1.248-2.789-2.788V141.41c0-1.54,1.249-2.788,2.789-2.788
	s2.788,1.248,2.788,2.788v16.729C211.79,159.679,210.542,160.927,209.002,160.927z"/>
<path fill="#3DCFAD" d="M217.366,152.563h-16.729c-1.54,0-2.789-1.249-2.789-2.788s1.249-2.788,2.789-2.788h16.729
	c1.539,0,2.787,1.249,2.787,2.788S218.905,152.563,217.366,152.563z"/>
<path fill="#3DCFAD" d="M209.002,155.351c-3.075,0-5.577-2.502-5.577-5.576c0-3.075,2.502-5.576,5.577-5.576
	s5.575,2.501,5.575,5.576C214.577,152.849,212.077,155.351,209.002,155.351z"/>
<path fill="#3DCFAD" d="M423.392,327.917c-1.182,0.987-2.939,0.831-3.928-0.351l-10.728-12.836c-0.987-1.183-0.829-2.94,0.353-3.929
	c1.183-0.987,2.939-0.831,3.927,0.353l10.729,12.836C424.73,325.172,424.573,326.93,423.392,327.917z"/>
<path fill="#3DCFAD" d="M424.446,316.136l-12.836,10.729c-1.183,0.986-2.941,0.83-3.93-0.353c-0.985-1.181-0.829-2.939,0.354-3.928
	l12.836-10.728c1.181-0.986,2.938-0.828,3.927,0.353C425.783,313.39,425.627,315.148,424.446,316.136z"/>
<path fill="#3DCFAD" d="M419.816,323.639c-2.36,1.973-5.885,1.656-7.855-0.701c-1.973-2.36-1.656-5.885,0.703-7.855
	s5.882-1.656,7.854,0.703C422.49,318.144,422.176,321.666,419.816,323.639z"/>
<path fill="#3DCFAD" d="M311.438,141.746c-1.539,0-2.789-1.248-2.789-2.787V122.23c0-1.54,1.25-2.788,2.789-2.788
	s2.787,1.248,2.787,2.788v16.729C314.227,140.498,312.977,141.746,311.438,141.746z"/>
<path fill="#3DCFAD" d="M319.802,133.382h-16.729c-1.538,0-2.787-1.248-2.787-2.788c0-1.539,1.249-2.787,2.787-2.787h16.729
	c1.539,0,2.788,1.248,2.788,2.787C322.59,132.134,321.341,133.382,319.802,133.382z"/>
<path fill="#3DCFAD" d="M311.438,136.17c-3.076,0-5.576-2.501-5.576-5.576c0-3.074,2.5-5.576,5.576-5.576
	c3.074,0,5.576,2.502,5.576,5.576C317.014,133.669,314.514,136.17,311.438,136.17z"/>
<path fill="#3DCFAD" d="M480.801,190.979c-1.49,0.387-3.013-0.508-3.398-1.998l-4.198-16.193c-0.387-1.491,0.509-3.013,2-3.399
	c1.488-0.386,3.011,0.509,3.396,1.999l4.198,16.194C483.186,189.072,482.29,190.594,480.801,190.979z"/>
<path fill="#3DCFAD" d="M486.797,180.784l-16.193,4.199c-1.488,0.386-3.012-0.509-3.397-2c-0.386-1.489,0.51-3.011,1.999-3.397
	l16.194-4.198c1.488-0.387,3.012,0.508,3.396,1.998C489.183,178.876,488.287,180.397,486.797,180.784z"/>
<path fill="#3DCFAD" d="M479.401,185.582c-2.979,0.772-6.026-1.021-6.798-3.998c-0.771-2.976,1.021-6.025,3.998-6.798
	c2.977-0.771,6.024,1.023,6.797,3.999C484.171,181.762,482.377,184.811,479.401,185.582z"/>
<path fill="#3DCFAD" d="M411.599,123.525c-0.714,0-1.427-0.273-1.972-0.817c-1.089-1.089-1.089-2.854,0-3.942l11.828-11.828
	c1.088-1.09,2.854-1.09,3.943,0c1.088,1.088,1.088,2.854,0,3.941l-11.828,11.829C413.025,123.252,412.313,123.525,411.599,123.525z"
	/>
<path fill="#3DCFAD" d="M423.426,123.525c-0.713,0-1.426-0.272-1.971-0.816l-11.828-11.829c-1.089-1.088-1.089-2.854,0-3.942
	c1.09-1.089,2.854-1.089,3.943,0l11.828,11.828c1.088,1.089,1.088,2.854,0,3.943C424.854,123.253,424.14,123.525,423.426,123.525z"
	/>
<path fill="#3DCFAD" d="M417.512,120.4c-1.487,0-2.889-0.58-3.94-1.633c-2.175-2.178-2.175-5.715,0-7.889
	c2.105-2.105,5.776-2.106,7.885,0.001c2.168,2.173,2.169,5.708,0.004,7.884C420.401,119.82,419.002,120.4,417.512,120.4z"/>
<g>
	<path fill="#3DCFAD" d="M202.031,101.241c0,2.311-1.872,4.183-4.184,4.183c-2.31,0-4.182-1.872-4.182-4.183
		c0-2.31,1.872-4.183,4.182-4.183C200.159,97.06,202.031,98.932,202.031,101.241"/>
	<path fill="#3DCFAD" d="M197.848,106.121c-2.689,0-4.879-2.188-4.879-4.879s2.189-4.88,4.879-4.88s4.879,2.189,4.879,4.88
		S200.538,106.121,197.848,106.121z M197.848,97.756c-1.922,0-3.484,1.564-3.484,3.485c0,1.922,1.563,3.485,3.484,3.485
		c1.923,0,3.486-1.563,3.486-3.485C201.334,99.32,199.77,97.756,197.848,97.756z"/>
</g>
<g>
	<path fill="#3DCFAD" d="M374.729,138.622c0,2.311-1.871,4.183-4.184,4.183c-2.311,0-4.182-1.872-4.182-4.183
		c0-2.31,1.871-4.183,4.182-4.183S374.729,136.313,374.729,138.622"/>
	<path fill="#3DCFAD" d="M370.545,143.501c-2.689,0-4.879-2.188-4.879-4.879s2.189-4.88,4.879-4.88s4.879,2.189,4.879,4.88
		S373.234,143.501,370.545,143.501z M370.545,135.137c-1.922,0-3.484,1.564-3.484,3.485c0,1.922,1.563,3.485,3.484,3.485
		c1.923,0,3.486-1.563,3.486-3.485C374.031,136.701,372.468,135.137,370.545,135.137z"/>
</g>
<g>
	<path fill="#3DCFAD" d="M435.276,291.188c0,2.312-1.872,4.184-4.185,4.184c-2.31,0-4.182-1.872-4.182-4.184
		c0-2.31,1.872-4.183,4.182-4.183C433.404,287.005,435.276,288.878,435.276,291.188"/>
	<path fill="#3DCFAD" d="M431.093,296.066c-2.688,0-4.879-2.188-4.879-4.879c0-2.691,2.189-4.881,4.879-4.881
		c2.69,0,4.879,2.189,4.879,4.881C435.972,293.878,433.783,296.066,431.093,296.066z M431.093,287.702
		c-1.922,0-3.483,1.563-3.483,3.485s1.563,3.484,3.483,3.484c1.923,0,3.486-1.563,3.486-3.484
		C434.579,289.268,433.016,287.702,431.093,287.702z"/>
</g>
<g>
	<path fill="#3DCFAD" d="M165.842,305.273c0,2.312-1.872,4.184-4.184,4.184c-2.31,0-4.182-1.872-4.182-4.184
		c0-2.31,1.872-4.183,4.182-4.183C163.97,301.092,165.842,302.965,165.842,305.273"/>
	<path fill="#3DCFAD" d="M161.658,310.153c-2.689,0-4.879-2.188-4.879-4.88c0-2.69,2.189-4.879,4.879-4.879
		c2.69,0,4.879,2.188,4.879,4.879C166.537,307.965,164.349,310.153,161.658,310.153z M161.658,301.789
		c-1.922,0-3.484,1.564-3.484,3.484c0,1.923,1.563,3.485,3.484,3.485c1.923,0,3.486-1.563,3.486-3.485
		C165.145,303.354,163.581,301.789,161.658,301.789z"/>
</g>
<line fill="none" stroke="#595AA0" stroke-width="5" stroke-linecap="round" stroke-linejoin="round" stroke-miterlimit="10" x1="220.885" y1="191.507" x2="150.789" y2="215.332"/>
<line fill="none" stroke="#3DCFAD" stroke-width="5" stroke-linecap="round" stroke-linejoin="round" stroke-miterlimit="10" x1="221.789" y1="258.816" x2="149.183" y2="235.923"/>
<line fill="none" stroke="#595AA0" stroke-width="5" stroke-linecap="round" stroke-linejoin="round" stroke-miterlimit="10" x1="340.789" y1="187.784" x2="273.789" y2="188.13"/>
<line fill="none" stroke="#3DCFAD" stroke-width="5" stroke-linecap="round" stroke-linejoin="round" stroke-miterlimit="10" x1="270" y1="258.5" x2="341" y2="258.5"/>
<path fill="#595AA0" d="M134.755,235.577c0.191,0,0.386-0.027,0.578-0.085c1.058-0.319,1.657-1.436,1.338-2.492
	c-1.243-4.127-4.388-6.848-8.626-7.466c-1.376-0.2-2.248-0.159-3.472-0.009c-3.6,0.451-7.688,2.981-8.706,7.621
	c-0.237,1.08,0.445,2.146,1.524,2.383c1.076,0.236,2.146-0.445,2.382-1.523c0.687-3.123,3.651-4.305,5.295-4.51
	c0.965-0.119,1.471-0.139,2.4-0.004c1.893,0.275,4.361,1.309,5.372,4.662C133.102,235.02,133.896,235.577,134.755,235.577z"/>
<path fill="#595AA0" d="M119.084,220.193c0-3.974,3.231-7.203,7.204-7.203c3.972,0,7.204,3.229,7.204,7.203
	c0,3.973-3.232,7.205-7.204,7.205C122.315,227.398,119.084,224.166,119.084,220.193z M123.084,220.193
	c0,1.767,1.438,3.205,3.204,3.205s3.204-1.438,3.204-3.205c0-1.768-1.438-3.203-3.204-3.203S123.084,218.427,123.084,220.193z"/>
<circle fill="none" stroke="#595AA0" stroke-width="5" stroke-miterlimit="10" cx="126.288" cy="224.283" r="22.895"/>
<path fill="#595AA0" d="M265.935,212h-38.323c-4.387,0-7.611-2.932-7.611-7.035v-25.837c0-4.252,3.371-8.128,7.611-8.128h38.323
	c4.258,0,8.065,3.876,8.065,8.128v25.837C274,209.068,270.339,212,265.935,212z M227.611,175c-2.072,0-3.611,2.044-3.611,4.128
	v25.837c0,2.18,1.712,3.035,3.611,3.035h38.323c2.197,0,4.065-1.143,4.065-3.035v-25.837c0-2.047-2.012-4.128-4.065-4.128H227.611z"
	/>
<path fill="#595AA0" d="M250.411,202h-7.641c-1.277,0-1.988-0.422-2.359-0.895c-0.85-1.083-0.538-2.285-0.352-3.045
	c0.033-0.135,0.068-0.233,0.09-0.362c0.147-0.851,0.318-1.678,0.49-2.521c0.129-0.638,0.259-1.267,0.377-1.905l0.013-0.066
	c-1.229-1.365-1.894-3.079-1.894-4.938c0-4.158,3.4-7.539,7.579-7.539c4.179,0,7.578,3.408,7.578,7.597
	c0,1.942-0.722,3.765-2.014,5.153l0.771,4.515c0.022,0.134,0.059,0.267,0.091,0.396c0.16,0.635,0.402,1.45-0.126,2.403
	C252.734,201.298,252.024,202,250.411,202z M244.114,198h4.929l-1.092-6.244l0.951-0.665c0.884-0.683,1.391-1.68,1.391-2.801
	c0-1.982-1.605-3.579-3.578-3.579c-1.974,0-3.579,1.597-3.579,3.549c0,1.342,0.719,2.211,1.322,2.701l0.932,0.758l-0.439,2.287
	c-0.122,0.661-0.257,1.181-0.391,1.843C244.404,196.612,244.249,198,244.114,198z"/>
<path fill="#595AA0" d="M230.289,169c-0.002,0-0.003,0-0.005,0c-1.381-1-2.284-1.34-2.284-2.721v-0.705
	c0-1.286-0.099-2.573-0.104-3.859c-0.002-0.617-0.065-1.224-0.075-1.821c-0.063-3.398-0.151-6.913,1.495-10.561
	c3.787-8.39,14.104-12.816,22.546-9.666c1.464,0.546,5.24,2.058,7.777,4.293c5.27,4.639,5.361,10.49,5.361,15.653v6.672
	c0,1.38-1.176,2.715-2.556,2.715h-0.078c-1.381,0-2.54-1.229-2.538-2.609l-0.021-6.729c0.005-5.444-0.242-8.988-3.574-11.922
	c-1.327-1.169-3.621-2.439-6.128-3.375c-5.964-2.225-13.56,1.058-16.257,7.032c-1.184,2.623-1.136,5.303-1.08,8.41
	c0.011,0.623,0.128,1.252,0.13,1.893c0.004,1.295,0.103,2.589,0.103,3.886v0.704C233,167.668,231.668,169,230.289,169z"/>
<circle fill="none" stroke="#3DCFAD" stroke-width="5" stroke-miterlimit="10" cx="244.684" cy="258.817" r="22.895"/>
<g>
	<path fill="#3DCFAD" d="M241.411,263.688c0,0.766,0.166,1.406,0.499,1.922c0.516,0.891,1.434,1.334,2.76,1.334
		c1.283,0,2.201-0.443,2.76-1.334c0.352-0.6,0.526-1.229,0.526-1.892c0-0.766-0.164-1.405-0.493-1.923
		c-0.561-0.911-1.49-1.365-2.793-1.365c-2.174,0-3.857-0.755-5.057-2.265c-0.971-1.22-1.459-2.646-1.459-4.279
		c0-1.345,0.363-2.596,1.087-3.753c0.891-1.363,2.159-2.224,3.817-2.574v-1.8c0-0.454,0.152-0.838,0.463-1.146
		c0.31-0.312,0.69-0.467,1.148-0.467c0.435,0,0.815,0.155,1.146,0.467c0.33,0.309,0.497,0.691,0.497,1.146v1.8
		c1.634,0.352,2.896,1.211,3.783,2.574c0.745,1.137,1.116,2.389,1.116,3.753c0,0.455-0.16,0.843-0.479,1.163
		c-0.319,0.319-0.708,0.48-1.163,0.48s-0.84-0.155-1.149-0.465c-0.308-0.311-0.465-0.705-0.465-1.18
		c0-0.744-0.164-1.376-0.493-1.892c-0.561-0.911-1.49-1.366-2.793-1.366c-0.995,0-1.785,0.296-2.372,0.885
		c-0.593,0.59-0.887,1.381-0.887,2.373c0,0.766,0.166,1.406,0.499,1.922c0.557,0.91,1.479,1.366,2.76,1.366
		c2.17,0,3.857,0.755,5.056,2.265c0.993,1.24,1.487,2.655,1.487,4.25c0,1.344-0.361,2.595-1.085,3.752
		c-0.889,1.386-2.161,2.254-3.814,2.605v1.799c0,0.453-0.16,0.844-0.483,1.163c-0.32,0.321-0.706,0.481-1.16,0.481
		c-0.458,0-0.839-0.155-1.148-0.469c-0.311-0.31-0.463-0.701-0.463-1.177v-1.799c-1.635-0.353-2.897-1.222-3.787-2.606
		c-0.742-1.156-1.117-2.408-1.117-3.752c0-0.455,0.157-0.838,0.465-1.148c0.311-0.309,0.705-0.463,1.18-0.463
		c0.458,0,0.838,0.154,1.148,0.463C241.257,262.85,241.411,263.23,241.411,263.688z"/>
</g>
<g>
	<g>
		<g>
			<path fill="#595AA0" d="M425.938,160.927h-82.742c-1.329,0-2.406,1.078-2.406,2.408v116.033c0,1.327,1.077,2.405,2.406,2.405
				h62.917c0.639,0,1.252-0.254,1.703-0.705l19.825-19.825c0.451-0.451,0.705-1.063,0.705-1.701v-96.207
				C428.347,162.005,427.268,160.927,425.938,160.927z M408.516,273.561l-0.011-11.625l11.627,0.01L408.516,273.561z
				 M423.531,257.134l-17.434-0.018c-0.002,0-0.002,0-0.002,0c-0.639,0-1.252,0.254-1.703,0.704
				c-0.451,0.453-0.705,1.066-0.705,1.705l0.017,17.435h-58.101V165.741h77.928V257.134z"/>
		</g>
	</g>
	<g>
		<g>
			<path fill="#595AA0" d="M365.454,247.779c-6.054,0-10.979,4.927-10.979,10.979c0,6.056,4.926,10.979,10.979,10.979
				s10.979-4.924,10.979-10.979C376.434,252.706,371.509,247.779,365.454,247.779z M365.454,264.923
				c-3.397,0-6.164-2.766-6.164-6.164c0-3.397,2.767-6.163,6.164-6.163s6.164,2.766,6.164,6.163
				C371.618,262.157,368.854,264.923,365.454,264.923z"/>
		</g>
	</g>
	<g>
		<g>
			<path fill="#595AA0" d="M396.845,256.739h-13.239c-1.33,0-2.407,1.077-2.407,2.405c0,1.33,1.077,2.408,2.407,2.408h13.239
				c1.33,0,2.407-1.078,2.407-2.408C399.252,257.816,398.175,256.739,396.845,256.739z"/>
		</g>
	</g>
	<g>
		<g>
			<path fill="#595AA0" d="M364.587,175.37h-6.981c-1.328,0-2.406,1.078-2.406,2.408c0,1.33,1.078,2.406,2.406,2.406h6.981
				c1.329,0,2.406-1.076,2.406-2.406C366.993,176.448,365.916,175.37,364.587,175.37z"/>
		</g>
	</g>
	<g>
		<g>
			<path fill="#595AA0" d="M412.493,175.37h-20.944c-1.328,0-2.406,1.078-2.406,2.408c0,1.33,1.078,2.406,2.406,2.406h20.944
				c1.328,0,2.406-1.076,2.406-2.406C414.899,176.448,413.821,175.37,412.493,175.37z"/>
		</g>
	</g>
	<g>
		<g>
			<path fill="#595AA0" d="M412.493,185.722h-35.629c-1.33,0-2.407,1.078-2.407,2.408s1.077,2.408,2.407,2.408h35.629
				c1.328,0,2.406-1.078,2.406-2.408S413.821,185.722,412.493,185.722z"/>
		</g>
	</g>
	<g>
		<g>
			<path fill="#595AA0" d="M412.612,204.741h-56.091c-1.33,0-2.408,1.075-2.408,2.405s1.078,2.408,2.408,2.408h56.091
				c1.33,0,2.407-1.078,2.407-2.408S413.942,204.741,412.612,204.741z"/>
		</g>
	</g>
	<g>
		<g>
			<path fill="#595AA0" d="M412.612,212.925h-56.091c-1.33,0-2.408,1.078-2.408,2.408s1.078,2.406,2.408,2.406h56.091
				c1.33,0,2.407-1.076,2.407-2.406C415.021,214.003,413.942,212.925,412.612,212.925z"/>
		</g>
	</g>
	<g>
		<g>
			<path fill="#595AA0" d="M412.612,221.833h-56.091c-1.33,0-2.408,1.078-2.408,2.406c0,1.329,1.078,2.407,2.408,2.407h56.091
				c1.33,0,2.407-1.078,2.407-2.407C415.021,222.911,413.942,221.833,412.612,221.833z"/>
		</g>
	</g>
	<g>
		<g>
			<path fill="#595AA0" d="M412.612,230.018h-9.39c-1.329,0-2.405,1.078-2.405,2.407c0,1.33,1.076,2.406,2.405,2.406h9.39
				c1.33,0,2.407-1.076,2.407-2.406C415.02,231.096,413.942,230.018,412.612,230.018z"/>
		</g>
	</g>
	<g>
		<g>
			<path fill="#595AA0" d="M384.568,230.018h-28.047c-1.33,0-2.408,1.078-2.408,2.407c0,1.33,1.078,2.406,2.408,2.406h28.047
				c1.328,0,2.406-1.076,2.406-2.406C386.975,231.096,385.896,230.018,384.568,230.018z"/>
		</g>
	</g>
</g>
</svg>
